G75*
%MOIN*%
%OFA0B0*%
%FSLAX24Y24*%
%IPPOS*%
%LPD*%
%AMOC8*
5,1,8,0,0,1.08239X$1,22.5*
%
%ADD10C,0.1300*%
%ADD11C,0.0970*%
%ADD12C,0.0640*%
%ADD13C,0.0590*%
%ADD14R,0.0700X0.0700*%
%ADD15C,0.0700*%
%ADD16C,0.0434*%
%ADD17C,0.4000*%
%ADD18R,0.0685X0.0685*%
%ADD19C,0.0685*%
%ADD20R,0.0940X0.0940*%
%ADD21C,0.0940*%
%ADD22OC8,0.0670*%
%ADD23C,0.0670*%
%ADD24OC8,0.0600*%
%ADD25C,0.1080*%
%ADD26C,0.0805*%
%ADD27R,0.0670X0.0670*%
D10*
X012620Y004600D03*
X030060Y004600D03*
X034840Y035800D03*
X034840Y040300D03*
X004440Y040300D03*
X004440Y035800D03*
D11*
X005640Y035000D03*
X005640Y041100D03*
X033640Y041100D03*
X033640Y035000D03*
D12*
X036440Y035440D03*
X036440Y036440D03*
X036440Y039660D03*
X036440Y040660D03*
X002840Y040660D03*
X002840Y039660D03*
X002840Y036440D03*
X002840Y035440D03*
D13*
X006940Y036300D03*
X006940Y037300D03*
X006940Y038300D03*
X006940Y039300D03*
X007940Y038800D03*
X007940Y037800D03*
X007940Y036800D03*
X007940Y039800D03*
X031340Y039300D03*
X031340Y038300D03*
X031340Y037300D03*
X031340Y036300D03*
X032340Y036800D03*
X032340Y037800D03*
X032340Y038800D03*
X032340Y039800D03*
X029310Y008100D03*
X028310Y008100D03*
X027810Y007100D03*
X026810Y007100D03*
X027310Y008100D03*
X028810Y007100D03*
X024830Y008100D03*
X023830Y008100D03*
X023330Y007100D03*
X024330Y007100D03*
X022830Y008100D03*
X022330Y007100D03*
X020350Y008100D03*
X019350Y008100D03*
X018850Y007100D03*
X019850Y007100D03*
X018350Y008100D03*
X017850Y007100D03*
X015870Y008100D03*
X014870Y008100D03*
X014370Y007100D03*
X015370Y007100D03*
X013870Y008100D03*
X013370Y007100D03*
D14*
X009140Y016720D03*
X029200Y015640D03*
D15*
X028200Y015640D03*
X027200Y015640D03*
X011140Y016720D03*
X010140Y016720D03*
D16*
X013094Y015748D03*
X016386Y015748D03*
D17*
X006845Y012057D03*
X006845Y031743D03*
X032435Y031743D03*
X032435Y012057D03*
D18*
X034040Y026400D03*
X005240Y017400D03*
D19*
X005240Y018400D03*
X005240Y019400D03*
X005240Y020400D03*
X005240Y021400D03*
X005240Y022400D03*
X005240Y023400D03*
X005240Y024400D03*
X005240Y025400D03*
X005240Y026400D03*
X034040Y025400D03*
X034040Y024400D03*
X034040Y023400D03*
X034040Y022400D03*
X034040Y021400D03*
X034040Y020400D03*
X034040Y019400D03*
X034040Y018400D03*
X034040Y017400D03*
D20*
X008340Y005890D03*
D21*
X006490Y004710D03*
X008340Y003530D03*
D22*
X011240Y010160D03*
D23*
X009840Y010160D03*
X024340Y014040D03*
D24*
X027840Y018400D03*
X027840Y019400D03*
X027840Y020400D03*
X027840Y021400D03*
X027840Y022400D03*
X028840Y022400D03*
X028840Y021400D03*
X028840Y020400D03*
X028840Y019400D03*
X028840Y018400D03*
X028840Y023400D03*
X028840Y024400D03*
X028840Y025400D03*
X027840Y025400D03*
X027840Y024400D03*
X027840Y023400D03*
D25*
X008360Y007260D03*
D26*
X005390Y007260D03*
X011330Y007260D03*
D27*
X023340Y014040D03*
M02*
