G75*
%MOIN*%
%OFA0B0*%
%FSLAX24Y24*%
%IPPOS*%
%LPD*%
%AMOC8*
5,1,8,0,0,1.08239X$1,22.5*
%
%ADD10R,0.0315X0.0217*%
%ADD11R,0.0120X0.0400*%
%ADD12R,0.0400X0.0120*%
%ADD13C,0.0930*%
%ADD14C,0.0600*%
%ADD15C,0.0550*%
%ADD16R,0.0472X0.0118*%
%ADD17R,0.0118X0.0472*%
%ADD18R,0.0660X0.0660*%
%ADD19C,0.0660*%
%ADD20R,0.0300X0.0300*%
%ADD21R,0.0945X0.0748*%
%ADD22R,0.0320X0.0360*%
%ADD23R,0.0360X0.0320*%
%ADD24R,0.0984X0.0768*%
%ADD25R,0.0768X0.0984*%
%ADD26R,0.0709X0.0394*%
%ADD27R,0.0394X0.0709*%
%ADD28R,0.0276X0.0709*%
%ADD29R,0.0630X0.0866*%
%ADD30R,0.0984X0.0394*%
%ADD31R,0.0354X0.0197*%
%ADD32C,0.3960*%
%ADD33R,0.0236X0.0866*%
%ADD34R,0.0645X0.0645*%
%ADD35C,0.0645*%
%ADD36R,0.0472X0.0335*%
%ADD37R,0.0900X0.0900*%
%ADD38C,0.0900*%
%ADD39OC8,0.0630*%
%ADD40C,0.0630*%
%ADD41R,0.0335X0.0472*%
%ADD42OC8,0.0560*%
%ADD43C,0.0765*%
%ADD44R,0.0630X0.0630*%
%ADD45C,0.0160*%
%ADD46C,0.0250*%
%ADD47C,0.0080*%
%ADD48C,0.0300*%
%ADD49C,0.0220*%
%ADD50C,0.0060*%
%ADD51C,0.0100*%
%ADD52C,0.0240*%
%ADD53C,0.0120*%
%ADD54C,0.0320*%
%ADD55C,0.0500*%
D10*
X018988Y015386D03*
X018988Y015760D03*
X018988Y016134D03*
X019932Y016134D03*
X019932Y015386D03*
D11*
X019940Y029150D03*
X019740Y029150D03*
X019540Y029150D03*
X019340Y029150D03*
X019140Y029150D03*
X018940Y029150D03*
X018740Y029150D03*
X018540Y029150D03*
X020140Y029150D03*
X020340Y029150D03*
X020540Y029150D03*
X020740Y029150D03*
X020740Y032450D03*
X020540Y032450D03*
X020340Y032450D03*
X020140Y032450D03*
X019940Y032450D03*
X019740Y032450D03*
X019540Y032450D03*
X019340Y032450D03*
X019140Y032450D03*
X018940Y032450D03*
X018740Y032450D03*
X018540Y032450D03*
D12*
X017990Y031900D03*
X017990Y031700D03*
X017990Y031500D03*
X017990Y031300D03*
X017990Y031100D03*
X017990Y030900D03*
X017990Y030700D03*
X017990Y030500D03*
X017990Y030300D03*
X017990Y030100D03*
X017990Y029900D03*
X017990Y029700D03*
X021290Y029700D03*
X021290Y029900D03*
X021290Y030100D03*
X021290Y030300D03*
X021290Y030500D03*
X021290Y030700D03*
X021290Y030900D03*
X021290Y031100D03*
X021290Y031300D03*
X021290Y031500D03*
X021290Y031700D03*
X021290Y031900D03*
D13*
X033640Y035000D03*
X033640Y041100D03*
X005640Y041100D03*
X005640Y035000D03*
D14*
X002840Y035440D03*
X002840Y036440D03*
X002840Y039660D03*
X002840Y040660D03*
X036440Y040660D03*
X036440Y039660D03*
X036440Y036440D03*
X036440Y035440D03*
D15*
X032340Y036800D03*
X032340Y037800D03*
X032340Y038800D03*
X032340Y039800D03*
X031340Y039300D03*
X031340Y038300D03*
X031340Y037300D03*
X031340Y036300D03*
X007940Y036800D03*
X007940Y037800D03*
X007940Y038800D03*
X007940Y039800D03*
X006940Y039300D03*
X006940Y038300D03*
X006940Y037300D03*
X006940Y036300D03*
X013870Y008100D03*
X013370Y007100D03*
X014370Y007100D03*
X015370Y007100D03*
X014870Y008100D03*
X015870Y008100D03*
X017850Y007100D03*
X018350Y008100D03*
X018850Y007100D03*
X019850Y007100D03*
X019350Y008100D03*
X020350Y008100D03*
X022330Y007100D03*
X022830Y008100D03*
X023330Y007100D03*
X024330Y007100D03*
X023830Y008100D03*
X024830Y008100D03*
X026810Y007100D03*
X027810Y007100D03*
X027310Y008100D03*
X028310Y008100D03*
X029310Y008100D03*
X028810Y007100D03*
D16*
X021411Y019338D03*
X021411Y019535D03*
X021411Y019731D03*
X021411Y019928D03*
X021411Y020125D03*
X021411Y020322D03*
X021411Y020519D03*
X021411Y020716D03*
X021411Y020913D03*
X021411Y021109D03*
X021411Y021306D03*
X021411Y021503D03*
X021411Y021700D03*
X021411Y021897D03*
X021411Y022094D03*
X021411Y022291D03*
X021411Y022487D03*
X021411Y022684D03*
X021411Y022881D03*
X021411Y023078D03*
X021411Y023275D03*
X021411Y023472D03*
X021411Y023669D03*
X021411Y023865D03*
X021411Y024062D03*
X015309Y024062D03*
X015309Y023865D03*
X015309Y023669D03*
X015309Y023472D03*
X015309Y023275D03*
X015309Y023078D03*
X015309Y022881D03*
X015309Y022684D03*
X015309Y022487D03*
X015309Y022291D03*
X015309Y022094D03*
X015309Y021897D03*
X015309Y021700D03*
X015309Y021503D03*
X015309Y021306D03*
X015309Y021109D03*
X015309Y020913D03*
X015309Y020716D03*
X015309Y020519D03*
X015309Y020322D03*
X015309Y020125D03*
X015309Y019928D03*
X015309Y019731D03*
X015309Y019535D03*
X015309Y019338D03*
D17*
X015998Y018649D03*
X016195Y018649D03*
X016391Y018649D03*
X016588Y018649D03*
X016785Y018649D03*
X016982Y018649D03*
X017179Y018649D03*
X017376Y018649D03*
X017573Y018649D03*
X017769Y018649D03*
X017966Y018649D03*
X018163Y018649D03*
X018360Y018649D03*
X018557Y018649D03*
X018754Y018649D03*
X018951Y018649D03*
X019147Y018649D03*
X019344Y018649D03*
X019541Y018649D03*
X019738Y018649D03*
X019935Y018649D03*
X020132Y018649D03*
X020329Y018649D03*
X020525Y018649D03*
X020722Y018649D03*
X020722Y024751D03*
X020525Y024751D03*
X020329Y024751D03*
X020132Y024751D03*
X019935Y024751D03*
X019738Y024751D03*
X019541Y024751D03*
X019344Y024751D03*
X019147Y024751D03*
X018951Y024751D03*
X018754Y024751D03*
X018557Y024751D03*
X018360Y024751D03*
X018163Y024751D03*
X017966Y024751D03*
X017769Y024751D03*
X017573Y024751D03*
X017376Y024751D03*
X017179Y024751D03*
X016982Y024751D03*
X016785Y024751D03*
X016588Y024751D03*
X016391Y024751D03*
X016195Y024751D03*
X015998Y024751D03*
D18*
X009140Y016720D03*
X029200Y015640D03*
D19*
X028200Y015640D03*
X027200Y015640D03*
X011140Y016720D03*
X010140Y016720D03*
D20*
X007515Y017650D03*
X006765Y017650D03*
X007140Y018550D03*
X014490Y014460D03*
X014490Y013920D03*
X015070Y013920D03*
X015070Y014460D03*
X014530Y004020D03*
X013950Y004020D03*
X017850Y004020D03*
X018430Y004020D03*
X022410Y004020D03*
X022990Y004020D03*
X026670Y004020D03*
X027250Y004020D03*
X032370Y015300D03*
X032370Y015840D03*
X032370Y016380D03*
X032950Y016380D03*
X032950Y015840D03*
X032950Y015300D03*
X032140Y025250D03*
X031765Y026150D03*
X032515Y026150D03*
D21*
X025040Y021967D03*
X025040Y020353D03*
X014660Y030613D03*
X014660Y032227D03*
D22*
X015690Y031840D03*
X016270Y031840D03*
X016270Y031000D03*
X015690Y031000D03*
X017130Y028540D03*
X017710Y028540D03*
X017710Y027580D03*
X017130Y027580D03*
X016930Y026380D03*
X016930Y025840D03*
X016350Y025840D03*
X016350Y026380D03*
X019850Y025440D03*
X020430Y025440D03*
X021870Y026140D03*
X021870Y026680D03*
X021870Y027220D03*
X021870Y027760D03*
X021870Y028300D03*
X021870Y028840D03*
X022450Y028840D03*
X022450Y028300D03*
X022450Y027760D03*
X022450Y027220D03*
X022450Y026680D03*
X022450Y026140D03*
X023430Y026140D03*
X024010Y026140D03*
X024010Y025600D03*
X024010Y025060D03*
X024010Y024520D03*
X024010Y023980D03*
X024010Y023440D03*
X023430Y023440D03*
X023430Y023980D03*
X023430Y024520D03*
X023430Y025060D03*
X023430Y025600D03*
X023430Y022840D03*
X024010Y022840D03*
X024010Y021880D03*
X023430Y021880D03*
X023430Y021280D03*
X023430Y020740D03*
X024010Y020740D03*
X024010Y021280D03*
X024010Y019600D03*
X023430Y019600D03*
X023430Y019000D03*
X024010Y019000D03*
X021230Y018000D03*
X020650Y018000D03*
X019750Y017380D03*
X019750Y016840D03*
X019170Y016840D03*
X019170Y017380D03*
X019170Y014680D03*
X019750Y014680D03*
X016390Y014460D03*
X016390Y013920D03*
X015810Y013920D03*
X015810Y014460D03*
X017350Y010700D03*
X017930Y010700D03*
X021750Y010700D03*
X022330Y010700D03*
X026250Y010700D03*
X026830Y010700D03*
X027210Y014440D03*
X027790Y014440D03*
X031290Y015300D03*
X031290Y015840D03*
X031290Y016380D03*
X031870Y016380D03*
X031870Y015840D03*
X031870Y015300D03*
X031950Y017400D03*
X032530Y017400D03*
X032530Y018000D03*
X031950Y018000D03*
X031950Y019400D03*
X032530Y019400D03*
X032530Y020000D03*
X031950Y020000D03*
X031950Y021400D03*
X032530Y021400D03*
X032530Y022000D03*
X031950Y022000D03*
X031950Y023400D03*
X032530Y023400D03*
X032530Y024000D03*
X031950Y024000D03*
X031850Y026700D03*
X032430Y026700D03*
X024130Y031260D03*
X024130Y031800D03*
X024130Y032340D03*
X023550Y032340D03*
X023550Y031800D03*
X023550Y031260D03*
X022930Y033540D03*
X022930Y034080D03*
X022930Y034620D03*
X022930Y035160D03*
X022930Y035700D03*
X022930Y036240D03*
X022350Y036240D03*
X022350Y035700D03*
X022350Y035160D03*
X022350Y034620D03*
X022350Y034080D03*
X022350Y033540D03*
X016930Y033540D03*
X016930Y034080D03*
X016930Y034620D03*
X016930Y035160D03*
X016930Y035700D03*
X016930Y036240D03*
X016350Y036240D03*
X016350Y035700D03*
X016350Y035160D03*
X016350Y034620D03*
X016350Y034080D03*
X016350Y033540D03*
X012550Y030100D03*
X012550Y029560D03*
X011970Y029560D03*
X011970Y030100D03*
X007330Y026400D03*
X006750Y026400D03*
X006750Y025800D03*
X007330Y025800D03*
X007330Y024400D03*
X006750Y024400D03*
X006750Y023800D03*
X007330Y023800D03*
X007330Y022400D03*
X006750Y022400D03*
X006750Y021800D03*
X007330Y021800D03*
X007330Y020400D03*
X006750Y020400D03*
X006750Y019800D03*
X007330Y019800D03*
X007430Y017100D03*
X006850Y017100D03*
X010550Y015780D03*
X011130Y015780D03*
X013890Y019000D03*
X013890Y019600D03*
X014470Y019600D03*
X014470Y019000D03*
X010990Y019780D03*
X010410Y019780D03*
X012750Y010700D03*
X013330Y010700D03*
X015690Y004900D03*
X016270Y004900D03*
X015730Y004020D03*
X015150Y004020D03*
X019050Y004020D03*
X019630Y004020D03*
X019650Y004900D03*
X020230Y004900D03*
X023610Y004020D03*
X024190Y004020D03*
X024130Y004900D03*
X024710Y004900D03*
X027870Y004020D03*
X028450Y004020D03*
X028410Y004900D03*
X028990Y004900D03*
X010750Y004000D03*
X010170Y004000D03*
X019850Y027800D03*
X020430Y027800D03*
X029750Y038820D03*
X030330Y038820D03*
X009370Y036780D03*
X008790Y036780D03*
D23*
X017300Y038230D03*
X017300Y038810D03*
X019140Y038170D03*
X019140Y037590D03*
X019740Y037590D03*
X019740Y038170D03*
X020340Y038170D03*
X020340Y037590D03*
X022220Y038290D03*
X022220Y038870D03*
D24*
X021240Y039000D03*
X021240Y037800D03*
X018240Y037800D03*
X018240Y039000D03*
X024440Y028600D03*
X024440Y027400D03*
D25*
X013160Y028600D03*
X011960Y028600D03*
X011500Y020720D03*
X010300Y020720D03*
D26*
X019760Y039189D03*
X019760Y040371D03*
D27*
X009991Y015780D03*
X008809Y015780D03*
X013949Y006000D03*
X015131Y006000D03*
X018349Y006000D03*
X019531Y006000D03*
X022849Y006000D03*
X024031Y006000D03*
X027349Y006000D03*
X028531Y006000D03*
X028509Y014440D03*
X029691Y014440D03*
D28*
X015970Y017323D03*
X015478Y017323D03*
X014986Y017323D03*
X014494Y017323D03*
X014002Y017323D03*
X013510Y017323D03*
D29*
X012584Y016260D03*
X016896Y016260D03*
D30*
X012320Y021900D03*
X012320Y022900D03*
X012320Y023900D03*
X012320Y025300D03*
X012320Y026300D03*
X012320Y027300D03*
X009760Y027300D03*
X009760Y026300D03*
X009760Y025300D03*
X009760Y023900D03*
X009760Y022900D03*
X009760Y021900D03*
D31*
X023565Y029688D03*
X023565Y030003D03*
X023565Y030317D03*
X023565Y030632D03*
X024195Y030632D03*
X024195Y030317D03*
X024195Y030003D03*
X024195Y029688D03*
D32*
X032435Y031743D03*
X032435Y012057D03*
X006845Y012057D03*
X006845Y031743D03*
D33*
X014190Y011324D03*
X014690Y011324D03*
X015190Y011324D03*
X015690Y011324D03*
X015690Y009276D03*
X015190Y009276D03*
X014690Y009276D03*
X014190Y009276D03*
X018690Y009276D03*
X019190Y009276D03*
X019690Y009276D03*
X020190Y009276D03*
X020190Y011324D03*
X019690Y011324D03*
X019190Y011324D03*
X018690Y011324D03*
X023090Y011324D03*
X023590Y011324D03*
X024090Y011324D03*
X024590Y011324D03*
X024590Y009276D03*
X024090Y009276D03*
X023590Y009276D03*
X023090Y009276D03*
X027590Y009276D03*
X028090Y009276D03*
X028590Y009276D03*
X029090Y009276D03*
X029090Y011324D03*
X028590Y011324D03*
X028090Y011324D03*
X027590Y011324D03*
D34*
X034040Y026400D03*
X005240Y017400D03*
D35*
X005240Y018400D03*
X005240Y019400D03*
X005240Y020400D03*
X005240Y021400D03*
X005240Y022400D03*
X005240Y023400D03*
X005240Y024400D03*
X005240Y025400D03*
X005240Y026400D03*
X034040Y025400D03*
X034040Y024400D03*
X034040Y023400D03*
X034040Y022400D03*
X034040Y021400D03*
X034040Y020400D03*
X034040Y019400D03*
X034040Y018400D03*
X034040Y017400D03*
D36*
X033240Y025300D03*
X033240Y026500D03*
X006040Y018400D03*
X006040Y017200D03*
D37*
X008340Y005890D03*
D38*
X006490Y004710D03*
X008340Y003530D03*
D39*
X011240Y010160D03*
D40*
X009840Y010160D03*
X024340Y014040D03*
D41*
X023560Y004900D03*
X022360Y004900D03*
X019060Y004900D03*
X017860Y004900D03*
X015140Y004900D03*
X013940Y004900D03*
X010160Y004900D03*
X008960Y004900D03*
X026680Y004900D03*
X027880Y004900D03*
D42*
X027840Y018400D03*
X027840Y019400D03*
X027840Y020400D03*
X027840Y021400D03*
X027840Y022400D03*
X028840Y022400D03*
X028840Y021400D03*
X028840Y020400D03*
X028840Y019400D03*
X028840Y018400D03*
X028840Y023400D03*
X028840Y024400D03*
X028840Y025400D03*
X027840Y025400D03*
X027840Y024400D03*
X027840Y023400D03*
D43*
X011330Y007260D03*
X005390Y007260D03*
D44*
X023340Y014040D03*
D45*
X005720Y004623D02*
X004369Y004623D01*
X004528Y004465D02*
X005758Y004465D01*
X005720Y004557D02*
X005837Y004274D01*
X006054Y004057D01*
X006337Y003940D01*
X006643Y003940D01*
X006926Y004057D01*
X007143Y004274D01*
X007260Y004557D01*
X007260Y004863D01*
X007143Y005146D01*
X006926Y005363D01*
X006643Y005480D01*
X006337Y005480D01*
X006054Y005363D01*
X005837Y005146D01*
X005720Y004863D01*
X005720Y004557D01*
X005720Y004782D02*
X004211Y004782D01*
X004052Y004940D02*
X005752Y004940D01*
X005818Y005099D02*
X003894Y005099D01*
X003735Y005257D02*
X005949Y005257D01*
X006182Y005416D02*
X003577Y005416D01*
X003418Y005574D02*
X007570Y005574D01*
X007570Y005416D02*
X006798Y005416D01*
X007031Y005257D02*
X007620Y005257D01*
X007619Y005259D02*
X007709Y005169D01*
X007770Y005143D01*
X007770Y005087D01*
X007857Y004877D01*
X008157Y004577D01*
X008317Y004417D01*
X008527Y004330D01*
X008540Y004330D01*
X008540Y004281D01*
X008493Y004300D01*
X008187Y004300D01*
X007904Y004183D01*
X007687Y003966D01*
X007570Y003683D01*
X007570Y003377D01*
X007687Y003094D01*
X007904Y002877D01*
X008187Y002760D01*
X008493Y002760D01*
X008540Y002779D01*
X008540Y002220D01*
X006773Y002220D01*
X001960Y007033D01*
X001960Y041580D01*
X005208Y041580D01*
X005154Y041526D01*
X005103Y041459D01*
X005060Y041386D01*
X005028Y041308D01*
X005006Y041226D01*
X004999Y041175D01*
X005565Y041175D01*
X005565Y041025D01*
X005715Y041025D01*
X005715Y041175D01*
X006281Y041175D01*
X006274Y041226D01*
X006252Y041308D01*
X006220Y041386D01*
X006177Y041459D01*
X006126Y041526D01*
X006072Y041580D01*
X033208Y041580D01*
X033154Y041526D01*
X033103Y041459D01*
X033060Y041386D01*
X033028Y041308D01*
X033006Y041226D01*
X032999Y041175D01*
X033565Y041175D01*
X033565Y041025D01*
X033715Y041025D01*
X033715Y041175D01*
X034281Y041175D01*
X034274Y041226D01*
X034252Y041308D01*
X034220Y041386D01*
X034177Y041459D01*
X034126Y041526D01*
X034072Y041580D01*
X037320Y041580D01*
X037320Y007033D01*
X032507Y002220D01*
X030740Y002220D01*
X030740Y003936D01*
X030865Y004062D01*
X031010Y004411D01*
X031010Y004789D01*
X030865Y005138D01*
X030740Y005264D01*
X030740Y010716D01*
X030848Y010590D01*
X030968Y010470D01*
X031097Y010360D01*
X031234Y010260D01*
X031379Y010171D01*
X031530Y010094D01*
X031687Y010029D01*
X031849Y009977D01*
X032014Y009937D01*
X032181Y009911D01*
X032350Y009897D01*
X032355Y009897D01*
X032355Y011977D01*
X032515Y011977D01*
X032515Y009897D01*
X032520Y009897D01*
X032689Y009911D01*
X032857Y009937D01*
X033022Y009977D01*
X033183Y010029D01*
X033340Y010094D01*
X033492Y010171D01*
X033636Y010260D01*
X033774Y010360D01*
X033903Y010470D01*
X034023Y010590D01*
X034133Y010719D01*
X034233Y010857D01*
X034321Y011001D01*
X034398Y011152D01*
X034463Y011309D01*
X034516Y011471D01*
X034555Y011636D01*
X034582Y011803D01*
X034595Y011973D01*
X034595Y011977D01*
X032515Y011977D01*
X032515Y012137D01*
X034595Y012137D01*
X034595Y012142D01*
X034582Y012312D01*
X034555Y012479D01*
X034516Y012644D01*
X034463Y012806D01*
X034398Y012962D01*
X034321Y013114D01*
X034233Y013258D01*
X034133Y013396D01*
X034023Y013525D01*
X033903Y013645D01*
X033774Y013755D01*
X033636Y013855D01*
X033492Y013944D01*
X033340Y014021D01*
X033183Y014086D01*
X033139Y014100D01*
X034640Y014100D01*
X034640Y017170D01*
X034682Y017272D01*
X034682Y017528D01*
X034640Y017630D01*
X034640Y018170D01*
X034682Y018272D01*
X034682Y018528D01*
X034640Y018630D01*
X034640Y019170D01*
X034682Y019272D01*
X034682Y019528D01*
X034640Y019630D01*
X034640Y020170D01*
X034682Y020272D01*
X034682Y020528D01*
X034640Y020630D01*
X034640Y021170D01*
X034682Y021272D01*
X034682Y021528D01*
X034640Y021630D01*
X034640Y022170D01*
X034682Y022272D01*
X034682Y022528D01*
X034640Y022630D01*
X034640Y023170D01*
X034682Y023272D01*
X034682Y023528D01*
X034640Y023630D01*
X034640Y024170D01*
X034682Y024272D01*
X034682Y024528D01*
X034640Y024630D01*
X034640Y025170D01*
X034682Y025272D01*
X034682Y025528D01*
X034640Y025630D01*
X034640Y025911D01*
X034682Y026014D01*
X034682Y026786D01*
X034640Y026889D01*
X034640Y029700D01*
X033139Y029700D01*
X033183Y029714D01*
X033340Y029779D01*
X033492Y029856D01*
X033636Y029945D01*
X033774Y030045D01*
X033903Y030155D01*
X034023Y030275D01*
X034133Y030404D01*
X034233Y030542D01*
X034321Y030686D01*
X034398Y030838D01*
X034463Y030994D01*
X034516Y031156D01*
X034555Y031321D01*
X034582Y031488D01*
X034595Y031658D01*
X034595Y031663D01*
X032515Y031663D01*
X032515Y031823D01*
X032355Y031823D01*
X032355Y033903D01*
X032350Y033903D01*
X032181Y033889D01*
X032014Y033863D01*
X031849Y033823D01*
X031687Y033771D01*
X031530Y033706D01*
X031379Y033629D01*
X031234Y033540D01*
X031097Y033440D01*
X030968Y033330D01*
X030848Y033210D01*
X030740Y033084D01*
X030740Y033892D01*
X030745Y033896D01*
X030810Y034054D01*
X030810Y034226D01*
X030745Y034384D01*
X030740Y034388D01*
X030740Y036600D01*
X031005Y036608D01*
X030993Y036596D01*
X030951Y036538D01*
X030918Y036475D01*
X030896Y036407D01*
X030885Y036336D01*
X030885Y036308D01*
X031332Y036308D01*
X031332Y036292D01*
X031348Y036292D01*
X031348Y036308D01*
X031795Y036308D01*
X031795Y036336D01*
X031784Y036407D01*
X031762Y036475D01*
X031729Y036538D01*
X031687Y036596D01*
X031655Y036629D01*
X031766Y036632D01*
X031836Y036463D01*
X032003Y036296D01*
X032222Y036205D01*
X032458Y036205D01*
X032677Y036296D01*
X032844Y036463D01*
X032935Y036682D01*
X032935Y036918D01*
X032930Y036930D01*
X033140Y037140D01*
X033140Y040140D01*
X032480Y040800D01*
X024260Y040800D01*
X023000Y039540D01*
X022014Y039540D01*
X022013Y039543D01*
X022017Y039548D01*
X022085Y039711D01*
X022085Y039889D01*
X022017Y040052D01*
X021892Y040177D01*
X021729Y040245D01*
X021551Y040245D01*
X021388Y040177D01*
X021263Y040052D01*
X021195Y039889D01*
X021195Y039711D01*
X021198Y039704D01*
X020684Y039704D01*
X020567Y039656D01*
X020530Y039618D01*
X020453Y039650D01*
X020303Y039650D01*
X020296Y039658D01*
X020178Y039706D01*
X019342Y039706D01*
X019224Y039658D01*
X019217Y039650D01*
X019067Y039650D01*
X018962Y039607D01*
X018913Y039656D01*
X018796Y039704D01*
X017684Y039704D01*
X017567Y039656D01*
X017477Y039566D01*
X017466Y039540D01*
X008314Y039540D01*
X008329Y039562D01*
X008362Y039625D01*
X008384Y039693D01*
X008395Y039764D01*
X008395Y039792D01*
X007948Y039792D01*
X007948Y039808D01*
X007932Y039808D01*
X007932Y040255D01*
X007904Y040255D01*
X007833Y040244D01*
X007765Y040222D01*
X007702Y040189D01*
X007644Y040147D01*
X007593Y040096D01*
X007551Y040038D01*
X007518Y039975D01*
X007496Y039907D01*
X007485Y039836D01*
X007485Y039808D01*
X007932Y039808D01*
X007932Y039792D01*
X007485Y039792D01*
X007485Y039764D01*
X007496Y039693D01*
X007518Y039625D01*
X007551Y039562D01*
X007566Y039540D01*
X007485Y039540D01*
X007444Y039637D01*
X007277Y039804D01*
X007058Y039895D01*
X006822Y039895D01*
X006603Y039804D01*
X006436Y039637D01*
X006395Y039540D01*
X005540Y039540D01*
X005540Y036540D01*
X009440Y032700D01*
X009440Y029100D01*
X004640Y029100D01*
X004640Y026630D01*
X004598Y026528D01*
X004598Y026272D01*
X004640Y026170D01*
X004640Y025630D01*
X004598Y025528D01*
X004598Y025272D01*
X004640Y025170D01*
X004640Y024630D01*
X004598Y024528D01*
X004598Y024272D01*
X004640Y024170D01*
X004640Y023630D01*
X004598Y023528D01*
X004598Y023272D01*
X004640Y023170D01*
X004640Y022630D01*
X004598Y022528D01*
X004598Y022272D01*
X004640Y022170D01*
X004640Y021630D01*
X004598Y021528D01*
X004598Y021272D01*
X004640Y021170D01*
X004640Y020630D01*
X004598Y020528D01*
X004598Y020272D01*
X004640Y020170D01*
X004640Y019630D01*
X004598Y019528D01*
X004598Y019272D01*
X004640Y019170D01*
X004640Y018630D01*
X004598Y018528D01*
X004598Y018272D01*
X004640Y018170D01*
X004640Y017889D01*
X004598Y017786D01*
X004598Y017014D01*
X004640Y016911D01*
X004640Y014700D01*
X008540Y014700D01*
X008540Y013398D01*
X008432Y013525D01*
X008312Y013645D01*
X008183Y013755D01*
X008046Y013855D01*
X007901Y013944D01*
X007750Y014021D01*
X007593Y014086D01*
X007431Y014138D01*
X007266Y014178D01*
X007099Y014204D01*
X006930Y014217D01*
X006925Y014217D01*
X006925Y012137D01*
X006765Y012137D01*
X006765Y011977D01*
X006925Y011977D01*
X006925Y009897D01*
X006930Y009897D01*
X007099Y009911D01*
X007266Y009937D01*
X007431Y009977D01*
X007593Y010029D01*
X007750Y010094D01*
X007901Y010171D01*
X008046Y010260D01*
X008183Y010360D01*
X008312Y010470D01*
X008432Y010590D01*
X008540Y010716D01*
X008540Y008095D01*
X008527Y008100D01*
X008193Y008100D01*
X007884Y007972D01*
X007648Y007736D01*
X007520Y007427D01*
X007520Y007093D01*
X007648Y006784D01*
X007788Y006644D01*
X007709Y006611D01*
X007619Y006521D01*
X007570Y006404D01*
X007570Y005376D01*
X007619Y005259D01*
X007770Y005099D02*
X007162Y005099D01*
X007228Y004940D02*
X007831Y004940D01*
X007952Y004782D02*
X007260Y004782D01*
X007260Y004623D02*
X008110Y004623D01*
X008269Y004465D02*
X007222Y004465D01*
X007156Y004306D02*
X008540Y004306D01*
X007869Y004148D02*
X007017Y004148D01*
X006763Y003989D02*
X007711Y003989D01*
X007631Y003831D02*
X005162Y003831D01*
X005320Y003672D02*
X007570Y003672D01*
X007570Y003514D02*
X005479Y003514D01*
X005637Y003355D02*
X007579Y003355D01*
X007645Y003197D02*
X005796Y003197D01*
X005954Y003038D02*
X007743Y003038D01*
X007901Y002880D02*
X006113Y002880D01*
X006271Y002721D02*
X008540Y002721D01*
X008540Y002563D02*
X006430Y002563D01*
X006588Y002404D02*
X008540Y002404D01*
X008540Y002246D02*
X006747Y002246D01*
X006217Y003989D02*
X005003Y003989D01*
X004845Y004148D02*
X005963Y004148D01*
X005824Y004306D02*
X004686Y004306D01*
X003260Y005733D02*
X007570Y005733D01*
X007570Y005891D02*
X003101Y005891D01*
X002943Y006050D02*
X007570Y006050D01*
X007570Y006208D02*
X002784Y006208D01*
X002626Y006367D02*
X007570Y006367D01*
X007623Y006525D02*
X002467Y006525D01*
X002309Y006684D02*
X004973Y006684D01*
X004992Y006664D02*
X005250Y006558D01*
X005530Y006558D01*
X005788Y006664D01*
X005986Y006862D01*
X006092Y007120D01*
X006092Y007400D01*
X005986Y007658D01*
X005788Y007856D01*
X005530Y007962D01*
X005250Y007962D01*
X004992Y007856D01*
X004794Y007658D01*
X004688Y007400D01*
X004688Y007120D01*
X004794Y006862D01*
X004992Y006664D01*
X004814Y006842D02*
X002150Y006842D01*
X001992Y007001D02*
X004737Y007001D01*
X004688Y007159D02*
X001960Y007159D01*
X001960Y007318D02*
X004688Y007318D01*
X004719Y007476D02*
X001960Y007476D01*
X001960Y007635D02*
X004785Y007635D01*
X004930Y007793D02*
X001960Y007793D01*
X001960Y007952D02*
X005225Y007952D01*
X005555Y007952D02*
X007864Y007952D01*
X007706Y007793D02*
X005850Y007793D01*
X005995Y007635D02*
X007606Y007635D01*
X007540Y007476D02*
X006061Y007476D01*
X006092Y007318D02*
X007520Y007318D01*
X007520Y007159D02*
X006092Y007159D01*
X006043Y007001D02*
X007558Y007001D01*
X007624Y006842D02*
X005966Y006842D01*
X005807Y006684D02*
X007748Y006684D01*
X008540Y008110D02*
X001960Y008110D01*
X001960Y008269D02*
X008540Y008269D01*
X008540Y008427D02*
X001960Y008427D01*
X001960Y008586D02*
X008540Y008586D01*
X008540Y008744D02*
X001960Y008744D01*
X001960Y008903D02*
X008540Y008903D01*
X008540Y009061D02*
X001960Y009061D01*
X001960Y009220D02*
X008540Y009220D01*
X008540Y009378D02*
X001960Y009378D01*
X001960Y009537D02*
X008540Y009537D01*
X008540Y009695D02*
X001960Y009695D01*
X001960Y009854D02*
X008540Y009854D01*
X008540Y010012D02*
X007541Y010012D01*
X007900Y010171D02*
X008540Y010171D01*
X008540Y010329D02*
X008141Y010329D01*
X008330Y010488D02*
X008540Y010488D01*
X008540Y010646D02*
X008480Y010646D01*
X006925Y010646D02*
X006765Y010646D01*
X006765Y010488D02*
X006925Y010488D01*
X006925Y010329D02*
X006765Y010329D01*
X006765Y010171D02*
X006925Y010171D01*
X006925Y010012D02*
X006765Y010012D01*
X006765Y009897D02*
X006765Y011977D01*
X004685Y011977D01*
X004685Y011973D01*
X004698Y011803D01*
X004725Y011636D01*
X004764Y011471D01*
X004817Y011309D01*
X004882Y011152D01*
X004959Y011001D01*
X005047Y010857D01*
X005147Y010719D01*
X005257Y010590D01*
X005377Y010470D01*
X005506Y010360D01*
X005644Y010260D01*
X005788Y010171D01*
X005940Y010094D01*
X006097Y010029D01*
X006258Y009977D01*
X006423Y009937D01*
X006591Y009911D01*
X006760Y009897D01*
X006765Y009897D01*
X006149Y010012D02*
X001960Y010012D01*
X001960Y010171D02*
X005789Y010171D01*
X005548Y010329D02*
X001960Y010329D01*
X001960Y010488D02*
X005360Y010488D01*
X005209Y010646D02*
X001960Y010646D01*
X001960Y010805D02*
X005085Y010805D01*
X004982Y010963D02*
X001960Y010963D01*
X001960Y011122D02*
X004897Y011122D01*
X004829Y011280D02*
X001960Y011280D01*
X001960Y011439D02*
X004775Y011439D01*
X004734Y011597D02*
X001960Y011597D01*
X001960Y011756D02*
X004706Y011756D01*
X004689Y011914D02*
X001960Y011914D01*
X001960Y012073D02*
X006765Y012073D01*
X006765Y012137D02*
X004685Y012137D01*
X004685Y012142D01*
X004698Y012312D01*
X004725Y012479D01*
X004764Y012644D01*
X004817Y012806D01*
X004882Y012962D01*
X004959Y013114D01*
X005047Y013258D01*
X005147Y013396D01*
X005257Y013525D01*
X005377Y013645D01*
X005506Y013755D01*
X005644Y013855D01*
X005788Y013944D01*
X005940Y014021D01*
X006097Y014086D01*
X006258Y014138D01*
X006423Y014178D01*
X006591Y014204D01*
X006760Y014217D01*
X006765Y014217D01*
X006765Y012137D01*
X006765Y012231D02*
X006925Y012231D01*
X006925Y012390D02*
X006765Y012390D01*
X006765Y012548D02*
X006925Y012548D01*
X006925Y012707D02*
X006765Y012707D01*
X006765Y012865D02*
X006925Y012865D01*
X006925Y013024D02*
X006765Y013024D01*
X006765Y013182D02*
X006925Y013182D01*
X006925Y013341D02*
X006765Y013341D01*
X006765Y013499D02*
X006925Y013499D01*
X006925Y013658D02*
X006765Y013658D01*
X006765Y013816D02*
X006925Y013816D01*
X006925Y013975D02*
X006765Y013975D01*
X006765Y014133D02*
X006925Y014133D01*
X006244Y014133D02*
X001960Y014133D01*
X001960Y013975D02*
X005850Y013975D01*
X005591Y013816D02*
X001960Y013816D01*
X001960Y013658D02*
X005393Y013658D01*
X005236Y013499D02*
X001960Y013499D01*
X001960Y013341D02*
X005107Y013341D01*
X005001Y013182D02*
X001960Y013182D01*
X001960Y013024D02*
X004913Y013024D01*
X004841Y012865D02*
X001960Y012865D01*
X001960Y012707D02*
X004785Y012707D01*
X004741Y012548D02*
X001960Y012548D01*
X001960Y012390D02*
X004710Y012390D01*
X004692Y012231D02*
X001960Y012231D01*
X001960Y014292D02*
X008540Y014292D01*
X008540Y014450D02*
X001960Y014450D01*
X001960Y014609D02*
X008540Y014609D01*
X008540Y014133D02*
X007445Y014133D01*
X007839Y013975D02*
X008540Y013975D01*
X008540Y013816D02*
X008098Y013816D01*
X008297Y013658D02*
X008540Y013658D01*
X008540Y013499D02*
X008454Y013499D01*
X006925Y011914D02*
X006765Y011914D01*
X006765Y011756D02*
X006925Y011756D01*
X006925Y011597D02*
X006765Y011597D01*
X006765Y011439D02*
X006925Y011439D01*
X006925Y011280D02*
X006765Y011280D01*
X006765Y011122D02*
X006925Y011122D01*
X006925Y010963D02*
X006765Y010963D01*
X006765Y010805D02*
X006925Y010805D01*
X010160Y008100D02*
X012740Y008100D01*
X012740Y005400D01*
X013130Y005400D01*
X013130Y005207D01*
X013067Y005270D01*
X012777Y005390D01*
X012463Y005390D01*
X012173Y005270D01*
X011950Y005047D01*
X011830Y004757D01*
X011830Y004443D01*
X011950Y004153D01*
X012173Y003930D01*
X012463Y003810D01*
X012777Y003810D01*
X013067Y003930D01*
X013290Y004153D01*
X013410Y004443D01*
X013410Y004757D01*
X013386Y004814D01*
X013437Y004764D01*
X013504Y004697D01*
X013592Y004660D01*
X013652Y004660D01*
X013652Y004614D01*
X013723Y004544D01*
X013770Y004544D01*
X013770Y004290D01*
X013750Y004290D01*
X013680Y004220D01*
X013680Y003820D01*
X013750Y003750D01*
X014150Y003750D01*
X014220Y003820D01*
X014220Y004220D01*
X014150Y004290D01*
X014110Y004290D01*
X014110Y004544D01*
X014157Y004544D01*
X014227Y004614D01*
X014227Y005186D01*
X014157Y005256D01*
X013723Y005256D01*
X013673Y005207D01*
X013610Y005269D01*
X013610Y005400D01*
X017620Y005400D01*
X017620Y005233D01*
X017572Y005186D01*
X017572Y004614D01*
X017643Y004544D01*
X017690Y004544D01*
X017690Y004290D01*
X017650Y004290D01*
X017580Y004220D01*
X017580Y003820D01*
X017650Y003750D01*
X018050Y003750D01*
X018120Y003820D01*
X018120Y004220D01*
X018050Y004290D01*
X018030Y004290D01*
X018030Y004544D01*
X018077Y004544D01*
X018147Y004614D01*
X018147Y005186D01*
X018100Y005233D01*
X018100Y005400D01*
X022120Y005400D01*
X022120Y005233D01*
X022072Y005186D01*
X022072Y004614D01*
X022143Y004544D01*
X022190Y004544D01*
X022190Y004269D01*
X022140Y004220D01*
X022140Y003820D01*
X022210Y003750D01*
X022610Y003750D01*
X022680Y003820D01*
X022680Y004220D01*
X022610Y004290D01*
X022530Y004290D01*
X022530Y004544D01*
X022577Y004544D01*
X022647Y004614D01*
X022647Y005186D01*
X022600Y005233D01*
X022600Y005400D01*
X026440Y005400D01*
X026440Y005233D01*
X026392Y005186D01*
X026392Y004614D01*
X026463Y004544D01*
X026500Y004544D01*
X026500Y004290D01*
X026470Y004290D01*
X026400Y004220D01*
X026400Y003820D01*
X026470Y003750D01*
X026870Y003750D01*
X026940Y003820D01*
X026940Y004220D01*
X026870Y004290D01*
X026840Y004290D01*
X026840Y004544D01*
X026897Y004544D01*
X026967Y004614D01*
X026967Y005186D01*
X026920Y005233D01*
X026920Y005400D01*
X029240Y005400D01*
X029240Y005236D01*
X029219Y005248D01*
X029174Y005260D01*
X028990Y005260D01*
X028990Y004900D01*
X028990Y004900D01*
X028990Y004540D01*
X029174Y004540D01*
X029219Y004552D01*
X029240Y004564D01*
X029240Y002060D01*
X010160Y002060D01*
X010160Y003700D01*
X010380Y003700D01*
X010425Y003745D01*
X010446Y003709D01*
X010479Y003676D01*
X010521Y003652D01*
X010566Y003640D01*
X010750Y003640D01*
X010934Y003640D01*
X010979Y003652D01*
X011021Y003676D01*
X011054Y003709D01*
X011078Y003751D01*
X011090Y003796D01*
X011090Y004000D01*
X011090Y004204D01*
X011078Y004249D01*
X011054Y004291D01*
X011021Y004324D01*
X010979Y004348D01*
X010934Y004360D01*
X010750Y004360D01*
X010750Y004000D01*
X010750Y004000D01*
X011090Y004000D01*
X010750Y004000D01*
X010750Y004000D01*
X010750Y004360D01*
X010566Y004360D01*
X010521Y004348D01*
X010479Y004324D01*
X010450Y004295D01*
X010450Y004946D01*
X010448Y004952D01*
X010448Y005186D01*
X010377Y005256D01*
X010160Y005256D01*
X010160Y008100D01*
X010160Y007952D02*
X012740Y007952D01*
X012740Y007793D02*
X011508Y007793D01*
X011546Y007781D02*
X011462Y007809D01*
X011378Y007822D01*
X011378Y007308D01*
X011892Y007308D01*
X011879Y007392D01*
X011851Y007476D01*
X011811Y007555D01*
X011759Y007626D01*
X011696Y007689D01*
X011625Y007741D01*
X011546Y007781D01*
X011378Y007793D02*
X011282Y007793D01*
X011282Y007822D02*
X011198Y007809D01*
X011114Y007781D01*
X011035Y007741D01*
X010964Y007689D01*
X010901Y007626D01*
X010849Y007555D01*
X010809Y007476D01*
X010781Y007392D01*
X010768Y007308D01*
X011282Y007308D01*
X011282Y007822D01*
X011152Y007793D02*
X010160Y007793D01*
X010160Y007635D02*
X010909Y007635D01*
X010809Y007476D02*
X010160Y007476D01*
X010160Y007318D02*
X010770Y007318D01*
X010768Y007212D02*
X010781Y007128D01*
X010809Y007044D01*
X010849Y006965D01*
X010901Y006894D01*
X010964Y006831D01*
X011035Y006779D01*
X011114Y006739D01*
X011198Y006711D01*
X011282Y006698D01*
X011282Y007212D01*
X011378Y007212D01*
X011378Y007308D01*
X011282Y007308D01*
X011282Y007212D01*
X010768Y007212D01*
X010776Y007159D02*
X010160Y007159D01*
X010160Y007001D02*
X010831Y007001D01*
X010952Y006842D02*
X010160Y006842D01*
X010160Y006684D02*
X012740Y006684D01*
X012740Y006842D02*
X011708Y006842D01*
X011696Y006831D02*
X011759Y006894D01*
X011811Y006965D01*
X011851Y007044D01*
X011879Y007128D01*
X011892Y007212D01*
X011378Y007212D01*
X011378Y006698D01*
X011462Y006711D01*
X011546Y006739D01*
X011625Y006779D01*
X011696Y006831D01*
X011829Y007001D02*
X012740Y007001D01*
X012740Y007159D02*
X011884Y007159D01*
X011890Y007318D02*
X012740Y007318D01*
X012740Y007476D02*
X011851Y007476D01*
X011751Y007635D02*
X012740Y007635D01*
X012740Y006525D02*
X010160Y006525D01*
X010160Y006367D02*
X012740Y006367D01*
X012740Y006208D02*
X010160Y006208D01*
X010160Y006050D02*
X012740Y006050D01*
X012740Y005891D02*
X010160Y005891D01*
X010160Y005733D02*
X012740Y005733D01*
X012740Y005574D02*
X010160Y005574D01*
X010160Y005416D02*
X012740Y005416D01*
X013080Y005257D02*
X013130Y005257D01*
X013622Y005257D02*
X016077Y005257D01*
X016086Y005260D02*
X016041Y005248D01*
X015999Y005224D01*
X015966Y005191D01*
X015945Y005155D01*
X015900Y005200D01*
X015480Y005200D01*
X015428Y005147D01*
X015428Y005186D01*
X015357Y005256D01*
X014923Y005256D01*
X014853Y005186D01*
X014853Y004614D01*
X014923Y004544D01*
X015357Y004544D01*
X015428Y004614D01*
X015428Y004653D01*
X015480Y004600D01*
X015900Y004600D01*
X015945Y004645D01*
X015966Y004609D01*
X015999Y004576D01*
X016041Y004552D01*
X016086Y004540D01*
X016270Y004540D01*
X016454Y004540D01*
X016499Y004552D01*
X016541Y004576D01*
X016574Y004609D01*
X016598Y004651D01*
X016610Y004696D01*
X016610Y004900D01*
X016610Y005104D01*
X016598Y005149D01*
X016574Y005191D01*
X016541Y005224D01*
X016499Y005248D01*
X016454Y005260D01*
X016270Y005260D01*
X016270Y004900D01*
X016270Y004900D01*
X016610Y004900D01*
X016270Y004900D01*
X016270Y004900D01*
X016270Y005260D01*
X016086Y005260D01*
X016270Y005257D02*
X016270Y005257D01*
X016270Y005099D02*
X016270Y005099D01*
X016270Y004940D02*
X016270Y004940D01*
X016270Y004900D02*
X016270Y004540D01*
X016270Y004900D01*
X016270Y004900D01*
X016270Y004782D02*
X016270Y004782D01*
X016270Y004623D02*
X016270Y004623D01*
X016582Y004623D02*
X017572Y004623D01*
X017572Y004782D02*
X016610Y004782D01*
X016610Y004940D02*
X017572Y004940D01*
X017572Y005099D02*
X016610Y005099D01*
X016463Y005257D02*
X017620Y005257D01*
X018100Y005257D02*
X020037Y005257D01*
X020046Y005260D02*
X020001Y005248D01*
X019959Y005224D01*
X019926Y005191D01*
X019905Y005155D01*
X019860Y005200D01*
X019440Y005200D01*
X019380Y005140D01*
X019348Y005140D01*
X019348Y005186D01*
X019277Y005256D01*
X018843Y005256D01*
X018773Y005186D01*
X018773Y004614D01*
X018843Y004544D01*
X019277Y004544D01*
X019348Y004614D01*
X019348Y004660D01*
X019380Y004660D01*
X019440Y004600D01*
X019860Y004600D01*
X019905Y004645D01*
X019926Y004609D01*
X019959Y004576D01*
X020001Y004552D01*
X020046Y004540D01*
X020230Y004540D01*
X020414Y004540D01*
X020459Y004552D01*
X020501Y004576D01*
X020534Y004609D01*
X020558Y004651D01*
X020570Y004696D01*
X020570Y004900D01*
X020570Y005104D01*
X020558Y005149D01*
X020534Y005191D01*
X020501Y005224D01*
X020459Y005248D01*
X020414Y005260D01*
X020230Y005260D01*
X020230Y004900D01*
X020230Y004900D01*
X020570Y004900D01*
X020230Y004900D01*
X020230Y004900D01*
X020230Y005260D01*
X020046Y005260D01*
X020230Y005257D02*
X020230Y005257D01*
X020230Y005099D02*
X020230Y005099D01*
X020230Y004940D02*
X020230Y004940D01*
X020230Y004900D02*
X020230Y004540D01*
X020230Y004900D01*
X020230Y004900D01*
X020230Y004782D02*
X020230Y004782D01*
X020230Y004623D02*
X020230Y004623D01*
X020542Y004623D02*
X022072Y004623D01*
X022072Y004782D02*
X020570Y004782D01*
X020570Y004940D02*
X022072Y004940D01*
X022072Y005099D02*
X020570Y005099D01*
X020423Y005257D02*
X022120Y005257D01*
X022600Y005257D02*
X024517Y005257D01*
X024526Y005260D02*
X024481Y005248D01*
X024439Y005224D01*
X024406Y005191D01*
X024385Y005155D01*
X024340Y005200D01*
X023920Y005200D01*
X023860Y005140D01*
X023848Y005140D01*
X023848Y005186D01*
X023777Y005256D01*
X023343Y005256D01*
X023273Y005186D01*
X023273Y004614D01*
X023343Y004544D01*
X023777Y004544D01*
X023848Y004614D01*
X023848Y004660D01*
X023860Y004660D01*
X023920Y004600D01*
X024340Y004600D01*
X024385Y004645D01*
X024406Y004609D01*
X024439Y004576D01*
X024481Y004552D01*
X024526Y004540D01*
X024710Y004540D01*
X024894Y004540D01*
X024939Y004552D01*
X024981Y004576D01*
X025014Y004609D01*
X025038Y004651D01*
X025050Y004696D01*
X025050Y004900D01*
X025050Y005104D01*
X025038Y005149D01*
X025014Y005191D01*
X024981Y005224D01*
X024939Y005248D01*
X024894Y005260D01*
X024710Y005260D01*
X024710Y004900D01*
X024710Y004900D01*
X025050Y004900D01*
X024710Y004900D01*
X024710Y004900D01*
X024710Y005260D01*
X024526Y005260D01*
X024710Y005257D02*
X024710Y005257D01*
X024710Y005099D02*
X024710Y005099D01*
X024710Y004940D02*
X024710Y004940D01*
X024710Y004900D02*
X024710Y004540D01*
X024710Y004900D01*
X024710Y004900D01*
X024710Y004782D02*
X024710Y004782D01*
X024710Y004623D02*
X024710Y004623D01*
X025022Y004623D02*
X026392Y004623D01*
X026392Y004782D02*
X025050Y004782D01*
X025050Y004940D02*
X026392Y004940D01*
X026392Y005099D02*
X025050Y005099D01*
X024903Y005257D02*
X026440Y005257D01*
X026920Y005257D02*
X028797Y005257D01*
X028806Y005260D02*
X028761Y005248D01*
X028719Y005224D01*
X028686Y005191D01*
X028665Y005155D01*
X028620Y005200D01*
X028200Y005200D01*
X028168Y005167D01*
X028168Y005186D01*
X028097Y005256D01*
X027663Y005256D01*
X027593Y005186D01*
X027593Y004614D01*
X027663Y004544D01*
X028097Y004544D01*
X028168Y004614D01*
X028168Y004633D01*
X028200Y004600D01*
X028620Y004600D01*
X028665Y004645D01*
X028686Y004609D01*
X028719Y004576D01*
X028761Y004552D01*
X028806Y004540D01*
X028990Y004540D01*
X028990Y004900D01*
X028990Y004900D01*
X028990Y005260D01*
X028806Y005260D01*
X028990Y005257D02*
X028990Y005257D01*
X028990Y005099D02*
X028990Y005099D01*
X028990Y004940D02*
X028990Y004940D01*
X028990Y004782D02*
X028990Y004782D01*
X028990Y004623D02*
X028990Y004623D01*
X029240Y004465D02*
X026840Y004465D01*
X026840Y004306D02*
X027647Y004306D01*
X027660Y004320D02*
X027590Y004250D01*
X027590Y004200D01*
X027520Y004200D01*
X027520Y004220D01*
X027450Y004290D01*
X027050Y004290D01*
X026980Y004220D01*
X026980Y003820D01*
X027050Y003750D01*
X027450Y003750D01*
X027520Y003820D01*
X027520Y003840D01*
X027590Y003840D01*
X027590Y003790D01*
X027660Y003720D01*
X028080Y003720D01*
X028150Y003790D01*
X028150Y004250D01*
X028080Y004320D01*
X027660Y004320D01*
X027593Y004623D02*
X026967Y004623D01*
X026967Y004782D02*
X027593Y004782D01*
X027593Y004940D02*
X026967Y004940D01*
X026967Y005099D02*
X027593Y005099D01*
X028168Y004623D02*
X028177Y004623D01*
X028240Y004320D02*
X028170Y004250D01*
X028170Y003790D01*
X028240Y003720D01*
X028660Y003720D01*
X028730Y003790D01*
X028730Y003840D01*
X028774Y003840D01*
X028801Y003812D01*
X028891Y003775D01*
X028989Y003775D01*
X029079Y003812D01*
X029148Y003881D01*
X029185Y003971D01*
X029185Y004069D01*
X029148Y004159D01*
X029079Y004228D01*
X028989Y004265D01*
X028891Y004265D01*
X028801Y004228D01*
X028774Y004200D01*
X028730Y004200D01*
X028730Y004250D01*
X028660Y004320D01*
X028240Y004320D01*
X028227Y004306D02*
X028093Y004306D01*
X028150Y004148D02*
X028170Y004148D01*
X028170Y003989D02*
X028150Y003989D01*
X028150Y003831D02*
X028170Y003831D01*
X027590Y003831D02*
X027520Y003831D01*
X026980Y003831D02*
X026940Y003831D01*
X026940Y003989D02*
X026980Y003989D01*
X026980Y004148D02*
X026940Y004148D01*
X026500Y004306D02*
X024413Y004306D01*
X024400Y004320D02*
X023980Y004320D01*
X023910Y004250D01*
X023910Y003790D01*
X023980Y003720D01*
X024400Y003720D01*
X024470Y003790D01*
X024470Y003840D01*
X024514Y003840D01*
X024541Y003812D01*
X024631Y003775D01*
X024729Y003775D01*
X024819Y003812D01*
X024888Y003881D01*
X024925Y003971D01*
X024925Y004069D01*
X024888Y004159D01*
X024819Y004228D01*
X024729Y004265D01*
X024631Y004265D01*
X024541Y004228D01*
X024514Y004200D01*
X024470Y004200D01*
X024470Y004250D01*
X024400Y004320D01*
X024398Y004623D02*
X024363Y004623D01*
X023897Y004623D02*
X023848Y004623D01*
X023820Y004320D02*
X023400Y004320D01*
X023330Y004250D01*
X023330Y004200D01*
X023260Y004200D01*
X023260Y004220D01*
X023190Y004290D01*
X022790Y004290D01*
X022720Y004220D01*
X022720Y003820D01*
X022790Y003750D01*
X023190Y003750D01*
X023260Y003820D01*
X023260Y003840D01*
X023330Y003840D01*
X023330Y003790D01*
X023400Y003720D01*
X023820Y003720D01*
X023890Y003790D01*
X023890Y004250D01*
X023820Y004320D01*
X023833Y004306D02*
X023967Y004306D01*
X023910Y004148D02*
X023890Y004148D01*
X023890Y003989D02*
X023910Y003989D01*
X023910Y003831D02*
X023890Y003831D01*
X023330Y003831D02*
X023260Y003831D01*
X023387Y004306D02*
X022530Y004306D01*
X022530Y004465D02*
X026500Y004465D01*
X026400Y004148D02*
X024892Y004148D01*
X024925Y003989D02*
X026400Y003989D01*
X026400Y003831D02*
X024837Y003831D01*
X024523Y003831D02*
X024470Y003831D01*
X023273Y004623D02*
X022647Y004623D01*
X022647Y004782D02*
X023273Y004782D01*
X023273Y004940D02*
X022647Y004940D01*
X022647Y005099D02*
X023273Y005099D01*
X022720Y004148D02*
X022680Y004148D01*
X022680Y003989D02*
X022720Y003989D01*
X022720Y003831D02*
X022680Y003831D01*
X022140Y003831D02*
X020277Y003831D01*
X020259Y003812D02*
X020328Y003881D01*
X020365Y003971D01*
X020365Y004069D01*
X020328Y004159D01*
X020259Y004228D01*
X020169Y004265D01*
X020071Y004265D01*
X019981Y004228D01*
X019954Y004200D01*
X019910Y004200D01*
X019910Y004250D01*
X019840Y004320D01*
X019420Y004320D01*
X019350Y004250D01*
X019350Y003790D01*
X019420Y003720D01*
X019840Y003720D01*
X019910Y003790D01*
X019910Y003840D01*
X019954Y003840D01*
X019981Y003812D01*
X020071Y003775D01*
X020169Y003775D01*
X020259Y003812D01*
X020365Y003989D02*
X022140Y003989D01*
X022140Y004148D02*
X020332Y004148D01*
X019963Y003831D02*
X019910Y003831D01*
X019853Y004306D02*
X022190Y004306D01*
X022190Y004465D02*
X018030Y004465D01*
X018030Y004306D02*
X018827Y004306D01*
X018840Y004320D02*
X018770Y004250D01*
X018770Y004200D01*
X018700Y004200D01*
X018700Y004220D01*
X018630Y004290D01*
X018230Y004290D01*
X018160Y004220D01*
X018160Y003820D01*
X018230Y003750D01*
X018630Y003750D01*
X018700Y003820D01*
X018700Y003840D01*
X018770Y003840D01*
X018770Y003790D01*
X018840Y003720D01*
X019260Y003720D01*
X019330Y003790D01*
X019330Y004250D01*
X019260Y004320D01*
X018840Y004320D01*
X018773Y004623D02*
X018147Y004623D01*
X018147Y004782D02*
X018773Y004782D01*
X018773Y004940D02*
X018147Y004940D01*
X018147Y005099D02*
X018773Y005099D01*
X019348Y004623D02*
X019417Y004623D01*
X019407Y004306D02*
X019273Y004306D01*
X019330Y004148D02*
X019350Y004148D01*
X019350Y003989D02*
X019330Y003989D01*
X019330Y003831D02*
X019350Y003831D01*
X018770Y003831D02*
X018700Y003831D01*
X018160Y003831D02*
X018120Y003831D01*
X018120Y003989D02*
X018160Y003989D01*
X018160Y004148D02*
X018120Y004148D01*
X017690Y004306D02*
X015953Y004306D01*
X015940Y004320D02*
X015520Y004320D01*
X015450Y004250D01*
X015450Y003790D01*
X015520Y003720D01*
X015940Y003720D01*
X016010Y003790D01*
X016010Y003840D01*
X016054Y003840D01*
X016081Y003812D01*
X016171Y003775D01*
X016269Y003775D01*
X016359Y003812D01*
X016428Y003881D01*
X016465Y003971D01*
X016465Y004069D01*
X016428Y004159D01*
X016359Y004228D01*
X016269Y004265D01*
X016171Y004265D01*
X016081Y004228D01*
X016054Y004200D01*
X016010Y004200D01*
X016010Y004250D01*
X015940Y004320D01*
X015923Y004623D02*
X015958Y004623D01*
X015457Y004623D02*
X015428Y004623D01*
X015360Y004320D02*
X014940Y004320D01*
X014870Y004250D01*
X014870Y004200D01*
X014800Y004200D01*
X014800Y004220D01*
X014730Y004290D01*
X014330Y004290D01*
X014260Y004220D01*
X014260Y003820D01*
X014330Y003750D01*
X014730Y003750D01*
X014800Y003820D01*
X014800Y003840D01*
X014870Y003840D01*
X014870Y003790D01*
X014940Y003720D01*
X015360Y003720D01*
X015430Y003790D01*
X015430Y004250D01*
X015360Y004320D01*
X015373Y004306D02*
X015507Y004306D01*
X015450Y004148D02*
X015430Y004148D01*
X015430Y003989D02*
X015450Y003989D01*
X015450Y003831D02*
X015430Y003831D01*
X014870Y003831D02*
X014800Y003831D01*
X014927Y004306D02*
X014110Y004306D01*
X014110Y004465D02*
X017690Y004465D01*
X017580Y004148D02*
X016432Y004148D01*
X016465Y003989D02*
X017580Y003989D01*
X017580Y003831D02*
X016377Y003831D01*
X016063Y003831D02*
X016010Y003831D01*
X014853Y004623D02*
X014227Y004623D01*
X014227Y004782D02*
X014853Y004782D01*
X014853Y004940D02*
X014227Y004940D01*
X014227Y005099D02*
X014853Y005099D01*
X014260Y004148D02*
X014220Y004148D01*
X014220Y003989D02*
X014260Y003989D01*
X014260Y003831D02*
X014220Y003831D01*
X013680Y003831D02*
X012828Y003831D01*
X013127Y003989D02*
X013680Y003989D01*
X013680Y004148D02*
X013285Y004148D01*
X013354Y004306D02*
X013770Y004306D01*
X013770Y004465D02*
X013410Y004465D01*
X013410Y004623D02*
X013652Y004623D01*
X013419Y004782D02*
X013400Y004782D01*
X012412Y003831D02*
X011090Y003831D01*
X011090Y003989D02*
X012113Y003989D01*
X011955Y004148D02*
X011090Y004148D01*
X011038Y004306D02*
X011886Y004306D01*
X011830Y004465D02*
X010450Y004465D01*
X010450Y004623D02*
X011830Y004623D01*
X011840Y004782D02*
X010450Y004782D01*
X010450Y004940D02*
X011906Y004940D01*
X012002Y005099D02*
X010448Y005099D01*
X010160Y005257D02*
X012160Y005257D01*
X010750Y004306D02*
X010750Y004306D01*
X010750Y004148D02*
X010750Y004148D01*
X010750Y004000D02*
X010750Y003640D01*
X010750Y004000D01*
X010750Y004000D01*
X010750Y003989D02*
X010750Y003989D01*
X010750Y003831D02*
X010750Y003831D01*
X010750Y003672D02*
X010750Y003672D01*
X011014Y003672D02*
X029240Y003672D01*
X029240Y003514D02*
X010160Y003514D01*
X010160Y003672D02*
X010486Y003672D01*
X010160Y003355D02*
X029240Y003355D01*
X029240Y003197D02*
X010160Y003197D01*
X010160Y003038D02*
X029240Y003038D01*
X029240Y002880D02*
X010160Y002880D01*
X010160Y002721D02*
X029240Y002721D01*
X029240Y002563D02*
X010160Y002563D01*
X010160Y002404D02*
X029240Y002404D01*
X029240Y002246D02*
X010160Y002246D01*
X010160Y002087D02*
X029240Y002087D01*
X030740Y002246D02*
X032533Y002246D01*
X032692Y002404D02*
X030740Y002404D01*
X030740Y002563D02*
X032850Y002563D01*
X033009Y002721D02*
X030740Y002721D01*
X030740Y002880D02*
X033167Y002880D01*
X033326Y003038D02*
X030740Y003038D01*
X030740Y003197D02*
X033484Y003197D01*
X033643Y003355D02*
X030740Y003355D01*
X030740Y003514D02*
X033801Y003514D01*
X033960Y003672D02*
X030740Y003672D01*
X030740Y003831D02*
X034118Y003831D01*
X034277Y003989D02*
X030793Y003989D01*
X030901Y004148D02*
X034435Y004148D01*
X034594Y004306D02*
X030967Y004306D01*
X031010Y004465D02*
X034752Y004465D01*
X034911Y004623D02*
X031010Y004623D01*
X031010Y004782D02*
X035069Y004782D01*
X035228Y004940D02*
X030947Y004940D01*
X030882Y005099D02*
X035386Y005099D01*
X035545Y005257D02*
X030746Y005257D01*
X030740Y005416D02*
X035703Y005416D01*
X035862Y005574D02*
X030740Y005574D01*
X030740Y005733D02*
X036020Y005733D01*
X036179Y005891D02*
X030740Y005891D01*
X030740Y006050D02*
X036337Y006050D01*
X036496Y006208D02*
X030740Y006208D01*
X030740Y006367D02*
X036654Y006367D01*
X036813Y006525D02*
X030740Y006525D01*
X030740Y006684D02*
X036971Y006684D01*
X037130Y006842D02*
X030740Y006842D01*
X030740Y007001D02*
X037288Y007001D01*
X037320Y007159D02*
X030740Y007159D01*
X030740Y007318D02*
X037320Y007318D01*
X037320Y007476D02*
X030740Y007476D01*
X030740Y007635D02*
X037320Y007635D01*
X037320Y007793D02*
X030740Y007793D01*
X030740Y007952D02*
X037320Y007952D01*
X037320Y008110D02*
X030740Y008110D01*
X030740Y008269D02*
X037320Y008269D01*
X037320Y008427D02*
X030740Y008427D01*
X030740Y008586D02*
X037320Y008586D01*
X037320Y008744D02*
X030740Y008744D01*
X030740Y008903D02*
X037320Y008903D01*
X037320Y009061D02*
X030740Y009061D01*
X030740Y009220D02*
X037320Y009220D01*
X037320Y009378D02*
X030740Y009378D01*
X030740Y009537D02*
X037320Y009537D01*
X037320Y009695D02*
X030740Y009695D01*
X030740Y009854D02*
X037320Y009854D01*
X037320Y010012D02*
X033131Y010012D01*
X033491Y010171D02*
X037320Y010171D01*
X037320Y010329D02*
X033732Y010329D01*
X033920Y010488D02*
X037320Y010488D01*
X037320Y010646D02*
X034071Y010646D01*
X034195Y010805D02*
X037320Y010805D01*
X037320Y010963D02*
X034298Y010963D01*
X034383Y011122D02*
X037320Y011122D01*
X037320Y011280D02*
X034451Y011280D01*
X034505Y011439D02*
X037320Y011439D01*
X037320Y011597D02*
X034546Y011597D01*
X034574Y011756D02*
X037320Y011756D01*
X037320Y011914D02*
X034591Y011914D01*
X034588Y012231D02*
X037320Y012231D01*
X037320Y012073D02*
X032515Y012073D01*
X032515Y011914D02*
X032355Y011914D01*
X032355Y011756D02*
X032515Y011756D01*
X032515Y011597D02*
X032355Y011597D01*
X032355Y011439D02*
X032515Y011439D01*
X032515Y011280D02*
X032355Y011280D01*
X032355Y011122D02*
X032515Y011122D01*
X032515Y010963D02*
X032355Y010963D01*
X032355Y010805D02*
X032515Y010805D01*
X032515Y010646D02*
X032355Y010646D01*
X032355Y010488D02*
X032515Y010488D01*
X032515Y010329D02*
X032355Y010329D01*
X032355Y010171D02*
X032515Y010171D01*
X032515Y010012D02*
X032355Y010012D01*
X031739Y010012D02*
X030740Y010012D01*
X030740Y010171D02*
X031380Y010171D01*
X031139Y010329D02*
X030740Y010329D01*
X030740Y010488D02*
X030950Y010488D01*
X030800Y010646D02*
X030740Y010646D01*
X033430Y013975D02*
X037320Y013975D01*
X037320Y014133D02*
X034640Y014133D01*
X034640Y014292D02*
X037320Y014292D01*
X037320Y014450D02*
X034640Y014450D01*
X034640Y014609D02*
X037320Y014609D01*
X037320Y014767D02*
X034640Y014767D01*
X034640Y014926D02*
X037320Y014926D01*
X037320Y015084D02*
X034640Y015084D01*
X034640Y015243D02*
X037320Y015243D01*
X037320Y015401D02*
X034640Y015401D01*
X034640Y015560D02*
X037320Y015560D01*
X037320Y015718D02*
X034640Y015718D01*
X034640Y015877D02*
X037320Y015877D01*
X037320Y016035D02*
X034640Y016035D01*
X034640Y016194D02*
X037320Y016194D01*
X037320Y016352D02*
X034640Y016352D01*
X034640Y016511D02*
X037320Y016511D01*
X037320Y016669D02*
X034640Y016669D01*
X034640Y016828D02*
X037320Y016828D01*
X037320Y016986D02*
X034640Y016986D01*
X034640Y017145D02*
X037320Y017145D01*
X037320Y017303D02*
X034682Y017303D01*
X034682Y017462D02*
X037320Y017462D01*
X037320Y017620D02*
X034644Y017620D01*
X034640Y017779D02*
X037320Y017779D01*
X037320Y017937D02*
X034640Y017937D01*
X034640Y018096D02*
X037320Y018096D01*
X037320Y018254D02*
X034675Y018254D01*
X034682Y018413D02*
X037320Y018413D01*
X037320Y018571D02*
X034664Y018571D01*
X034640Y018730D02*
X037320Y018730D01*
X037320Y018888D02*
X034640Y018888D01*
X034640Y019047D02*
X037320Y019047D01*
X037320Y019205D02*
X034655Y019205D01*
X034682Y019364D02*
X037320Y019364D01*
X037320Y019522D02*
X034682Y019522D01*
X034640Y019681D02*
X037320Y019681D01*
X037320Y019839D02*
X034640Y019839D01*
X034640Y019998D02*
X037320Y019998D01*
X037320Y020156D02*
X034640Y020156D01*
X034682Y020315D02*
X037320Y020315D01*
X037320Y020473D02*
X034682Y020473D01*
X034640Y020632D02*
X037320Y020632D01*
X037320Y020790D02*
X034640Y020790D01*
X034640Y020949D02*
X037320Y020949D01*
X037320Y021107D02*
X034640Y021107D01*
X034680Y021266D02*
X037320Y021266D01*
X037320Y021424D02*
X034682Y021424D01*
X034660Y021583D02*
X037320Y021583D01*
X037320Y021741D02*
X034640Y021741D01*
X034640Y021900D02*
X037320Y021900D01*
X037320Y022059D02*
X034640Y022059D01*
X034660Y022217D02*
X037320Y022217D01*
X037320Y022376D02*
X034682Y022376D01*
X034680Y022534D02*
X037320Y022534D01*
X037320Y022693D02*
X034640Y022693D01*
X034640Y022851D02*
X037320Y022851D01*
X037320Y023010D02*
X034640Y023010D01*
X034640Y023168D02*
X037320Y023168D01*
X037320Y023327D02*
X034682Y023327D01*
X034682Y023485D02*
X037320Y023485D01*
X037320Y023644D02*
X034640Y023644D01*
X034640Y023802D02*
X037320Y023802D01*
X037320Y023961D02*
X034640Y023961D01*
X034640Y024119D02*
X037320Y024119D01*
X037320Y024278D02*
X034682Y024278D01*
X034682Y024436D02*
X037320Y024436D01*
X037320Y024595D02*
X034655Y024595D01*
X034640Y024753D02*
X037320Y024753D01*
X037320Y024912D02*
X034640Y024912D01*
X034640Y025070D02*
X037320Y025070D01*
X037320Y025229D02*
X034664Y025229D01*
X034682Y025387D02*
X037320Y025387D01*
X037320Y025546D02*
X034675Y025546D01*
X034640Y025704D02*
X037320Y025704D01*
X037320Y025863D02*
X034640Y025863D01*
X034682Y026021D02*
X037320Y026021D01*
X037320Y026180D02*
X034682Y026180D01*
X034682Y026338D02*
X037320Y026338D01*
X037320Y026497D02*
X034682Y026497D01*
X034682Y026655D02*
X037320Y026655D01*
X037320Y026814D02*
X034671Y026814D01*
X034640Y026972D02*
X037320Y026972D01*
X037320Y027131D02*
X034640Y027131D01*
X034640Y027289D02*
X037320Y027289D01*
X037320Y027448D02*
X034640Y027448D01*
X034640Y027606D02*
X037320Y027606D01*
X037320Y027765D02*
X034640Y027765D01*
X034640Y027923D02*
X037320Y027923D01*
X037320Y028082D02*
X034640Y028082D01*
X034640Y028240D02*
X037320Y028240D01*
X037320Y028399D02*
X034640Y028399D01*
X034640Y028557D02*
X037320Y028557D01*
X037320Y028716D02*
X034640Y028716D01*
X034640Y028874D02*
X037320Y028874D01*
X037320Y029033D02*
X034640Y029033D01*
X034640Y029191D02*
X037320Y029191D01*
X037320Y029350D02*
X034640Y029350D01*
X034640Y029508D02*
X037320Y029508D01*
X037320Y029667D02*
X034640Y029667D01*
X034044Y030301D02*
X037320Y030301D01*
X037320Y030459D02*
X034173Y030459D01*
X034279Y030618D02*
X037320Y030618D01*
X037320Y030776D02*
X034367Y030776D01*
X034439Y030935D02*
X037320Y030935D01*
X037320Y031093D02*
X034495Y031093D01*
X034539Y031252D02*
X037320Y031252D01*
X037320Y031410D02*
X034570Y031410D01*
X034588Y031569D02*
X037320Y031569D01*
X037320Y031727D02*
X032515Y031727D01*
X032515Y031823D02*
X034595Y031823D01*
X034595Y031827D01*
X034582Y031997D01*
X034555Y032164D01*
X034516Y032329D01*
X034463Y032491D01*
X034398Y032648D01*
X034321Y032799D01*
X034233Y032943D01*
X034133Y033081D01*
X034023Y033210D01*
X033903Y033330D01*
X033774Y033440D01*
X033636Y033540D01*
X033492Y033629D01*
X033340Y033706D01*
X033183Y033771D01*
X033022Y033823D01*
X032857Y033863D01*
X032689Y033889D01*
X032520Y033903D01*
X032515Y033903D01*
X032515Y031823D01*
X032515Y031886D02*
X032355Y031886D01*
X032355Y032044D02*
X032515Y032044D01*
X032515Y032203D02*
X032355Y032203D01*
X032355Y032361D02*
X032515Y032361D01*
X032515Y032520D02*
X032355Y032520D01*
X032355Y032678D02*
X032515Y032678D01*
X032515Y032837D02*
X032355Y032837D01*
X032355Y032995D02*
X032515Y032995D01*
X032515Y033154D02*
X032355Y033154D01*
X032355Y033312D02*
X032515Y033312D01*
X032515Y033471D02*
X032355Y033471D01*
X032355Y033629D02*
X032515Y033629D01*
X032515Y033788D02*
X032355Y033788D01*
X033131Y033788D02*
X037320Y033788D01*
X037320Y033946D02*
X030765Y033946D01*
X030740Y033788D02*
X031739Y033788D01*
X031380Y033629D02*
X030740Y033629D01*
X030740Y033471D02*
X031139Y033471D01*
X030950Y033312D02*
X030740Y033312D01*
X030740Y033154D02*
X030800Y033154D01*
X030810Y034105D02*
X037320Y034105D01*
X037320Y034263D02*
X030794Y034263D01*
X030740Y034422D02*
X033352Y034422D01*
X033354Y034420D02*
X033432Y034388D01*
X033514Y034366D01*
X033565Y034359D01*
X033565Y034925D01*
X032999Y034925D01*
X033006Y034874D01*
X033028Y034792D01*
X033060Y034714D01*
X033103Y034641D01*
X033154Y034574D01*
X033214Y034514D01*
X033281Y034463D01*
X033354Y034420D01*
X033565Y034422D02*
X033715Y034422D01*
X033715Y034359D02*
X033766Y034366D01*
X033848Y034388D01*
X033926Y034420D01*
X033999Y034463D01*
X034066Y034514D01*
X034126Y034574D01*
X034177Y034641D01*
X034220Y034714D01*
X034252Y034792D01*
X034274Y034874D01*
X034281Y034925D01*
X033715Y034925D01*
X033715Y035075D01*
X033565Y035075D01*
X033565Y035641D01*
X033514Y035634D01*
X033432Y035612D01*
X033354Y035580D01*
X033281Y035537D01*
X033214Y035486D01*
X033154Y035426D01*
X033103Y035359D01*
X033060Y035286D01*
X033028Y035208D01*
X033006Y035126D01*
X032999Y035075D01*
X033565Y035075D01*
X033565Y034925D01*
X033715Y034925D01*
X033715Y034359D01*
X033715Y034580D02*
X033565Y034580D01*
X033565Y034739D02*
X033715Y034739D01*
X033715Y034897D02*
X033565Y034897D01*
X033565Y035056D02*
X030740Y035056D01*
X030740Y035214D02*
X033031Y035214D01*
X033113Y035373D02*
X030740Y035373D01*
X030740Y035531D02*
X033273Y035531D01*
X033565Y035531D02*
X033715Y035531D01*
X033715Y035641D02*
X033715Y035075D01*
X034221Y035075D01*
X034302Y034995D01*
X034651Y034850D01*
X035029Y034850D01*
X035378Y034995D01*
X035645Y035262D01*
X035790Y035611D01*
X035790Y035989D01*
X035645Y036338D01*
X035378Y036605D01*
X035029Y036750D01*
X034651Y036750D01*
X034302Y036605D01*
X034035Y036338D01*
X033890Y035989D01*
X033890Y035611D01*
X033898Y035591D01*
X033848Y035612D01*
X033766Y035634D01*
X033715Y035641D01*
X033890Y035690D02*
X030740Y035690D01*
X030740Y035848D02*
X031285Y035848D01*
X031304Y035845D02*
X031332Y035845D01*
X031332Y036292D01*
X030885Y036292D01*
X030885Y036264D01*
X030896Y036193D01*
X030918Y036125D01*
X030951Y036062D01*
X030993Y036004D01*
X031044Y035953D01*
X031102Y035911D01*
X031165Y035878D01*
X031233Y035856D01*
X031304Y035845D01*
X031332Y035848D02*
X031348Y035848D01*
X031348Y035845D02*
X031376Y035845D01*
X031447Y035856D01*
X031515Y035878D01*
X031578Y035911D01*
X031636Y035953D01*
X031687Y036004D01*
X031729Y036062D01*
X031762Y036125D01*
X031784Y036193D01*
X031795Y036264D01*
X031795Y036292D01*
X031348Y036292D01*
X031348Y035845D01*
X031395Y035848D02*
X033890Y035848D01*
X033897Y036007D02*
X031689Y036007D01*
X031775Y036165D02*
X033963Y036165D01*
X034029Y036324D02*
X032705Y036324D01*
X032852Y036482D02*
X034179Y036482D01*
X034387Y036641D02*
X032918Y036641D01*
X032935Y036799D02*
X035922Y036799D01*
X035914Y036791D02*
X035820Y036563D01*
X035820Y036317D01*
X035914Y036089D01*
X036063Y035940D01*
X035914Y035791D01*
X035820Y035563D01*
X035820Y035317D01*
X035914Y035089D01*
X036089Y034914D01*
X036317Y034820D01*
X036563Y034820D01*
X036791Y034914D01*
X036966Y035089D01*
X037060Y035317D01*
X037060Y035563D01*
X036966Y035791D01*
X036817Y035940D01*
X036966Y036089D01*
X037060Y036317D01*
X037060Y036563D01*
X036966Y036791D01*
X036791Y036966D01*
X036563Y037060D01*
X036317Y037060D01*
X036089Y036966D01*
X035914Y036791D01*
X035852Y036641D02*
X035293Y036641D01*
X035501Y036482D02*
X035820Y036482D01*
X035820Y036324D02*
X035651Y036324D01*
X035717Y036165D02*
X035883Y036165D01*
X035783Y036007D02*
X035997Y036007D01*
X035971Y035848D02*
X035790Y035848D01*
X035790Y035690D02*
X035872Y035690D01*
X035820Y035531D02*
X035757Y035531D01*
X035820Y035373D02*
X035691Y035373D01*
X035598Y035214D02*
X035863Y035214D01*
X035948Y035056D02*
X035439Y035056D01*
X035142Y034897D02*
X036131Y034897D01*
X036749Y034897D02*
X037320Y034897D01*
X037320Y034739D02*
X034230Y034739D01*
X034277Y034897D02*
X034538Y034897D01*
X034241Y035056D02*
X033715Y035056D01*
X033715Y035214D02*
X033565Y035214D01*
X033565Y035373D02*
X033715Y035373D01*
X033003Y034897D02*
X030740Y034897D01*
X030740Y034739D02*
X033050Y034739D01*
X033149Y034580D02*
X030740Y034580D01*
X030740Y036007D02*
X030991Y036007D01*
X030905Y036165D02*
X030740Y036165D01*
X030740Y036324D02*
X030885Y036324D01*
X030922Y036482D02*
X030740Y036482D01*
X031332Y036165D02*
X031348Y036165D01*
X031332Y036007D02*
X031348Y036007D01*
X031795Y036324D02*
X031975Y036324D01*
X031828Y036482D02*
X031758Y036482D01*
X032958Y036958D02*
X036081Y036958D01*
X036799Y036958D02*
X037320Y036958D01*
X037320Y037116D02*
X033116Y037116D01*
X033140Y037275D02*
X037320Y037275D01*
X037320Y037433D02*
X033140Y037433D01*
X033140Y037592D02*
X037320Y037592D01*
X037320Y037750D02*
X033140Y037750D01*
X033140Y037909D02*
X037320Y037909D01*
X037320Y038067D02*
X033140Y038067D01*
X033140Y038226D02*
X037320Y038226D01*
X037320Y038384D02*
X033140Y038384D01*
X033140Y038543D02*
X037320Y038543D01*
X037320Y038701D02*
X033140Y038701D01*
X033140Y038860D02*
X037320Y038860D01*
X037320Y039018D02*
X033140Y039018D01*
X033140Y039177D02*
X036047Y039177D01*
X036089Y039134D02*
X036317Y039040D01*
X036563Y039040D01*
X036791Y039134D01*
X036966Y039309D01*
X037060Y039537D01*
X037060Y039783D01*
X036966Y040011D01*
X036817Y040160D01*
X036966Y040309D01*
X037060Y040537D01*
X037060Y040783D01*
X036966Y041011D01*
X036791Y041186D01*
X036563Y041280D01*
X036317Y041280D01*
X036089Y041186D01*
X035914Y041011D01*
X035820Y040783D01*
X035820Y040537D01*
X035914Y040309D01*
X036063Y040160D01*
X035914Y040011D01*
X035820Y039783D01*
X035820Y039537D01*
X035914Y039309D01*
X036089Y039134D01*
X035904Y039335D02*
X033140Y039335D01*
X033140Y039494D02*
X034305Y039494D01*
X034302Y039495D02*
X034651Y039350D01*
X035029Y039350D01*
X035378Y039495D01*
X035645Y039762D01*
X035790Y040111D01*
X035790Y040489D01*
X035645Y040838D01*
X035378Y041105D01*
X035029Y041250D01*
X034651Y041250D01*
X034302Y041105D01*
X034221Y041025D01*
X033715Y041025D01*
X033715Y040459D01*
X033766Y040466D01*
X033848Y040488D01*
X033898Y040509D01*
X033890Y040489D01*
X033890Y040111D01*
X034035Y039762D01*
X034302Y039495D01*
X034144Y039652D02*
X033140Y039652D01*
X033140Y039811D02*
X034014Y039811D01*
X033949Y039969D02*
X033140Y039969D01*
X033140Y040128D02*
X033890Y040128D01*
X033890Y040286D02*
X032994Y040286D01*
X032835Y040445D02*
X033890Y040445D01*
X033715Y040603D02*
X033565Y040603D01*
X033565Y040459D02*
X033565Y041025D01*
X032999Y041025D01*
X033006Y040974D01*
X033028Y040892D01*
X033060Y040814D01*
X033103Y040741D01*
X033154Y040674D01*
X033214Y040614D01*
X033281Y040563D01*
X033354Y040520D01*
X033432Y040488D01*
X033514Y040466D01*
X033565Y040459D01*
X033565Y040762D02*
X033715Y040762D01*
X033715Y040920D02*
X033565Y040920D01*
X033565Y041079D02*
X005715Y041079D01*
X005715Y041025D02*
X006281Y041025D01*
X006274Y040974D01*
X006252Y040892D01*
X006220Y040814D01*
X006177Y040741D01*
X006126Y040674D01*
X006066Y040614D01*
X005999Y040563D01*
X005926Y040520D01*
X005848Y040488D01*
X005766Y040466D01*
X005715Y040459D01*
X005715Y041025D01*
X005715Y040920D02*
X005565Y040920D01*
X005565Y041025D02*
X005565Y040459D01*
X005514Y040466D01*
X005432Y040488D01*
X005382Y040509D01*
X005390Y040489D01*
X005390Y040111D01*
X005245Y039762D01*
X004978Y039495D01*
X004629Y039350D01*
X004251Y039350D01*
X003902Y039495D01*
X003635Y039762D01*
X003490Y040111D01*
X003490Y040489D01*
X003635Y040838D01*
X003902Y041105D01*
X004251Y041250D01*
X004629Y041250D01*
X004978Y041105D01*
X005059Y041025D01*
X005565Y041025D01*
X005565Y041079D02*
X005005Y041079D01*
X005009Y041237D02*
X004660Y041237D01*
X005066Y041396D02*
X001960Y041396D01*
X001960Y041554D02*
X005182Y041554D01*
X005565Y040762D02*
X005715Y040762D01*
X005715Y040603D02*
X005565Y040603D01*
X005390Y040445D02*
X019226Y040445D01*
X019226Y040389D02*
X019226Y040591D01*
X019238Y040637D01*
X019262Y040678D01*
X019295Y040711D01*
X019336Y040735D01*
X019382Y040747D01*
X019742Y040747D01*
X019742Y040389D01*
X019778Y040389D01*
X019778Y040747D01*
X020138Y040747D01*
X020184Y040735D01*
X020225Y040711D01*
X020258Y040678D01*
X020282Y040637D01*
X020294Y040591D01*
X020294Y040389D01*
X019778Y040389D01*
X019778Y040352D01*
X019778Y039994D01*
X020138Y039994D01*
X020184Y040006D01*
X020225Y040030D01*
X020258Y040063D01*
X020282Y040104D01*
X020294Y040150D01*
X020294Y040352D01*
X019778Y040352D01*
X019742Y040352D01*
X019742Y039994D01*
X019382Y039994D01*
X019336Y040006D01*
X019295Y040030D01*
X019262Y040063D01*
X019238Y040104D01*
X019226Y040150D01*
X019226Y040352D01*
X019742Y040352D01*
X019742Y040389D01*
X019226Y040389D01*
X019226Y040286D02*
X005390Y040286D01*
X005390Y040128D02*
X007624Y040128D01*
X007517Y039969D02*
X005331Y039969D01*
X005266Y039811D02*
X006618Y039811D01*
X006451Y039652D02*
X005136Y039652D01*
X004975Y039494D02*
X005540Y039494D01*
X005540Y039335D02*
X003376Y039335D01*
X003366Y039309D02*
X003460Y039537D01*
X003460Y039783D01*
X003366Y040011D01*
X003217Y040160D01*
X003366Y040309D01*
X003460Y040537D01*
X003460Y040783D01*
X003366Y041011D01*
X003191Y041186D01*
X002963Y041280D01*
X002717Y041280D01*
X002489Y041186D01*
X002314Y041011D01*
X002220Y040783D01*
X002220Y040537D01*
X002314Y040309D01*
X002463Y040160D01*
X002314Y040011D01*
X002220Y039783D01*
X002220Y039537D01*
X002314Y039309D01*
X002489Y039134D01*
X002717Y039040D01*
X002963Y039040D01*
X003191Y039134D01*
X003366Y039309D01*
X003233Y039177D02*
X005540Y039177D01*
X005540Y039018D02*
X001960Y039018D01*
X001960Y038860D02*
X005540Y038860D01*
X005540Y038701D02*
X001960Y038701D01*
X001960Y038543D02*
X005540Y038543D01*
X005540Y038384D02*
X001960Y038384D01*
X001960Y038226D02*
X005540Y038226D01*
X005540Y038067D02*
X001960Y038067D01*
X001960Y037909D02*
X005540Y037909D01*
X005540Y037750D02*
X001960Y037750D01*
X001960Y037592D02*
X005540Y037592D01*
X005540Y037433D02*
X001960Y037433D01*
X001960Y037275D02*
X005540Y037275D01*
X005540Y037116D02*
X001960Y037116D01*
X001960Y036958D02*
X002481Y036958D01*
X002489Y036966D02*
X002314Y036791D01*
X002220Y036563D01*
X002220Y036317D01*
X002314Y036089D01*
X002463Y035940D01*
X002314Y035791D01*
X002220Y035563D01*
X002220Y035317D01*
X002314Y035089D01*
X002489Y034914D01*
X002717Y034820D01*
X002963Y034820D01*
X003191Y034914D01*
X003366Y035089D01*
X003460Y035317D01*
X003460Y035563D01*
X003366Y035791D01*
X003217Y035940D01*
X003366Y036089D01*
X003460Y036317D01*
X003460Y036563D01*
X003366Y036791D01*
X003191Y036966D01*
X002963Y037060D01*
X002717Y037060D01*
X002489Y036966D01*
X002322Y036799D02*
X001960Y036799D01*
X001960Y036641D02*
X002252Y036641D01*
X002220Y036482D02*
X001960Y036482D01*
X001960Y036324D02*
X002220Y036324D01*
X002283Y036165D02*
X001960Y036165D01*
X001960Y036007D02*
X002397Y036007D01*
X002371Y035848D02*
X001960Y035848D01*
X001960Y035690D02*
X002272Y035690D01*
X002220Y035531D02*
X001960Y035531D01*
X001960Y035373D02*
X002220Y035373D01*
X002263Y035214D02*
X001960Y035214D01*
X001960Y035056D02*
X002348Y035056D01*
X002531Y034897D02*
X001960Y034897D01*
X001960Y034739D02*
X005050Y034739D01*
X005060Y034714D02*
X005103Y034641D01*
X005154Y034574D01*
X005214Y034514D01*
X005281Y034463D01*
X005354Y034420D01*
X005432Y034388D01*
X005514Y034366D01*
X005565Y034359D01*
X005565Y034925D01*
X004999Y034925D01*
X005006Y034874D01*
X005028Y034792D01*
X005060Y034714D01*
X005149Y034580D02*
X001960Y034580D01*
X001960Y034422D02*
X005352Y034422D01*
X005565Y034422D02*
X005715Y034422D01*
X005715Y034359D02*
X005766Y034366D01*
X005848Y034388D01*
X005926Y034420D01*
X005999Y034463D01*
X006066Y034514D01*
X006126Y034574D01*
X006177Y034641D01*
X006220Y034714D01*
X006252Y034792D01*
X006274Y034874D01*
X006281Y034925D01*
X005715Y034925D01*
X005715Y035075D01*
X005565Y035075D01*
X005565Y035641D01*
X005514Y035634D01*
X005432Y035612D01*
X005382Y035591D01*
X005390Y035611D01*
X005390Y035989D01*
X005245Y036338D01*
X004978Y036605D01*
X004629Y036750D01*
X004251Y036750D01*
X003902Y036605D01*
X003635Y036338D01*
X003490Y035989D01*
X003490Y035611D01*
X003635Y035262D01*
X003902Y034995D01*
X004251Y034850D01*
X004629Y034850D01*
X004978Y034995D01*
X005059Y035075D01*
X005565Y035075D01*
X005565Y034925D01*
X005715Y034925D01*
X005715Y034359D01*
X005715Y034580D02*
X005565Y034580D01*
X005565Y034739D02*
X005715Y034739D01*
X005715Y034897D02*
X005565Y034897D01*
X005565Y035056D02*
X005039Y035056D01*
X005003Y034897D02*
X004742Y034897D01*
X004138Y034897D02*
X003149Y034897D01*
X003332Y035056D02*
X003841Y035056D01*
X003682Y035214D02*
X003417Y035214D01*
X003460Y035373D02*
X003589Y035373D01*
X003523Y035531D02*
X003460Y035531D01*
X003490Y035690D02*
X003408Y035690D01*
X003490Y035848D02*
X003309Y035848D01*
X003283Y036007D02*
X003497Y036007D01*
X003563Y036165D02*
X003397Y036165D01*
X003460Y036324D02*
X003629Y036324D01*
X003779Y036482D02*
X003460Y036482D01*
X003428Y036641D02*
X003987Y036641D01*
X003358Y036799D02*
X005540Y036799D01*
X005540Y036641D02*
X004893Y036641D01*
X005101Y036482D02*
X005599Y036482D01*
X005760Y036324D02*
X005251Y036324D01*
X005317Y036165D02*
X005921Y036165D01*
X006082Y036007D02*
X005383Y036007D01*
X005390Y035848D02*
X006243Y035848D01*
X006404Y035690D02*
X005390Y035690D01*
X005565Y035531D02*
X005715Y035531D01*
X005715Y035641D02*
X005715Y035075D01*
X006281Y035075D01*
X006274Y035126D01*
X006252Y035208D01*
X006220Y035286D01*
X006177Y035359D01*
X006126Y035426D01*
X006066Y035486D01*
X005999Y035537D01*
X005926Y035580D01*
X005848Y035612D01*
X005766Y035634D01*
X005715Y035641D01*
X005715Y035373D02*
X005565Y035373D01*
X005565Y035214D02*
X005715Y035214D01*
X005715Y035056D02*
X007048Y035056D01*
X006887Y035214D02*
X006249Y035214D01*
X006167Y035373D02*
X006726Y035373D01*
X006565Y035531D02*
X006007Y035531D01*
X006277Y034897D02*
X007209Y034897D01*
X007370Y034739D02*
X006230Y034739D01*
X006131Y034580D02*
X007531Y034580D01*
X007692Y034422D02*
X005928Y034422D01*
X006149Y033788D02*
X001960Y033788D01*
X001960Y033946D02*
X008175Y033946D01*
X008335Y033788D02*
X007541Y033788D01*
X007593Y033771D02*
X007431Y033823D01*
X007266Y033863D01*
X007099Y033889D01*
X006930Y033903D01*
X006925Y033903D01*
X006925Y031823D01*
X006765Y031823D01*
X006765Y033903D01*
X006760Y033903D01*
X006591Y033889D01*
X006423Y033863D01*
X006258Y033823D01*
X006097Y033771D01*
X005940Y033706D01*
X005788Y033629D01*
X005644Y033540D01*
X005506Y033440D01*
X005377Y033330D01*
X005257Y033210D01*
X005147Y033081D01*
X005047Y032943D01*
X004959Y032799D01*
X004882Y032648D01*
X004817Y032491D01*
X004764Y032329D01*
X004725Y032164D01*
X004698Y031997D01*
X004685Y031827D01*
X004685Y031823D01*
X006765Y031823D01*
X006765Y031663D01*
X004685Y031663D01*
X004685Y031658D01*
X004698Y031488D01*
X004725Y031321D01*
X004764Y031156D01*
X004817Y030994D01*
X004882Y030838D01*
X004959Y030686D01*
X005047Y030542D01*
X005147Y030404D01*
X005257Y030275D01*
X005377Y030155D01*
X005506Y030045D01*
X005644Y029945D01*
X005788Y029856D01*
X005940Y029779D01*
X006097Y029714D01*
X006258Y029662D01*
X006423Y029622D01*
X006591Y029596D01*
X006760Y029583D01*
X006765Y029583D01*
X006765Y031663D01*
X006925Y031663D01*
X006925Y031823D01*
X009005Y031823D01*
X009005Y031827D01*
X008991Y031997D01*
X008965Y032164D01*
X008925Y032329D01*
X008873Y032491D01*
X008808Y032648D01*
X008731Y032799D01*
X008642Y032943D01*
X008542Y033081D01*
X008432Y033210D01*
X008312Y033330D01*
X008183Y033440D01*
X008046Y033540D01*
X007901Y033629D01*
X007750Y033706D01*
X007593Y033771D01*
X007900Y033629D02*
X008496Y033629D01*
X008657Y033471D02*
X008141Y033471D01*
X008330Y033312D02*
X008818Y033312D01*
X008979Y033154D02*
X008480Y033154D01*
X008605Y032995D02*
X009140Y032995D01*
X009301Y032837D02*
X008708Y032837D01*
X008792Y032678D02*
X009440Y032678D01*
X009440Y032520D02*
X008861Y032520D01*
X008915Y032361D02*
X009440Y032361D01*
X009440Y032203D02*
X008956Y032203D01*
X008984Y032044D02*
X009440Y032044D01*
X009440Y031886D02*
X009000Y031886D01*
X009005Y031663D02*
X006925Y031663D01*
X006925Y029583D01*
X006930Y029583D01*
X007099Y029596D01*
X007266Y029622D01*
X007431Y029662D01*
X007593Y029714D01*
X007750Y029779D01*
X007901Y029856D01*
X008046Y029945D01*
X008183Y030045D01*
X008312Y030155D01*
X008432Y030275D01*
X008542Y030404D01*
X008642Y030542D01*
X008731Y030686D01*
X008808Y030838D01*
X008873Y030994D01*
X008925Y031156D01*
X008965Y031321D01*
X008991Y031488D01*
X009005Y031658D01*
X009005Y031663D01*
X008998Y031569D02*
X009440Y031569D01*
X009440Y031727D02*
X006925Y031727D01*
X006925Y031569D02*
X006765Y031569D01*
X006765Y031727D02*
X001960Y031727D01*
X001960Y031569D02*
X004692Y031569D01*
X004710Y031410D02*
X001960Y031410D01*
X001960Y031252D02*
X004741Y031252D01*
X004785Y031093D02*
X001960Y031093D01*
X001960Y030935D02*
X004841Y030935D01*
X004913Y030776D02*
X001960Y030776D01*
X001960Y030618D02*
X005001Y030618D01*
X005107Y030459D02*
X001960Y030459D01*
X001960Y030301D02*
X005236Y030301D01*
X005393Y030142D02*
X001960Y030142D01*
X001960Y029984D02*
X005591Y029984D01*
X005850Y029825D02*
X001960Y029825D01*
X001960Y029667D02*
X006244Y029667D01*
X006765Y029667D02*
X006925Y029667D01*
X006925Y029825D02*
X006765Y029825D01*
X006765Y029984D02*
X006925Y029984D01*
X006925Y030142D02*
X006765Y030142D01*
X006765Y030301D02*
X006925Y030301D01*
X006925Y030459D02*
X006765Y030459D01*
X006765Y030618D02*
X006925Y030618D01*
X006925Y030776D02*
X006765Y030776D01*
X006765Y030935D02*
X006925Y030935D01*
X006925Y031093D02*
X006765Y031093D01*
X006765Y031252D02*
X006925Y031252D01*
X006925Y031410D02*
X006765Y031410D01*
X006765Y031886D02*
X006925Y031886D01*
X006925Y032044D02*
X006765Y032044D01*
X006765Y032203D02*
X006925Y032203D01*
X006925Y032361D02*
X006765Y032361D01*
X006765Y032520D02*
X006925Y032520D01*
X006925Y032678D02*
X006765Y032678D01*
X006765Y032837D02*
X006925Y032837D01*
X006925Y032995D02*
X006765Y032995D01*
X006765Y033154D02*
X006925Y033154D01*
X006925Y033312D02*
X006765Y033312D01*
X006765Y033471D02*
X006925Y033471D01*
X006925Y033629D02*
X006765Y033629D01*
X006765Y033788D02*
X006925Y033788D01*
X005789Y033629D02*
X001960Y033629D01*
X001960Y033471D02*
X005548Y033471D01*
X005360Y033312D02*
X001960Y033312D01*
X001960Y033154D02*
X005209Y033154D01*
X005085Y032995D02*
X001960Y032995D01*
X001960Y032837D02*
X004982Y032837D01*
X004897Y032678D02*
X001960Y032678D01*
X001960Y032520D02*
X004829Y032520D01*
X004775Y032361D02*
X001960Y032361D01*
X001960Y032203D02*
X004734Y032203D01*
X004706Y032044D02*
X001960Y032044D01*
X001960Y031886D02*
X004689Y031886D01*
X004640Y029033D02*
X001960Y029033D01*
X001960Y029191D02*
X009440Y029191D01*
X009440Y029350D02*
X001960Y029350D01*
X001960Y029508D02*
X009440Y029508D01*
X009440Y029667D02*
X007445Y029667D01*
X007839Y029825D02*
X009440Y029825D01*
X009440Y029984D02*
X008098Y029984D01*
X008297Y030142D02*
X009440Y030142D01*
X009440Y030301D02*
X008454Y030301D01*
X008582Y030459D02*
X009440Y030459D01*
X009440Y030618D02*
X008689Y030618D01*
X008776Y030776D02*
X009440Y030776D01*
X009440Y030935D02*
X008848Y030935D01*
X008905Y031093D02*
X009440Y031093D01*
X009440Y031252D02*
X008948Y031252D01*
X008979Y031410D02*
X009440Y031410D01*
X008014Y034105D02*
X001960Y034105D01*
X001960Y034263D02*
X007853Y034263D01*
X005540Y036958D02*
X003199Y036958D01*
X002447Y039177D02*
X001960Y039177D01*
X001960Y039335D02*
X002304Y039335D01*
X002238Y039494D02*
X001960Y039494D01*
X001960Y039652D02*
X002220Y039652D01*
X002231Y039811D02*
X001960Y039811D01*
X001960Y039969D02*
X002297Y039969D01*
X002431Y040128D02*
X001960Y040128D01*
X001960Y040286D02*
X002337Y040286D01*
X002258Y040445D02*
X001960Y040445D01*
X001960Y040603D02*
X002220Y040603D01*
X002220Y040762D02*
X001960Y040762D01*
X001960Y040920D02*
X002277Y040920D01*
X002382Y041079D02*
X001960Y041079D01*
X001960Y041237D02*
X002613Y041237D01*
X003067Y041237D02*
X004220Y041237D01*
X003875Y041079D02*
X003298Y041079D01*
X003403Y040920D02*
X003717Y040920D01*
X003603Y040762D02*
X003460Y040762D01*
X003460Y040603D02*
X003537Y040603D01*
X003490Y040445D02*
X003422Y040445D01*
X003490Y040286D02*
X003343Y040286D01*
X003249Y040128D02*
X003490Y040128D01*
X003549Y039969D02*
X003383Y039969D01*
X003449Y039811D02*
X003614Y039811D01*
X003744Y039652D02*
X003460Y039652D01*
X003442Y039494D02*
X003905Y039494D01*
X006052Y040603D02*
X019229Y040603D01*
X019232Y040128D02*
X008256Y040128D01*
X008236Y040147D02*
X008178Y040189D01*
X008115Y040222D01*
X008047Y040244D01*
X007976Y040255D01*
X007948Y040255D01*
X007948Y039808D01*
X008395Y039808D01*
X008395Y039836D01*
X008384Y039907D01*
X008362Y039975D01*
X008329Y040038D01*
X008287Y040096D01*
X008236Y040147D01*
X008363Y039969D02*
X021228Y039969D01*
X021195Y039811D02*
X008395Y039811D01*
X008370Y039652D02*
X017563Y039652D01*
X018917Y039652D02*
X019219Y039652D01*
X019160Y039180D02*
X019700Y039180D01*
X019751Y039180D01*
X019760Y039189D01*
X019751Y039180D02*
X020360Y039180D01*
X020301Y039652D02*
X020563Y039652D01*
X020288Y040128D02*
X021338Y040128D01*
X021942Y040128D02*
X023588Y040128D01*
X023746Y040286D02*
X020294Y040286D01*
X020294Y040445D02*
X023905Y040445D01*
X024063Y040603D02*
X020291Y040603D01*
X019778Y040603D02*
X019742Y040603D01*
X019742Y040445D02*
X019778Y040445D01*
X019778Y040286D02*
X019742Y040286D01*
X019742Y040128D02*
X019778Y040128D01*
X022052Y039969D02*
X023429Y039969D01*
X023271Y039811D02*
X022085Y039811D01*
X022060Y039652D02*
X023112Y039652D01*
X024222Y040762D02*
X006189Y040762D01*
X006260Y040920D02*
X033020Y040920D01*
X033091Y040762D02*
X032518Y040762D01*
X032677Y040603D02*
X033228Y040603D01*
X033009Y041237D02*
X006271Y041237D01*
X006214Y041396D02*
X033066Y041396D01*
X033182Y041554D02*
X006098Y041554D01*
X007262Y039811D02*
X007485Y039811D01*
X007510Y039652D02*
X007429Y039652D01*
X007932Y039811D02*
X007948Y039811D01*
X007932Y039969D02*
X007948Y039969D01*
X007932Y040128D02*
X007948Y040128D01*
X004640Y028874D02*
X001960Y028874D01*
X001960Y028716D02*
X004640Y028716D01*
X004640Y028557D02*
X001960Y028557D01*
X001960Y028399D02*
X004640Y028399D01*
X004640Y028240D02*
X001960Y028240D01*
X001960Y028082D02*
X004640Y028082D01*
X004640Y027923D02*
X001960Y027923D01*
X001960Y027765D02*
X004640Y027765D01*
X004640Y027606D02*
X001960Y027606D01*
X001960Y027448D02*
X004640Y027448D01*
X004640Y027289D02*
X001960Y027289D01*
X001960Y027131D02*
X004640Y027131D01*
X004640Y026972D02*
X001960Y026972D01*
X001960Y026814D02*
X004640Y026814D01*
X004640Y026655D02*
X001960Y026655D01*
X001960Y026497D02*
X004598Y026497D01*
X004598Y026338D02*
X001960Y026338D01*
X001960Y026180D02*
X004636Y026180D01*
X004640Y026021D02*
X001960Y026021D01*
X001960Y025863D02*
X004640Y025863D01*
X004640Y025704D02*
X001960Y025704D01*
X001960Y025546D02*
X004605Y025546D01*
X004598Y025387D02*
X001960Y025387D01*
X001960Y025229D02*
X004616Y025229D01*
X004640Y025070D02*
X001960Y025070D01*
X001960Y024912D02*
X004640Y024912D01*
X004640Y024753D02*
X001960Y024753D01*
X001960Y024595D02*
X004625Y024595D01*
X004598Y024436D02*
X001960Y024436D01*
X001960Y024278D02*
X004598Y024278D01*
X004640Y024119D02*
X001960Y024119D01*
X001960Y023961D02*
X004640Y023961D01*
X004640Y023802D02*
X001960Y023802D01*
X001960Y023644D02*
X004640Y023644D01*
X004598Y023485D02*
X001960Y023485D01*
X001960Y023327D02*
X004598Y023327D01*
X004640Y023168D02*
X001960Y023168D01*
X001960Y023010D02*
X004640Y023010D01*
X004640Y022851D02*
X001960Y022851D01*
X001960Y022693D02*
X004640Y022693D01*
X004600Y022534D02*
X001960Y022534D01*
X001960Y022376D02*
X004598Y022376D01*
X004620Y022217D02*
X001960Y022217D01*
X001960Y022059D02*
X004640Y022059D01*
X004640Y021900D02*
X001960Y021900D01*
X001960Y021741D02*
X004640Y021741D01*
X004620Y021583D02*
X001960Y021583D01*
X001960Y021424D02*
X004598Y021424D01*
X004600Y021266D02*
X001960Y021266D01*
X001960Y021107D02*
X004640Y021107D01*
X004640Y020949D02*
X001960Y020949D01*
X001960Y020790D02*
X004640Y020790D01*
X004640Y020632D02*
X001960Y020632D01*
X001960Y020473D02*
X004598Y020473D01*
X004598Y020315D02*
X001960Y020315D01*
X001960Y020156D02*
X004640Y020156D01*
X004640Y019998D02*
X001960Y019998D01*
X001960Y019839D02*
X004640Y019839D01*
X004640Y019681D02*
X001960Y019681D01*
X001960Y019522D02*
X004598Y019522D01*
X004598Y019364D02*
X001960Y019364D01*
X001960Y019205D02*
X004625Y019205D01*
X004640Y019047D02*
X001960Y019047D01*
X001960Y018888D02*
X004640Y018888D01*
X004640Y018730D02*
X001960Y018730D01*
X001960Y018571D02*
X004616Y018571D01*
X004598Y018413D02*
X001960Y018413D01*
X001960Y018254D02*
X004605Y018254D01*
X004640Y018096D02*
X001960Y018096D01*
X001960Y017937D02*
X004640Y017937D01*
X004598Y017779D02*
X001960Y017779D01*
X001960Y017620D02*
X004598Y017620D01*
X004598Y017462D02*
X001960Y017462D01*
X001960Y017303D02*
X004598Y017303D01*
X004598Y017145D02*
X001960Y017145D01*
X001960Y016986D02*
X004609Y016986D01*
X004640Y016828D02*
X001960Y016828D01*
X001960Y016669D02*
X004640Y016669D01*
X004640Y016511D02*
X001960Y016511D01*
X001960Y016352D02*
X004640Y016352D01*
X004640Y016194D02*
X001960Y016194D01*
X001960Y016035D02*
X004640Y016035D01*
X004640Y015877D02*
X001960Y015877D01*
X001960Y015718D02*
X004640Y015718D01*
X004640Y015560D02*
X001960Y015560D01*
X001960Y015401D02*
X004640Y015401D01*
X004640Y015243D02*
X001960Y015243D01*
X001960Y015084D02*
X004640Y015084D01*
X004640Y014926D02*
X001960Y014926D01*
X001960Y014767D02*
X004640Y014767D01*
X005440Y017200D02*
X005240Y017400D01*
X005440Y017200D02*
X006040Y017200D01*
X006040Y018400D02*
X005240Y018400D01*
X005240Y018400D01*
X006040Y018400D02*
X006190Y018550D01*
X007140Y018550D01*
X007515Y017650D02*
X007525Y017640D01*
X007930Y017640D01*
X009140Y016720D02*
X008809Y016389D01*
X008809Y015780D01*
X009991Y015780D02*
X009991Y016571D01*
X010140Y016720D01*
X009991Y015780D02*
X010550Y015780D01*
X011130Y015780D02*
X011130Y016730D01*
X011140Y016720D01*
X011130Y015780D02*
X011130Y011310D01*
X012140Y010300D01*
X013340Y010300D01*
X013330Y010310D01*
X013330Y010700D01*
X013340Y010300D02*
X017940Y010300D01*
X017930Y010310D01*
X017930Y010700D01*
X017940Y010300D02*
X022340Y010300D01*
X022330Y010310D01*
X022330Y010700D01*
X022340Y010300D02*
X022640Y010300D01*
X024440Y010300D01*
X024640Y010300D01*
X026740Y010300D01*
X026830Y010390D01*
X026830Y010700D01*
X027210Y014440D02*
X027210Y015630D01*
X027200Y015640D01*
X028200Y015640D02*
X028200Y015190D01*
X028509Y014881D01*
X028509Y014440D01*
X027790Y014440D01*
X029200Y015640D02*
X029600Y015240D01*
X029691Y015149D01*
X029691Y014440D01*
X033689Y013816D02*
X037320Y013816D01*
X037320Y013658D02*
X033887Y013658D01*
X034044Y013499D02*
X037320Y013499D01*
X037320Y013341D02*
X034173Y013341D01*
X034279Y013182D02*
X037320Y013182D01*
X037320Y013024D02*
X034367Y013024D01*
X034439Y012865D02*
X037320Y012865D01*
X037320Y012707D02*
X034495Y012707D01*
X034539Y012548D02*
X037320Y012548D01*
X037320Y012390D02*
X034570Y012390D01*
X029240Y005257D02*
X029183Y005257D01*
X028678Y004623D02*
X028643Y004623D01*
X028673Y004306D02*
X029240Y004306D01*
X029240Y004148D02*
X029152Y004148D01*
X029185Y003989D02*
X029240Y003989D01*
X029240Y003831D02*
X029097Y003831D01*
X028783Y003831D02*
X028730Y003831D01*
X019918Y004623D02*
X019883Y004623D01*
X011378Y006842D02*
X011282Y006842D01*
X011282Y007001D02*
X011378Y007001D01*
X011378Y007159D02*
X011282Y007159D01*
X011282Y007318D02*
X011378Y007318D01*
X011378Y007476D02*
X011282Y007476D01*
X011282Y007635D02*
X011378Y007635D01*
X010462Y004306D02*
X010450Y004306D01*
X031360Y026150D02*
X031765Y026150D01*
X032140Y025250D02*
X033190Y025250D01*
X033240Y025300D01*
X033940Y025300D01*
X034040Y025400D01*
X034040Y026400D02*
X033940Y026500D01*
X033240Y026500D01*
X033430Y029825D02*
X037320Y029825D01*
X037320Y029984D02*
X033689Y029984D01*
X033887Y030142D02*
X037320Y030142D01*
X037320Y031886D02*
X034591Y031886D01*
X034574Y032044D02*
X037320Y032044D01*
X037320Y032203D02*
X034546Y032203D01*
X034505Y032361D02*
X037320Y032361D01*
X037320Y032520D02*
X034451Y032520D01*
X034383Y032678D02*
X037320Y032678D01*
X037320Y032837D02*
X034298Y032837D01*
X034195Y032995D02*
X037320Y032995D01*
X037320Y033154D02*
X034071Y033154D01*
X033920Y033312D02*
X037320Y033312D01*
X037320Y033471D02*
X033732Y033471D01*
X033491Y033629D02*
X037320Y033629D01*
X037320Y034422D02*
X033928Y034422D01*
X034131Y034580D02*
X037320Y034580D01*
X037320Y035056D02*
X036932Y035056D01*
X037017Y035214D02*
X037320Y035214D01*
X037320Y035373D02*
X037060Y035373D01*
X037060Y035531D02*
X037320Y035531D01*
X037320Y035690D02*
X037008Y035690D01*
X036909Y035848D02*
X037320Y035848D01*
X037320Y036007D02*
X036883Y036007D01*
X036997Y036165D02*
X037320Y036165D01*
X037320Y036324D02*
X037060Y036324D01*
X037060Y036482D02*
X037320Y036482D01*
X037320Y036641D02*
X037028Y036641D01*
X036958Y036799D02*
X037320Y036799D01*
X037320Y039177D02*
X036833Y039177D01*
X036976Y039335D02*
X037320Y039335D01*
X037320Y039494D02*
X037042Y039494D01*
X037060Y039652D02*
X037320Y039652D01*
X037320Y039811D02*
X037049Y039811D01*
X036983Y039969D02*
X037320Y039969D01*
X037320Y040128D02*
X036849Y040128D01*
X036943Y040286D02*
X037320Y040286D01*
X037320Y040445D02*
X037022Y040445D01*
X037060Y040603D02*
X037320Y040603D01*
X037320Y040762D02*
X037060Y040762D01*
X037003Y040920D02*
X037320Y040920D01*
X037320Y041079D02*
X036898Y041079D01*
X036667Y041237D02*
X037320Y041237D01*
X037320Y041396D02*
X034214Y041396D01*
X034271Y041237D02*
X034620Y041237D01*
X034275Y041079D02*
X033715Y041079D01*
X034098Y041554D02*
X037320Y041554D01*
X036213Y041237D02*
X035060Y041237D01*
X035405Y041079D02*
X035982Y041079D01*
X035877Y040920D02*
X035563Y040920D01*
X035677Y040762D02*
X035820Y040762D01*
X035820Y040603D02*
X035743Y040603D01*
X035790Y040445D02*
X035858Y040445D01*
X035790Y040286D02*
X035937Y040286D01*
X036031Y040128D02*
X035790Y040128D01*
X035731Y039969D02*
X035897Y039969D01*
X035831Y039811D02*
X035666Y039811D01*
X035536Y039652D02*
X035820Y039652D01*
X035838Y039494D02*
X035375Y039494D01*
D46*
X024620Y032340D03*
X023360Y034620D03*
X021920Y035160D03*
X018940Y031840D03*
X017360Y035160D03*
X015920Y034620D03*
X015680Y032320D03*
X015680Y030520D03*
X011040Y026300D03*
X011040Y022900D03*
X013400Y019600D03*
X014180Y020080D03*
X014180Y018520D03*
X014490Y017920D03*
X013510Y017910D03*
X014060Y014460D03*
X012240Y010700D03*
X016840Y010700D03*
X019160Y014200D03*
X019760Y014200D03*
X021240Y010700D03*
X025740Y010700D03*
X024680Y004020D03*
X028940Y004020D03*
X020120Y004020D03*
X016220Y004020D03*
X020640Y017500D03*
X021240Y017500D03*
X019620Y018100D03*
X008620Y019240D03*
X009920Y036780D03*
X021640Y039800D03*
D47*
X021240Y039000D02*
X021240Y039000D01*
X020660Y039000D01*
X020340Y038680D01*
X020340Y038170D01*
X020340Y037590D02*
X020340Y037300D01*
X019900Y036860D01*
X019900Y032840D01*
X019940Y032800D01*
X019940Y032450D01*
X019740Y032450D02*
X019740Y037590D01*
X019740Y038170D02*
X019740Y038700D01*
X019140Y038680D02*
X019140Y038170D01*
X019140Y038680D02*
X018820Y039000D01*
X018240Y039000D01*
X019140Y037590D02*
X019140Y037300D01*
X019580Y036860D01*
X019580Y036780D01*
X019580Y032840D01*
X019540Y032800D01*
X019540Y032450D01*
X018940Y032450D02*
X018940Y031840D01*
X018340Y031300D02*
X018440Y031200D01*
X018440Y029600D01*
X018140Y029300D01*
X018140Y025800D01*
X017820Y025480D01*
X016800Y025480D01*
X016391Y025071D01*
X016391Y024751D01*
X016195Y024751D02*
X016195Y025275D01*
X016280Y025360D01*
X016350Y025430D01*
X016350Y025840D01*
X016350Y026380D02*
X016340Y026390D01*
X016340Y026860D01*
X016350Y026380D02*
X016100Y026380D01*
X015998Y026278D01*
X015998Y024751D01*
X015309Y024062D02*
X015309Y027469D01*
X015840Y028000D01*
X016940Y029100D01*
X016940Y030100D01*
X017340Y030500D01*
X017990Y030500D01*
X017990Y030700D02*
X017240Y030700D01*
X016740Y030200D01*
X016740Y029200D01*
X014840Y027300D01*
X014840Y024000D01*
X014975Y023865D01*
X015309Y023865D01*
X015309Y023275D02*
X014865Y023275D01*
X014540Y023600D01*
X014540Y025700D01*
X012940Y027300D01*
X012320Y027300D01*
X013040Y026800D02*
X011140Y026800D01*
X010640Y027300D01*
X009760Y027300D01*
X009760Y026300D02*
X011040Y026300D01*
X012320Y026300D01*
X013040Y026800D02*
X014340Y025500D01*
X014340Y023500D01*
X014762Y023078D01*
X015309Y023078D01*
X015309Y022881D02*
X014659Y022881D01*
X014140Y023400D01*
X014140Y024800D01*
X013640Y025300D01*
X012320Y025300D01*
X013340Y024900D02*
X011040Y024900D01*
X010640Y025300D01*
X009760Y025300D01*
X009760Y023900D02*
X011140Y023900D01*
X011640Y023400D01*
X013240Y023400D01*
X014349Y022291D01*
X015309Y022291D01*
X015309Y022487D02*
X014453Y022487D01*
X013040Y023900D01*
X012320Y023900D01*
X013340Y024900D02*
X013540Y024700D01*
X013940Y024300D01*
X013940Y023300D01*
X014556Y022684D01*
X015309Y022684D01*
X015309Y022094D02*
X013234Y022094D01*
X013040Y021900D01*
X012320Y021900D01*
X012340Y021920D01*
X012940Y021500D02*
X011740Y021500D01*
X011360Y021880D01*
X009740Y021880D01*
X009760Y021900D01*
X009760Y022900D02*
X011040Y022900D01*
X012320Y022900D01*
X013337Y021897D02*
X012940Y021500D01*
X013337Y021897D02*
X015309Y021897D01*
X015309Y021700D02*
X013640Y021700D01*
X011840Y019900D01*
X011840Y014900D01*
X014540Y012200D01*
X014690Y012050D01*
X014690Y011324D01*
X014190Y011324D02*
X012964Y011324D01*
X012750Y011110D01*
X012750Y010700D01*
X012240Y010700D01*
X013330Y010700D02*
X015560Y010700D01*
X015690Y010830D01*
X015690Y011324D01*
X015190Y011324D02*
X015190Y011850D01*
X012040Y015000D01*
X012040Y019800D01*
X013640Y021400D01*
X013743Y021503D01*
X015309Y021503D01*
X016930Y025840D02*
X016930Y026380D01*
X016940Y026390D01*
X016940Y026860D01*
X017120Y028060D02*
X017120Y028530D01*
X017130Y028540D01*
X017130Y028970D01*
X017240Y029080D01*
X017240Y029980D01*
X017560Y030300D01*
X017990Y030300D01*
X017990Y030100D02*
X017660Y030100D01*
X017480Y029920D01*
X017420Y029860D01*
X017420Y029080D01*
X017660Y028840D01*
X017710Y028790D01*
X017710Y028540D01*
X017720Y028530D01*
X017720Y028060D01*
X016540Y029300D02*
X015640Y028400D01*
X015440Y028400D01*
X015240Y028700D02*
X015040Y028500D01*
X015040Y028200D01*
X015140Y028100D01*
X015240Y028700D02*
X015640Y028700D01*
X016340Y029400D01*
X016340Y030400D01*
X017040Y031100D01*
X017990Y031100D01*
X017990Y030900D02*
X017140Y030900D01*
X016540Y030300D01*
X016540Y029300D01*
X017990Y031300D02*
X018340Y031300D01*
X019740Y029150D02*
X019740Y028400D01*
X019820Y028320D01*
X019850Y028290D01*
X019850Y027800D01*
X019900Y027750D01*
X019900Y027290D01*
X020430Y027800D02*
X020430Y028190D01*
X019940Y028680D01*
X019940Y029150D01*
X021290Y030900D02*
X021740Y030900D01*
X022952Y029688D01*
X023565Y029688D01*
X023565Y030003D02*
X022937Y030003D01*
X021840Y031100D01*
X021290Y031100D01*
X021290Y031300D02*
X021940Y031300D01*
X022923Y030317D01*
X023565Y030317D01*
X023565Y030632D02*
X022908Y030632D01*
X022040Y031500D01*
X021290Y031500D01*
X023430Y026140D02*
X023430Y025600D01*
X023430Y025060D01*
X023060Y025060D01*
X022940Y024940D01*
X022940Y024400D01*
X022040Y023500D01*
X022012Y023472D01*
X021411Y023472D01*
X021411Y023275D02*
X022115Y023275D01*
X022160Y023320D01*
X022280Y023440D01*
X023430Y023440D01*
X023430Y023980D01*
X023660Y023980D01*
X023720Y024040D01*
X023720Y024460D01*
X023780Y024520D01*
X024010Y024520D01*
X024010Y023980D02*
X024010Y023440D01*
X024440Y023440D01*
X024020Y023430D02*
X024020Y023140D01*
X024020Y022850D01*
X024010Y022840D01*
X024020Y023140D02*
X022524Y023140D01*
X022462Y023078D01*
X021411Y023078D01*
X021411Y022881D02*
X023389Y022881D01*
X023430Y022840D01*
X023430Y022360D01*
X023430Y021880D02*
X023430Y021590D01*
X023420Y021580D01*
X024260Y021580D01*
X024380Y021700D01*
X024380Y021880D01*
X024467Y021967D01*
X025040Y021967D01*
X024010Y021880D02*
X024010Y022350D01*
X024020Y022360D01*
X023420Y021580D02*
X023120Y021580D01*
X023000Y021700D01*
X021411Y021700D01*
X021411Y021503D02*
X022957Y021503D01*
X023120Y021340D01*
X023180Y021280D01*
X023430Y021280D01*
X023430Y020740D02*
X023660Y020740D01*
X023720Y020680D01*
X023720Y020290D01*
X024010Y020450D02*
X024010Y020740D01*
X024010Y021280D01*
X024010Y020450D02*
X024020Y020440D01*
X024107Y020353D01*
X025040Y020353D01*
X024440Y019600D02*
X024040Y019600D01*
X024020Y019580D01*
X024020Y019300D01*
X023120Y019300D01*
X022840Y019580D01*
X022840Y020000D01*
X021731Y021109D01*
X021411Y021109D01*
X021411Y021306D02*
X021834Y021306D01*
X023040Y020100D01*
X023040Y019700D01*
X023140Y019600D01*
X023430Y019600D01*
X023440Y019610D01*
X023440Y020060D01*
X024010Y019600D02*
X024040Y019600D01*
X024020Y019590D02*
X024010Y019600D01*
X024020Y019300D02*
X024020Y019010D01*
X024010Y019000D01*
X024440Y019000D01*
X023440Y018990D02*
X023430Y019000D01*
X023140Y019000D01*
X022640Y019500D01*
X022640Y019900D01*
X022218Y020322D01*
X021411Y020322D01*
X021091Y018649D02*
X020722Y018649D01*
X020525Y018649D02*
X020525Y018355D01*
X020640Y018240D01*
X020640Y017995D01*
X021230Y018000D02*
X021230Y018510D01*
X021091Y018649D01*
X024020Y023430D02*
X024010Y023440D01*
X023430Y024520D02*
X023430Y025060D01*
X024010Y025060D02*
X024010Y025600D01*
X024010Y025060D02*
X024440Y025060D01*
X024440Y026140D02*
X024010Y026140D01*
X020525Y025345D02*
X020525Y024751D01*
X020329Y024751D02*
X020329Y025051D01*
X020270Y025110D01*
X019930Y025110D01*
X019850Y025190D01*
X019850Y025440D01*
X020430Y025440D02*
X020525Y025345D01*
X020190Y011324D02*
X020190Y010850D01*
X020040Y010700D01*
X017930Y010700D01*
X017350Y010700D02*
X017350Y011110D01*
X017564Y011324D01*
X018690Y011324D01*
X018640Y010100D02*
X018350Y009810D01*
X018350Y008100D01*
X018350Y006001D01*
X018349Y006000D01*
X018850Y007100D02*
X018850Y008410D01*
X019190Y008750D01*
X019190Y009276D01*
X018690Y009276D02*
X018690Y009810D01*
X018780Y009900D01*
X019340Y009900D01*
X019440Y009800D01*
X019440Y008600D01*
X019350Y008510D01*
X019350Y008100D01*
X019850Y008490D02*
X019690Y008650D01*
X019690Y009276D01*
X020190Y009276D02*
X020190Y009850D01*
X019940Y010100D01*
X018640Y010100D01*
X017350Y010700D02*
X016840Y010700D01*
X015690Y009850D02*
X015690Y009276D01*
X015190Y009276D02*
X015190Y008650D01*
X015240Y008600D01*
X015370Y008470D01*
X015370Y007100D01*
X015131Y006861D01*
X015131Y006000D01*
X013949Y006000D02*
X013870Y006079D01*
X013870Y008100D01*
X013870Y009830D01*
X014140Y010100D01*
X015440Y010100D01*
X015640Y009900D01*
X015690Y009850D01*
X014940Y009800D02*
X014840Y009900D01*
X014240Y009900D01*
X014190Y009850D01*
X014190Y009276D01*
X014690Y009276D02*
X014690Y008750D01*
X014640Y008700D01*
X014370Y008430D01*
X014370Y007100D01*
X014870Y008100D02*
X014870Y008530D01*
X014940Y008600D01*
X014940Y009800D01*
X019531Y006781D02*
X019531Y006000D01*
X019531Y006781D02*
X019850Y007100D01*
X019850Y008490D01*
X021240Y010700D02*
X021750Y010700D01*
X021750Y011110D01*
X021964Y011324D01*
X023090Y011324D01*
X022330Y010700D02*
X024440Y010700D01*
X024590Y010850D01*
X024590Y011324D01*
X024340Y010100D02*
X024540Y009900D01*
X024590Y009850D01*
X024590Y009276D01*
X024090Y009276D02*
X024090Y008650D01*
X024240Y008500D01*
X024330Y008410D01*
X024330Y007100D01*
X024031Y006801D01*
X024031Y006000D01*
X023330Y007100D02*
X023330Y008390D01*
X023440Y008500D01*
X023590Y008650D01*
X023590Y009276D01*
X023090Y009276D02*
X023090Y009850D01*
X023140Y009900D01*
X023740Y009900D01*
X023840Y009800D01*
X023840Y008700D01*
X023830Y008690D01*
X023830Y008100D01*
X022830Y008100D02*
X022830Y006019D01*
X022849Y006000D01*
X022830Y008100D02*
X022830Y009990D01*
X022940Y010100D01*
X024340Y010100D01*
X025740Y010700D02*
X026250Y010700D01*
X026250Y011110D01*
X026464Y011324D01*
X027590Y011324D01*
X026830Y010700D02*
X028940Y010700D01*
X029090Y010850D01*
X029090Y011324D01*
X028740Y010200D02*
X029040Y009900D01*
X029090Y009850D01*
X029090Y009276D01*
X028590Y009276D02*
X028590Y008650D01*
X028740Y008500D01*
X028810Y008430D01*
X028810Y007100D01*
X028531Y006821D01*
X028531Y006000D01*
X027810Y007100D02*
X027810Y008370D01*
X027840Y008400D01*
X028090Y008650D01*
X028090Y009276D01*
X027590Y009276D02*
X027590Y009850D01*
X027640Y009900D01*
X027740Y010000D01*
X028240Y010000D01*
X028340Y009900D01*
X028340Y008600D01*
X028310Y008570D01*
X028310Y008100D01*
X027310Y008100D02*
X027310Y009870D01*
X027640Y010200D01*
X028740Y010200D01*
X027310Y008100D02*
X027310Y006039D01*
X027349Y006000D01*
D48*
X031360Y018150D03*
X031360Y026150D03*
X024440Y026760D03*
X024440Y029260D03*
X019740Y038700D03*
X020360Y039180D03*
X019160Y039180D03*
X013340Y031500D03*
X013880Y028600D03*
X011240Y028600D03*
X010400Y030100D03*
X009700Y020720D03*
X010400Y019240D03*
X012100Y020720D03*
X007930Y017640D03*
D49*
X011540Y017700D03*
X011540Y018000D03*
X011540Y018300D03*
X011540Y018600D03*
X011540Y018900D03*
X012440Y018900D03*
X012440Y018600D03*
X012440Y018300D03*
X012440Y018000D03*
X012440Y017700D03*
X014780Y018220D03*
X015860Y018220D03*
X018080Y021460D03*
X018380Y021760D03*
X018360Y024040D03*
X018160Y024270D03*
X017960Y024040D03*
X017770Y024270D03*
X017570Y024040D03*
X017380Y024270D03*
X017180Y024040D03*
X016980Y024270D03*
X018500Y026260D03*
X019580Y026260D03*
X019880Y025900D03*
X020420Y025900D03*
X020480Y026320D03*
X020440Y027300D03*
X019900Y027290D03*
X017720Y028060D03*
X017120Y028060D03*
X016040Y027800D03*
X015740Y027500D03*
X015440Y028400D03*
X015140Y028100D03*
X016340Y026860D03*
X016940Y026860D03*
X020420Y023440D03*
X021320Y024340D03*
X022880Y026140D03*
X022880Y026680D03*
X022880Y027220D03*
X022880Y027760D03*
X022880Y028300D03*
X022880Y028840D03*
X024620Y030300D03*
X024620Y030720D03*
X024620Y031260D03*
X025940Y029700D03*
X024440Y026140D03*
X024440Y025060D03*
X024440Y023440D03*
X024020Y022360D03*
X023430Y022360D03*
X023720Y020290D03*
X023440Y020060D03*
X024440Y019600D03*
X024440Y019000D03*
X023720Y018520D03*
X022460Y017640D03*
X023000Y017100D03*
X016880Y014460D03*
X016880Y013920D03*
X032960Y016740D03*
X030380Y034140D03*
X029540Y034680D03*
X029900Y035100D03*
X029300Y038820D03*
X028880Y038820D03*
X022700Y038880D03*
X022220Y037800D03*
X017420Y037440D03*
X010400Y036780D03*
D50*
X008600Y035460D02*
X007220Y036840D01*
X007040Y036840D01*
X006940Y036940D01*
X006940Y037300D01*
X007040Y036720D02*
X007160Y036720D01*
X008540Y035340D01*
X013880Y035340D01*
X015260Y033960D01*
X015860Y033960D01*
X016040Y033780D01*
X016040Y033600D01*
X016100Y033540D01*
X016350Y033540D01*
X016350Y033290D01*
X016700Y032940D01*
X018380Y032940D01*
X018540Y032780D01*
X018540Y032450D01*
X018740Y032450D02*
X018740Y032760D01*
X018440Y033060D01*
X016760Y033060D01*
X016640Y033180D01*
X016640Y034020D01*
X016580Y034080D01*
X016350Y034080D01*
X015320Y034080D01*
X013940Y035460D01*
X008600Y035460D01*
X007040Y036720D02*
X006940Y036620D01*
X006940Y036300D01*
X007940Y037800D02*
X008180Y038040D01*
X008360Y038040D01*
X015200Y038040D01*
X016640Y036600D01*
X016640Y035760D01*
X016700Y035700D01*
X016930Y035700D01*
X017120Y035700D01*
X017240Y035820D01*
X017960Y035820D01*
X018620Y035160D01*
X018620Y033960D01*
X019160Y033420D01*
X019160Y032820D01*
X019140Y032800D01*
X019140Y032450D01*
X019340Y032450D02*
X019340Y032760D01*
X019280Y032820D01*
X019280Y033480D01*
X018740Y034020D01*
X018740Y035220D01*
X018020Y035940D01*
X017480Y035940D01*
X017300Y035940D01*
X017240Y036000D01*
X017240Y036180D01*
X017180Y036240D01*
X016930Y036240D01*
X016930Y036490D01*
X016880Y036540D01*
X015260Y038160D01*
X008180Y038160D01*
X007940Y038400D01*
X007940Y038800D01*
X014660Y032227D02*
X014660Y031720D01*
X014840Y031540D01*
X016280Y031540D01*
X016270Y031550D01*
X016270Y031840D01*
X016280Y031540D02*
X016640Y031540D01*
X016800Y031700D01*
X017990Y031700D01*
X017990Y031500D02*
X016900Y031500D01*
X016700Y031300D01*
X016280Y031300D01*
X016270Y031290D01*
X016270Y031000D01*
X016280Y031300D02*
X014840Y031300D01*
X014660Y031120D01*
X014660Y030613D01*
X015680Y030520D02*
X015680Y030990D01*
X015690Y031000D01*
X015690Y031840D02*
X015680Y031850D01*
X015680Y032320D01*
X017700Y029900D02*
X017600Y029800D01*
X017600Y029560D01*
X017960Y029200D01*
X017960Y027640D01*
X017900Y027580D01*
X017710Y027580D01*
X017130Y027580D02*
X016460Y027580D01*
X015740Y026860D01*
X015740Y024520D01*
X016460Y023800D01*
X020540Y023800D01*
X020840Y023500D01*
X020840Y022900D01*
X021056Y022684D01*
X021411Y022684D01*
X021411Y022487D02*
X021013Y022487D01*
X020660Y022840D01*
X020660Y023500D01*
X020480Y023680D01*
X016360Y023680D01*
X015600Y024440D01*
X015600Y026920D01*
X016040Y027360D01*
X016040Y027800D01*
X015740Y027500D02*
X015480Y027240D01*
X015480Y024380D01*
X019440Y020420D01*
X019738Y020122D01*
X019738Y018649D01*
X019935Y018649D02*
X019935Y018185D01*
X020120Y018000D01*
X020120Y017220D01*
X020360Y016980D01*
X022520Y016980D01*
X022580Y016920D01*
X028760Y016920D01*
X030140Y018300D01*
X030140Y022380D01*
X031160Y023400D01*
X031950Y023400D01*
X032240Y023940D02*
X032240Y017000D01*
X032140Y016900D01*
X031710Y016900D01*
X031580Y016770D01*
X031580Y014890D01*
X031570Y014880D01*
X028940Y016380D02*
X031160Y018600D01*
X031640Y018600D01*
X031950Y018290D01*
X031950Y018000D01*
X031950Y019400D02*
X031140Y019400D01*
X030500Y018760D01*
X030500Y018180D01*
X028880Y016560D01*
X022880Y016560D01*
X020000Y013680D01*
X019040Y013680D01*
X018380Y014340D01*
X018380Y017640D01*
X018754Y018014D01*
X018754Y018649D01*
X018951Y018649D02*
X018951Y018031D01*
X018500Y017580D01*
X018500Y014400D01*
X019040Y013860D01*
X019880Y013860D01*
X022760Y016740D01*
X028820Y016740D01*
X030320Y018240D01*
X030320Y020760D01*
X030960Y021400D01*
X031950Y021400D01*
X032240Y023940D02*
X032300Y024000D01*
X032530Y024000D01*
X031850Y026700D02*
X031460Y026700D01*
X029960Y025200D01*
X029960Y018360D01*
X028700Y017100D01*
X023000Y017100D01*
X022600Y017100D02*
X023060Y017560D01*
X025100Y017560D01*
X025940Y018400D01*
X027840Y018400D01*
X028340Y018900D02*
X026260Y018900D01*
X025040Y017680D01*
X023000Y017680D01*
X022540Y017220D01*
X020480Y017220D01*
X020360Y017340D01*
X020360Y018120D01*
X020329Y018151D01*
X020329Y018649D01*
X020132Y018649D02*
X020132Y018168D01*
X020240Y018060D01*
X020240Y017280D01*
X020420Y017100D01*
X022600Y017100D01*
X022460Y017640D02*
X020780Y019320D01*
X020780Y020280D01*
X021019Y020519D01*
X021411Y020519D01*
X021411Y020125D02*
X021755Y020125D01*
X022400Y019480D01*
X022400Y019180D01*
X023300Y018280D01*
X024720Y018280D01*
X027840Y021400D01*
X027580Y020940D02*
X028380Y020940D01*
X028840Y021400D01*
X028840Y020400D02*
X028360Y019920D01*
X026920Y019920D01*
X024920Y017920D01*
X023120Y017920D01*
X022040Y019000D01*
X022040Y019300D01*
X021805Y019535D01*
X021411Y019535D01*
X021411Y019731D02*
X021789Y019731D01*
X022160Y019360D01*
X022160Y019060D01*
X023180Y018040D01*
X024860Y018040D01*
X027220Y020400D01*
X027840Y020400D01*
X027580Y020940D02*
X024800Y018160D01*
X023240Y018160D01*
X022280Y019120D01*
X022280Y019420D01*
X021772Y019928D01*
X021411Y019928D01*
X021411Y019338D02*
X021822Y019338D01*
X021920Y019240D01*
X021920Y018940D01*
X023060Y017800D01*
X024980Y017800D01*
X026560Y019380D01*
X026580Y019400D01*
X027840Y019400D01*
X028340Y018900D02*
X028840Y019400D01*
X028940Y016380D02*
X023000Y016380D01*
X020120Y013500D01*
X019040Y013500D01*
X018260Y014280D01*
X018260Y017700D01*
X018360Y017800D01*
X018360Y018649D01*
X018163Y018649D02*
X018163Y017823D01*
X018080Y017740D01*
X018080Y014260D01*
X019820Y012520D01*
X027920Y012520D01*
X028590Y011850D01*
X028590Y011324D01*
X028090Y011324D02*
X028090Y011930D01*
X027620Y012400D01*
X019760Y012400D01*
X017960Y014200D01*
X017960Y017800D01*
X017966Y017806D01*
X017966Y018649D01*
X017376Y018649D02*
X017376Y017784D01*
X017840Y017320D01*
X017840Y014140D01*
X019700Y012280D01*
X023660Y012280D01*
X024090Y011850D01*
X024090Y011324D01*
X023590Y011324D02*
X023590Y011870D01*
X023300Y012160D01*
X019640Y012160D01*
X017720Y014080D01*
X017720Y017260D01*
X016785Y018195D01*
X016785Y018649D01*
X016588Y018649D02*
X016588Y018212D01*
X017600Y017200D01*
X017600Y014020D01*
X019580Y012040D01*
X019690Y011930D01*
X019690Y011324D01*
X019190Y011324D02*
X019190Y012250D01*
X017480Y013960D01*
X017480Y017140D01*
X016391Y018229D01*
X016391Y018649D01*
X015998Y018649D02*
X015998Y018358D01*
X015860Y018220D01*
X015620Y018100D02*
X015970Y017750D01*
X015970Y017323D01*
X015478Y017323D02*
X015478Y018858D01*
X018080Y021460D01*
X018380Y021760D02*
X018517Y021897D01*
X021411Y021897D01*
X021411Y022291D02*
X020969Y022291D01*
X020480Y022780D01*
X020480Y023380D01*
X020420Y023440D01*
X021020Y023740D02*
X021091Y023669D01*
X021411Y023669D01*
X021411Y023865D02*
X021685Y023865D01*
X021920Y024100D01*
X021920Y025480D01*
X021870Y025530D01*
X021870Y026140D01*
X021870Y026680D02*
X021600Y026680D01*
X021500Y026580D01*
X021500Y025660D01*
X021800Y025360D01*
X021800Y024160D01*
X021702Y024062D01*
X021411Y024062D01*
X021320Y024340D02*
X021320Y027220D01*
X021870Y027220D01*
X021870Y027760D02*
X021380Y027760D01*
X021140Y028000D01*
X021140Y029200D01*
X020960Y029380D01*
X020780Y029560D01*
X020600Y029560D01*
X020540Y029500D01*
X020540Y029150D01*
X020740Y029150D02*
X020740Y028640D01*
X020960Y028420D01*
X020960Y028000D01*
X021200Y027760D01*
X021320Y027640D01*
X021320Y027220D01*
X021020Y027760D02*
X021020Y023740D01*
X020722Y024751D02*
X020722Y028178D01*
X020180Y028720D01*
X020140Y028760D01*
X020140Y029150D01*
X020340Y029150D02*
X020340Y028860D01*
X020840Y028360D01*
X020840Y027940D01*
X021020Y027760D01*
X021450Y028030D02*
X021260Y028220D01*
X021260Y029620D01*
X021260Y029670D01*
X021290Y029700D01*
X021620Y029560D02*
X021620Y030040D01*
X021560Y030100D01*
X021290Y030100D01*
X021290Y030300D02*
X021540Y030300D01*
X021870Y029970D01*
X021870Y028840D01*
X022100Y028840D01*
X022160Y028780D01*
X022160Y028360D01*
X022220Y028300D01*
X022450Y028300D01*
X022880Y028300D01*
X022880Y027760D02*
X022450Y027760D01*
X022160Y027960D02*
X022090Y028030D01*
X021450Y028030D01*
X021440Y028300D02*
X021380Y028360D01*
X021380Y029320D01*
X021620Y029560D01*
X022450Y029590D02*
X021540Y030500D01*
X021290Y030500D01*
X022450Y029590D02*
X022450Y028840D01*
X022880Y028840D01*
X022160Y027960D02*
X022160Y026740D01*
X022100Y026680D01*
X021870Y026680D01*
X022450Y026680D02*
X022880Y026680D01*
X022880Y026140D02*
X022450Y026140D01*
X022450Y027220D02*
X022880Y027220D01*
X021870Y028300D02*
X021440Y028300D01*
X019540Y027260D02*
X020480Y026320D01*
X020420Y025900D02*
X020420Y025440D01*
X020430Y025440D01*
X019880Y025440D02*
X019880Y025900D01*
X019850Y025440D02*
X019880Y025440D01*
X019541Y024751D02*
X019541Y026221D01*
X019580Y026260D01*
X019540Y027260D02*
X019540Y029150D01*
X019340Y029150D02*
X019340Y024755D01*
X019344Y024751D01*
X019147Y024751D02*
X019147Y029143D01*
X019140Y029150D01*
X018940Y029150D02*
X018940Y024762D01*
X018951Y024751D01*
X018754Y024751D02*
X018754Y029136D01*
X018740Y029150D01*
X018540Y029150D02*
X018540Y026300D01*
X018500Y026260D01*
X018360Y024751D02*
X018360Y024040D01*
X018160Y024270D02*
X018160Y024748D01*
X018163Y024751D01*
X017966Y024751D02*
X017960Y024745D01*
X017960Y024040D01*
X017770Y024270D02*
X017769Y024271D01*
X017769Y024751D01*
X017573Y024751D02*
X017573Y024043D01*
X017570Y024040D01*
X017380Y024270D02*
X017376Y024274D01*
X017376Y024751D01*
X017179Y024751D02*
X017179Y024041D01*
X017180Y024040D01*
X016980Y024270D02*
X016982Y024272D01*
X016982Y024751D01*
X015309Y021306D02*
X013886Y021306D01*
X012440Y019860D01*
X012440Y018900D01*
X012680Y018840D02*
X012440Y018600D01*
X012440Y018300D02*
X012800Y018660D01*
X012800Y019800D01*
X013913Y020913D01*
X015309Y020913D01*
X015309Y021109D02*
X013929Y021109D01*
X012680Y019860D01*
X012680Y018840D01*
X012920Y018480D02*
X012440Y018000D01*
X012440Y017700D02*
X013040Y018300D01*
X013040Y019680D01*
X013879Y020519D01*
X015309Y020519D01*
X015309Y020716D02*
X013896Y020716D01*
X012920Y019740D01*
X012920Y018480D01*
X013510Y017910D02*
X013510Y017323D01*
X013510Y017323D01*
X014002Y017323D02*
X014002Y018102D01*
X014120Y018220D01*
X014780Y018220D01*
X014490Y017920D02*
X014490Y017327D01*
X014494Y017323D01*
X014986Y017323D02*
X014986Y017766D01*
X015320Y018100D01*
X015320Y018880D01*
X015800Y019360D01*
X015800Y019840D01*
X015712Y019928D01*
X015309Y019928D01*
X015620Y018820D02*
X015620Y018100D01*
X015620Y018820D02*
X016460Y019660D01*
X018320Y019660D01*
X018557Y019423D01*
X018557Y018649D01*
X019147Y018649D02*
X019147Y017967D01*
X018860Y017680D01*
X018860Y016900D01*
X018920Y016840D01*
X019170Y016840D01*
X019170Y016490D01*
X019160Y016480D01*
X018988Y016308D01*
X018988Y016134D01*
X018988Y015760D02*
X018740Y015760D01*
X018680Y015700D01*
X018680Y014860D01*
X018860Y014680D01*
X019170Y014680D01*
X019160Y014670D01*
X019160Y014200D01*
X019760Y014200D02*
X019760Y014670D01*
X019750Y014680D01*
X019750Y014970D01*
X019820Y015040D01*
X019932Y015152D01*
X019932Y015386D01*
X019932Y015528D01*
X019880Y015580D01*
X019640Y015820D01*
X019640Y016420D01*
X019750Y016530D01*
X019750Y016840D01*
X019750Y017380D01*
X019460Y017320D02*
X019460Y015520D01*
X019326Y015386D01*
X018988Y015386D01*
X019460Y017320D02*
X019400Y017380D01*
X019170Y017380D01*
X019170Y017750D01*
X019220Y017800D01*
X019344Y017924D01*
X019344Y018649D01*
X019541Y018649D02*
X019541Y018179D01*
X019620Y018100D01*
X016880Y014460D02*
X016390Y014460D01*
X016390Y013920D02*
X016880Y013920D01*
X011540Y017700D02*
X008440Y017700D01*
X007840Y017100D01*
X007430Y017100D01*
X009300Y019100D02*
X008600Y019800D01*
X007330Y019800D01*
X008840Y019740D02*
X008840Y020900D01*
X007940Y021800D01*
X007330Y021800D01*
X008940Y022600D02*
X007740Y023800D01*
X007440Y023800D01*
X007330Y023800D01*
X008940Y022600D02*
X008960Y022580D01*
X008960Y019800D01*
X010160Y018600D01*
X011540Y018600D01*
X011540Y018300D02*
X010280Y018300D01*
X008840Y019740D01*
X009080Y019860D02*
X010040Y018900D01*
X011540Y018900D01*
X011540Y018000D02*
X010400Y018000D01*
X009300Y019100D01*
X009080Y019860D02*
X009080Y024340D01*
X009080Y024560D01*
X009040Y024600D01*
X007840Y025800D01*
X007330Y025800D01*
X017700Y029900D02*
X017990Y029900D01*
X020140Y032450D02*
X020140Y032780D01*
X020180Y032820D01*
X020180Y033480D01*
X020720Y034020D01*
X020720Y035220D01*
X021530Y036030D01*
X021890Y036030D01*
X022100Y036240D01*
X022350Y036240D01*
X022350Y036490D01*
X022640Y036780D01*
X025400Y039540D01*
X025820Y039960D01*
X031460Y039960D01*
X032120Y039300D01*
X032240Y039300D01*
X032340Y039400D01*
X032340Y039800D01*
X032040Y039200D02*
X032040Y039100D01*
X032340Y038800D01*
X032040Y039200D02*
X031400Y039840D01*
X025880Y039840D01*
X025460Y039420D01*
X022820Y036780D01*
X022640Y036600D01*
X022640Y035760D01*
X022580Y035700D01*
X022350Y035700D01*
X022100Y035700D01*
X021890Y035910D01*
X021590Y035910D01*
X020840Y035160D01*
X020840Y033960D01*
X020300Y033420D01*
X020300Y032820D01*
X020340Y032780D01*
X020340Y032450D01*
X020540Y032450D02*
X020540Y032760D01*
X020840Y033060D01*
X022520Y033060D01*
X022640Y033180D01*
X022640Y034020D01*
X022700Y034080D01*
X022930Y034080D01*
X023360Y034080D01*
X025160Y035880D01*
X027140Y037860D01*
X030800Y037860D01*
X031280Y037860D01*
X031340Y037920D01*
X031340Y038300D01*
X031280Y037740D02*
X027200Y037740D01*
X025220Y035760D01*
X023300Y033840D01*
X023300Y033660D01*
X023180Y033540D01*
X022930Y033540D01*
X022930Y033290D01*
X022580Y032940D01*
X020900Y032940D01*
X020740Y032780D01*
X020740Y032450D01*
X022350Y033540D02*
X022350Y034080D01*
X022350Y034620D01*
X022350Y035160D02*
X021920Y035160D01*
X022930Y035160D02*
X022930Y035700D01*
X022930Y036240D01*
X022930Y034620D02*
X023360Y034620D01*
X031340Y037300D02*
X031340Y037680D01*
X031280Y037740D01*
X023670Y018990D02*
X023720Y018940D01*
X023720Y018520D01*
X023670Y018990D02*
X023440Y018990D01*
D51*
X021240Y017990D02*
X021240Y017500D01*
X021240Y017990D02*
X021230Y018000D01*
X020650Y018000D02*
X020645Y017995D01*
X020640Y017995D01*
X020640Y017990D02*
X020650Y018000D01*
X020640Y017990D02*
X020640Y017500D01*
X015810Y014460D02*
X015070Y014460D01*
X015070Y013920D02*
X015810Y013920D01*
X014490Y013920D02*
X014180Y013920D01*
X014060Y014040D01*
X014060Y014460D01*
X014490Y014460D01*
X014180Y018520D02*
X014180Y018940D01*
X014240Y019000D01*
X014470Y019000D01*
X014690Y019000D01*
X015028Y019338D01*
X015309Y019338D01*
X015309Y019535D02*
X014925Y019535D01*
X014690Y019300D01*
X013880Y019300D01*
X013880Y019590D01*
X013890Y019600D01*
X013400Y019600D01*
X013880Y019300D02*
X013880Y019010D01*
X013890Y019000D01*
X014470Y019600D02*
X014601Y019731D01*
X015309Y019731D01*
X008620Y019240D02*
X006890Y019240D01*
X006750Y019380D01*
X006750Y019800D01*
X007330Y019800D02*
X007330Y020400D01*
X006750Y020400D02*
X005240Y020400D01*
X005240Y021400D02*
X005640Y021800D01*
X006750Y021800D01*
X007330Y021800D02*
X007330Y022400D01*
X006750Y022400D02*
X005240Y022400D01*
X005240Y023400D02*
X005640Y023800D01*
X006750Y023800D01*
X007330Y023910D02*
X007440Y023800D01*
X007330Y023910D02*
X007330Y024400D01*
X006750Y024400D02*
X005240Y024400D01*
X005240Y025400D02*
X005640Y025800D01*
X006750Y025800D01*
X007330Y025800D02*
X007330Y026400D01*
X006750Y026400D02*
X005240Y026400D01*
X006765Y017650D02*
X006850Y017565D01*
X006850Y017100D01*
X013940Y004900D02*
X013940Y004030D01*
X013950Y004020D01*
X017850Y004020D02*
X017860Y004030D01*
X017860Y004900D01*
X022360Y004900D02*
X022360Y004070D01*
X022410Y004020D01*
X026670Y004020D02*
X026670Y004890D01*
X026680Y004900D01*
X026830Y010390D02*
X027270Y010390D01*
X027380Y010500D01*
X029240Y010500D01*
X029540Y010800D01*
X029540Y012300D01*
X028940Y012900D01*
X027740Y012900D01*
X026540Y014100D01*
X026540Y015900D01*
X026840Y016200D01*
X029780Y016200D01*
X030140Y015840D01*
X030140Y015180D01*
X030440Y014880D01*
X031570Y014880D01*
X032780Y014880D01*
X032950Y015050D01*
X032950Y015300D01*
X033320Y014940D02*
X033320Y015720D01*
X033200Y015840D01*
X032950Y015840D01*
X032950Y016380D02*
X032960Y016390D01*
X032960Y016740D01*
X032370Y016380D02*
X031870Y016380D01*
X031870Y015840D02*
X032370Y015840D01*
X032370Y015300D02*
X031870Y015300D01*
X031290Y015300D02*
X031290Y015840D01*
X031290Y016380D01*
X031950Y017400D02*
X031950Y018000D01*
X032530Y018000D02*
X033640Y018000D01*
X034040Y018400D01*
X034040Y019400D02*
X032530Y019400D01*
X031950Y019400D02*
X031950Y020000D01*
X032530Y020000D02*
X033640Y020000D01*
X034040Y020400D01*
X034040Y021400D02*
X032530Y021400D01*
X031950Y021400D02*
X031950Y022000D01*
X032530Y022000D02*
X033640Y022000D01*
X034040Y022400D01*
X034040Y023400D02*
X032530Y023400D01*
X031950Y023400D02*
X031950Y024000D01*
X032515Y026150D02*
X032430Y026235D01*
X032430Y026700D01*
X025940Y029700D02*
X030380Y034140D01*
X029900Y034260D02*
X025328Y029688D01*
X024195Y029688D01*
X024195Y030003D02*
X025223Y030003D01*
X029540Y034320D01*
X029540Y034680D01*
X029900Y035100D02*
X029900Y034260D01*
X032340Y037800D02*
X031820Y038320D01*
X031820Y038760D01*
X031820Y038820D01*
X031340Y039300D01*
X030860Y038820D01*
X030330Y038820D01*
X030330Y039110D01*
X030320Y039120D01*
X030260Y039180D01*
X029240Y039180D01*
X028880Y038820D01*
X029300Y038820D02*
X029750Y038820D01*
X024620Y032340D02*
X024130Y032340D01*
X024130Y031800D01*
X024130Y031260D02*
X024620Y031260D01*
X024620Y030720D02*
X024532Y030632D01*
X024195Y030632D01*
X024195Y030317D02*
X024212Y030300D01*
X024620Y030300D01*
X024440Y029260D02*
X024440Y028600D01*
X023740Y028600D01*
X023660Y028680D01*
X021640Y030700D01*
X021290Y030700D01*
X021290Y031700D02*
X023020Y031700D01*
X023120Y031800D01*
X023550Y031800D01*
X023550Y031260D01*
X022740Y031900D02*
X023180Y032340D01*
X023550Y032340D01*
X022740Y031900D02*
X021290Y031900D01*
X020430Y027800D02*
X020440Y027790D01*
X020440Y027300D01*
X024440Y027400D02*
X024440Y026760D01*
X016930Y033540D02*
X016930Y034080D01*
X016930Y034620D01*
X016930Y035160D02*
X017360Y035160D01*
X016350Y035160D02*
X016350Y035700D01*
X016350Y036240D01*
X017420Y037440D02*
X016940Y037920D01*
X016940Y038700D01*
X017050Y038810D01*
X017300Y038810D01*
X017300Y038230D02*
X017300Y037920D01*
X017420Y037800D01*
X018240Y037800D01*
X018450Y037590D01*
X019140Y037590D01*
X019140Y038170D02*
X019740Y038170D01*
X020340Y038170D01*
X020340Y037590D02*
X021030Y037590D01*
X021240Y037800D01*
X022220Y037800D02*
X022220Y038290D01*
X022220Y038870D02*
X022230Y038880D01*
X022700Y038880D01*
X016350Y034620D02*
X015920Y034620D01*
X010400Y036780D02*
X010040Y036420D01*
X008900Y036420D01*
X008790Y036530D01*
X008790Y036780D01*
X008770Y036800D01*
X007940Y036800D01*
X007460Y037280D01*
X007460Y037780D01*
X006940Y038300D01*
X009370Y036780D02*
X009920Y036780D01*
X027210Y014440D02*
X027210Y014030D01*
X027440Y013800D01*
X030140Y013800D01*
X030860Y014520D01*
X032900Y014520D01*
X033320Y014940D01*
X034040Y017400D02*
X032530Y017400D01*
D52*
X026810Y007100D02*
X026810Y005830D01*
X026720Y005740D01*
X026680Y005700D01*
X026680Y004900D01*
X027880Y004900D02*
X028410Y004900D01*
X024130Y004900D02*
X023560Y004900D01*
X022360Y004900D02*
X022360Y007070D01*
X022330Y007100D01*
X019650Y004900D02*
X019060Y004900D01*
X017860Y004900D02*
X017860Y007090D01*
X017850Y007100D01*
X015690Y004900D02*
X015140Y004900D01*
X013940Y004900D02*
X013640Y004900D01*
X013370Y005170D01*
X013370Y007100D01*
X010400Y019240D02*
X010410Y019250D01*
X010410Y019780D01*
X010990Y019780D02*
X011360Y019780D01*
X011500Y019920D01*
X011500Y020720D01*
X012100Y020720D01*
X010300Y020720D02*
X009700Y020720D01*
X011240Y028600D02*
X011960Y028600D01*
X011970Y028610D01*
X011970Y029560D01*
X011970Y030100D02*
X010400Y030100D01*
X012550Y030100D02*
X012550Y029560D01*
X012920Y029560D01*
X013160Y029320D01*
X013160Y028600D01*
X013880Y028600D01*
X013160Y028600D02*
X013160Y028600D01*
D53*
X021240Y037800D02*
X021240Y037800D01*
X022220Y037800D01*
X031360Y018150D02*
X031290Y018080D01*
X031290Y016380D01*
X028940Y004020D02*
X028450Y004020D01*
X027870Y004020D02*
X027250Y004020D01*
X024680Y004020D02*
X024190Y004020D01*
X023610Y004020D02*
X022990Y004020D01*
X020120Y004020D02*
X019630Y004020D01*
X019050Y004020D02*
X018430Y004020D01*
X016220Y004020D02*
X015730Y004020D01*
X015150Y004020D02*
X014530Y004020D01*
D54*
X010170Y004000D02*
X010170Y004890D01*
X010160Y004900D01*
D55*
X008960Y004900D02*
X008640Y004900D01*
X008340Y005200D01*
X008340Y005890D01*
M02*
