G75*
%MOIN*%
%OFA0B0*%
%FSLAX24Y24*%
%IPPOS*%
%LPD*%
%AMOC8*
5,1,8,0,0,1.08239X$1,22.5*
%
%ADD10C,0.0930*%
%ADD11C,0.0600*%
%ADD12C,0.0550*%
%ADD13R,0.0660X0.0660*%
%ADD14C,0.0660*%
%ADD15C,0.3960*%
%ADD16R,0.0645X0.0645*%
%ADD17C,0.0645*%
%ADD18R,0.0900X0.0900*%
%ADD19C,0.0900*%
%ADD20OC8,0.0630*%
%ADD21C,0.0630*%
%ADD22OC8,0.0560*%
%ADD23C,0.0765*%
%ADD24R,0.0630X0.0630*%
%ADD25C,0.0250*%
%ADD26C,0.0300*%
%ADD27C,0.0220*%
%ADD28C,0.0160*%
%ADD29C,0.0320*%
%ADD30C,0.0500*%
D10*
X005640Y035000D03*
X005640Y041100D03*
X033640Y041100D03*
X033640Y035000D03*
D11*
X036440Y035440D03*
X036440Y036440D03*
X036440Y039660D03*
X036440Y040660D03*
X002840Y040660D03*
X002840Y039660D03*
X002840Y036440D03*
X002840Y035440D03*
D12*
X006940Y036300D03*
X006940Y037300D03*
X006940Y038300D03*
X006940Y039300D03*
X007940Y038800D03*
X007940Y037800D03*
X007940Y036800D03*
X007940Y039800D03*
X031340Y039300D03*
X031340Y038300D03*
X031340Y037300D03*
X031340Y036300D03*
X032340Y036800D03*
X032340Y037800D03*
X032340Y038800D03*
X032340Y039800D03*
X029310Y008100D03*
X028310Y008100D03*
X027810Y007100D03*
X026810Y007100D03*
X027310Y008100D03*
X028810Y007100D03*
X024830Y008100D03*
X023830Y008100D03*
X023330Y007100D03*
X024330Y007100D03*
X022830Y008100D03*
X022330Y007100D03*
X020350Y008100D03*
X019350Y008100D03*
X018850Y007100D03*
X019850Y007100D03*
X018350Y008100D03*
X017850Y007100D03*
X015870Y008100D03*
X014870Y008100D03*
X014370Y007100D03*
X015370Y007100D03*
X013870Y008100D03*
X013370Y007100D03*
D13*
X009140Y016720D03*
X029200Y015640D03*
D14*
X028200Y015640D03*
X027200Y015640D03*
X011140Y016720D03*
X010140Y016720D03*
D15*
X006845Y012057D03*
X006845Y031743D03*
X032435Y031743D03*
X032435Y012057D03*
D16*
X034040Y026400D03*
X005240Y017400D03*
D17*
X005240Y018400D03*
X005240Y019400D03*
X005240Y020400D03*
X005240Y021400D03*
X005240Y022400D03*
X005240Y023400D03*
X005240Y024400D03*
X005240Y025400D03*
X005240Y026400D03*
X034040Y025400D03*
X034040Y024400D03*
X034040Y023400D03*
X034040Y022400D03*
X034040Y021400D03*
X034040Y020400D03*
X034040Y019400D03*
X034040Y018400D03*
X034040Y017400D03*
D18*
X008340Y005890D03*
D19*
X006490Y004710D03*
X008340Y003530D03*
D20*
X011240Y010160D03*
D21*
X009840Y010160D03*
X024340Y014040D03*
D22*
X027840Y018400D03*
X027840Y019400D03*
X027840Y020400D03*
X027840Y021400D03*
X027840Y022400D03*
X028840Y022400D03*
X028840Y021400D03*
X028840Y020400D03*
X028840Y019400D03*
X028840Y018400D03*
X028840Y023400D03*
X028840Y024400D03*
X028840Y025400D03*
X027840Y025400D03*
X027840Y024400D03*
X027840Y023400D03*
D23*
X011330Y007260D03*
X005390Y007260D03*
D24*
X023340Y014040D03*
D25*
X021240Y010700D03*
X019760Y014200D03*
X019160Y014200D03*
X016840Y010700D03*
X014060Y014460D03*
X014490Y017920D03*
X014180Y018520D03*
X013510Y017910D03*
X013400Y019600D03*
X014180Y020080D03*
X011040Y022900D03*
X011040Y026300D03*
X015680Y030520D03*
X015680Y032320D03*
X015920Y034620D03*
X017360Y035160D03*
X018940Y031840D03*
X021920Y035160D03*
X023360Y034620D03*
X024620Y032340D03*
X021640Y039800D03*
X009920Y036780D03*
X008620Y019240D03*
X012240Y010700D03*
X016220Y004020D03*
X020120Y004020D03*
X024680Y004020D03*
X028940Y004020D03*
X025740Y010700D03*
X021240Y017500D03*
X020640Y017500D03*
X019620Y018100D03*
D26*
X012100Y020720D03*
X010400Y019240D03*
X009700Y020720D03*
X007930Y017640D03*
X011240Y028600D03*
X010400Y030100D03*
X013340Y031500D03*
X013880Y028600D03*
X019740Y038700D03*
X020360Y039180D03*
X019160Y039180D03*
X024440Y029260D03*
X024440Y026760D03*
X031360Y026150D03*
X031360Y018150D03*
D27*
X032960Y016740D03*
X024440Y019000D03*
X024440Y019600D03*
X023720Y020290D03*
X023440Y020060D03*
X023720Y018520D03*
X022460Y017640D03*
X023000Y017100D03*
X023430Y022360D03*
X024020Y022360D03*
X024440Y023440D03*
X024440Y025060D03*
X024440Y026140D03*
X022880Y026140D03*
X022880Y026680D03*
X022880Y027220D03*
X022880Y027760D03*
X022880Y028300D03*
X022880Y028840D03*
X024620Y030300D03*
X024620Y030720D03*
X024620Y031260D03*
X025940Y029700D03*
X029540Y034680D03*
X029900Y035100D03*
X030380Y034140D03*
X029300Y038820D03*
X028880Y038820D03*
X022700Y038880D03*
X022220Y037800D03*
X017420Y037440D03*
X010400Y036780D03*
X015440Y028400D03*
X015140Y028100D03*
X015740Y027500D03*
X016040Y027800D03*
X016340Y026860D03*
X016940Y026860D03*
X017120Y028060D03*
X017720Y028060D03*
X018500Y026260D03*
X019580Y026260D03*
X019880Y025900D03*
X020420Y025900D03*
X020480Y026320D03*
X020440Y027300D03*
X019900Y027290D03*
X021320Y024340D03*
X020420Y023440D03*
X018360Y024040D03*
X018160Y024270D03*
X017960Y024040D03*
X017770Y024270D03*
X017570Y024040D03*
X017380Y024270D03*
X017180Y024040D03*
X016980Y024270D03*
X018380Y021760D03*
X018080Y021460D03*
X015860Y018220D03*
X014780Y018220D03*
X012440Y018300D03*
X012440Y018000D03*
X012440Y017700D03*
X012440Y018600D03*
X012440Y018900D03*
X011540Y018900D03*
X011540Y018600D03*
X011540Y018300D03*
X011540Y018000D03*
X011540Y017700D03*
X016880Y014460D03*
X016880Y013920D03*
D28*
X005845Y004465D02*
X004414Y004465D01*
X004256Y004623D02*
X005800Y004623D01*
X005800Y004573D02*
X005800Y004847D01*
X005905Y005101D01*
X006099Y005295D01*
X006353Y005400D01*
X006627Y005400D01*
X006881Y005295D01*
X007075Y005101D01*
X007180Y004847D01*
X007180Y004573D01*
X007075Y004319D01*
X006881Y004125D01*
X006627Y004020D01*
X006353Y004020D01*
X006099Y004125D01*
X005905Y004319D01*
X005800Y004573D01*
X005800Y004782D02*
X004097Y004782D01*
X003939Y004940D02*
X005839Y004940D01*
X005904Y005099D02*
X003780Y005099D01*
X003622Y005257D02*
X006062Y005257D01*
X006918Y005257D02*
X007733Y005257D01*
X007754Y005237D02*
X007842Y005200D01*
X008838Y005200D01*
X008926Y005237D01*
X008993Y005304D01*
X009030Y005392D01*
X009030Y006388D01*
X008993Y006476D01*
X008926Y006543D01*
X008838Y006580D01*
X008704Y006580D01*
X008791Y006616D01*
X009004Y006829D01*
X009120Y007109D01*
X009120Y007411D01*
X009004Y007691D01*
X008791Y007904D01*
X008511Y008020D01*
X008209Y008020D01*
X007929Y007904D01*
X007716Y007691D01*
X007600Y007411D01*
X007600Y007109D01*
X007716Y006829D01*
X007929Y006616D01*
X008016Y006580D01*
X007842Y006580D01*
X007754Y006543D01*
X007687Y006476D01*
X007650Y006388D01*
X007650Y005392D01*
X007687Y005304D01*
X007754Y005237D01*
X007650Y005416D02*
X003463Y005416D01*
X003305Y005574D02*
X007650Y005574D01*
X007650Y005733D02*
X003146Y005733D01*
X002988Y005891D02*
X007650Y005891D01*
X007650Y006050D02*
X002829Y006050D01*
X002671Y006208D02*
X007650Y006208D01*
X007650Y006367D02*
X002512Y006367D01*
X002354Y006525D02*
X007736Y006525D01*
X007861Y006684D02*
X002195Y006684D01*
X002037Y006842D02*
X005012Y006842D01*
X005024Y006831D02*
X005095Y006779D01*
X005174Y006739D01*
X005258Y006711D01*
X005342Y006698D01*
X005342Y007212D01*
X005438Y007212D01*
X005438Y007308D01*
X005952Y007308D01*
X005939Y007392D01*
X005911Y007476D01*
X005871Y007555D01*
X005819Y007626D01*
X005756Y007689D01*
X005685Y007741D01*
X005606Y007781D01*
X005522Y007809D01*
X005438Y007822D01*
X005438Y007308D01*
X005342Y007308D01*
X005342Y007822D01*
X005258Y007809D01*
X005174Y007781D01*
X005095Y007741D01*
X005024Y007689D01*
X004961Y007626D01*
X004909Y007555D01*
X004869Y007476D01*
X004841Y007392D01*
X004828Y007308D01*
X005342Y007308D01*
X005342Y007212D01*
X004828Y007212D01*
X004841Y007128D01*
X004869Y007044D01*
X004909Y006965D01*
X004961Y006894D01*
X005024Y006831D01*
X004891Y007001D02*
X001880Y007001D01*
X001880Y006999D02*
X001880Y028300D01*
X009910Y028300D01*
X009910Y026223D01*
X009910Y021055D01*
X009778Y021110D01*
X009622Y021110D01*
X009479Y021051D01*
X009369Y020941D01*
X009310Y020798D01*
X009310Y020642D01*
X009369Y020499D01*
X009479Y020389D01*
X009622Y020330D01*
X009778Y020330D01*
X009910Y020385D01*
X009910Y017363D01*
X009953Y017259D01*
X009817Y017203D01*
X009657Y017043D01*
X009650Y017027D01*
X009650Y017074D01*
X009638Y017119D01*
X009614Y017161D01*
X009581Y017194D01*
X009539Y017218D01*
X009494Y017230D01*
X009160Y017230D01*
X009160Y016740D01*
X009120Y016740D01*
X009120Y017230D01*
X008786Y017230D01*
X008741Y017218D01*
X008699Y017194D01*
X008666Y017161D01*
X008642Y017119D01*
X008630Y017074D01*
X008630Y016740D01*
X009120Y016740D01*
X009120Y016700D01*
X009160Y016700D01*
X009160Y016210D01*
X009494Y016210D01*
X009539Y016222D01*
X009581Y016246D01*
X009614Y016279D01*
X009638Y016321D01*
X009650Y016366D01*
X009650Y016413D01*
X009657Y016397D01*
X009817Y016237D01*
X010027Y016150D01*
X010253Y016150D01*
X010463Y016237D01*
X010520Y016294D01*
X010520Y006520D01*
X031340Y006520D01*
X031340Y010126D01*
X031578Y009989D01*
X032143Y009837D01*
X032728Y009837D01*
X033292Y009989D01*
X033798Y010281D01*
X034212Y010694D01*
X034504Y011201D01*
X034655Y011765D01*
X034655Y012350D01*
X034504Y012914D01*
X034212Y013421D01*
X033798Y013834D01*
X033292Y014126D01*
X032728Y014277D01*
X032143Y014277D01*
X031578Y014126D01*
X031340Y013989D01*
X031340Y017760D01*
X031438Y017760D01*
X031581Y017819D01*
X031691Y017929D01*
X031750Y018072D01*
X031750Y018228D01*
X031691Y018371D01*
X031581Y018481D01*
X031438Y018540D01*
X031340Y018540D01*
X031340Y025760D01*
X031438Y025760D01*
X031581Y025819D01*
X031691Y025929D01*
X031750Y026072D01*
X031750Y026228D01*
X031691Y026371D01*
X031581Y026481D01*
X031438Y026540D01*
X031340Y026540D01*
X031340Y027700D01*
X036500Y027700D01*
X036500Y006940D01*
X031700Y002140D01*
X006739Y002140D01*
X001880Y006999D01*
X001880Y007159D02*
X004836Y007159D01*
X004830Y007318D02*
X001880Y007318D01*
X001880Y007476D02*
X004869Y007476D01*
X004969Y007635D02*
X001880Y007635D01*
X001880Y007793D02*
X005212Y007793D01*
X005342Y007793D02*
X005438Y007793D01*
X005568Y007793D02*
X007819Y007793D01*
X007693Y007635D02*
X005811Y007635D01*
X005911Y007476D02*
X007627Y007476D01*
X007600Y007318D02*
X005950Y007318D01*
X005952Y007212D02*
X005438Y007212D01*
X005438Y006698D01*
X005522Y006711D01*
X005606Y006739D01*
X005685Y006779D01*
X005756Y006831D01*
X005819Y006894D01*
X005871Y006965D01*
X005911Y007044D01*
X005939Y007128D01*
X005952Y007212D01*
X005944Y007159D02*
X007600Y007159D01*
X007645Y007001D02*
X005889Y007001D01*
X005768Y006842D02*
X007710Y006842D01*
X008045Y007952D02*
X001880Y007952D01*
X001880Y008110D02*
X010520Y008110D01*
X010520Y007952D02*
X008675Y007952D01*
X008901Y007793D02*
X010520Y007793D01*
X010520Y007635D02*
X009027Y007635D01*
X009093Y007476D02*
X010520Y007476D01*
X010520Y007318D02*
X009120Y007318D01*
X009120Y007159D02*
X010520Y007159D01*
X010520Y007001D02*
X009075Y007001D01*
X009010Y006842D02*
X010520Y006842D01*
X010520Y006684D02*
X008859Y006684D01*
X008944Y006525D02*
X010520Y006525D01*
X009030Y006367D02*
X035927Y006367D01*
X036085Y006525D02*
X031340Y006525D01*
X031340Y006684D02*
X036244Y006684D01*
X036402Y006842D02*
X031340Y006842D01*
X031340Y007001D02*
X036500Y007001D01*
X036500Y007159D02*
X031340Y007159D01*
X031340Y007318D02*
X036500Y007318D01*
X036500Y007476D02*
X031340Y007476D01*
X031340Y007635D02*
X036500Y007635D01*
X036500Y007793D02*
X031340Y007793D01*
X031340Y007952D02*
X036500Y007952D01*
X036500Y008110D02*
X031340Y008110D01*
X031340Y008269D02*
X036500Y008269D01*
X036500Y008427D02*
X031340Y008427D01*
X031340Y008586D02*
X036500Y008586D01*
X036500Y008744D02*
X031340Y008744D01*
X031340Y008903D02*
X036500Y008903D01*
X036500Y009061D02*
X031340Y009061D01*
X031340Y009220D02*
X036500Y009220D01*
X036500Y009378D02*
X031340Y009378D01*
X031340Y009537D02*
X036500Y009537D01*
X036500Y009695D02*
X031340Y009695D01*
X031340Y009854D02*
X032081Y009854D01*
X031537Y010012D02*
X031340Y010012D01*
X032789Y009854D02*
X036500Y009854D01*
X036500Y010012D02*
X033333Y010012D01*
X033608Y010171D02*
X036500Y010171D01*
X036500Y010329D02*
X033847Y010329D01*
X034005Y010488D02*
X036500Y010488D01*
X036500Y010646D02*
X034164Y010646D01*
X034276Y010805D02*
X036500Y010805D01*
X036500Y010963D02*
X034367Y010963D01*
X034459Y011122D02*
X036500Y011122D01*
X036500Y011280D02*
X034525Y011280D01*
X034568Y011439D02*
X036500Y011439D01*
X036500Y011597D02*
X034610Y011597D01*
X034653Y011756D02*
X036500Y011756D01*
X036500Y011914D02*
X034655Y011914D01*
X034655Y012073D02*
X036500Y012073D01*
X036500Y012231D02*
X034655Y012231D01*
X034644Y012390D02*
X036500Y012390D01*
X036500Y012548D02*
X034602Y012548D01*
X034560Y012707D02*
X036500Y012707D01*
X036500Y012865D02*
X034517Y012865D01*
X034441Y013024D02*
X036500Y013024D01*
X036500Y013182D02*
X034349Y013182D01*
X034258Y013341D02*
X036500Y013341D01*
X036500Y013499D02*
X034133Y013499D01*
X033974Y013658D02*
X036500Y013658D01*
X036500Y013816D02*
X033816Y013816D01*
X033554Y013975D02*
X036500Y013975D01*
X036500Y014133D02*
X033265Y014133D01*
X031606Y014133D02*
X031340Y014133D01*
X031340Y014292D02*
X036500Y014292D01*
X036500Y014450D02*
X031340Y014450D01*
X031340Y014609D02*
X036500Y014609D01*
X036500Y014767D02*
X031340Y014767D01*
X031340Y014926D02*
X036500Y014926D01*
X036500Y015084D02*
X031340Y015084D01*
X031340Y015243D02*
X036500Y015243D01*
X036500Y015401D02*
X031340Y015401D01*
X031340Y015560D02*
X036500Y015560D01*
X036500Y015718D02*
X031340Y015718D01*
X031340Y015877D02*
X036500Y015877D01*
X036500Y016035D02*
X031340Y016035D01*
X031340Y016194D02*
X036500Y016194D01*
X036500Y016352D02*
X031340Y016352D01*
X031340Y016511D02*
X036500Y016511D01*
X036500Y016669D02*
X031340Y016669D01*
X031340Y016828D02*
X036500Y016828D01*
X036500Y016986D02*
X034422Y016986D01*
X034359Y016923D02*
X034517Y017081D01*
X034602Y017288D01*
X034602Y017512D01*
X034517Y017719D01*
X034359Y017877D01*
X034303Y017900D01*
X034359Y017923D01*
X034517Y018081D01*
X034602Y018288D01*
X034602Y018512D01*
X034517Y018719D01*
X034359Y018877D01*
X034303Y018900D01*
X034359Y018923D01*
X034517Y019081D01*
X034602Y019288D01*
X034602Y019512D01*
X034517Y019719D01*
X034359Y019877D01*
X034303Y019900D01*
X034359Y019923D01*
X034517Y020081D01*
X034602Y020288D01*
X034602Y020512D01*
X034517Y020719D01*
X034359Y020877D01*
X034303Y020900D01*
X034359Y020923D01*
X034517Y021081D01*
X034602Y021288D01*
X034602Y021512D01*
X034517Y021719D01*
X034359Y021877D01*
X034303Y021900D01*
X036500Y021900D01*
X036500Y021741D02*
X034494Y021741D01*
X034573Y021583D02*
X036500Y021583D01*
X036500Y021424D02*
X034602Y021424D01*
X034593Y021266D02*
X036500Y021266D01*
X036500Y021107D02*
X034528Y021107D01*
X034384Y020949D02*
X036500Y020949D01*
X036500Y020790D02*
X034445Y020790D01*
X034553Y020632D02*
X036500Y020632D01*
X036500Y020473D02*
X034602Y020473D01*
X034602Y020315D02*
X036500Y020315D01*
X036500Y020156D02*
X034548Y020156D01*
X034433Y019998D02*
X036500Y019998D01*
X036500Y019839D02*
X034396Y019839D01*
X034532Y019681D02*
X036500Y019681D01*
X036500Y019522D02*
X034598Y019522D01*
X034602Y019364D02*
X036500Y019364D01*
X036500Y019205D02*
X034568Y019205D01*
X034482Y019047D02*
X036500Y019047D01*
X036500Y018888D02*
X034331Y018888D01*
X034505Y018730D02*
X036500Y018730D01*
X036500Y018571D02*
X034578Y018571D01*
X034602Y018413D02*
X036500Y018413D01*
X036500Y018254D02*
X034589Y018254D01*
X034523Y018096D02*
X036500Y018096D01*
X036500Y017937D02*
X034373Y017937D01*
X034456Y017779D02*
X036500Y017779D01*
X036500Y017620D02*
X034558Y017620D01*
X034602Y017462D02*
X036500Y017462D01*
X036500Y017303D02*
X034602Y017303D01*
X034543Y017145D02*
X036500Y017145D01*
X034359Y016923D02*
X034152Y016838D01*
X033928Y016838D01*
X033721Y016923D01*
X033563Y017081D01*
X033478Y017288D01*
X033478Y017512D01*
X033563Y017719D01*
X033721Y017877D01*
X033777Y017900D01*
X033721Y017923D01*
X033563Y018081D01*
X033478Y018288D01*
X033478Y018512D01*
X033563Y018719D01*
X033721Y018877D01*
X033777Y018900D01*
X033721Y018923D01*
X033563Y019081D01*
X033478Y019288D01*
X033478Y019512D01*
X033563Y019719D01*
X033721Y019877D01*
X033777Y019900D01*
X033721Y019923D01*
X033563Y020081D01*
X033478Y020288D01*
X033478Y020512D01*
X033563Y020719D01*
X033721Y020877D01*
X033777Y020900D01*
X033721Y020923D01*
X033563Y021081D01*
X033478Y021288D01*
X033478Y021512D01*
X033563Y021719D01*
X033721Y021877D01*
X033777Y021900D01*
X031340Y021900D01*
X031340Y021741D02*
X033586Y021741D01*
X033507Y021583D02*
X031340Y021583D01*
X031340Y021424D02*
X033478Y021424D01*
X033487Y021266D02*
X031340Y021266D01*
X031340Y021107D02*
X033552Y021107D01*
X033696Y020949D02*
X031340Y020949D01*
X031340Y020790D02*
X033635Y020790D01*
X033527Y020632D02*
X031340Y020632D01*
X031340Y020473D02*
X033478Y020473D01*
X033478Y020315D02*
X031340Y020315D01*
X031340Y020156D02*
X033532Y020156D01*
X033647Y019998D02*
X031340Y019998D01*
X031340Y019839D02*
X033684Y019839D01*
X033548Y019681D02*
X031340Y019681D01*
X031340Y019522D02*
X033482Y019522D01*
X033478Y019364D02*
X031340Y019364D01*
X031340Y019205D02*
X033512Y019205D01*
X033598Y019047D02*
X031340Y019047D01*
X031340Y018888D02*
X033749Y018888D01*
X033575Y018730D02*
X031340Y018730D01*
X031340Y018571D02*
X033502Y018571D01*
X033478Y018413D02*
X031649Y018413D01*
X031739Y018254D02*
X033491Y018254D01*
X033557Y018096D02*
X031750Y018096D01*
X031694Y017937D02*
X033707Y017937D01*
X033623Y017779D02*
X031483Y017779D01*
X031340Y017620D02*
X033522Y017620D01*
X033478Y017462D02*
X031340Y017462D01*
X031340Y017303D02*
X033478Y017303D01*
X033537Y017145D02*
X031340Y017145D01*
X031340Y016986D02*
X033658Y016986D01*
X033777Y021900D02*
X033721Y021923D01*
X033563Y022081D01*
X033478Y022288D01*
X033478Y022512D01*
X033563Y022719D01*
X033721Y022877D01*
X033777Y022900D01*
X033721Y022923D01*
X033563Y023081D01*
X033478Y023288D01*
X033478Y023512D01*
X033563Y023719D01*
X033721Y023877D01*
X033777Y023900D01*
X033721Y023923D01*
X033563Y024081D01*
X033478Y024288D01*
X033478Y024512D01*
X033563Y024719D01*
X033721Y024877D01*
X033777Y024900D01*
X033721Y024923D01*
X033563Y025081D01*
X033478Y025288D01*
X033478Y025512D01*
X033563Y025719D01*
X033721Y025877D01*
X033771Y025898D01*
X033694Y025898D01*
X033648Y025910D01*
X033607Y025933D01*
X033573Y025967D01*
X033550Y026008D01*
X033538Y026054D01*
X033537Y026372D01*
X034012Y026372D01*
X034012Y026428D01*
X034012Y026902D01*
X033694Y026902D01*
X033648Y026890D01*
X033607Y026867D01*
X033573Y026833D01*
X033550Y026792D01*
X033538Y026746D01*
X033538Y026428D01*
X034012Y026428D01*
X034068Y026428D01*
X034068Y026902D01*
X034386Y026902D01*
X034432Y026890D01*
X034473Y026867D01*
X034507Y026833D01*
X034530Y026792D01*
X034542Y026746D01*
X034542Y026428D01*
X034068Y026428D01*
X034068Y026372D01*
X034542Y026372D01*
X034542Y026054D01*
X034530Y026008D01*
X034507Y025967D01*
X034473Y025933D01*
X034432Y025910D01*
X034386Y025898D01*
X034309Y025898D01*
X034359Y025877D01*
X034517Y025719D01*
X034602Y025512D01*
X034602Y025288D01*
X034517Y025081D01*
X034359Y024923D01*
X034303Y024900D01*
X034359Y024877D01*
X034517Y024719D01*
X034602Y024512D01*
X034602Y024288D01*
X034517Y024081D01*
X034359Y023923D01*
X034303Y023900D01*
X034359Y023877D01*
X034517Y023719D01*
X034602Y023512D01*
X034602Y023288D01*
X034517Y023081D01*
X034359Y022923D01*
X034303Y022900D01*
X034359Y022877D01*
X034517Y022719D01*
X034602Y022512D01*
X034602Y022288D01*
X034517Y022081D01*
X034359Y021923D01*
X034303Y021900D01*
X034494Y022059D02*
X036500Y022059D01*
X036500Y022217D02*
X034573Y022217D01*
X034602Y022376D02*
X036500Y022376D01*
X036500Y022534D02*
X034593Y022534D01*
X034528Y022693D02*
X036500Y022693D01*
X036500Y022851D02*
X034384Y022851D01*
X034445Y023010D02*
X036500Y023010D01*
X036500Y023168D02*
X034553Y023168D01*
X034602Y023327D02*
X036500Y023327D01*
X036500Y023485D02*
X034602Y023485D01*
X034548Y023644D02*
X036500Y023644D01*
X036500Y023802D02*
X034433Y023802D01*
X034396Y023961D02*
X036500Y023961D01*
X036500Y024119D02*
X034532Y024119D01*
X034598Y024278D02*
X036500Y024278D01*
X036500Y024436D02*
X034602Y024436D01*
X034568Y024595D02*
X036500Y024595D01*
X036500Y024753D02*
X034482Y024753D01*
X034331Y024912D02*
X036500Y024912D01*
X036500Y025070D02*
X034505Y025070D01*
X034578Y025229D02*
X036500Y025229D01*
X036500Y025387D02*
X034602Y025387D01*
X034589Y025546D02*
X036500Y025546D01*
X036500Y025704D02*
X034523Y025704D01*
X034373Y025863D02*
X036500Y025863D01*
X036500Y026021D02*
X034534Y026021D01*
X034542Y026180D02*
X036500Y026180D01*
X036500Y026338D02*
X034542Y026338D01*
X034542Y026497D02*
X036500Y026497D01*
X036500Y026655D02*
X034542Y026655D01*
X034518Y026814D02*
X036500Y026814D01*
X036500Y026972D02*
X031340Y026972D01*
X031340Y026814D02*
X033562Y026814D01*
X033538Y026655D02*
X031340Y026655D01*
X031543Y026497D02*
X033538Y026497D01*
X033537Y026338D02*
X031704Y026338D01*
X031750Y026180D02*
X033537Y026180D01*
X033546Y026021D02*
X031729Y026021D01*
X031624Y025863D02*
X033707Y025863D01*
X033557Y025704D02*
X031340Y025704D01*
X031340Y025546D02*
X033491Y025546D01*
X033478Y025387D02*
X031340Y025387D01*
X031340Y025229D02*
X033502Y025229D01*
X033574Y025070D02*
X031340Y025070D01*
X031340Y024912D02*
X033749Y024912D01*
X033598Y024753D02*
X031340Y024753D01*
X031340Y024595D02*
X033512Y024595D01*
X033478Y024436D02*
X031340Y024436D01*
X031340Y024278D02*
X033482Y024278D01*
X033548Y024119D02*
X031340Y024119D01*
X031340Y023961D02*
X033684Y023961D01*
X033647Y023802D02*
X031340Y023802D01*
X031340Y023644D02*
X033532Y023644D01*
X033478Y023485D02*
X031340Y023485D01*
X031340Y023327D02*
X033478Y023327D01*
X033527Y023168D02*
X031340Y023168D01*
X031340Y023010D02*
X033635Y023010D01*
X033696Y022851D02*
X031340Y022851D01*
X031340Y022693D02*
X033552Y022693D01*
X033487Y022534D02*
X031340Y022534D01*
X031340Y022376D02*
X033478Y022376D01*
X033507Y022217D02*
X031340Y022217D01*
X031340Y022059D02*
X033586Y022059D01*
X034012Y026497D02*
X034068Y026497D01*
X034068Y026655D02*
X034012Y026655D01*
X034012Y026814D02*
X034068Y026814D01*
X036500Y027131D02*
X031340Y027131D01*
X031340Y027289D02*
X036500Y027289D01*
X036500Y027448D02*
X031340Y027448D01*
X031340Y027606D02*
X036500Y027606D01*
X026300Y027606D02*
X016171Y027606D01*
X016135Y027570D02*
X016270Y027705D01*
X016270Y027895D01*
X016135Y028030D01*
X015945Y028030D01*
X015810Y027895D01*
X015810Y027730D01*
X015645Y027730D01*
X015510Y027595D01*
X015510Y027405D01*
X015645Y027270D01*
X015835Y027270D01*
X015970Y027405D01*
X015970Y027570D01*
X016135Y027570D01*
X015970Y027448D02*
X019732Y027448D01*
X019670Y027385D02*
X019670Y027195D01*
X019805Y027060D01*
X019995Y027060D01*
X020130Y027195D01*
X020130Y027385D01*
X019995Y027520D01*
X019805Y027520D01*
X019670Y027385D01*
X019670Y027289D02*
X015854Y027289D01*
X015626Y027289D02*
X011660Y027289D01*
X011660Y027131D02*
X016261Y027131D01*
X016284Y027140D02*
X016181Y027097D01*
X016103Y027019D01*
X016060Y026916D01*
X016060Y026500D01*
X011660Y026500D01*
X011660Y032500D01*
X015514Y032500D01*
X015472Y032459D01*
X015435Y032369D01*
X015435Y032271D01*
X015472Y032181D01*
X015541Y032112D01*
X015631Y032075D01*
X015729Y032075D01*
X015819Y032112D01*
X015888Y032181D01*
X015925Y032271D01*
X015925Y032369D01*
X015888Y032459D01*
X015846Y032500D01*
X024434Y032500D01*
X024412Y032479D01*
X024375Y032389D01*
X024375Y032291D01*
X024412Y032201D01*
X024481Y032132D01*
X024571Y032095D01*
X024669Y032095D01*
X024759Y032132D01*
X024828Y032201D01*
X024865Y032291D01*
X024865Y032389D01*
X024828Y032479D01*
X024806Y032500D01*
X026300Y032500D01*
X026300Y026500D01*
X024518Y026500D01*
X024593Y026531D01*
X024669Y026607D01*
X024710Y026706D01*
X024710Y026814D01*
X024669Y026913D01*
X024593Y026989D01*
X024494Y027030D01*
X024386Y027030D01*
X024287Y026989D01*
X024211Y026913D01*
X024170Y026814D01*
X024170Y026706D01*
X024211Y026607D01*
X024287Y026531D01*
X024362Y026500D01*
X020625Y026500D01*
X020575Y026550D01*
X020385Y026550D01*
X020335Y026500D01*
X016620Y026500D01*
X016620Y026916D01*
X016577Y027019D01*
X016499Y027097D01*
X016396Y027140D01*
X016284Y027140D01*
X016419Y027131D02*
X019734Y027131D01*
X020066Y027131D02*
X020284Y027131D01*
X020345Y027070D02*
X020535Y027070D01*
X020670Y027205D01*
X020670Y027395D01*
X020535Y027530D01*
X020345Y027530D01*
X020210Y027395D01*
X020210Y027205D01*
X020345Y027070D01*
X020210Y027289D02*
X020130Y027289D01*
X020068Y027448D02*
X020262Y027448D01*
X020618Y027448D02*
X026300Y027448D01*
X026300Y027289D02*
X020670Y027289D01*
X020596Y027131D02*
X026300Y027131D01*
X026300Y026972D02*
X024610Y026972D01*
X024710Y026814D02*
X026300Y026814D01*
X026300Y026655D02*
X024689Y026655D01*
X024191Y026655D02*
X017060Y026655D01*
X017035Y026630D02*
X017170Y026765D01*
X017170Y026955D01*
X017035Y027090D01*
X016845Y027090D01*
X016710Y026955D01*
X016710Y026765D01*
X016845Y026630D01*
X017035Y026630D01*
X016820Y026655D02*
X016620Y026655D01*
X016620Y026814D02*
X016710Y026814D01*
X016727Y026972D02*
X016597Y026972D01*
X016083Y026972D02*
X011660Y026972D01*
X011660Y026814D02*
X016060Y026814D01*
X016060Y026655D02*
X011660Y026655D01*
X011660Y026200D02*
X018270Y026200D01*
X018270Y026165D01*
X018405Y026030D01*
X018595Y026030D01*
X018730Y026165D01*
X018730Y026200D01*
X019350Y026200D01*
X019350Y026165D01*
X019485Y026030D01*
X019675Y026030D01*
X019810Y026165D01*
X019810Y026200D01*
X020275Y026200D01*
X020345Y026130D01*
X020325Y026130D01*
X020190Y025995D01*
X020190Y025805D01*
X020325Y025670D01*
X020515Y025670D01*
X020650Y025805D01*
X020650Y025995D01*
X020555Y026090D01*
X020575Y026090D01*
X020685Y026200D01*
X022650Y026200D01*
X022650Y026045D01*
X022785Y025910D01*
X022975Y025910D01*
X023110Y026045D01*
X023110Y026200D01*
X026300Y026200D01*
X026300Y015263D01*
X025447Y014410D01*
X024583Y014410D01*
X024427Y014475D01*
X024253Y014475D01*
X024094Y014409D01*
X023971Y014286D01*
X023905Y014127D01*
X023905Y013953D01*
X023927Y013900D01*
X023775Y013900D01*
X023775Y014405D01*
X023705Y014475D01*
X022975Y014475D01*
X022905Y014405D01*
X022905Y013900D01*
X017110Y013900D01*
X017110Y014015D01*
X016975Y014150D01*
X016785Y014150D01*
X016650Y014015D01*
X016650Y013900D01*
X011660Y013900D01*
X011660Y017495D01*
X011770Y017605D01*
X011770Y017795D01*
X011715Y017850D01*
X011770Y017905D01*
X011770Y018095D01*
X011715Y018150D01*
X011770Y018205D01*
X011770Y018395D01*
X011715Y018450D01*
X011770Y018505D01*
X011770Y018695D01*
X011715Y018750D01*
X011770Y018805D01*
X011770Y018995D01*
X011660Y019105D01*
X011660Y026200D01*
X011660Y026180D02*
X018270Y026180D01*
X018730Y026180D02*
X019350Y026180D01*
X019810Y026180D02*
X020295Y026180D01*
X020216Y026021D02*
X011660Y026021D01*
X011660Y025863D02*
X020190Y025863D01*
X020291Y025704D02*
X011660Y025704D01*
X011660Y025546D02*
X026300Y025546D01*
X026300Y025704D02*
X020549Y025704D01*
X020650Y025863D02*
X026300Y025863D01*
X026300Y026021D02*
X023086Y026021D01*
X023110Y026180D02*
X026300Y026180D01*
X026300Y025387D02*
X011660Y025387D01*
X011660Y025229D02*
X024283Y025229D01*
X024345Y025290D02*
X024210Y025155D01*
X024210Y024965D01*
X024345Y024830D01*
X024535Y024830D01*
X024670Y024965D01*
X024670Y025155D01*
X024535Y025290D01*
X024345Y025290D01*
X024210Y025070D02*
X011660Y025070D01*
X011660Y024912D02*
X024263Y024912D01*
X024617Y024912D02*
X026300Y024912D01*
X026300Y025070D02*
X024670Y025070D01*
X024597Y025229D02*
X026300Y025229D01*
X026300Y024753D02*
X011660Y024753D01*
X011660Y024595D02*
X026300Y024595D01*
X026300Y024436D02*
X021549Y024436D01*
X021550Y024435D02*
X021415Y024570D01*
X021225Y024570D01*
X021090Y024435D01*
X021090Y024245D01*
X021225Y024110D01*
X021415Y024110D01*
X021550Y024245D01*
X021550Y024435D01*
X021550Y024278D02*
X026300Y024278D01*
X026300Y024119D02*
X021424Y024119D01*
X021216Y024119D02*
X018590Y024119D01*
X018590Y024135D02*
X018455Y024270D01*
X018390Y024270D01*
X018390Y024365D01*
X018255Y024500D01*
X018065Y024500D01*
X017965Y024400D01*
X017865Y024500D01*
X017675Y024500D01*
X017575Y024400D01*
X017475Y024500D01*
X017285Y024500D01*
X017180Y024395D01*
X017075Y024500D01*
X016885Y024500D01*
X016750Y024365D01*
X016750Y024175D01*
X016885Y024040D01*
X016950Y024040D01*
X016950Y023945D01*
X017085Y023810D01*
X017275Y023810D01*
X017375Y023910D01*
X017475Y023810D01*
X017665Y023810D01*
X017765Y023910D01*
X017865Y023810D01*
X018055Y023810D01*
X018160Y023915D01*
X018265Y023810D01*
X018455Y023810D01*
X018590Y023945D01*
X018590Y024135D01*
X018590Y023961D02*
X026300Y023961D01*
X026300Y023802D02*
X011660Y023802D01*
X011660Y023644D02*
X020298Y023644D01*
X020325Y023670D02*
X020190Y023535D01*
X020190Y023345D01*
X020325Y023210D01*
X020515Y023210D01*
X020650Y023345D01*
X020650Y023535D01*
X020515Y023670D01*
X020325Y023670D01*
X020542Y023644D02*
X024318Y023644D01*
X024345Y023670D02*
X024210Y023535D01*
X024210Y023345D01*
X024345Y023210D01*
X024535Y023210D01*
X024670Y023345D01*
X024670Y023535D01*
X024535Y023670D01*
X024345Y023670D01*
X024562Y023644D02*
X026300Y023644D01*
X026300Y023485D02*
X024670Y023485D01*
X024652Y023327D02*
X026300Y023327D01*
X026300Y023168D02*
X011660Y023168D01*
X011660Y023010D02*
X026300Y023010D01*
X026300Y022851D02*
X011660Y022851D01*
X011660Y022693D02*
X026300Y022693D01*
X026300Y022534D02*
X024171Y022534D01*
X024115Y022590D02*
X024250Y022455D01*
X024250Y022265D01*
X024115Y022130D01*
X023925Y022130D01*
X023790Y022265D01*
X023790Y022455D01*
X023925Y022590D01*
X024115Y022590D01*
X023869Y022534D02*
X011660Y022534D01*
X011660Y022376D02*
X023790Y022376D01*
X023838Y022217D02*
X011660Y022217D01*
X011660Y022059D02*
X026300Y022059D01*
X026300Y022217D02*
X024202Y022217D01*
X024250Y022376D02*
X026300Y022376D01*
X026300Y021900D02*
X018565Y021900D01*
X018610Y021855D02*
X018475Y021990D01*
X018285Y021990D01*
X018150Y021855D01*
X018150Y021690D01*
X017985Y021690D01*
X017850Y021555D01*
X017850Y021365D01*
X017985Y021230D01*
X018175Y021230D01*
X018310Y021365D01*
X018310Y021530D01*
X018475Y021530D01*
X018610Y021665D01*
X018610Y021855D01*
X018610Y021741D02*
X026300Y021741D01*
X026300Y021583D02*
X018528Y021583D01*
X018310Y021424D02*
X026300Y021424D01*
X026300Y021266D02*
X018211Y021266D01*
X017949Y021266D02*
X011660Y021266D01*
X011660Y021424D02*
X017850Y021424D01*
X017878Y021583D02*
X011660Y021583D01*
X011660Y021741D02*
X018150Y021741D01*
X018195Y021900D02*
X011660Y021900D01*
X011660Y021107D02*
X026300Y021107D01*
X026300Y020949D02*
X011660Y020949D01*
X011660Y020790D02*
X026300Y020790D01*
X026300Y020632D02*
X011660Y020632D01*
X011660Y020473D02*
X023578Y020473D01*
X023625Y020520D02*
X023490Y020385D01*
X023490Y020195D01*
X023625Y020060D01*
X023815Y020060D01*
X023950Y020195D01*
X023950Y020385D01*
X023815Y020520D01*
X023625Y020520D01*
X023862Y020473D02*
X026300Y020473D01*
X026300Y020315D02*
X023950Y020315D01*
X023912Y020156D02*
X026300Y020156D01*
X026300Y019998D02*
X011660Y019998D01*
X011660Y020156D02*
X023528Y020156D01*
X023490Y020315D02*
X011660Y020315D01*
X011660Y019839D02*
X013338Y019839D01*
X013351Y019845D02*
X013261Y019808D01*
X013192Y019739D01*
X013155Y019649D01*
X013155Y019551D01*
X013192Y019461D01*
X013261Y019392D01*
X013351Y019355D01*
X013449Y019355D01*
X013539Y019392D01*
X013608Y019461D01*
X013645Y019551D01*
X013645Y019649D01*
X013608Y019739D01*
X013539Y019808D01*
X013449Y019845D01*
X013351Y019845D01*
X013462Y019839D02*
X026300Y019839D01*
X026300Y019681D02*
X024670Y019681D01*
X024670Y019695D02*
X024535Y019830D01*
X024345Y019830D01*
X024210Y019695D01*
X024210Y019505D01*
X024345Y019370D01*
X024535Y019370D01*
X024670Y019505D01*
X024670Y019695D01*
X024670Y019522D02*
X026300Y019522D01*
X026300Y019364D02*
X013470Y019364D01*
X013330Y019364D02*
X011660Y019364D01*
X011660Y019522D02*
X013167Y019522D01*
X013168Y019681D02*
X011660Y019681D01*
X011660Y019205D02*
X024320Y019205D01*
X024345Y019230D02*
X024210Y019095D01*
X024210Y018905D01*
X024345Y018770D01*
X024535Y018770D01*
X024670Y018905D01*
X024670Y019095D01*
X024535Y019230D01*
X024345Y019230D01*
X024560Y019205D02*
X026300Y019205D01*
X026300Y019047D02*
X024670Y019047D01*
X024654Y018888D02*
X026300Y018888D01*
X026300Y018730D02*
X012635Y018730D01*
X012615Y018750D02*
X012670Y018805D01*
X012670Y018995D01*
X012535Y019130D01*
X012345Y019130D01*
X012210Y018995D01*
X012210Y018805D01*
X012265Y018750D01*
X012210Y018695D01*
X012210Y018505D01*
X012265Y018450D01*
X012210Y018395D01*
X012210Y018205D01*
X012265Y018150D01*
X012210Y018095D01*
X012210Y017905D01*
X012265Y017850D01*
X012210Y017795D01*
X012210Y017605D01*
X012345Y017470D01*
X012535Y017470D01*
X012670Y017605D01*
X012670Y017795D01*
X012615Y017850D01*
X012670Y017905D01*
X012670Y018095D01*
X012615Y018150D01*
X012670Y018205D01*
X012670Y018395D01*
X012615Y018450D01*
X012670Y018505D01*
X012670Y018695D01*
X012615Y018750D01*
X012670Y018888D02*
X024226Y018888D01*
X024210Y019047D02*
X012618Y019047D01*
X012262Y019047D02*
X011718Y019047D01*
X011770Y018888D02*
X012210Y018888D01*
X012245Y018730D02*
X011735Y018730D01*
X011770Y018571D02*
X012210Y018571D01*
X012228Y018413D02*
X011752Y018413D01*
X011770Y018254D02*
X012210Y018254D01*
X012211Y018096D02*
X011769Y018096D01*
X011770Y017937D02*
X012210Y017937D01*
X012210Y017779D02*
X011770Y017779D01*
X011770Y017620D02*
X012210Y017620D01*
X012670Y017620D02*
X020425Y017620D01*
X020432Y017639D02*
X020395Y017549D01*
X020395Y017451D01*
X020432Y017361D01*
X020501Y017292D01*
X020591Y017255D01*
X020689Y017255D01*
X020779Y017292D01*
X020848Y017361D01*
X020885Y017451D01*
X020885Y017549D01*
X020848Y017639D01*
X020779Y017708D01*
X020689Y017745D01*
X020591Y017745D01*
X020501Y017708D01*
X020432Y017639D01*
X020395Y017462D02*
X011660Y017462D01*
X011660Y017303D02*
X020490Y017303D01*
X020790Y017303D02*
X022878Y017303D01*
X022905Y017330D02*
X022770Y017195D01*
X022770Y017005D01*
X022905Y016870D01*
X023095Y016870D01*
X023230Y017005D01*
X023230Y017195D01*
X023095Y017330D01*
X022905Y017330D01*
X023122Y017303D02*
X026300Y017303D01*
X026300Y017145D02*
X023230Y017145D01*
X023212Y016986D02*
X026300Y016986D01*
X026300Y016828D02*
X011660Y016828D01*
X011660Y016986D02*
X022788Y016986D01*
X022770Y017145D02*
X011660Y017145D01*
X011660Y016669D02*
X026300Y016669D01*
X026300Y016511D02*
X011660Y016511D01*
X011660Y016352D02*
X026300Y016352D01*
X026300Y016194D02*
X011660Y016194D01*
X011660Y016035D02*
X012877Y016035D01*
X012892Y016051D02*
X012792Y015950D01*
X012737Y015819D01*
X012737Y015677D01*
X012792Y015546D01*
X012892Y015446D01*
X013023Y015391D01*
X013165Y015391D01*
X013296Y015446D01*
X013397Y015546D01*
X013451Y015677D01*
X013451Y015819D01*
X013397Y015950D01*
X013296Y016051D01*
X013165Y016105D01*
X013023Y016105D01*
X012892Y016051D01*
X012761Y015877D02*
X011660Y015877D01*
X011660Y015718D02*
X012737Y015718D01*
X012786Y015560D02*
X011660Y015560D01*
X011660Y015401D02*
X012999Y015401D01*
X013190Y015401D02*
X016290Y015401D01*
X016315Y015391D02*
X016457Y015391D01*
X016588Y015446D01*
X016688Y015546D01*
X016743Y015677D01*
X016743Y015819D01*
X016688Y015950D01*
X016588Y016051D01*
X016457Y016105D01*
X016315Y016105D01*
X016184Y016051D01*
X016083Y015950D01*
X016029Y015819D01*
X016029Y015677D01*
X016083Y015546D01*
X016184Y015446D01*
X016315Y015391D01*
X016481Y015401D02*
X026300Y015401D01*
X026300Y015560D02*
X016694Y015560D01*
X016743Y015718D02*
X026300Y015718D01*
X026300Y015877D02*
X016719Y015877D01*
X016603Y016035D02*
X026300Y016035D01*
X026280Y015243D02*
X011660Y015243D01*
X011660Y015084D02*
X026121Y015084D01*
X025963Y014926D02*
X011660Y014926D01*
X011660Y014767D02*
X025804Y014767D01*
X025646Y014609D02*
X017056Y014609D01*
X017110Y014555D02*
X016975Y014690D01*
X016785Y014690D01*
X016650Y014555D01*
X016650Y014365D01*
X016785Y014230D01*
X016975Y014230D01*
X017110Y014365D01*
X017110Y014555D01*
X017110Y014450D02*
X022951Y014450D01*
X022905Y014292D02*
X019387Y014292D01*
X019405Y014249D02*
X019368Y014339D01*
X019299Y014408D01*
X019209Y014445D01*
X019111Y014445D01*
X019021Y014408D01*
X018952Y014339D01*
X018915Y014249D01*
X018915Y014151D01*
X018952Y014061D01*
X019021Y013992D01*
X019111Y013955D01*
X019209Y013955D01*
X019299Y013992D01*
X019368Y014061D01*
X019405Y014151D01*
X019405Y014249D01*
X019398Y014133D02*
X022905Y014133D01*
X022905Y013975D02*
X019257Y013975D01*
X019063Y013975D02*
X017110Y013975D01*
X016992Y014133D02*
X018922Y014133D01*
X018933Y014292D02*
X017037Y014292D01*
X016768Y014133D02*
X011660Y014133D01*
X011660Y013975D02*
X016650Y013975D01*
X016723Y014292D02*
X011660Y014292D01*
X011660Y014450D02*
X016650Y014450D01*
X016704Y014609D02*
X011660Y014609D01*
X010520Y014609D02*
X001880Y014609D01*
X001880Y014767D02*
X010520Y014767D01*
X010520Y014926D02*
X001880Y014926D01*
X001880Y015084D02*
X010520Y015084D01*
X010520Y015243D02*
X001880Y015243D01*
X001880Y015401D02*
X010520Y015401D01*
X010520Y015560D02*
X001880Y015560D01*
X001880Y015718D02*
X010520Y015718D01*
X010520Y015877D02*
X001880Y015877D01*
X001880Y016035D02*
X010520Y016035D01*
X010520Y016194D02*
X010360Y016194D01*
X009920Y016194D02*
X001880Y016194D01*
X001880Y016352D02*
X008634Y016352D01*
X008630Y016366D02*
X008642Y016321D01*
X008666Y016279D01*
X008699Y016246D01*
X008741Y016222D01*
X008786Y016210D01*
X009120Y016210D01*
X009120Y016700D01*
X008630Y016700D01*
X008630Y016366D01*
X008630Y016511D02*
X001880Y016511D01*
X001880Y016669D02*
X008630Y016669D01*
X008630Y016828D02*
X001880Y016828D01*
X001880Y016986D02*
X004762Y016986D01*
X004773Y016967D02*
X004807Y016933D01*
X004848Y016910D01*
X004894Y016898D01*
X005212Y016898D01*
X005212Y017372D01*
X005268Y017372D01*
X005268Y017428D01*
X005742Y017428D01*
X005742Y017746D01*
X005730Y017792D01*
X005707Y017833D01*
X005673Y017867D01*
X005632Y017890D01*
X005586Y017902D01*
X005509Y017902D01*
X005559Y017923D01*
X005717Y018081D01*
X005802Y018288D01*
X005802Y018512D01*
X005717Y018719D01*
X005559Y018877D01*
X005503Y018900D01*
X005559Y018923D01*
X005717Y019081D01*
X005802Y019288D01*
X005802Y019512D01*
X005717Y019719D01*
X005559Y019877D01*
X005503Y019900D01*
X005559Y019923D01*
X005717Y020081D01*
X005802Y020288D01*
X005802Y020512D01*
X005717Y020719D01*
X005559Y020877D01*
X005503Y020900D01*
X005559Y020923D01*
X005717Y021081D01*
X005802Y021288D01*
X005802Y021512D01*
X005717Y021719D01*
X005559Y021877D01*
X005503Y021900D01*
X009910Y021900D01*
X009910Y021741D02*
X005694Y021741D01*
X005773Y021583D02*
X009910Y021583D01*
X009910Y021424D02*
X005802Y021424D01*
X005793Y021266D02*
X009910Y021266D01*
X009910Y021107D02*
X009784Y021107D01*
X009616Y021107D02*
X005728Y021107D01*
X005584Y020949D02*
X009377Y020949D01*
X009310Y020790D02*
X005645Y020790D01*
X005753Y020632D02*
X009314Y020632D01*
X009395Y020473D02*
X005802Y020473D01*
X005802Y020315D02*
X009910Y020315D01*
X009910Y020156D02*
X005748Y020156D01*
X005633Y019998D02*
X009910Y019998D01*
X009910Y019839D02*
X005596Y019839D01*
X005732Y019681D02*
X009910Y019681D01*
X009910Y019522D02*
X008854Y019522D01*
X008827Y019549D02*
X008693Y019605D01*
X008547Y019605D01*
X008413Y019549D01*
X008311Y019447D01*
X008255Y019313D01*
X008255Y019167D01*
X008311Y019033D01*
X008413Y018931D01*
X008547Y018875D01*
X008693Y018875D01*
X008827Y018931D01*
X008929Y019033D01*
X008985Y019167D01*
X008985Y019313D01*
X008929Y019447D01*
X008827Y019549D01*
X008964Y019364D02*
X009910Y019364D01*
X009910Y019205D02*
X008985Y019205D01*
X008935Y019047D02*
X009910Y019047D01*
X009910Y018888D02*
X008725Y018888D01*
X008515Y018888D02*
X005531Y018888D01*
X005682Y019047D02*
X008305Y019047D01*
X008255Y019205D02*
X005768Y019205D01*
X005802Y019364D02*
X008276Y019364D01*
X008386Y019522D02*
X005798Y019522D01*
X005705Y018730D02*
X009910Y018730D01*
X009910Y018571D02*
X005778Y018571D01*
X005802Y018413D02*
X009910Y018413D01*
X009910Y018254D02*
X005789Y018254D01*
X005723Y018096D02*
X009910Y018096D01*
X009910Y017937D02*
X008184Y017937D01*
X008151Y017971D02*
X008261Y017861D01*
X008320Y017718D01*
X008320Y017562D01*
X008261Y017419D01*
X008151Y017309D01*
X008008Y017250D01*
X007852Y017250D01*
X007709Y017309D01*
X007599Y017419D01*
X007540Y017562D01*
X007540Y017718D01*
X007599Y017861D01*
X007709Y017971D01*
X007852Y018030D01*
X008008Y018030D01*
X008151Y017971D01*
X008295Y017779D02*
X009910Y017779D01*
X009910Y017620D02*
X008320Y017620D01*
X008278Y017462D02*
X009910Y017462D01*
X009934Y017303D02*
X008137Y017303D01*
X007723Y017303D02*
X005742Y017303D01*
X005742Y017372D02*
X005742Y017054D01*
X005730Y017008D01*
X005707Y016967D01*
X005673Y016933D01*
X005632Y016910D01*
X005586Y016898D01*
X005268Y016898D01*
X005268Y017372D01*
X005742Y017372D01*
X005742Y017462D02*
X007582Y017462D01*
X007540Y017620D02*
X005742Y017620D01*
X005734Y017779D02*
X007565Y017779D01*
X007676Y017937D02*
X005573Y017937D01*
X004971Y017902D02*
X004894Y017902D01*
X004848Y017890D01*
X004807Y017867D01*
X004773Y017833D01*
X004750Y017792D01*
X004738Y017746D01*
X004738Y017428D01*
X005212Y017428D01*
X005212Y017372D01*
X004737Y017372D01*
X004738Y017054D01*
X004750Y017008D01*
X004773Y016967D01*
X004737Y017145D02*
X001880Y017145D01*
X001880Y017303D02*
X004737Y017303D01*
X004738Y017462D02*
X001880Y017462D01*
X001880Y017620D02*
X004738Y017620D01*
X004746Y017779D02*
X001880Y017779D01*
X001880Y017937D02*
X004907Y017937D01*
X004921Y017923D02*
X004763Y018081D01*
X004678Y018288D01*
X004678Y018512D01*
X004763Y018719D01*
X004921Y018877D01*
X004977Y018900D01*
X004921Y018923D01*
X004763Y019081D01*
X004678Y019288D01*
X004678Y019512D01*
X004763Y019719D01*
X004921Y019877D01*
X004977Y019900D01*
X004921Y019923D01*
X004763Y020081D01*
X004678Y020288D01*
X004678Y020512D01*
X004763Y020719D01*
X004921Y020877D01*
X004977Y020900D01*
X004921Y020923D01*
X004763Y021081D01*
X004678Y021288D01*
X004678Y021512D01*
X004763Y021719D01*
X004921Y021877D01*
X004977Y021900D01*
X001880Y021900D01*
X001880Y021741D02*
X004786Y021741D01*
X004707Y021583D02*
X001880Y021583D01*
X001880Y021424D02*
X004678Y021424D01*
X004687Y021266D02*
X001880Y021266D01*
X001880Y021107D02*
X004752Y021107D01*
X004896Y020949D02*
X001880Y020949D01*
X001880Y020790D02*
X004835Y020790D01*
X004727Y020632D02*
X001880Y020632D01*
X001880Y020473D02*
X004678Y020473D01*
X004678Y020315D02*
X001880Y020315D01*
X001880Y020156D02*
X004732Y020156D01*
X004847Y019998D02*
X001880Y019998D01*
X001880Y019839D02*
X004884Y019839D01*
X004748Y019681D02*
X001880Y019681D01*
X001880Y019522D02*
X004682Y019522D01*
X004678Y019364D02*
X001880Y019364D01*
X001880Y019205D02*
X004712Y019205D01*
X004798Y019047D02*
X001880Y019047D01*
X001880Y018888D02*
X004949Y018888D01*
X004775Y018730D02*
X001880Y018730D01*
X001880Y018571D02*
X004702Y018571D01*
X004678Y018413D02*
X001880Y018413D01*
X001880Y018254D02*
X004691Y018254D01*
X004757Y018096D02*
X001880Y018096D01*
X004921Y017923D02*
X004971Y017902D01*
X005212Y017303D02*
X005268Y017303D01*
X005268Y017145D02*
X005212Y017145D01*
X005212Y016986D02*
X005268Y016986D01*
X005718Y016986D02*
X008630Y016986D01*
X008657Y017145D02*
X005742Y017145D01*
X006552Y014277D02*
X005988Y014126D01*
X005482Y013834D01*
X005068Y013421D01*
X004776Y012914D01*
X004625Y012350D01*
X004625Y011765D01*
X004776Y011201D01*
X005068Y010694D01*
X005482Y010281D01*
X005988Y009989D01*
X006552Y009837D01*
X007137Y009837D01*
X007702Y009989D01*
X008208Y010281D01*
X008621Y010694D01*
X008913Y011201D01*
X009065Y011765D01*
X009065Y012350D01*
X008913Y012914D01*
X008621Y013421D01*
X008208Y013834D01*
X007702Y014126D01*
X007137Y014277D01*
X006552Y014277D01*
X006015Y014133D02*
X001880Y014133D01*
X001880Y013975D02*
X005726Y013975D01*
X005464Y013816D02*
X001880Y013816D01*
X001880Y013658D02*
X005306Y013658D01*
X005147Y013499D02*
X001880Y013499D01*
X001880Y013341D02*
X005022Y013341D01*
X004931Y013182D02*
X001880Y013182D01*
X001880Y013024D02*
X004839Y013024D01*
X004763Y012865D02*
X001880Y012865D01*
X001880Y012707D02*
X004720Y012707D01*
X004678Y012548D02*
X001880Y012548D01*
X001880Y012390D02*
X004636Y012390D01*
X004625Y012231D02*
X001880Y012231D01*
X001880Y012073D02*
X004625Y012073D01*
X004625Y011914D02*
X001880Y011914D01*
X001880Y011756D02*
X004627Y011756D01*
X004670Y011597D02*
X001880Y011597D01*
X001880Y011439D02*
X004712Y011439D01*
X004755Y011280D02*
X001880Y011280D01*
X001880Y011122D02*
X004821Y011122D01*
X004913Y010963D02*
X001880Y010963D01*
X001880Y010805D02*
X005004Y010805D01*
X005116Y010646D02*
X001880Y010646D01*
X001880Y010488D02*
X005275Y010488D01*
X005433Y010329D02*
X001880Y010329D01*
X001880Y010171D02*
X005672Y010171D01*
X005947Y010012D02*
X001880Y010012D01*
X001880Y009854D02*
X006491Y009854D01*
X007199Y009854D02*
X009450Y009854D01*
X009462Y009838D02*
X009518Y009782D01*
X009581Y009737D01*
X009650Y009701D01*
X009724Y009677D01*
X009801Y009665D01*
X009840Y009665D01*
X009879Y009665D01*
X009956Y009677D01*
X010030Y009701D01*
X010099Y009737D01*
X010162Y009782D01*
X010218Y009838D01*
X010263Y009901D01*
X010299Y009970D01*
X010323Y010044D01*
X010335Y010121D01*
X010335Y010160D01*
X010335Y010199D01*
X010323Y010276D01*
X010299Y010350D01*
X010263Y010419D01*
X010218Y010482D01*
X010162Y010538D01*
X010099Y010583D01*
X010030Y010619D01*
X009956Y010643D01*
X009879Y010655D01*
X009840Y010655D01*
X009840Y010160D01*
X010335Y010160D01*
X009840Y010160D01*
X009840Y010160D01*
X009840Y010160D01*
X009840Y009665D01*
X009840Y010160D01*
X009840Y010160D01*
X009840Y010160D01*
X009345Y010160D01*
X009345Y010199D01*
X009357Y010276D01*
X009381Y010350D01*
X009417Y010419D01*
X009462Y010482D01*
X009518Y010538D01*
X009581Y010583D01*
X009650Y010619D01*
X009724Y010643D01*
X009801Y010655D01*
X009840Y010655D01*
X009840Y010160D01*
X009345Y010160D01*
X009345Y010121D01*
X009357Y010044D01*
X009381Y009970D01*
X009417Y009901D01*
X009462Y009838D01*
X009367Y010012D02*
X007743Y010012D01*
X008017Y010171D02*
X009345Y010171D01*
X009375Y010329D02*
X008256Y010329D01*
X008415Y010488D02*
X009468Y010488D01*
X009747Y010646D02*
X008573Y010646D01*
X008685Y010805D02*
X010520Y010805D01*
X010520Y010963D02*
X008777Y010963D01*
X008868Y011122D02*
X010520Y011122D01*
X010520Y011280D02*
X008935Y011280D01*
X008977Y011439D02*
X010520Y011439D01*
X010520Y011597D02*
X009020Y011597D01*
X009062Y011756D02*
X010520Y011756D01*
X010520Y011914D02*
X009065Y011914D01*
X009065Y012073D02*
X010520Y012073D01*
X010520Y012231D02*
X009065Y012231D01*
X009054Y012390D02*
X010520Y012390D01*
X010520Y012548D02*
X009011Y012548D01*
X008969Y012707D02*
X010520Y012707D01*
X010520Y012865D02*
X008927Y012865D01*
X008850Y013024D02*
X010520Y013024D01*
X010520Y013182D02*
X008759Y013182D01*
X008667Y013341D02*
X010520Y013341D01*
X010520Y013499D02*
X008542Y013499D01*
X008384Y013658D02*
X010520Y013658D01*
X010520Y013816D02*
X008225Y013816D01*
X007964Y013975D02*
X010520Y013975D01*
X010520Y014133D02*
X007674Y014133D01*
X009120Y016352D02*
X009160Y016352D01*
X009160Y016511D02*
X009120Y016511D01*
X009120Y016669D02*
X009160Y016669D01*
X009160Y016828D02*
X009120Y016828D01*
X009120Y016986D02*
X009160Y016986D01*
X009160Y017145D02*
X009120Y017145D01*
X009623Y017145D02*
X009759Y017145D01*
X009701Y016352D02*
X009646Y016352D01*
X010520Y014450D02*
X001880Y014450D01*
X001880Y014292D02*
X010520Y014292D01*
X013403Y015560D02*
X016077Y015560D01*
X016029Y015718D02*
X013451Y015718D01*
X013427Y015877D02*
X016053Y015877D01*
X016168Y016035D02*
X013312Y016035D01*
X012670Y017779D02*
X014285Y017779D01*
X014282Y017781D02*
X014351Y017712D01*
X014441Y017675D01*
X014539Y017675D01*
X014629Y017712D01*
X014698Y017781D01*
X014735Y017871D01*
X014735Y017969D01*
X014726Y017990D01*
X014875Y017990D01*
X015010Y018125D01*
X015010Y018315D01*
X014875Y018450D01*
X014685Y018450D01*
X014550Y018315D01*
X014550Y018160D01*
X014539Y018165D01*
X014441Y018165D01*
X014351Y018128D01*
X014282Y018059D01*
X014245Y017969D01*
X014245Y017871D01*
X014282Y017781D01*
X014245Y017937D02*
X012670Y017937D01*
X012669Y018096D02*
X014320Y018096D01*
X014550Y018254D02*
X012670Y018254D01*
X012652Y018413D02*
X014648Y018413D01*
X014912Y018413D02*
X015728Y018413D01*
X015765Y018450D02*
X015630Y018315D01*
X015630Y018125D01*
X015765Y017990D01*
X015955Y017990D01*
X016090Y018125D01*
X016090Y018315D01*
X015955Y018450D01*
X015765Y018450D01*
X015992Y018413D02*
X026300Y018413D01*
X026300Y018571D02*
X012670Y018571D01*
X013633Y019522D02*
X024210Y019522D01*
X024210Y019681D02*
X013632Y019681D01*
X015010Y018254D02*
X015630Y018254D01*
X015659Y018096D02*
X014981Y018096D01*
X014735Y017937D02*
X019436Y017937D01*
X019412Y017961D02*
X019481Y017892D01*
X019571Y017855D01*
X019669Y017855D01*
X019759Y017892D01*
X019828Y017961D01*
X019865Y018051D01*
X019865Y018149D01*
X019828Y018239D01*
X019759Y018308D01*
X019669Y018345D01*
X019571Y018345D01*
X019481Y018308D01*
X019412Y018239D01*
X019375Y018149D01*
X019375Y018051D01*
X019412Y017961D01*
X019375Y018096D02*
X016061Y018096D01*
X016090Y018254D02*
X019428Y018254D01*
X019812Y018254D02*
X026300Y018254D01*
X026300Y018096D02*
X019865Y018096D01*
X019804Y017937D02*
X026300Y017937D01*
X026300Y017779D02*
X022646Y017779D01*
X022690Y017735D02*
X022555Y017870D01*
X022365Y017870D01*
X022230Y017735D01*
X022230Y017545D01*
X022365Y017410D01*
X022555Y017410D01*
X022690Y017545D01*
X022690Y017735D01*
X022690Y017620D02*
X026300Y017620D01*
X026300Y017462D02*
X022607Y017462D01*
X022313Y017462D02*
X020885Y017462D01*
X020855Y017620D02*
X022230Y017620D01*
X022274Y017779D02*
X014695Y017779D01*
X009910Y022059D02*
X005694Y022059D01*
X005717Y022081D02*
X005802Y022288D01*
X005802Y022512D01*
X005717Y022719D01*
X005559Y022877D01*
X005503Y022900D01*
X005559Y022923D01*
X005717Y023081D01*
X005802Y023288D01*
X005802Y023512D01*
X005717Y023719D01*
X005559Y023877D01*
X005503Y023900D01*
X005559Y023923D01*
X005717Y024081D01*
X005802Y024288D01*
X005802Y024512D01*
X005717Y024719D01*
X005559Y024877D01*
X005503Y024900D01*
X005559Y024923D01*
X005717Y025081D01*
X005802Y025288D01*
X005802Y025512D01*
X005717Y025719D01*
X005559Y025877D01*
X005503Y025900D01*
X005559Y025923D01*
X005717Y026081D01*
X005802Y026288D01*
X005802Y026512D01*
X005717Y026719D01*
X005559Y026877D01*
X005352Y026962D01*
X005128Y026962D01*
X004921Y026877D01*
X004763Y026719D01*
X004678Y026512D01*
X004678Y026288D01*
X004763Y026081D01*
X004921Y025923D01*
X004977Y025900D01*
X004921Y025877D01*
X004763Y025719D01*
X004678Y025512D01*
X004678Y025288D01*
X004763Y025081D01*
X004921Y024923D01*
X004977Y024900D01*
X004921Y024877D01*
X004763Y024719D01*
X004678Y024512D01*
X004678Y024288D01*
X004763Y024081D01*
X004921Y023923D01*
X004977Y023900D01*
X004921Y023877D01*
X004763Y023719D01*
X004678Y023512D01*
X004678Y023288D01*
X004763Y023081D01*
X004921Y022923D01*
X004977Y022900D01*
X004921Y022877D01*
X004763Y022719D01*
X004678Y022512D01*
X004678Y022288D01*
X004763Y022081D01*
X004921Y021923D01*
X004977Y021900D01*
X004786Y022059D02*
X001880Y022059D01*
X001880Y022217D02*
X004707Y022217D01*
X004678Y022376D02*
X001880Y022376D01*
X001880Y022534D02*
X004687Y022534D01*
X004752Y022693D02*
X001880Y022693D01*
X001880Y022851D02*
X004896Y022851D01*
X004835Y023010D02*
X001880Y023010D01*
X001880Y023168D02*
X004727Y023168D01*
X004678Y023327D02*
X001880Y023327D01*
X001880Y023485D02*
X004678Y023485D01*
X004732Y023644D02*
X001880Y023644D01*
X001880Y023802D02*
X004847Y023802D01*
X004884Y023961D02*
X001880Y023961D01*
X001880Y024119D02*
X004748Y024119D01*
X004682Y024278D02*
X001880Y024278D01*
X001880Y024436D02*
X004678Y024436D01*
X004712Y024595D02*
X001880Y024595D01*
X001880Y024753D02*
X004798Y024753D01*
X004949Y024912D02*
X001880Y024912D01*
X001880Y025070D02*
X004774Y025070D01*
X004702Y025229D02*
X001880Y025229D01*
X001880Y025387D02*
X004678Y025387D01*
X004691Y025546D02*
X001880Y025546D01*
X001880Y025704D02*
X004757Y025704D01*
X004907Y025863D02*
X001880Y025863D01*
X001880Y026021D02*
X004823Y026021D01*
X004722Y026180D02*
X001880Y026180D01*
X001880Y026338D02*
X004678Y026338D01*
X004678Y026497D02*
X001880Y026497D01*
X001880Y026655D02*
X004737Y026655D01*
X004858Y026814D02*
X001880Y026814D01*
X001880Y026972D02*
X009910Y026972D01*
X009910Y026814D02*
X005622Y026814D01*
X005743Y026655D02*
X009910Y026655D01*
X009910Y026497D02*
X005802Y026497D01*
X005802Y026338D02*
X009910Y026338D01*
X009910Y026180D02*
X005758Y026180D01*
X005657Y026021D02*
X009910Y026021D01*
X009910Y025863D02*
X005573Y025863D01*
X005723Y025704D02*
X009910Y025704D01*
X009910Y025546D02*
X005789Y025546D01*
X005802Y025387D02*
X009910Y025387D01*
X009910Y025229D02*
X005778Y025229D01*
X005705Y025070D02*
X009910Y025070D01*
X009910Y024912D02*
X005531Y024912D01*
X005682Y024753D02*
X009910Y024753D01*
X009910Y024595D02*
X005768Y024595D01*
X005802Y024436D02*
X009910Y024436D01*
X009910Y024278D02*
X005798Y024278D01*
X005732Y024119D02*
X009910Y024119D01*
X009910Y023961D02*
X005596Y023961D01*
X005633Y023802D02*
X009910Y023802D01*
X009910Y023644D02*
X005748Y023644D01*
X005802Y023485D02*
X009910Y023485D01*
X009910Y023327D02*
X005802Y023327D01*
X005753Y023168D02*
X009910Y023168D01*
X009910Y023010D02*
X005645Y023010D01*
X005584Y022851D02*
X009910Y022851D01*
X009910Y022693D02*
X005728Y022693D01*
X005793Y022534D02*
X009910Y022534D01*
X009910Y022376D02*
X005802Y022376D01*
X005773Y022217D02*
X009910Y022217D01*
X011660Y023327D02*
X020208Y023327D01*
X020190Y023485D02*
X011660Y023485D01*
X011660Y023961D02*
X016950Y023961D01*
X016806Y024119D02*
X011660Y024119D01*
X011660Y024278D02*
X016750Y024278D01*
X016821Y024436D02*
X011660Y024436D01*
X011660Y027448D02*
X015510Y027448D01*
X015521Y027606D02*
X011660Y027606D01*
X011660Y027765D02*
X015810Y027765D01*
X015838Y027923D02*
X015288Y027923D01*
X015235Y027870D02*
X015370Y028005D01*
X015370Y028170D01*
X015535Y028170D01*
X015670Y028305D01*
X015670Y028495D01*
X015535Y028630D01*
X015345Y028630D01*
X015210Y028495D01*
X015210Y028330D01*
X015045Y028330D01*
X014910Y028195D01*
X014910Y028005D01*
X015045Y027870D01*
X015235Y027870D01*
X014992Y027923D02*
X011660Y027923D01*
X011660Y028082D02*
X014910Y028082D01*
X014955Y028240D02*
X011660Y028240D01*
X011660Y028399D02*
X015210Y028399D01*
X015272Y028557D02*
X011660Y028557D01*
X011660Y028716D02*
X022679Y028716D01*
X022650Y028745D02*
X022785Y028610D01*
X022975Y028610D01*
X023110Y028745D01*
X023110Y028935D01*
X022975Y029070D01*
X022785Y029070D01*
X022650Y028935D01*
X022650Y028745D01*
X022650Y028874D02*
X011660Y028874D01*
X011660Y029033D02*
X022747Y029033D01*
X023013Y029033D02*
X024286Y029033D01*
X024287Y029031D02*
X024386Y028990D01*
X024494Y028990D01*
X024593Y029031D01*
X024669Y029107D01*
X024710Y029206D01*
X024710Y029314D01*
X024669Y029413D01*
X024593Y029489D01*
X024494Y029530D01*
X024386Y029530D01*
X024287Y029489D01*
X024211Y029413D01*
X024170Y029314D01*
X024170Y029206D01*
X024211Y029107D01*
X024287Y029031D01*
X024176Y029191D02*
X011660Y029191D01*
X011660Y029350D02*
X024185Y029350D01*
X024333Y029508D02*
X011660Y029508D01*
X011660Y029667D02*
X026300Y029667D01*
X026300Y029825D02*
X011660Y029825D01*
X011660Y029984D02*
X026300Y029984D01*
X026300Y030142D02*
X024787Y030142D01*
X024850Y030205D02*
X024850Y030395D01*
X024735Y030510D01*
X024850Y030625D01*
X024850Y030815D01*
X024715Y030950D01*
X024525Y030950D01*
X024390Y030815D01*
X024390Y030625D01*
X024505Y030510D01*
X024390Y030395D01*
X024390Y030205D01*
X024525Y030070D01*
X024715Y030070D01*
X024850Y030205D01*
X024850Y030301D02*
X026300Y030301D01*
X026300Y030459D02*
X024786Y030459D01*
X024843Y030618D02*
X026300Y030618D01*
X026300Y030776D02*
X024850Y030776D01*
X024731Y030935D02*
X026300Y030935D01*
X026300Y031093D02*
X011660Y031093D01*
X011660Y030935D02*
X024509Y030935D01*
X024390Y030776D02*
X011660Y030776D01*
X011660Y030618D02*
X015455Y030618D01*
X015472Y030659D02*
X015435Y030569D01*
X015435Y030471D01*
X015472Y030381D01*
X015541Y030312D01*
X015631Y030275D01*
X015729Y030275D01*
X015819Y030312D01*
X015888Y030381D01*
X015925Y030471D01*
X015925Y030569D01*
X015888Y030659D01*
X015819Y030728D01*
X015729Y030765D01*
X015631Y030765D01*
X015541Y030728D01*
X015472Y030659D01*
X015440Y030459D02*
X011660Y030459D01*
X011660Y030301D02*
X015570Y030301D01*
X015790Y030301D02*
X024390Y030301D01*
X024454Y030459D02*
X015920Y030459D01*
X015905Y030618D02*
X024397Y030618D01*
X024453Y030142D02*
X011660Y030142D01*
X011660Y031252D02*
X026300Y031252D01*
X026300Y031410D02*
X011660Y031410D01*
X011660Y031569D02*
X026300Y031569D01*
X026300Y031727D02*
X019158Y031727D01*
X019148Y031701D02*
X019185Y031791D01*
X019185Y031889D01*
X019148Y031979D01*
X019079Y032048D01*
X018989Y032085D01*
X018891Y032085D01*
X018801Y032048D01*
X018732Y031979D01*
X018695Y031889D01*
X018695Y031791D01*
X018732Y031701D01*
X018801Y031632D01*
X018891Y031595D01*
X018989Y031595D01*
X019079Y031632D01*
X019148Y031701D01*
X019185Y031886D02*
X026300Y031886D01*
X026300Y032044D02*
X019082Y032044D01*
X018798Y032044D02*
X011660Y032044D01*
X011660Y031886D02*
X018695Y031886D01*
X018722Y031727D02*
X011660Y031727D01*
X011660Y032203D02*
X015463Y032203D01*
X015435Y032361D02*
X011660Y032361D01*
X009910Y028240D02*
X001880Y028240D01*
X001880Y028082D02*
X009910Y028082D01*
X009910Y027923D02*
X001880Y027923D01*
X001880Y027765D02*
X009910Y027765D01*
X009910Y027606D02*
X001880Y027606D01*
X001880Y027448D02*
X009910Y027448D01*
X009910Y027289D02*
X001880Y027289D01*
X001880Y027131D02*
X009910Y027131D01*
X005717Y022081D02*
X005559Y021923D01*
X005503Y021900D01*
X015370Y028082D02*
X016890Y028082D01*
X016890Y028155D02*
X016890Y027965D01*
X017025Y027830D01*
X017215Y027830D01*
X017350Y027965D01*
X017350Y028155D01*
X017215Y028290D01*
X017025Y028290D01*
X016890Y028155D01*
X016975Y028240D02*
X015605Y028240D01*
X015670Y028399D02*
X026300Y028399D01*
X026300Y028557D02*
X015608Y028557D01*
X016242Y027923D02*
X016932Y027923D01*
X017308Y027923D02*
X026300Y027923D01*
X026300Y027765D02*
X016270Y027765D01*
X017153Y026972D02*
X024270Y026972D01*
X024170Y026814D02*
X017170Y026814D01*
X017350Y028082D02*
X026300Y028082D01*
X026300Y028240D02*
X017265Y028240D01*
X017221Y024436D02*
X017139Y024436D01*
X017539Y024436D02*
X017611Y024436D01*
X017929Y024436D02*
X018001Y024436D01*
X018319Y024436D02*
X021091Y024436D01*
X021090Y024278D02*
X018390Y024278D01*
X020650Y023485D02*
X024210Y023485D01*
X024228Y023327D02*
X020632Y023327D01*
X020624Y026021D02*
X022674Y026021D01*
X022650Y026180D02*
X020665Y026180D01*
X023081Y028716D02*
X026300Y028716D01*
X026300Y028874D02*
X023110Y028874D01*
X024547Y029508D02*
X026300Y029508D01*
X026300Y029350D02*
X024695Y029350D01*
X024704Y029191D02*
X026300Y029191D01*
X026300Y029033D02*
X024594Y029033D01*
X024412Y032203D02*
X015897Y032203D01*
X015925Y032361D02*
X024375Y032361D01*
X024828Y032203D02*
X026300Y032203D01*
X026300Y032361D02*
X024865Y032361D01*
X024486Y014450D02*
X025487Y014450D01*
X024194Y014450D02*
X023729Y014450D01*
X023775Y014292D02*
X023977Y014292D01*
X023908Y014133D02*
X023775Y014133D01*
X023775Y013975D02*
X023905Y013975D01*
X029567Y005338D02*
X029322Y005093D01*
X029190Y004773D01*
X029190Y004427D01*
X029322Y004107D01*
X029567Y003862D01*
X029887Y003730D01*
X030233Y003730D01*
X030553Y003862D01*
X030798Y004107D01*
X030930Y004427D01*
X030930Y004773D01*
X030798Y005093D01*
X030553Y005338D01*
X030233Y005470D01*
X029887Y005470D01*
X029567Y005338D01*
X029487Y005257D02*
X013193Y005257D01*
X013113Y005338D02*
X012793Y005470D01*
X012447Y005470D01*
X012127Y005338D01*
X011882Y005093D01*
X011750Y004773D01*
X011750Y004427D01*
X011882Y004107D01*
X012127Y003862D01*
X012447Y003730D01*
X012793Y003730D01*
X013113Y003862D01*
X013358Y004107D01*
X013490Y004427D01*
X013490Y004773D01*
X013358Y005093D01*
X013113Y005338D01*
X012923Y005416D02*
X029757Y005416D01*
X029329Y005099D02*
X013351Y005099D01*
X013421Y004940D02*
X029259Y004940D01*
X029194Y004782D02*
X013486Y004782D01*
X013490Y004623D02*
X029190Y004623D01*
X029190Y004465D02*
X013490Y004465D01*
X013440Y004306D02*
X015990Y004306D01*
X016013Y004329D02*
X015911Y004227D01*
X015855Y004093D01*
X015855Y003947D01*
X015911Y003813D01*
X016013Y003711D01*
X016147Y003655D01*
X016293Y003655D01*
X016427Y003711D01*
X016529Y003813D01*
X016585Y003947D01*
X016585Y004093D01*
X016529Y004227D01*
X016427Y004329D01*
X016293Y004385D01*
X016147Y004385D01*
X016013Y004329D01*
X015878Y004148D02*
X013374Y004148D01*
X013240Y003989D02*
X015855Y003989D01*
X015903Y003831D02*
X013037Y003831D01*
X012203Y003831D02*
X008962Y003831D01*
X008925Y003921D02*
X008731Y004115D01*
X008477Y004220D01*
X008203Y004220D01*
X007949Y004115D01*
X007755Y003921D01*
X007650Y003667D01*
X007650Y003393D01*
X007755Y003139D01*
X007949Y002945D01*
X008203Y002840D01*
X008477Y002840D01*
X008731Y002945D01*
X008925Y003139D01*
X009030Y003393D01*
X009030Y003667D01*
X008925Y003921D01*
X008856Y003989D02*
X012000Y003989D01*
X011866Y004148D02*
X008651Y004148D01*
X009028Y003672D02*
X016105Y003672D01*
X016335Y003672D02*
X020005Y003672D01*
X020047Y003655D02*
X019913Y003711D01*
X019811Y003813D01*
X019755Y003947D01*
X019755Y004093D01*
X019811Y004227D01*
X019913Y004329D01*
X020047Y004385D01*
X020193Y004385D01*
X020327Y004329D01*
X020429Y004227D01*
X020485Y004093D01*
X020485Y003947D01*
X020429Y003813D01*
X020327Y003711D01*
X020193Y003655D01*
X020047Y003655D01*
X020235Y003672D02*
X024565Y003672D01*
X024607Y003655D02*
X024753Y003655D01*
X024887Y003711D01*
X024989Y003813D01*
X025045Y003947D01*
X025045Y004093D01*
X024989Y004227D01*
X024887Y004329D01*
X024753Y004385D01*
X024607Y004385D01*
X024473Y004329D01*
X024371Y004227D01*
X024315Y004093D01*
X024315Y003947D01*
X024371Y003813D01*
X024473Y003711D01*
X024607Y003655D01*
X024795Y003672D02*
X028825Y003672D01*
X028867Y003655D02*
X028733Y003711D01*
X028631Y003813D01*
X028575Y003947D01*
X028575Y004093D01*
X028631Y004227D01*
X028733Y004329D01*
X028867Y004385D01*
X029013Y004385D01*
X029147Y004329D01*
X029249Y004227D01*
X029305Y004093D01*
X029305Y003947D01*
X029249Y003813D01*
X029147Y003711D01*
X029013Y003655D01*
X028867Y003655D01*
X029055Y003672D02*
X033232Y003672D01*
X033074Y003514D02*
X009030Y003514D01*
X009015Y003355D02*
X032915Y003355D01*
X032757Y003197D02*
X008949Y003197D01*
X008824Y003038D02*
X032598Y003038D01*
X032440Y002880D02*
X008574Y002880D01*
X008106Y002880D02*
X005999Y002880D01*
X005841Y003038D02*
X007856Y003038D01*
X007731Y003197D02*
X005682Y003197D01*
X005524Y003355D02*
X007665Y003355D01*
X007650Y003514D02*
X005365Y003514D01*
X005207Y003672D02*
X007652Y003672D01*
X007718Y003831D02*
X005048Y003831D01*
X004890Y003989D02*
X007824Y003989D01*
X008029Y004148D02*
X006904Y004148D01*
X007062Y004306D02*
X011800Y004306D01*
X011750Y004465D02*
X007135Y004465D01*
X007180Y004623D02*
X011750Y004623D01*
X011754Y004782D02*
X007180Y004782D01*
X007141Y004940D02*
X011819Y004940D01*
X011889Y005099D02*
X007076Y005099D01*
X006076Y004148D02*
X004731Y004148D01*
X004573Y004306D02*
X005918Y004306D01*
X006158Y002721D02*
X032281Y002721D01*
X032123Y002563D02*
X006316Y002563D01*
X006475Y002404D02*
X031964Y002404D01*
X031806Y002246D02*
X006633Y002246D01*
X008947Y005257D02*
X012047Y005257D01*
X012317Y005416D02*
X009030Y005416D01*
X009030Y005574D02*
X035134Y005574D01*
X034976Y005416D02*
X030363Y005416D01*
X030633Y005257D02*
X034817Y005257D01*
X034659Y005099D02*
X030791Y005099D01*
X030861Y004940D02*
X034500Y004940D01*
X034342Y004782D02*
X030926Y004782D01*
X030930Y004623D02*
X034183Y004623D01*
X034025Y004465D02*
X030930Y004465D01*
X030880Y004306D02*
X033866Y004306D01*
X033708Y004148D02*
X030814Y004148D01*
X030680Y003989D02*
X033549Y003989D01*
X033391Y003831D02*
X030477Y003831D01*
X029643Y003831D02*
X029257Y003831D01*
X029305Y003989D02*
X029440Y003989D01*
X029306Y004148D02*
X029282Y004148D01*
X029240Y004306D02*
X029170Y004306D01*
X028710Y004306D02*
X024910Y004306D01*
X025022Y004148D02*
X028598Y004148D01*
X028575Y003989D02*
X025045Y003989D01*
X024997Y003831D02*
X028623Y003831D01*
X024450Y004306D02*
X020350Y004306D01*
X020462Y004148D02*
X024338Y004148D01*
X024315Y003989D02*
X020485Y003989D01*
X020437Y003831D02*
X024363Y003831D01*
X019890Y004306D02*
X016450Y004306D01*
X016562Y004148D02*
X019778Y004148D01*
X019755Y003989D02*
X016585Y003989D01*
X016537Y003831D02*
X019803Y003831D01*
X010520Y008269D02*
X001880Y008269D01*
X001880Y008427D02*
X010520Y008427D01*
X010520Y008586D02*
X001880Y008586D01*
X001880Y008744D02*
X010520Y008744D01*
X010520Y008903D02*
X001880Y008903D01*
X001880Y009061D02*
X010520Y009061D01*
X010520Y009220D02*
X001880Y009220D01*
X001880Y009378D02*
X010520Y009378D01*
X010520Y009537D02*
X001880Y009537D01*
X001880Y009695D02*
X009668Y009695D01*
X009840Y009695D02*
X009840Y009695D01*
X009840Y009854D02*
X009840Y009854D01*
X009840Y010012D02*
X009840Y010012D01*
X009840Y010171D02*
X009840Y010171D01*
X009840Y010329D02*
X009840Y010329D01*
X009840Y010488D02*
X009840Y010488D01*
X009840Y010646D02*
X009840Y010646D01*
X009933Y010646D02*
X010520Y010646D01*
X010520Y010488D02*
X010212Y010488D01*
X010305Y010329D02*
X010520Y010329D01*
X010520Y010171D02*
X010335Y010171D01*
X010313Y010012D02*
X010520Y010012D01*
X010520Y009854D02*
X010230Y009854D01*
X010012Y009695D02*
X010520Y009695D01*
X009030Y006208D02*
X035768Y006208D01*
X035610Y006050D02*
X009030Y006050D01*
X009030Y005891D02*
X035451Y005891D01*
X035293Y005733D02*
X009030Y005733D01*
X005438Y006842D02*
X005342Y006842D01*
X005342Y007001D02*
X005438Y007001D01*
X005438Y007159D02*
X005342Y007159D01*
X005342Y007318D02*
X005438Y007318D01*
X005438Y007476D02*
X005342Y007476D01*
X005342Y007635D02*
X005438Y007635D01*
D29*
X016340Y025900D02*
X016340Y026860D01*
X010400Y030100D02*
X010400Y033280D01*
X015340Y038220D01*
X016640Y038220D01*
X022040Y038220D01*
X022700Y038880D01*
D30*
X010400Y030100D02*
X010400Y026320D01*
X010400Y019240D01*
X010400Y017460D01*
X011140Y016720D01*
X024340Y014040D02*
X025600Y014040D01*
X027200Y015640D01*
X029200Y015640D02*
X031580Y015640D01*
M02*
