G75*
%MOIN*%
%OFA0B0*%
%FSLAX24Y24*%
%IPPOS*%
%LPD*%
%AMOC8*
5,1,8,0,0,1.08239X$1,22.5*
%
%ADD10C,0.0930*%
%ADD11C,0.0600*%
%ADD12C,0.0550*%
%ADD13C,0.2900*%
%ADD14C,0.0645*%
%ADD15C,0.0900*%
%ADD16C,0.0520*%
%ADD17C,0.0560*%
%ADD18C,0.0765*%
%ADD19C,0.0630*%
%ADD20C,0.0250*%
%ADD21C,0.0300*%
%ADD22C,0.0220*%
%ADD23C,0.0060*%
%ADD24C,0.0100*%
%ADD25C,0.0080*%
%ADD26C,0.0160*%
%ADD27C,0.0320*%
D10*
X005640Y035000D03*
X005640Y041100D03*
X033640Y041100D03*
X033640Y035000D03*
D11*
X036440Y035440D03*
X036440Y036440D03*
X036440Y039660D03*
X036440Y040660D03*
X029200Y015640D03*
X028200Y015640D03*
X027200Y015640D03*
X011140Y016720D03*
X010140Y016720D03*
X009140Y016720D03*
X002840Y035440D03*
X002840Y036440D03*
X002840Y039660D03*
X002840Y040660D03*
D12*
X006940Y039300D03*
X006940Y038300D03*
X006940Y037300D03*
X006940Y036300D03*
X007940Y036800D03*
X007940Y037800D03*
X007940Y038800D03*
X007940Y039800D03*
X031340Y039300D03*
X031340Y038300D03*
X031340Y037300D03*
X031340Y036300D03*
X032340Y036800D03*
X032340Y037800D03*
X032340Y038800D03*
X032340Y039800D03*
X029310Y008100D03*
X028310Y008100D03*
X027810Y007100D03*
X026810Y007100D03*
X027310Y008100D03*
X028810Y007100D03*
X024830Y008100D03*
X023830Y008100D03*
X023330Y007100D03*
X024330Y007100D03*
X022830Y008100D03*
X022330Y007100D03*
X020350Y008100D03*
X019350Y008100D03*
X018850Y007100D03*
X019850Y007100D03*
X018350Y008100D03*
X017850Y007100D03*
X015870Y008100D03*
X014870Y008100D03*
X014370Y007100D03*
X015370Y007100D03*
X013870Y008100D03*
X013370Y007100D03*
D13*
X006845Y012057D03*
X006845Y031743D03*
X032435Y031743D03*
X032435Y012057D03*
D14*
X034040Y017400D03*
X034040Y018400D03*
X034040Y019400D03*
X034040Y020400D03*
X034040Y021400D03*
X034040Y022400D03*
X034040Y023400D03*
X034040Y024400D03*
X034040Y025400D03*
X034040Y026400D03*
X005240Y026400D03*
X005240Y025400D03*
X005240Y024400D03*
X005240Y023400D03*
X005240Y022400D03*
X005240Y021400D03*
X005240Y020400D03*
X005240Y019400D03*
X005240Y018400D03*
X005240Y017400D03*
D15*
X006490Y004710D03*
X008340Y003530D03*
X008340Y005890D03*
D16*
X009840Y010160D03*
X011240Y010160D03*
D17*
X027840Y018400D03*
X027840Y019400D03*
X027840Y020400D03*
X027840Y021400D03*
X027840Y022400D03*
X028840Y022400D03*
X028840Y021400D03*
X028840Y020400D03*
X028840Y019400D03*
X028840Y018400D03*
X028840Y023400D03*
X028840Y024400D03*
X028840Y025400D03*
X027840Y025400D03*
X027840Y024400D03*
X027840Y023400D03*
D18*
X011330Y007260D03*
X005390Y007260D03*
D19*
X023340Y014040D03*
X024340Y014040D03*
D20*
X025740Y010700D03*
X021240Y010700D03*
X019760Y014200D03*
X019160Y014200D03*
X016840Y010700D03*
X014060Y014460D03*
X014490Y017920D03*
X014180Y018520D03*
X013510Y017910D03*
X013400Y019600D03*
X014180Y020080D03*
X011040Y022900D03*
X011040Y026300D03*
X015680Y030520D03*
X015680Y032320D03*
X015920Y034620D03*
X017360Y035160D03*
X018940Y031840D03*
X021920Y035160D03*
X023360Y034620D03*
X024620Y032340D03*
X021640Y039800D03*
X009920Y036780D03*
X008620Y019240D03*
X012240Y010700D03*
X016220Y004020D03*
X020120Y004020D03*
X024680Y004020D03*
X028940Y004020D03*
X021240Y017500D03*
X020640Y017500D03*
X019620Y018100D03*
D21*
X012100Y020720D03*
X010400Y019240D03*
X009700Y020720D03*
X007930Y017640D03*
X011240Y028600D03*
X010400Y030100D03*
X013340Y031500D03*
X013880Y028600D03*
X019740Y038700D03*
X020360Y039180D03*
X019160Y039180D03*
X024440Y029260D03*
X024440Y026760D03*
X031360Y026150D03*
X031360Y018150D03*
D22*
X032960Y016740D03*
X024440Y019000D03*
X024440Y019600D03*
X023720Y020290D03*
X023440Y020060D03*
X023720Y018520D03*
X022460Y017640D03*
X023000Y017100D03*
X023430Y022360D03*
X024020Y022360D03*
X024440Y023440D03*
X024440Y025060D03*
X024440Y026140D03*
X022880Y026140D03*
X022880Y026680D03*
X022880Y027220D03*
X022880Y027760D03*
X022880Y028300D03*
X022880Y028840D03*
X024620Y030300D03*
X024620Y030720D03*
X024620Y031260D03*
X025940Y029700D03*
X029540Y034680D03*
X029900Y035100D03*
X030380Y034140D03*
X029300Y038820D03*
X028880Y038820D03*
X022700Y038880D03*
X022220Y037800D03*
X017420Y037440D03*
X010400Y036780D03*
X015440Y028400D03*
X015140Y028100D03*
X015740Y027500D03*
X016040Y027800D03*
X016340Y026860D03*
X016940Y026860D03*
X017120Y028060D03*
X017720Y028060D03*
X018500Y026260D03*
X019580Y026260D03*
X019880Y025900D03*
X020420Y025900D03*
X020480Y026320D03*
X020440Y027300D03*
X019900Y027290D03*
X021320Y024340D03*
X020420Y023440D03*
X018360Y024040D03*
X018160Y024270D03*
X017960Y024040D03*
X017770Y024270D03*
X017570Y024040D03*
X017380Y024270D03*
X017180Y024040D03*
X016980Y024270D03*
X018380Y021760D03*
X018080Y021460D03*
X015860Y018220D03*
X014780Y018220D03*
X012440Y018300D03*
X012440Y018000D03*
X012440Y017700D03*
X012440Y018600D03*
X012440Y018900D03*
X011540Y018900D03*
X011540Y018600D03*
X011540Y018300D03*
X011540Y018000D03*
X011540Y017700D03*
X016880Y014460D03*
X016880Y013920D03*
D23*
X016580Y014220D01*
X016580Y014700D01*
X016980Y015100D01*
X016980Y024270D01*
X017180Y024040D02*
X017180Y014760D01*
X016880Y014460D01*
X015860Y018220D02*
X014780Y018220D01*
X012440Y018300D02*
X011540Y018300D01*
X011540Y018000D02*
X012440Y018000D01*
X012440Y017700D02*
X011540Y017700D01*
X011540Y018600D02*
X012440Y018600D01*
X012440Y018900D02*
X011540Y018900D01*
X017380Y023660D02*
X018080Y022960D01*
X026420Y022960D01*
X026980Y022400D01*
X027840Y022400D01*
X028160Y022920D02*
X028360Y022920D01*
X028840Y023400D01*
X028160Y022920D02*
X026760Y022920D01*
X026540Y023140D01*
X018140Y023140D01*
X017570Y023710D01*
X017570Y024040D01*
X017380Y024270D02*
X017380Y023660D01*
X017770Y023810D02*
X017770Y024270D01*
X017960Y024040D02*
X017960Y023860D01*
X018200Y023620D01*
X019940Y023620D01*
X021800Y025480D01*
X025940Y025480D01*
X027020Y024400D01*
X027840Y024400D01*
X027440Y024900D02*
X026760Y024900D01*
X026000Y025660D01*
X021680Y025660D01*
X019820Y023800D01*
X018320Y023800D01*
X018160Y023960D01*
X018160Y024270D01*
X018360Y024040D02*
X019700Y024040D01*
X021500Y025840D01*
X026100Y025840D01*
X026540Y025400D01*
X027840Y025400D01*
X027440Y024900D02*
X028340Y024900D01*
X028840Y025400D01*
X027840Y023400D02*
X027440Y023400D01*
X025540Y025300D01*
X021920Y025300D01*
X020060Y023440D01*
X018140Y023440D01*
X017770Y023810D01*
X018380Y021760D02*
X018080Y021460D01*
X020420Y023440D02*
X021320Y024340D01*
X020480Y026320D02*
X022520Y026320D01*
X022700Y026320D01*
X022880Y026140D01*
X019580Y026260D02*
X018500Y026260D01*
X022460Y017640D02*
X023000Y017100D01*
X022220Y037800D02*
X027860Y037800D01*
X028880Y038820D01*
D24*
X029900Y035100D02*
X031880Y035100D01*
X036440Y039660D01*
X037040Y040060D02*
X037040Y037140D01*
X037040Y037040D01*
X036440Y036440D01*
X037040Y035840D01*
X037040Y034860D01*
X036320Y034140D01*
X030380Y034140D01*
X029540Y034680D02*
X031880Y034680D01*
X034160Y036960D01*
X035300Y036960D01*
X035780Y036480D01*
X035780Y035640D01*
X035980Y035440D01*
X036440Y035440D01*
X037040Y040060D02*
X036440Y040660D01*
X024620Y030720D02*
X024560Y030660D01*
X018920Y030660D01*
X014960Y034620D01*
X007220Y034620D01*
X003500Y038340D01*
X003500Y039240D01*
X003500Y040000D01*
X002840Y040660D01*
X002840Y036440D02*
X003440Y035840D01*
X003440Y035400D01*
X004520Y034320D01*
X006200Y034320D01*
X006320Y034320D01*
X014840Y034320D01*
X018860Y030300D01*
X024620Y030300D01*
X022220Y037800D02*
X011420Y037800D01*
X010400Y036780D01*
X010400Y019240D02*
X008620Y019240D01*
D25*
X015740Y027500D02*
X015140Y028100D01*
X015440Y028400D02*
X016040Y027800D01*
D26*
X013340Y031500D02*
X011660Y031500D01*
X009200Y033960D01*
X004320Y033960D01*
X002840Y035440D01*
X002300Y035980D01*
X002300Y036060D01*
X002300Y039120D01*
X002840Y039660D01*
D27*
X017420Y037440D02*
X018620Y036240D01*
X024020Y036240D01*
X026720Y033540D01*
X026720Y029640D01*
X026340Y029260D01*
X024440Y029260D01*
X022400Y029260D01*
X020440Y027300D01*
M02*
