G75*
%MOIN*%
%OFA0B0*%
%FSLAX24Y24*%
%IPPOS*%
%LPD*%
%AMOC8*
5,1,8,0,0,1.08239X$1,22.5*
%
%ADD10C,0.0080*%
%ADD11C,0.0100*%
%ADD12C,0.0090*%
%ADD13C,0.0060*%
%ADD14C,0.0050*%
%ADD15C,0.0040*%
D10*
X009000Y006470D02*
X009070Y006400D01*
X009210Y006400D01*
X009280Y006470D01*
X009000Y006750D01*
X009000Y006470D01*
X009000Y006750D02*
X009070Y006820D01*
X009210Y006820D01*
X009280Y006750D01*
X009280Y006470D01*
X009461Y006470D02*
X009531Y006400D01*
X009671Y006400D01*
X009741Y006470D01*
X009461Y006750D01*
X009461Y006470D01*
X009741Y006470D02*
X009741Y006750D01*
X009671Y006820D01*
X009531Y006820D01*
X009461Y006750D01*
X009921Y006400D02*
X010201Y006400D01*
X010061Y006400D02*
X010061Y006820D01*
X010201Y006680D01*
X010381Y006820D02*
X010521Y006820D01*
X010451Y006820D02*
X010451Y006470D01*
X010521Y006400D01*
X010592Y006400D01*
X010662Y006470D01*
X011895Y008600D02*
X011895Y000450D01*
X020190Y000450D01*
X022490Y000450D01*
X030785Y000450D01*
X030785Y008600D01*
X011895Y008600D01*
X013920Y000900D02*
X013470Y000450D01*
X013920Y000900D02*
X015320Y000900D01*
X015770Y000450D01*
X017950Y000450D02*
X018400Y000900D01*
X019800Y000900D01*
X020250Y000450D01*
X022430Y000450D02*
X022880Y000900D01*
X024280Y000900D01*
X024730Y000450D01*
X026910Y000450D02*
X027360Y000900D01*
X028760Y000900D01*
X029210Y000450D01*
X003440Y041550D02*
X003247Y041568D01*
X003054Y041581D01*
X002861Y041590D01*
X002667Y041594D01*
X002474Y041593D01*
X002281Y041588D01*
X002087Y041578D01*
X001895Y041563D01*
X001702Y041544D01*
X001510Y041520D01*
X001319Y041491D01*
X001128Y041458D01*
X000938Y041421D01*
X000749Y041379D01*
X000562Y041332D01*
X000375Y041281D01*
X000190Y041225D01*
X005015Y041225D01*
X006265Y041225D02*
X008690Y041225D01*
X008690Y034875D01*
X006265Y034875D01*
X005015Y034875D02*
X000190Y034875D01*
X000190Y041225D01*
X000190Y034875D02*
X000364Y034820D01*
X000540Y034770D01*
X000717Y034723D01*
X000895Y034681D01*
X001074Y034643D01*
X001253Y034610D01*
X001434Y034581D01*
X001615Y034556D01*
X001797Y034536D01*
X001979Y034520D01*
X002162Y034508D01*
X002344Y034501D01*
X002527Y034498D01*
X002710Y034500D01*
X002893Y034506D01*
X003076Y034516D01*
X003258Y034531D01*
X003440Y034550D01*
X008980Y035160D02*
X008980Y035230D01*
X009050Y035300D01*
X009400Y035300D01*
X009400Y035230D02*
X009400Y035370D01*
X009260Y035550D02*
X009400Y035691D01*
X008980Y035691D01*
X008980Y035831D02*
X008980Y035550D01*
X008980Y035160D02*
X009050Y035090D01*
X009050Y036011D02*
X008980Y036081D01*
X008980Y036221D01*
X009050Y036291D01*
X009330Y036291D01*
X009050Y036011D01*
X009330Y036011D01*
X009400Y036081D01*
X009400Y036221D01*
X009330Y036291D01*
X009330Y036471D02*
X009400Y036541D01*
X009400Y036681D01*
X009330Y036751D01*
X009260Y036751D01*
X009190Y036681D01*
X009120Y036751D01*
X009050Y036751D01*
X008980Y036681D01*
X008980Y036541D01*
X009050Y036471D01*
X009190Y036611D02*
X009190Y036681D01*
X029880Y039318D02*
X029880Y039389D01*
X029950Y039459D01*
X030300Y039459D01*
X030300Y039389D02*
X030300Y039529D01*
X030160Y039709D02*
X030300Y039849D01*
X029880Y039849D01*
X029880Y039709D02*
X029880Y039989D01*
X029950Y040169D02*
X030230Y040449D01*
X029950Y040449D01*
X029880Y040379D01*
X029880Y040239D01*
X029950Y040169D01*
X030230Y040169D01*
X030300Y040239D01*
X030300Y040379D01*
X030230Y040449D01*
X030230Y040630D02*
X030300Y040700D01*
X030300Y040840D01*
X030230Y040910D01*
X030160Y040910D01*
X029880Y040630D01*
X029880Y040910D01*
X030590Y041225D02*
X033015Y041225D01*
X034265Y041225D02*
X039090Y041225D01*
X039090Y034875D01*
X034265Y034875D01*
X033015Y034875D02*
X030590Y034875D01*
X030590Y041225D01*
X029880Y039318D02*
X029950Y039248D01*
X035840Y034550D02*
X036033Y034532D01*
X036226Y034519D01*
X036419Y034510D01*
X036613Y034506D01*
X036806Y034507D01*
X036999Y034512D01*
X037193Y034522D01*
X037385Y034537D01*
X037578Y034556D01*
X037770Y034580D01*
X037961Y034609D01*
X038152Y034642D01*
X038342Y034679D01*
X038531Y034721D01*
X038718Y034768D01*
X038905Y034819D01*
X039090Y034875D01*
X039090Y041225D02*
X038916Y041280D01*
X038740Y041330D01*
X038563Y041377D01*
X038385Y041419D01*
X038206Y041457D01*
X038027Y041490D01*
X037846Y041519D01*
X037665Y041544D01*
X037483Y041564D01*
X037301Y041580D01*
X037118Y041592D01*
X036936Y041599D01*
X036753Y041602D01*
X036570Y041600D01*
X036387Y041594D01*
X036204Y041584D01*
X036022Y041569D01*
X035840Y041550D01*
D11*
X030200Y017540D02*
X026200Y017540D01*
X026200Y014540D01*
X030200Y014540D01*
X030200Y017540D01*
X012140Y017820D02*
X012140Y014820D01*
X008140Y014820D01*
X008140Y017820D01*
X012140Y017820D01*
D12*
X011355Y017557D02*
X011355Y017283D01*
X011287Y017215D01*
X011150Y017215D01*
X011082Y017283D01*
X011082Y017557D01*
X011150Y017625D01*
X011287Y017625D01*
X011355Y017557D01*
X010355Y017557D02*
X010355Y017283D01*
X010287Y017215D01*
X010150Y017215D01*
X010082Y017283D01*
X010082Y017420D01*
X010219Y017420D01*
X010355Y017557D02*
X010287Y017625D01*
X010150Y017625D01*
X010082Y017557D01*
X009302Y017625D02*
X009165Y017625D01*
X009234Y017625D02*
X009234Y017215D01*
X009302Y017215D02*
X009165Y017215D01*
X027081Y015077D02*
X027150Y015145D01*
X027287Y015145D01*
X027355Y015077D01*
X027355Y014803D01*
X027287Y014735D01*
X027150Y014735D01*
X027081Y014803D01*
X027081Y015077D01*
X028081Y015077D02*
X028150Y015145D01*
X028287Y015145D01*
X028355Y015077D01*
X028355Y014803D01*
X028287Y014735D01*
X028150Y014735D01*
X028081Y014803D01*
X028081Y014940D01*
X028218Y014940D01*
X029118Y014735D02*
X029255Y014735D01*
X029187Y014735D02*
X029187Y015145D01*
X029255Y015145D02*
X029118Y015145D01*
D13*
X028810Y014330D02*
X028723Y014330D01*
X028767Y014330D02*
X028767Y014070D01*
X028810Y014070D02*
X028723Y014070D01*
X028614Y014113D02*
X028614Y014287D01*
X028570Y014330D01*
X028483Y014330D01*
X028440Y014287D01*
X028319Y014243D02*
X028232Y014330D01*
X028232Y014070D01*
X028319Y014070D02*
X028145Y014070D01*
X028024Y014113D02*
X027851Y014287D01*
X027851Y014113D01*
X027894Y014070D01*
X027981Y014070D01*
X028024Y014113D01*
X028024Y014287D01*
X027981Y014330D01*
X027894Y014330D01*
X027851Y014287D01*
X027730Y014287D02*
X027730Y014113D01*
X027556Y014287D01*
X027556Y014113D01*
X027599Y014070D01*
X027686Y014070D01*
X027730Y014113D01*
X027730Y014287D02*
X027686Y014330D01*
X027599Y014330D01*
X027556Y014287D01*
X028440Y014113D02*
X028483Y014070D01*
X028570Y014070D01*
X028614Y014113D01*
X029492Y009170D02*
X029492Y008830D01*
X029605Y008830D02*
X029378Y008830D01*
X029605Y009057D02*
X029492Y009170D01*
X029747Y009114D02*
X029803Y009170D01*
X029917Y009170D01*
X029973Y009114D01*
X029973Y008887D01*
X029747Y009114D01*
X029747Y008887D01*
X029803Y008830D01*
X029917Y008830D01*
X029973Y008887D01*
X030115Y008830D02*
X030342Y008830D01*
X030228Y008830D02*
X030228Y009170D01*
X030342Y009057D01*
X030483Y009170D02*
X030597Y009170D01*
X030540Y009170D02*
X030540Y008887D01*
X030597Y008830D01*
X030653Y008830D01*
X030710Y008887D01*
X008940Y010160D02*
X008942Y010240D01*
X008948Y010319D01*
X008958Y010398D01*
X008972Y010477D01*
X008989Y010555D01*
X009011Y010632D01*
X009036Y010707D01*
X009066Y010781D01*
X009098Y010854D01*
X009135Y010925D01*
X009175Y010994D01*
X009218Y011061D01*
X009265Y011126D01*
X009314Y011188D01*
X009367Y011248D01*
X009423Y011305D01*
X009481Y011360D01*
X009542Y011411D01*
X009606Y011459D01*
X009672Y011504D01*
X009740Y011546D01*
X009810Y011584D01*
X009882Y011618D01*
X009955Y011649D01*
X010030Y011677D01*
X010107Y011700D01*
X010184Y011720D01*
X010262Y011736D01*
X010341Y011748D01*
X010420Y011756D01*
X010500Y011760D01*
X010580Y011760D01*
X010660Y011756D01*
X010739Y011748D01*
X010818Y011736D01*
X010896Y011720D01*
X010973Y011700D01*
X011050Y011677D01*
X011125Y011649D01*
X011198Y011618D01*
X011270Y011584D01*
X011340Y011546D01*
X011408Y011504D01*
X011474Y011459D01*
X011538Y011411D01*
X011599Y011360D01*
X011657Y011305D01*
X011713Y011248D01*
X011766Y011188D01*
X011815Y011126D01*
X011862Y011061D01*
X011905Y010994D01*
X011945Y010925D01*
X011982Y010854D01*
X012014Y010781D01*
X012044Y010707D01*
X012069Y010632D01*
X012091Y010555D01*
X012108Y010477D01*
X012122Y010398D01*
X012132Y010319D01*
X012138Y010240D01*
X012140Y010160D01*
X012138Y010080D01*
X012132Y010001D01*
X012122Y009922D01*
X012108Y009843D01*
X012091Y009765D01*
X012069Y009688D01*
X012044Y009613D01*
X012014Y009539D01*
X011982Y009466D01*
X011945Y009395D01*
X011905Y009326D01*
X011862Y009259D01*
X011815Y009194D01*
X011766Y009132D01*
X011713Y009072D01*
X011657Y009015D01*
X011599Y008960D01*
X011538Y008909D01*
X011474Y008861D01*
X011408Y008816D01*
X011340Y008774D01*
X011270Y008736D01*
X011198Y008702D01*
X011125Y008671D01*
X011050Y008643D01*
X010973Y008620D01*
X010896Y008600D01*
X010818Y008584D01*
X010739Y008572D01*
X010660Y008564D01*
X010580Y008560D01*
X010500Y008560D01*
X010420Y008564D01*
X010341Y008572D01*
X010262Y008584D01*
X010184Y008600D01*
X010107Y008620D01*
X010030Y008643D01*
X009955Y008671D01*
X009882Y008702D01*
X009810Y008736D01*
X009740Y008774D01*
X009672Y008816D01*
X009606Y008861D01*
X009542Y008909D01*
X009481Y008960D01*
X009423Y009015D01*
X009367Y009072D01*
X009314Y009132D01*
X009265Y009194D01*
X009218Y009259D01*
X009175Y009326D01*
X009135Y009395D01*
X009098Y009466D01*
X009066Y009539D01*
X009036Y009613D01*
X009011Y009688D01*
X008989Y009765D01*
X008972Y009843D01*
X008958Y009922D01*
X008948Y010001D01*
X008942Y010080D01*
X008940Y010160D01*
X009340Y009860D02*
X009340Y009560D01*
X009190Y009710D02*
X009490Y009710D01*
X009445Y018030D02*
X009358Y018030D01*
X009402Y018030D02*
X009402Y018290D01*
X009445Y018290D02*
X009358Y018290D01*
X009249Y018247D02*
X009249Y018073D01*
X009205Y018030D01*
X009118Y018030D01*
X009075Y018073D01*
X008954Y018030D02*
X008780Y018030D01*
X008867Y018030D02*
X008867Y018290D01*
X008954Y018203D01*
X009075Y018247D02*
X009118Y018290D01*
X009205Y018290D01*
X009249Y018247D01*
X008659Y018247D02*
X008616Y018290D01*
X008529Y018290D01*
X008486Y018247D01*
X008659Y018073D01*
X008616Y018030D01*
X008529Y018030D01*
X008486Y018073D01*
X008486Y018247D01*
X008365Y018203D02*
X008278Y018290D01*
X008278Y018030D01*
X008365Y018030D02*
X008191Y018030D01*
X008659Y018073D02*
X008659Y018247D01*
D14*
X006570Y004180D02*
X006570Y000500D01*
X006570Y001880D01*
X010110Y001880D01*
X010110Y000500D01*
X006570Y000500D01*
X006590Y001000D02*
X007340Y001000D01*
X007340Y001500D01*
X006590Y001500D01*
X009340Y001500D02*
X009340Y001000D01*
X010090Y001000D01*
X010090Y001500D02*
X009340Y001500D01*
X010110Y001880D02*
X010110Y006210D01*
X008870Y006210D01*
X007810Y006210D02*
X006570Y006210D01*
X006570Y005240D01*
X009890Y011945D02*
X009815Y012020D01*
X009815Y012320D01*
X010115Y012020D01*
X010040Y011945D01*
X009890Y011945D01*
X010115Y012020D02*
X010115Y012320D01*
X010040Y012395D01*
X009890Y012395D01*
X009815Y012320D01*
X010276Y012320D02*
X010576Y012020D01*
X010501Y011945D01*
X010351Y011945D01*
X010276Y012020D01*
X010276Y012320D01*
X010351Y012395D01*
X010501Y012395D01*
X010576Y012320D01*
X010576Y012020D01*
X010736Y011945D02*
X011036Y011945D01*
X010886Y011945D02*
X010886Y012395D01*
X011036Y012245D01*
X011196Y012320D02*
X011271Y012395D01*
X011422Y012395D01*
X011497Y012320D01*
X011497Y012020D01*
X011422Y011945D01*
X011271Y011945D01*
X011196Y012020D01*
D15*
X009820Y005550D02*
X009360Y005550D01*
X009590Y005550D02*
X009590Y005243D01*
X009513Y005089D02*
X009437Y005089D01*
X009360Y005013D01*
X009360Y004782D01*
X009820Y004782D01*
X009820Y005013D01*
X009744Y005089D01*
X009667Y005089D01*
X009590Y005013D01*
X009590Y004782D01*
X009667Y004629D02*
X009744Y004629D01*
X009820Y004552D01*
X009820Y004399D01*
X009744Y004322D01*
X009744Y004168D02*
X009437Y003862D01*
X009360Y003938D01*
X009360Y004092D01*
X009437Y004168D01*
X009744Y004168D01*
X009820Y004092D01*
X009820Y003938D01*
X009744Y003862D01*
X009437Y003862D01*
X009360Y003708D02*
X009360Y003401D01*
X009360Y003555D02*
X009820Y003555D01*
X009667Y003401D01*
X009590Y003248D02*
X009590Y002941D01*
X009437Y002711D02*
X009360Y002634D01*
X009360Y002557D01*
X009437Y002480D01*
X009590Y002327D02*
X009513Y002250D01*
X009513Y002020D01*
X009360Y002020D02*
X009820Y002020D01*
X009820Y002250D01*
X009744Y002327D01*
X009590Y002327D01*
X009820Y002634D02*
X009820Y002787D01*
X009820Y002711D02*
X009437Y002711D01*
X009360Y004322D02*
X009667Y004629D01*
X009360Y004629D02*
X009360Y004322D01*
X009590Y005013D02*
X009513Y005089D01*
X009360Y005243D02*
X009820Y005243D01*
M02*
