G75*
%MOIN*%
%OFA0B0*%
%FSLAX24Y24*%
%IPPOS*%
%LPD*%
%AMOC8*
5,1,8,0,0,1.08239X$1,22.5*
%
%ADD10C,0.0100*%
%ADD11C,0.0110*%
%ADD12C,0.0060*%
%ADD13C,0.0079*%
%ADD14C,0.0070*%
%ADD15C,0.0223*%
%ADD16R,0.0160X0.0060*%
%ADD17C,0.0050*%
%ADD18R,0.0142X0.0142*%
%ADD19C,0.0080*%
%ADD20C,0.0240*%
%ADD21C,0.0020*%
D10*
X004856Y005488D02*
X005998Y005488D01*
X005998Y006473D01*
X010722Y006473D01*
X010722Y005488D01*
X011864Y005488D01*
X011864Y005803D01*
X012809Y005803D01*
X012809Y008717D01*
X011864Y008717D01*
X011864Y009032D01*
X010722Y009032D01*
X010722Y008047D01*
X005998Y008047D01*
X005998Y009032D01*
X004856Y009032D01*
X004856Y008717D01*
X003911Y008717D01*
X003911Y005803D01*
X004856Y005803D01*
X004856Y005488D01*
X006867Y002790D02*
X006790Y002714D01*
X006790Y002637D01*
X006867Y002560D01*
X007097Y002560D01*
X007097Y002407D02*
X007097Y002714D01*
X007020Y002790D01*
X006867Y002790D01*
X006790Y002407D02*
X006867Y002330D01*
X007020Y002330D01*
X007097Y002407D01*
X007306Y002560D02*
X007613Y002560D01*
X007821Y002714D02*
X007898Y002790D01*
X008051Y002790D01*
X008128Y002714D01*
X008128Y002637D01*
X007821Y002330D01*
X008128Y002330D01*
X008337Y002560D02*
X008567Y002790D01*
X008567Y002330D01*
X008644Y002560D02*
X008337Y002560D01*
X008853Y002483D02*
X008853Y002790D01*
X009159Y002790D02*
X009159Y002483D01*
X009006Y002330D01*
X008853Y002483D01*
X009884Y002330D02*
X010114Y002330D01*
X010191Y002407D01*
X010191Y002714D01*
X010114Y002790D01*
X009884Y002790D01*
X009884Y002330D01*
X010399Y002407D02*
X010476Y002330D01*
X010630Y002330D01*
X010706Y002407D01*
X010399Y002407D02*
X010399Y002714D01*
X010476Y002790D01*
X010630Y002790D01*
X010706Y002714D01*
X012990Y002610D02*
X012990Y002150D01*
X013297Y002150D02*
X012990Y002610D01*
X013297Y002610D02*
X013297Y002150D01*
X013506Y002150D02*
X013506Y002610D01*
X013813Y002610D01*
X013659Y002380D02*
X013506Y002380D01*
X013506Y002150D02*
X013813Y002150D01*
X013813Y002990D02*
X013582Y002990D01*
X013506Y003067D01*
X013582Y003143D01*
X013813Y003143D01*
X013813Y003220D02*
X013813Y002990D01*
X014021Y002990D02*
X014021Y003297D01*
X014251Y003297D01*
X014328Y003220D01*
X014328Y002990D01*
X014537Y003067D02*
X014537Y003220D01*
X014614Y003297D01*
X014767Y003297D01*
X014844Y003220D01*
X014844Y003143D01*
X014537Y003143D01*
X014537Y003067D02*
X014614Y002990D01*
X014767Y002990D01*
X015053Y002990D02*
X015206Y002990D01*
X015129Y002990D02*
X015129Y003450D01*
X015053Y003450D01*
X015912Y003220D02*
X016219Y003220D01*
X016142Y002990D02*
X016142Y003450D01*
X015912Y003220D01*
X017490Y003143D02*
X017720Y003143D01*
X017797Y003220D01*
X017797Y003374D01*
X017720Y003450D01*
X017490Y003450D01*
X017490Y002990D01*
X017567Y002610D02*
X017490Y002534D01*
X017490Y002457D01*
X017567Y002380D01*
X017720Y002380D01*
X017797Y002303D01*
X017797Y002227D01*
X017720Y002150D01*
X017567Y002150D01*
X017490Y002227D01*
X017567Y002610D02*
X017720Y002610D01*
X017797Y002534D01*
X018006Y002610D02*
X018006Y002150D01*
X018313Y002150D01*
X018159Y002380D02*
X018006Y002380D01*
X018006Y002610D02*
X018313Y002610D01*
X018313Y002990D02*
X018082Y002990D01*
X018006Y003067D01*
X018082Y003143D01*
X018313Y003143D01*
X018313Y003220D02*
X018313Y002990D01*
X018521Y002990D02*
X018521Y003297D01*
X018751Y003297D01*
X018828Y003220D01*
X018828Y002990D01*
X019037Y003067D02*
X019037Y003220D01*
X019114Y003297D01*
X019267Y003297D01*
X019344Y003220D01*
X019344Y003143D01*
X019037Y003143D01*
X019037Y003067D02*
X019114Y002990D01*
X019267Y002990D01*
X019553Y002990D02*
X019706Y002990D01*
X019629Y002990D02*
X019629Y003450D01*
X019553Y003450D01*
X020412Y003374D02*
X020489Y003450D01*
X020642Y003450D01*
X020719Y003374D01*
X020719Y003297D01*
X020642Y003220D01*
X020719Y003143D01*
X020719Y003067D01*
X020642Y002990D01*
X020489Y002990D01*
X020412Y003067D01*
X020565Y003220D02*
X020642Y003220D01*
X021990Y003146D02*
X022220Y003146D01*
X022296Y003223D01*
X022296Y003377D01*
X022220Y003453D01*
X021990Y003453D01*
X021990Y002993D01*
X022066Y002613D02*
X021990Y002537D01*
X021990Y002460D01*
X022066Y002383D01*
X022220Y002383D01*
X022296Y002306D01*
X022296Y002230D01*
X022220Y002153D01*
X022066Y002153D01*
X021990Y002230D01*
X022066Y002613D02*
X022220Y002613D01*
X022296Y002537D01*
X022505Y002613D02*
X022505Y002153D01*
X022659Y002306D01*
X022812Y002153D01*
X022812Y002613D01*
X022812Y002993D02*
X022582Y002993D01*
X022505Y003070D01*
X022582Y003146D01*
X022812Y003146D01*
X022812Y003223D02*
X022812Y002993D01*
X023021Y002993D02*
X023021Y003300D01*
X023251Y003300D01*
X023328Y003223D01*
X023328Y002993D01*
X023536Y003070D02*
X023536Y003223D01*
X023613Y003300D01*
X023767Y003300D01*
X023843Y003223D01*
X023843Y003146D01*
X023536Y003146D01*
X023536Y003070D02*
X023613Y002993D01*
X023767Y002993D01*
X024052Y002993D02*
X024206Y002993D01*
X024129Y002993D02*
X024129Y003453D01*
X024052Y003453D01*
X024911Y003377D02*
X024988Y003453D01*
X025142Y003453D01*
X025218Y003377D01*
X025218Y003300D01*
X024911Y002993D01*
X025218Y002993D01*
X026290Y002990D02*
X026290Y003450D01*
X026520Y003450D01*
X026597Y003374D01*
X026597Y003220D01*
X026520Y003143D01*
X026290Y003143D01*
X026806Y003067D02*
X026882Y003143D01*
X027113Y003143D01*
X027113Y003220D02*
X027113Y002990D01*
X026882Y002990D01*
X026806Y003067D01*
X026882Y003297D02*
X027036Y003297D01*
X027113Y003220D01*
X027321Y003297D02*
X027551Y003297D01*
X027628Y003220D01*
X027628Y002990D01*
X027837Y003067D02*
X027837Y003220D01*
X027914Y003297D01*
X028067Y003297D01*
X028144Y003220D01*
X028144Y003143D01*
X027837Y003143D01*
X027837Y003067D02*
X027914Y002990D01*
X028067Y002990D01*
X028353Y002990D02*
X028506Y002990D01*
X028429Y002990D02*
X028429Y003450D01*
X028353Y003450D01*
X029212Y003297D02*
X029365Y003450D01*
X029365Y002990D01*
X029212Y002990D02*
X029519Y002990D01*
X027321Y002990D02*
X027321Y003297D01*
X027113Y002610D02*
X027113Y002150D01*
X026959Y002303D01*
X026806Y002150D01*
X026806Y002610D01*
X026597Y002610D02*
X026597Y002150D01*
X026290Y002610D01*
X026290Y002150D01*
X022812Y003223D02*
X022735Y003300D01*
X022582Y003300D01*
X018313Y003220D02*
X018236Y003297D01*
X018082Y003297D01*
X013813Y003220D02*
X013736Y003297D01*
X013582Y003297D01*
X013297Y003374D02*
X013297Y003220D01*
X013220Y003143D01*
X012990Y003143D01*
X012990Y002990D02*
X012990Y003450D01*
X013220Y003450D01*
X013297Y003374D01*
X009481Y008370D02*
X009174Y008370D01*
X009328Y008370D02*
X009328Y008830D01*
X009174Y008677D01*
X008966Y008830D02*
X008659Y008830D01*
X008659Y008370D01*
X008966Y008370D01*
X008812Y008600D02*
X008659Y008600D01*
X008450Y008523D02*
X008450Y008447D01*
X008373Y008370D01*
X008220Y008370D01*
X008143Y008447D01*
X008220Y008600D02*
X008143Y008677D01*
X008143Y008754D01*
X008220Y008830D01*
X008373Y008830D01*
X008450Y008754D01*
X008373Y008600D02*
X008450Y008523D01*
X008373Y008600D02*
X008220Y008600D01*
X007934Y008447D02*
X007934Y008830D01*
X007627Y008830D02*
X007627Y008447D01*
X007704Y008370D01*
X007858Y008370D01*
X007934Y008447D01*
X007419Y008830D02*
X007112Y008830D01*
X007112Y008370D01*
X007112Y008600D02*
X007265Y008600D01*
X002446Y034337D02*
X002446Y034797D01*
X002676Y034797D01*
X002753Y034720D01*
X002753Y034567D01*
X002676Y034490D01*
X002446Y034490D01*
X002237Y034567D02*
X002160Y034490D01*
X002007Y034490D01*
X001930Y034567D01*
X002007Y034720D02*
X002160Y034720D01*
X002237Y034643D01*
X002237Y034567D01*
X002007Y034720D02*
X001930Y034797D01*
X001930Y034874D01*
X002007Y034950D01*
X002160Y034950D01*
X002237Y034874D01*
X002961Y034720D02*
X003038Y034797D01*
X003191Y034797D01*
X003268Y034720D01*
X003268Y034643D01*
X002961Y034643D01*
X002961Y034567D02*
X002961Y034720D01*
X002961Y034567D02*
X003038Y034490D01*
X003191Y034490D01*
X003477Y034567D02*
X003477Y034720D01*
X003554Y034797D01*
X003707Y034797D01*
X003784Y034720D01*
X003784Y034643D01*
X003477Y034643D01*
X003477Y034567D02*
X003554Y034490D01*
X003707Y034490D01*
X003993Y034567D02*
X003993Y034720D01*
X004069Y034797D01*
X004299Y034797D01*
X004299Y034950D02*
X004299Y034490D01*
X004069Y034490D01*
X003993Y034567D01*
X003630Y037850D02*
X003630Y038310D01*
X003477Y038310D02*
X003784Y038310D01*
X003268Y038234D02*
X003268Y038080D01*
X003191Y038003D01*
X002961Y038003D01*
X002961Y037850D02*
X002961Y038310D01*
X003191Y038310D01*
X003268Y038234D01*
X003115Y038003D02*
X003268Y037850D01*
X002753Y037927D02*
X002753Y038234D01*
X002676Y038310D01*
X002522Y038310D01*
X002446Y038234D01*
X002446Y037927D01*
X002522Y037850D01*
X002676Y037850D01*
X002753Y037927D01*
X002237Y038080D02*
X002160Y038003D01*
X001930Y038003D01*
X001930Y037850D02*
X001930Y038310D01*
X002160Y038310D01*
X002237Y038234D01*
X002237Y038080D01*
X004508Y038234D02*
X004585Y038310D01*
X004738Y038310D01*
X004815Y038234D01*
X004815Y038157D01*
X004508Y037850D01*
X004815Y037850D01*
X003535Y041090D02*
X003305Y041243D01*
X003535Y041397D01*
X003305Y041550D02*
X003305Y041090D01*
X003096Y041090D02*
X003096Y041320D01*
X003020Y041397D01*
X002789Y041397D01*
X002789Y041090D01*
X002599Y041090D02*
X002446Y041090D01*
X002522Y041090D02*
X002522Y041397D01*
X002446Y041397D01*
X002522Y041550D02*
X002522Y041627D01*
X002237Y041090D02*
X001930Y041090D01*
X001930Y041550D01*
X009501Y041516D02*
X009655Y041516D01*
X009578Y041516D02*
X009578Y041056D01*
X009501Y041056D02*
X009655Y041056D01*
X009845Y041056D02*
X009845Y041516D01*
X010075Y041516D01*
X010152Y041439D01*
X010152Y041286D01*
X010075Y041209D01*
X009845Y041209D01*
X009732Y040676D02*
X009808Y040599D01*
X009808Y040446D01*
X009732Y040369D01*
X009501Y040369D01*
X009501Y040216D02*
X009501Y040676D01*
X009732Y040676D01*
X009655Y040369D02*
X009808Y040216D01*
X010017Y040292D02*
X010017Y040446D01*
X010094Y040522D01*
X010247Y040522D01*
X010324Y040446D01*
X010324Y040369D01*
X010017Y040369D01*
X010017Y040292D02*
X010094Y040216D01*
X010247Y040216D01*
X010533Y040522D02*
X010686Y040216D01*
X010840Y040522D01*
X010953Y041056D02*
X011107Y041056D01*
X011183Y041132D01*
X011392Y041132D02*
X011469Y041056D01*
X011622Y041056D01*
X011699Y041132D01*
X011699Y041286D01*
X011622Y041362D01*
X011469Y041362D01*
X011392Y041286D01*
X011392Y041132D01*
X011183Y041439D02*
X011107Y041516D01*
X010953Y041516D01*
X010877Y041439D01*
X010877Y041132D01*
X010953Y041056D01*
X011564Y040599D02*
X011641Y040676D01*
X011794Y040676D01*
X011871Y040599D01*
X011871Y040522D01*
X011794Y040446D01*
X011871Y040369D01*
X011871Y040292D01*
X011794Y040216D01*
X011641Y040216D01*
X011564Y040292D01*
X011718Y040446D02*
X011794Y040446D01*
X011908Y041056D02*
X011908Y041362D01*
X012138Y041362D01*
X012215Y041286D01*
X012215Y041056D01*
X012500Y041132D02*
X012500Y041439D01*
X012423Y041362D02*
X012577Y041362D01*
X012767Y041362D02*
X012767Y041056D01*
X012767Y041209D02*
X012921Y041362D01*
X012997Y041362D01*
X013197Y041286D02*
X013197Y041132D01*
X013274Y041056D01*
X013427Y041056D01*
X013504Y041132D01*
X013504Y041286D01*
X013427Y041362D01*
X013274Y041362D01*
X013197Y041286D01*
X013713Y041516D02*
X013789Y041516D01*
X013789Y041056D01*
X013713Y041056D02*
X013866Y041056D01*
X014056Y041056D02*
X014210Y041056D01*
X014133Y041056D02*
X014133Y041516D01*
X014056Y041516D01*
X014400Y041286D02*
X014400Y041132D01*
X014477Y041056D01*
X014630Y041056D01*
X014707Y041209D02*
X014400Y041209D01*
X014400Y041286D02*
X014477Y041362D01*
X014630Y041362D01*
X014707Y041286D01*
X014707Y041209D01*
X014916Y041209D02*
X015069Y041362D01*
X015146Y041362D01*
X014916Y041362D02*
X014916Y041056D01*
X014811Y040676D02*
X014658Y040522D01*
X014811Y040676D02*
X014811Y040216D01*
X014658Y040216D02*
X014965Y040216D01*
X015174Y040292D02*
X015174Y040446D01*
X015404Y040446D01*
X015480Y040369D01*
X015480Y040292D01*
X015404Y040216D01*
X015250Y040216D01*
X015174Y040292D01*
X015174Y040446D02*
X015327Y040599D01*
X015480Y040676D01*
X015689Y040599D02*
X015689Y040292D01*
X015996Y040599D01*
X015996Y040292D01*
X015919Y040216D01*
X015766Y040216D01*
X015689Y040292D01*
X015689Y040599D02*
X015766Y040676D01*
X015919Y040676D01*
X015996Y040599D01*
X016205Y040446D02*
X016512Y040446D01*
X016435Y040676D02*
X016205Y040446D01*
X016435Y040216D02*
X016435Y040676D01*
X016720Y040599D02*
X016797Y040676D01*
X016951Y040676D01*
X017027Y040599D01*
X016720Y040292D01*
X016797Y040216D01*
X016951Y040216D01*
X017027Y040292D01*
X017027Y040599D01*
X017236Y040522D02*
X017390Y040676D01*
X017390Y040216D01*
X017543Y040216D02*
X017236Y040216D01*
X016720Y040292D02*
X016720Y040599D01*
X014449Y040599D02*
X014449Y040292D01*
X014372Y040216D01*
X014219Y040216D01*
X014142Y040292D01*
X014449Y040599D01*
X014372Y040676D01*
X014219Y040676D01*
X014142Y040599D01*
X014142Y040292D01*
X013934Y040216D02*
X013627Y040216D01*
X013934Y040522D01*
X013934Y040599D01*
X013857Y040676D01*
X013703Y040676D01*
X013627Y040599D01*
X012902Y040446D02*
X012595Y040446D01*
X012577Y041056D02*
X012500Y041132D01*
X034356Y038353D02*
X034356Y037893D01*
X034356Y038046D02*
X034586Y038046D01*
X034663Y038123D01*
X034663Y038277D01*
X034586Y038353D01*
X034356Y038353D01*
X034871Y038277D02*
X034871Y037970D01*
X034948Y037893D01*
X035102Y037893D01*
X035178Y037970D01*
X035178Y038277D01*
X035102Y038353D01*
X034948Y038353D01*
X034871Y038277D01*
X035387Y038353D02*
X035387Y037893D01*
X035387Y038046D02*
X035617Y038046D01*
X035694Y038123D01*
X035694Y038277D01*
X035617Y038353D01*
X035387Y038353D01*
X035540Y038046D02*
X035694Y037893D01*
X036056Y037893D02*
X036056Y038353D01*
X035903Y038353D02*
X036210Y038353D01*
X036934Y038200D02*
X037087Y038353D01*
X037087Y037893D01*
X036934Y037893D02*
X037241Y037893D01*
X036980Y035000D02*
X036980Y034540D01*
X036980Y034693D02*
X037210Y034847D01*
X036980Y034693D02*
X037210Y034540D01*
X036771Y034540D02*
X036771Y034770D01*
X036694Y034847D01*
X036464Y034847D01*
X036464Y034540D01*
X036274Y034540D02*
X036120Y034540D01*
X036197Y034540D02*
X036197Y034847D01*
X036120Y034847D01*
X036197Y035000D02*
X036197Y035077D01*
X035605Y035000D02*
X035605Y034540D01*
X035912Y034540D01*
X035463Y040950D02*
X035463Y041410D01*
X035693Y041410D01*
X035770Y041334D01*
X035770Y041180D01*
X035693Y041103D01*
X035463Y041103D01*
X035254Y041180D02*
X035178Y041103D01*
X035024Y041103D01*
X034947Y041180D01*
X035024Y041334D02*
X035178Y041334D01*
X035254Y041257D01*
X035254Y041180D01*
X035024Y041334D02*
X034947Y041410D01*
X034947Y041487D01*
X035024Y041564D01*
X035178Y041564D01*
X035254Y041487D01*
X035979Y041334D02*
X035979Y041180D01*
X036055Y041103D01*
X036209Y041103D01*
X036286Y041257D02*
X035979Y041257D01*
X035979Y041334D02*
X036055Y041410D01*
X036209Y041410D01*
X036286Y041334D01*
X036286Y041257D01*
X036494Y041257D02*
X036801Y041257D01*
X036801Y041334D01*
X036725Y041410D01*
X036571Y041410D01*
X036494Y041334D01*
X036494Y041180D01*
X036571Y041103D01*
X036725Y041103D01*
X037010Y041180D02*
X037010Y041334D01*
X037087Y041410D01*
X037317Y041410D01*
X037317Y041564D02*
X037317Y041103D01*
X037087Y041103D01*
X037010Y041180D01*
D11*
X014778Y026389D02*
X014778Y026093D01*
X014679Y025995D01*
X014581Y026093D01*
X014483Y025995D01*
X014384Y026093D01*
X014384Y026389D01*
X014133Y026290D02*
X014133Y026093D01*
X014035Y025995D01*
X013838Y025995D01*
X013740Y026093D01*
X013740Y026290D01*
X013838Y026389D01*
X014035Y026389D01*
X014133Y026290D01*
X013489Y026290D02*
X013390Y026192D01*
X013095Y026192D01*
X013292Y026192D02*
X013489Y025995D01*
X013489Y026290D02*
X013489Y026487D01*
X013390Y026586D01*
X013095Y026586D01*
X013095Y025995D01*
X013153Y023226D02*
X013055Y023127D01*
X013055Y022733D01*
X013153Y022635D01*
X013350Y022635D01*
X013449Y022733D01*
X013700Y022733D02*
X013700Y022930D01*
X013798Y023029D01*
X013995Y023029D01*
X014093Y022930D01*
X014093Y022733D01*
X013995Y022635D01*
X013798Y022635D01*
X013700Y022733D01*
X013449Y023127D02*
X013350Y023226D01*
X013153Y023226D01*
X014344Y023226D02*
X014443Y023226D01*
X014443Y022635D01*
X014541Y022635D02*
X014344Y022635D01*
D12*
X014720Y019870D02*
X013640Y019870D01*
X013640Y019330D01*
X014720Y019330D01*
X014720Y019870D01*
X014720Y019270D02*
X014720Y018730D01*
X013640Y018730D01*
X013640Y019270D01*
X014720Y019270D01*
X012916Y017330D02*
X012796Y017210D01*
X012956Y017210D01*
X012916Y017090D02*
X012916Y017330D01*
X012680Y017330D02*
X012600Y017330D01*
X012640Y017330D02*
X012640Y017130D01*
X012600Y017090D01*
X012560Y017090D01*
X012520Y017130D01*
X011380Y016050D02*
X011380Y015510D01*
X010300Y015510D01*
X010300Y016050D01*
X011380Y016050D01*
X010300Y016230D02*
X010300Y015330D01*
X008500Y015330D01*
X008500Y016230D01*
X010300Y016230D01*
X009728Y015150D02*
X009728Y015110D01*
X009568Y014950D01*
X009568Y014910D01*
X009452Y014950D02*
X009412Y014910D01*
X009332Y014910D01*
X009292Y014950D01*
X009372Y015030D02*
X009412Y015030D01*
X009452Y014990D01*
X009452Y014950D01*
X009412Y015030D02*
X009452Y015070D01*
X009452Y015110D01*
X009412Y015150D01*
X009332Y015150D01*
X009292Y015110D01*
X009176Y015110D02*
X009136Y015150D01*
X009056Y015150D01*
X009016Y015110D01*
X009016Y014950D01*
X009056Y014910D01*
X009136Y014910D01*
X009176Y014950D01*
X009568Y015150D02*
X009728Y015150D01*
X007680Y016830D02*
X007680Y017370D01*
X006600Y017370D01*
X006600Y016830D01*
X007680Y016830D01*
X007580Y019530D02*
X006500Y019530D01*
X006500Y020070D01*
X007580Y020070D01*
X007580Y019530D01*
X007580Y020130D02*
X007580Y020670D01*
X006500Y020670D01*
X006500Y020130D01*
X007580Y020130D01*
X007580Y021530D02*
X006500Y021530D01*
X006500Y022070D01*
X007580Y022070D01*
X007580Y021530D01*
X007580Y022130D02*
X007580Y022670D01*
X006500Y022670D01*
X006500Y022130D01*
X007580Y022130D01*
X007580Y023530D02*
X006500Y023530D01*
X006500Y024070D01*
X007580Y024070D01*
X007580Y023530D01*
X007580Y024130D02*
X007580Y024670D01*
X006500Y024670D01*
X006500Y024130D01*
X007580Y024130D01*
X007580Y025530D02*
X006500Y025530D01*
X006500Y026070D01*
X007580Y026070D01*
X007580Y025530D01*
X007580Y026130D02*
X007580Y026670D01*
X006500Y026670D01*
X006500Y026130D01*
X007580Y026130D01*
X011720Y029290D02*
X011720Y029830D01*
X012800Y029830D01*
X012800Y029290D01*
X011720Y029290D01*
X011720Y029830D02*
X011720Y030370D01*
X012800Y030370D01*
X012800Y029830D01*
X011720Y029830D01*
X013682Y029040D02*
X013682Y028880D01*
X013722Y028840D01*
X013802Y028840D01*
X013842Y028880D01*
X013959Y028840D02*
X014119Y028840D01*
X014039Y028840D02*
X014039Y029080D01*
X013959Y029000D01*
X013842Y029040D02*
X013802Y029080D01*
X013722Y029080D01*
X013682Y029040D01*
X014235Y029080D02*
X014395Y029080D01*
X014395Y029040D01*
X014235Y028880D01*
X014235Y028840D01*
X015440Y030730D02*
X015440Y031270D01*
X016520Y031270D01*
X016520Y030730D01*
X015440Y030730D01*
X015440Y031570D02*
X015440Y032110D01*
X016520Y032110D01*
X016520Y031570D01*
X015440Y031570D01*
X016100Y033270D02*
X016100Y033810D01*
X017180Y033810D01*
X017180Y033270D01*
X016100Y033270D01*
X016100Y033810D02*
X016100Y034350D01*
X016100Y034890D01*
X017180Y034890D01*
X017180Y034350D01*
X016100Y034350D01*
X017180Y034350D01*
X017180Y033810D01*
X016100Y033810D01*
X016100Y034890D02*
X016100Y035430D01*
X017180Y035430D01*
X017180Y034890D01*
X016100Y034890D01*
X016100Y035430D02*
X016100Y035970D01*
X017180Y035970D01*
X017180Y035430D01*
X016100Y035430D01*
X016100Y035970D02*
X016100Y036510D01*
X017180Y036510D01*
X017180Y035970D01*
X016100Y035970D01*
X017992Y037080D02*
X018032Y037040D01*
X018112Y037040D01*
X018152Y037080D01*
X018269Y037080D02*
X018309Y037040D01*
X018389Y037040D01*
X018429Y037080D01*
X018429Y037120D01*
X018389Y037160D01*
X018349Y037160D01*
X018389Y037160D02*
X018429Y037200D01*
X018429Y037240D01*
X018389Y037280D01*
X018309Y037280D01*
X018269Y037240D01*
X018152Y037240D02*
X018112Y037280D01*
X018032Y037280D01*
X017992Y037240D01*
X017992Y037080D01*
X017570Y037980D02*
X017030Y037980D01*
X017030Y039060D01*
X017570Y039060D01*
X017570Y037980D01*
X018870Y038420D02*
X018870Y037340D01*
X019410Y037340D01*
X019410Y038420D01*
X018870Y038420D01*
X019470Y038420D02*
X020010Y038420D01*
X020010Y037340D01*
X019470Y037340D01*
X019470Y038420D01*
X019310Y038880D02*
X020210Y038880D01*
X020210Y040680D01*
X019310Y040680D01*
X019310Y038880D01*
X020070Y038420D02*
X020610Y038420D01*
X020610Y037340D01*
X020070Y037340D01*
X020070Y038420D01*
X021092Y037250D02*
X021052Y037210D01*
X021052Y037050D01*
X021092Y037010D01*
X021172Y037010D01*
X021212Y037050D01*
X021329Y037130D02*
X021489Y037130D01*
X021449Y037010D02*
X021449Y037250D01*
X021329Y037130D01*
X021212Y037210D02*
X021172Y037250D01*
X021092Y037250D01*
X021950Y038040D02*
X021950Y039120D01*
X022490Y039120D01*
X022490Y038040D01*
X021950Y038040D01*
X022100Y036510D02*
X023180Y036510D01*
X023180Y035970D01*
X022100Y035970D01*
X022100Y036510D01*
X022100Y035970D02*
X023180Y035970D01*
X023180Y035430D01*
X023180Y034890D01*
X022100Y034890D01*
X022100Y035430D01*
X023180Y035430D01*
X022100Y035430D01*
X022100Y035970D01*
X022100Y034890D02*
X023180Y034890D01*
X023180Y034350D01*
X022100Y034350D01*
X022100Y034890D01*
X022100Y034350D02*
X023180Y034350D01*
X023180Y033810D01*
X022100Y033810D01*
X022100Y034350D01*
X022100Y033810D02*
X023180Y033810D01*
X023180Y033270D01*
X022100Y033270D01*
X022100Y033810D01*
X023300Y032610D02*
X024380Y032610D01*
X024380Y032070D01*
X023300Y032070D01*
X023300Y032610D01*
X023300Y032070D02*
X024380Y032070D01*
X024380Y031530D01*
X023300Y031530D01*
X023300Y032070D01*
X023300Y031530D02*
X023300Y030990D01*
X024380Y030990D01*
X024380Y031530D01*
X023300Y031530D01*
X023268Y030293D02*
X023268Y030132D01*
X023268Y030213D02*
X023027Y030213D01*
X023107Y030132D01*
X023027Y030016D02*
X023268Y030016D01*
X023027Y029856D01*
X023268Y029856D01*
X023268Y029740D02*
X023187Y029660D01*
X023187Y029700D02*
X023187Y029580D01*
X023268Y029580D02*
X023027Y029580D01*
X023027Y029700D01*
X023067Y029740D01*
X023147Y029740D01*
X023187Y029700D01*
X022700Y029110D02*
X022700Y028570D01*
X022700Y028030D01*
X022700Y027490D01*
X021620Y027490D01*
X021620Y028030D01*
X022700Y028030D01*
X021620Y028030D01*
X021620Y028570D01*
X022700Y028570D01*
X021620Y028570D01*
X021620Y029110D01*
X022700Y029110D01*
X023580Y027975D02*
X023540Y027935D01*
X023540Y027855D01*
X023580Y027815D01*
X023620Y027815D01*
X023660Y027855D01*
X023660Y027975D01*
X023740Y027975D02*
X023580Y027975D01*
X023740Y027975D02*
X023780Y027935D01*
X023780Y027855D01*
X023740Y027815D01*
X023780Y027699D02*
X023780Y027539D01*
X023780Y027619D02*
X023540Y027619D01*
X023620Y027539D01*
X023580Y027422D02*
X023540Y027382D01*
X023540Y027302D01*
X023580Y027262D01*
X023740Y027262D01*
X023780Y027302D01*
X023780Y027382D01*
X023740Y027422D01*
X024260Y026410D02*
X023180Y026410D01*
X023180Y025870D01*
X023180Y025330D01*
X023180Y024790D01*
X024260Y024790D01*
X024260Y025330D01*
X023180Y025330D01*
X024260Y025330D01*
X024260Y025870D01*
X023180Y025870D01*
X024260Y025870D01*
X024260Y026410D01*
X024260Y024790D02*
X023180Y024790D01*
X023180Y024250D01*
X023180Y023710D01*
X023180Y023170D01*
X024260Y023170D01*
X024260Y023710D01*
X023180Y023710D01*
X024260Y023710D01*
X024260Y024250D01*
X023180Y024250D01*
X024260Y024250D01*
X024260Y024790D01*
X024260Y023110D02*
X023180Y023110D01*
X023180Y022570D01*
X024260Y022570D01*
X024260Y023110D01*
X024260Y022150D02*
X024260Y021610D01*
X023180Y021610D01*
X023180Y022150D01*
X024260Y022150D01*
X024260Y021550D02*
X024260Y021010D01*
X024260Y020470D01*
X023180Y020470D01*
X023180Y021010D01*
X024260Y021010D01*
X023180Y021010D01*
X023180Y021550D01*
X024260Y021550D01*
X024260Y019870D02*
X023180Y019870D01*
X023180Y019330D01*
X024260Y019330D01*
X024260Y019870D01*
X024260Y019270D02*
X024260Y018730D01*
X023180Y018730D01*
X023180Y019270D01*
X024260Y019270D01*
X026590Y019550D02*
X026790Y019400D01*
X026790Y019200D01*
X026790Y018600D01*
X026990Y018600D01*
X027090Y018600D01*
X027090Y019200D01*
X027090Y021100D01*
X026990Y021100D01*
X026590Y021100D01*
X026590Y022700D01*
X026590Y023250D01*
X026790Y023400D01*
X026790Y023600D01*
X026790Y024200D01*
X026790Y024400D01*
X026590Y024550D01*
X026590Y025100D01*
X026640Y025100D01*
X026640Y025700D01*
X026590Y025700D01*
X026590Y027400D01*
X030090Y027400D01*
X030090Y026900D01*
X030190Y026900D01*
X030190Y026400D01*
X030090Y026400D01*
X030090Y022150D01*
X030190Y022150D01*
X030190Y021650D01*
X030090Y021650D01*
X030090Y017400D01*
X030190Y017400D01*
X030190Y016900D01*
X030090Y016900D01*
X030090Y016400D01*
X026590Y016400D01*
X026590Y018250D01*
X026790Y018400D01*
X026790Y018600D01*
X027090Y018600D02*
X027090Y016900D01*
X029590Y016900D01*
X029590Y026900D01*
X027090Y026900D01*
X027090Y024200D01*
X027090Y023600D01*
X026990Y023600D01*
X026790Y023600D01*
X027090Y023600D02*
X027090Y022700D01*
X026990Y022700D01*
X026590Y022700D01*
X027090Y022700D02*
X027390Y022700D01*
X027390Y021100D01*
X027090Y021100D01*
X026590Y021100D02*
X026590Y019550D01*
X026790Y019200D02*
X026990Y019200D01*
X027090Y019200D01*
X024417Y016173D02*
X024190Y016173D01*
X024190Y015947D02*
X024417Y015947D01*
X024530Y016060D01*
X024417Y016173D01*
X024473Y015805D02*
X024530Y015748D01*
X024530Y015635D01*
X024473Y015578D01*
X024360Y015578D02*
X024303Y015692D01*
X024303Y015748D01*
X024360Y015805D01*
X024473Y015805D01*
X024360Y015578D02*
X024190Y015578D01*
X024190Y015805D01*
X024360Y015437D02*
X024360Y015210D01*
X024473Y015323D02*
X024246Y015323D01*
X023510Y015267D02*
X023510Y015380D01*
X023453Y015437D01*
X023340Y015437D01*
X023340Y015323D01*
X023453Y015210D02*
X023510Y015267D01*
X023453Y015210D02*
X023226Y015210D01*
X023170Y015267D01*
X023170Y015380D01*
X023226Y015437D01*
X023283Y015578D02*
X023283Y015748D01*
X023340Y015805D01*
X023510Y015805D01*
X023453Y015947D02*
X023340Y015947D01*
X023283Y016003D01*
X023283Y016173D01*
X023170Y016173D02*
X023510Y016173D01*
X023510Y016003D01*
X023453Y015947D01*
X023510Y015578D02*
X023283Y015578D01*
X021480Y017730D02*
X020400Y017730D01*
X020400Y018270D01*
X021480Y018270D01*
X021480Y017730D01*
X021790Y019230D02*
X021790Y019310D01*
X021790Y019270D02*
X022030Y019270D01*
X022030Y019230D02*
X022030Y019310D01*
X021990Y019414D02*
X022030Y019454D01*
X022030Y019534D01*
X021990Y019574D01*
X022030Y019690D02*
X021870Y019851D01*
X021830Y019851D01*
X021790Y019810D01*
X021790Y019730D01*
X021830Y019690D01*
X021830Y019574D02*
X021790Y019534D01*
X021790Y019454D01*
X021830Y019414D01*
X021990Y019414D01*
X022030Y019690D02*
X022030Y019851D01*
X021990Y020639D02*
X022030Y020679D01*
X022030Y020759D01*
X021990Y020799D01*
X021950Y020799D01*
X021910Y020759D01*
X021910Y020679D01*
X021870Y020639D01*
X021830Y020639D01*
X021790Y020679D01*
X021790Y020759D01*
X021830Y020799D01*
X021790Y020915D02*
X021790Y021075D01*
X021790Y020995D02*
X022030Y020995D01*
X022030Y021191D02*
X021790Y021191D01*
X021870Y021271D01*
X021790Y021352D01*
X022030Y021352D01*
X021990Y021468D02*
X022030Y021508D01*
X022030Y021588D01*
X021990Y021628D01*
X021950Y021628D01*
X021910Y021588D01*
X021910Y021548D01*
X021910Y021588D02*
X021870Y021628D01*
X021830Y021628D01*
X021790Y021588D01*
X021790Y021508D01*
X021830Y021468D01*
X021830Y021744D02*
X021790Y021784D01*
X021790Y021864D01*
X021830Y021904D01*
X021870Y021904D01*
X022030Y021744D01*
X022030Y021904D01*
X022030Y022020D02*
X021790Y022020D01*
X021790Y022180D01*
X021910Y022100D02*
X021910Y022020D01*
X021910Y022296D02*
X021910Y022456D01*
X022030Y022416D02*
X021790Y022416D01*
X021910Y022296D01*
X021990Y022573D02*
X021830Y022733D01*
X021990Y022733D01*
X022030Y022693D01*
X022030Y022613D01*
X021990Y022573D01*
X021830Y022573D01*
X021790Y022613D01*
X021790Y022693D01*
X021830Y022733D01*
X021790Y022849D02*
X021790Y023009D01*
X021830Y023009D01*
X021990Y022849D01*
X022030Y022849D01*
X021950Y023125D02*
X022030Y023205D01*
X021950Y023285D01*
X021790Y023285D01*
X021830Y023401D02*
X021990Y023401D01*
X022030Y023441D01*
X022030Y023521D01*
X021990Y023561D01*
X021910Y023561D01*
X021910Y023481D01*
X021830Y023401D02*
X021790Y023441D01*
X021790Y023521D01*
X021830Y023561D01*
X021790Y023678D02*
X021790Y023838D01*
X021790Y023758D02*
X022030Y023758D01*
X021990Y023954D02*
X022030Y023994D01*
X022030Y024074D01*
X021990Y024114D01*
X021950Y024114D01*
X021910Y024074D01*
X021910Y023954D01*
X021990Y023954D01*
X021910Y023954D02*
X021830Y024034D01*
X021790Y024114D01*
X021790Y023125D02*
X021950Y023125D01*
X020680Y025170D02*
X020680Y025710D01*
X019600Y025710D01*
X019600Y025170D01*
X020680Y025170D01*
X021620Y025870D02*
X021620Y026410D01*
X021620Y026950D01*
X021620Y027490D01*
X022700Y027490D01*
X022700Y026950D01*
X021620Y026950D01*
X022700Y026950D01*
X022700Y026410D01*
X021620Y026410D01*
X022700Y026410D01*
X022700Y025870D01*
X021620Y025870D01*
X020680Y027530D02*
X020680Y028070D01*
X019600Y028070D01*
X019600Y027530D01*
X020680Y027530D01*
X017960Y027310D02*
X017960Y027850D01*
X016880Y027850D01*
X016880Y027310D01*
X017960Y027310D01*
X017960Y028270D02*
X016880Y028270D01*
X016880Y028810D01*
X017960Y028810D01*
X017960Y028270D01*
X017180Y026650D02*
X017180Y026110D01*
X016100Y026110D01*
X016100Y026650D01*
X017180Y026650D01*
X017180Y026110D02*
X016100Y026110D01*
X016100Y025570D01*
X017180Y025570D01*
X017180Y026110D01*
X011240Y020050D02*
X011240Y019510D01*
X010160Y019510D01*
X010160Y020050D01*
X011240Y020050D01*
X009782Y020220D02*
X009621Y020220D01*
X009702Y020220D02*
X009702Y020460D01*
X009621Y020380D01*
X009505Y020380D02*
X009465Y020340D01*
X009505Y020300D01*
X009505Y020260D01*
X009465Y020220D01*
X009385Y020220D01*
X009345Y020260D01*
X009425Y020340D02*
X009465Y020340D01*
X009505Y020380D02*
X009505Y020420D01*
X009465Y020460D01*
X009385Y020460D01*
X009345Y020420D01*
X009229Y020420D02*
X009189Y020460D01*
X009109Y020460D01*
X009069Y020420D01*
X009069Y020260D01*
X009109Y020220D01*
X009189Y020220D01*
X009229Y020260D01*
X014240Y014730D02*
X014240Y014190D01*
X014240Y013650D01*
X015320Y013650D01*
X015320Y014190D01*
X014240Y014190D01*
X015320Y014190D01*
X015320Y014730D01*
X014240Y014730D01*
X015560Y014730D02*
X015560Y014190D01*
X015560Y013650D01*
X016640Y013650D01*
X016640Y014190D01*
X015560Y014190D01*
X016640Y014190D01*
X016640Y014730D01*
X015560Y014730D01*
X018430Y015440D02*
X018430Y015520D01*
X018430Y015480D02*
X018670Y015480D01*
X018670Y015440D02*
X018670Y015520D01*
X018630Y015624D02*
X018670Y015664D01*
X018670Y015744D01*
X018630Y015784D01*
X018630Y015900D02*
X018670Y015940D01*
X018670Y016020D01*
X018630Y016061D01*
X018590Y016061D01*
X018550Y016020D01*
X018550Y015980D01*
X018550Y016020D02*
X018510Y016061D01*
X018470Y016061D01*
X018430Y016020D01*
X018430Y015940D01*
X018470Y015900D01*
X018470Y015784D02*
X018430Y015744D01*
X018430Y015664D01*
X018470Y015624D01*
X018630Y015624D01*
X018920Y014950D02*
X020000Y014950D01*
X020000Y014410D01*
X018920Y014410D01*
X018920Y014950D01*
X018920Y016570D02*
X018920Y017110D01*
X018920Y017650D01*
X020000Y017650D01*
X020000Y017110D01*
X018920Y017110D01*
X020000Y017110D01*
X020000Y016570D01*
X018920Y016570D01*
X020520Y011709D02*
X020520Y011535D01*
X020650Y011535D01*
X020607Y011622D01*
X020607Y011665D01*
X020650Y011709D01*
X020737Y011709D01*
X020780Y011665D01*
X020780Y011579D01*
X020737Y011535D01*
X020737Y011414D02*
X020780Y011371D01*
X020780Y011284D01*
X020737Y011241D01*
X020563Y011241D01*
X020520Y011284D01*
X020520Y011371D01*
X020563Y011414D01*
X020520Y011131D02*
X020520Y011044D01*
X020520Y011088D02*
X020780Y011088D01*
X020780Y011131D02*
X020780Y011044D01*
X021500Y010970D02*
X021500Y010430D01*
X022580Y010430D01*
X022580Y010970D01*
X021500Y010970D01*
X019849Y010720D02*
X019675Y010720D01*
X019675Y010590D01*
X019762Y010633D01*
X019805Y010633D01*
X019849Y010590D01*
X019849Y010503D01*
X019805Y010460D01*
X019719Y010460D01*
X019675Y010503D01*
X019554Y010503D02*
X019511Y010460D01*
X019424Y010460D01*
X019381Y010503D01*
X019381Y010677D01*
X019424Y010720D01*
X019511Y010720D01*
X019554Y010677D01*
X019271Y010720D02*
X019184Y010720D01*
X019228Y010720D02*
X019228Y010460D01*
X019271Y010460D02*
X019184Y010460D01*
X018180Y010430D02*
X017100Y010430D01*
X017100Y010970D01*
X018180Y010970D01*
X018180Y010430D01*
X016280Y011044D02*
X016280Y011131D01*
X016280Y011088D02*
X016020Y011088D01*
X016020Y011131D02*
X016020Y011044D01*
X016063Y011241D02*
X016237Y011241D01*
X016280Y011284D01*
X016280Y011371D01*
X016237Y011414D01*
X016150Y011535D02*
X016150Y011709D01*
X016280Y011665D02*
X016020Y011665D01*
X016150Y011535D01*
X016063Y011414D02*
X016020Y011371D01*
X016020Y011284D01*
X016063Y011241D01*
X015305Y010720D02*
X015305Y010460D01*
X015349Y010590D02*
X015175Y010590D01*
X015305Y010720D01*
X015054Y010677D02*
X015011Y010720D01*
X014924Y010720D01*
X014881Y010677D01*
X014881Y010503D01*
X014924Y010460D01*
X015011Y010460D01*
X015054Y010503D01*
X014771Y010460D02*
X014684Y010460D01*
X014728Y010460D02*
X014728Y010720D01*
X014771Y010720D02*
X014684Y010720D01*
X013580Y010970D02*
X013580Y010430D01*
X012500Y010430D01*
X012500Y010970D01*
X013580Y010970D01*
X013640Y006450D02*
X015440Y006450D01*
X015440Y005550D01*
X013640Y005550D01*
X013640Y006450D01*
X015440Y005170D02*
X015440Y004630D01*
X016520Y004630D01*
X016520Y005170D01*
X015440Y005170D01*
X015596Y005880D02*
X015596Y006120D01*
X015716Y006120D01*
X015756Y006080D01*
X015756Y006000D01*
X015716Y005960D01*
X015596Y005960D01*
X015676Y005960D02*
X015756Y005880D01*
X015872Y005920D02*
X015912Y005880D01*
X015992Y005880D01*
X016032Y005920D01*
X016032Y005960D01*
X015992Y006000D01*
X015952Y006000D01*
X015992Y006000D02*
X016032Y006040D01*
X016032Y006080D01*
X015992Y006120D01*
X015912Y006120D01*
X015872Y006080D01*
X016148Y006120D02*
X016308Y006120D01*
X016308Y006080D01*
X016148Y005920D01*
X016148Y005880D01*
X015980Y004290D02*
X014900Y004290D01*
X014900Y003750D01*
X015980Y003750D01*
X015980Y004290D01*
X014780Y004290D02*
X014780Y003750D01*
X013700Y003750D01*
X013700Y004290D01*
X014780Y004290D01*
X017600Y004290D02*
X017600Y003750D01*
X018680Y003750D01*
X018680Y004290D01*
X017600Y004290D01*
X018800Y004290D02*
X018800Y003750D01*
X019880Y003750D01*
X019880Y004290D01*
X018800Y004290D01*
X019400Y004630D02*
X019400Y005170D01*
X020480Y005170D01*
X020480Y004630D01*
X019400Y004630D01*
X019840Y005550D02*
X019840Y006450D01*
X018040Y006450D01*
X018040Y005550D01*
X019840Y005550D01*
X019976Y005880D02*
X019976Y006120D01*
X020096Y006120D01*
X020136Y006080D01*
X020136Y006000D01*
X020096Y005960D01*
X019976Y005960D01*
X020056Y005960D02*
X020136Y005880D01*
X020252Y005920D02*
X020292Y005880D01*
X020372Y005880D01*
X020412Y005920D01*
X020412Y005960D01*
X020372Y006000D01*
X020332Y006000D01*
X020372Y006000D02*
X020412Y006040D01*
X020412Y006080D01*
X020372Y006120D01*
X020292Y006120D01*
X020252Y006080D01*
X020528Y006080D02*
X020528Y006040D01*
X020568Y006000D01*
X020648Y006000D01*
X020688Y005960D01*
X020688Y005920D01*
X020648Y005880D01*
X020568Y005880D01*
X020528Y005920D01*
X020528Y005960D01*
X020568Y006000D01*
X020648Y006000D02*
X020688Y006040D01*
X020688Y006080D01*
X020648Y006120D01*
X020568Y006120D01*
X020528Y006080D01*
X022160Y004290D02*
X022160Y003750D01*
X023240Y003750D01*
X023240Y004290D01*
X022160Y004290D01*
X023360Y004290D02*
X023360Y003750D01*
X024440Y003750D01*
X024440Y004290D01*
X023360Y004290D01*
X023880Y004630D02*
X023880Y005170D01*
X024960Y005170D01*
X024960Y004630D01*
X023880Y004630D01*
X024340Y005550D02*
X024340Y006450D01*
X022540Y006450D01*
X022540Y005550D01*
X024340Y005550D01*
X024476Y005880D02*
X024476Y006120D01*
X024596Y006120D01*
X024636Y006080D01*
X024636Y006000D01*
X024596Y005960D01*
X024476Y005960D01*
X024556Y005960D02*
X024636Y005880D01*
X024752Y005920D02*
X024792Y005880D01*
X024872Y005880D01*
X024912Y005920D01*
X024912Y005960D01*
X024872Y006000D01*
X024832Y006000D01*
X024872Y006000D02*
X024912Y006040D01*
X024912Y006080D01*
X024872Y006120D01*
X024792Y006120D01*
X024752Y006080D01*
X025028Y006080D02*
X025028Y006040D01*
X025068Y006000D01*
X025188Y006000D01*
X025188Y005920D02*
X025188Y006080D01*
X025148Y006120D01*
X025068Y006120D01*
X025028Y006080D01*
X025028Y005920D02*
X025068Y005880D01*
X025148Y005880D01*
X025188Y005920D01*
X026420Y004290D02*
X026420Y003750D01*
X027500Y003750D01*
X027500Y004290D01*
X026420Y004290D01*
X027620Y004290D02*
X027620Y003750D01*
X028700Y003750D01*
X028700Y004290D01*
X027620Y004290D01*
X028160Y004630D02*
X028160Y005170D01*
X029240Y005170D01*
X029240Y004630D01*
X028160Y004630D01*
X028840Y005550D02*
X027040Y005550D01*
X027040Y006450D01*
X028840Y006450D01*
X028840Y005550D01*
X028976Y005880D02*
X028976Y006120D01*
X029096Y006120D01*
X029136Y006080D01*
X029136Y006000D01*
X029096Y005960D01*
X028976Y005960D01*
X029056Y005960D02*
X029136Y005880D01*
X029252Y006000D02*
X029412Y006000D01*
X029372Y005880D02*
X029372Y006120D01*
X029252Y006000D01*
X029528Y005920D02*
X029688Y006080D01*
X029688Y005920D01*
X029648Y005880D01*
X029568Y005880D01*
X029528Y005920D01*
X029528Y006080D01*
X029568Y006120D01*
X029648Y006120D01*
X029688Y006080D01*
X028575Y010460D02*
X028575Y010503D01*
X028749Y010677D01*
X028749Y010720D01*
X028575Y010720D01*
X028454Y010677D02*
X028411Y010720D01*
X028324Y010720D01*
X028281Y010677D01*
X028281Y010503D01*
X028324Y010460D01*
X028411Y010460D01*
X028454Y010503D01*
X028171Y010460D02*
X028084Y010460D01*
X028128Y010460D02*
X028128Y010720D01*
X028171Y010720D02*
X028084Y010720D01*
X027080Y010970D02*
X027080Y010430D01*
X026000Y010430D01*
X026000Y010970D01*
X027080Y010970D01*
X025180Y011044D02*
X025180Y011131D01*
X025180Y011088D02*
X024920Y011088D01*
X024920Y011131D02*
X024920Y011044D01*
X024963Y011241D02*
X024920Y011284D01*
X024920Y011371D01*
X024963Y011414D01*
X025050Y011535D02*
X025050Y011665D01*
X025093Y011709D01*
X025137Y011709D01*
X025180Y011665D01*
X025180Y011579D01*
X025137Y011535D01*
X025050Y011535D01*
X024963Y011622D01*
X024920Y011709D01*
X025137Y011414D02*
X025180Y011371D01*
X025180Y011284D01*
X025137Y011241D01*
X024963Y011241D01*
X024249Y010720D02*
X024162Y010677D01*
X024075Y010590D01*
X024205Y010590D01*
X024249Y010547D01*
X024249Y010503D01*
X024205Y010460D01*
X024119Y010460D01*
X024075Y010503D01*
X024075Y010590D01*
X023954Y010503D02*
X023911Y010460D01*
X023824Y010460D01*
X023781Y010503D01*
X023781Y010677D01*
X023824Y010720D01*
X023911Y010720D01*
X023954Y010677D01*
X023671Y010720D02*
X023584Y010720D01*
X023628Y010720D02*
X023628Y010460D01*
X023671Y010460D02*
X023584Y010460D01*
X026960Y014170D02*
X026960Y014710D01*
X028040Y014710D01*
X028040Y014170D01*
X026960Y014170D01*
X028200Y013990D02*
X028200Y014890D01*
X030000Y014890D01*
X030000Y013990D01*
X028200Y013990D01*
X028716Y013830D02*
X028716Y013670D01*
X028756Y013630D01*
X028836Y013630D01*
X028876Y013670D01*
X028992Y013750D02*
X029152Y013750D01*
X029268Y013790D02*
X029348Y013870D01*
X029348Y013630D01*
X029268Y013630D02*
X029428Y013630D01*
X029112Y013630D02*
X029112Y013870D01*
X028992Y013750D01*
X028876Y013830D02*
X028836Y013870D01*
X028756Y013870D01*
X028716Y013830D01*
X029420Y011709D02*
X029463Y011709D01*
X029637Y011535D01*
X029680Y011535D01*
X029637Y011414D02*
X029680Y011371D01*
X029680Y011284D01*
X029637Y011241D01*
X029463Y011241D01*
X029420Y011284D01*
X029420Y011371D01*
X029463Y011414D01*
X029420Y011535D02*
X029420Y011709D01*
X029420Y011131D02*
X029420Y011044D01*
X029420Y011088D02*
X029680Y011088D01*
X029680Y011131D02*
X029680Y011044D01*
X031040Y015030D02*
X031040Y015570D01*
X032120Y015570D01*
X032120Y015030D01*
X031040Y015030D01*
X031040Y015570D02*
X031040Y016110D01*
X032120Y016110D01*
X032120Y015570D01*
X032120Y015030D01*
X033200Y015030D01*
X033200Y015570D01*
X032120Y015570D01*
X031040Y015570D01*
X031040Y016110D02*
X031040Y016650D01*
X032120Y016650D01*
X032120Y016110D01*
X032120Y015570D01*
X033200Y015570D01*
X033200Y016110D01*
X032120Y016110D01*
X031040Y016110D01*
X031700Y017130D02*
X031700Y017670D01*
X032780Y017670D01*
X032780Y017130D01*
X031700Y017130D01*
X031700Y017730D02*
X031700Y018270D01*
X032780Y018270D01*
X032780Y017730D01*
X031700Y017730D01*
X032120Y016650D02*
X032120Y016110D01*
X033200Y016110D01*
X033200Y016650D01*
X032120Y016650D01*
X033350Y016514D02*
X033407Y016570D01*
X033520Y016570D01*
X033577Y016514D01*
X033577Y016457D01*
X033350Y016230D01*
X033577Y016230D01*
X033577Y016030D02*
X033350Y016030D01*
X033350Y015860D01*
X033463Y015917D01*
X033520Y015917D01*
X033577Y015860D01*
X033577Y015747D01*
X033520Y015690D01*
X033407Y015690D01*
X033350Y015747D01*
X033407Y015490D02*
X033520Y015490D01*
X033577Y015434D01*
X033577Y015377D01*
X033520Y015320D01*
X033577Y015263D01*
X033577Y015207D01*
X033520Y015150D01*
X033407Y015150D01*
X033350Y015207D01*
X033463Y015320D02*
X033520Y015320D01*
X033350Y015434D02*
X033407Y015490D01*
X033718Y015207D02*
X033775Y015207D01*
X033775Y015150D01*
X033718Y015150D01*
X033718Y015207D01*
X033902Y015207D02*
X033959Y015150D01*
X034073Y015150D01*
X034129Y015207D01*
X034129Y015263D01*
X034073Y015320D01*
X034016Y015320D01*
X034073Y015320D02*
X034129Y015377D01*
X034129Y015434D01*
X034073Y015490D01*
X033959Y015490D01*
X033902Y015434D01*
X033832Y015690D02*
X033945Y015803D01*
X033945Y016030D01*
X033888Y016230D02*
X033888Y016570D01*
X033718Y016400D01*
X033945Y016400D01*
X034087Y016343D02*
X034087Y016570D01*
X034313Y016570D02*
X034313Y016343D01*
X034200Y016230D01*
X034087Y016343D01*
X033718Y016030D02*
X033718Y015803D01*
X033832Y015690D01*
X034271Y015490D02*
X034271Y015263D01*
X034384Y015150D01*
X034498Y015263D01*
X034498Y015490D01*
X032780Y019130D02*
X031700Y019130D01*
X031700Y019670D01*
X032780Y019670D01*
X032780Y019130D01*
X032780Y019730D02*
X031700Y019730D01*
X031700Y020270D01*
X032780Y020270D01*
X032780Y019730D01*
X032780Y021130D02*
X031700Y021130D01*
X031700Y021670D01*
X032780Y021670D01*
X032780Y021130D01*
X032780Y021730D02*
X031700Y021730D01*
X031700Y022270D01*
X032780Y022270D01*
X032780Y021730D01*
X032780Y023130D02*
X031700Y023130D01*
X031700Y023670D01*
X032780Y023670D01*
X032780Y023130D01*
X032780Y023730D02*
X031700Y023730D01*
X031700Y024270D01*
X032780Y024270D01*
X032780Y023730D01*
X032680Y026430D02*
X031600Y026430D01*
X031600Y026970D01*
X032680Y026970D01*
X032680Y026430D01*
X027090Y024200D02*
X026990Y024200D01*
X026790Y024200D01*
X029500Y038550D02*
X029500Y039090D01*
X030580Y039090D01*
X030580Y038550D01*
X029500Y038550D01*
X019970Y040840D02*
X019810Y040840D01*
X019890Y040840D02*
X019890Y041080D01*
X019810Y041000D01*
X019694Y041040D02*
X019654Y041080D01*
X019574Y041080D01*
X019534Y041040D01*
X019534Y040880D01*
X019574Y040840D01*
X019654Y040840D01*
X019694Y040880D01*
X009620Y037050D02*
X009620Y036510D01*
X008540Y036510D01*
X008540Y037050D01*
X009620Y037050D01*
X009920Y004270D02*
X011000Y004270D01*
X011000Y003730D01*
X009920Y003730D01*
X009920Y004270D01*
D13*
X019184Y015169D02*
X019736Y015169D01*
X019736Y016351D02*
X019184Y016351D01*
X018634Y016311D02*
X018636Y016323D01*
X018641Y016334D01*
X018650Y016343D01*
X018661Y016348D01*
X018673Y016350D01*
X018685Y016348D01*
X018696Y016343D01*
X018705Y016334D01*
X018710Y016323D01*
X018712Y016311D01*
X018710Y016299D01*
X018705Y016288D01*
X018696Y016279D01*
X018685Y016274D01*
X018673Y016272D01*
X018661Y016274D01*
X018650Y016279D01*
X018641Y016288D01*
X018636Y016299D01*
X018634Y016311D01*
X016797Y016784D02*
X016797Y016888D01*
X015803Y016888D01*
X015803Y016732D01*
X016275Y016732D01*
X016275Y016024D01*
X016079Y015788D02*
X013401Y015788D01*
X013362Y015630D02*
X016118Y015630D01*
X016669Y015630D02*
X016797Y015630D01*
X016797Y015736D01*
X015803Y016888D02*
X013677Y016888D01*
X013677Y016732D01*
X013205Y016732D01*
X013205Y016024D01*
X013209Y016410D02*
X013547Y016410D01*
X013547Y016729D01*
X013677Y016888D02*
X012683Y016888D01*
X012683Y016784D01*
X013142Y017327D02*
X013144Y017339D01*
X013149Y017350D01*
X013158Y017359D01*
X013169Y017364D01*
X013181Y017366D01*
X013193Y017364D01*
X013204Y017359D01*
X013213Y017350D01*
X013218Y017339D01*
X013220Y017327D01*
X013218Y017315D01*
X013213Y017304D01*
X013204Y017295D01*
X013193Y017290D01*
X013181Y017288D01*
X013169Y017290D01*
X013158Y017295D01*
X013149Y017304D01*
X013144Y017315D01*
X013142Y017327D01*
X012683Y015736D02*
X012683Y015630D01*
X012811Y015630D01*
X015604Y018944D02*
X015840Y018944D01*
X015604Y018944D02*
X015604Y019180D01*
X015604Y024220D02*
X015604Y024456D01*
X015840Y024456D01*
X012692Y028149D02*
X012428Y028149D01*
X012660Y028161D02*
X012660Y029039D01*
X012692Y029054D02*
X012428Y029054D01*
X011032Y021174D02*
X010768Y021174D01*
X011000Y021159D02*
X011000Y020281D01*
X011032Y020269D02*
X010768Y020269D01*
X020356Y019495D02*
X020358Y019523D01*
X020364Y019551D01*
X020373Y019578D01*
X020386Y019604D01*
X020403Y019627D01*
X020422Y019648D01*
X020444Y019666D01*
X020469Y019681D01*
X020495Y019692D01*
X020522Y019700D01*
X020551Y019704D01*
X020579Y019704D01*
X020608Y019700D01*
X020635Y019692D01*
X020661Y019681D01*
X020686Y019666D01*
X020708Y019648D01*
X020727Y019627D01*
X020744Y019604D01*
X020757Y019578D01*
X020766Y019551D01*
X020772Y019523D01*
X020774Y019495D01*
X020772Y019467D01*
X020766Y019439D01*
X020757Y019412D01*
X020744Y019386D01*
X020727Y019363D01*
X020708Y019342D01*
X020686Y019324D01*
X020661Y019309D01*
X020635Y019298D01*
X020608Y019290D01*
X020579Y019286D01*
X020551Y019286D01*
X020522Y019290D01*
X020495Y019298D01*
X020469Y019309D01*
X020444Y019324D01*
X020422Y019342D01*
X020403Y019363D01*
X020386Y019386D01*
X020373Y019412D01*
X020364Y019439D01*
X020358Y019467D01*
X020356Y019495D01*
X020880Y018944D02*
X021116Y018944D01*
X021116Y019180D01*
X021116Y024220D02*
X021116Y024456D01*
X020880Y024456D01*
X023986Y027868D02*
X023986Y028132D01*
X024001Y028100D02*
X024879Y028100D01*
X024891Y028132D02*
X024891Y027868D01*
X021694Y038268D02*
X021694Y038532D01*
X021679Y038300D02*
X020801Y038300D01*
X020789Y038268D02*
X020789Y038532D01*
X018694Y038532D02*
X018694Y038268D01*
X018679Y038300D02*
X017801Y038300D01*
X017789Y038268D02*
X017789Y038532D01*
D14*
X019460Y039470D02*
X019460Y039540D01*
X019460Y040020D02*
X019460Y040090D01*
X020060Y040090D02*
X020060Y040020D01*
X020060Y039540D02*
X020060Y039470D01*
X020003Y033105D02*
X019893Y033105D01*
X019948Y033105D02*
X019948Y032775D01*
X019893Y032775D02*
X020003Y032775D01*
X020138Y032830D02*
X020138Y033050D01*
X020193Y033105D01*
X020304Y033105D01*
X020359Y033050D01*
X020507Y032995D02*
X020617Y033105D01*
X020617Y032775D01*
X020507Y032775D02*
X020727Y032775D01*
X020359Y032830D02*
X020304Y032775D01*
X020193Y032775D01*
X020138Y032830D01*
X020851Y032172D02*
X021012Y032011D01*
X021012Y029428D01*
X018268Y029428D01*
X018268Y032172D01*
X020851Y032172D01*
X015290Y032326D02*
X015290Y030514D01*
X015211Y030436D01*
X014896Y031184D02*
X014660Y031184D01*
X014660Y031066D01*
X014660Y031184D02*
X014424Y031184D01*
X014424Y031341D02*
X014424Y031499D01*
X014896Y031499D01*
X014896Y031341D01*
X014424Y031341D01*
X014424Y031656D02*
X014660Y031656D01*
X014660Y031774D01*
X014660Y031656D02*
X014896Y031656D01*
X015290Y032326D02*
X015211Y032404D01*
X014109Y032404D02*
X014030Y032326D01*
X014030Y030514D01*
X014109Y030436D01*
X013877Y030384D02*
X013712Y030384D01*
X013602Y030494D01*
X013547Y030494D01*
X013657Y030642D02*
X013547Y030752D01*
X013877Y030752D01*
X013877Y030642D02*
X013877Y030862D01*
X013712Y030384D02*
X013602Y030274D01*
X013547Y030274D01*
X012418Y027757D02*
X009938Y027757D01*
X009938Y027599D01*
X009662Y027599D01*
X010922Y026812D02*
X010922Y025985D01*
X010725Y025985D01*
X011040Y025670D01*
X011355Y025985D01*
X011158Y025985D01*
X011158Y026812D01*
X010922Y026812D01*
X012418Y027599D02*
X012418Y027757D01*
X012418Y025001D02*
X012418Y024843D01*
X009938Y024843D01*
X009938Y025001D01*
X009662Y025001D01*
X009938Y024357D02*
X009938Y024199D01*
X009662Y024199D01*
X009938Y024357D02*
X012418Y024357D01*
X012418Y024199D01*
X011158Y023412D02*
X011158Y022585D01*
X011355Y022585D01*
X011040Y022270D01*
X010725Y022585D01*
X010922Y022585D01*
X010922Y023412D01*
X011158Y023412D01*
X009938Y021601D02*
X009662Y021601D01*
X009938Y021601D02*
X009938Y021443D01*
X012418Y021443D01*
X012418Y021601D01*
X008365Y018209D02*
X008318Y018256D01*
X008224Y018256D01*
X008178Y018209D01*
X008178Y018162D01*
X008224Y018115D01*
X008365Y018115D01*
X008365Y018022D02*
X008365Y018209D01*
X008365Y018022D02*
X008318Y017975D01*
X008224Y017975D01*
X008178Y018022D01*
X008042Y018022D02*
X007995Y017975D01*
X007902Y017975D01*
X007855Y018022D01*
X007855Y018209D01*
X007902Y018256D01*
X007995Y018256D01*
X008042Y018209D01*
X008042Y018022D01*
X008042Y017975D02*
X007949Y018069D01*
X007700Y017910D02*
X007700Y018350D01*
X007400Y018350D01*
X006880Y018350D02*
X006580Y018350D01*
X006580Y017910D01*
X006726Y017992D02*
X006728Y018002D01*
X006733Y018011D01*
X006741Y018018D01*
X006751Y018022D01*
X006761Y018022D01*
X006771Y018018D01*
X006779Y018011D01*
X006784Y018002D01*
X006786Y017992D01*
X006784Y017982D01*
X006779Y017973D01*
X006771Y017966D01*
X006761Y017962D01*
X006751Y017962D01*
X006741Y017966D01*
X006733Y017973D01*
X006728Y017982D01*
X006726Y017992D01*
X007030Y017850D02*
X007250Y017850D01*
X006420Y016935D02*
X006466Y016889D01*
X006280Y016702D01*
X006326Y016655D01*
X006420Y016655D01*
X006466Y016702D01*
X006466Y016889D01*
X006420Y016935D02*
X006326Y016935D01*
X006280Y016889D01*
X006280Y016702D01*
X006144Y016655D02*
X005957Y016655D01*
X006051Y016655D02*
X006051Y016935D01*
X005957Y016842D01*
X005822Y016889D02*
X005775Y016935D01*
X005635Y016935D01*
X005635Y016655D01*
X005775Y016655D01*
X005822Y016702D01*
X005822Y016889D01*
X009090Y016080D02*
X009160Y016080D01*
X009640Y016080D02*
X009710Y016080D01*
X009710Y015480D02*
X009640Y015480D01*
X009160Y015480D02*
X009090Y015480D01*
X014255Y015205D02*
X014255Y014925D01*
X014442Y014925D01*
X014577Y014925D02*
X014764Y014925D01*
X014900Y014925D02*
X015040Y014925D01*
X015086Y014972D01*
X015086Y015159D01*
X015040Y015205D01*
X014900Y015205D01*
X014900Y014925D01*
X014671Y015065D02*
X014577Y015065D01*
X014577Y015205D02*
X014577Y014925D01*
X014577Y015205D02*
X014764Y015205D01*
X015222Y015112D02*
X015315Y015205D01*
X015315Y014925D01*
X015222Y014925D02*
X015409Y014925D01*
X015362Y013465D02*
X015269Y013465D01*
X015222Y013419D01*
X015086Y013419D02*
X015086Y013232D01*
X015040Y013185D01*
X014900Y013185D01*
X014900Y013465D01*
X015040Y013465D01*
X015086Y013419D01*
X015222Y013185D02*
X015409Y013372D01*
X015409Y013419D01*
X015362Y013465D01*
X015409Y013185D02*
X015222Y013185D01*
X014764Y013185D02*
X014577Y013185D01*
X014577Y013465D01*
X014764Y013465D01*
X014671Y013325D02*
X014577Y013325D01*
X014442Y013185D02*
X014255Y013185D01*
X014255Y013465D01*
X015482Y010600D02*
X015484Y010625D01*
X015490Y010649D01*
X015499Y010672D01*
X015512Y010693D01*
X015528Y010712D01*
X015547Y010728D01*
X015568Y010741D01*
X015591Y010750D01*
X015615Y010756D01*
X015640Y010758D01*
X015665Y010756D01*
X015689Y010750D01*
X015712Y010741D01*
X015733Y010728D01*
X015752Y010712D01*
X015768Y010693D01*
X015781Y010672D01*
X015790Y010649D01*
X015796Y010625D01*
X015798Y010600D01*
X015796Y010575D01*
X015790Y010551D01*
X015781Y010528D01*
X015768Y010507D01*
X015752Y010488D01*
X015733Y010472D01*
X015712Y010459D01*
X015689Y010450D01*
X015665Y010444D01*
X015640Y010442D01*
X015615Y010444D01*
X015591Y010450D01*
X015568Y010459D01*
X015547Y010472D01*
X015528Y010488D01*
X015512Y010507D01*
X015499Y010528D01*
X015490Y010551D01*
X015484Y010575D01*
X015482Y010600D01*
X014850Y006300D02*
X014780Y006300D01*
X014780Y005700D02*
X014850Y005700D01*
X014300Y005700D02*
X014230Y005700D01*
X014230Y006300D02*
X014300Y006300D01*
X013665Y005366D02*
X013665Y005180D01*
X013478Y005366D01*
X013431Y005366D01*
X013385Y005320D01*
X013385Y005226D01*
X013431Y005180D01*
X013385Y004951D02*
X013665Y004951D01*
X013665Y005044D02*
X013665Y004857D01*
X013618Y004722D02*
X013431Y004722D01*
X013385Y004675D01*
X013385Y004535D01*
X013665Y004535D01*
X013665Y004675D01*
X013618Y004722D01*
X013478Y004857D02*
X013385Y004951D01*
X011319Y004748D02*
X011132Y004748D01*
X011226Y004748D02*
X011226Y005028D01*
X011132Y004935D01*
X010997Y004748D02*
X010810Y004748D01*
X010903Y004748D02*
X010903Y005028D01*
X010810Y004935D01*
X010674Y004982D02*
X010628Y005028D01*
X010488Y005028D01*
X010488Y004748D01*
X010628Y004748D01*
X010674Y004795D01*
X010674Y004982D01*
X017285Y004951D02*
X017565Y004951D01*
X017565Y005044D02*
X017565Y004857D01*
X017518Y004722D02*
X017331Y004722D01*
X017285Y004675D01*
X017285Y004535D01*
X017565Y004535D01*
X017565Y004675D01*
X017518Y004722D01*
X017378Y004857D02*
X017285Y004951D01*
X017331Y005180D02*
X017285Y005226D01*
X017285Y005320D01*
X017331Y005366D01*
X017378Y005366D01*
X017425Y005320D01*
X017472Y005366D01*
X017518Y005366D01*
X017565Y005320D01*
X017565Y005226D01*
X017518Y005180D01*
X017425Y005273D02*
X017425Y005320D01*
X018630Y005700D02*
X018700Y005700D01*
X019180Y005700D02*
X019250Y005700D01*
X019250Y006300D02*
X019180Y006300D01*
X018700Y006300D02*
X018630Y006300D01*
X021785Y005320D02*
X021925Y005180D01*
X021925Y005366D01*
X022065Y005320D02*
X021785Y005320D01*
X021785Y004951D02*
X022065Y004951D01*
X022065Y005044D02*
X022065Y004857D01*
X022018Y004722D02*
X021831Y004722D01*
X021785Y004675D01*
X021785Y004535D01*
X022065Y004535D01*
X022065Y004675D01*
X022018Y004722D01*
X021878Y004857D02*
X021785Y004951D01*
X023130Y005700D02*
X023200Y005700D01*
X023680Y005700D02*
X023750Y005700D01*
X023750Y006300D02*
X023680Y006300D01*
X023200Y006300D02*
X023130Y006300D01*
X026105Y005366D02*
X026105Y005180D01*
X026245Y005180D01*
X026198Y005273D01*
X026198Y005320D01*
X026245Y005366D01*
X026338Y005366D01*
X026385Y005320D01*
X026385Y005226D01*
X026338Y005180D01*
X026385Y005044D02*
X026385Y004857D01*
X026385Y004951D02*
X026105Y004951D01*
X026198Y004857D01*
X026151Y004722D02*
X026338Y004722D01*
X026385Y004675D01*
X026385Y004535D01*
X026105Y004535D01*
X026105Y004675D01*
X026151Y004722D01*
X027630Y005700D02*
X027700Y005700D01*
X028180Y005700D02*
X028250Y005700D01*
X028250Y006300D02*
X028180Y006300D01*
X027700Y006300D02*
X027630Y006300D01*
X028882Y010600D02*
X028884Y010625D01*
X028890Y010649D01*
X028899Y010672D01*
X028912Y010693D01*
X028928Y010712D01*
X028947Y010728D01*
X028968Y010741D01*
X028991Y010750D01*
X029015Y010756D01*
X029040Y010758D01*
X029065Y010756D01*
X029089Y010750D01*
X029112Y010741D01*
X029133Y010728D01*
X029152Y010712D01*
X029168Y010693D01*
X029181Y010672D01*
X029190Y010649D01*
X029196Y010625D01*
X029198Y010600D01*
X029196Y010575D01*
X029190Y010551D01*
X029181Y010528D01*
X029168Y010507D01*
X029152Y010488D01*
X029133Y010472D01*
X029112Y010459D01*
X029089Y010450D01*
X029065Y010444D01*
X029040Y010442D01*
X029015Y010444D01*
X028991Y010450D01*
X028968Y010459D01*
X028947Y010472D01*
X028928Y010488D01*
X028912Y010507D01*
X028899Y010528D01*
X028890Y010551D01*
X028884Y010575D01*
X028882Y010600D01*
X028860Y014140D02*
X028790Y014140D01*
X029340Y014140D02*
X029410Y014140D01*
X029410Y014740D02*
X029340Y014740D01*
X028860Y014740D02*
X028790Y014740D01*
X025340Y015040D02*
X025340Y012440D01*
X022340Y012440D01*
X022340Y015040D01*
X023540Y015040D01*
X023540Y014640D01*
X022740Y014640D01*
X022740Y013440D01*
X023140Y013440D01*
X023140Y013040D01*
X024540Y013040D01*
X024540Y013440D01*
X024940Y013440D01*
X024940Y014640D01*
X024140Y014640D01*
X024140Y015040D01*
X023540Y015040D01*
X024140Y015040D02*
X025340Y015040D01*
X022854Y015272D02*
X022807Y015225D01*
X022714Y015225D01*
X022667Y015272D01*
X022667Y015365D02*
X022761Y015412D01*
X022807Y015412D01*
X022854Y015365D01*
X022854Y015272D01*
X022667Y015365D02*
X022667Y015505D01*
X022854Y015505D01*
X022532Y015505D02*
X022438Y015505D01*
X022485Y015505D02*
X022485Y015272D01*
X022438Y015225D01*
X022392Y015225D01*
X022345Y015272D01*
X024382Y010600D02*
X024384Y010625D01*
X024390Y010649D01*
X024399Y010672D01*
X024412Y010693D01*
X024428Y010712D01*
X024447Y010728D01*
X024468Y010741D01*
X024491Y010750D01*
X024515Y010756D01*
X024540Y010758D01*
X024565Y010756D01*
X024589Y010750D01*
X024612Y010741D01*
X024633Y010728D01*
X024652Y010712D01*
X024668Y010693D01*
X024681Y010672D01*
X024690Y010649D01*
X024696Y010625D01*
X024698Y010600D01*
X024696Y010575D01*
X024690Y010551D01*
X024681Y010528D01*
X024668Y010507D01*
X024652Y010488D01*
X024633Y010472D01*
X024612Y010459D01*
X024589Y010450D01*
X024565Y010444D01*
X024540Y010442D01*
X024515Y010444D01*
X024491Y010450D01*
X024468Y010459D01*
X024447Y010472D01*
X024428Y010488D01*
X024412Y010507D01*
X024399Y010528D01*
X024390Y010551D01*
X024384Y010575D01*
X024382Y010600D01*
X019982Y010600D02*
X019984Y010625D01*
X019990Y010649D01*
X019999Y010672D01*
X020012Y010693D01*
X020028Y010712D01*
X020047Y010728D01*
X020068Y010741D01*
X020091Y010750D01*
X020115Y010756D01*
X020140Y010758D01*
X020165Y010756D01*
X020189Y010750D01*
X020212Y010741D01*
X020233Y010728D01*
X020252Y010712D01*
X020268Y010693D01*
X020281Y010672D01*
X020290Y010649D01*
X020296Y010625D01*
X020298Y010600D01*
X020296Y010575D01*
X020290Y010551D01*
X020281Y010528D01*
X020268Y010507D01*
X020252Y010488D01*
X020233Y010472D01*
X020212Y010459D01*
X020189Y010450D01*
X020165Y010444D01*
X020140Y010442D01*
X020115Y010444D01*
X020091Y010450D01*
X020068Y010459D01*
X020047Y010472D01*
X020028Y010488D01*
X020012Y010507D01*
X019999Y010528D01*
X019990Y010551D01*
X019984Y010575D01*
X019982Y010600D01*
X024489Y020176D02*
X024410Y020254D01*
X024410Y022066D01*
X024489Y022144D01*
X024804Y021396D02*
X025040Y021396D01*
X025040Y021514D01*
X025040Y021396D02*
X025276Y021396D01*
X025276Y021239D02*
X025276Y021081D01*
X024804Y021081D01*
X024804Y021239D01*
X025276Y021239D01*
X025276Y020924D02*
X025040Y020924D01*
X025040Y020806D01*
X025040Y020924D02*
X024804Y020924D01*
X025591Y020176D02*
X025670Y020254D01*
X025670Y022066D01*
X025591Y022144D01*
X025823Y022173D02*
X025823Y022063D01*
X025878Y022008D01*
X025878Y021860D02*
X025823Y021860D01*
X025878Y021860D02*
X025988Y021750D01*
X026153Y021750D01*
X025988Y021750D02*
X025878Y021639D01*
X025823Y021639D01*
X026153Y022008D02*
X025933Y022228D01*
X025878Y022228D01*
X025823Y022173D01*
X026153Y022228D02*
X026153Y022008D01*
X031164Y025315D02*
X031164Y025408D01*
X031211Y025455D01*
X031398Y025455D01*
X031445Y025408D01*
X031445Y025315D01*
X031398Y025268D01*
X031211Y025268D01*
X031164Y025315D01*
X031351Y025361D02*
X031445Y025455D01*
X031580Y025450D02*
X031580Y025890D01*
X031445Y025777D02*
X031445Y025590D01*
X031258Y025777D01*
X031211Y025777D01*
X031164Y025731D01*
X031164Y025637D01*
X031211Y025590D01*
X031580Y025450D02*
X031880Y025450D01*
X032030Y025950D02*
X032250Y025950D01*
X032494Y025808D02*
X032496Y025818D01*
X032501Y025827D01*
X032509Y025834D01*
X032519Y025838D01*
X032529Y025838D01*
X032539Y025834D01*
X032547Y025827D01*
X032552Y025818D01*
X032554Y025808D01*
X032552Y025798D01*
X032547Y025789D01*
X032539Y025782D01*
X032529Y025778D01*
X032519Y025778D01*
X032509Y025782D01*
X032501Y025789D01*
X032496Y025798D01*
X032494Y025808D01*
X032700Y025890D02*
X032700Y025450D01*
X032400Y025450D01*
X032988Y026738D02*
X033128Y026738D01*
X033174Y026785D01*
X033174Y026972D01*
X033128Y027018D01*
X032988Y027018D01*
X032988Y026738D01*
X033310Y026738D02*
X033497Y026925D01*
X033497Y026972D01*
X033450Y027018D01*
X033357Y027018D01*
X033310Y026972D01*
X033310Y026738D02*
X033497Y026738D01*
D15*
X020597Y031757D03*
D16*
X032440Y016600D03*
X032440Y016160D03*
X032440Y016060D03*
X032440Y015620D03*
X032440Y015520D03*
X032440Y015080D03*
X027180Y004240D03*
X027180Y003800D03*
X022920Y003800D03*
X022920Y004240D03*
X018360Y004240D03*
X018360Y003800D03*
X014460Y003800D03*
X014460Y004240D03*
X015000Y013700D03*
X015000Y014140D03*
X015000Y014240D03*
X015000Y014680D03*
D17*
X015805Y014845D02*
X015805Y015035D01*
X015900Y015035D01*
X015932Y015003D01*
X015932Y014940D01*
X015900Y014908D01*
X015805Y014908D01*
X015868Y014908D02*
X015932Y014845D01*
X016026Y014877D02*
X016058Y014845D01*
X016121Y014845D01*
X016153Y014877D01*
X016153Y014908D01*
X016121Y014940D01*
X016089Y014940D01*
X016121Y014940D02*
X016153Y014972D01*
X016153Y015003D01*
X016121Y015035D01*
X016058Y015035D01*
X016026Y015003D01*
X016247Y015035D02*
X016247Y014940D01*
X016310Y014972D01*
X016342Y014972D01*
X016374Y014940D01*
X016374Y014877D01*
X016342Y014845D01*
X016279Y014845D01*
X016247Y014877D01*
X016247Y015035D02*
X016374Y015035D01*
X016374Y013535D02*
X016310Y013503D01*
X016247Y013440D01*
X016342Y013440D01*
X016374Y013408D01*
X016374Y013377D01*
X016342Y013345D01*
X016279Y013345D01*
X016247Y013377D01*
X016247Y013440D01*
X016153Y013408D02*
X016153Y013377D01*
X016121Y013345D01*
X016058Y013345D01*
X016026Y013377D01*
X016089Y013440D02*
X016121Y013440D01*
X016153Y013408D01*
X016121Y013440D02*
X016153Y013472D01*
X016153Y013503D01*
X016121Y013535D01*
X016058Y013535D01*
X016026Y013503D01*
X015932Y013503D02*
X015932Y013440D01*
X015900Y013408D01*
X015805Y013408D01*
X015805Y013345D02*
X015805Y013535D01*
X015900Y013535D01*
X015932Y013503D01*
X015868Y013408D02*
X015932Y013345D01*
X018182Y014617D02*
X018214Y014585D01*
X018277Y014585D01*
X018309Y014617D01*
X018403Y014617D02*
X018435Y014585D01*
X018498Y014585D01*
X018530Y014617D01*
X018530Y014648D01*
X018498Y014680D01*
X018466Y014680D01*
X018498Y014680D02*
X018530Y014712D01*
X018530Y014743D01*
X018498Y014775D01*
X018435Y014775D01*
X018403Y014743D01*
X018309Y014743D02*
X018277Y014775D01*
X018214Y014775D01*
X018182Y014743D01*
X018182Y014617D01*
X018624Y014617D02*
X018656Y014585D01*
X018719Y014585D01*
X018751Y014617D01*
X018751Y014743D01*
X018719Y014775D01*
X018656Y014775D01*
X018624Y014743D01*
X018624Y014712D01*
X018656Y014680D01*
X018751Y014680D01*
X018751Y016745D02*
X018624Y016745D01*
X018687Y016745D02*
X018687Y016935D01*
X018624Y016872D01*
X018530Y016872D02*
X018498Y016840D01*
X018530Y016808D01*
X018530Y016777D01*
X018498Y016745D01*
X018435Y016745D01*
X018403Y016777D01*
X018466Y016840D02*
X018498Y016840D01*
X018530Y016872D02*
X018530Y016903D01*
X018498Y016935D01*
X018435Y016935D01*
X018403Y016903D01*
X018309Y016903D02*
X018309Y016840D01*
X018277Y016808D01*
X018182Y016808D01*
X018182Y016745D02*
X018182Y016935D01*
X018277Y016935D01*
X018309Y016903D01*
X018245Y016808D02*
X018309Y016745D01*
X018309Y017285D02*
X018245Y017348D01*
X018277Y017348D02*
X018182Y017348D01*
X018182Y017285D02*
X018182Y017475D01*
X018277Y017475D01*
X018309Y017443D01*
X018309Y017380D01*
X018277Y017348D01*
X018403Y017285D02*
X018530Y017412D01*
X018530Y017443D01*
X018498Y017475D01*
X018435Y017475D01*
X018403Y017443D01*
X018403Y017285D02*
X018530Y017285D01*
X018624Y017317D02*
X018656Y017285D01*
X018719Y017285D01*
X018751Y017317D01*
X018751Y017443D01*
X018719Y017475D01*
X018656Y017475D01*
X018624Y017443D01*
X018624Y017412D01*
X018656Y017380D01*
X018751Y017380D01*
X021605Y017937D02*
X021637Y017905D01*
X021700Y017905D01*
X021732Y017937D01*
X021826Y017937D02*
X021858Y017905D01*
X021921Y017905D01*
X021953Y017937D01*
X021953Y017968D01*
X021921Y018000D01*
X021889Y018000D01*
X021921Y018000D02*
X021953Y018032D01*
X021953Y018063D01*
X021921Y018095D01*
X021858Y018095D01*
X021826Y018063D01*
X021732Y018063D02*
X021700Y018095D01*
X021637Y018095D01*
X021605Y018063D01*
X021605Y017937D01*
X022047Y017937D02*
X022079Y017905D01*
X022142Y017905D01*
X022174Y017937D01*
X022174Y017968D01*
X022142Y018000D01*
X022047Y018000D01*
X022047Y017937D01*
X022047Y018000D02*
X022110Y018063D01*
X022174Y018095D01*
X024385Y018937D02*
X024417Y018905D01*
X024480Y018905D01*
X024512Y018937D01*
X024606Y018937D02*
X024638Y018905D01*
X024701Y018905D01*
X024733Y018937D01*
X024733Y018968D01*
X024701Y019000D01*
X024669Y019000D01*
X024701Y019000D02*
X024733Y019032D01*
X024733Y019063D01*
X024701Y019095D01*
X024638Y019095D01*
X024606Y019063D01*
X024512Y019063D02*
X024480Y019095D01*
X024417Y019095D01*
X024385Y019063D01*
X024385Y018937D01*
X024827Y018937D02*
X024859Y018905D01*
X024922Y018905D01*
X024954Y018937D01*
X024954Y019000D01*
X024922Y019032D01*
X024890Y019032D01*
X024827Y019000D01*
X024827Y019095D01*
X024954Y019095D01*
X024922Y019505D02*
X024859Y019505D01*
X024827Y019537D01*
X024890Y019600D02*
X024922Y019600D01*
X024954Y019568D01*
X024954Y019537D01*
X024922Y019505D01*
X024922Y019600D02*
X024954Y019632D01*
X024954Y019663D01*
X024922Y019695D01*
X024859Y019695D01*
X024827Y019663D01*
X024733Y019663D02*
X024733Y019632D01*
X024701Y019600D01*
X024733Y019568D01*
X024733Y019537D01*
X024701Y019505D01*
X024638Y019505D01*
X024606Y019537D01*
X024669Y019600D02*
X024701Y019600D01*
X024733Y019663D02*
X024701Y019695D01*
X024638Y019695D01*
X024606Y019663D01*
X024512Y019663D02*
X024480Y019695D01*
X024417Y019695D01*
X024385Y019663D01*
X024385Y019537D01*
X024417Y019505D01*
X024480Y019505D01*
X024512Y019537D01*
X023011Y020677D02*
X022979Y020645D01*
X022916Y020645D01*
X022884Y020677D01*
X023011Y020803D01*
X023011Y020677D01*
X023011Y020803D02*
X022979Y020835D01*
X022916Y020835D01*
X022884Y020803D01*
X022884Y020677D01*
X022790Y020677D02*
X022758Y020645D01*
X022695Y020645D01*
X022663Y020677D01*
X022726Y020740D02*
X022758Y020740D01*
X022790Y020708D01*
X022790Y020677D01*
X022758Y020740D02*
X022790Y020772D01*
X022790Y020803D01*
X022758Y020835D01*
X022695Y020835D01*
X022663Y020803D01*
X022569Y020803D02*
X022537Y020835D01*
X022474Y020835D01*
X022442Y020803D01*
X022442Y020677D01*
X022474Y020645D01*
X022537Y020645D01*
X022569Y020677D01*
X022569Y021185D02*
X022505Y021248D01*
X022537Y021248D02*
X022442Y021248D01*
X022442Y021185D02*
X022442Y021375D01*
X022537Y021375D01*
X022569Y021343D01*
X022569Y021280D01*
X022537Y021248D01*
X022663Y021185D02*
X022790Y021312D01*
X022790Y021343D01*
X022758Y021375D01*
X022695Y021375D01*
X022663Y021343D01*
X022663Y021185D02*
X022790Y021185D01*
X022884Y021280D02*
X023011Y021280D01*
X022979Y021185D02*
X022979Y021375D01*
X022884Y021280D01*
X022916Y021785D02*
X022884Y021817D01*
X022916Y021785D02*
X022979Y021785D01*
X023011Y021817D01*
X023011Y021943D01*
X022979Y021975D01*
X022916Y021975D01*
X022884Y021943D01*
X022884Y021912D01*
X022916Y021880D01*
X023011Y021880D01*
X022790Y021912D02*
X022790Y021943D01*
X022758Y021975D01*
X022695Y021975D01*
X022663Y021943D01*
X022569Y021943D02*
X022537Y021975D01*
X022474Y021975D01*
X022442Y021943D01*
X022442Y021817D01*
X022474Y021785D01*
X022537Y021785D01*
X022569Y021817D01*
X022663Y021785D02*
X022790Y021912D01*
X022790Y021785D02*
X022663Y021785D01*
X024625Y022777D02*
X024657Y022745D01*
X024720Y022745D01*
X024752Y022777D01*
X024846Y022745D02*
X024973Y022872D01*
X024973Y022903D01*
X024941Y022935D01*
X024878Y022935D01*
X024846Y022903D01*
X024752Y022903D02*
X024720Y022935D01*
X024657Y022935D01*
X024625Y022903D01*
X024625Y022777D01*
X024846Y022745D02*
X024973Y022745D01*
X025067Y022777D02*
X025067Y022808D01*
X025099Y022840D01*
X025162Y022840D01*
X025194Y022808D01*
X025194Y022777D01*
X025162Y022745D01*
X025099Y022745D01*
X025067Y022777D01*
X025099Y022840D02*
X025067Y022872D01*
X025067Y022903D01*
X025099Y022935D01*
X025162Y022935D01*
X025194Y022903D01*
X025194Y022872D01*
X025162Y022840D01*
X025067Y023345D02*
X025067Y023377D01*
X025194Y023503D01*
X025194Y023535D01*
X025067Y023535D01*
X024973Y023503D02*
X024941Y023535D01*
X024878Y023535D01*
X024846Y023503D01*
X024752Y023503D02*
X024720Y023535D01*
X024657Y023535D01*
X024625Y023503D01*
X024625Y023377D01*
X024657Y023345D01*
X024720Y023345D01*
X024752Y023377D01*
X024846Y023345D02*
X024973Y023472D01*
X024973Y023503D01*
X024973Y023345D02*
X024846Y023345D01*
X024846Y023885D02*
X024973Y024012D01*
X024973Y024043D01*
X024941Y024075D01*
X024878Y024075D01*
X024846Y024043D01*
X024752Y024043D02*
X024720Y024075D01*
X024657Y024075D01*
X024625Y024043D01*
X024625Y023917D01*
X024657Y023885D01*
X024720Y023885D01*
X024752Y023917D01*
X024846Y023885D02*
X024973Y023885D01*
X025067Y023917D02*
X025099Y023885D01*
X025162Y023885D01*
X025194Y023917D01*
X025194Y023948D01*
X025162Y023980D01*
X025067Y023980D01*
X025067Y023917D01*
X025067Y023980D02*
X025130Y024043D01*
X025194Y024075D01*
X025194Y024425D02*
X025067Y024425D01*
X025130Y024425D02*
X025130Y024615D01*
X025067Y024552D01*
X024973Y024552D02*
X024973Y024583D01*
X024941Y024615D01*
X024878Y024615D01*
X024846Y024583D01*
X024752Y024583D02*
X024752Y024520D01*
X024720Y024488D01*
X024625Y024488D01*
X024625Y024425D02*
X024625Y024615D01*
X024720Y024615D01*
X024752Y024583D01*
X024688Y024488D02*
X024752Y024425D01*
X024846Y024425D02*
X024973Y024552D01*
X024973Y024425D02*
X024846Y024425D01*
X024846Y024965D02*
X024973Y025092D01*
X024973Y025123D01*
X024941Y025155D01*
X024878Y025155D01*
X024846Y025123D01*
X024752Y025123D02*
X024720Y025155D01*
X024657Y025155D01*
X024625Y025123D01*
X024625Y024997D01*
X024657Y024965D01*
X024720Y024965D01*
X024752Y024997D01*
X024846Y024965D02*
X024973Y024965D01*
X025067Y024997D02*
X025099Y024965D01*
X025162Y024965D01*
X025194Y024997D01*
X025194Y025060D01*
X025162Y025092D01*
X025130Y025092D01*
X025067Y025060D01*
X025067Y025155D01*
X025194Y025155D01*
X025162Y025505D02*
X025099Y025505D01*
X025067Y025537D01*
X025130Y025600D02*
X025162Y025600D01*
X025194Y025568D01*
X025194Y025537D01*
X025162Y025505D01*
X025162Y025600D02*
X025194Y025632D01*
X025194Y025663D01*
X025162Y025695D01*
X025099Y025695D01*
X025067Y025663D01*
X024973Y025663D02*
X024941Y025695D01*
X024878Y025695D01*
X024846Y025663D01*
X024752Y025663D02*
X024720Y025695D01*
X024657Y025695D01*
X024625Y025663D01*
X024625Y025537D01*
X024657Y025505D01*
X024720Y025505D01*
X024752Y025537D01*
X024846Y025505D02*
X024973Y025632D01*
X024973Y025663D01*
X024973Y025505D02*
X024846Y025505D01*
X024752Y026045D02*
X024625Y026045D01*
X024625Y026235D01*
X024846Y026140D02*
X024973Y026140D01*
X024941Y026045D02*
X024941Y026235D01*
X024846Y026140D01*
X027615Y026115D02*
X028065Y026115D01*
X028065Y025965D02*
X028065Y026265D01*
X027765Y025965D02*
X027615Y026115D01*
X028615Y026190D02*
X028615Y026040D01*
X028690Y025965D01*
X028615Y026190D02*
X028690Y026265D01*
X028765Y026265D01*
X029065Y025965D01*
X029065Y026265D01*
X031255Y026415D02*
X031255Y026510D01*
X031287Y026542D01*
X031350Y026542D01*
X031382Y026510D01*
X031382Y026415D01*
X031445Y026415D02*
X031255Y026415D01*
X031382Y026478D02*
X031445Y026542D01*
X031445Y026636D02*
X031445Y026763D01*
X031445Y026699D02*
X031255Y026699D01*
X031318Y026636D01*
X031350Y026857D02*
X031350Y026952D01*
X031382Y026984D01*
X031413Y026984D01*
X031445Y026952D01*
X031445Y026889D01*
X031413Y026857D01*
X031350Y026857D01*
X031287Y026920D01*
X031255Y026984D01*
X032905Y024095D02*
X033000Y024095D01*
X033032Y024063D01*
X033032Y024000D01*
X033000Y023968D01*
X032905Y023968D01*
X032905Y023905D02*
X032905Y024095D01*
X032968Y023968D02*
X033032Y023905D01*
X033126Y024000D02*
X033253Y024000D01*
X033347Y024000D02*
X033442Y024000D01*
X033474Y023968D01*
X033474Y023937D01*
X033442Y023905D01*
X033379Y023905D01*
X033347Y023937D01*
X033347Y024000D01*
X033410Y024063D01*
X033474Y024095D01*
X033221Y024095D02*
X033126Y024000D01*
X033221Y023905D02*
X033221Y024095D01*
X033221Y023495D02*
X033158Y023495D01*
X033126Y023463D01*
X033032Y023463D02*
X033032Y023400D01*
X033000Y023368D01*
X032905Y023368D01*
X032905Y023305D02*
X032905Y023495D01*
X033000Y023495D01*
X033032Y023463D01*
X032968Y023368D02*
X033032Y023305D01*
X033126Y023305D02*
X033253Y023432D01*
X033253Y023463D01*
X033221Y023495D01*
X033347Y023463D02*
X033379Y023495D01*
X033442Y023495D01*
X033474Y023463D01*
X033347Y023337D01*
X033379Y023305D01*
X033442Y023305D01*
X033474Y023337D01*
X033474Y023463D01*
X033347Y023463D02*
X033347Y023337D01*
X033253Y023305D02*
X033126Y023305D01*
X033126Y022095D02*
X033126Y022000D01*
X033189Y022032D01*
X033221Y022032D01*
X033253Y022000D01*
X033253Y021937D01*
X033221Y021905D01*
X033158Y021905D01*
X033126Y021937D01*
X033032Y021905D02*
X032968Y021968D01*
X033000Y021968D02*
X032905Y021968D01*
X032905Y021905D02*
X032905Y022095D01*
X033000Y022095D01*
X033032Y022063D01*
X033032Y022000D01*
X033000Y021968D01*
X033126Y022095D02*
X033253Y022095D01*
X033347Y022063D02*
X033379Y022095D01*
X033442Y022095D01*
X033474Y022063D01*
X033474Y022032D01*
X033347Y021905D01*
X033474Y021905D01*
X033442Y021495D02*
X033474Y021463D01*
X033474Y021432D01*
X033442Y021400D01*
X033474Y021368D01*
X033474Y021337D01*
X033442Y021305D01*
X033379Y021305D01*
X033347Y021337D01*
X033410Y021400D02*
X033442Y021400D01*
X033442Y021495D02*
X033379Y021495D01*
X033347Y021463D01*
X033253Y021463D02*
X033221Y021495D01*
X033158Y021495D01*
X033126Y021463D01*
X033032Y021463D02*
X033032Y021400D01*
X033000Y021368D01*
X032905Y021368D01*
X032905Y021305D02*
X032905Y021495D01*
X033000Y021495D01*
X033032Y021463D01*
X032968Y021368D02*
X033032Y021305D01*
X033126Y021305D02*
X033253Y021432D01*
X033253Y021463D01*
X033253Y021305D02*
X033126Y021305D01*
X033126Y020095D02*
X033126Y020000D01*
X033189Y020032D01*
X033221Y020032D01*
X033253Y020000D01*
X033253Y019937D01*
X033221Y019905D01*
X033158Y019905D01*
X033126Y019937D01*
X033032Y019905D02*
X032968Y019968D01*
X033000Y019968D02*
X032905Y019968D01*
X032905Y019905D02*
X032905Y020095D01*
X033000Y020095D01*
X033032Y020063D01*
X033032Y020000D01*
X033000Y019968D01*
X033126Y020095D02*
X033253Y020095D01*
X033347Y020032D02*
X033410Y020095D01*
X033410Y019905D01*
X033347Y019905D02*
X033474Y019905D01*
X033474Y019495D02*
X033410Y019463D01*
X033347Y019400D01*
X033442Y019400D01*
X033474Y019368D01*
X033474Y019337D01*
X033442Y019305D01*
X033379Y019305D01*
X033347Y019337D01*
X033347Y019400D01*
X033253Y019432D02*
X033253Y019463D01*
X033221Y019495D01*
X033158Y019495D01*
X033126Y019463D01*
X033032Y019463D02*
X033032Y019400D01*
X033000Y019368D01*
X032905Y019368D01*
X032905Y019305D02*
X032905Y019495D01*
X033000Y019495D01*
X033032Y019463D01*
X032968Y019368D02*
X033032Y019305D01*
X033126Y019305D02*
X033253Y019432D01*
X033253Y019305D02*
X033126Y019305D01*
X033126Y018095D02*
X033126Y018000D01*
X033189Y018032D01*
X033221Y018032D01*
X033253Y018000D01*
X033253Y017937D01*
X033221Y017905D01*
X033158Y017905D01*
X033126Y017937D01*
X033032Y017905D02*
X032968Y017968D01*
X033000Y017968D02*
X032905Y017968D01*
X032905Y017905D02*
X032905Y018095D01*
X033000Y018095D01*
X033032Y018063D01*
X033032Y018000D01*
X033000Y017968D01*
X033126Y018095D02*
X033253Y018095D01*
X033347Y018063D02*
X033379Y018095D01*
X033442Y018095D01*
X033474Y018063D01*
X033347Y017937D01*
X033379Y017905D01*
X033442Y017905D01*
X033474Y017937D01*
X033474Y018063D01*
X033347Y018063D02*
X033347Y017937D01*
X033379Y017495D02*
X033442Y017495D01*
X033474Y017463D01*
X033474Y017432D01*
X033442Y017400D01*
X033379Y017400D01*
X033347Y017432D01*
X033347Y017463D01*
X033379Y017495D01*
X033379Y017400D02*
X033347Y017368D01*
X033347Y017337D01*
X033379Y017305D01*
X033442Y017305D01*
X033474Y017337D01*
X033474Y017368D01*
X033442Y017400D01*
X033253Y017432D02*
X033253Y017463D01*
X033221Y017495D01*
X033158Y017495D01*
X033126Y017463D01*
X033032Y017463D02*
X033032Y017400D01*
X033000Y017368D01*
X032905Y017368D01*
X032905Y017305D02*
X032905Y017495D01*
X033000Y017495D01*
X033032Y017463D01*
X032968Y017368D02*
X033032Y017305D01*
X033126Y017305D02*
X033253Y017432D01*
X033253Y017305D02*
X033126Y017305D01*
X030871Y016443D02*
X030839Y016475D01*
X030776Y016475D01*
X030744Y016443D01*
X030650Y016443D02*
X030650Y016412D01*
X030618Y016380D01*
X030650Y016348D01*
X030650Y016317D01*
X030618Y016285D01*
X030555Y016285D01*
X030523Y016317D01*
X030586Y016380D02*
X030618Y016380D01*
X030650Y016443D02*
X030618Y016475D01*
X030555Y016475D01*
X030523Y016443D01*
X030429Y016443D02*
X030429Y016380D01*
X030397Y016348D01*
X030302Y016348D01*
X030302Y016285D02*
X030302Y016475D01*
X030397Y016475D01*
X030429Y016443D01*
X030365Y016348D02*
X030429Y016285D01*
X030744Y016285D02*
X030871Y016412D01*
X030871Y016443D01*
X030871Y016285D02*
X030744Y016285D01*
X030776Y015935D02*
X030839Y015935D01*
X030871Y015903D01*
X030871Y015872D01*
X030839Y015840D01*
X030871Y015808D01*
X030871Y015777D01*
X030839Y015745D01*
X030776Y015745D01*
X030744Y015777D01*
X030807Y015840D02*
X030839Y015840D01*
X030744Y015903D02*
X030776Y015935D01*
X030650Y015903D02*
X030650Y015872D01*
X030618Y015840D01*
X030650Y015808D01*
X030650Y015777D01*
X030618Y015745D01*
X030555Y015745D01*
X030523Y015777D01*
X030586Y015840D02*
X030618Y015840D01*
X030650Y015903D02*
X030618Y015935D01*
X030555Y015935D01*
X030523Y015903D01*
X030429Y015903D02*
X030429Y015840D01*
X030397Y015808D01*
X030302Y015808D01*
X030302Y015745D02*
X030302Y015935D01*
X030397Y015935D01*
X030429Y015903D01*
X030365Y015808D02*
X030429Y015745D01*
X030397Y015395D02*
X030429Y015363D01*
X030429Y015300D01*
X030397Y015268D01*
X030302Y015268D01*
X030302Y015205D02*
X030302Y015395D01*
X030397Y015395D01*
X030523Y015363D02*
X030555Y015395D01*
X030618Y015395D01*
X030650Y015363D01*
X030650Y015332D01*
X030618Y015300D01*
X030650Y015268D01*
X030650Y015237D01*
X030618Y015205D01*
X030555Y015205D01*
X030523Y015237D01*
X030586Y015300D02*
X030618Y015300D01*
X030744Y015300D02*
X030871Y015300D01*
X030839Y015205D02*
X030839Y015395D01*
X030744Y015300D01*
X030429Y015205D02*
X030365Y015268D01*
X027751Y013963D02*
X027624Y013837D01*
X027656Y013805D01*
X027719Y013805D01*
X027751Y013837D01*
X027751Y013963D01*
X027719Y013995D01*
X027656Y013995D01*
X027624Y013963D01*
X027624Y013837D01*
X027530Y013900D02*
X027403Y013900D01*
X027498Y013995D01*
X027498Y013805D01*
X027309Y013837D02*
X027277Y013805D01*
X027214Y013805D01*
X027182Y013837D01*
X027182Y013963D01*
X027214Y013995D01*
X027277Y013995D01*
X027309Y013963D01*
X026814Y010255D02*
X026687Y010255D01*
X026687Y010160D01*
X026750Y010192D01*
X026782Y010192D01*
X026814Y010160D01*
X026814Y010097D01*
X026782Y010065D01*
X026719Y010065D01*
X026687Y010097D01*
X026593Y010160D02*
X026466Y010160D01*
X026561Y010255D01*
X026561Y010065D01*
X026372Y010097D02*
X026340Y010065D01*
X026277Y010065D01*
X026245Y010097D01*
X026245Y010223D01*
X026277Y010255D01*
X026340Y010255D01*
X026372Y010223D01*
X022314Y010160D02*
X022187Y010160D01*
X022282Y010255D01*
X022282Y010065D01*
X022093Y010160D02*
X021966Y010160D01*
X022061Y010255D01*
X022061Y010065D01*
X021872Y010097D02*
X021840Y010065D01*
X021777Y010065D01*
X021745Y010097D01*
X021745Y010223D01*
X021777Y010255D01*
X021840Y010255D01*
X021872Y010223D01*
X017914Y010223D02*
X017914Y010192D01*
X017882Y010160D01*
X017914Y010128D01*
X017914Y010097D01*
X017882Y010065D01*
X017819Y010065D01*
X017787Y010097D01*
X017850Y010160D02*
X017882Y010160D01*
X017914Y010223D02*
X017882Y010255D01*
X017819Y010255D01*
X017787Y010223D01*
X017693Y010160D02*
X017566Y010160D01*
X017661Y010255D01*
X017661Y010065D01*
X017472Y010097D02*
X017440Y010065D01*
X017377Y010065D01*
X017345Y010097D01*
X017345Y010223D01*
X017377Y010255D01*
X017440Y010255D01*
X017472Y010223D01*
X013314Y010223D02*
X013282Y010255D01*
X013219Y010255D01*
X013187Y010223D01*
X013093Y010160D02*
X012966Y010160D01*
X013061Y010255D01*
X013061Y010065D01*
X013187Y010065D02*
X013314Y010192D01*
X013314Y010223D01*
X013314Y010065D02*
X013187Y010065D01*
X012872Y010097D02*
X012840Y010065D01*
X012777Y010065D01*
X012745Y010097D01*
X012745Y010223D01*
X012777Y010255D01*
X012840Y010255D01*
X012872Y010223D01*
X011082Y015145D02*
X011019Y015145D01*
X010987Y015177D01*
X010987Y015208D01*
X011019Y015240D01*
X011082Y015240D01*
X011114Y015208D01*
X011114Y015177D01*
X011082Y015145D01*
X011082Y015240D02*
X011114Y015272D01*
X011114Y015303D01*
X011082Y015335D01*
X011019Y015335D01*
X010987Y015303D01*
X010987Y015272D01*
X011019Y015240D01*
X010893Y015208D02*
X010893Y015177D01*
X010861Y015145D01*
X010798Y015145D01*
X010766Y015177D01*
X010829Y015240D02*
X010861Y015240D01*
X010893Y015208D01*
X010861Y015240D02*
X010893Y015272D01*
X010893Y015303D01*
X010861Y015335D01*
X010798Y015335D01*
X010766Y015303D01*
X010672Y015303D02*
X010640Y015335D01*
X010577Y015335D01*
X010545Y015303D01*
X010545Y015177D01*
X010577Y015145D01*
X010640Y015145D01*
X010672Y015177D01*
X008414Y017037D02*
X008382Y017005D01*
X008319Y017005D01*
X008287Y017037D01*
X008414Y017163D01*
X008414Y017037D01*
X008414Y017163D02*
X008382Y017195D01*
X008319Y017195D01*
X008287Y017163D01*
X008287Y017037D01*
X008193Y017037D02*
X008161Y017005D01*
X008098Y017005D01*
X008066Y017037D01*
X008129Y017100D02*
X008161Y017100D01*
X008193Y017068D01*
X008193Y017037D01*
X008161Y017100D02*
X008193Y017132D01*
X008193Y017163D01*
X008161Y017195D01*
X008098Y017195D01*
X008066Y017163D01*
X007972Y017163D02*
X007972Y017100D01*
X007940Y017068D01*
X007845Y017068D01*
X007845Y017005D02*
X007845Y017195D01*
X007940Y017195D01*
X007972Y017163D01*
X007908Y017068D02*
X007972Y017005D01*
X008021Y019705D02*
X008021Y019895D01*
X007926Y019800D01*
X008053Y019800D01*
X008147Y019800D02*
X008210Y019832D01*
X008242Y019832D01*
X008274Y019800D01*
X008274Y019737D01*
X008242Y019705D01*
X008179Y019705D01*
X008147Y019737D01*
X008147Y019800D02*
X008147Y019895D01*
X008274Y019895D01*
X008187Y020285D02*
X008187Y020317D01*
X008314Y020443D01*
X008314Y020475D01*
X008187Y020475D01*
X008093Y020443D02*
X008061Y020475D01*
X007998Y020475D01*
X007966Y020443D01*
X007872Y020443D02*
X007872Y020380D01*
X007840Y020348D01*
X007745Y020348D01*
X007745Y020285D02*
X007745Y020475D01*
X007840Y020475D01*
X007872Y020443D01*
X007808Y020348D02*
X007872Y020285D01*
X007966Y020285D02*
X008093Y020412D01*
X008093Y020443D01*
X008093Y020285D02*
X007966Y020285D01*
X007800Y019895D02*
X007705Y019895D01*
X007705Y019705D01*
X007705Y019768D02*
X007800Y019768D01*
X007832Y019800D01*
X007832Y019863D01*
X007800Y019895D01*
X007768Y019768D02*
X007832Y019705D01*
X009593Y019685D02*
X009720Y019685D01*
X009814Y019717D02*
X009846Y019685D01*
X009909Y019685D01*
X009941Y019717D01*
X009941Y019780D01*
X009909Y019812D01*
X009877Y019812D01*
X009814Y019780D01*
X009814Y019875D01*
X009941Y019875D01*
X009593Y019875D02*
X009593Y019685D01*
X008242Y021705D02*
X008179Y021705D01*
X008147Y021737D01*
X008179Y021800D02*
X008274Y021800D01*
X008274Y021737D02*
X008274Y021863D01*
X008242Y021895D01*
X008179Y021895D01*
X008147Y021863D01*
X008147Y021832D01*
X008179Y021800D01*
X008242Y021705D02*
X008274Y021737D01*
X008053Y021800D02*
X007926Y021800D01*
X008021Y021895D01*
X008021Y021705D01*
X007832Y021705D02*
X007768Y021768D01*
X007800Y021768D02*
X007705Y021768D01*
X007705Y021705D02*
X007705Y021895D01*
X007800Y021895D01*
X007832Y021863D01*
X007832Y021800D01*
X007800Y021768D01*
X007745Y022265D02*
X007745Y022455D01*
X007840Y022455D01*
X007872Y022423D01*
X007872Y022360D01*
X007840Y022328D01*
X007745Y022328D01*
X007808Y022328D02*
X007872Y022265D01*
X007966Y022265D02*
X008093Y022392D01*
X008093Y022423D01*
X008061Y022455D01*
X007998Y022455D01*
X007966Y022423D01*
X007966Y022265D02*
X008093Y022265D01*
X008187Y022297D02*
X008219Y022265D01*
X008282Y022265D01*
X008314Y022297D01*
X008314Y022360D01*
X008282Y022392D01*
X008250Y022392D01*
X008187Y022360D01*
X008187Y022455D01*
X008314Y022455D01*
X008242Y023705D02*
X008179Y023705D01*
X008147Y023737D01*
X008147Y023768D01*
X008179Y023800D01*
X008242Y023800D01*
X008274Y023768D01*
X008274Y023737D01*
X008242Y023705D01*
X008242Y023800D02*
X008274Y023832D01*
X008274Y023863D01*
X008242Y023895D01*
X008179Y023895D01*
X008147Y023863D01*
X008147Y023832D01*
X008179Y023800D01*
X008053Y023800D02*
X007926Y023800D01*
X008021Y023895D01*
X008021Y023705D01*
X007832Y023705D02*
X007768Y023768D01*
X007800Y023768D02*
X007705Y023768D01*
X007705Y023705D02*
X007705Y023895D01*
X007800Y023895D01*
X007832Y023863D01*
X007832Y023800D01*
X007800Y023768D01*
X007745Y024305D02*
X007745Y024495D01*
X007840Y024495D01*
X007872Y024463D01*
X007872Y024400D01*
X007840Y024368D01*
X007745Y024368D01*
X007808Y024368D02*
X007872Y024305D01*
X007966Y024305D02*
X008093Y024432D01*
X008093Y024463D01*
X008061Y024495D01*
X007998Y024495D01*
X007966Y024463D01*
X007966Y024305D02*
X008093Y024305D01*
X008187Y024305D02*
X008314Y024432D01*
X008314Y024463D01*
X008282Y024495D01*
X008219Y024495D01*
X008187Y024463D01*
X008187Y024305D02*
X008314Y024305D01*
X008147Y025705D02*
X008147Y025737D01*
X008274Y025863D01*
X008274Y025895D01*
X008147Y025895D01*
X008021Y025895D02*
X007926Y025800D01*
X008053Y025800D01*
X008021Y025705D02*
X008021Y025895D01*
X007832Y025863D02*
X007832Y025800D01*
X007800Y025768D01*
X007705Y025768D01*
X007705Y025705D02*
X007705Y025895D01*
X007800Y025895D01*
X007832Y025863D01*
X007768Y025768D02*
X007832Y025705D01*
X007872Y026285D02*
X007808Y026348D01*
X007840Y026348D02*
X007745Y026348D01*
X007745Y026285D02*
X007745Y026475D01*
X007840Y026475D01*
X007872Y026443D01*
X007872Y026380D01*
X007840Y026348D01*
X007966Y026285D02*
X008093Y026285D01*
X008029Y026285D02*
X008029Y026475D01*
X007966Y026412D01*
X008187Y026412D02*
X008219Y026380D01*
X008314Y026380D01*
X008314Y026317D02*
X008314Y026443D01*
X008282Y026475D01*
X008219Y026475D01*
X008187Y026443D01*
X008187Y026412D01*
X008187Y026317D02*
X008219Y026285D01*
X008282Y026285D01*
X008314Y026317D01*
X012925Y029497D02*
X012957Y029465D01*
X013020Y029465D01*
X013052Y029497D01*
X013146Y029465D02*
X013273Y029465D01*
X013209Y029465D02*
X013209Y029655D01*
X013146Y029592D01*
X013052Y029623D02*
X013020Y029655D01*
X012957Y029655D01*
X012925Y029623D01*
X012925Y029497D01*
X013367Y029497D02*
X013399Y029465D01*
X013462Y029465D01*
X013494Y029497D01*
X013494Y029560D01*
X013462Y029592D01*
X013430Y029592D01*
X013367Y029560D01*
X013367Y029655D01*
X013494Y029655D01*
X013241Y030005D02*
X013178Y030005D01*
X013146Y030037D01*
X013209Y030100D02*
X013241Y030100D01*
X013273Y030068D01*
X013273Y030037D01*
X013241Y030005D01*
X013241Y030100D02*
X013273Y030132D01*
X013273Y030163D01*
X013241Y030195D01*
X013178Y030195D01*
X013146Y030163D01*
X013052Y030005D02*
X012925Y030005D01*
X012925Y030195D01*
X016142Y028603D02*
X016142Y028477D01*
X016174Y028445D01*
X016237Y028445D01*
X016269Y028477D01*
X016363Y028445D02*
X016490Y028445D01*
X016426Y028445D02*
X016426Y028635D01*
X016363Y028572D01*
X016269Y028603D02*
X016237Y028635D01*
X016174Y028635D01*
X016142Y028603D01*
X016584Y028603D02*
X016584Y028572D01*
X016616Y028540D01*
X016679Y028540D01*
X016711Y028508D01*
X016711Y028477D01*
X016679Y028445D01*
X016616Y028445D01*
X016584Y028477D01*
X016584Y028508D01*
X016616Y028540D01*
X016679Y028540D02*
X016711Y028572D01*
X016711Y028603D01*
X016679Y028635D01*
X016616Y028635D01*
X016584Y028603D01*
X016679Y027675D02*
X016584Y027580D01*
X016711Y027580D01*
X016679Y027485D02*
X016679Y027675D01*
X016426Y027675D02*
X016426Y027485D01*
X016363Y027485D02*
X016490Y027485D01*
X016363Y027612D02*
X016426Y027675D01*
X016269Y027643D02*
X016269Y027580D01*
X016237Y027548D01*
X016142Y027548D01*
X016142Y027485D02*
X016142Y027675D01*
X016237Y027675D01*
X016269Y027643D01*
X016205Y027548D02*
X016269Y027485D01*
X015867Y026475D02*
X015867Y026285D01*
X015804Y026285D02*
X015931Y026285D01*
X015804Y026412D02*
X015867Y026475D01*
X015710Y026443D02*
X015678Y026475D01*
X015615Y026475D01*
X015583Y026443D01*
X015489Y026443D02*
X015457Y026475D01*
X015394Y026475D01*
X015362Y026443D01*
X015362Y026317D01*
X015394Y026285D01*
X015457Y026285D01*
X015489Y026317D01*
X015583Y026285D02*
X015710Y026412D01*
X015710Y026443D01*
X015710Y026285D02*
X015583Y026285D01*
X015615Y025935D02*
X015583Y025903D01*
X015615Y025935D02*
X015678Y025935D01*
X015710Y025903D01*
X015710Y025872D01*
X015583Y025745D01*
X015710Y025745D01*
X015804Y025745D02*
X015931Y025872D01*
X015931Y025903D01*
X015899Y025935D01*
X015836Y025935D01*
X015804Y025903D01*
X015804Y025745D02*
X015931Y025745D01*
X015489Y025777D02*
X015457Y025745D01*
X015394Y025745D01*
X015362Y025777D01*
X015362Y025903D01*
X015394Y025935D01*
X015457Y025935D01*
X015489Y025903D01*
X018862Y025503D02*
X018862Y025377D01*
X018894Y025345D01*
X018957Y025345D01*
X018989Y025377D01*
X019083Y025345D02*
X019210Y025472D01*
X019210Y025503D01*
X019178Y025535D01*
X019115Y025535D01*
X019083Y025503D01*
X018989Y025503D02*
X018957Y025535D01*
X018894Y025535D01*
X018862Y025503D01*
X019083Y025345D02*
X019210Y025345D01*
X019304Y025440D02*
X019431Y025440D01*
X019399Y025345D02*
X019399Y025535D01*
X019304Y025440D01*
X020882Y026045D02*
X020882Y026235D01*
X020977Y026235D01*
X021009Y026203D01*
X021009Y026140D01*
X020977Y026108D01*
X020882Y026108D01*
X020945Y026108D02*
X021009Y026045D01*
X021103Y026045D02*
X021230Y026045D01*
X021166Y026045D02*
X021166Y026235D01*
X021103Y026172D01*
X021324Y026172D02*
X021324Y026203D01*
X021356Y026235D01*
X021419Y026235D01*
X021451Y026203D01*
X021451Y026172D01*
X021419Y026140D01*
X021356Y026140D01*
X021324Y026172D01*
X021356Y026140D02*
X021324Y026108D01*
X021324Y026077D01*
X021356Y026045D01*
X021419Y026045D01*
X021451Y026077D01*
X021451Y026108D01*
X021419Y026140D01*
X021324Y026585D02*
X021324Y026617D01*
X021451Y026743D01*
X021451Y026775D01*
X021324Y026775D01*
X021166Y026775D02*
X021166Y026585D01*
X021103Y026585D02*
X021230Y026585D01*
X021103Y026712D02*
X021166Y026775D01*
X021009Y026743D02*
X021009Y026680D01*
X020977Y026648D01*
X020882Y026648D01*
X020882Y026585D02*
X020882Y026775D01*
X020977Y026775D01*
X021009Y026743D01*
X020945Y026648D02*
X021009Y026585D01*
X021009Y027125D02*
X020945Y027188D01*
X020977Y027188D02*
X020882Y027188D01*
X020882Y027125D02*
X020882Y027315D01*
X020977Y027315D01*
X021009Y027283D01*
X021009Y027220D01*
X020977Y027188D01*
X021103Y027125D02*
X021230Y027125D01*
X021166Y027125D02*
X021166Y027315D01*
X021103Y027252D01*
X021324Y027220D02*
X021387Y027252D01*
X021419Y027252D01*
X021451Y027220D01*
X021451Y027157D01*
X021419Y027125D01*
X021356Y027125D01*
X021324Y027157D01*
X021324Y027220D02*
X021324Y027315D01*
X021451Y027315D01*
X021419Y027665D02*
X021356Y027665D01*
X021324Y027697D01*
X021387Y027760D02*
X021419Y027760D01*
X021451Y027728D01*
X021451Y027697D01*
X021419Y027665D01*
X021419Y027760D02*
X021451Y027792D01*
X021451Y027823D01*
X021419Y027855D01*
X021356Y027855D01*
X021324Y027823D01*
X021166Y027855D02*
X021166Y027665D01*
X021103Y027665D02*
X021230Y027665D01*
X021103Y027792D02*
X021166Y027855D01*
X021009Y027823D02*
X021009Y027760D01*
X020977Y027728D01*
X020882Y027728D01*
X020882Y027665D02*
X020882Y027855D01*
X020977Y027855D01*
X021009Y027823D01*
X020945Y027728D02*
X021009Y027665D01*
X021009Y028205D02*
X020945Y028268D01*
X020977Y028268D02*
X020882Y028268D01*
X020882Y028205D02*
X020882Y028395D01*
X020977Y028395D01*
X021009Y028363D01*
X021009Y028300D01*
X020977Y028268D01*
X021103Y028205D02*
X021230Y028205D01*
X021166Y028205D02*
X021166Y028395D01*
X021103Y028332D01*
X021324Y028363D02*
X021356Y028395D01*
X021419Y028395D01*
X021451Y028363D01*
X021451Y028332D01*
X021324Y028205D01*
X021451Y028205D01*
X021419Y028685D02*
X021451Y028717D01*
X021451Y028748D01*
X021419Y028780D01*
X021324Y028780D01*
X021324Y028717D01*
X021356Y028685D01*
X021419Y028685D01*
X021324Y028780D02*
X021387Y028843D01*
X021451Y028875D01*
X021166Y028875D02*
X021166Y028685D01*
X021103Y028685D02*
X021230Y028685D01*
X021103Y028812D02*
X021166Y028875D01*
X021009Y028843D02*
X020977Y028875D01*
X020914Y028875D01*
X020882Y028843D01*
X020882Y028717D01*
X020914Y028685D01*
X020977Y028685D01*
X021009Y028717D01*
X019431Y027863D02*
X019304Y027737D01*
X019336Y027705D01*
X019399Y027705D01*
X019431Y027737D01*
X019431Y027863D01*
X019399Y027895D01*
X019336Y027895D01*
X019304Y027863D01*
X019304Y027737D01*
X019210Y027705D02*
X019083Y027705D01*
X019210Y027832D01*
X019210Y027863D01*
X019178Y027895D01*
X019115Y027895D01*
X019083Y027863D01*
X018989Y027863D02*
X018957Y027895D01*
X018894Y027895D01*
X018862Y027863D01*
X018862Y027737D01*
X018894Y027705D01*
X018957Y027705D01*
X018989Y027737D01*
X017182Y030905D02*
X017182Y031095D01*
X017087Y031000D01*
X017214Y031000D01*
X016993Y030905D02*
X016866Y030905D01*
X016929Y030905D02*
X016929Y031095D01*
X016866Y031032D01*
X016772Y031063D02*
X016740Y031095D01*
X016677Y031095D01*
X016645Y031063D01*
X016645Y030937D01*
X016677Y030905D01*
X016740Y030905D01*
X016772Y030937D01*
X016740Y031745D02*
X016772Y031777D01*
X016740Y031745D02*
X016677Y031745D01*
X016645Y031777D01*
X016645Y031903D01*
X016677Y031935D01*
X016740Y031935D01*
X016772Y031903D01*
X016866Y031872D02*
X016929Y031935D01*
X016929Y031745D01*
X016866Y031745D02*
X016993Y031745D01*
X017087Y031745D02*
X017214Y031872D01*
X017214Y031903D01*
X017182Y031935D01*
X017119Y031935D01*
X017087Y031903D01*
X017087Y031745D02*
X017214Y031745D01*
X017305Y033445D02*
X017305Y033635D01*
X017400Y033635D01*
X017432Y033603D01*
X017432Y033540D01*
X017400Y033508D01*
X017305Y033508D01*
X017368Y033508D02*
X017432Y033445D01*
X017526Y033477D02*
X017558Y033445D01*
X017621Y033445D01*
X017653Y033477D01*
X017653Y033508D01*
X017621Y033540D01*
X017558Y033540D01*
X017526Y033572D01*
X017526Y033603D01*
X017558Y033635D01*
X017621Y033635D01*
X017653Y033603D01*
X017653Y033572D01*
X017621Y033540D01*
X017558Y033540D02*
X017526Y033508D01*
X017526Y033477D01*
X017558Y033985D02*
X017621Y033985D01*
X017653Y034017D01*
X017653Y034048D01*
X017621Y034080D01*
X017526Y034080D01*
X017526Y034017D01*
X017558Y033985D01*
X017526Y034080D02*
X017589Y034143D01*
X017653Y034175D01*
X017432Y034143D02*
X017432Y034080D01*
X017400Y034048D01*
X017305Y034048D01*
X017305Y033985D02*
X017305Y034175D01*
X017400Y034175D01*
X017432Y034143D01*
X017368Y034048D02*
X017432Y033985D01*
X017400Y034525D02*
X017432Y034557D01*
X017400Y034525D02*
X017337Y034525D01*
X017305Y034557D01*
X017305Y034683D01*
X017337Y034715D01*
X017400Y034715D01*
X017432Y034683D01*
X017526Y034652D02*
X017589Y034715D01*
X017589Y034525D01*
X017526Y034525D02*
X017653Y034525D01*
X017747Y034557D02*
X017874Y034683D01*
X017874Y034557D01*
X017842Y034525D01*
X017779Y034525D01*
X017747Y034557D01*
X017747Y034683D01*
X017779Y034715D01*
X017842Y034715D01*
X017874Y034683D01*
X017621Y035065D02*
X017558Y035065D01*
X017526Y035097D01*
X017526Y035128D01*
X017558Y035160D01*
X017621Y035160D01*
X017653Y035128D01*
X017653Y035097D01*
X017621Y035065D01*
X017621Y035160D02*
X017653Y035192D01*
X017653Y035223D01*
X017621Y035255D01*
X017558Y035255D01*
X017526Y035223D01*
X017526Y035192D01*
X017558Y035160D01*
X017432Y035097D02*
X017400Y035065D01*
X017337Y035065D01*
X017305Y035097D01*
X017305Y035223D01*
X017337Y035255D01*
X017400Y035255D01*
X017432Y035223D01*
X017432Y035605D02*
X017368Y035668D01*
X017400Y035668D02*
X017305Y035668D01*
X017305Y035605D02*
X017305Y035795D01*
X017400Y035795D01*
X017432Y035763D01*
X017432Y035700D01*
X017400Y035668D01*
X017526Y035700D02*
X017653Y035700D01*
X017621Y035605D02*
X017621Y035795D01*
X017526Y035700D01*
X017526Y036145D02*
X017653Y036272D01*
X017653Y036303D01*
X017621Y036335D01*
X017558Y036335D01*
X017526Y036303D01*
X017432Y036303D02*
X017432Y036240D01*
X017400Y036208D01*
X017305Y036208D01*
X017305Y036145D02*
X017305Y036335D01*
X017400Y036335D01*
X017432Y036303D01*
X017368Y036208D02*
X017432Y036145D01*
X017526Y036145D02*
X017653Y036145D01*
X019045Y036855D02*
X019077Y036823D01*
X019203Y036823D01*
X019235Y036855D01*
X019235Y036918D01*
X019203Y036950D01*
X019203Y037044D02*
X019235Y037076D01*
X019235Y037139D01*
X019203Y037171D01*
X019140Y037171D01*
X019108Y037139D01*
X019108Y037107D01*
X019140Y037044D01*
X019045Y037044D01*
X019045Y037171D01*
X019077Y036950D02*
X019045Y036918D01*
X019045Y036855D01*
X019645Y036823D02*
X019645Y036918D01*
X019677Y036950D01*
X019740Y036950D01*
X019772Y036918D01*
X019772Y036823D01*
X019835Y036823D02*
X019645Y036823D01*
X019772Y036886D02*
X019835Y036950D01*
X019835Y037044D02*
X019835Y037171D01*
X019835Y037107D02*
X019645Y037107D01*
X019708Y037044D01*
X020245Y036918D02*
X020245Y036855D01*
X020277Y036823D01*
X020403Y036823D01*
X020435Y036855D01*
X020435Y036918D01*
X020403Y036950D01*
X020403Y037044D02*
X020435Y037076D01*
X020435Y037139D01*
X020403Y037171D01*
X020372Y037171D01*
X020340Y037139D01*
X020340Y037044D01*
X020403Y037044D01*
X020340Y037044D02*
X020277Y037107D01*
X020245Y037171D01*
X020277Y036950D02*
X020245Y036918D01*
X021583Y036335D02*
X021583Y036145D01*
X021583Y036208D02*
X021678Y036208D01*
X021710Y036240D01*
X021710Y036303D01*
X021678Y036335D01*
X021583Y036335D01*
X021646Y036208D02*
X021710Y036145D01*
X021804Y036177D02*
X021836Y036145D01*
X021899Y036145D01*
X021931Y036177D01*
X021931Y036208D01*
X021899Y036240D01*
X021867Y036240D01*
X021899Y036240D02*
X021931Y036272D01*
X021931Y036303D01*
X021899Y036335D01*
X021836Y036335D01*
X021804Y036303D01*
X021804Y035795D02*
X021804Y035700D01*
X021867Y035732D01*
X021899Y035732D01*
X021931Y035700D01*
X021931Y035637D01*
X021899Y035605D01*
X021836Y035605D01*
X021804Y035637D01*
X021710Y035605D02*
X021646Y035668D01*
X021678Y035668D02*
X021583Y035668D01*
X021583Y035605D02*
X021583Y035795D01*
X021678Y035795D01*
X021710Y035763D01*
X021710Y035700D01*
X021678Y035668D01*
X021804Y035795D02*
X021931Y035795D01*
X021899Y035255D02*
X021836Y035255D01*
X021804Y035223D01*
X021804Y035192D01*
X021836Y035160D01*
X021931Y035160D01*
X021931Y035097D02*
X021931Y035223D01*
X021899Y035255D01*
X021931Y035097D02*
X021899Y035065D01*
X021836Y035065D01*
X021804Y035097D01*
X021710Y035097D02*
X021678Y035065D01*
X021615Y035065D01*
X021583Y035097D01*
X021583Y035223D01*
X021615Y035255D01*
X021678Y035255D01*
X021710Y035223D01*
X021646Y034715D02*
X021646Y034525D01*
X021583Y034525D02*
X021710Y034525D01*
X021804Y034525D02*
X021931Y034525D01*
X021867Y034525D02*
X021867Y034715D01*
X021804Y034652D01*
X021646Y034715D02*
X021583Y034652D01*
X021489Y034683D02*
X021457Y034715D01*
X021394Y034715D01*
X021362Y034683D01*
X021362Y034557D01*
X021394Y034525D01*
X021457Y034525D01*
X021489Y034557D01*
X021583Y034175D02*
X021678Y034175D01*
X021710Y034143D01*
X021710Y034080D01*
X021678Y034048D01*
X021583Y034048D01*
X021583Y033985D02*
X021583Y034175D01*
X021646Y034048D02*
X021710Y033985D01*
X021804Y033985D02*
X021804Y034017D01*
X021931Y034143D01*
X021931Y034175D01*
X021804Y034175D01*
X021836Y033635D02*
X021804Y033603D01*
X021804Y033572D01*
X021836Y033540D01*
X021931Y033540D01*
X021931Y033477D02*
X021931Y033603D01*
X021899Y033635D01*
X021836Y033635D01*
X021710Y033603D02*
X021710Y033540D01*
X021678Y033508D01*
X021583Y033508D01*
X021583Y033445D02*
X021583Y033635D01*
X021678Y033635D01*
X021710Y033603D01*
X021646Y033508D02*
X021710Y033445D01*
X021804Y033477D02*
X021836Y033445D01*
X021899Y033445D01*
X021931Y033477D01*
X022562Y032435D02*
X022657Y032435D01*
X022689Y032403D01*
X022689Y032340D01*
X022657Y032308D01*
X022562Y032308D01*
X022562Y032245D02*
X022562Y032435D01*
X022625Y032308D02*
X022689Y032245D01*
X022783Y032245D02*
X022910Y032245D01*
X022846Y032245D02*
X022846Y032435D01*
X022783Y032372D01*
X023004Y032403D02*
X023036Y032435D01*
X023099Y032435D01*
X023131Y032403D01*
X023004Y032277D01*
X023036Y032245D01*
X023099Y032245D01*
X023131Y032277D01*
X023131Y032403D01*
X023004Y032403D02*
X023004Y032277D01*
X023036Y031895D02*
X023099Y031895D01*
X023131Y031863D01*
X023131Y031832D01*
X023099Y031800D01*
X023131Y031768D01*
X023131Y031737D01*
X023099Y031705D01*
X023036Y031705D01*
X023004Y031737D01*
X023067Y031800D02*
X023099Y031800D01*
X023004Y031863D02*
X023036Y031895D01*
X022846Y031895D02*
X022846Y031705D01*
X022783Y031705D02*
X022910Y031705D01*
X022783Y031832D02*
X022846Y031895D01*
X022689Y031863D02*
X022657Y031895D01*
X022594Y031895D01*
X022562Y031863D01*
X022562Y031737D01*
X022594Y031705D01*
X022657Y031705D01*
X022689Y031737D01*
X022657Y031355D02*
X022689Y031323D01*
X022689Y031260D01*
X022657Y031228D01*
X022562Y031228D01*
X022562Y031165D02*
X022562Y031355D01*
X022657Y031355D01*
X022625Y031228D02*
X022689Y031165D01*
X022783Y031165D02*
X022910Y031165D01*
X022846Y031165D02*
X022846Y031355D01*
X022783Y031292D01*
X023004Y031292D02*
X023067Y031355D01*
X023067Y031165D01*
X023004Y031165D02*
X023131Y031165D01*
X029905Y038205D02*
X029968Y038205D01*
X030000Y038237D01*
X030094Y038205D02*
X030221Y038332D01*
X030221Y038363D01*
X030189Y038395D01*
X030126Y038395D01*
X030094Y038363D01*
X030000Y038363D02*
X029968Y038395D01*
X029905Y038395D01*
X029873Y038363D01*
X029873Y038237D01*
X029905Y038205D01*
X030094Y038205D02*
X030221Y038205D01*
X022393Y039255D02*
X022266Y039255D01*
X022329Y039255D02*
X022329Y039445D01*
X022266Y039382D01*
X022172Y039255D02*
X022045Y039255D01*
X022045Y039445D01*
X017473Y039353D02*
X017441Y039385D01*
X017378Y039385D01*
X017346Y039353D01*
X017473Y039353D02*
X017473Y039322D01*
X017346Y039195D01*
X017473Y039195D01*
X017252Y039195D02*
X017125Y039195D01*
X017125Y039385D01*
X009251Y036345D02*
X009251Y036313D01*
X009124Y036187D01*
X009124Y036155D01*
X009030Y036187D02*
X008998Y036155D01*
X008935Y036155D01*
X008903Y036187D01*
X008903Y036313D01*
X008935Y036345D01*
X008998Y036345D01*
X009030Y036313D01*
X009124Y036345D02*
X009251Y036345D01*
X012934Y019995D02*
X012902Y019963D01*
X012902Y019837D01*
X012934Y019805D01*
X012997Y019805D01*
X013029Y019837D01*
X013123Y019837D02*
X013155Y019805D01*
X013218Y019805D01*
X013250Y019837D01*
X013250Y019868D01*
X013218Y019900D01*
X013186Y019900D01*
X013218Y019900D02*
X013250Y019932D01*
X013250Y019963D01*
X013218Y019995D01*
X013155Y019995D01*
X013123Y019963D01*
X013029Y019963D02*
X012997Y019995D01*
X012934Y019995D01*
X013344Y019963D02*
X013376Y019995D01*
X013439Y019995D01*
X013471Y019963D01*
X013471Y019932D01*
X013344Y019805D01*
X013471Y019805D01*
X013439Y019095D02*
X013344Y019000D01*
X013471Y019000D01*
X013439Y018905D02*
X013439Y019095D01*
X013250Y019063D02*
X013250Y019032D01*
X013218Y019000D01*
X013250Y018968D01*
X013250Y018937D01*
X013218Y018905D01*
X013155Y018905D01*
X013123Y018937D01*
X013186Y019000D02*
X013218Y019000D01*
X013250Y019063D02*
X013218Y019095D01*
X013155Y019095D01*
X013123Y019063D01*
X013029Y019063D02*
X012997Y019095D01*
X012934Y019095D01*
X012902Y019063D01*
X012902Y018937D01*
X012934Y018905D01*
X012997Y018905D01*
X013029Y018937D01*
X016163Y004475D02*
X016163Y004285D01*
X016290Y004285D01*
X016384Y004317D02*
X016416Y004285D01*
X016479Y004285D01*
X016511Y004317D01*
X016511Y004348D01*
X016479Y004380D01*
X016384Y004380D01*
X016384Y004317D01*
X016384Y004380D02*
X016447Y004443D01*
X016511Y004475D01*
X016421Y003815D02*
X016326Y003720D01*
X016453Y003720D01*
X016547Y003752D02*
X016610Y003815D01*
X016610Y003625D01*
X016547Y003625D02*
X016674Y003625D01*
X016421Y003625D02*
X016421Y003815D01*
X016232Y003783D02*
X016232Y003720D01*
X016200Y003688D01*
X016105Y003688D01*
X016105Y003625D02*
X016105Y003815D01*
X016200Y003815D01*
X016232Y003783D01*
X016168Y003688D02*
X016232Y003625D01*
X014615Y003613D02*
X014615Y003582D01*
X014583Y003550D01*
X014615Y003518D01*
X014615Y003487D01*
X014583Y003455D01*
X014520Y003455D01*
X014488Y003487D01*
X014551Y003550D02*
X014583Y003550D01*
X014615Y003613D02*
X014583Y003645D01*
X014520Y003645D01*
X014488Y003613D01*
X014394Y003613D02*
X014362Y003645D01*
X014267Y003645D01*
X014267Y003455D01*
X014362Y003455D01*
X014394Y003487D01*
X014394Y003613D01*
X014173Y003645D02*
X014046Y003645D01*
X014046Y003455D01*
X014173Y003455D01*
X014109Y003550D02*
X014046Y003550D01*
X013952Y003455D02*
X013825Y003455D01*
X013825Y003645D01*
X011714Y003957D02*
X011682Y003925D01*
X011619Y003925D01*
X011587Y003957D01*
X011714Y004083D01*
X011714Y003957D01*
X011714Y004083D02*
X011682Y004115D01*
X011619Y004115D01*
X011587Y004083D01*
X011587Y003957D01*
X011493Y003925D02*
X011366Y003925D01*
X011429Y003925D02*
X011429Y004115D01*
X011366Y004052D01*
X011272Y003925D02*
X011145Y003925D01*
X011145Y004115D01*
X018025Y003645D02*
X018025Y003455D01*
X018152Y003455D01*
X018246Y003455D02*
X018373Y003455D01*
X018467Y003455D02*
X018562Y003455D01*
X018594Y003487D01*
X018594Y003613D01*
X018562Y003645D01*
X018467Y003645D01*
X018467Y003455D01*
X018309Y003550D02*
X018246Y003550D01*
X018246Y003645D02*
X018246Y003455D01*
X018246Y003645D02*
X018373Y003645D01*
X018688Y003550D02*
X018815Y003550D01*
X018783Y003455D02*
X018783Y003645D01*
X018688Y003550D01*
X020005Y003625D02*
X020005Y003815D01*
X020100Y003815D01*
X020132Y003783D01*
X020132Y003720D01*
X020100Y003688D01*
X020005Y003688D01*
X020068Y003688D02*
X020132Y003625D01*
X020226Y003720D02*
X020353Y003720D01*
X020321Y003625D02*
X020321Y003815D01*
X020226Y003720D01*
X020447Y003783D02*
X020479Y003815D01*
X020542Y003815D01*
X020574Y003783D01*
X020574Y003752D01*
X020447Y003625D01*
X020574Y003625D01*
X020284Y004345D02*
X020284Y004377D01*
X020411Y004503D01*
X020411Y004535D01*
X020284Y004535D01*
X020190Y004345D02*
X020063Y004345D01*
X020063Y004535D01*
X022585Y003645D02*
X022585Y003455D01*
X022712Y003455D01*
X022806Y003455D02*
X022933Y003455D01*
X023027Y003455D02*
X023122Y003455D01*
X023154Y003487D01*
X023154Y003613D01*
X023122Y003645D01*
X023027Y003645D01*
X023027Y003455D01*
X022869Y003550D02*
X022806Y003550D01*
X022806Y003645D02*
X022806Y003455D01*
X022806Y003645D02*
X022933Y003645D01*
X023248Y003645D02*
X023248Y003550D01*
X023311Y003582D01*
X023343Y003582D01*
X023375Y003550D01*
X023375Y003487D01*
X023343Y003455D01*
X023280Y003455D01*
X023248Y003487D01*
X023248Y003645D02*
X023375Y003645D01*
X024565Y003625D02*
X024565Y003815D01*
X024660Y003815D01*
X024692Y003783D01*
X024692Y003720D01*
X024660Y003688D01*
X024565Y003688D01*
X024628Y003688D02*
X024692Y003625D01*
X024786Y003720D02*
X024913Y003720D01*
X024881Y003625D02*
X024881Y003815D01*
X024786Y003720D01*
X025007Y003657D02*
X025039Y003625D01*
X025102Y003625D01*
X025134Y003657D01*
X025134Y003688D01*
X025102Y003720D01*
X025070Y003720D01*
X025102Y003720D02*
X025134Y003752D01*
X025134Y003783D01*
X025102Y003815D01*
X025039Y003815D01*
X025007Y003783D01*
X024939Y004345D02*
X024876Y004345D01*
X024844Y004377D01*
X024844Y004408D01*
X024876Y004440D01*
X024939Y004440D01*
X024971Y004408D01*
X024971Y004377D01*
X024939Y004345D01*
X024939Y004440D02*
X024971Y004472D01*
X024971Y004503D01*
X024939Y004535D01*
X024876Y004535D01*
X024844Y004503D01*
X024844Y004472D01*
X024876Y004440D01*
X024750Y004345D02*
X024623Y004345D01*
X024623Y004535D01*
X027025Y003645D02*
X027025Y003455D01*
X027152Y003455D01*
X027246Y003455D02*
X027373Y003455D01*
X027467Y003455D02*
X027562Y003455D01*
X027594Y003487D01*
X027594Y003613D01*
X027562Y003645D01*
X027467Y003645D01*
X027467Y003455D01*
X027309Y003550D02*
X027246Y003550D01*
X027246Y003645D02*
X027246Y003455D01*
X027246Y003645D02*
X027373Y003645D01*
X027688Y003550D02*
X027783Y003550D01*
X027815Y003518D01*
X027815Y003487D01*
X027783Y003455D01*
X027720Y003455D01*
X027688Y003487D01*
X027688Y003550D01*
X027751Y003613D01*
X027815Y003645D01*
X028825Y003625D02*
X028825Y003815D01*
X028920Y003815D01*
X028952Y003783D01*
X028952Y003720D01*
X028920Y003688D01*
X028825Y003688D01*
X028888Y003688D02*
X028952Y003625D01*
X029046Y003720D02*
X029173Y003720D01*
X029267Y003720D02*
X029394Y003720D01*
X029362Y003625D02*
X029362Y003815D01*
X029267Y003720D01*
X029141Y003625D02*
X029141Y003815D01*
X029046Y003720D01*
X029010Y004345D02*
X028883Y004345D01*
X028883Y004535D01*
X029104Y004503D02*
X029104Y004472D01*
X029136Y004440D01*
X029231Y004440D01*
X029231Y004377D02*
X029231Y004503D01*
X029199Y004535D01*
X029136Y004535D01*
X029104Y004503D01*
X029104Y004377D02*
X029136Y004345D01*
X029199Y004345D01*
X029231Y004377D01*
X027215Y021404D02*
X027215Y021704D01*
X027215Y021554D02*
X026765Y021554D01*
X026915Y021404D01*
X026990Y021865D02*
X026990Y022090D01*
X027065Y022165D01*
X027140Y022165D01*
X027215Y022090D01*
X027215Y021940D01*
X027140Y021865D01*
X026990Y021865D01*
X026840Y022015D01*
X026765Y022165D01*
D18*
X015970Y016142D03*
X015478Y016142D03*
X014986Y016142D03*
X014494Y016142D03*
X014002Y016142D03*
X013510Y016142D03*
D19*
X013217Y021389D02*
X013271Y021442D01*
X013271Y021549D01*
X013217Y021602D01*
X013164Y021602D01*
X013110Y021549D01*
X013110Y021442D01*
X013057Y021389D01*
X013004Y021389D01*
X012950Y021442D01*
X012950Y021549D01*
X013004Y021602D01*
X013004Y021757D02*
X012950Y021811D01*
X012950Y021917D01*
X013004Y021971D01*
X013057Y021971D01*
X013271Y021757D01*
X013271Y021971D01*
X011065Y021977D02*
X010852Y021763D01*
X010905Y021710D01*
X011012Y021710D01*
X011065Y021763D01*
X011065Y021977D01*
X011012Y022030D01*
X010905Y022030D01*
X010852Y021977D01*
X010852Y021763D01*
X010905Y023750D02*
X010852Y023803D01*
X010852Y023857D01*
X010905Y023910D01*
X011012Y023910D01*
X011065Y023857D01*
X011065Y023803D01*
X011012Y023750D01*
X010905Y023750D01*
X010905Y023910D02*
X010852Y023964D01*
X010852Y024017D01*
X010905Y024070D01*
X011012Y024070D01*
X011065Y024017D01*
X011065Y023964D01*
X011012Y023910D01*
X011012Y025110D02*
X010905Y025110D01*
X010852Y025163D01*
X011065Y025377D01*
X011065Y025163D01*
X011012Y025110D01*
X010852Y025163D02*
X010852Y025377D01*
X010905Y025430D01*
X011012Y025430D01*
X011065Y025377D01*
X011012Y027150D02*
X010905Y027150D01*
X010852Y027203D01*
X010852Y027257D01*
X010905Y027310D01*
X011012Y027310D01*
X011065Y027257D01*
X011065Y027203D01*
X011012Y027150D01*
X011012Y027310D02*
X011065Y027364D01*
X011065Y027417D01*
X011012Y027470D01*
X010905Y027470D01*
X010852Y027417D01*
X010852Y027364D01*
X010905Y027310D01*
X012970Y025284D02*
X013077Y025177D01*
X012970Y025284D02*
X013291Y025284D01*
X013291Y025177D02*
X013291Y025391D01*
X013237Y025022D02*
X013291Y024969D01*
X013291Y024862D01*
X013237Y024809D01*
X013130Y024862D02*
X013130Y024969D01*
X013184Y025022D01*
X013237Y025022D01*
X013130Y024862D02*
X013077Y024809D01*
X013024Y024809D01*
X012970Y024862D01*
X012970Y024969D01*
X013024Y025022D01*
X006355Y018122D02*
X006355Y017488D01*
X006346Y017485D02*
X005734Y017485D01*
X005725Y017488D02*
X005725Y018122D01*
X005883Y017800D02*
X006197Y017800D01*
X006040Y017643D01*
X005883Y017800D01*
X005997Y017725D02*
X006083Y017725D01*
X006316Y017564D02*
X005764Y017564D01*
X005540Y016800D02*
X004740Y016800D01*
X004740Y027000D01*
X005540Y027000D01*
X004740Y027000D02*
X004740Y027400D01*
X000140Y027400D01*
X000140Y023300D01*
X001640Y023300D01*
X001640Y023000D01*
X001240Y023000D01*
X001206Y022998D01*
X001173Y022992D01*
X001141Y022983D01*
X001110Y022970D01*
X001080Y022954D01*
X001053Y022935D01*
X001028Y022912D01*
X001005Y022887D01*
X000986Y022860D01*
X000970Y022830D01*
X000957Y022799D01*
X000948Y022767D01*
X000942Y022734D01*
X000940Y022700D01*
X000940Y021100D01*
X001640Y021100D01*
X001640Y021300D01*
X003740Y021300D01*
X003740Y022500D01*
X001640Y022500D01*
X001640Y022700D01*
X000940Y022700D01*
X001640Y022700D02*
X001640Y023000D01*
X000140Y023300D02*
X000140Y020500D01*
X001640Y020500D01*
X001640Y020800D01*
X001240Y020800D01*
X001206Y020802D01*
X001173Y020808D01*
X001141Y020817D01*
X001110Y020830D01*
X001080Y020846D01*
X001053Y020865D01*
X001028Y020888D01*
X001005Y020913D01*
X000986Y020940D01*
X000970Y020970D01*
X000957Y021001D01*
X000948Y021033D01*
X000942Y021066D01*
X000940Y021100D01*
X001640Y021100D02*
X001640Y020800D01*
X000140Y020500D02*
X000140Y017400D01*
X001440Y017000D01*
X000140Y016600D01*
X000140Y017400D01*
X000140Y016600D02*
X000140Y016400D01*
X004740Y016400D01*
X004740Y016800D01*
X009238Y005215D02*
X009872Y005215D01*
X009875Y005206D02*
X009875Y004594D01*
X009872Y004585D02*
X009238Y004585D01*
X009560Y004743D02*
X009560Y005057D01*
X009717Y004900D01*
X009560Y004743D01*
X009635Y004857D02*
X009635Y004943D01*
X009796Y005176D02*
X009796Y004624D01*
X014218Y004585D02*
X014852Y004585D01*
X014855Y004594D02*
X014855Y005206D01*
X014852Y005215D02*
X014218Y005215D01*
X014540Y005057D02*
X014697Y004900D01*
X014540Y004743D01*
X014540Y005057D01*
X014615Y004943D02*
X014615Y004857D01*
X014776Y004624D02*
X014776Y005176D01*
X018138Y005215D02*
X018772Y005215D01*
X018775Y005206D02*
X018775Y004594D01*
X018772Y004585D02*
X018138Y004585D01*
X018460Y004743D02*
X018460Y005057D01*
X018617Y004900D01*
X018460Y004743D01*
X018535Y004857D02*
X018535Y004943D01*
X018696Y005176D02*
X018696Y004624D01*
X022638Y004585D02*
X023272Y004585D01*
X023275Y004594D02*
X023275Y005206D01*
X023272Y005215D02*
X022638Y005215D01*
X022960Y005057D02*
X023117Y004900D01*
X022960Y004743D01*
X022960Y005057D01*
X023035Y004943D02*
X023035Y004857D01*
X023196Y004624D02*
X023196Y005176D01*
X026958Y005215D02*
X027592Y005215D01*
X027595Y005206D02*
X027595Y004594D01*
X027592Y004585D02*
X026958Y004585D01*
X027280Y004743D02*
X027280Y005057D01*
X027437Y004900D01*
X027280Y004743D01*
X027355Y004857D02*
X027355Y004943D01*
X027516Y005176D02*
X027516Y004624D01*
X034540Y016400D02*
X034540Y016800D01*
X034540Y027000D01*
X034540Y027400D01*
X039140Y027400D01*
X039140Y027200D01*
X037840Y026800D01*
X039140Y026400D01*
X039140Y023300D01*
X037640Y023300D01*
X037640Y023000D01*
X038040Y023000D01*
X038074Y022998D01*
X038107Y022992D01*
X038139Y022983D01*
X038170Y022970D01*
X038200Y022954D01*
X038227Y022935D01*
X038252Y022912D01*
X038275Y022887D01*
X038294Y022860D01*
X038310Y022830D01*
X038323Y022799D01*
X038332Y022767D01*
X038338Y022734D01*
X038340Y022700D01*
X037640Y022700D01*
X037640Y022500D01*
X035540Y022500D01*
X035540Y021300D01*
X037640Y021300D01*
X037640Y021100D01*
X038340Y021100D01*
X038340Y022700D01*
X037640Y022700D02*
X037640Y023000D01*
X039140Y023300D02*
X039140Y020500D01*
X037640Y020500D01*
X037640Y020800D01*
X038040Y020800D01*
X038074Y020802D01*
X038107Y020808D01*
X038139Y020817D01*
X038170Y020830D01*
X038200Y020846D01*
X038227Y020865D01*
X038252Y020888D01*
X038275Y020913D01*
X038294Y020940D01*
X038310Y020970D01*
X038323Y021001D01*
X038332Y021033D01*
X038338Y021066D01*
X038340Y021100D01*
X037640Y021100D02*
X037640Y020800D01*
X039140Y020500D02*
X039140Y016400D01*
X034540Y016400D01*
X034540Y016800D02*
X033740Y016800D01*
X033555Y025578D02*
X033555Y026212D01*
X033546Y026215D02*
X032934Y026215D01*
X032925Y026212D02*
X032925Y025578D01*
X033083Y025900D02*
X033240Y026057D01*
X033397Y025900D01*
X033083Y025900D01*
X033197Y025975D02*
X033283Y025975D01*
X033516Y026136D02*
X032964Y026136D01*
X033740Y027000D02*
X034540Y027000D01*
X039140Y027200D02*
X039140Y026400D01*
X027341Y027600D02*
X027060Y027600D01*
X027341Y027880D01*
X027341Y027950D01*
X027271Y028020D01*
X027130Y028020D01*
X027060Y027950D01*
X026880Y028020D02*
X026740Y028020D01*
X026810Y028020D02*
X026810Y027670D01*
X026740Y027600D01*
X026670Y027600D01*
X026600Y027670D01*
D20*
X035640Y022400D02*
X037740Y022400D01*
X037740Y021400D02*
X035640Y021400D01*
X003640Y021400D02*
X001540Y021400D01*
X001540Y022400D02*
X003640Y022400D01*
D21*
X026990Y022700D02*
X026990Y023600D01*
X026990Y024200D02*
X026990Y027000D01*
X029690Y027000D01*
X029690Y016800D01*
X026990Y016800D01*
X026990Y018600D01*
X026990Y019200D02*
X026990Y021100D01*
M02*
