G75*
%MOIN*%
%OFA0B0*%
%FSLAX24Y24*%
%IPPOS*%
%LPD*%
%AMOC8*
5,1,8,0,0,1.08239X$1,22.5*
%
%ADD10R,0.0355X0.0257*%
%ADD11R,0.0160X0.0440*%
%ADD12R,0.0440X0.0160*%
%ADD13C,0.1300*%
%ADD14C,0.0970*%
%ADD15C,0.0640*%
%ADD16C,0.0590*%
%ADD17R,0.0512X0.0158*%
%ADD18R,0.0158X0.0512*%
%ADD19R,0.0700X0.0700*%
%ADD20C,0.0700*%
%ADD21R,0.0340X0.0340*%
%ADD22R,0.0985X0.0788*%
%ADD23R,0.0360X0.0400*%
%ADD24R,0.0400X0.0360*%
%ADD25R,0.1024X0.0808*%
%ADD26R,0.0808X0.1024*%
%ADD27R,0.0749X0.0434*%
%ADD28R,0.0434X0.0749*%
%ADD29R,0.0316X0.0749*%
%ADD30R,0.0670X0.0906*%
%ADD31C,0.0434*%
%ADD32R,0.1024X0.0434*%
%ADD33R,0.0394X0.0237*%
%ADD34C,0.4000*%
%ADD35R,0.0276X0.0906*%
%ADD36R,0.0685X0.0685*%
%ADD37C,0.0685*%
%ADD38R,0.0512X0.0375*%
%ADD39R,0.0940X0.0940*%
%ADD40C,0.0940*%
%ADD41OC8,0.0670*%
%ADD42C,0.0670*%
%ADD43R,0.0375X0.0512*%
%ADD44OC8,0.0600*%
%ADD45C,0.1080*%
%ADD46C,0.0805*%
%ADD47R,0.0670X0.0670*%
D10*
X018988Y015386D03*
X018988Y015760D03*
X018988Y016134D03*
X019932Y016134D03*
X019932Y015386D03*
D11*
X019940Y029150D03*
X019740Y029150D03*
X019540Y029150D03*
X019340Y029150D03*
X019140Y029150D03*
X018940Y029150D03*
X018740Y029150D03*
X018540Y029150D03*
X020140Y029150D03*
X020340Y029150D03*
X020540Y029150D03*
X020740Y029150D03*
X020740Y032450D03*
X020540Y032450D03*
X020340Y032450D03*
X020140Y032450D03*
X019940Y032450D03*
X019740Y032450D03*
X019540Y032450D03*
X019340Y032450D03*
X019140Y032450D03*
X018940Y032450D03*
X018740Y032450D03*
X018540Y032450D03*
D12*
X017990Y031900D03*
X017990Y031700D03*
X017990Y031500D03*
X017990Y031300D03*
X017990Y031100D03*
X017990Y030900D03*
X017990Y030700D03*
X017990Y030500D03*
X017990Y030300D03*
X017990Y030100D03*
X017990Y029900D03*
X017990Y029700D03*
X021290Y029700D03*
X021290Y029900D03*
X021290Y030100D03*
X021290Y030300D03*
X021290Y030500D03*
X021290Y030700D03*
X021290Y030900D03*
X021290Y031100D03*
X021290Y031300D03*
X021290Y031500D03*
X021290Y031700D03*
X021290Y031900D03*
D13*
X034840Y035800D03*
X034840Y040300D03*
X004440Y040300D03*
X004440Y035800D03*
X012620Y004600D03*
X030060Y004600D03*
D14*
X033640Y035000D03*
X033640Y041100D03*
X005640Y041100D03*
X005640Y035000D03*
D15*
X002840Y035440D03*
X002840Y036440D03*
X002840Y039660D03*
X002840Y040660D03*
X036440Y040660D03*
X036440Y039660D03*
X036440Y036440D03*
X036440Y035440D03*
D16*
X032340Y036800D03*
X032340Y037800D03*
X032340Y038800D03*
X032340Y039800D03*
X031340Y039300D03*
X031340Y038300D03*
X031340Y037300D03*
X031340Y036300D03*
X007940Y036800D03*
X007940Y037800D03*
X007940Y038800D03*
X007940Y039800D03*
X006940Y039300D03*
X006940Y038300D03*
X006940Y037300D03*
X006940Y036300D03*
X013870Y008100D03*
X013370Y007100D03*
X014370Y007100D03*
X015370Y007100D03*
X014870Y008100D03*
X015870Y008100D03*
X017850Y007100D03*
X018350Y008100D03*
X018850Y007100D03*
X019850Y007100D03*
X019350Y008100D03*
X020350Y008100D03*
X022330Y007100D03*
X022830Y008100D03*
X023330Y007100D03*
X024330Y007100D03*
X023830Y008100D03*
X024830Y008100D03*
X026810Y007100D03*
X027810Y007100D03*
X027310Y008100D03*
X028310Y008100D03*
X029310Y008100D03*
X028810Y007100D03*
D17*
X021411Y019338D03*
X021411Y019535D03*
X021411Y019731D03*
X021411Y019928D03*
X021411Y020125D03*
X021411Y020322D03*
X021411Y020519D03*
X021411Y020716D03*
X021411Y020913D03*
X021411Y021109D03*
X021411Y021306D03*
X021411Y021503D03*
X021411Y021700D03*
X021411Y021897D03*
X021411Y022094D03*
X021411Y022291D03*
X021411Y022487D03*
X021411Y022684D03*
X021411Y022881D03*
X021411Y023078D03*
X021411Y023275D03*
X021411Y023472D03*
X021411Y023669D03*
X021411Y023865D03*
X021411Y024062D03*
X015309Y024062D03*
X015309Y023865D03*
X015309Y023669D03*
X015309Y023472D03*
X015309Y023275D03*
X015309Y023078D03*
X015309Y022881D03*
X015309Y022684D03*
X015309Y022487D03*
X015309Y022291D03*
X015309Y022094D03*
X015309Y021897D03*
X015309Y021700D03*
X015309Y021503D03*
X015309Y021306D03*
X015309Y021109D03*
X015309Y020913D03*
X015309Y020716D03*
X015309Y020519D03*
X015309Y020322D03*
X015309Y020125D03*
X015309Y019928D03*
X015309Y019731D03*
X015309Y019535D03*
X015309Y019338D03*
D18*
X015998Y018649D03*
X016195Y018649D03*
X016391Y018649D03*
X016588Y018649D03*
X016785Y018649D03*
X016982Y018649D03*
X017179Y018649D03*
X017376Y018649D03*
X017573Y018649D03*
X017769Y018649D03*
X017966Y018649D03*
X018163Y018649D03*
X018360Y018649D03*
X018557Y018649D03*
X018754Y018649D03*
X018951Y018649D03*
X019147Y018649D03*
X019344Y018649D03*
X019541Y018649D03*
X019738Y018649D03*
X019935Y018649D03*
X020132Y018649D03*
X020329Y018649D03*
X020525Y018649D03*
X020722Y018649D03*
X020722Y024751D03*
X020525Y024751D03*
X020329Y024751D03*
X020132Y024751D03*
X019935Y024751D03*
X019738Y024751D03*
X019541Y024751D03*
X019344Y024751D03*
X019147Y024751D03*
X018951Y024751D03*
X018754Y024751D03*
X018557Y024751D03*
X018360Y024751D03*
X018163Y024751D03*
X017966Y024751D03*
X017769Y024751D03*
X017573Y024751D03*
X017376Y024751D03*
X017179Y024751D03*
X016982Y024751D03*
X016785Y024751D03*
X016588Y024751D03*
X016391Y024751D03*
X016195Y024751D03*
X015998Y024751D03*
D19*
X009140Y016720D03*
X029200Y015640D03*
D20*
X028200Y015640D03*
X027200Y015640D03*
X011140Y016720D03*
X010140Y016720D03*
D21*
X007515Y017650D03*
X006765Y017650D03*
X007140Y018550D03*
X014490Y014460D03*
X014490Y013920D03*
X015070Y013920D03*
X015070Y014460D03*
X014530Y004020D03*
X013950Y004020D03*
X017850Y004020D03*
X018430Y004020D03*
X022410Y004020D03*
X022990Y004020D03*
X026670Y004020D03*
X027250Y004020D03*
X032370Y015300D03*
X032370Y015840D03*
X032370Y016380D03*
X032950Y016380D03*
X032950Y015840D03*
X032950Y015300D03*
X032140Y025250D03*
X031765Y026150D03*
X032515Y026150D03*
D22*
X025040Y021967D03*
X025040Y020353D03*
X014660Y030613D03*
X014660Y032227D03*
D23*
X015690Y031840D03*
X016270Y031840D03*
X016270Y031000D03*
X015690Y031000D03*
X017130Y028540D03*
X017710Y028540D03*
X017710Y027580D03*
X017130Y027580D03*
X016930Y026380D03*
X016930Y025840D03*
X016350Y025840D03*
X016350Y026380D03*
X019850Y025440D03*
X020430Y025440D03*
X021870Y026140D03*
X021870Y026680D03*
X021870Y027220D03*
X021870Y027760D03*
X021870Y028300D03*
X021870Y028840D03*
X022450Y028840D03*
X022450Y028300D03*
X022450Y027760D03*
X022450Y027220D03*
X022450Y026680D03*
X022450Y026140D03*
X023430Y026140D03*
X024010Y026140D03*
X024010Y025600D03*
X024010Y025060D03*
X024010Y024520D03*
X024010Y023980D03*
X024010Y023440D03*
X023430Y023440D03*
X023430Y023980D03*
X023430Y024520D03*
X023430Y025060D03*
X023430Y025600D03*
X023430Y022840D03*
X024010Y022840D03*
X024010Y021880D03*
X023430Y021880D03*
X023430Y021280D03*
X023430Y020740D03*
X024010Y020740D03*
X024010Y021280D03*
X024010Y019600D03*
X023430Y019600D03*
X023430Y019000D03*
X024010Y019000D03*
X021230Y018000D03*
X020650Y018000D03*
X019750Y017380D03*
X019750Y016840D03*
X019170Y016840D03*
X019170Y017380D03*
X019170Y014680D03*
X019750Y014680D03*
X016390Y014460D03*
X016390Y013920D03*
X015810Y013920D03*
X015810Y014460D03*
X017350Y010700D03*
X017930Y010700D03*
X021750Y010700D03*
X022330Y010700D03*
X026250Y010700D03*
X026830Y010700D03*
X027210Y014440D03*
X027790Y014440D03*
X031290Y015300D03*
X031290Y015840D03*
X031290Y016380D03*
X031870Y016380D03*
X031870Y015840D03*
X031870Y015300D03*
X031950Y017400D03*
X032530Y017400D03*
X032530Y018000D03*
X031950Y018000D03*
X031950Y019400D03*
X032530Y019400D03*
X032530Y020000D03*
X031950Y020000D03*
X031950Y021400D03*
X032530Y021400D03*
X032530Y022000D03*
X031950Y022000D03*
X031950Y023400D03*
X032530Y023400D03*
X032530Y024000D03*
X031950Y024000D03*
X031850Y026700D03*
X032430Y026700D03*
X024130Y031260D03*
X024130Y031800D03*
X024130Y032340D03*
X023550Y032340D03*
X023550Y031800D03*
X023550Y031260D03*
X022930Y033540D03*
X022930Y034080D03*
X022930Y034620D03*
X022930Y035160D03*
X022930Y035700D03*
X022930Y036240D03*
X022350Y036240D03*
X022350Y035700D03*
X022350Y035160D03*
X022350Y034620D03*
X022350Y034080D03*
X022350Y033540D03*
X016930Y033540D03*
X016930Y034080D03*
X016930Y034620D03*
X016930Y035160D03*
X016930Y035700D03*
X016930Y036240D03*
X016350Y036240D03*
X016350Y035700D03*
X016350Y035160D03*
X016350Y034620D03*
X016350Y034080D03*
X016350Y033540D03*
X012550Y030100D03*
X012550Y029560D03*
X011970Y029560D03*
X011970Y030100D03*
X007330Y026400D03*
X006750Y026400D03*
X006750Y025800D03*
X007330Y025800D03*
X007330Y024400D03*
X006750Y024400D03*
X006750Y023800D03*
X007330Y023800D03*
X007330Y022400D03*
X006750Y022400D03*
X006750Y021800D03*
X007330Y021800D03*
X007330Y020400D03*
X006750Y020400D03*
X006750Y019800D03*
X007330Y019800D03*
X007430Y017100D03*
X006850Y017100D03*
X010550Y015780D03*
X011130Y015780D03*
X013890Y019000D03*
X013890Y019600D03*
X014470Y019600D03*
X014470Y019000D03*
X010990Y019780D03*
X010410Y019780D03*
X012750Y010700D03*
X013330Y010700D03*
X015690Y004900D03*
X016270Y004900D03*
X015730Y004020D03*
X015150Y004020D03*
X019050Y004020D03*
X019630Y004020D03*
X019650Y004900D03*
X020230Y004900D03*
X023610Y004020D03*
X024190Y004020D03*
X024130Y004900D03*
X024710Y004900D03*
X027870Y004020D03*
X028450Y004020D03*
X028410Y004900D03*
X028990Y004900D03*
X010750Y004000D03*
X010170Y004000D03*
X019850Y027800D03*
X020430Y027800D03*
X029750Y038820D03*
X030330Y038820D03*
X009370Y036780D03*
X008790Y036780D03*
D24*
X017300Y038230D03*
X017300Y038810D03*
X019140Y038170D03*
X019140Y037590D03*
X019740Y037590D03*
X019740Y038170D03*
X020340Y038170D03*
X020340Y037590D03*
X022220Y038290D03*
X022220Y038870D03*
D25*
X021240Y039000D03*
X021240Y037800D03*
X018240Y037800D03*
X018240Y039000D03*
X024440Y028600D03*
X024440Y027400D03*
D26*
X013160Y028600D03*
X011960Y028600D03*
X011500Y020720D03*
X010300Y020720D03*
D27*
X019760Y039189D03*
X019760Y040371D03*
D28*
X009991Y015780D03*
X008809Y015780D03*
X013949Y006000D03*
X015131Y006000D03*
X018349Y006000D03*
X019531Y006000D03*
X022849Y006000D03*
X024031Y006000D03*
X027349Y006000D03*
X028531Y006000D03*
X028509Y014440D03*
X029691Y014440D03*
D29*
X015970Y017323D03*
X015478Y017323D03*
X014986Y017323D03*
X014494Y017323D03*
X014002Y017323D03*
X013510Y017323D03*
D30*
X012584Y016260D03*
X016896Y016260D03*
D31*
X016386Y015748D03*
X013094Y015748D03*
D32*
X012320Y021900D03*
X012320Y022900D03*
X012320Y023900D03*
X012320Y025300D03*
X012320Y026300D03*
X012320Y027300D03*
X009760Y027300D03*
X009760Y026300D03*
X009760Y025300D03*
X009760Y023900D03*
X009760Y022900D03*
X009760Y021900D03*
D33*
X023565Y029688D03*
X023565Y030003D03*
X023565Y030317D03*
X023565Y030632D03*
X024195Y030632D03*
X024195Y030317D03*
X024195Y030003D03*
X024195Y029688D03*
D34*
X032435Y031743D03*
X032435Y012057D03*
X006845Y012057D03*
X006845Y031743D03*
D35*
X014190Y011324D03*
X014690Y011324D03*
X015190Y011324D03*
X015690Y011324D03*
X015690Y009276D03*
X015190Y009276D03*
X014690Y009276D03*
X014190Y009276D03*
X018690Y009276D03*
X019190Y009276D03*
X019690Y009276D03*
X020190Y009276D03*
X020190Y011324D03*
X019690Y011324D03*
X019190Y011324D03*
X018690Y011324D03*
X023090Y011324D03*
X023590Y011324D03*
X024090Y011324D03*
X024590Y011324D03*
X024590Y009276D03*
X024090Y009276D03*
X023590Y009276D03*
X023090Y009276D03*
X027590Y009276D03*
X028090Y009276D03*
X028590Y009276D03*
X029090Y009276D03*
X029090Y011324D03*
X028590Y011324D03*
X028090Y011324D03*
X027590Y011324D03*
D36*
X034040Y026400D03*
X005240Y017400D03*
D37*
X005240Y018400D03*
X005240Y019400D03*
X005240Y020400D03*
X005240Y021400D03*
X005240Y022400D03*
X005240Y023400D03*
X005240Y024400D03*
X005240Y025400D03*
X005240Y026400D03*
X034040Y025400D03*
X034040Y024400D03*
X034040Y023400D03*
X034040Y022400D03*
X034040Y021400D03*
X034040Y020400D03*
X034040Y019400D03*
X034040Y018400D03*
X034040Y017400D03*
D38*
X033240Y025300D03*
X033240Y026500D03*
X006040Y018400D03*
X006040Y017200D03*
D39*
X008340Y005890D03*
D40*
X006490Y004710D03*
X008340Y003530D03*
D41*
X011240Y010160D03*
D42*
X009840Y010160D03*
X024340Y014040D03*
D43*
X023560Y004900D03*
X022360Y004900D03*
X019060Y004900D03*
X017860Y004900D03*
X015140Y004900D03*
X013940Y004900D03*
X010160Y004900D03*
X008960Y004900D03*
X026680Y004900D03*
X027880Y004900D03*
D44*
X027840Y018400D03*
X027840Y019400D03*
X027840Y020400D03*
X027840Y021400D03*
X027840Y022400D03*
X028840Y022400D03*
X028840Y021400D03*
X028840Y020400D03*
X028840Y019400D03*
X028840Y018400D03*
X028840Y023400D03*
X028840Y024400D03*
X028840Y025400D03*
X027840Y025400D03*
X027840Y024400D03*
X027840Y023400D03*
D45*
X008360Y007260D03*
D46*
X005390Y007260D03*
X011330Y007260D03*
D47*
X023340Y014040D03*
M02*
