G75*
%MOIN*%
%OFA0B0*%
%FSLAX24Y24*%
%IPPOS*%
%LPD*%
%AMOC8*
5,1,8,0,0,1.08239X$1,22.5*
%
%ADD10C,0.0000*%
D10*
X006640Y001900D02*
X001640Y006900D01*
X001640Y041900D01*
X037640Y041900D01*
X037640Y006900D01*
X032640Y001900D01*
X006640Y001900D01*
X007840Y007260D02*
X007842Y007305D01*
X007848Y007350D01*
X007858Y007395D01*
X007871Y007438D01*
X007889Y007480D01*
X007910Y007520D01*
X007934Y007558D01*
X007962Y007594D01*
X007992Y007628D01*
X008026Y007658D01*
X008062Y007686D01*
X008100Y007710D01*
X008140Y007731D01*
X008182Y007749D01*
X008225Y007762D01*
X008270Y007772D01*
X008315Y007778D01*
X008360Y007780D01*
X008405Y007778D01*
X008450Y007772D01*
X008495Y007762D01*
X008538Y007749D01*
X008580Y007731D01*
X008620Y007710D01*
X008658Y007686D01*
X008694Y007658D01*
X008728Y007628D01*
X008758Y007594D01*
X008786Y007558D01*
X008810Y007520D01*
X008831Y007480D01*
X008849Y007438D01*
X008862Y007395D01*
X008872Y007350D01*
X008878Y007305D01*
X008880Y007260D01*
X008878Y007215D01*
X008872Y007170D01*
X008862Y007125D01*
X008849Y007082D01*
X008831Y007040D01*
X008810Y007000D01*
X008786Y006962D01*
X008758Y006926D01*
X008728Y006892D01*
X008694Y006862D01*
X008658Y006834D01*
X008620Y006810D01*
X008580Y006789D01*
X008538Y006771D01*
X008495Y006758D01*
X008450Y006748D01*
X008405Y006742D01*
X008360Y006740D01*
X008315Y006742D01*
X008270Y006748D01*
X008225Y006758D01*
X008182Y006771D01*
X008140Y006789D01*
X008100Y006810D01*
X008062Y006834D01*
X008026Y006862D01*
X007992Y006892D01*
X007962Y006926D01*
X007934Y006962D01*
X007910Y007000D01*
X007889Y007040D01*
X007871Y007082D01*
X007858Y007125D01*
X007848Y007170D01*
X007842Y007215D01*
X007840Y007260D01*
X011990Y004600D02*
X011992Y004650D01*
X011998Y004700D01*
X012008Y004749D01*
X012022Y004797D01*
X012039Y004844D01*
X012060Y004889D01*
X012085Y004933D01*
X012113Y004974D01*
X012145Y005013D01*
X012179Y005050D01*
X012216Y005084D01*
X012256Y005114D01*
X012298Y005141D01*
X012342Y005165D01*
X012388Y005186D01*
X012435Y005202D01*
X012483Y005215D01*
X012533Y005224D01*
X012582Y005229D01*
X012633Y005230D01*
X012683Y005227D01*
X012732Y005220D01*
X012781Y005209D01*
X012829Y005194D01*
X012875Y005176D01*
X012920Y005154D01*
X012963Y005128D01*
X013004Y005099D01*
X013043Y005067D01*
X013079Y005032D01*
X013111Y004994D01*
X013141Y004954D01*
X013168Y004911D01*
X013191Y004867D01*
X013210Y004821D01*
X013226Y004773D01*
X013238Y004724D01*
X013246Y004675D01*
X013250Y004625D01*
X013250Y004575D01*
X013246Y004525D01*
X013238Y004476D01*
X013226Y004427D01*
X013210Y004379D01*
X013191Y004333D01*
X013168Y004289D01*
X013141Y004246D01*
X013111Y004206D01*
X013079Y004168D01*
X013043Y004133D01*
X013004Y004101D01*
X012963Y004072D01*
X012920Y004046D01*
X012875Y004024D01*
X012829Y004006D01*
X012781Y003991D01*
X012732Y003980D01*
X012683Y003973D01*
X012633Y003970D01*
X012582Y003971D01*
X012533Y003976D01*
X012483Y003985D01*
X012435Y003998D01*
X012388Y004014D01*
X012342Y004035D01*
X012298Y004059D01*
X012256Y004086D01*
X012216Y004116D01*
X012179Y004150D01*
X012145Y004187D01*
X012113Y004226D01*
X012085Y004267D01*
X012060Y004311D01*
X012039Y004356D01*
X012022Y004403D01*
X012008Y004451D01*
X011998Y004500D01*
X011992Y004550D01*
X011990Y004600D01*
X012897Y015748D02*
X012899Y015775D01*
X012905Y015802D01*
X012914Y015828D01*
X012927Y015852D01*
X012943Y015875D01*
X012962Y015894D01*
X012984Y015911D01*
X013008Y015925D01*
X013033Y015935D01*
X013060Y015942D01*
X013087Y015945D01*
X013115Y015944D01*
X013142Y015939D01*
X013168Y015931D01*
X013192Y015919D01*
X013215Y015903D01*
X013236Y015885D01*
X013253Y015864D01*
X013268Y015840D01*
X013279Y015815D01*
X013287Y015789D01*
X013291Y015762D01*
X013291Y015734D01*
X013287Y015707D01*
X013279Y015681D01*
X013268Y015656D01*
X013253Y015632D01*
X013236Y015611D01*
X013215Y015593D01*
X013193Y015577D01*
X013168Y015565D01*
X013142Y015557D01*
X013115Y015552D01*
X013087Y015551D01*
X013060Y015554D01*
X013033Y015561D01*
X013008Y015571D01*
X012984Y015585D01*
X012962Y015602D01*
X012943Y015621D01*
X012927Y015644D01*
X012914Y015668D01*
X012905Y015694D01*
X012899Y015721D01*
X012897Y015748D01*
X016189Y015748D02*
X016191Y015775D01*
X016197Y015802D01*
X016206Y015828D01*
X016219Y015852D01*
X016235Y015875D01*
X016254Y015894D01*
X016276Y015911D01*
X016300Y015925D01*
X016325Y015935D01*
X016352Y015942D01*
X016379Y015945D01*
X016407Y015944D01*
X016434Y015939D01*
X016460Y015931D01*
X016484Y015919D01*
X016507Y015903D01*
X016528Y015885D01*
X016545Y015864D01*
X016560Y015840D01*
X016571Y015815D01*
X016579Y015789D01*
X016583Y015762D01*
X016583Y015734D01*
X016579Y015707D01*
X016571Y015681D01*
X016560Y015656D01*
X016545Y015632D01*
X016528Y015611D01*
X016507Y015593D01*
X016485Y015577D01*
X016460Y015565D01*
X016434Y015557D01*
X016407Y015552D01*
X016379Y015551D01*
X016352Y015554D01*
X016325Y015561D01*
X016300Y015571D01*
X016276Y015585D01*
X016254Y015602D01*
X016235Y015621D01*
X016219Y015644D01*
X016206Y015668D01*
X016197Y015694D01*
X016191Y015721D01*
X016189Y015748D01*
X029430Y004600D02*
X029432Y004650D01*
X029438Y004700D01*
X029448Y004749D01*
X029462Y004797D01*
X029479Y004844D01*
X029500Y004889D01*
X029525Y004933D01*
X029553Y004974D01*
X029585Y005013D01*
X029619Y005050D01*
X029656Y005084D01*
X029696Y005114D01*
X029738Y005141D01*
X029782Y005165D01*
X029828Y005186D01*
X029875Y005202D01*
X029923Y005215D01*
X029973Y005224D01*
X030022Y005229D01*
X030073Y005230D01*
X030123Y005227D01*
X030172Y005220D01*
X030221Y005209D01*
X030269Y005194D01*
X030315Y005176D01*
X030360Y005154D01*
X030403Y005128D01*
X030444Y005099D01*
X030483Y005067D01*
X030519Y005032D01*
X030551Y004994D01*
X030581Y004954D01*
X030608Y004911D01*
X030631Y004867D01*
X030650Y004821D01*
X030666Y004773D01*
X030678Y004724D01*
X030686Y004675D01*
X030690Y004625D01*
X030690Y004575D01*
X030686Y004525D01*
X030678Y004476D01*
X030666Y004427D01*
X030650Y004379D01*
X030631Y004333D01*
X030608Y004289D01*
X030581Y004246D01*
X030551Y004206D01*
X030519Y004168D01*
X030483Y004133D01*
X030444Y004101D01*
X030403Y004072D01*
X030360Y004046D01*
X030315Y004024D01*
X030269Y004006D01*
X030221Y003991D01*
X030172Y003980D01*
X030123Y003973D01*
X030073Y003970D01*
X030022Y003971D01*
X029973Y003976D01*
X029923Y003985D01*
X029875Y003998D01*
X029828Y004014D01*
X029782Y004035D01*
X029738Y004059D01*
X029696Y004086D01*
X029656Y004116D01*
X029619Y004150D01*
X029585Y004187D01*
X029553Y004226D01*
X029525Y004267D01*
X029500Y004311D01*
X029479Y004356D01*
X029462Y004403D01*
X029448Y004451D01*
X029438Y004500D01*
X029432Y004550D01*
X029430Y004600D01*
X034210Y035800D02*
X034212Y035850D01*
X034218Y035900D01*
X034228Y035949D01*
X034242Y035997D01*
X034259Y036044D01*
X034280Y036089D01*
X034305Y036133D01*
X034333Y036174D01*
X034365Y036213D01*
X034399Y036250D01*
X034436Y036284D01*
X034476Y036314D01*
X034518Y036341D01*
X034562Y036365D01*
X034608Y036386D01*
X034655Y036402D01*
X034703Y036415D01*
X034753Y036424D01*
X034802Y036429D01*
X034853Y036430D01*
X034903Y036427D01*
X034952Y036420D01*
X035001Y036409D01*
X035049Y036394D01*
X035095Y036376D01*
X035140Y036354D01*
X035183Y036328D01*
X035224Y036299D01*
X035263Y036267D01*
X035299Y036232D01*
X035331Y036194D01*
X035361Y036154D01*
X035388Y036111D01*
X035411Y036067D01*
X035430Y036021D01*
X035446Y035973D01*
X035458Y035924D01*
X035466Y035875D01*
X035470Y035825D01*
X035470Y035775D01*
X035466Y035725D01*
X035458Y035676D01*
X035446Y035627D01*
X035430Y035579D01*
X035411Y035533D01*
X035388Y035489D01*
X035361Y035446D01*
X035331Y035406D01*
X035299Y035368D01*
X035263Y035333D01*
X035224Y035301D01*
X035183Y035272D01*
X035140Y035246D01*
X035095Y035224D01*
X035049Y035206D01*
X035001Y035191D01*
X034952Y035180D01*
X034903Y035173D01*
X034853Y035170D01*
X034802Y035171D01*
X034753Y035176D01*
X034703Y035185D01*
X034655Y035198D01*
X034608Y035214D01*
X034562Y035235D01*
X034518Y035259D01*
X034476Y035286D01*
X034436Y035316D01*
X034399Y035350D01*
X034365Y035387D01*
X034333Y035426D01*
X034305Y035467D01*
X034280Y035511D01*
X034259Y035556D01*
X034242Y035603D01*
X034228Y035651D01*
X034218Y035700D01*
X034212Y035750D01*
X034210Y035800D01*
X034210Y040300D02*
X034212Y040350D01*
X034218Y040400D01*
X034228Y040449D01*
X034242Y040497D01*
X034259Y040544D01*
X034280Y040589D01*
X034305Y040633D01*
X034333Y040674D01*
X034365Y040713D01*
X034399Y040750D01*
X034436Y040784D01*
X034476Y040814D01*
X034518Y040841D01*
X034562Y040865D01*
X034608Y040886D01*
X034655Y040902D01*
X034703Y040915D01*
X034753Y040924D01*
X034802Y040929D01*
X034853Y040930D01*
X034903Y040927D01*
X034952Y040920D01*
X035001Y040909D01*
X035049Y040894D01*
X035095Y040876D01*
X035140Y040854D01*
X035183Y040828D01*
X035224Y040799D01*
X035263Y040767D01*
X035299Y040732D01*
X035331Y040694D01*
X035361Y040654D01*
X035388Y040611D01*
X035411Y040567D01*
X035430Y040521D01*
X035446Y040473D01*
X035458Y040424D01*
X035466Y040375D01*
X035470Y040325D01*
X035470Y040275D01*
X035466Y040225D01*
X035458Y040176D01*
X035446Y040127D01*
X035430Y040079D01*
X035411Y040033D01*
X035388Y039989D01*
X035361Y039946D01*
X035331Y039906D01*
X035299Y039868D01*
X035263Y039833D01*
X035224Y039801D01*
X035183Y039772D01*
X035140Y039746D01*
X035095Y039724D01*
X035049Y039706D01*
X035001Y039691D01*
X034952Y039680D01*
X034903Y039673D01*
X034853Y039670D01*
X034802Y039671D01*
X034753Y039676D01*
X034703Y039685D01*
X034655Y039698D01*
X034608Y039714D01*
X034562Y039735D01*
X034518Y039759D01*
X034476Y039786D01*
X034436Y039816D01*
X034399Y039850D01*
X034365Y039887D01*
X034333Y039926D01*
X034305Y039967D01*
X034280Y040011D01*
X034259Y040056D01*
X034242Y040103D01*
X034228Y040151D01*
X034218Y040200D01*
X034212Y040250D01*
X034210Y040300D01*
X003810Y040300D02*
X003812Y040350D01*
X003818Y040400D01*
X003828Y040449D01*
X003842Y040497D01*
X003859Y040544D01*
X003880Y040589D01*
X003905Y040633D01*
X003933Y040674D01*
X003965Y040713D01*
X003999Y040750D01*
X004036Y040784D01*
X004076Y040814D01*
X004118Y040841D01*
X004162Y040865D01*
X004208Y040886D01*
X004255Y040902D01*
X004303Y040915D01*
X004353Y040924D01*
X004402Y040929D01*
X004453Y040930D01*
X004503Y040927D01*
X004552Y040920D01*
X004601Y040909D01*
X004649Y040894D01*
X004695Y040876D01*
X004740Y040854D01*
X004783Y040828D01*
X004824Y040799D01*
X004863Y040767D01*
X004899Y040732D01*
X004931Y040694D01*
X004961Y040654D01*
X004988Y040611D01*
X005011Y040567D01*
X005030Y040521D01*
X005046Y040473D01*
X005058Y040424D01*
X005066Y040375D01*
X005070Y040325D01*
X005070Y040275D01*
X005066Y040225D01*
X005058Y040176D01*
X005046Y040127D01*
X005030Y040079D01*
X005011Y040033D01*
X004988Y039989D01*
X004961Y039946D01*
X004931Y039906D01*
X004899Y039868D01*
X004863Y039833D01*
X004824Y039801D01*
X004783Y039772D01*
X004740Y039746D01*
X004695Y039724D01*
X004649Y039706D01*
X004601Y039691D01*
X004552Y039680D01*
X004503Y039673D01*
X004453Y039670D01*
X004402Y039671D01*
X004353Y039676D01*
X004303Y039685D01*
X004255Y039698D01*
X004208Y039714D01*
X004162Y039735D01*
X004118Y039759D01*
X004076Y039786D01*
X004036Y039816D01*
X003999Y039850D01*
X003965Y039887D01*
X003933Y039926D01*
X003905Y039967D01*
X003880Y040011D01*
X003859Y040056D01*
X003842Y040103D01*
X003828Y040151D01*
X003818Y040200D01*
X003812Y040250D01*
X003810Y040300D01*
X003810Y035800D02*
X003812Y035850D01*
X003818Y035900D01*
X003828Y035949D01*
X003842Y035997D01*
X003859Y036044D01*
X003880Y036089D01*
X003905Y036133D01*
X003933Y036174D01*
X003965Y036213D01*
X003999Y036250D01*
X004036Y036284D01*
X004076Y036314D01*
X004118Y036341D01*
X004162Y036365D01*
X004208Y036386D01*
X004255Y036402D01*
X004303Y036415D01*
X004353Y036424D01*
X004402Y036429D01*
X004453Y036430D01*
X004503Y036427D01*
X004552Y036420D01*
X004601Y036409D01*
X004649Y036394D01*
X004695Y036376D01*
X004740Y036354D01*
X004783Y036328D01*
X004824Y036299D01*
X004863Y036267D01*
X004899Y036232D01*
X004931Y036194D01*
X004961Y036154D01*
X004988Y036111D01*
X005011Y036067D01*
X005030Y036021D01*
X005046Y035973D01*
X005058Y035924D01*
X005066Y035875D01*
X005070Y035825D01*
X005070Y035775D01*
X005066Y035725D01*
X005058Y035676D01*
X005046Y035627D01*
X005030Y035579D01*
X005011Y035533D01*
X004988Y035489D01*
X004961Y035446D01*
X004931Y035406D01*
X004899Y035368D01*
X004863Y035333D01*
X004824Y035301D01*
X004783Y035272D01*
X004740Y035246D01*
X004695Y035224D01*
X004649Y035206D01*
X004601Y035191D01*
X004552Y035180D01*
X004503Y035173D01*
X004453Y035170D01*
X004402Y035171D01*
X004353Y035176D01*
X004303Y035185D01*
X004255Y035198D01*
X004208Y035214D01*
X004162Y035235D01*
X004118Y035259D01*
X004076Y035286D01*
X004036Y035316D01*
X003999Y035350D01*
X003965Y035387D01*
X003933Y035426D01*
X003905Y035467D01*
X003880Y035511D01*
X003859Y035556D01*
X003842Y035603D01*
X003828Y035651D01*
X003818Y035700D01*
X003812Y035750D01*
X003810Y035800D01*
M02*
