%
M48
M72
T01C0.0120
T02C0.0150
T03C0.0200
T04C0.0320
T05C0.0350
T06C0.0360
T07C0.0394
T08C0.0400
T09C0.0420
T10C0.0430
T11C0.0510
T12C0.0600
T13C0.0620
T14C0.1040
T15C0.1260
T16C0.2500
%
T01
X11540Y17700
X11540Y18000
X11540Y18300
X11540Y18600
X11540Y18900
X12440Y18900
X12440Y18600
X12440Y18300
X12440Y18000
X12440Y17700
X14780Y18220
X15860Y18220
X18080Y21460
X18380Y21760
X18360Y24040
X18160Y24270
X17960Y24040
X17770Y24270
X17570Y24040
X17380Y24270
X17180Y24040
X16980Y24270
X18500Y26260
X19580Y26260
X19880Y25900
X20420Y25900
X20480Y26320
X20440Y27300
X19900Y27290
X17720Y28060
X17120Y28060
X16040Y27800
X15740Y27500
X15440Y28400
X15140Y28100
X16340Y26860
X16940Y26860
X20420Y23440
X21320Y24340
X22880Y26140
X22880Y26680
X22880Y27220
X22880Y27760
X22880Y28300
X22880Y28840
X24620Y30300
X24620Y30720
X24620Y31260
X25940Y29700
X24440Y26140
X24440Y25060
X24440Y23440
X24020Y22360
X23430Y22360
X23720Y20290
X23440Y20060
X24440Y19600
X24440Y19000
X23720Y18520
X22460Y17640
X23000Y17100
X16880Y14460
X16880Y13920
X32960Y16740
X30380Y34140
X29540Y34680
X29900Y35100
X29300Y38820
X28880Y38820
X22700Y38880
X22220Y37800
X17420Y37440
X10400Y36780
T02
X9920Y36780
X15920Y34620
X17360Y35160
X15680Y32320
X15680Y30520
X18940Y31840
X21920Y35160
X23360Y34620
X24620Y32340
X21640Y39800
X11040Y26300
X11040Y22900
X13400Y19600
X14180Y20080
X14180Y18520
X14490Y17920
X13510Y17910
X14060Y14460
X12240Y10700
X16840Y10700
X19160Y14200
X19760Y14200
X21240Y10700
X25740Y10700
X24680Y4020
X28940Y4020
X20120Y4020
X16220Y4020
X20640Y17500
X21240Y17500
X19620Y18100
X8620Y19240
T03
X7930Y17640
X10400Y19240
X9700Y20720
X12100Y20720
X11240Y28600
X10400Y30100
X13340Y31500
X13880Y28600
X19740Y38700
X20360Y39180
X19160Y39180
X24440Y29260
X24440Y26760
X31360Y26150
X31360Y18150
T04
X11240Y10160
X9840Y10160
T05
X13370Y7100
X13870Y8100
X14370Y7100
X15370Y7100
X14870Y8100
X15870Y8100
X17850Y7100
X18350Y8100
X18850Y7100
X19850Y7100
X19350Y8100
X20350Y8100
X22330Y7100
X22830Y8100
X23330Y7100
X24330Y7100
X23830Y8100
X24830Y8100
X26810Y7100
X27810Y7100
X27310Y8100
X28310Y8100
X29310Y8100
X28810Y7100
X31340Y36300
X31340Y37300
X31340Y38300
X31340Y39300
X32340Y38800
X32340Y37800
X32340Y36800
X32340Y39800
X7940Y39800
X7940Y38800
X7940Y37800
X7940Y36800
X6940Y36300
X6940Y37300
X6940Y38300
X6940Y39300
T06
X27840Y25400
X27840Y24400
X27840Y23400
X28840Y23400
X28840Y24400
X28840Y25400
X28840Y22400
X28840Y21400
X28840Y20400
X28840Y19400
X28840Y18400
X27840Y18400
X27840Y19400
X27840Y20400
X27840Y21400
X27840Y22400
T07
X16386Y15748
X13094Y15748
T08
X11140Y16720
X10140Y16720
X9140Y16720
X2840Y35440
X2840Y36440
X2840Y39660
X2840Y40660
X27200Y15640
X28200Y15640
X29200Y15640
X36440Y35440
X36440Y36440
X36440Y39660
X36440Y40660
T09
X24340Y14040
X23340Y14040
T10
X34040Y17400
X34040Y18400
X34040Y19400
X34040Y20400
X34040Y21400
X34040Y22400
X34040Y23400
X34040Y24400
X34040Y25400
X34040Y26400
X5240Y26400
X5240Y25400
X5240Y24400
X5240Y23400
X5240Y22400
X5240Y21400
X5240Y20400
X5240Y19400
X5240Y18400
X5240Y17400
T11
X5390Y7260
X11330Y7260
T12
X6490Y4710
X8340Y3530
X8340Y5890
T13
X5640Y35000
X5640Y41100
X33640Y41100
X33640Y35000
T14
X8360Y7260
T15
X12620Y4600
X30060Y4600
X34840Y35800
X34840Y40300
X4440Y40300
X4440Y35800
T16
X6845Y31743
X6845Y12057
X32435Y12057
X32435Y31743
M30
