G75*
%MOIN*%
%OFA0B0*%
%FSLAX24Y24*%
%IPPOS*%
%LPD*%
%AMOC8*
5,1,8,0,0,1.08239X$1,22.5*
%
%ADD10R,0.0315X0.0217*%
%ADD11R,0.0120X0.0400*%
%ADD12R,0.0400X0.0120*%
%ADD13R,0.0472X0.0118*%
%ADD14R,0.0118X0.0472*%
%ADD15R,0.0300X0.0300*%
%ADD16R,0.0945X0.0748*%
%ADD17R,0.0320X0.0360*%
%ADD18R,0.0360X0.0320*%
%ADD19R,0.0984X0.0768*%
%ADD20R,0.0768X0.0984*%
%ADD21R,0.0709X0.0394*%
%ADD22R,0.0394X0.0709*%
%ADD23R,0.0276X0.0709*%
%ADD24R,0.0630X0.0866*%
%ADD25R,0.0984X0.0394*%
%ADD26R,0.0354X0.0197*%
%ADD27C,0.0050*%
%ADD28R,0.0236X0.0866*%
%ADD29R,0.0472X0.0335*%
%ADD30R,0.0335X0.0472*%
D10*
X018988Y015386D03*
X018988Y015760D03*
X018988Y016134D03*
X019932Y016134D03*
X019932Y015386D03*
D11*
X019940Y029150D03*
X019740Y029150D03*
X019540Y029150D03*
X019340Y029150D03*
X019140Y029150D03*
X018940Y029150D03*
X018740Y029150D03*
X018540Y029150D03*
X020140Y029150D03*
X020340Y029150D03*
X020540Y029150D03*
X020740Y029150D03*
X020740Y032450D03*
X020540Y032450D03*
X020340Y032450D03*
X020140Y032450D03*
X019940Y032450D03*
X019740Y032450D03*
X019540Y032450D03*
X019340Y032450D03*
X019140Y032450D03*
X018940Y032450D03*
X018740Y032450D03*
X018540Y032450D03*
D12*
X017990Y031900D03*
X017990Y031700D03*
X017990Y031500D03*
X017990Y031300D03*
X017990Y031100D03*
X017990Y030900D03*
X017990Y030700D03*
X017990Y030500D03*
X017990Y030300D03*
X017990Y030100D03*
X017990Y029900D03*
X017990Y029700D03*
X021290Y029700D03*
X021290Y029900D03*
X021290Y030100D03*
X021290Y030300D03*
X021290Y030500D03*
X021290Y030700D03*
X021290Y030900D03*
X021290Y031100D03*
X021290Y031300D03*
X021290Y031500D03*
X021290Y031700D03*
X021290Y031900D03*
D13*
X021411Y024062D03*
X021411Y023865D03*
X021411Y023669D03*
X021411Y023472D03*
X021411Y023275D03*
X021411Y023078D03*
X021411Y022881D03*
X021411Y022684D03*
X021411Y022487D03*
X021411Y022291D03*
X021411Y022094D03*
X021411Y021897D03*
X021411Y021700D03*
X021411Y021503D03*
X021411Y021306D03*
X021411Y021109D03*
X021411Y020913D03*
X021411Y020716D03*
X021411Y020519D03*
X021411Y020322D03*
X021411Y020125D03*
X021411Y019928D03*
X021411Y019731D03*
X021411Y019535D03*
X021411Y019338D03*
X015309Y019338D03*
X015309Y019535D03*
X015309Y019731D03*
X015309Y019928D03*
X015309Y020125D03*
X015309Y020322D03*
X015309Y020519D03*
X015309Y020716D03*
X015309Y020913D03*
X015309Y021109D03*
X015309Y021306D03*
X015309Y021503D03*
X015309Y021700D03*
X015309Y021897D03*
X015309Y022094D03*
X015309Y022291D03*
X015309Y022487D03*
X015309Y022684D03*
X015309Y022881D03*
X015309Y023078D03*
X015309Y023275D03*
X015309Y023472D03*
X015309Y023669D03*
X015309Y023865D03*
X015309Y024062D03*
D14*
X015998Y024751D03*
X016195Y024751D03*
X016391Y024751D03*
X016588Y024751D03*
X016785Y024751D03*
X016982Y024751D03*
X017179Y024751D03*
X017376Y024751D03*
X017573Y024751D03*
X017769Y024751D03*
X017966Y024751D03*
X018163Y024751D03*
X018360Y024751D03*
X018557Y024751D03*
X018754Y024751D03*
X018951Y024751D03*
X019147Y024751D03*
X019344Y024751D03*
X019541Y024751D03*
X019738Y024751D03*
X019935Y024751D03*
X020132Y024751D03*
X020329Y024751D03*
X020525Y024751D03*
X020722Y024751D03*
X020722Y018649D03*
X020525Y018649D03*
X020329Y018649D03*
X020132Y018649D03*
X019935Y018649D03*
X019738Y018649D03*
X019541Y018649D03*
X019344Y018649D03*
X019147Y018649D03*
X018951Y018649D03*
X018754Y018649D03*
X018557Y018649D03*
X018360Y018649D03*
X018163Y018649D03*
X017966Y018649D03*
X017769Y018649D03*
X017573Y018649D03*
X017376Y018649D03*
X017179Y018649D03*
X016982Y018649D03*
X016785Y018649D03*
X016588Y018649D03*
X016391Y018649D03*
X016195Y018649D03*
X015998Y018649D03*
D15*
X015070Y014460D03*
X015070Y013920D03*
X014490Y013920D03*
X014490Y014460D03*
X007515Y017650D03*
X006765Y017650D03*
X007140Y018550D03*
X013950Y004020D03*
X014530Y004020D03*
X017850Y004020D03*
X018430Y004020D03*
X022410Y004020D03*
X022990Y004020D03*
X026670Y004020D03*
X027250Y004020D03*
X032370Y015300D03*
X032370Y015840D03*
X032370Y016380D03*
X032950Y016380D03*
X032950Y015840D03*
X032950Y015300D03*
X032140Y025250D03*
X031765Y026150D03*
X032515Y026150D03*
D16*
X025040Y021967D03*
X025040Y020353D03*
X014660Y030613D03*
X014660Y032227D03*
D17*
X015690Y031840D03*
X016270Y031840D03*
X016270Y031000D03*
X015690Y031000D03*
X017130Y028540D03*
X017710Y028540D03*
X017710Y027580D03*
X017130Y027580D03*
X016930Y026380D03*
X016930Y025840D03*
X016350Y025840D03*
X016350Y026380D03*
X019850Y025440D03*
X020430Y025440D03*
X021870Y026140D03*
X021870Y026680D03*
X021870Y027220D03*
X021870Y027760D03*
X021870Y028300D03*
X021870Y028840D03*
X022450Y028840D03*
X022450Y028300D03*
X022450Y027760D03*
X022450Y027220D03*
X022450Y026680D03*
X022450Y026140D03*
X023430Y026140D03*
X024010Y026140D03*
X024010Y025600D03*
X024010Y025060D03*
X024010Y024520D03*
X024010Y023980D03*
X024010Y023440D03*
X023430Y023440D03*
X023430Y023980D03*
X023430Y024520D03*
X023430Y025060D03*
X023430Y025600D03*
X023430Y022840D03*
X024010Y022840D03*
X024010Y021880D03*
X023430Y021880D03*
X023430Y021280D03*
X023430Y020740D03*
X024010Y020740D03*
X024010Y021280D03*
X024010Y019600D03*
X023430Y019600D03*
X023430Y019000D03*
X024010Y019000D03*
X021230Y018000D03*
X020650Y018000D03*
X019750Y017380D03*
X019750Y016840D03*
X019170Y016840D03*
X019170Y017380D03*
X019170Y014680D03*
X019750Y014680D03*
X016390Y014460D03*
X016390Y013920D03*
X015810Y013920D03*
X015810Y014460D03*
X017350Y010700D03*
X017930Y010700D03*
X021750Y010700D03*
X022330Y010700D03*
X026250Y010700D03*
X026830Y010700D03*
X027210Y014440D03*
X027790Y014440D03*
X031290Y015300D03*
X031290Y015840D03*
X031290Y016380D03*
X031870Y016380D03*
X031870Y015840D03*
X031870Y015300D03*
X031950Y017400D03*
X032530Y017400D03*
X032530Y018000D03*
X031950Y018000D03*
X031950Y019400D03*
X032530Y019400D03*
X032530Y020000D03*
X031950Y020000D03*
X031950Y021400D03*
X032530Y021400D03*
X032530Y022000D03*
X031950Y022000D03*
X031950Y023400D03*
X032530Y023400D03*
X032530Y024000D03*
X031950Y024000D03*
X031850Y026700D03*
X032430Y026700D03*
X024130Y031260D03*
X024130Y031800D03*
X024130Y032340D03*
X023550Y032340D03*
X023550Y031800D03*
X023550Y031260D03*
X022930Y033540D03*
X022930Y034080D03*
X022930Y034620D03*
X022930Y035160D03*
X022930Y035700D03*
X022930Y036240D03*
X022350Y036240D03*
X022350Y035700D03*
X022350Y035160D03*
X022350Y034620D03*
X022350Y034080D03*
X022350Y033540D03*
X016930Y033540D03*
X016930Y034080D03*
X016930Y034620D03*
X016930Y035160D03*
X016930Y035700D03*
X016930Y036240D03*
X016350Y036240D03*
X016350Y035700D03*
X016350Y035160D03*
X016350Y034620D03*
X016350Y034080D03*
X016350Y033540D03*
X012550Y030100D03*
X012550Y029560D03*
X011970Y029560D03*
X011970Y030100D03*
X007330Y026400D03*
X006750Y026400D03*
X006750Y025800D03*
X007330Y025800D03*
X007330Y024400D03*
X006750Y024400D03*
X006750Y023800D03*
X007330Y023800D03*
X007330Y022400D03*
X006750Y022400D03*
X006750Y021800D03*
X007330Y021800D03*
X007330Y020400D03*
X006750Y020400D03*
X006750Y019800D03*
X007330Y019800D03*
X007430Y017100D03*
X006850Y017100D03*
X010550Y015780D03*
X011130Y015780D03*
X013890Y019000D03*
X013890Y019600D03*
X014470Y019600D03*
X014470Y019000D03*
X010990Y019780D03*
X010410Y019780D03*
X012750Y010700D03*
X013330Y010700D03*
X015690Y004900D03*
X016270Y004900D03*
X015730Y004020D03*
X015150Y004020D03*
X019050Y004020D03*
X019630Y004020D03*
X019650Y004900D03*
X020230Y004900D03*
X023610Y004020D03*
X024190Y004020D03*
X024130Y004900D03*
X024710Y004900D03*
X027870Y004020D03*
X028450Y004020D03*
X028410Y004900D03*
X028990Y004900D03*
X010750Y004000D03*
X010170Y004000D03*
X019850Y027800D03*
X020430Y027800D03*
X029750Y038820D03*
X030330Y038820D03*
X009370Y036780D03*
X008790Y036780D03*
D18*
X017300Y038230D03*
X017300Y038810D03*
X019140Y038170D03*
X019140Y037590D03*
X019740Y037590D03*
X019740Y038170D03*
X020340Y038170D03*
X020340Y037590D03*
X022220Y038290D03*
X022220Y038870D03*
D19*
X021240Y039000D03*
X021240Y037800D03*
X018240Y037800D03*
X018240Y039000D03*
X024440Y028600D03*
X024440Y027400D03*
D20*
X013160Y028600D03*
X011960Y028600D03*
X011500Y020720D03*
X010300Y020720D03*
D21*
X019760Y039189D03*
X019760Y040371D03*
D22*
X009991Y015780D03*
X008809Y015780D03*
X013949Y006000D03*
X015131Y006000D03*
X018349Y006000D03*
X019531Y006000D03*
X022849Y006000D03*
X024031Y006000D03*
X027349Y006000D03*
X028531Y006000D03*
X028509Y014440D03*
X029691Y014440D03*
D23*
X015970Y017323D03*
X015478Y017323D03*
X014986Y017323D03*
X014494Y017323D03*
X014002Y017323D03*
X013510Y017323D03*
D24*
X012584Y016260D03*
X016896Y016260D03*
D25*
X012320Y021900D03*
X012320Y022900D03*
X012320Y023900D03*
X012320Y025300D03*
X012320Y026300D03*
X012320Y027300D03*
X009760Y027300D03*
X009760Y026300D03*
X009760Y025300D03*
X009760Y023900D03*
X009760Y022900D03*
X009760Y021900D03*
D26*
X023565Y029688D03*
X023565Y030003D03*
X023565Y030317D03*
X023565Y030632D03*
X024195Y030632D03*
X024195Y030317D03*
X024195Y030003D03*
X024195Y029688D03*
D27*
X030574Y031310D02*
X030642Y031083D01*
X030737Y030867D01*
X030858Y030664D01*
X031003Y030478D01*
X031170Y030311D01*
X031357Y030166D01*
X031560Y030044D01*
X031776Y029949D01*
X032002Y029882D01*
X032235Y029843D01*
X032235Y030443D01*
X032055Y030483D01*
X031882Y030549D01*
X031721Y030638D01*
X031573Y030749D01*
X031442Y030880D01*
X031331Y031028D01*
X031242Y031190D01*
X031176Y031362D01*
X031135Y031543D01*
X030535Y031543D01*
X030574Y031310D01*
X030575Y031309D02*
X031196Y031309D01*
X031178Y031358D02*
X030566Y031358D01*
X030558Y031406D02*
X031166Y031406D01*
X031155Y031455D02*
X030550Y031455D01*
X030542Y031503D02*
X031144Y031503D01*
X031215Y031261D02*
X030589Y031261D01*
X030604Y031212D02*
X031233Y031212D01*
X031256Y031164D02*
X030618Y031164D01*
X030633Y031115D02*
X031283Y031115D01*
X031310Y031067D02*
X030649Y031067D01*
X030671Y031018D02*
X031338Y031018D01*
X031375Y030970D02*
X030692Y030970D01*
X030713Y030921D02*
X031411Y030921D01*
X031450Y030873D02*
X030735Y030873D01*
X030763Y030824D02*
X031498Y030824D01*
X031547Y030776D02*
X030792Y030776D01*
X030821Y030727D02*
X031603Y030727D01*
X031667Y030679D02*
X030850Y030679D01*
X030885Y030630D02*
X031736Y030630D01*
X031824Y030582D02*
X030923Y030582D01*
X030960Y030533D02*
X031925Y030533D01*
X032052Y030485D02*
X030998Y030485D01*
X031045Y030436D02*
X032235Y030436D01*
X032235Y030388D02*
X031094Y030388D01*
X031142Y030339D02*
X032235Y030339D01*
X032235Y030291D02*
X031196Y030291D01*
X031259Y030242D02*
X032235Y030242D01*
X032235Y030194D02*
X031321Y030194D01*
X031391Y030145D02*
X032235Y030145D01*
X032235Y030097D02*
X031472Y030097D01*
X031554Y030048D02*
X032235Y030048D01*
X032235Y030000D02*
X031662Y030000D01*
X031772Y029951D02*
X032235Y029951D01*
X032235Y029903D02*
X031933Y029903D01*
X032167Y029854D02*
X032235Y029854D01*
X032635Y029854D02*
X032704Y029854D01*
X032635Y029843D02*
X032868Y029882D01*
X033095Y029949D01*
X033311Y030044D01*
X033514Y030166D01*
X033700Y030311D01*
X033867Y030478D01*
X034012Y030664D01*
X034133Y030867D01*
X034228Y031083D01*
X034296Y031310D01*
X034335Y031543D01*
X033735Y031543D01*
X033694Y031362D01*
X033629Y031190D01*
X033539Y031028D01*
X033428Y030880D01*
X033298Y030749D01*
X033150Y030638D01*
X032988Y030549D01*
X032815Y030483D01*
X032635Y030443D01*
X032635Y029843D01*
X032635Y029903D02*
X032938Y029903D01*
X033098Y029951D02*
X032635Y029951D01*
X032635Y030000D02*
X033209Y030000D01*
X033317Y030048D02*
X032635Y030048D01*
X032635Y030097D02*
X033398Y030097D01*
X033479Y030145D02*
X032635Y030145D01*
X032635Y030194D02*
X033550Y030194D01*
X033612Y030242D02*
X032635Y030242D01*
X032635Y030291D02*
X033674Y030291D01*
X033728Y030339D02*
X032635Y030339D01*
X032635Y030388D02*
X033777Y030388D01*
X033825Y030436D02*
X032635Y030436D01*
X032819Y030485D02*
X033872Y030485D01*
X033910Y030533D02*
X032946Y030533D01*
X033047Y030582D02*
X033948Y030582D01*
X033986Y030630D02*
X033135Y030630D01*
X033203Y030679D02*
X034021Y030679D01*
X034050Y030727D02*
X033268Y030727D01*
X033324Y030776D02*
X034079Y030776D01*
X034108Y030824D02*
X033372Y030824D01*
X033421Y030873D02*
X034136Y030873D01*
X034157Y030921D02*
X033459Y030921D01*
X033496Y030970D02*
X034178Y030970D01*
X034200Y031018D02*
X033532Y031018D01*
X033561Y031067D02*
X034221Y031067D01*
X034238Y031115D02*
X033588Y031115D01*
X033614Y031164D02*
X034252Y031164D01*
X034267Y031212D02*
X033637Y031212D01*
X033656Y031261D02*
X034281Y031261D01*
X034296Y031309D02*
X033674Y031309D01*
X033693Y031358D02*
X034304Y031358D01*
X034312Y031406D02*
X033704Y031406D01*
X033715Y031455D02*
X034320Y031455D01*
X034329Y031503D02*
X033726Y031503D01*
X033735Y031943D02*
X034335Y031943D01*
X034296Y032175D01*
X034228Y032402D01*
X034133Y032618D01*
X034012Y032821D01*
X033867Y033007D01*
X033700Y033174D01*
X033514Y033320D01*
X033311Y033441D01*
X033095Y033536D01*
X032868Y033603D01*
X032635Y033643D01*
X032635Y033043D01*
X032815Y033002D01*
X032988Y032936D01*
X033150Y032847D01*
X033298Y032736D01*
X033428Y032605D01*
X033539Y032457D01*
X033629Y032295D01*
X033694Y032123D01*
X033735Y031943D01*
X033725Y031988D02*
X034328Y031988D01*
X034319Y032037D02*
X033714Y032037D01*
X033703Y032085D02*
X034311Y032085D01*
X034303Y032134D02*
X033690Y032134D01*
X033672Y032182D02*
X034294Y032182D01*
X034280Y032231D02*
X033653Y032231D01*
X033635Y032279D02*
X034265Y032279D01*
X034251Y032328D02*
X033611Y032328D01*
X033584Y032376D02*
X034236Y032376D01*
X034218Y032425D02*
X033557Y032425D01*
X033528Y032473D02*
X034197Y032473D01*
X034176Y032522D02*
X033491Y032522D01*
X033455Y032570D02*
X034154Y032570D01*
X034133Y032619D02*
X033415Y032619D01*
X033366Y032667D02*
X034104Y032667D01*
X034075Y032716D02*
X033318Y032716D01*
X033260Y032764D02*
X034046Y032764D01*
X034017Y032813D02*
X033195Y032813D01*
X033124Y032861D02*
X033981Y032861D01*
X033943Y032910D02*
X033036Y032910D01*
X032930Y032958D02*
X033906Y032958D01*
X033868Y033007D02*
X032794Y033007D01*
X032635Y033055D02*
X033819Y033055D01*
X033771Y033104D02*
X032635Y033104D01*
X032635Y033152D02*
X033722Y033152D01*
X033666Y033201D02*
X032635Y033201D01*
X032635Y033249D02*
X033604Y033249D01*
X033542Y033298D02*
X032635Y033298D01*
X032635Y033346D02*
X033469Y033346D01*
X033388Y033395D02*
X032635Y033395D01*
X032635Y033443D02*
X033305Y033443D01*
X033195Y033492D02*
X032635Y033492D01*
X032635Y033540D02*
X033080Y033540D01*
X032918Y033589D02*
X032635Y033589D01*
X032635Y033637D02*
X032668Y033637D01*
X032235Y033637D02*
X032203Y033637D01*
X032235Y033643D02*
X032002Y033603D01*
X031776Y033536D01*
X031560Y033441D01*
X031357Y033320D01*
X031170Y033174D01*
X031003Y033007D01*
X032077Y033007D01*
X032055Y033002D02*
X032235Y033043D01*
X032235Y033643D01*
X032235Y033589D02*
X031953Y033589D01*
X031791Y033540D02*
X032235Y033540D01*
X032235Y033492D02*
X031676Y033492D01*
X031565Y033443D02*
X032235Y033443D01*
X032235Y033395D02*
X031483Y033395D01*
X031401Y033346D02*
X032235Y033346D01*
X032235Y033298D02*
X031329Y033298D01*
X031266Y033249D02*
X032235Y033249D01*
X032235Y033201D02*
X031204Y033201D01*
X031148Y033152D02*
X032235Y033152D01*
X032235Y033104D02*
X031100Y033104D01*
X031051Y033055D02*
X032235Y033055D01*
X032055Y033002D02*
X031882Y032936D01*
X031721Y032847D01*
X031573Y032736D01*
X031442Y032605D01*
X031331Y032457D01*
X031242Y032295D01*
X031176Y032123D01*
X031135Y031943D01*
X030535Y031943D01*
X030574Y032175D01*
X030642Y032402D01*
X030737Y032618D01*
X030858Y032821D01*
X031003Y033007D01*
X030965Y032958D02*
X031940Y032958D01*
X031835Y032910D02*
X030927Y032910D01*
X030889Y032861D02*
X031747Y032861D01*
X031675Y032813D02*
X030853Y032813D01*
X030824Y032764D02*
X031611Y032764D01*
X031553Y032716D02*
X030795Y032716D01*
X030766Y032667D02*
X031504Y032667D01*
X031456Y032619D02*
X030738Y032619D01*
X030716Y032570D02*
X031416Y032570D01*
X031379Y032522D02*
X030695Y032522D01*
X030673Y032473D02*
X031343Y032473D01*
X031313Y032425D02*
X030652Y032425D01*
X030634Y032376D02*
X031286Y032376D01*
X031260Y032328D02*
X030620Y032328D01*
X030605Y032279D02*
X031236Y032279D01*
X031217Y032231D02*
X030591Y032231D01*
X030576Y032182D02*
X031199Y032182D01*
X031180Y032134D02*
X030567Y032134D01*
X030559Y032085D02*
X031168Y032085D01*
X031157Y032037D02*
X030551Y032037D01*
X030543Y031988D02*
X031146Y031988D01*
X032235Y013957D02*
X032002Y013918D01*
X031776Y013851D01*
X031560Y013756D01*
X031357Y013634D01*
X031170Y013489D01*
X031003Y013322D01*
X030858Y013136D01*
X030737Y012933D01*
X030642Y012717D01*
X030574Y012490D01*
X030535Y012257D01*
X031135Y012257D01*
X031176Y012438D01*
X031242Y012610D01*
X031331Y012772D01*
X031442Y012920D01*
X031573Y013051D01*
X031721Y013162D01*
X031882Y013251D01*
X032055Y013317D01*
X032235Y013357D01*
X032235Y013957D01*
X032235Y013946D02*
X032167Y013946D01*
X032235Y013897D02*
X031933Y013897D01*
X031772Y013849D02*
X032235Y013849D01*
X032235Y013800D02*
X031662Y013800D01*
X031554Y013752D02*
X032235Y013752D01*
X032235Y013703D02*
X031472Y013703D01*
X031391Y013655D02*
X032235Y013655D01*
X032235Y013606D02*
X031321Y013606D01*
X031259Y013558D02*
X032235Y013558D01*
X032235Y013509D02*
X031196Y013509D01*
X031142Y013461D02*
X032235Y013461D01*
X032235Y013412D02*
X031094Y013412D01*
X031045Y013364D02*
X032235Y013364D01*
X032052Y013315D02*
X030998Y013315D01*
X030960Y013267D02*
X031925Y013267D01*
X031824Y013218D02*
X030923Y013218D01*
X030885Y013170D02*
X031736Y013170D01*
X031667Y013121D02*
X030850Y013121D01*
X030821Y013073D02*
X031603Y013073D01*
X031547Y013024D02*
X030792Y013024D01*
X030763Y012976D02*
X031498Y012976D01*
X031450Y012927D02*
X030735Y012927D01*
X030713Y012879D02*
X031411Y012879D01*
X031375Y012830D02*
X030692Y012830D01*
X030671Y012782D02*
X031338Y012782D01*
X031310Y012733D02*
X030649Y012733D01*
X030633Y012685D02*
X031283Y012685D01*
X031256Y012636D02*
X030618Y012636D01*
X030604Y012588D02*
X031233Y012588D01*
X031215Y012539D02*
X030589Y012539D01*
X030575Y012491D02*
X031196Y012491D01*
X031178Y012442D02*
X030566Y012442D01*
X030558Y012394D02*
X031166Y012394D01*
X031155Y012345D02*
X030550Y012345D01*
X030542Y012297D02*
X031144Y012297D01*
X031135Y011857D02*
X030535Y011857D01*
X030574Y011625D01*
X030642Y011398D01*
X030737Y011182D01*
X030858Y010979D01*
X031003Y010793D01*
X032077Y010793D01*
X032055Y010798D02*
X031882Y010864D01*
X031721Y010953D01*
X031573Y011064D01*
X031442Y011195D01*
X031331Y011343D01*
X031242Y011505D01*
X031176Y011677D01*
X031135Y011857D01*
X031146Y011812D02*
X030543Y011812D01*
X030551Y011763D02*
X031157Y011763D01*
X031168Y011715D02*
X030559Y011715D01*
X030567Y011666D02*
X031180Y011666D01*
X031199Y011618D02*
X030576Y011618D01*
X030591Y011569D02*
X031217Y011569D01*
X031236Y011521D02*
X030605Y011521D01*
X030620Y011472D02*
X031260Y011472D01*
X031286Y011424D02*
X030634Y011424D01*
X030652Y011375D02*
X031313Y011375D01*
X031343Y011327D02*
X030673Y011327D01*
X030695Y011278D02*
X031379Y011278D01*
X031416Y011230D02*
X030716Y011230D01*
X030738Y011181D02*
X031456Y011181D01*
X031504Y011133D02*
X030766Y011133D01*
X030795Y011084D02*
X031553Y011084D01*
X031611Y011036D02*
X030824Y011036D01*
X030853Y010987D02*
X031675Y010987D01*
X031747Y010939D02*
X030889Y010939D01*
X030927Y010890D02*
X031835Y010890D01*
X031940Y010842D02*
X030965Y010842D01*
X031003Y010793D02*
X031170Y010626D01*
X031357Y010480D01*
X031560Y010359D01*
X031776Y010264D01*
X032002Y010197D01*
X032235Y010157D01*
X032235Y010757D01*
X032055Y010798D01*
X032235Y010745D02*
X031051Y010745D01*
X031100Y010696D02*
X032235Y010696D01*
X032235Y010648D02*
X031148Y010648D01*
X031204Y010599D02*
X032235Y010599D01*
X032235Y010551D02*
X031266Y010551D01*
X031329Y010502D02*
X032235Y010502D01*
X032235Y010454D02*
X031401Y010454D01*
X031483Y010405D02*
X032235Y010405D01*
X032235Y010357D02*
X031565Y010357D01*
X031676Y010308D02*
X032235Y010308D01*
X032235Y010260D02*
X031791Y010260D01*
X031953Y010211D02*
X032235Y010211D01*
X032235Y010163D02*
X032203Y010163D01*
X032635Y010163D02*
X032668Y010163D01*
X032635Y010157D02*
X032868Y010197D01*
X033095Y010264D01*
X033311Y010359D01*
X033514Y010480D01*
X033700Y010626D01*
X033867Y010793D01*
X034012Y010979D01*
X034133Y011182D01*
X034228Y011398D01*
X034296Y011625D01*
X034335Y011857D01*
X033735Y011857D01*
X033694Y011677D01*
X033629Y011505D01*
X033539Y011343D01*
X033428Y011195D01*
X033298Y011064D01*
X033150Y010953D01*
X032988Y010864D01*
X032815Y010798D01*
X032635Y010757D01*
X032635Y010157D01*
X032635Y010211D02*
X032918Y010211D01*
X033080Y010260D02*
X032635Y010260D01*
X032635Y010308D02*
X033195Y010308D01*
X033305Y010357D02*
X032635Y010357D01*
X032635Y010405D02*
X033388Y010405D01*
X033469Y010454D02*
X032635Y010454D01*
X032635Y010502D02*
X033542Y010502D01*
X033604Y010551D02*
X032635Y010551D01*
X032635Y010599D02*
X033666Y010599D01*
X033722Y010648D02*
X032635Y010648D01*
X032635Y010696D02*
X033771Y010696D01*
X033819Y010745D02*
X032635Y010745D01*
X032794Y010793D02*
X033868Y010793D01*
X033906Y010842D02*
X032930Y010842D01*
X033036Y010890D02*
X033943Y010890D01*
X033981Y010939D02*
X033124Y010939D01*
X033195Y010987D02*
X034017Y010987D01*
X034046Y011036D02*
X033260Y011036D01*
X033318Y011084D02*
X034075Y011084D01*
X034104Y011133D02*
X033366Y011133D01*
X033415Y011181D02*
X034133Y011181D01*
X034154Y011230D02*
X033455Y011230D01*
X033491Y011278D02*
X034176Y011278D01*
X034197Y011327D02*
X033528Y011327D01*
X033557Y011375D02*
X034218Y011375D01*
X034236Y011424D02*
X033584Y011424D01*
X033611Y011472D02*
X034251Y011472D01*
X034265Y011521D02*
X033635Y011521D01*
X033653Y011569D02*
X034280Y011569D01*
X034294Y011618D02*
X033672Y011618D01*
X033690Y011666D02*
X034303Y011666D01*
X034311Y011715D02*
X033703Y011715D01*
X033714Y011763D02*
X034319Y011763D01*
X034328Y011812D02*
X033725Y011812D01*
X033735Y012257D02*
X034335Y012257D01*
X034296Y012490D01*
X034228Y012717D01*
X034133Y012933D01*
X034012Y013136D01*
X033867Y013322D01*
X033700Y013489D01*
X033514Y013634D01*
X033311Y013756D01*
X033095Y013851D01*
X032868Y013918D01*
X032635Y013957D01*
X032635Y013357D01*
X032815Y013317D01*
X032988Y013251D01*
X033150Y013162D01*
X033298Y013051D01*
X033428Y012920D01*
X033539Y012772D01*
X033629Y012610D01*
X033694Y012438D01*
X033735Y012257D01*
X033726Y012297D02*
X034329Y012297D01*
X034320Y012345D02*
X033715Y012345D01*
X033704Y012394D02*
X034312Y012394D01*
X034304Y012442D02*
X033693Y012442D01*
X033674Y012491D02*
X034296Y012491D01*
X034281Y012539D02*
X033656Y012539D01*
X033637Y012588D02*
X034267Y012588D01*
X034252Y012636D02*
X033614Y012636D01*
X033588Y012685D02*
X034238Y012685D01*
X034221Y012733D02*
X033561Y012733D01*
X033532Y012782D02*
X034200Y012782D01*
X034178Y012830D02*
X033496Y012830D01*
X033459Y012879D02*
X034157Y012879D01*
X034136Y012927D02*
X033421Y012927D01*
X033372Y012976D02*
X034108Y012976D01*
X034079Y013024D02*
X033324Y013024D01*
X033268Y013073D02*
X034050Y013073D01*
X034021Y013121D02*
X033203Y013121D01*
X033135Y013170D02*
X033986Y013170D01*
X033948Y013218D02*
X033047Y013218D01*
X032946Y013267D02*
X033910Y013267D01*
X033872Y013315D02*
X032819Y013315D01*
X032635Y013364D02*
X033825Y013364D01*
X033777Y013412D02*
X032635Y013412D01*
X032635Y013461D02*
X033728Y013461D01*
X033674Y013509D02*
X032635Y013509D01*
X032635Y013558D02*
X033612Y013558D01*
X033550Y013606D02*
X032635Y013606D01*
X032635Y013655D02*
X033479Y013655D01*
X033398Y013703D02*
X032635Y013703D01*
X032635Y013752D02*
X033317Y013752D01*
X033209Y013800D02*
X032635Y013800D01*
X032635Y013849D02*
X033098Y013849D01*
X032938Y013897D02*
X032635Y013897D01*
X032635Y013946D02*
X032704Y013946D01*
X008745Y012257D02*
X008706Y012490D01*
X008638Y012717D01*
X008543Y012933D01*
X008422Y013136D01*
X008277Y013322D01*
X008110Y013489D01*
X007923Y013634D01*
X007720Y013756D01*
X007504Y013851D01*
X007278Y013918D01*
X007045Y013957D01*
X007045Y013357D01*
X007225Y013317D01*
X007398Y013251D01*
X007559Y013162D01*
X007707Y013051D01*
X007838Y012920D01*
X007949Y012772D01*
X008038Y012610D01*
X008104Y012438D01*
X008145Y012257D01*
X008745Y012257D01*
X008738Y012297D02*
X008136Y012297D01*
X008125Y012345D02*
X008730Y012345D01*
X008722Y012394D02*
X008114Y012394D01*
X008102Y012442D02*
X008714Y012442D01*
X008705Y012491D02*
X008084Y012491D01*
X008065Y012539D02*
X008691Y012539D01*
X008676Y012588D02*
X008047Y012588D01*
X008024Y012636D02*
X008662Y012636D01*
X008647Y012685D02*
X007997Y012685D01*
X007970Y012733D02*
X008631Y012733D01*
X008609Y012782D02*
X007942Y012782D01*
X007905Y012830D02*
X008588Y012830D01*
X008567Y012879D02*
X007869Y012879D01*
X007830Y012927D02*
X008545Y012927D01*
X008517Y012976D02*
X007782Y012976D01*
X007733Y013024D02*
X008488Y013024D01*
X008459Y013073D02*
X007677Y013073D01*
X007613Y013121D02*
X008430Y013121D01*
X008395Y013170D02*
X007544Y013170D01*
X007456Y013218D02*
X008357Y013218D01*
X008320Y013267D02*
X007355Y013267D01*
X007228Y013315D02*
X008282Y013315D01*
X008235Y013364D02*
X007045Y013364D01*
X007045Y013412D02*
X008186Y013412D01*
X008138Y013461D02*
X007045Y013461D01*
X007045Y013509D02*
X008084Y013509D01*
X008021Y013558D02*
X007045Y013558D01*
X007045Y013606D02*
X007959Y013606D01*
X007889Y013655D02*
X007045Y013655D01*
X007045Y013703D02*
X007808Y013703D01*
X007726Y013752D02*
X007045Y013752D01*
X007045Y013800D02*
X007618Y013800D01*
X007508Y013849D02*
X007045Y013849D01*
X007045Y013897D02*
X007347Y013897D01*
X007113Y013946D02*
X007045Y013946D01*
X006645Y013946D02*
X006576Y013946D01*
X006645Y013957D02*
X006412Y013918D01*
X006185Y013851D01*
X005969Y013756D01*
X005766Y013634D01*
X005580Y013489D01*
X005413Y013322D01*
X005268Y013136D01*
X005147Y012933D01*
X005052Y012717D01*
X004984Y012490D01*
X004945Y012257D01*
X005545Y012257D01*
X005586Y012438D01*
X005651Y012610D01*
X005741Y012772D01*
X005852Y012920D01*
X005982Y013051D01*
X006130Y013162D01*
X006292Y013251D01*
X006465Y013317D01*
X006645Y013357D01*
X006645Y013957D01*
X006645Y013897D02*
X006342Y013897D01*
X006182Y013849D02*
X006645Y013849D01*
X006645Y013800D02*
X006071Y013800D01*
X005963Y013752D02*
X006645Y013752D01*
X006645Y013703D02*
X005882Y013703D01*
X005801Y013655D02*
X006645Y013655D01*
X006645Y013606D02*
X005730Y013606D01*
X005668Y013558D02*
X006645Y013558D01*
X006645Y013509D02*
X005606Y013509D01*
X005552Y013461D02*
X006645Y013461D01*
X006645Y013412D02*
X005503Y013412D01*
X005455Y013364D02*
X006645Y013364D01*
X006461Y013315D02*
X005408Y013315D01*
X005370Y013267D02*
X006334Y013267D01*
X006233Y013218D02*
X005332Y013218D01*
X005294Y013170D02*
X006145Y013170D01*
X006077Y013121D02*
X005259Y013121D01*
X005230Y013073D02*
X006012Y013073D01*
X005956Y013024D02*
X005201Y013024D01*
X005172Y012976D02*
X005908Y012976D01*
X005859Y012927D02*
X005144Y012927D01*
X005123Y012879D02*
X005821Y012879D01*
X005784Y012830D02*
X005102Y012830D01*
X005080Y012782D02*
X005748Y012782D01*
X005719Y012733D02*
X005059Y012733D01*
X005042Y012685D02*
X005692Y012685D01*
X005666Y012636D02*
X005028Y012636D01*
X005013Y012588D02*
X005643Y012588D01*
X005624Y012539D02*
X004999Y012539D01*
X004984Y012491D02*
X005606Y012491D01*
X005587Y012442D02*
X004976Y012442D01*
X004968Y012394D02*
X005576Y012394D01*
X005565Y012345D02*
X004960Y012345D01*
X004951Y012297D02*
X005554Y012297D01*
X005545Y011857D02*
X004945Y011857D01*
X004984Y011625D01*
X005052Y011398D01*
X005147Y011182D01*
X005268Y010979D01*
X005413Y010793D01*
X005580Y010626D01*
X005766Y010480D01*
X005969Y010359D01*
X006185Y010264D01*
X006412Y010197D01*
X006645Y010157D01*
X006645Y010757D01*
X006465Y010798D01*
X006292Y010864D01*
X006130Y010953D01*
X005982Y011064D01*
X005852Y011195D01*
X005741Y011343D01*
X005651Y011505D01*
X005586Y011677D01*
X005545Y011857D01*
X005555Y011812D02*
X004952Y011812D01*
X004961Y011763D02*
X005566Y011763D01*
X005577Y011715D02*
X004969Y011715D01*
X004977Y011666D02*
X005590Y011666D01*
X005608Y011618D02*
X004986Y011618D01*
X005000Y011569D02*
X005627Y011569D01*
X005645Y011521D02*
X005015Y011521D01*
X005029Y011472D02*
X005669Y011472D01*
X005696Y011424D02*
X005044Y011424D01*
X005062Y011375D02*
X005723Y011375D01*
X005752Y011327D02*
X005083Y011327D01*
X005104Y011278D02*
X005789Y011278D01*
X005825Y011230D02*
X005126Y011230D01*
X005147Y011181D02*
X005865Y011181D01*
X005914Y011133D02*
X005176Y011133D01*
X005205Y011084D02*
X005962Y011084D01*
X006020Y011036D02*
X005234Y011036D01*
X005263Y010987D02*
X006085Y010987D01*
X006156Y010939D02*
X005299Y010939D01*
X005337Y010890D02*
X006244Y010890D01*
X006350Y010842D02*
X005374Y010842D01*
X005412Y010793D02*
X006486Y010793D01*
X006645Y010745D02*
X005461Y010745D01*
X005509Y010696D02*
X006645Y010696D01*
X006645Y010648D02*
X005558Y010648D01*
X005614Y010599D02*
X006645Y010599D01*
X006645Y010551D02*
X005676Y010551D01*
X005738Y010502D02*
X006645Y010502D01*
X006645Y010454D02*
X005811Y010454D01*
X005892Y010405D02*
X006645Y010405D01*
X006645Y010357D02*
X005975Y010357D01*
X006085Y010308D02*
X006645Y010308D01*
X006645Y010260D02*
X006200Y010260D01*
X006362Y010211D02*
X006645Y010211D01*
X006645Y010163D02*
X006612Y010163D01*
X007045Y010163D02*
X007077Y010163D01*
X007045Y010157D02*
X007278Y010197D01*
X007504Y010264D01*
X007720Y010359D01*
X007923Y010480D01*
X008110Y010626D01*
X008277Y010793D01*
X007203Y010793D01*
X007225Y010798D02*
X007045Y010757D01*
X007045Y010157D01*
X007045Y010211D02*
X007327Y010211D01*
X007489Y010260D02*
X007045Y010260D01*
X007045Y010308D02*
X007604Y010308D01*
X007715Y010357D02*
X007045Y010357D01*
X007045Y010405D02*
X007797Y010405D01*
X007879Y010454D02*
X007045Y010454D01*
X007045Y010502D02*
X007951Y010502D01*
X008014Y010551D02*
X007045Y010551D01*
X007045Y010599D02*
X008076Y010599D01*
X008132Y010648D02*
X007045Y010648D01*
X007045Y010696D02*
X008180Y010696D01*
X008229Y010745D02*
X007045Y010745D01*
X007225Y010798D02*
X007398Y010864D01*
X007559Y010953D01*
X007707Y011064D01*
X007838Y011195D01*
X007949Y011343D01*
X008038Y011505D01*
X008104Y011677D01*
X008145Y011857D01*
X008745Y011857D01*
X008706Y011625D01*
X008638Y011398D01*
X008543Y011182D01*
X008422Y010979D01*
X008277Y010793D01*
X008315Y010842D02*
X007340Y010842D01*
X007445Y010890D02*
X008353Y010890D01*
X008391Y010939D02*
X007533Y010939D01*
X007605Y010987D02*
X008427Y010987D01*
X008456Y011036D02*
X007669Y011036D01*
X007727Y011084D02*
X008485Y011084D01*
X008514Y011133D02*
X007776Y011133D01*
X007824Y011181D02*
X008542Y011181D01*
X008564Y011230D02*
X007864Y011230D01*
X007901Y011278D02*
X008585Y011278D01*
X008607Y011327D02*
X007937Y011327D01*
X007967Y011375D02*
X008628Y011375D01*
X008646Y011424D02*
X007994Y011424D01*
X008020Y011472D02*
X008660Y011472D01*
X008675Y011521D02*
X008044Y011521D01*
X008063Y011569D02*
X008689Y011569D01*
X008704Y011618D02*
X008081Y011618D01*
X008100Y011666D02*
X008713Y011666D01*
X008721Y011715D02*
X008112Y011715D01*
X008123Y011763D02*
X008729Y011763D01*
X008737Y011812D02*
X008134Y011812D01*
X007045Y029843D02*
X007278Y029882D01*
X007504Y029949D01*
X007720Y030044D01*
X007923Y030166D01*
X008110Y030311D01*
X008277Y030478D01*
X008422Y030664D01*
X008543Y030867D01*
X008638Y031083D01*
X008706Y031310D01*
X008745Y031543D01*
X008145Y031543D01*
X008104Y031362D01*
X008038Y031190D01*
X007949Y031028D01*
X007838Y030880D01*
X007707Y030749D01*
X007559Y030638D01*
X007398Y030549D01*
X007225Y030483D01*
X007045Y030443D01*
X007045Y029843D01*
X007045Y029854D02*
X007113Y029854D01*
X007045Y029903D02*
X007347Y029903D01*
X007508Y029951D02*
X007045Y029951D01*
X007045Y030000D02*
X007618Y030000D01*
X007726Y030048D02*
X007045Y030048D01*
X007045Y030097D02*
X007808Y030097D01*
X007889Y030145D02*
X007045Y030145D01*
X007045Y030194D02*
X007959Y030194D01*
X008021Y030242D02*
X007045Y030242D01*
X007045Y030291D02*
X008084Y030291D01*
X008138Y030339D02*
X007045Y030339D01*
X007045Y030388D02*
X008186Y030388D01*
X008235Y030436D02*
X007045Y030436D01*
X007228Y030485D02*
X008282Y030485D01*
X008320Y030533D02*
X007355Y030533D01*
X007456Y030582D02*
X008357Y030582D01*
X008395Y030630D02*
X007544Y030630D01*
X007613Y030679D02*
X008430Y030679D01*
X008459Y030727D02*
X007677Y030727D01*
X007733Y030776D02*
X008488Y030776D01*
X008517Y030824D02*
X007782Y030824D01*
X007830Y030873D02*
X008545Y030873D01*
X008567Y030921D02*
X007869Y030921D01*
X007905Y030970D02*
X008588Y030970D01*
X008609Y031018D02*
X007942Y031018D01*
X007970Y031067D02*
X008631Y031067D01*
X008647Y031115D02*
X007997Y031115D01*
X008024Y031164D02*
X008662Y031164D01*
X008676Y031212D02*
X008047Y031212D01*
X008065Y031261D02*
X008691Y031261D01*
X008705Y031309D02*
X008084Y031309D01*
X008102Y031358D02*
X008714Y031358D01*
X008722Y031406D02*
X008114Y031406D01*
X008125Y031455D02*
X008730Y031455D01*
X008738Y031503D02*
X008136Y031503D01*
X008145Y031943D02*
X008745Y031943D01*
X008706Y032175D01*
X008638Y032402D01*
X008543Y032618D01*
X008422Y032821D01*
X008277Y033007D01*
X007203Y033007D01*
X007225Y033002D02*
X007398Y032936D01*
X007559Y032847D01*
X007707Y032736D01*
X007838Y032605D01*
X007949Y032457D01*
X008038Y032295D01*
X008104Y032123D01*
X008145Y031943D01*
X008134Y031988D02*
X008737Y031988D01*
X008729Y032037D02*
X008123Y032037D01*
X008112Y032085D02*
X008721Y032085D01*
X008713Y032134D02*
X008100Y032134D01*
X008081Y032182D02*
X008704Y032182D01*
X008689Y032231D02*
X008063Y032231D01*
X008044Y032279D02*
X008675Y032279D01*
X008660Y032328D02*
X008020Y032328D01*
X007994Y032376D02*
X008646Y032376D01*
X008628Y032425D02*
X007967Y032425D01*
X007937Y032473D02*
X008607Y032473D01*
X008585Y032522D02*
X007901Y032522D01*
X007864Y032570D02*
X008564Y032570D01*
X008542Y032619D02*
X007824Y032619D01*
X007776Y032667D02*
X008514Y032667D01*
X008485Y032716D02*
X007727Y032716D01*
X007669Y032764D02*
X008456Y032764D01*
X008427Y032813D02*
X007605Y032813D01*
X007533Y032861D02*
X008391Y032861D01*
X008353Y032910D02*
X007445Y032910D01*
X007340Y032958D02*
X008315Y032958D01*
X008277Y033007D02*
X008110Y033174D01*
X007923Y033320D01*
X007720Y033441D01*
X007504Y033536D01*
X007278Y033603D01*
X007045Y033643D01*
X007045Y033043D01*
X007225Y033002D01*
X007045Y033055D02*
X008229Y033055D01*
X008180Y033104D02*
X007045Y033104D01*
X007045Y033152D02*
X008132Y033152D01*
X008076Y033201D02*
X007045Y033201D01*
X007045Y033249D02*
X008014Y033249D01*
X007951Y033298D02*
X007045Y033298D01*
X007045Y033346D02*
X007879Y033346D01*
X007797Y033395D02*
X007045Y033395D01*
X007045Y033443D02*
X007715Y033443D01*
X007604Y033492D02*
X007045Y033492D01*
X007045Y033540D02*
X007489Y033540D01*
X007327Y033589D02*
X007045Y033589D01*
X007045Y033637D02*
X007077Y033637D01*
X006645Y033637D02*
X006612Y033637D01*
X006645Y033643D02*
X006412Y033603D01*
X006185Y033536D01*
X005969Y033441D01*
X005766Y033320D01*
X005580Y033174D01*
X005413Y033007D01*
X005268Y032821D01*
X005147Y032618D01*
X005052Y032402D01*
X004984Y032175D01*
X004945Y031943D01*
X005545Y031943D01*
X005586Y032123D01*
X005651Y032295D01*
X005741Y032457D01*
X005852Y032605D01*
X005982Y032736D01*
X006130Y032847D01*
X006292Y032936D01*
X006465Y033002D01*
X006645Y033043D01*
X006645Y033643D01*
X006645Y033589D02*
X006362Y033589D01*
X006200Y033540D02*
X006645Y033540D01*
X006645Y033492D02*
X006085Y033492D01*
X005975Y033443D02*
X006645Y033443D01*
X006645Y033395D02*
X005892Y033395D01*
X005811Y033346D02*
X006645Y033346D01*
X006645Y033298D02*
X005738Y033298D01*
X005676Y033249D02*
X006645Y033249D01*
X006645Y033201D02*
X005614Y033201D01*
X005558Y033152D02*
X006645Y033152D01*
X006645Y033104D02*
X005509Y033104D01*
X005461Y033055D02*
X006645Y033055D01*
X006486Y033007D02*
X005412Y033007D01*
X005374Y032958D02*
X006350Y032958D01*
X006244Y032910D02*
X005337Y032910D01*
X005299Y032861D02*
X006156Y032861D01*
X006085Y032813D02*
X005263Y032813D01*
X005234Y032764D02*
X006020Y032764D01*
X005962Y032716D02*
X005205Y032716D01*
X005176Y032667D02*
X005914Y032667D01*
X005865Y032619D02*
X005147Y032619D01*
X005126Y032570D02*
X005825Y032570D01*
X005789Y032522D02*
X005104Y032522D01*
X005083Y032473D02*
X005752Y032473D01*
X005723Y032425D02*
X005062Y032425D01*
X005044Y032376D02*
X005696Y032376D01*
X005669Y032328D02*
X005029Y032328D01*
X005015Y032279D02*
X005645Y032279D01*
X005627Y032231D02*
X005000Y032231D01*
X004986Y032182D02*
X005608Y032182D01*
X005590Y032134D02*
X004977Y032134D01*
X004969Y032085D02*
X005577Y032085D01*
X005566Y032037D02*
X004961Y032037D01*
X004952Y031988D02*
X005555Y031988D01*
X005545Y031543D02*
X004945Y031543D01*
X004984Y031310D01*
X005052Y031083D01*
X005147Y030867D01*
X005268Y030664D01*
X005413Y030478D01*
X005580Y030311D01*
X005766Y030166D01*
X005969Y030044D01*
X006185Y029949D01*
X006412Y029882D01*
X006645Y029843D01*
X006645Y030443D01*
X006465Y030483D01*
X006292Y030549D01*
X006130Y030638D01*
X005982Y030749D01*
X005852Y030880D01*
X005741Y031028D01*
X005651Y031190D01*
X005586Y031362D01*
X005545Y031543D01*
X005554Y031503D02*
X004951Y031503D01*
X004960Y031455D02*
X005565Y031455D01*
X005576Y031406D02*
X004968Y031406D01*
X004976Y031358D02*
X005587Y031358D01*
X005606Y031309D02*
X004984Y031309D01*
X004999Y031261D02*
X005624Y031261D01*
X005643Y031212D02*
X005013Y031212D01*
X005028Y031164D02*
X005666Y031164D01*
X005692Y031115D02*
X005042Y031115D01*
X005059Y031067D02*
X005719Y031067D01*
X005748Y031018D02*
X005080Y031018D01*
X005102Y030970D02*
X005784Y030970D01*
X005821Y030921D02*
X005123Y030921D01*
X005144Y030873D02*
X005859Y030873D01*
X005908Y030824D02*
X005172Y030824D01*
X005201Y030776D02*
X005956Y030776D01*
X006012Y030727D02*
X005230Y030727D01*
X005259Y030679D02*
X006077Y030679D01*
X006145Y030630D02*
X005294Y030630D01*
X005332Y030582D02*
X006233Y030582D01*
X006334Y030533D02*
X005370Y030533D01*
X005408Y030485D02*
X006461Y030485D01*
X006645Y030436D02*
X005455Y030436D01*
X005503Y030388D02*
X006645Y030388D01*
X006645Y030339D02*
X005552Y030339D01*
X005606Y030291D02*
X006645Y030291D01*
X006645Y030242D02*
X005668Y030242D01*
X005730Y030194D02*
X006645Y030194D01*
X006645Y030145D02*
X005801Y030145D01*
X005882Y030097D02*
X006645Y030097D01*
X006645Y030048D02*
X005963Y030048D01*
X006071Y030000D02*
X006645Y030000D01*
X006645Y029951D02*
X006182Y029951D01*
X006342Y029903D02*
X006645Y029903D01*
X006645Y029854D02*
X006576Y029854D01*
D28*
X014190Y011324D03*
X014690Y011324D03*
X015190Y011324D03*
X015690Y011324D03*
X015690Y009276D03*
X015190Y009276D03*
X014690Y009276D03*
X014190Y009276D03*
X018690Y009276D03*
X019190Y009276D03*
X019690Y009276D03*
X020190Y009276D03*
X020190Y011324D03*
X019690Y011324D03*
X019190Y011324D03*
X018690Y011324D03*
X023090Y011324D03*
X023590Y011324D03*
X024090Y011324D03*
X024590Y011324D03*
X024590Y009276D03*
X024090Y009276D03*
X023590Y009276D03*
X023090Y009276D03*
X027590Y009276D03*
X028090Y009276D03*
X028590Y009276D03*
X029090Y009276D03*
X029090Y011324D03*
X028590Y011324D03*
X028090Y011324D03*
X027590Y011324D03*
D29*
X033240Y025300D03*
X033240Y026500D03*
X006040Y018400D03*
X006040Y017200D03*
D30*
X008960Y004900D03*
X010160Y004900D03*
X013940Y004900D03*
X015140Y004900D03*
X017860Y004900D03*
X019060Y004900D03*
X022360Y004900D03*
X023560Y004900D03*
X026680Y004900D03*
X027880Y004900D03*
M02*
