<svg xmlns="http://www.w3.org/2000/svg" viewBox="0 0 92.51 58.77"><defs><style>.a{fill:#000;}</style></defs><title>google_plus</title><path class="a" d="M251.5,265.75c0.25-15.14,14.17-28.39,29.31-27.89,7.25-.34,14.07,2.82,19.63,7.25a104.6,104.6,0,0,1-7.45,7.72c-6.68-4.62-16.17-5.93-22.85-.6-9.55,6.61-10,22.21-.8,29.32,8.94,8.11,25.83,4.08,28.3-8.33-5.6-.08-11.21,0-16.81-0.18,0-3.34,0-6.68,0-10,9.36,0,18.71,0,28.09,0,0.56,7.86-.48,16.22-5.3,22.71-7.31,10.28-22,13.28-33.43,8.88S250.53,278.12,251.5,265.75Z" transform="translate(-251.42 -237.84)"/><path class="a" d="M327.14,254.59h8.35c0,2.79,0,5.6.06,8.39l8.39,0.06v8.35l-8.39.07q0,4.21-.06,8.39h-8.36c0-2.79,0-5.58-.06-8.38l-8.39-.08V263l8.39-.06Q327.09,258.77,327.14,254.59Z" transform="translate(-251.42 -237.84)"/></svg>
