G75*
%MOIN*%
%OFA0B0*%
%FSLAX24Y24*%
%IPPOS*%
%LPD*%
%AMOC8*
5,1,8,0,0,1.08239X$1,22.5*
%
%ADD10C,0.0050*%
%ADD11R,0.0591X0.0335*%
D10*
X016495Y016542D02*
X017667Y016542D01*
X017667Y016567D02*
X017667Y015967D01*
X017434Y016006D01*
X017207Y016073D01*
X016991Y016168D01*
X016788Y016290D01*
X016602Y016435D01*
X016435Y016602D01*
X016290Y016788D01*
X016168Y016991D01*
X016073Y017207D01*
X016006Y017434D01*
X015967Y017667D01*
X016567Y017667D01*
X016607Y017486D01*
X016673Y017314D01*
X016762Y017152D01*
X016873Y017004D01*
X017004Y016873D01*
X017152Y016762D01*
X017314Y016673D01*
X017486Y016607D01*
X017667Y016567D01*
X017667Y016493D02*
X016543Y016493D01*
X016592Y016445D02*
X017667Y016445D01*
X017667Y016396D02*
X016651Y016396D01*
X016713Y016348D02*
X017667Y016348D01*
X017667Y016299D02*
X016775Y016299D01*
X016853Y016251D02*
X017667Y016251D01*
X017667Y016202D02*
X016934Y016202D01*
X017024Y016154D02*
X017667Y016154D01*
X017667Y016105D02*
X017135Y016105D01*
X017263Y016057D02*
X017667Y016057D01*
X017667Y016008D02*
X017425Y016008D01*
X017561Y016590D02*
X016446Y016590D01*
X016406Y016639D02*
X017404Y016639D01*
X017288Y016687D02*
X016368Y016687D01*
X016330Y016736D02*
X017200Y016736D01*
X017123Y016784D02*
X016292Y016784D01*
X016263Y016833D02*
X017058Y016833D01*
X016996Y016881D02*
X016234Y016881D01*
X016205Y016930D02*
X016948Y016930D01*
X016899Y016978D02*
X016176Y016978D01*
X016153Y017027D02*
X016856Y017027D01*
X016820Y017075D02*
X016131Y017075D01*
X016110Y017124D02*
X016783Y017124D01*
X016751Y017172D02*
X016089Y017172D01*
X016069Y017221D02*
X016724Y017221D01*
X016698Y017269D02*
X016055Y017269D01*
X016040Y017318D02*
X016671Y017318D01*
X016653Y017366D02*
X016026Y017366D01*
X016011Y017415D02*
X016635Y017415D01*
X016616Y017463D02*
X016001Y017463D01*
X015993Y017512D02*
X016602Y017512D01*
X016591Y017560D02*
X015984Y017560D01*
X015976Y017609D02*
X016580Y017609D01*
X016569Y017657D02*
X015968Y017657D01*
X015967Y018067D02*
X016006Y018299D01*
X016073Y018526D01*
X016168Y018742D01*
X016290Y018945D01*
X016435Y019131D01*
X016602Y019298D01*
X016788Y019444D01*
X016991Y019565D01*
X017207Y019660D01*
X017434Y019727D01*
X017667Y019767D01*
X017667Y019167D01*
X017486Y019126D01*
X017314Y019060D01*
X017152Y018971D01*
X017004Y018860D01*
X016873Y018729D01*
X016762Y018581D01*
X016673Y018419D01*
X016607Y018247D01*
X016567Y018067D01*
X015967Y018067D01*
X015971Y018094D02*
X016573Y018094D01*
X016584Y018142D02*
X015979Y018142D01*
X015987Y018191D02*
X016595Y018191D01*
X016606Y018239D02*
X015996Y018239D01*
X016004Y018288D02*
X016623Y018288D01*
X016641Y018336D02*
X016017Y018336D01*
X016031Y018385D02*
X016660Y018385D01*
X016681Y018433D02*
X016046Y018433D01*
X016060Y018482D02*
X016708Y018482D01*
X016734Y018530D02*
X016075Y018530D01*
X016097Y018579D02*
X016761Y018579D01*
X016797Y018627D02*
X016118Y018627D01*
X016139Y018676D02*
X016834Y018676D01*
X016870Y018724D02*
X016161Y018724D01*
X016187Y018773D02*
X016917Y018773D01*
X016966Y018821D02*
X016216Y018821D01*
X016245Y018870D02*
X017018Y018870D01*
X017082Y018918D02*
X016274Y018918D01*
X016307Y018967D02*
X017147Y018967D01*
X017233Y019015D02*
X016344Y019015D01*
X016382Y019064D02*
X017324Y019064D01*
X017451Y019112D02*
X016420Y019112D01*
X016464Y019161D02*
X017642Y019161D01*
X017667Y019209D02*
X016513Y019209D01*
X016561Y019258D02*
X017667Y019258D01*
X017667Y019306D02*
X016612Y019306D01*
X016674Y019355D02*
X017667Y019355D01*
X017667Y019403D02*
X016737Y019403D01*
X016802Y019452D02*
X017667Y019452D01*
X017667Y019500D02*
X016883Y019500D01*
X016965Y019549D02*
X017667Y019549D01*
X017667Y019597D02*
X017066Y019597D01*
X017176Y019646D02*
X017667Y019646D01*
X017667Y019694D02*
X017323Y019694D01*
X017526Y019743D02*
X017667Y019743D01*
X018067Y019743D02*
X018207Y019743D01*
X018299Y019727D02*
X018526Y019660D01*
X018742Y019565D01*
X018945Y019444D01*
X019131Y019298D01*
X019298Y019131D01*
X019444Y018945D01*
X019565Y018742D01*
X019660Y018526D01*
X019727Y018299D01*
X019767Y018067D01*
X019167Y018067D01*
X019126Y018247D01*
X019060Y018419D01*
X018971Y018581D01*
X018860Y018729D01*
X018729Y018860D01*
X018581Y018971D01*
X018419Y019060D01*
X018247Y019126D01*
X018067Y019167D01*
X018067Y019767D01*
X018299Y019727D01*
X018410Y019694D02*
X018067Y019694D01*
X018067Y019646D02*
X018557Y019646D01*
X018667Y019597D02*
X018067Y019597D01*
X018067Y019549D02*
X018768Y019549D01*
X018850Y019500D02*
X018067Y019500D01*
X018067Y019452D02*
X018931Y019452D01*
X018997Y019403D02*
X018067Y019403D01*
X018067Y019355D02*
X019059Y019355D01*
X019121Y019306D02*
X018067Y019306D01*
X018067Y019258D02*
X019172Y019258D01*
X019220Y019209D02*
X018067Y019209D01*
X018091Y019161D02*
X019269Y019161D01*
X019313Y019112D02*
X018282Y019112D01*
X018409Y019064D02*
X019351Y019064D01*
X019389Y019015D02*
X018500Y019015D01*
X018586Y018967D02*
X019426Y018967D01*
X019459Y018918D02*
X018651Y018918D01*
X018715Y018870D02*
X019488Y018870D01*
X019517Y018821D02*
X018767Y018821D01*
X018816Y018773D02*
X019546Y018773D01*
X019572Y018724D02*
X018863Y018724D01*
X018900Y018676D02*
X019594Y018676D01*
X019615Y018627D02*
X018936Y018627D01*
X018972Y018579D02*
X019636Y018579D01*
X019658Y018530D02*
X018999Y018530D01*
X019026Y018482D02*
X019673Y018482D01*
X019687Y018433D02*
X019052Y018433D01*
X019073Y018385D02*
X019702Y018385D01*
X019716Y018336D02*
X019092Y018336D01*
X019110Y018288D02*
X019729Y018288D01*
X019737Y018239D02*
X019127Y018239D01*
X019138Y018191D02*
X019746Y018191D01*
X019754Y018142D02*
X019149Y018142D01*
X019160Y018094D02*
X019762Y018094D01*
X019767Y017667D02*
X019727Y017434D01*
X019660Y017207D01*
X019565Y016991D01*
X019444Y016788D01*
X019298Y016602D01*
X019131Y016435D01*
X018945Y016290D01*
X018742Y016168D01*
X018526Y016073D01*
X018299Y016006D01*
X018067Y015967D01*
X018067Y016567D01*
X018247Y016607D01*
X018419Y016673D01*
X018581Y016762D01*
X018729Y016873D01*
X018860Y017004D01*
X018971Y017152D01*
X019060Y017314D01*
X019126Y017486D01*
X019167Y017667D01*
X019767Y017667D01*
X019765Y017657D02*
X019164Y017657D01*
X019153Y017609D02*
X019757Y017609D01*
X019749Y017560D02*
X019142Y017560D01*
X019131Y017512D02*
X019741Y017512D01*
X019732Y017463D02*
X019117Y017463D01*
X019098Y017415D02*
X019722Y017415D01*
X019707Y017366D02*
X019080Y017366D01*
X019062Y017318D02*
X019693Y017318D01*
X019678Y017269D02*
X019036Y017269D01*
X019009Y017221D02*
X019664Y017221D01*
X019644Y017172D02*
X018982Y017172D01*
X018950Y017124D02*
X019623Y017124D01*
X019602Y017075D02*
X018913Y017075D01*
X018877Y017027D02*
X019580Y017027D01*
X019557Y016978D02*
X018834Y016978D01*
X018785Y016930D02*
X019528Y016930D01*
X019499Y016881D02*
X018737Y016881D01*
X018675Y016833D02*
X019470Y016833D01*
X019441Y016784D02*
X018611Y016784D01*
X018533Y016736D02*
X019403Y016736D01*
X019365Y016687D02*
X018445Y016687D01*
X018329Y016639D02*
X019327Y016639D01*
X019287Y016590D02*
X018172Y016590D01*
X018067Y016542D02*
X019239Y016542D01*
X019190Y016493D02*
X018067Y016493D01*
X018067Y016445D02*
X019142Y016445D01*
X019082Y016396D02*
X018067Y016396D01*
X018067Y016348D02*
X019020Y016348D01*
X018958Y016299D02*
X018067Y016299D01*
X018067Y016251D02*
X018880Y016251D01*
X018799Y016202D02*
X018067Y016202D01*
X018067Y016154D02*
X018709Y016154D01*
X018599Y016105D02*
X018067Y016105D01*
X018067Y016057D02*
X018471Y016057D01*
X018308Y016008D02*
X018067Y016008D01*
X036676Y055539D02*
X036473Y055660D01*
X036287Y055805D01*
X036120Y055972D01*
X035975Y056158D01*
X035854Y056361D01*
X036572Y056361D01*
X036558Y056374D02*
X036689Y056244D01*
X036837Y056132D01*
X036999Y056043D01*
X037171Y055977D01*
X037352Y055937D01*
X037352Y055337D01*
X037119Y055376D01*
X036892Y055443D01*
X036676Y055539D01*
X036682Y055536D02*
X037352Y055536D01*
X037352Y055488D02*
X036792Y055488D01*
X036907Y055439D02*
X037352Y055439D01*
X037352Y055391D02*
X037069Y055391D01*
X037319Y055342D02*
X037352Y055342D01*
X037352Y055585D02*
X036599Y055585D01*
X036518Y055633D02*
X037352Y055633D01*
X037352Y055682D02*
X036445Y055682D01*
X036383Y055730D02*
X037352Y055730D01*
X037352Y055779D02*
X036320Y055779D01*
X036264Y055827D02*
X037352Y055827D01*
X037352Y055876D02*
X036216Y055876D01*
X036167Y055924D02*
X037352Y055924D01*
X037193Y055973D02*
X036119Y055973D01*
X036081Y056021D02*
X037057Y056021D01*
X036951Y056070D02*
X036044Y056070D01*
X036006Y056118D02*
X036863Y056118D01*
X036791Y056167D02*
X035970Y056167D01*
X035941Y056215D02*
X036727Y056215D01*
X036669Y056264D02*
X035912Y056264D01*
X035883Y056312D02*
X036621Y056312D01*
X036558Y056374D02*
X036447Y056522D01*
X036358Y056684D01*
X036292Y056856D01*
X036252Y057037D01*
X035652Y057037D01*
X035691Y056804D01*
X035758Y056577D01*
X035854Y056361D01*
X035832Y056409D02*
X036532Y056409D01*
X036496Y056458D02*
X035811Y056458D01*
X035790Y056506D02*
X036459Y056506D01*
X036429Y056555D02*
X035768Y056555D01*
X035751Y056603D02*
X036403Y056603D01*
X036376Y056652D02*
X035736Y056652D01*
X035722Y056700D02*
X036352Y056700D01*
X036333Y056749D02*
X035707Y056749D01*
X035693Y056797D02*
X036315Y056797D01*
X036297Y056846D02*
X035684Y056846D01*
X035676Y056894D02*
X036284Y056894D01*
X036273Y056943D02*
X035667Y056943D01*
X035659Y056991D02*
X036262Y056991D01*
X036252Y057437D02*
X035652Y057437D01*
X035691Y057670D01*
X036313Y057670D01*
X036331Y057719D02*
X035705Y057719D01*
X035720Y057767D02*
X036350Y057767D01*
X036358Y057790D02*
X036292Y057617D01*
X036252Y057437D01*
X036261Y057476D02*
X035658Y057476D01*
X035666Y057525D02*
X036272Y057525D01*
X036283Y057573D02*
X035675Y057573D01*
X035683Y057622D02*
X036294Y057622D01*
X036358Y057790D02*
X036447Y057951D01*
X036558Y058099D01*
X036689Y058230D01*
X036837Y058341D01*
X036999Y058430D01*
X037171Y058496D01*
X037352Y058537D01*
X037352Y059137D01*
X037119Y059097D01*
X036892Y059030D01*
X036676Y058935D01*
X036473Y058814D01*
X036287Y058668D01*
X036120Y058501D01*
X035975Y058315D01*
X035854Y058112D01*
X035758Y057896D01*
X035691Y057670D01*
X035734Y057816D02*
X036373Y057816D01*
X036399Y057864D02*
X035749Y057864D01*
X035766Y057913D02*
X036426Y057913D01*
X036455Y057961D02*
X035787Y057961D01*
X035808Y058010D02*
X036491Y058010D01*
X036528Y058058D02*
X035830Y058058D01*
X035851Y058107D02*
X036566Y058107D01*
X036615Y058155D02*
X035879Y058155D01*
X035908Y058204D02*
X036663Y058204D01*
X036719Y058252D02*
X035937Y058252D01*
X035966Y058301D02*
X036783Y058301D01*
X036852Y058349D02*
X036001Y058349D01*
X036039Y058398D02*
X036940Y058398D01*
X037041Y058446D02*
X036077Y058446D01*
X036114Y058495D02*
X037168Y058495D01*
X037352Y058543D02*
X036161Y058543D01*
X036210Y058592D02*
X037352Y058592D01*
X037352Y058640D02*
X036258Y058640D01*
X036313Y058689D02*
X037352Y058689D01*
X037352Y058737D02*
X036375Y058737D01*
X036437Y058786D02*
X037352Y058786D01*
X037352Y058834D02*
X036507Y058834D01*
X036589Y058883D02*
X037352Y058883D01*
X037352Y058931D02*
X036670Y058931D01*
X036778Y058980D02*
X037352Y058980D01*
X037352Y059028D02*
X036889Y059028D01*
X037049Y059077D02*
X037352Y059077D01*
X037352Y059125D02*
X037283Y059125D01*
X037752Y059125D02*
X037820Y059125D01*
X037752Y059137D02*
X037985Y059097D01*
X038211Y059030D01*
X038427Y058935D01*
X038630Y058814D01*
X038816Y058668D01*
X038983Y058501D01*
X039129Y058315D01*
X039250Y058112D01*
X039345Y057896D01*
X039412Y057670D01*
X038790Y057670D01*
X038772Y057719D02*
X039398Y057719D01*
X039383Y057767D02*
X038754Y057767D01*
X038745Y057790D02*
X038656Y057951D01*
X038545Y058099D01*
X038414Y058230D01*
X038266Y058341D01*
X038105Y058430D01*
X037932Y058496D01*
X037752Y058537D01*
X037752Y059137D01*
X037752Y059077D02*
X038054Y059077D01*
X038215Y059028D02*
X037752Y059028D01*
X037752Y058980D02*
X038325Y058980D01*
X038433Y058931D02*
X037752Y058931D01*
X037752Y058883D02*
X038514Y058883D01*
X038596Y058834D02*
X037752Y058834D01*
X037752Y058786D02*
X038666Y058786D01*
X038728Y058737D02*
X037752Y058737D01*
X037752Y058689D02*
X038791Y058689D01*
X038845Y058640D02*
X037752Y058640D01*
X037752Y058592D02*
X038893Y058592D01*
X038942Y058543D02*
X037752Y058543D01*
X037935Y058495D02*
X038989Y058495D01*
X039027Y058446D02*
X038062Y058446D01*
X038163Y058398D02*
X039064Y058398D01*
X039102Y058349D02*
X038251Y058349D01*
X038320Y058301D02*
X039137Y058301D01*
X039166Y058252D02*
X038384Y058252D01*
X038440Y058204D02*
X039195Y058204D01*
X039224Y058155D02*
X038489Y058155D01*
X038537Y058107D02*
X039252Y058107D01*
X039273Y058058D02*
X038575Y058058D01*
X038612Y058010D02*
X039295Y058010D01*
X039316Y057961D02*
X038648Y057961D01*
X038677Y057913D02*
X039337Y057913D01*
X039354Y057864D02*
X038704Y057864D01*
X038731Y057816D02*
X039369Y057816D01*
X039412Y057670D02*
X039452Y057437D01*
X038852Y057437D01*
X038811Y057617D01*
X038745Y057790D01*
X038809Y057622D02*
X039420Y057622D01*
X039429Y057573D02*
X038821Y057573D01*
X038832Y057525D02*
X039437Y057525D01*
X039445Y057476D02*
X038843Y057476D01*
X038852Y057037D02*
X039452Y057037D01*
X039412Y056804D01*
X039345Y056577D01*
X039250Y056361D01*
X039129Y056158D01*
X038983Y055972D01*
X038816Y055805D01*
X038630Y055660D01*
X038427Y055539D01*
X038211Y055443D01*
X037985Y055376D01*
X037752Y055337D01*
X037752Y055937D01*
X037932Y055977D01*
X038105Y056043D01*
X038266Y056132D01*
X038414Y056244D01*
X038545Y056374D01*
X038656Y056522D01*
X038745Y056684D01*
X038811Y056856D01*
X038852Y057037D01*
X038841Y056991D02*
X039444Y056991D01*
X039436Y056943D02*
X038830Y056943D01*
X038819Y056894D02*
X039428Y056894D01*
X039419Y056846D02*
X038807Y056846D01*
X038788Y056797D02*
X039410Y056797D01*
X039396Y056749D02*
X038770Y056749D01*
X038751Y056700D02*
X039381Y056700D01*
X039367Y056652D02*
X038727Y056652D01*
X038701Y056603D02*
X039352Y056603D01*
X039335Y056555D02*
X038674Y056555D01*
X038644Y056506D02*
X039313Y056506D01*
X039292Y056458D02*
X038607Y056458D01*
X038571Y056409D02*
X039271Y056409D01*
X039249Y056361D02*
X038531Y056361D01*
X038483Y056312D02*
X039220Y056312D01*
X039191Y056264D02*
X038434Y056264D01*
X038376Y056215D02*
X039163Y056215D01*
X039134Y056167D02*
X038312Y056167D01*
X038240Y056118D02*
X039097Y056118D01*
X039060Y056070D02*
X038152Y056070D01*
X038046Y056021D02*
X039022Y056021D01*
X038984Y055973D02*
X037910Y055973D01*
X037752Y055924D02*
X038936Y055924D01*
X038887Y055876D02*
X037752Y055876D01*
X037752Y055827D02*
X038839Y055827D01*
X038783Y055779D02*
X037752Y055779D01*
X037752Y055730D02*
X038721Y055730D01*
X038658Y055682D02*
X037752Y055682D01*
X037752Y055633D02*
X038586Y055633D01*
X038504Y055585D02*
X037752Y055585D01*
X037752Y055536D02*
X038421Y055536D01*
X038311Y055488D02*
X037752Y055488D01*
X037752Y055439D02*
X038196Y055439D01*
X038034Y055391D02*
X037752Y055391D01*
X037752Y055342D02*
X037784Y055342D01*
X075224Y038427D02*
X075129Y038211D01*
X075061Y037985D01*
X075022Y037752D01*
X075622Y037752D01*
X075663Y037932D01*
X075728Y038105D01*
X075817Y038266D01*
X075929Y038414D01*
X076059Y038545D01*
X076207Y038656D01*
X076369Y038745D01*
X076541Y038811D01*
X076722Y038852D01*
X075525Y038852D01*
X075490Y038816D02*
X075657Y038983D01*
X075843Y039129D01*
X076046Y039250D01*
X076262Y039345D01*
X076489Y039412D01*
X076722Y039452D01*
X076722Y038852D01*
X076722Y038900D02*
X075574Y038900D01*
X075622Y038949D02*
X076722Y038949D01*
X076722Y038997D02*
X075675Y038997D01*
X075737Y039046D02*
X076722Y039046D01*
X076722Y039094D02*
X075799Y039094D01*
X075867Y039143D02*
X076722Y039143D01*
X076722Y039191D02*
X075949Y039191D01*
X076030Y039240D02*
X076722Y039240D01*
X076722Y039288D02*
X076134Y039288D01*
X076245Y039337D02*
X076722Y039337D01*
X076722Y039385D02*
X076399Y039385D01*
X076617Y039434D02*
X076722Y039434D01*
X077122Y039434D02*
X077226Y039434D01*
X077122Y039452D02*
X077355Y039412D01*
X077581Y039345D01*
X077797Y039250D01*
X078000Y039129D01*
X078186Y038983D01*
X078354Y038816D01*
X078499Y038630D01*
X078620Y038427D01*
X078715Y038211D01*
X078782Y037985D01*
X078822Y037752D01*
X078222Y037752D01*
X078181Y037932D01*
X078115Y038105D01*
X078026Y038266D01*
X077915Y038414D01*
X077784Y038545D01*
X077636Y038656D01*
X077475Y038745D01*
X077302Y038811D01*
X077122Y038852D01*
X078318Y038852D01*
X078364Y038803D02*
X077321Y038803D01*
X077448Y038755D02*
X078401Y038755D01*
X078439Y038706D02*
X077544Y038706D01*
X077632Y038658D02*
X078477Y038658D01*
X078511Y038609D02*
X077698Y038609D01*
X077762Y038561D02*
X078540Y038561D01*
X078569Y038512D02*
X077816Y038512D01*
X077865Y038464D02*
X078598Y038464D01*
X078625Y038415D02*
X077913Y038415D01*
X077950Y038367D02*
X078646Y038367D01*
X078667Y038318D02*
X077987Y038318D01*
X078023Y038270D02*
X078689Y038270D01*
X078710Y038221D02*
X078051Y038221D01*
X078077Y038173D02*
X078726Y038173D01*
X078741Y038124D02*
X078104Y038124D01*
X078126Y038076D02*
X078755Y038076D01*
X078770Y038027D02*
X078144Y038027D01*
X078163Y037979D02*
X078783Y037979D01*
X078792Y037930D02*
X078181Y037930D01*
X078192Y037882D02*
X078800Y037882D01*
X078808Y037833D02*
X078203Y037833D01*
X078214Y037785D02*
X078816Y037785D01*
X078822Y037352D02*
X078782Y037119D01*
X078715Y036892D01*
X078620Y036676D01*
X078499Y036473D01*
X078354Y036287D01*
X078186Y036120D01*
X078000Y035975D01*
X077797Y035854D01*
X077581Y035758D01*
X077355Y035691D01*
X077122Y035652D01*
X077122Y036252D01*
X077302Y036292D01*
X077475Y036358D01*
X077636Y036447D01*
X077784Y036558D01*
X077915Y036689D01*
X078026Y036837D01*
X078115Y036999D01*
X078181Y037171D01*
X078222Y037352D01*
X078822Y037352D01*
X078821Y037348D02*
X078221Y037348D01*
X078210Y037300D02*
X078813Y037300D01*
X078805Y037251D02*
X078199Y037251D01*
X078188Y037203D02*
X078797Y037203D01*
X078788Y037154D02*
X078174Y037154D01*
X078156Y037106D02*
X078779Y037106D01*
X078764Y037057D02*
X078137Y037057D01*
X078119Y037009D02*
X078750Y037009D01*
X078735Y036960D02*
X078094Y036960D01*
X078067Y036912D02*
X078721Y036912D01*
X078702Y036863D02*
X078041Y036863D01*
X078009Y036815D02*
X078681Y036815D01*
X078659Y036766D02*
X077973Y036766D01*
X077936Y036718D02*
X078638Y036718D01*
X078616Y036669D02*
X077895Y036669D01*
X077847Y036621D02*
X078587Y036621D01*
X078558Y036572D02*
X077798Y036572D01*
X077738Y036524D02*
X078529Y036524D01*
X078500Y036475D02*
X077674Y036475D01*
X077599Y036427D02*
X078463Y036427D01*
X078425Y036378D02*
X077511Y036378D01*
X077401Y036330D02*
X078387Y036330D01*
X078348Y036281D02*
X077254Y036281D01*
X077122Y036233D02*
X078300Y036233D01*
X078251Y036184D02*
X077122Y036184D01*
X077122Y036136D02*
X078203Y036136D01*
X078145Y036087D02*
X077122Y036087D01*
X077122Y036039D02*
X078083Y036039D01*
X078021Y035990D02*
X077122Y035990D01*
X077122Y035942D02*
X077945Y035942D01*
X077864Y035893D02*
X077122Y035893D01*
X077122Y035845D02*
X077778Y035845D01*
X077667Y035796D02*
X077122Y035796D01*
X077122Y035748D02*
X077546Y035748D01*
X077384Y035699D02*
X077122Y035699D01*
X076722Y035699D02*
X076460Y035699D01*
X076489Y035691D02*
X076262Y035758D01*
X076046Y035854D01*
X075843Y035975D01*
X075657Y036120D01*
X075490Y036287D01*
X075345Y036473D01*
X075224Y036676D01*
X075129Y036892D01*
X075061Y037119D01*
X075022Y037352D01*
X075622Y037352D01*
X075663Y037171D01*
X075728Y036999D01*
X075817Y036837D01*
X075929Y036689D01*
X076059Y036558D01*
X076207Y036447D01*
X076369Y036358D01*
X076541Y036292D01*
X076722Y036252D01*
X076722Y035652D01*
X076489Y035691D01*
X076297Y035748D02*
X076722Y035748D01*
X076722Y035796D02*
X076176Y035796D01*
X076066Y035845D02*
X076722Y035845D01*
X076722Y035893D02*
X075979Y035893D01*
X075898Y035942D02*
X076722Y035942D01*
X076722Y035990D02*
X075823Y035990D01*
X075761Y036039D02*
X076722Y036039D01*
X076722Y036087D02*
X075698Y036087D01*
X075641Y036136D02*
X076722Y036136D01*
X076722Y036184D02*
X075592Y036184D01*
X075544Y036233D02*
X076722Y036233D01*
X076590Y036281D02*
X075495Y036281D01*
X075456Y036330D02*
X076443Y036330D01*
X076332Y036378D02*
X075418Y036378D01*
X075381Y036427D02*
X076244Y036427D01*
X076170Y036475D02*
X075343Y036475D01*
X075314Y036524D02*
X076105Y036524D01*
X076045Y036572D02*
X075285Y036572D01*
X075256Y036621D02*
X075997Y036621D01*
X075948Y036669D02*
X075227Y036669D01*
X075205Y036718D02*
X075907Y036718D01*
X075870Y036766D02*
X075184Y036766D01*
X075163Y036815D02*
X075834Y036815D01*
X075803Y036863D02*
X075141Y036863D01*
X075123Y036912D02*
X075776Y036912D01*
X075749Y036960D02*
X075108Y036960D01*
X075094Y037009D02*
X075724Y037009D01*
X075706Y037057D02*
X075079Y037057D01*
X075065Y037106D02*
X075687Y037106D01*
X075669Y037154D02*
X075055Y037154D01*
X075047Y037203D02*
X075655Y037203D01*
X075644Y037251D02*
X075039Y037251D01*
X075030Y037300D02*
X075633Y037300D01*
X075622Y037348D02*
X075022Y037348D01*
X075027Y037785D02*
X075629Y037785D01*
X075640Y037833D02*
X075035Y037833D01*
X075044Y037882D02*
X075651Y037882D01*
X075662Y037930D02*
X075052Y037930D01*
X075060Y037979D02*
X075680Y037979D01*
X075699Y038027D02*
X075074Y038027D01*
X075088Y038076D02*
X075717Y038076D01*
X075739Y038124D02*
X075103Y038124D01*
X075117Y038173D02*
X075766Y038173D01*
X075793Y038221D02*
X075133Y038221D01*
X075155Y038270D02*
X075820Y038270D01*
X075857Y038318D02*
X075176Y038318D01*
X075197Y038367D02*
X075893Y038367D01*
X075930Y038415D02*
X075218Y038415D01*
X075224Y038427D02*
X075345Y038630D01*
X075490Y038816D01*
X075480Y038803D02*
X076522Y038803D01*
X076395Y038755D02*
X075442Y038755D01*
X075404Y038706D02*
X076299Y038706D01*
X076211Y038658D02*
X075366Y038658D01*
X075332Y038609D02*
X076145Y038609D01*
X076081Y038561D02*
X075303Y038561D01*
X075275Y038512D02*
X076027Y038512D01*
X075979Y038464D02*
X075246Y038464D01*
X077122Y038852D02*
X077122Y039452D01*
X077122Y039385D02*
X077445Y039385D01*
X077598Y039337D02*
X077122Y039337D01*
X077122Y039288D02*
X077709Y039288D01*
X077813Y039240D02*
X077122Y039240D01*
X077122Y039191D02*
X077895Y039191D01*
X077976Y039143D02*
X077122Y039143D01*
X077122Y039094D02*
X078044Y039094D01*
X078106Y039046D02*
X077122Y039046D01*
X077122Y038997D02*
X078168Y038997D01*
X078221Y038949D02*
X077122Y038949D01*
X077122Y038900D02*
X078269Y038900D01*
X095731Y075224D02*
X095528Y075345D01*
X095342Y075490D01*
X095175Y075657D01*
X095030Y075843D01*
X094909Y076046D01*
X094814Y076262D01*
X094746Y076489D01*
X094707Y076722D01*
X095307Y076722D01*
X095348Y076541D01*
X095413Y076369D01*
X095503Y076207D01*
X095614Y076059D01*
X095744Y075929D01*
X095892Y075817D01*
X096054Y075728D01*
X096226Y075663D01*
X096407Y075622D01*
X096407Y075022D01*
X096174Y075061D01*
X095947Y075129D01*
X095731Y075224D01*
X095725Y075227D02*
X096407Y075227D01*
X096407Y075179D02*
X095833Y075179D01*
X095944Y075130D02*
X096407Y075130D01*
X096407Y075082D02*
X096104Y075082D01*
X096338Y075033D02*
X096407Y075033D01*
X096407Y075276D02*
X095644Y075276D01*
X095563Y075324D02*
X096407Y075324D01*
X096407Y075373D02*
X095492Y075373D01*
X095430Y075421D02*
X096407Y075421D01*
X096407Y075470D02*
X095368Y075470D01*
X095313Y075518D02*
X096407Y075518D01*
X096407Y075567D02*
X095265Y075567D01*
X095216Y075615D02*
X096407Y075615D01*
X096223Y075664D02*
X095170Y075664D01*
X095132Y075712D02*
X096096Y075712D01*
X095995Y075761D02*
X095094Y075761D01*
X095056Y075809D02*
X095907Y075809D01*
X095839Y075858D02*
X095021Y075858D01*
X094992Y075906D02*
X095774Y075906D01*
X095718Y075955D02*
X094963Y075955D01*
X094934Y076003D02*
X095670Y076003D01*
X095621Y076052D02*
X094906Y076052D01*
X094885Y076100D02*
X095583Y076100D01*
X095546Y076149D02*
X094864Y076149D01*
X094842Y076197D02*
X095510Y076197D01*
X095481Y076246D02*
X094821Y076246D01*
X094804Y076294D02*
X095454Y076294D01*
X095428Y076343D02*
X094790Y076343D01*
X094775Y076391D02*
X095405Y076391D01*
X095386Y076440D02*
X094761Y076440D01*
X094746Y076488D02*
X095368Y076488D01*
X095349Y076537D02*
X094738Y076537D01*
X094730Y076585D02*
X095338Y076585D01*
X095327Y076634D02*
X094721Y076634D01*
X094713Y076682D02*
X095316Y076682D01*
X095307Y077122D02*
X094707Y077122D01*
X094746Y077355D01*
X094814Y077581D01*
X094909Y077797D01*
X095030Y078000D01*
X095175Y078186D01*
X095342Y078354D01*
X095528Y078499D01*
X095731Y078620D01*
X095947Y078715D01*
X096174Y078782D01*
X096407Y078822D01*
X096407Y078222D01*
X096226Y078181D01*
X096054Y078115D01*
X095892Y078026D01*
X095744Y077915D01*
X095614Y077784D01*
X095503Y077636D01*
X095413Y077475D01*
X095348Y077302D01*
X095307Y077122D01*
X095317Y077167D02*
X094714Y077167D01*
X094723Y077216D02*
X095328Y077216D01*
X095339Y077264D02*
X094731Y077264D01*
X094739Y077313D02*
X095352Y077313D01*
X095370Y077361D02*
X094748Y077361D01*
X094762Y077410D02*
X095389Y077410D01*
X095407Y077458D02*
X094777Y077458D01*
X094791Y077507D02*
X095431Y077507D01*
X095458Y077555D02*
X094806Y077555D01*
X094824Y077604D02*
X095484Y077604D01*
X095514Y077652D02*
X094845Y077652D01*
X094866Y077701D02*
X095551Y077701D01*
X095587Y077749D02*
X094888Y077749D01*
X094909Y077798D02*
X095627Y077798D01*
X095676Y077846D02*
X094938Y077846D01*
X094967Y077895D02*
X095724Y077895D01*
X095782Y077943D02*
X094996Y077943D01*
X095025Y077992D02*
X095847Y077992D01*
X095918Y078040D02*
X095061Y078040D01*
X095099Y078089D02*
X096006Y078089D01*
X096112Y078137D02*
X095136Y078137D01*
X095174Y078186D02*
X096248Y078186D01*
X096407Y078234D02*
X095223Y078234D01*
X095271Y078283D02*
X096407Y078283D01*
X096407Y078331D02*
X095320Y078331D01*
X095375Y078380D02*
X096407Y078380D01*
X096407Y078428D02*
X095438Y078428D01*
X095500Y078477D02*
X096407Y078477D01*
X096407Y078525D02*
X095573Y078525D01*
X095654Y078574D02*
X096407Y078574D01*
X096407Y078622D02*
X095737Y078622D01*
X095847Y078671D02*
X096407Y078671D01*
X096407Y078719D02*
X095962Y078719D01*
X096124Y078768D02*
X096407Y078768D01*
X096407Y078816D02*
X096374Y078816D01*
X096807Y078816D02*
X096839Y078816D01*
X096807Y078822D02*
X097040Y078782D01*
X097266Y078715D01*
X097482Y078620D01*
X097685Y078499D01*
X097872Y078354D01*
X098039Y078186D01*
X096965Y078186D01*
X096987Y078181D02*
X096807Y078222D01*
X096807Y078822D01*
X096807Y078768D02*
X097089Y078768D01*
X097251Y078719D02*
X096807Y078719D01*
X096807Y078671D02*
X097366Y078671D01*
X097477Y078622D02*
X096807Y078622D01*
X096807Y078574D02*
X097559Y078574D01*
X097641Y078525D02*
X096807Y078525D01*
X096807Y078477D02*
X097713Y078477D01*
X097776Y078428D02*
X096807Y078428D01*
X096807Y078380D02*
X097838Y078380D01*
X097894Y078331D02*
X096807Y078331D01*
X096807Y078283D02*
X097942Y078283D01*
X097991Y078234D02*
X096807Y078234D01*
X096987Y078181D02*
X097160Y078115D01*
X097321Y078026D01*
X097469Y077915D01*
X097600Y077784D01*
X097711Y077636D01*
X097800Y077475D01*
X097866Y077302D01*
X097907Y077122D01*
X098507Y077122D01*
X098467Y077355D01*
X098400Y077581D01*
X098305Y077797D01*
X098184Y078000D01*
X098039Y078186D01*
X098077Y078137D02*
X097102Y078137D01*
X097207Y078089D02*
X098115Y078089D01*
X098152Y078040D02*
X097295Y078040D01*
X097367Y077992D02*
X098189Y077992D01*
X098218Y077943D02*
X097431Y077943D01*
X097489Y077895D02*
X098247Y077895D01*
X098276Y077846D02*
X097538Y077846D01*
X097586Y077798D02*
X098304Y077798D01*
X098326Y077749D02*
X097626Y077749D01*
X097662Y077701D02*
X098347Y077701D01*
X098369Y077652D02*
X097699Y077652D01*
X097729Y077604D02*
X098390Y077604D01*
X098408Y077555D02*
X097756Y077555D01*
X097782Y077507D02*
X098422Y077507D01*
X098437Y077458D02*
X097806Y077458D01*
X097825Y077410D02*
X098451Y077410D01*
X098466Y077361D02*
X097843Y077361D01*
X097862Y077313D02*
X098475Y077313D01*
X098483Y077264D02*
X097874Y077264D01*
X097885Y077216D02*
X098491Y077216D01*
X098499Y077167D02*
X097896Y077167D01*
X097907Y076722D02*
X098507Y076722D01*
X098467Y076489D01*
X098400Y076262D01*
X098305Y076046D01*
X098184Y075843D01*
X098039Y075657D01*
X097872Y075490D01*
X097685Y075345D01*
X097482Y075224D01*
X097266Y075129D01*
X097040Y075061D01*
X096807Y075022D01*
X096807Y075622D01*
X096987Y075663D01*
X097160Y075728D01*
X097321Y075817D01*
X097469Y075929D01*
X097600Y076059D01*
X097711Y076207D01*
X097800Y076369D01*
X097866Y076541D01*
X097907Y076722D01*
X097898Y076682D02*
X098500Y076682D01*
X098492Y076634D02*
X097887Y076634D01*
X097876Y076585D02*
X098484Y076585D01*
X098476Y076537D02*
X097864Y076537D01*
X097846Y076488D02*
X098467Y076488D01*
X098453Y076440D02*
X097827Y076440D01*
X097809Y076391D02*
X098438Y076391D01*
X098424Y076343D02*
X097786Y076343D01*
X097759Y076294D02*
X098409Y076294D01*
X098392Y076246D02*
X097732Y076246D01*
X097704Y076197D02*
X098371Y076197D01*
X098350Y076149D02*
X097667Y076149D01*
X097631Y076100D02*
X098329Y076100D01*
X098307Y076052D02*
X097592Y076052D01*
X097544Y076003D02*
X098279Y076003D01*
X098250Y075955D02*
X097495Y075955D01*
X097439Y075906D02*
X098221Y075906D01*
X098192Y075858D02*
X097375Y075858D01*
X097306Y075809D02*
X098157Y075809D01*
X098119Y075761D02*
X097218Y075761D01*
X097117Y075712D02*
X098082Y075712D01*
X098044Y075664D02*
X096990Y075664D01*
X096807Y075615D02*
X097997Y075615D01*
X097948Y075567D02*
X096807Y075567D01*
X096807Y075518D02*
X097900Y075518D01*
X097846Y075470D02*
X096807Y075470D01*
X096807Y075421D02*
X097783Y075421D01*
X097721Y075373D02*
X096807Y075373D01*
X096807Y075324D02*
X097651Y075324D01*
X097570Y075276D02*
X096807Y075276D01*
X096807Y075227D02*
X097488Y075227D01*
X097380Y075179D02*
X096807Y075179D01*
X096807Y075130D02*
X097270Y075130D01*
X097109Y075082D02*
X096807Y075082D01*
X096807Y075033D02*
X096875Y075033D01*
X058935Y095731D02*
X059030Y095947D01*
X059097Y096174D01*
X059137Y096407D01*
X058537Y096407D01*
X058496Y096226D01*
X058430Y096054D01*
X058341Y095892D01*
X058230Y095744D01*
X058099Y095614D01*
X057951Y095503D01*
X057790Y095413D01*
X057617Y095348D01*
X057437Y095307D01*
X057437Y094707D01*
X057670Y094746D01*
X057896Y094814D01*
X058112Y094909D01*
X058315Y095030D01*
X058501Y095175D01*
X058668Y095342D01*
X058814Y095528D01*
X058935Y095731D01*
X058940Y095743D02*
X058228Y095743D01*
X058265Y095791D02*
X058961Y095791D01*
X058982Y095840D02*
X058302Y095840D01*
X058338Y095888D02*
X059004Y095888D01*
X059025Y095937D02*
X058365Y095937D01*
X058392Y095985D02*
X059041Y095985D01*
X059056Y096034D02*
X058419Y096034D01*
X058441Y096082D02*
X059070Y096082D01*
X059085Y096131D02*
X058459Y096131D01*
X058478Y096179D02*
X059098Y096179D01*
X059107Y096228D02*
X058496Y096228D01*
X058507Y096276D02*
X059115Y096276D01*
X059123Y096325D02*
X058518Y096325D01*
X058529Y096373D02*
X059131Y096373D01*
X059137Y096807D02*
X059097Y097040D01*
X059030Y097266D01*
X058935Y097482D01*
X058814Y097685D01*
X058668Y097872D01*
X058501Y098039D01*
X058315Y098184D01*
X058112Y098305D01*
X057896Y098400D01*
X057670Y098467D01*
X057437Y098507D01*
X057437Y097907D01*
X057617Y097866D01*
X057790Y097800D01*
X057951Y097711D01*
X058099Y097600D01*
X058230Y097469D01*
X058341Y097321D01*
X058430Y097160D01*
X058496Y096987D01*
X058537Y096807D01*
X059137Y096807D01*
X059136Y096810D02*
X058536Y096810D01*
X058525Y096858D02*
X059128Y096858D01*
X059120Y096907D02*
X058514Y096907D01*
X058503Y096955D02*
X059112Y096955D01*
X059103Y097004D02*
X058489Y097004D01*
X058471Y097052D02*
X059094Y097052D01*
X059079Y097101D02*
X058452Y097101D01*
X058434Y097149D02*
X059065Y097149D01*
X059050Y097198D02*
X058409Y097198D01*
X058382Y097246D02*
X059036Y097246D01*
X059017Y097295D02*
X058355Y097295D01*
X058324Y097343D02*
X058996Y097343D01*
X058974Y097392D02*
X058288Y097392D01*
X058251Y097440D02*
X058953Y097440D01*
X058931Y097489D02*
X058210Y097489D01*
X058162Y097537D02*
X058902Y097537D01*
X058873Y097586D02*
X058113Y097586D01*
X058053Y097634D02*
X058844Y097634D01*
X058815Y097683D02*
X057989Y097683D01*
X057914Y097731D02*
X058778Y097731D01*
X058740Y097780D02*
X057826Y097780D01*
X057716Y097828D02*
X058702Y097828D01*
X058663Y097877D02*
X057569Y097877D01*
X057437Y097925D02*
X058615Y097925D01*
X058566Y097974D02*
X057437Y097974D01*
X057437Y098022D02*
X058518Y098022D01*
X058460Y098071D02*
X057437Y098071D01*
X057437Y098119D02*
X058398Y098119D01*
X058335Y098168D02*
X057437Y098168D01*
X057437Y098216D02*
X058260Y098216D01*
X058179Y098265D02*
X057437Y098265D01*
X057437Y098313D02*
X058093Y098313D01*
X057982Y098362D02*
X057437Y098362D01*
X057437Y098410D02*
X057861Y098410D01*
X057699Y098459D02*
X057437Y098459D01*
X057037Y098459D02*
X056775Y098459D01*
X056804Y098467D02*
X057037Y098507D01*
X057037Y097907D01*
X056856Y097866D01*
X056684Y097800D01*
X056522Y097711D01*
X056374Y097600D01*
X056244Y097469D01*
X056132Y097321D01*
X056043Y097160D01*
X055977Y096987D01*
X055937Y096807D01*
X055337Y096807D01*
X055376Y097040D01*
X055443Y097266D01*
X055539Y097482D01*
X055660Y097685D01*
X055805Y097872D01*
X055972Y098039D01*
X056158Y098184D01*
X056361Y098305D01*
X056577Y098400D01*
X056804Y098467D01*
X056612Y098410D02*
X057037Y098410D01*
X057037Y098362D02*
X056491Y098362D01*
X056380Y098313D02*
X057037Y098313D01*
X057037Y098265D02*
X056294Y098265D01*
X056213Y098216D02*
X057037Y098216D01*
X057037Y098168D02*
X056138Y098168D01*
X056075Y098119D02*
X057037Y098119D01*
X057037Y098071D02*
X056013Y098071D01*
X055956Y098022D02*
X057037Y098022D01*
X057037Y097974D02*
X055907Y097974D01*
X055859Y097925D02*
X057037Y097925D01*
X056905Y097877D02*
X055810Y097877D01*
X055771Y097828D02*
X056758Y097828D01*
X056647Y097780D02*
X055733Y097780D01*
X055696Y097731D02*
X056559Y097731D01*
X056485Y097683D02*
X055658Y097683D01*
X055629Y097634D02*
X056420Y097634D01*
X056360Y097586D02*
X055600Y097586D01*
X055571Y097537D02*
X056312Y097537D01*
X056263Y097489D02*
X055542Y097489D01*
X055520Y097440D02*
X056222Y097440D01*
X056185Y097392D02*
X055499Y097392D01*
X055477Y097343D02*
X056149Y097343D01*
X056118Y097295D02*
X055456Y097295D01*
X055438Y097246D02*
X056091Y097246D01*
X056064Y097198D02*
X055423Y097198D01*
X055409Y097149D02*
X056039Y097149D01*
X056021Y097101D02*
X055394Y097101D01*
X055380Y097052D02*
X056002Y097052D01*
X055984Y097004D02*
X055370Y097004D01*
X055362Y096955D02*
X055970Y096955D01*
X055959Y096907D02*
X055353Y096907D01*
X055345Y096858D02*
X055948Y096858D01*
X055937Y096810D02*
X055337Y096810D01*
X055337Y096407D02*
X055376Y096174D01*
X055443Y095947D01*
X055539Y095731D01*
X055660Y095528D01*
X055805Y095342D01*
X055972Y095175D01*
X056158Y095030D01*
X056361Y094909D01*
X056577Y094814D01*
X056804Y094746D01*
X057037Y094707D01*
X057037Y095307D01*
X056856Y095348D01*
X056684Y095413D01*
X056522Y095503D01*
X056374Y095614D01*
X056244Y095744D01*
X056132Y095892D01*
X056043Y096054D01*
X055977Y096226D01*
X055937Y096407D01*
X055337Y096407D01*
X055342Y096373D02*
X055944Y096373D01*
X055955Y096325D02*
X055350Y096325D01*
X055359Y096276D02*
X055966Y096276D01*
X055977Y096228D02*
X055367Y096228D01*
X055375Y096179D02*
X055995Y096179D01*
X056014Y096131D02*
X055389Y096131D01*
X055403Y096082D02*
X056032Y096082D01*
X056054Y096034D02*
X055418Y096034D01*
X055432Y095985D02*
X056081Y095985D01*
X056108Y095937D02*
X055448Y095937D01*
X055469Y095888D02*
X056135Y095888D01*
X056172Y095840D02*
X055491Y095840D01*
X055512Y095791D02*
X056208Y095791D01*
X056245Y095743D02*
X055533Y095743D01*
X055561Y095694D02*
X056294Y095694D01*
X056342Y095646D02*
X055589Y095646D01*
X055618Y095597D02*
X056396Y095597D01*
X056460Y095549D02*
X055647Y095549D01*
X055681Y095500D02*
X056526Y095500D01*
X056614Y095452D02*
X055719Y095452D01*
X055757Y095403D02*
X056710Y095403D01*
X056837Y095355D02*
X055795Y095355D01*
X055840Y095306D02*
X057037Y095306D01*
X057037Y095258D02*
X055889Y095258D01*
X055937Y095209D02*
X057037Y095209D01*
X057037Y095161D02*
X055990Y095161D01*
X056052Y095112D02*
X057037Y095112D01*
X057037Y095064D02*
X056114Y095064D01*
X056182Y095015D02*
X057037Y095015D01*
X057037Y094967D02*
X056264Y094967D01*
X056345Y094918D02*
X057037Y094918D01*
X057037Y094870D02*
X056449Y094870D01*
X056560Y094821D02*
X057037Y094821D01*
X057037Y094773D02*
X056714Y094773D01*
X056932Y094724D02*
X057037Y094724D01*
X057437Y094724D02*
X057541Y094724D01*
X057437Y094773D02*
X057759Y094773D01*
X057913Y094821D02*
X057437Y094821D01*
X057437Y094870D02*
X058024Y094870D01*
X058128Y094918D02*
X057437Y094918D01*
X057437Y094967D02*
X058210Y094967D01*
X058291Y095015D02*
X057437Y095015D01*
X057437Y095064D02*
X058359Y095064D01*
X058421Y095112D02*
X057437Y095112D01*
X057437Y095161D02*
X058483Y095161D01*
X058536Y095209D02*
X057437Y095209D01*
X057437Y095258D02*
X058584Y095258D01*
X058633Y095306D02*
X057437Y095306D01*
X057636Y095355D02*
X058679Y095355D01*
X058716Y095403D02*
X057763Y095403D01*
X057859Y095452D02*
X058754Y095452D01*
X058792Y095500D02*
X057947Y095500D01*
X058013Y095549D02*
X058826Y095549D01*
X058855Y095597D02*
X058077Y095597D01*
X058131Y095646D02*
X058884Y095646D01*
X058913Y095694D02*
X058180Y095694D01*
X019565Y115416D02*
X019444Y115213D01*
X019298Y115027D01*
X019131Y114860D01*
X018945Y114715D01*
X018742Y114594D01*
X018526Y114499D01*
X018299Y114431D01*
X018067Y114392D01*
X018067Y114992D01*
X018247Y115033D01*
X018419Y115098D01*
X018581Y115188D01*
X018729Y115299D01*
X018860Y115429D01*
X018971Y115577D01*
X019060Y115739D01*
X019126Y115912D01*
X019167Y116092D01*
X019767Y116092D01*
X019727Y115859D01*
X019660Y115632D01*
X019565Y115416D01*
X019572Y115434D02*
X018863Y115434D01*
X018900Y115482D02*
X019594Y115482D01*
X019615Y115531D02*
X018936Y115531D01*
X018972Y115579D02*
X019636Y115579D01*
X019658Y115628D02*
X018999Y115628D01*
X019026Y115676D02*
X019673Y115676D01*
X019687Y115725D02*
X019052Y115725D01*
X019073Y115773D02*
X019702Y115773D01*
X019716Y115822D02*
X019092Y115822D01*
X019110Y115870D02*
X019729Y115870D01*
X019737Y115919D02*
X019127Y115919D01*
X019138Y115967D02*
X019746Y115967D01*
X019754Y116016D02*
X019149Y116016D01*
X019160Y116064D02*
X019762Y116064D01*
X019767Y116492D02*
X019727Y116725D01*
X019660Y116951D01*
X019565Y117167D01*
X019444Y117370D01*
X019298Y117557D01*
X019131Y117724D01*
X018945Y117869D01*
X018742Y117990D01*
X018526Y118085D01*
X018299Y118153D01*
X018067Y118192D01*
X018067Y117592D01*
X018247Y117551D01*
X018419Y117485D01*
X018581Y117396D01*
X018729Y117285D01*
X018860Y117154D01*
X018971Y117006D01*
X019060Y116845D01*
X019126Y116672D01*
X019167Y116492D01*
X019767Y116492D01*
X019765Y116501D02*
X019164Y116501D01*
X019153Y116549D02*
X019757Y116549D01*
X019749Y116598D02*
X019142Y116598D01*
X019131Y116646D02*
X019741Y116646D01*
X019732Y116695D02*
X019117Y116695D01*
X019098Y116743D02*
X019722Y116743D01*
X019707Y116792D02*
X019080Y116792D01*
X019062Y116840D02*
X019693Y116840D01*
X019678Y116889D02*
X019036Y116889D01*
X019009Y116937D02*
X019664Y116937D01*
X019644Y116986D02*
X018982Y116986D01*
X018950Y117034D02*
X019623Y117034D01*
X019602Y117083D02*
X018913Y117083D01*
X018877Y117131D02*
X019580Y117131D01*
X019557Y117180D02*
X018834Y117180D01*
X018785Y117228D02*
X019528Y117228D01*
X019499Y117277D02*
X018737Y117277D01*
X018675Y117325D02*
X019470Y117325D01*
X019441Y117374D02*
X018611Y117374D01*
X018533Y117422D02*
X019403Y117422D01*
X019365Y117471D02*
X018445Y117471D01*
X018329Y117519D02*
X019327Y117519D01*
X019287Y117568D02*
X018172Y117568D01*
X018067Y117616D02*
X019239Y117616D01*
X019190Y117665D02*
X018067Y117665D01*
X018067Y117713D02*
X019142Y117713D01*
X019082Y117762D02*
X018067Y117762D01*
X018067Y117810D02*
X019020Y117810D01*
X018958Y117859D02*
X018067Y117859D01*
X018067Y117907D02*
X018880Y117907D01*
X018799Y117956D02*
X018067Y117956D01*
X018067Y118004D02*
X018709Y118004D01*
X018599Y118053D02*
X018067Y118053D01*
X018067Y118101D02*
X018471Y118101D01*
X018308Y118150D02*
X018067Y118150D01*
X017667Y118150D02*
X017425Y118150D01*
X017434Y118153D02*
X017667Y118192D01*
X017667Y117592D01*
X017486Y117551D01*
X017314Y117485D01*
X017152Y117396D01*
X017004Y117285D01*
X016873Y117154D01*
X016762Y117006D01*
X016673Y116845D01*
X016607Y116672D01*
X016567Y116492D01*
X015967Y116492D01*
X016006Y116725D01*
X016073Y116951D01*
X016168Y117167D01*
X016290Y117370D01*
X016435Y117557D01*
X016602Y117724D01*
X016788Y117869D01*
X016991Y117990D01*
X017207Y118085D01*
X017434Y118153D01*
X017263Y118101D02*
X017667Y118101D01*
X017667Y118053D02*
X017135Y118053D01*
X017024Y118004D02*
X017667Y118004D01*
X017667Y117956D02*
X016934Y117956D01*
X016853Y117907D02*
X017667Y117907D01*
X017667Y117859D02*
X016775Y117859D01*
X016713Y117810D02*
X017667Y117810D01*
X017667Y117762D02*
X016651Y117762D01*
X016592Y117713D02*
X017667Y117713D01*
X017667Y117665D02*
X016543Y117665D01*
X016495Y117616D02*
X017667Y117616D01*
X017561Y117568D02*
X016446Y117568D01*
X016406Y117519D02*
X017404Y117519D01*
X017288Y117471D02*
X016368Y117471D01*
X016330Y117422D02*
X017200Y117422D01*
X017123Y117374D02*
X016292Y117374D01*
X016263Y117325D02*
X017058Y117325D01*
X016996Y117277D02*
X016234Y117277D01*
X016205Y117228D02*
X016948Y117228D01*
X016899Y117180D02*
X016176Y117180D01*
X016153Y117131D02*
X016856Y117131D01*
X016820Y117083D02*
X016131Y117083D01*
X016110Y117034D02*
X016783Y117034D01*
X016751Y116986D02*
X016089Y116986D01*
X016069Y116937D02*
X016724Y116937D01*
X016698Y116889D02*
X016055Y116889D01*
X016040Y116840D02*
X016671Y116840D01*
X016653Y116792D02*
X016026Y116792D01*
X016011Y116743D02*
X016635Y116743D01*
X016616Y116695D02*
X016001Y116695D01*
X015993Y116646D02*
X016602Y116646D01*
X016591Y116598D02*
X015984Y116598D01*
X015976Y116549D02*
X016580Y116549D01*
X016569Y116501D02*
X015968Y116501D01*
X015967Y116092D02*
X016006Y115859D01*
X016073Y115632D01*
X016168Y115416D01*
X016290Y115213D01*
X016435Y115027D01*
X016602Y114860D01*
X016788Y114715D01*
X016991Y114594D01*
X017207Y114499D01*
X017434Y114431D01*
X017667Y114392D01*
X017667Y114992D01*
X017486Y115033D01*
X017314Y115098D01*
X017152Y115188D01*
X017004Y115299D01*
X016873Y115429D01*
X016762Y115577D01*
X016673Y115739D01*
X016607Y115912D01*
X016567Y116092D01*
X015967Y116092D01*
X015971Y116064D02*
X016573Y116064D01*
X016584Y116016D02*
X015979Y116016D01*
X015987Y115967D02*
X016595Y115967D01*
X016606Y115919D02*
X015996Y115919D01*
X016004Y115870D02*
X016623Y115870D01*
X016641Y115822D02*
X016017Y115822D01*
X016031Y115773D02*
X016660Y115773D01*
X016681Y115725D02*
X016046Y115725D01*
X016060Y115676D02*
X016708Y115676D01*
X016734Y115628D02*
X016075Y115628D01*
X016097Y115579D02*
X016761Y115579D01*
X016797Y115531D02*
X016118Y115531D01*
X016139Y115482D02*
X016834Y115482D01*
X016870Y115434D02*
X016161Y115434D01*
X016187Y115385D02*
X016917Y115385D01*
X016966Y115337D02*
X016216Y115337D01*
X016245Y115288D02*
X017018Y115288D01*
X017082Y115240D02*
X016274Y115240D01*
X016307Y115191D02*
X017147Y115191D01*
X017233Y115143D02*
X016344Y115143D01*
X016382Y115094D02*
X017324Y115094D01*
X017451Y115046D02*
X016420Y115046D01*
X016464Y114997D02*
X017642Y114997D01*
X017667Y114949D02*
X016513Y114949D01*
X016561Y114900D02*
X017667Y114900D01*
X017667Y114852D02*
X016612Y114852D01*
X016674Y114803D02*
X017667Y114803D01*
X017667Y114755D02*
X016737Y114755D01*
X016802Y114706D02*
X017667Y114706D01*
X017667Y114658D02*
X016883Y114658D01*
X016965Y114609D02*
X017667Y114609D01*
X017667Y114561D02*
X017066Y114561D01*
X017176Y114512D02*
X017667Y114512D01*
X017667Y114464D02*
X017323Y114464D01*
X017526Y114415D02*
X017667Y114415D01*
X018067Y114415D02*
X018207Y114415D01*
X018067Y114464D02*
X018410Y114464D01*
X018557Y114512D02*
X018067Y114512D01*
X018067Y114561D02*
X018667Y114561D01*
X018768Y114609D02*
X018067Y114609D01*
X018067Y114658D02*
X018850Y114658D01*
X018931Y114706D02*
X018067Y114706D01*
X018067Y114755D02*
X018997Y114755D01*
X019059Y114803D02*
X018067Y114803D01*
X018067Y114852D02*
X019121Y114852D01*
X019172Y114900D02*
X018067Y114900D01*
X018067Y114949D02*
X019220Y114949D01*
X019269Y114997D02*
X018091Y114997D01*
X018282Y115046D02*
X019313Y115046D01*
X019351Y115094D02*
X018409Y115094D01*
X018500Y115143D02*
X019389Y115143D01*
X019426Y115191D02*
X018586Y115191D01*
X018651Y115240D02*
X019459Y115240D01*
X019488Y115288D02*
X018715Y115288D01*
X018767Y115337D02*
X019517Y115337D01*
X019546Y115385D02*
X018816Y115385D01*
X114392Y116092D02*
X114431Y115859D01*
X114499Y115632D01*
X114594Y115416D01*
X114715Y115213D01*
X114860Y115027D01*
X115027Y114860D01*
X115213Y114715D01*
X115416Y114594D01*
X115632Y114499D01*
X115859Y114431D01*
X116092Y114392D01*
X116092Y114992D01*
X115912Y115033D01*
X115739Y115098D01*
X115577Y115188D01*
X115429Y115299D01*
X115299Y115429D01*
X115188Y115577D01*
X115098Y115739D01*
X115033Y115912D01*
X114992Y116092D01*
X114392Y116092D01*
X114396Y116064D02*
X114998Y116064D01*
X115009Y116016D02*
X114404Y116016D01*
X114413Y115967D02*
X115020Y115967D01*
X115031Y115919D02*
X114421Y115919D01*
X114429Y115870D02*
X115048Y115870D01*
X115067Y115822D02*
X114442Y115822D01*
X114456Y115773D02*
X115085Y115773D01*
X115106Y115725D02*
X114471Y115725D01*
X114485Y115676D02*
X115133Y115676D01*
X115160Y115628D02*
X114501Y115628D01*
X114522Y115579D02*
X115186Y115579D01*
X115222Y115531D02*
X114543Y115531D01*
X114565Y115482D02*
X115259Y115482D01*
X115295Y115434D02*
X114586Y115434D01*
X114612Y115385D02*
X115343Y115385D01*
X115391Y115337D02*
X114641Y115337D01*
X114670Y115288D02*
X115443Y115288D01*
X115507Y115240D02*
X114699Y115240D01*
X114732Y115191D02*
X115572Y115191D01*
X115658Y115143D02*
X114770Y115143D01*
X114807Y115094D02*
X115749Y115094D01*
X115877Y115046D02*
X114845Y115046D01*
X114889Y114997D02*
X116067Y114997D01*
X116092Y114949D02*
X114938Y114949D01*
X114986Y114900D02*
X116092Y114900D01*
X116092Y114852D02*
X115037Y114852D01*
X115099Y114803D02*
X116092Y114803D01*
X116092Y114755D02*
X115162Y114755D01*
X115227Y114706D02*
X116092Y114706D01*
X116092Y114658D02*
X115309Y114658D01*
X115390Y114609D02*
X116092Y114609D01*
X116092Y114561D02*
X115491Y114561D01*
X115601Y114512D02*
X116092Y114512D01*
X116092Y114464D02*
X115749Y114464D01*
X115951Y114415D02*
X116092Y114415D01*
X116492Y114415D02*
X116632Y114415D01*
X116725Y114431D02*
X116492Y114392D01*
X116492Y114992D01*
X116672Y115033D01*
X116845Y115098D01*
X117006Y115188D01*
X117154Y115299D01*
X117285Y115429D01*
X117396Y115577D01*
X117485Y115739D01*
X117551Y115912D01*
X117592Y116092D01*
X118192Y116092D01*
X118153Y115859D01*
X118085Y115632D01*
X117990Y115416D01*
X117869Y115213D01*
X117724Y115027D01*
X117557Y114860D01*
X117370Y114715D01*
X117167Y114594D01*
X116951Y114499D01*
X116725Y114431D01*
X116835Y114464D02*
X116492Y114464D01*
X116492Y114512D02*
X116982Y114512D01*
X117093Y114561D02*
X116492Y114561D01*
X116492Y114609D02*
X117194Y114609D01*
X117275Y114658D02*
X116492Y114658D01*
X116492Y114706D02*
X117356Y114706D01*
X117422Y114755D02*
X116492Y114755D01*
X116492Y114803D02*
X117484Y114803D01*
X117546Y114852D02*
X116492Y114852D01*
X116492Y114900D02*
X117597Y114900D01*
X117646Y114949D02*
X116492Y114949D01*
X116517Y114997D02*
X117694Y114997D01*
X117738Y115046D02*
X116707Y115046D01*
X116834Y115094D02*
X117776Y115094D01*
X117814Y115143D02*
X116925Y115143D01*
X117012Y115191D02*
X117852Y115191D01*
X117885Y115240D02*
X117076Y115240D01*
X117141Y115288D02*
X117914Y115288D01*
X117942Y115337D02*
X117192Y115337D01*
X117241Y115385D02*
X117971Y115385D01*
X117998Y115434D02*
X117288Y115434D01*
X117325Y115482D02*
X118019Y115482D01*
X118040Y115531D02*
X117361Y115531D01*
X117397Y115579D02*
X118062Y115579D01*
X118083Y115628D02*
X117424Y115628D01*
X117451Y115676D02*
X118098Y115676D01*
X118113Y115725D02*
X117477Y115725D01*
X117498Y115773D02*
X118127Y115773D01*
X118141Y115822D02*
X117517Y115822D01*
X117535Y115870D02*
X118154Y115870D01*
X118163Y115919D02*
X117553Y115919D01*
X117564Y115967D02*
X118171Y115967D01*
X118179Y116016D02*
X117575Y116016D01*
X117586Y116064D02*
X118187Y116064D01*
X118192Y116492D02*
X118153Y116725D01*
X118085Y116951D01*
X117990Y117167D01*
X117869Y117370D01*
X117724Y117557D01*
X117557Y117724D01*
X117370Y117869D01*
X117167Y117990D01*
X116951Y118085D01*
X116725Y118153D01*
X116492Y118192D01*
X116492Y117592D01*
X116672Y117551D01*
X116845Y117485D01*
X117006Y117396D01*
X117154Y117285D01*
X117285Y117154D01*
X117396Y117006D01*
X117485Y116845D01*
X117551Y116672D01*
X117592Y116492D01*
X118192Y116492D01*
X118190Y116501D02*
X117590Y116501D01*
X117579Y116549D02*
X118182Y116549D01*
X118174Y116598D02*
X117568Y116598D01*
X117557Y116646D02*
X118166Y116646D01*
X118158Y116695D02*
X117542Y116695D01*
X117524Y116743D02*
X118147Y116743D01*
X118132Y116792D02*
X117505Y116792D01*
X117487Y116840D02*
X118118Y116840D01*
X118103Y116889D02*
X117461Y116889D01*
X117434Y116937D02*
X118089Y116937D01*
X118070Y116986D02*
X117407Y116986D01*
X117375Y117034D02*
X118048Y117034D01*
X118027Y117083D02*
X117338Y117083D01*
X117302Y117131D02*
X118006Y117131D01*
X117982Y117180D02*
X117259Y117180D01*
X117211Y117228D02*
X117953Y117228D01*
X117924Y117277D02*
X117162Y117277D01*
X117100Y117325D02*
X117895Y117325D01*
X117866Y117374D02*
X117036Y117374D01*
X116958Y117422D02*
X117828Y117422D01*
X117790Y117471D02*
X116871Y117471D01*
X116755Y117519D02*
X117753Y117519D01*
X117712Y117568D02*
X116597Y117568D01*
X116492Y117616D02*
X117664Y117616D01*
X117615Y117665D02*
X116492Y117665D01*
X116492Y117713D02*
X117567Y117713D01*
X117507Y117762D02*
X116492Y117762D01*
X116492Y117810D02*
X117445Y117810D01*
X117383Y117859D02*
X116492Y117859D01*
X116492Y117907D02*
X117305Y117907D01*
X117224Y117956D02*
X116492Y117956D01*
X116492Y118004D02*
X117134Y118004D01*
X117024Y118053D02*
X116492Y118053D01*
X116492Y118101D02*
X116896Y118101D01*
X116733Y118150D02*
X116492Y118150D01*
X116092Y118150D02*
X115850Y118150D01*
X115859Y118153D02*
X116092Y118192D01*
X116092Y117592D01*
X115912Y117551D01*
X115739Y117485D01*
X115577Y117396D01*
X115429Y117285D01*
X115299Y117154D01*
X115188Y117006D01*
X115098Y116845D01*
X115033Y116672D01*
X114992Y116492D01*
X114392Y116492D01*
X114431Y116725D01*
X114499Y116951D01*
X114594Y117167D01*
X114715Y117370D01*
X114860Y117557D01*
X115027Y117724D01*
X115213Y117869D01*
X115416Y117990D01*
X115632Y118085D01*
X115859Y118153D01*
X115688Y118101D02*
X116092Y118101D01*
X116092Y118053D02*
X115560Y118053D01*
X115449Y118004D02*
X116092Y118004D01*
X116092Y117956D02*
X115359Y117956D01*
X115278Y117907D02*
X116092Y117907D01*
X116092Y117859D02*
X115201Y117859D01*
X115138Y117810D02*
X116092Y117810D01*
X116092Y117762D02*
X115076Y117762D01*
X115017Y117713D02*
X116092Y117713D01*
X116092Y117665D02*
X114968Y117665D01*
X114920Y117616D02*
X116092Y117616D01*
X115987Y117568D02*
X114871Y117568D01*
X114831Y117519D02*
X115829Y117519D01*
X115713Y117471D02*
X114793Y117471D01*
X114755Y117422D02*
X115625Y117422D01*
X115548Y117374D02*
X114718Y117374D01*
X114688Y117325D02*
X115483Y117325D01*
X115421Y117277D02*
X114659Y117277D01*
X114630Y117228D02*
X115373Y117228D01*
X115324Y117180D02*
X114601Y117180D01*
X114578Y117131D02*
X115282Y117131D01*
X115245Y117083D02*
X114557Y117083D01*
X114535Y117034D02*
X115209Y117034D01*
X115176Y116986D02*
X114514Y116986D01*
X114495Y116937D02*
X115149Y116937D01*
X115123Y116889D02*
X114480Y116889D01*
X114466Y116840D02*
X115097Y116840D01*
X115078Y116792D02*
X114451Y116792D01*
X114437Y116743D02*
X115060Y116743D01*
X115041Y116695D02*
X114426Y116695D01*
X114418Y116646D02*
X115027Y116646D01*
X115016Y116598D02*
X114410Y116598D01*
X114401Y116549D02*
X115005Y116549D01*
X114994Y116501D02*
X114393Y116501D01*
X116092Y019767D02*
X115859Y019727D01*
X115632Y019660D01*
X115416Y019565D01*
X115213Y019444D01*
X115027Y019298D01*
X114860Y019131D01*
X114715Y018945D01*
X114594Y018742D01*
X114499Y018526D01*
X114431Y018299D01*
X114392Y018067D01*
X114992Y018067D01*
X115033Y018247D01*
X115098Y018419D01*
X115188Y018581D01*
X115299Y018729D01*
X115429Y018860D01*
X115577Y018971D01*
X115739Y019060D01*
X115912Y019126D01*
X116092Y019167D01*
X116092Y019767D01*
X116092Y019743D02*
X115951Y019743D01*
X116092Y019694D02*
X115749Y019694D01*
X115601Y019646D02*
X116092Y019646D01*
X116092Y019597D02*
X115491Y019597D01*
X115390Y019549D02*
X116092Y019549D01*
X116092Y019500D02*
X115309Y019500D01*
X115227Y019452D02*
X116092Y019452D01*
X116092Y019403D02*
X115162Y019403D01*
X115099Y019355D02*
X116092Y019355D01*
X116092Y019306D02*
X115037Y019306D01*
X114986Y019258D02*
X116092Y019258D01*
X116092Y019209D02*
X114938Y019209D01*
X114889Y019161D02*
X116067Y019161D01*
X115877Y019112D02*
X114845Y019112D01*
X114807Y019064D02*
X115749Y019064D01*
X115658Y019015D02*
X114770Y019015D01*
X114732Y018967D02*
X115572Y018967D01*
X115507Y018918D02*
X114699Y018918D01*
X114670Y018870D02*
X115443Y018870D01*
X115391Y018821D02*
X114641Y018821D01*
X114612Y018773D02*
X115343Y018773D01*
X115295Y018724D02*
X114586Y018724D01*
X114565Y018676D02*
X115259Y018676D01*
X115222Y018627D02*
X114543Y018627D01*
X114522Y018579D02*
X115186Y018579D01*
X115160Y018530D02*
X114501Y018530D01*
X114485Y018482D02*
X115133Y018482D01*
X115106Y018433D02*
X114471Y018433D01*
X114456Y018385D02*
X115085Y018385D01*
X115067Y018336D02*
X114442Y018336D01*
X114429Y018288D02*
X115048Y018288D01*
X115031Y018239D02*
X114421Y018239D01*
X114413Y018191D02*
X115020Y018191D01*
X115009Y018142D02*
X114404Y018142D01*
X114396Y018094D02*
X114998Y018094D01*
X114992Y017667D02*
X115033Y017486D01*
X115098Y017314D01*
X115188Y017152D01*
X115299Y017004D01*
X115429Y016873D01*
X115577Y016762D01*
X115739Y016673D01*
X115912Y016607D01*
X116092Y016567D01*
X116092Y015967D01*
X115859Y016006D01*
X115632Y016073D01*
X115416Y016168D01*
X115213Y016290D01*
X115027Y016435D01*
X114860Y016602D01*
X114715Y016788D01*
X114594Y016991D01*
X114499Y017207D01*
X114431Y017434D01*
X114392Y017667D01*
X114992Y017667D01*
X114994Y017657D02*
X114393Y017657D01*
X114401Y017609D02*
X115005Y017609D01*
X115016Y017560D02*
X114410Y017560D01*
X114418Y017512D02*
X115027Y017512D01*
X115041Y017463D02*
X114426Y017463D01*
X114437Y017415D02*
X115060Y017415D01*
X115078Y017366D02*
X114451Y017366D01*
X114466Y017318D02*
X115097Y017318D01*
X115123Y017269D02*
X114480Y017269D01*
X114495Y017221D02*
X115149Y017221D01*
X115176Y017172D02*
X114514Y017172D01*
X114535Y017124D02*
X115209Y017124D01*
X115245Y017075D02*
X114557Y017075D01*
X114578Y017027D02*
X115282Y017027D01*
X115324Y016978D02*
X114601Y016978D01*
X114630Y016930D02*
X115373Y016930D01*
X115421Y016881D02*
X114659Y016881D01*
X114688Y016833D02*
X115483Y016833D01*
X115548Y016784D02*
X114718Y016784D01*
X114755Y016736D02*
X115625Y016736D01*
X115713Y016687D02*
X114793Y016687D01*
X114831Y016639D02*
X115829Y016639D01*
X115987Y016590D02*
X114871Y016590D01*
X114920Y016542D02*
X116092Y016542D01*
X116092Y016493D02*
X114968Y016493D01*
X115017Y016445D02*
X116092Y016445D01*
X116092Y016396D02*
X115076Y016396D01*
X115138Y016348D02*
X116092Y016348D01*
X116092Y016299D02*
X115201Y016299D01*
X115278Y016251D02*
X116092Y016251D01*
X116092Y016202D02*
X115359Y016202D01*
X115449Y016154D02*
X116092Y016154D01*
X116092Y016105D02*
X115560Y016105D01*
X115688Y016057D02*
X116092Y016057D01*
X116092Y016008D02*
X115850Y016008D01*
X116492Y016008D02*
X116733Y016008D01*
X116725Y016006D02*
X116492Y015967D01*
X116492Y016567D01*
X116672Y016607D01*
X116845Y016673D01*
X117006Y016762D01*
X117154Y016873D01*
X117285Y017004D01*
X117396Y017152D01*
X117485Y017314D01*
X117551Y017486D01*
X117592Y017667D01*
X118192Y017667D01*
X118153Y017434D01*
X118085Y017207D01*
X117990Y016991D01*
X117869Y016788D01*
X117724Y016602D01*
X117557Y016435D01*
X117370Y016290D01*
X117167Y016168D01*
X116951Y016073D01*
X116725Y016006D01*
X116896Y016057D02*
X116492Y016057D01*
X116492Y016105D02*
X117024Y016105D01*
X117134Y016154D02*
X116492Y016154D01*
X116492Y016202D02*
X117224Y016202D01*
X117305Y016251D02*
X116492Y016251D01*
X116492Y016299D02*
X117383Y016299D01*
X117445Y016348D02*
X116492Y016348D01*
X116492Y016396D02*
X117507Y016396D01*
X117567Y016445D02*
X116492Y016445D01*
X116492Y016493D02*
X117615Y016493D01*
X117664Y016542D02*
X116492Y016542D01*
X116597Y016590D02*
X117712Y016590D01*
X117753Y016639D02*
X116755Y016639D01*
X116871Y016687D02*
X117790Y016687D01*
X117828Y016736D02*
X116958Y016736D01*
X117036Y016784D02*
X117866Y016784D01*
X117895Y016833D02*
X117100Y016833D01*
X117162Y016881D02*
X117924Y016881D01*
X117953Y016930D02*
X117211Y016930D01*
X117259Y016978D02*
X117982Y016978D01*
X118006Y017027D02*
X117302Y017027D01*
X117338Y017075D02*
X118027Y017075D01*
X118048Y017124D02*
X117375Y017124D01*
X117407Y017172D02*
X118070Y017172D01*
X118089Y017221D02*
X117434Y017221D01*
X117461Y017269D02*
X118103Y017269D01*
X118118Y017318D02*
X117487Y017318D01*
X117505Y017366D02*
X118132Y017366D01*
X118147Y017415D02*
X117524Y017415D01*
X117542Y017463D02*
X118158Y017463D01*
X118166Y017512D02*
X117557Y017512D01*
X117568Y017560D02*
X118174Y017560D01*
X118182Y017609D02*
X117579Y017609D01*
X117590Y017657D02*
X118190Y017657D01*
X118192Y018067D02*
X117592Y018067D01*
X117551Y018247D01*
X117485Y018419D01*
X117396Y018581D01*
X117285Y018729D01*
X117154Y018860D01*
X117006Y018971D01*
X116845Y019060D01*
X116672Y019126D01*
X116492Y019167D01*
X116492Y019767D01*
X116725Y019727D01*
X116951Y019660D01*
X117167Y019565D01*
X117370Y019444D01*
X117557Y019298D01*
X117724Y019131D01*
X117869Y018945D01*
X117990Y018742D01*
X118085Y018526D01*
X118153Y018299D01*
X118192Y018067D01*
X118187Y018094D02*
X117586Y018094D01*
X117575Y018142D02*
X118179Y018142D01*
X118171Y018191D02*
X117564Y018191D01*
X117553Y018239D02*
X118163Y018239D01*
X118154Y018288D02*
X117535Y018288D01*
X117517Y018336D02*
X118141Y018336D01*
X118127Y018385D02*
X117498Y018385D01*
X117477Y018433D02*
X118112Y018433D01*
X118098Y018482D02*
X117451Y018482D01*
X117424Y018530D02*
X118083Y018530D01*
X118062Y018579D02*
X117397Y018579D01*
X117361Y018627D02*
X118040Y018627D01*
X118019Y018676D02*
X117325Y018676D01*
X117288Y018724D02*
X117998Y018724D01*
X117971Y018773D02*
X117241Y018773D01*
X117192Y018821D02*
X117942Y018821D01*
X117914Y018870D02*
X117141Y018870D01*
X117076Y018918D02*
X117885Y018918D01*
X117852Y018967D02*
X117012Y018967D01*
X116925Y019015D02*
X117814Y019015D01*
X117776Y019064D02*
X116834Y019064D01*
X116707Y019112D02*
X117738Y019112D01*
X117694Y019161D02*
X116517Y019161D01*
X116492Y019209D02*
X117646Y019209D01*
X117597Y019258D02*
X116492Y019258D01*
X116492Y019306D02*
X117546Y019306D01*
X117484Y019355D02*
X116492Y019355D01*
X116492Y019403D02*
X117422Y019403D01*
X117356Y019452D02*
X116492Y019452D01*
X116492Y019500D02*
X117275Y019500D01*
X117194Y019549D02*
X116492Y019549D01*
X116492Y019597D02*
X117093Y019597D01*
X116982Y019646D02*
X116492Y019646D01*
X116492Y019694D02*
X116835Y019694D01*
X116632Y019743D02*
X116492Y019743D01*
D11*
X117000Y130071D03*
X115583Y130071D03*
X097315Y130071D03*
X095898Y130071D03*
X077630Y130071D03*
X076213Y130071D03*
X057945Y130071D03*
X056528Y130071D03*
X038260Y130071D03*
X036843Y130071D03*
X018575Y130071D03*
X017158Y130071D03*
M02*
