%
M48
M72
T01C0.0120
T02C0.0150
T03C0.0200
T04C0.0300
T05C0.0320
T06C0.0350
T07C0.0390
T08C0.0400
T09C0.0492
T10C0.0500
T11C0.0510
T12C0.0630
T13C0.0700
T14C0.0760
T15C0.0920
T16C0.0925
T17C0.0938
T18C0.1040
T19C0.1360
T20C0.1770
T21C0.2000
T22C0.2140
T23C0.2362
T24C0.2500
T25C0.2510
%
T01
X6843Y8221
X6567Y8615
X9205Y8221
X9481Y8615
X26252Y8615
X26528Y8221
X28890Y8221
X29166Y8615
X30179Y4579
X30179Y2879
X45937Y8615
X46213Y8221
X48575Y8221
X48851Y8615
X50079Y9679
X65622Y8615
X65898Y8221
X68260Y8221
X68536Y8615
X68706Y17467
X68706Y17867
X68706Y18267
X68181Y18142
X67906Y17867
X67630Y18142
X67355Y17867
X67079Y18142
X66804Y17867
X66528Y18142
X66252Y17867
X65977Y18142
X65452Y18267
X65452Y17867
X65452Y17467
X65977Y17591
X66528Y17591
X67079Y17591
X67630Y17591
X68181Y17591
X68260Y27906
X68536Y28300
X65898Y27906
X65622Y28300
X48851Y28300
X48575Y27906
X46213Y27906
X45937Y28300
X43624Y35009
X43624Y35609
X43828Y37276
X44104Y37552
X44379Y37827
X44655Y37552
X44930Y37827
X45206Y37552
X45481Y37827
X46006Y37952
X46006Y37552
X46006Y37152
X45481Y37276
X44930Y37276
X44379Y37276
X43828Y37827
X43552Y37552
X43277Y37827
X42752Y37952
X42752Y37552
X42752Y37152
X43277Y37276
X40859Y36119
X38569Y36119
X34074Y36589
X33224Y38609
X32154Y39109
X31963Y38609
X31494Y38209
X29379Y38529
X28969Y38229
X28079Y37979
X27479Y37679
X28724Y37209
X27924Y39709
X27724Y40309
X28024Y40609
X28454Y40929
X28629Y40289
X29624Y40309
X29924Y40009
X29929Y40609
X29924Y41209
X27524Y41609
X25059Y39459
X24054Y37409
X24054Y35309
X26579Y34079
X26924Y34409
X28254Y34209
X29166Y28300
X28890Y27906
X26528Y27906
X26252Y28300
X15536Y37152
X15536Y37552
X15536Y37952
X15011Y37827
X14736Y37552
X14460Y37827
X14185Y37552
X13909Y37827
X13633Y37552
X13358Y37827
X13082Y37552
X12807Y37827
X12282Y37952
X12282Y37552
X12282Y37152
X12807Y37276
X13358Y37276
X13909Y37276
X14460Y37276
X15011Y37276
X10679Y29379
X9481Y28300
X9205Y27906
X6843Y27906
X6567Y28300
X15379Y46379
X15579Y46879
X17179Y46379
X17279Y46879
X17979Y47779
X17979Y48579
X19779Y46879
X19479Y46379
X21279Y46379
X21379Y46879
X20579Y49879
X20879Y50379
X22379Y49879
X22479Y50379
X21379Y53579
X21479Y54079
X19779Y54079
X19579Y53579
X17279Y54079
X17179Y53579
X15479Y54079
X15379Y53579
X14479Y51579
X14479Y50579
X14479Y49579
X14479Y48579
X9481Y47985
X9205Y47591
X6843Y47591
X6567Y47985
X1879Y50479
X1879Y54279
X2279Y54479
X6843Y67276
X6567Y67670
X9205Y67276
X9481Y67670
X10679Y68679
X26252Y67670
X26528Y67276
X28890Y67276
X29166Y67670
X29336Y76522
X29336Y76922
X29336Y77322
X28811Y77197
X28536Y76922
X28260Y77197
X27985Y76922
X28260Y76646
X27709Y76646
X27433Y76922
X27158Y77197
X26882Y76922
X26607Y77197
X26082Y77322
X26082Y76922
X26082Y76522
X26607Y76646
X27158Y76646
X27709Y77197
X28811Y76646
X28890Y86961
X29166Y87355
X26528Y86961
X26252Y87355
X34579Y95699
X34579Y96779
X34639Y98699
X36319Y97859
X37099Y98219
X37219Y97499
X37219Y97139
X37219Y96779
X37219Y96419
X37579Y96419
X37579Y96779
X37579Y97139
X37579Y97499
X38059Y96959
X38059Y96599
X38419Y96599
X38779Y96599
X38779Y96959
X38419Y96959
X39959Y95959
X39959Y95599
X39959Y95239
X40319Y95239
X40319Y95599
X40319Y95959
X40319Y94839
X39959Y94839
X38059Y93839
X37759Y93959
X37399Y93959
X37039Y93959
X36679Y93959
X36319Y93959
X35959Y93959
X35559Y93859
X35559Y93359
X35559Y92959
X35559Y92559
X35959Y92279
X36319Y92279
X36679Y92279
X37039Y92279
X37399Y92279
X37759Y92279
X38059Y92519
X38059Y92939
X38059Y93339
X36439Y96059
X38059Y99239
X37579Y100139
X41779Y93879
X46479Y92079
X46479Y90879
X45937Y87355
X46213Y86961
X48575Y86961
X48851Y87355
X45179Y83479
X43579Y83479
X43424Y80979
X43924Y79979
X43624Y79679
X43624Y79279
X44259Y79329
X44479Y79579
X44724Y80179
X44354Y80319
X45479Y80279
X45819Y79979
X45524Y79679
X45824Y79379
X45824Y80579
X48054Y78479
X47863Y77979
X47394Y77579
X49124Y77979
X49974Y75959
X45379Y77879
X43979Y77879
X43479Y77479
X43624Y76579
X44379Y76179
X43379Y74079
X44154Y73579
X44009Y72409
X43434Y72429
X41779Y72479
X40879Y70679
X40879Y68679
X40079Y68579
X45937Y67670
X46213Y67276
X48575Y67276
X48851Y67670
X39954Y74679
X39954Y76779
X49179Y81979
X65622Y87355
X65898Y86961
X68260Y86961
X68536Y87355
X66179Y84279
X69279Y83479
X69024Y82579
X72852Y84122
X72852Y84522
X72852Y84922
X73377Y84797
X73652Y84522
X73377Y84246
X73928Y84246
X74204Y84522
X74479Y84797
X74755Y84522
X75030Y84797
X75306Y84522
X75581Y84797
X76106Y84922
X76106Y84522
X76106Y84122
X75581Y84246
X75030Y84246
X74479Y84246
X73928Y84797
X73724Y82579
X85307Y87355
X85583Y86961
X87945Y86961
X88221Y87355
X97879Y96619
X97399Y97519
X98359Y98539
X98239Y99259
X97879Y99259
X97879Y99619
X97879Y99979
X97879Y100339
X98239Y100339
X98239Y99979
X98239Y99619
X97399Y99799
X97039Y99799
X96679Y99799
X96679Y100159
X97039Y100159
X97399Y100159
X99019Y100699
X99139Y102799
X98779Y102799
X98419Y102799
X98059Y102799
X97699Y102799
X97399Y102959
X97399Y103519
X97399Y103879
X97399Y104239
X97699Y104479
X98059Y104479
X98419Y104479
X98779Y104479
X99139Y104479
X99499Y104479
X99899Y104209
X99899Y103859
X99899Y103499
X99899Y102899
X99499Y102799
X100879Y101059
X100879Y99979
X100819Y98059
X99139Y98899
X95499Y100799
X95139Y100799
X95139Y101159
X95139Y101519
X95499Y101519
X95499Y101159
X95499Y101919
X95139Y101919
X93679Y102879
X87945Y106646
X88221Y107040
X85583Y106646
X85307Y107040
X68536Y107040
X68260Y106646
X65898Y106646
X65622Y107040
X66324Y113749
X66324Y114349
X66528Y116016
X66804Y116292
X67079Y116567
X67355Y116292
X67630Y116567
X67906Y116292
X68181Y116567
X68706Y116692
X68706Y116292
X68706Y115892
X68181Y116016
X67630Y116016
X67079Y116016
X66528Y116567
X66252Y116292
X65977Y116567
X65452Y116692
X65452Y116292
X65452Y115892
X65977Y116016
X59979Y122279
X65622Y126725
X65898Y126331
X68260Y126331
X68536Y126725
X85307Y126725
X85583Y126331
X87945Y126331
X88221Y126725
X104993Y126725
X105268Y126331
X107630Y126331
X107906Y126725
X114679Y130079
X124678Y126725
X124953Y126331
X127315Y126331
X127591Y126725
X116692Y109375
X116292Y109375
X115892Y109375
X116016Y108851
X116292Y108575
X116567Y108300
X116292Y108024
X116567Y107748
X116292Y107473
X116567Y107197
X116292Y106922
X116016Y107197
X116016Y106646
X115892Y106122
X116292Y106122
X116692Y106122
X116567Y106646
X116016Y107748
X116016Y108300
X116567Y108851
X118634Y106993
X119234Y106993
X124678Y107040
X124953Y106646
X127315Y106646
X127591Y107040
X117254Y92244
X115234Y91394
X114734Y90324
X115234Y90133
X115634Y89664
X115189Y87869
X113834Y88094
X113534Y87794
X113229Y88099
X112939Y87779
X112634Y88094
X113034Y86994
X112884Y86684
X113234Y86194
X113534Y85894
X113934Y85894
X113679Y86479
X113579Y86779
X112234Y85694
X114879Y84879
X115314Y85754
X115259Y86359
X116034Y86394
X116649Y86579
X116634Y85894
X119079Y85179
X119634Y86424
X118534Y82224
X118019Y81189
X116434Y82224
X124678Y87355
X124953Y86961
X127315Y86961
X127591Y87355
X109479Y89979
X108579Y92779
X107908Y87355
X107628Y86965
X105268Y86965
X104998Y87365
X103979Y84679
X102379Y84679
X101279Y84679
X100779Y82979
X100779Y82579
X100779Y82179
X100779Y81779
X102279Y81779
X102279Y82179
X102279Y82579
X102279Y82979
X104993Y67670
X105268Y67276
X107630Y67276
X107906Y67670
X115892Y67506
X116292Y67506
X116692Y67506
X116567Y66981
X116292Y66706
X116567Y66430
X116292Y66155
X116016Y66430
X116016Y65879
X116292Y65604
X116567Y65879
X116567Y65328
X116292Y65052
X116567Y64777
X116692Y64252
X116292Y64252
X115892Y64252
X116016Y64777
X116016Y65328
X116016Y66981
X124678Y67670
X124953Y67276
X127315Y67276
X127591Y67670
X128779Y48979
X127591Y47985
X127315Y47591
X124953Y47591
X124678Y47985
X119699Y37279
X119339Y37279
X118979Y37279
X118619Y37279
X118259Y37279
X117899Y37279
X117599Y37039
X117599Y36619
X117599Y36179
X117599Y35759
X117899Y35599
X118259Y35599
X118619Y35599
X118979Y35599
X119339Y35599
X119699Y35599
X120099Y35759
X120099Y36199
X120099Y36599
X120099Y36999
X121079Y33859
X121079Y32779
X121019Y30859
X119339Y31699
X118559Y31339
X118439Y32059
X118079Y32059
X118079Y32419
X118079Y32779
X118439Y32779
X118439Y32419
X118439Y33139
X118079Y33139
X117599Y32959
X117239Y32959
X116879Y32959
X116879Y32599
X117239Y32599
X117599Y32599
X119219Y33499
X115699Y33599
X115339Y33599
X115339Y33959
X115339Y34319
X115699Y34319
X115699Y33959
X115699Y34719
X115339Y34719
X113879Y35679
X117599Y30319
X118079Y29419
X124678Y28300
X124953Y27906
X127315Y27906
X127591Y28300
X127591Y8615
X127315Y8221
X124953Y8221
X124678Y8615
X107906Y8615
X107630Y8221
X105268Y8221
X104993Y8615
X105694Y15324
X105694Y15924
X105898Y17591
X105622Y17867
X105347Y18142
X104822Y18267
X104822Y17867
X104822Y17467
X105347Y17591
X105898Y18142
X106174Y17867
X106449Y18142
X106725Y17867
X107000Y18142
X107276Y17867
X107552Y18142
X108076Y18267
X108076Y17867
X108076Y17467
X107552Y17591
X107000Y17591
X106449Y17591
X105268Y27906
X104993Y28300
X107630Y27906
X107906Y28300
X91394Y18924
X90324Y19424
X90133Y18924
X89664Y18524
X87819Y18919
X88094Y20324
X87794Y20624
X88099Y20929
X87769Y21229
X88094Y21524
X86994Y21124
X86694Y21224
X86194Y20924
X85894Y20624
X85994Y20124
X86479Y20379
X86779Y20579
X85694Y21924
X86879Y23779
X90379Y23779
X87945Y27906
X88221Y28300
X85583Y27906
X85307Y28300
X85779Y18679
X86479Y18379
X86589Y17519
X85894Y17524
X86424Y14524
X85194Y13824
X82224Y15624
X82224Y17724
X85307Y8615
X85583Y8221
X87945Y8221
X88221Y8615
X92279Y12079
X92279Y13479
X92244Y16904
X87945Y47591
X88221Y47985
X85583Y47591
X85307Y47985
X68536Y47985
X68260Y47591
X65898Y47591
X65622Y47985
X50179Y54579
X50179Y57379
X48851Y47985
X48575Y47591
X46213Y47591
X45937Y47985
X32279Y44179
X29679Y44179
X28890Y47591
X29166Y47985
X26528Y47591
X26252Y47985
X9205Y86961
X9481Y87355
X6843Y86961
X6567Y87355
X6843Y106646
X6567Y107040
X9205Y106646
X9481Y107040
X10679Y108079
X26252Y107040
X26528Y106646
X28890Y106646
X29166Y107040
X29336Y115892
X29336Y116292
X29336Y116692
X28811Y116567
X28536Y116292
X28260Y116567
X27985Y116292
X28260Y116016
X27709Y116016
X27433Y116292
X27158Y116567
X26882Y116292
X26607Y116567
X26082Y116692
X26082Y116292
X26082Y115892
X26607Y116016
X27158Y116016
X27709Y116567
X28811Y116016
X28890Y126331
X29166Y126725
X26528Y126331
X26252Y126725
X37779Y131279
X39679Y130079
X41254Y131649
X45937Y126725
X46213Y126331
X48575Y126331
X48851Y126725
X48179Y122279
X49879Y122279
X48724Y119949
X48409Y119649
X48719Y119349
X48424Y119049
X48724Y118749
X47419Y118939
X47079Y118979
X46824Y119349
X46524Y119049
X46524Y118649
X47284Y119689
X47624Y119549
X46324Y120349
X46979Y117279
X46279Y117179
X46524Y115949
X47159Y115919
X48379Y117279
X50294Y116949
X50763Y117349
X50954Y117849
X52024Y117349
X52874Y115329
X47054Y112949
X46879Y111779
X46324Y111769
X45879Y113579
X42854Y114049
X42854Y116149
X43679Y117979
X40779Y110079
X40779Y107979
X44079Y107979
X44079Y109379
X45937Y107040
X46213Y106646
X48575Y106646
X48851Y107040
X65622Y67670
X65898Y67276
X68260Y67276
X68536Y67670
X85307Y67670
X85583Y67276
X87945Y67276
X88221Y67670
X104993Y47985
X105268Y47591
X107630Y47591
X107906Y47985
X107630Y106646
X107906Y107040
X105268Y106646
X104993Y107040
X9481Y126725
X9205Y126331
X6843Y126331
X6567Y126725
T02
X10579Y127779
X30279Y127779
X43624Y117009
X43944Y116689
X43944Y117329
X44524Y117649
X44924Y117309
X44824Y115409
X44363Y114409
X45924Y112949
X46724Y112749
X51064Y112449
X51304Y112769
X51064Y113249
X51304Y113569
X51064Y113969
X51324Y114229
X51074Y114529
X51324Y114829
X51324Y115329
X51324Y116029
X53224Y116529
X53384Y116209
X53384Y115729
X53004Y111009
X51824Y111009
X50079Y108079
X69679Y108079
X69324Y89579
X81724Y74049
X82124Y73749
X82424Y73249
X89379Y68679
X89379Y48979
X89279Y29379
X83894Y19324
X84194Y18984
X83314Y18904
X82994Y18584
X83314Y18264
X84194Y16984
X83733Y15984
X84894Y13524
X86094Y14324
X90434Y14024
X90674Y14344
X90434Y14824
X90674Y15144
X90434Y15544
X90694Y15804
X90444Y16104
X90694Y16404
X90694Y16904
X90694Y17604
X92594Y18104
X92754Y17784
X92754Y17304
X92274Y12584
X90994Y12584
X89479Y9679
X69779Y9679
X54779Y27679
X50079Y29379
X51124Y43649
X53629Y43654
X50079Y49079
X34424Y37789
X34584Y37469
X32524Y37289
X32524Y36589
X32524Y36089
X32274Y35789
X32524Y35489
X32504Y34829
X32264Y34509
X32504Y34029
X32264Y33709
X33624Y31469
X34904Y31469
X30379Y29379
X27924Y34009
X25563Y35669
X26024Y36669
X25144Y37949
X24724Y38269
X24444Y38589
X25924Y38909
X26224Y38569
X23079Y34779
X30379Y49079
X30379Y68679
X41463Y75039
X43354Y76309
X41924Y77939
X41624Y78279
X41044Y77959
X40724Y77639
X41044Y77319
X43824Y73379
X47364Y73079
X47604Y73399
X47364Y73879
X48247Y74120
X48164Y74599
X48424Y74859
X48174Y75159
X48424Y75459
X48424Y75959
X48424Y76659
X50324Y77159
X50484Y76839
X50484Y76359
X50744Y71639
X49424Y71639
X49979Y68679
X50724Y67649
X50724Y67149
X51024Y66749
X69679Y68679
X69779Y49079
X69379Y30479
X30379Y9679
X10679Y9679
X10679Y49079
X10679Y88379
X30379Y88379
X30379Y108079
X49979Y127779
X69679Y127779
X89379Y127779
X108634Y109164
X116374Y92754
X116054Y92594
X116854Y92754
X116554Y90694
X117254Y90694
X117754Y90694
X118054Y90444
X118354Y90694
X118614Y90434
X119014Y90674
X119334Y90434
X119814Y90674
X120134Y90434
X122374Y91794
X122374Y93074
X128779Y88379
X119834Y86094
X119084Y85644
X117174Y84194
X118174Y83733
X115894Y83314
X115574Y82994
X115254Y83314
X114934Y83894
X115479Y80979
X109079Y88379
X128779Y108079
X128779Y127779
X109079Y127779
X89379Y108079
X89379Y88379
X109079Y68679
X109079Y48979
X109079Y29379
X109079Y9679
X128779Y9679
X128779Y29379
X128779Y68679
X50079Y88379
T03
X48575Y87748
X48181Y88142
X47988Y87748
X46800Y87748
X46607Y88142
X46213Y87748
X45124Y81679
X43124Y81679
X41324Y78679
X37324Y80279
X36124Y81679
X35124Y80679
X34124Y81679
X33124Y80679
X32124Y81679
X31124Y80679
X30124Y81679
X29124Y80679
X29993Y77748
X30544Y77748
X30544Y77197
X31095Y77197
X31095Y76646
X31095Y76095
X30544Y76095
X30544Y76646
X29993Y76646
X29993Y76095
X29993Y77197
X31095Y77748
X29624Y73779
X25426Y76095
X25426Y76646
X25426Y77197
X25426Y77748
X24874Y77748
X24874Y77197
X24323Y77197
X24323Y76646
X24323Y76095
X24874Y76095
X24874Y76646
X24323Y77748
X26922Y68457
X27115Y68063
X26528Y68063
X28303Y68063
X28496Y68457
X28890Y68063
X46213Y68063
X46607Y68457
X46800Y68063
X47988Y68063
X48181Y68457
X48575Y68063
X47724Y79979
X65898Y87748
X66292Y88142
X66485Y87748
X67673Y87748
X67867Y88142
X68260Y87748
X71093Y85348
X71093Y84797
X71093Y84246
X71093Y83695
X71644Y83695
X71644Y84246
X71644Y84797
X71644Y85348
X72196Y85348
X72196Y84797
X72196Y84246
X72196Y83695
X70030Y84378
X71530Y87278
X76763Y85348
X76763Y84797
X77314Y84797
X77314Y84246
X77865Y84246
X77865Y83695
X77314Y83695
X76763Y83695
X76763Y84246
X77865Y84797
X77865Y85348
X77314Y85348
X85583Y87748
X85977Y88142
X86170Y87748
X87358Y87748
X87552Y88142
X87945Y87748
X90329Y98029
X87945Y107433
X87552Y107827
X87358Y107433
X86170Y107433
X85977Y107827
X85583Y107433
X70465Y115465
X70465Y116016
X69914Y116016
X69914Y115465
X69363Y115465
X69363Y116016
X69363Y116567
X69914Y116567
X70465Y116567
X70465Y117119
X69914Y117119
X69363Y117119
X64796Y117119
X64244Y117119
X63693Y117119
X63693Y116567
X63693Y116016
X63693Y115465
X64244Y115465
X64244Y116016
X64244Y116567
X64796Y116567
X64796Y116016
X64796Y115465
X64494Y113319
X66494Y113319
X62494Y113319
X60494Y113319
X58494Y113319
X56494Y113319
X61179Y118979
X64124Y119049
X65898Y127119
X66292Y127512
X66485Y127119
X67673Y127119
X67867Y127512
X68260Y127119
X85583Y127119
X85977Y127512
X86170Y127119
X87358Y127119
X87552Y127512
X87945Y127119
X105268Y127119
X105662Y127512
X105856Y127119
X107043Y127119
X107237Y127512
X107630Y127119
X115465Y111134
X115465Y110583
X115465Y110032
X116016Y110032
X116016Y110583
X116016Y111134
X116567Y111134
X116567Y110583
X116567Y110032
X117119Y110032
X117119Y110583
X117119Y111134
X119664Y106563
X119664Y104763
X119664Y102763
X119664Y100763
X119664Y98763
X119664Y96763
X114952Y95305
X113579Y97879
X115465Y104363
X115465Y104914
X115465Y105465
X116016Y105465
X116016Y104914
X116567Y104914
X116567Y105465
X117119Y105465
X117119Y104914
X117119Y104363
X116567Y104363
X116016Y104363
X113534Y104793
X107630Y107433
X107237Y107827
X107043Y107433
X105856Y107433
X105662Y107827
X105268Y107433
X113727Y90152
X111527Y84552
X111527Y82552
X114479Y81579
X115079Y79979
X112927Y79052
X111424Y76249
X112424Y75249
X111424Y74249
X112424Y73249
X111424Y72249
X112424Y71249
X111424Y70249
X112424Y69249
X111524Y68349
X112524Y67349
X115465Y68163
X115465Y68714
X115465Y69265
X116016Y69265
X116016Y68714
X116567Y68714
X116567Y69265
X117119Y69265
X117119Y68714
X117119Y68163
X116567Y68163
X116016Y68163
X119424Y67749
X120424Y69049
X120424Y71049
X120424Y73049
X120424Y75049
X125347Y68457
X125541Y68063
X124953Y68063
X126728Y68063
X126922Y68457
X127315Y68063
X117119Y63596
X117119Y63044
X117119Y62493
X116567Y62493
X116016Y62493
X115465Y62493
X115465Y63044
X116016Y63044
X116567Y63044
X116567Y63596
X116016Y63596
X115465Y63596
X107630Y68063
X107237Y68457
X107043Y68063
X105856Y68063
X105662Y68457
X105268Y68063
X114527Y83552
X107627Y87752
X107247Y88142
X107047Y87752
X105857Y87752
X105657Y88142
X105277Y87752
X87552Y68457
X87358Y68063
X87945Y68063
X86170Y68063
X85977Y68457
X85583Y68063
X68260Y68063
X67867Y68457
X67673Y68063
X66485Y68063
X66292Y68457
X65898Y68063
X66292Y48772
X66485Y48378
X65898Y48378
X67673Y48378
X67867Y48772
X68260Y48378
X57979Y31979
X55279Y29779
X54079Y28579
X56879Y27079
X48575Y28693
X48181Y29087
X47988Y28693
X46800Y28693
X46607Y29087
X46213Y28693
X43794Y34579
X41994Y34579
X42096Y36725
X42096Y37276
X42096Y37827
X42096Y38378
X41544Y38378
X40993Y38378
X40993Y37827
X40993Y37276
X40993Y36725
X41544Y36725
X41544Y37276
X41544Y37827
X41394Y40279
X38204Y40279
X37994Y36679
X37994Y35579
X37994Y34579
X39994Y34579
X46663Y36725
X47214Y36725
X47765Y36725
X47765Y37276
X47765Y37827
X47214Y37827
X47214Y37276
X46663Y37276
X46663Y37827
X46663Y38378
X47214Y38378
X47765Y38378
X47988Y48378
X48181Y48772
X48575Y48378
X46800Y48378
X46607Y48772
X46213Y48378
X28890Y48378
X28496Y48772
X28303Y48378
X27115Y48378
X26922Y48772
X26528Y48378
X20324Y42309
X19324Y41309
X18324Y42309
X17324Y41309
X16324Y42309
X15324Y41309
X16193Y38378
X16744Y38378
X16744Y37827
X17295Y37827
X17295Y37276
X17295Y36725
X16744Y36725
X16744Y37276
X16193Y37276
X16193Y37827
X16193Y36725
X17295Y38378
X15824Y34409
X11626Y36725
X11626Y37276
X11626Y37827
X11626Y38378
X11074Y38378
X10523Y38378
X10523Y37827
X10523Y37276
X10523Y36725
X11074Y36725
X11074Y37276
X11074Y37827
X8811Y29087
X8618Y28693
X9205Y28693
X7430Y28693
X7237Y29087
X6843Y28693
X20924Y40909
X22424Y39219
X26922Y29087
X27115Y28693
X26528Y28693
X28303Y28693
X28496Y29087
X28890Y28693
X28496Y9402
X28303Y9008
X28890Y9008
X27115Y9008
X26922Y9402
X26528Y9008
X9205Y9008
X8811Y9402
X8618Y9008
X7430Y9008
X7237Y9402
X6843Y9008
X46213Y9008
X46607Y9402
X46800Y9008
X47988Y9008
X48181Y9402
X48575Y9008
X63693Y17040
X63693Y17591
X63693Y18142
X63693Y18693
X64244Y18693
X64244Y18142
X64244Y17591
X64244Y17040
X64796Y17040
X64796Y17591
X64796Y18142
X64796Y18693
X69363Y18693
X69914Y18693
X69914Y18142
X70465Y18142
X70465Y17591
X69914Y17591
X69914Y17040
X70465Y17040
X69363Y17040
X69363Y17591
X69363Y18142
X70465Y18693
X70524Y21649
X69524Y22649
X68524Y21649
X71524Y22649
X72524Y21649
X73524Y22649
X74524Y21649
X75524Y22649
X76524Y21649
X77524Y22649
X79024Y21249
X81479Y19279
X82024Y20249
X82524Y22649
X84524Y22649
X85583Y28693
X85977Y29087
X86170Y28693
X87358Y28693
X87552Y29087
X87945Y28693
X90224Y20349
X95864Y14899
X97864Y14899
X99864Y14899
X101864Y14899
X103864Y14899
X105864Y14899
X104166Y17040
X104166Y17591
X104166Y18142
X104166Y18693
X103615Y18693
X103615Y18142
X103615Y17591
X103615Y17040
X103063Y17040
X103063Y17591
X103063Y18142
X103063Y18693
X103424Y20649
X100379Y20579
X105268Y28693
X105662Y29087
X105856Y28693
X107043Y28693
X107237Y29087
X107630Y28693
X108733Y18693
X109284Y18693
X109284Y18142
X109835Y18142
X109835Y17591
X109284Y17591
X109284Y17040
X109835Y17040
X108733Y17040
X108733Y17591
X108733Y18142
X109835Y18693
X107237Y9402
X107043Y9008
X107630Y9008
X105856Y9008
X105662Y9402
X105268Y9008
X87945Y9008
X87552Y9402
X87358Y9008
X86170Y9008
X85977Y9402
X85583Y9008
X68994Y14729
X67867Y9402
X67673Y9008
X68260Y9008
X66485Y9008
X66292Y9402
X65898Y9008
X65898Y28693
X66292Y29087
X66485Y28693
X67673Y28693
X67867Y29087
X68260Y28693
X85583Y48378
X85977Y48772
X86170Y48378
X87358Y48378
X87552Y48772
X87945Y48378
X105268Y48378
X105662Y48772
X105856Y48378
X107043Y48378
X107237Y48772
X107630Y48378
X124953Y48378
X125347Y48772
X125541Y48378
X126728Y48378
X126922Y48772
X127315Y48378
X126922Y29087
X126728Y28693
X127315Y28693
X125541Y28693
X125347Y29087
X124953Y28693
X125347Y9402
X125541Y9008
X124953Y9008
X126728Y9008
X126922Y9402
X127315Y9008
X127315Y87748
X126922Y88142
X126728Y87748
X125541Y87748
X125347Y88142
X124953Y87748
X124953Y107433
X125347Y107827
X125541Y107433
X126728Y107433
X126922Y107827
X127315Y107433
X127315Y127119
X126922Y127512
X126728Y127119
X125541Y127119
X125347Y127512
X124953Y127119
X68260Y107433
X67867Y107827
X67673Y107433
X66485Y107433
X66292Y107827
X65898Y107433
X50824Y118849
X45124Y121049
X43124Y121049
X44224Y118049
X39724Y119649
X38124Y121049
X37124Y120049
X36124Y121049
X35124Y120049
X34124Y121049
X33124Y120049
X32124Y121049
X31124Y120049
X30124Y121049
X29124Y120049
X29993Y117119
X30544Y117119
X31095Y117119
X31095Y116567
X31095Y116016
X31095Y115465
X30544Y115465
X30544Y116016
X30544Y116567
X29993Y116567
X29993Y116016
X29993Y115465
X29624Y113149
X25426Y115465
X25426Y116016
X25426Y116567
X25426Y117119
X24874Y117119
X24323Y117119
X24323Y116567
X24323Y116016
X24323Y115465
X24874Y115465
X24874Y116016
X24874Y116567
X26922Y107827
X27115Y107433
X26528Y107433
X28303Y107433
X28496Y107827
X28890Y107433
X46213Y107433
X46607Y107827
X46800Y107433
X47988Y107433
X48181Y107827
X48575Y107433
X48575Y127119
X48181Y127512
X47988Y127119
X46800Y127119
X46607Y127512
X46213Y127119
X28890Y127119
X28496Y127512
X28303Y127119
X27115Y127119
X26922Y127512
X26528Y127119
X9205Y127119
X8811Y127512
X8618Y127119
X7430Y127119
X7237Y127512
X6843Y127119
X7237Y107827
X7430Y107433
X6843Y107433
X8618Y107433
X8811Y107827
X9205Y107433
X8811Y88142
X8618Y87748
X9205Y87748
X7430Y87748
X7237Y88142
X6843Y87748
X7237Y68457
X7430Y68063
X6843Y68063
X8618Y68063
X8811Y68457
X9205Y68063
X8811Y48772
X8618Y48378
X9205Y48378
X7430Y48378
X7237Y48772
X6843Y48378
X26528Y87748
X26922Y88142
X27115Y87748
X28303Y87748
X28496Y88142
X28890Y87748
T04
X59079Y33079
X91679Y33079
T05
X114739Y34279
X114739Y35679
X94539Y101479
X94539Y102879
X40919Y95279
X40919Y93879
T06
X55979Y26479
X56779Y26479
X57579Y26479
X57179Y25679
X56379Y25679
X57979Y25679
T07
X21979Y48879
X21179Y48879
X20479Y47379
X20079Y45379
X20879Y45379
X16779Y45379
X15979Y45379
X16379Y47379
X15979Y52579
X16779Y52579
X16379Y54579
X20579Y54579
X20179Y52579
X20979Y52579
X21579Y50879
T08
X8004Y38552
X8004Y36552
X21804Y75922
X21804Y77922
X41115Y99300
X39700Y100715
X22804Y115292
X22804Y117292
X72985Y117292
X72985Y115292
X94344Y97458
X95758Y96044
X79837Y87785
X77837Y87785
X88719Y59103
X89719Y59103
X90719Y59103
X91719Y59103
X92979Y57199
X93979Y57199
X94979Y57199
X115292Y59974
X117292Y59974
X114544Y30258
X115958Y28844
X111455Y19267
X111455Y17267
X61174Y16867
X61174Y18867
X50285Y36552
X50285Y38552
X113391Y110540
X113391Y112540
T09
X90719Y58253
T10
X81179Y92079
X78179Y92079
X75179Y92079
X76679Y112079
X78179Y112079
X79679Y112079
T11
X96579Y32949
X96579Y27009
T12
X90792Y31449
X87839Y31449
X84886Y31449
X71107Y31449
X68154Y31449
X65201Y31449
X65201Y43654
X68154Y43654
X71107Y43654
X84886Y51134
X87839Y51134
X90792Y51134
X104571Y51134
X107524Y51134
X110477Y51134
X124256Y51134
X127209Y51134
X130162Y51134
X130162Y70819
X127209Y70819
X124256Y70819
X108327Y70819
X105374Y70819
X102422Y70819
X90792Y70819
X87839Y70819
X84886Y70819
X71107Y70819
X68154Y70819
X65201Y70819
X49272Y70819
X46319Y70819
X43367Y70819
X31737Y70819
X28784Y70819
X25831Y70819
X12052Y70819
X9099Y70819
X6146Y70819
X6146Y51134
X9099Y51134
X12052Y51134
X25831Y51134
X28784Y51134
X31737Y51134
X43367Y51134
X46319Y51134
X49272Y51134
X48469Y31449
X51422Y31449
X45516Y31449
X31737Y31449
X28784Y31449
X25831Y31449
X12052Y31449
X9099Y31449
X6146Y31449
X6146Y11764
X9099Y11764
X12052Y11764
X25831Y11764
X28784Y11764
X31737Y11764
X45516Y11764
X48469Y11764
X51422Y11764
X65201Y11764
X68154Y11764
X71107Y11764
X84886Y11764
X87839Y11764
X90792Y11764
X104571Y11764
X107524Y11764
X110477Y11764
X124256Y11764
X127209Y11764
X130162Y11764
X130162Y31449
X127209Y31449
X124256Y31449
X110477Y31449
X107524Y31449
X104571Y31449
X105374Y90504
X102422Y90504
X108327Y90504
X124256Y90504
X127209Y90504
X130162Y90504
X130162Y110189
X127209Y110189
X124256Y110189
X108327Y110189
X105374Y110189
X102422Y110189
X90792Y110189
X87839Y110189
X84886Y110189
X71107Y110189
X68154Y110189
X65201Y110189
X51422Y110189
X48469Y110189
X45516Y110189
X31737Y110189
X28784Y110189
X25831Y110189
X12052Y110189
X9099Y110189
X6146Y110189
X6146Y129874
X9099Y129874
X12052Y129874
X25831Y129874
X28784Y129874
X31737Y129874
X45516Y129874
X48469Y129874
X51422Y129874
X65201Y129874
X68154Y129874
X71107Y129874
X84886Y129874
X87839Y129874
X90792Y129874
X104571Y129874
X107524Y129874
X110477Y129874
X122107Y129874
X125059Y129874
X128012Y129874
X90792Y90504
X87839Y90504
X84886Y90504
X71107Y90504
X68154Y90504
X65201Y90504
X51422Y90504
X48469Y90504
X45516Y90504
X31737Y90504
X28784Y90504
X25831Y90504
X12052Y90504
X9099Y90504
X6146Y90504
T13
X91811Y23575
X93371Y23575
T14
X81179Y112079
X75179Y112079
T15
X6149Y8024
X9899Y8024
X25834Y8024
X29584Y8024
X45519Y8024
X49269Y8024
X65204Y8024
X68954Y8024
X84889Y8024
X88639Y8024
X104574Y8024
X108324Y8024
X124259Y8024
X128009Y8024
X128009Y27709
X124259Y27709
X108324Y27709
X104574Y27709
X88639Y27709
X84889Y27709
X68954Y27709
X65204Y27709
X49269Y27709
X45519Y27709
X29584Y27709
X25834Y27709
X9899Y27709
X6149Y27709
X6149Y47394
X9899Y47394
X25834Y47394
X29584Y47394
X45519Y47394
X49269Y47394
X65204Y47394
X68954Y47394
X84889Y47394
X88639Y47394
X104574Y47394
X108324Y47394
X124259Y47394
X128009Y47394
X128009Y67079
X124259Y67079
X108324Y67079
X104574Y67079
X88639Y67079
X84889Y67079
X68954Y67079
X65204Y67079
X49269Y67079
X45519Y67079
X29584Y67079
X25834Y67079
X9899Y67079
X6149Y67079
X6149Y86764
X9899Y86764
X25834Y86764
X29584Y86764
X45519Y86764
X49269Y86764
X65204Y86764
X68954Y86764
X84889Y86764
X88639Y86764
X104574Y86764
X108324Y86764
X124259Y86764
X128009Y86764
X128009Y106449
X124259Y106449
X108324Y106449
X104574Y106449
X88639Y106449
X84889Y106449
X68954Y106449
X65204Y106449
X49269Y106449
X45519Y106449
X29584Y106449
X25834Y106449
X9899Y106449
X6149Y106449
X6149Y126134
X9899Y126134
X25834Y126134
X29584Y126134
X45519Y126134
X49269Y126134
X65204Y126134
X68954Y126134
X84889Y126134
X88639Y126134
X104574Y126134
X108324Y126134
X124259Y126134
X128009Y126134
T16
X126134Y124658
X126134Y127611
X126134Y107926
X126134Y104973
X126134Y88241
X126134Y85288
X126134Y68556
X126134Y65603
X126134Y48870
X126134Y45918
X126134Y29185
X126134Y26233
X126134Y9500
X126134Y6548
X106449Y6548
X106449Y9500
X106449Y26233
X106449Y29185
X106449Y45918
X106449Y48870
X106449Y65603
X106449Y68556
X106449Y85288
X106449Y88241
X106449Y104973
X106449Y107926
X106449Y124658
X106449Y127611
X86764Y127611
X86764Y124658
X86764Y107926
X86764Y104973
X86764Y88241
X86764Y85288
X86764Y68556
X86764Y65603
X86764Y48870
X86764Y45918
X86764Y29185
X86764Y26233
X86764Y9500
X86764Y6548
X67079Y6548
X67079Y9500
X67079Y26233
X67079Y29185
X67079Y45918
X67079Y48870
X67079Y65603
X67079Y68556
X67079Y85288
X67079Y88241
X67079Y104973
X67079Y107926
X67079Y124658
X67079Y127611
X47394Y127611
X47394Y124658
X47394Y107926
X47394Y104973
X47394Y88241
X47394Y85288
X47394Y68556
X47394Y65603
X47394Y48870
X47394Y45918
X47394Y29185
X47394Y26233
X47394Y9500
X47394Y6548
X27709Y6548
X27709Y9500
X27709Y26233
X27709Y29185
X27709Y45918
X27709Y48870
X27709Y65603
X27709Y68556
X27709Y85288
X27709Y88241
X27709Y104973
X27709Y107926
X27709Y124658
X27709Y127611
X8024Y127611
X8024Y124658
X8024Y107926
X8024Y104973
X8024Y88241
X8024Y85288
X8024Y68556
X8024Y65603
X8024Y48870
X8024Y45918
X8024Y29185
X8024Y26233
X8024Y9500
X8024Y6548
T17
X18379Y49879
T18
X96579Y29979
T19
X58854Y24479
X55104Y24479
T20
X17867Y32394
X17867Y62394
X116292Y71764
X116292Y101764
T21
X130071Y96607
X130071Y116292
X130071Y76922
X130071Y57237
X130071Y37552
X130071Y17867
X116292Y4087
X96607Y4087
X76922Y4087
X57237Y4087
X37552Y4087
X17867Y4087
X4087Y17867
X4087Y37552
X4087Y57237
X4087Y76922
X4087Y96607
X4087Y116292
T22
X13339Y105071
X13339Y85386
X38930Y85386
X38930Y105071
T23
X96607Y116292
X37552Y17867
T24
X17867Y17867
X37552Y57237
X57237Y96607
X17867Y116292
X76922Y37552
X96607Y76922
X116292Y116292
X116292Y17867
T25
X81154Y53004
X53004Y53004
X53004Y81154
X81154Y81154
M30
