G75*
%MOIN*%
%OFA0B0*%
%FSLAX24Y24*%
%IPPOS*%
%LPD*%
%AMOC8*
5,1,8,0,0,1.08239X$1,22.5*
%
%ADD10C,0.2040*%
%ADD11C,0.0978*%
%ADD12C,0.0400*%
%ADD13R,0.0150X0.0512*%
%ADD14R,0.0512X0.0150*%
%ADD15R,0.0360X0.0400*%
%ADD16R,0.0355X0.0257*%
%ADD17R,0.2583X0.0965*%
%ADD18R,0.0158X0.0670*%
%ADD19R,0.0669X0.0866*%
%ADD20R,0.0669X0.0512*%
%ADD21R,0.0512X0.0512*%
%ADD22R,0.0512X0.0866*%
%ADD23C,0.0960*%
%ADD24C,0.0965*%
%ADD25C,0.0985*%
%ADD26R,0.0355X0.0394*%
%ADD27R,0.0394X0.0207*%
%ADD28C,0.1040*%
%ADD29OC8,0.1040*%
%ADD30R,0.0400X0.0360*%
%ADD31R,0.0257X0.0355*%
%ADD32R,0.0965X0.2583*%
%ADD33R,0.0670X0.0158*%
%ADD34R,0.0207X0.0394*%
%ADD35C,0.4000*%
%ADD36C,0.3790*%
%ADD37C,0.3140*%
%ADD38C,0.0640*%
%ADD39R,0.0640X0.0640*%
%ADD40C,0.0532*%
%ADD41R,0.0420X0.0580*%
%ADD42R,0.0434X0.0749*%
%ADD43R,0.1090X0.1090*%
%ADD44C,0.1090*%
%ADD45C,0.1080*%
%ADD46C,0.0805*%
%ADD47R,0.1536X0.1142*%
%ADD48C,0.1400*%
%ADD49C,0.0590*%
%ADD50R,0.0276X0.0906*%
%ADD51R,0.0340X0.0340*%
%ADD52C,0.0790*%
%ADD53C,0.1180*%
%ADD54OC8,0.0670*%
%ADD55C,0.0670*%
%ADD56C,0.0208*%
%ADD57R,0.2009X0.1260*%
%ADD58R,0.0158X0.0197*%
%ADD59R,0.0197X0.0158*%
%ADD60R,0.1154X0.0394*%
%ADD61R,0.1154X0.0906*%
%ADD62R,0.0670X0.1497*%
%ADD63R,0.0288X0.0367*%
%ADD64R,0.0749X0.0434*%
%ADD65C,0.0430*%
%ADD66R,0.0580X0.0420*%
%ADD67C,0.0340*%
%ADD68C,0.0260*%
%ADD69C,0.0290*%
%ADD70C,0.3540*%
%ADD71C,0.4764*%
%ADD72C,0.0490*%
%ADD73C,0.0280*%
D10*
X004087Y017867D03*
X017867Y004087D03*
X037552Y004087D03*
X057237Y004087D03*
X076922Y004087D03*
X096607Y004087D03*
X116292Y004087D03*
X130071Y017867D03*
X130071Y037552D03*
X130071Y057237D03*
X130071Y076922D03*
X130071Y096607D03*
X130071Y116292D03*
X004087Y116292D03*
X004087Y096607D03*
X004087Y076922D03*
X004087Y057237D03*
X004087Y037552D03*
D11*
X018379Y049879D03*
D12*
X003886Y126134D02*
X003888Y126162D01*
X003894Y126189D01*
X003903Y126216D01*
X003917Y126241D01*
X003933Y126263D01*
X003953Y126283D01*
X003975Y126301D01*
X003999Y126315D01*
X004025Y126325D01*
X004052Y126332D01*
X004080Y126335D01*
X004108Y126334D01*
X004136Y126329D01*
X004162Y126320D01*
X004187Y126308D01*
X004211Y126292D01*
X004232Y126274D01*
X004250Y126252D01*
X004264Y126228D01*
X004276Y126203D01*
X004284Y126176D01*
X004288Y126148D01*
X004288Y126120D01*
X004284Y126092D01*
X004276Y126065D01*
X004264Y126040D01*
X004250Y126016D01*
X004232Y125994D01*
X004211Y125976D01*
X004188Y125960D01*
X004162Y125948D01*
X004136Y125939D01*
X004108Y125934D01*
X004080Y125933D01*
X004052Y125936D01*
X004025Y125943D01*
X003999Y125953D01*
X003975Y125967D01*
X003953Y125985D01*
X003933Y126005D01*
X003917Y126027D01*
X003903Y126052D01*
X003894Y126079D01*
X003888Y126106D01*
X003886Y126134D01*
X129870Y008024D02*
X129872Y008052D01*
X129878Y008079D01*
X129887Y008106D01*
X129901Y008131D01*
X129917Y008153D01*
X129937Y008173D01*
X129959Y008191D01*
X129983Y008205D01*
X130009Y008215D01*
X130036Y008222D01*
X130064Y008225D01*
X130092Y008224D01*
X130120Y008219D01*
X130146Y008210D01*
X130171Y008198D01*
X130195Y008182D01*
X130216Y008164D01*
X130234Y008142D01*
X130248Y008118D01*
X130260Y008093D01*
X130268Y008066D01*
X130272Y008038D01*
X130272Y008010D01*
X130268Y007982D01*
X130260Y007955D01*
X130248Y007930D01*
X130234Y007906D01*
X130216Y007884D01*
X130195Y007866D01*
X130172Y007850D01*
X130146Y007838D01*
X130120Y007829D01*
X130092Y007824D01*
X130064Y007823D01*
X130036Y007826D01*
X130009Y007833D01*
X129983Y007843D01*
X129959Y007857D01*
X129937Y007875D01*
X129917Y007895D01*
X129901Y007917D01*
X129887Y007942D01*
X129878Y007969D01*
X129872Y007996D01*
X129870Y008024D01*
D13*
X087847Y016193D03*
X087650Y016193D03*
X087453Y016193D03*
X087256Y016193D03*
X087059Y016193D03*
X086863Y016193D03*
X086666Y016193D03*
X086469Y016193D03*
X086272Y016193D03*
X086075Y016193D03*
X085878Y016193D03*
X085681Y016193D03*
X085681Y019540D03*
X085878Y019540D03*
X086075Y019540D03*
X086272Y019540D03*
X086469Y019540D03*
X086666Y019540D03*
X086863Y019540D03*
X087059Y019540D03*
X087256Y019540D03*
X087453Y019540D03*
X087650Y019540D03*
X087847Y019540D03*
X045577Y075248D03*
X045380Y075248D03*
X045183Y075248D03*
X044986Y075248D03*
X044789Y075248D03*
X044593Y075248D03*
X044396Y075248D03*
X044199Y075248D03*
X044002Y075248D03*
X043805Y075248D03*
X043608Y075248D03*
X043411Y075248D03*
X043411Y078595D03*
X043608Y078595D03*
X043805Y078595D03*
X044002Y078595D03*
X044199Y078595D03*
X044396Y078595D03*
X044593Y078595D03*
X044789Y078595D03*
X044986Y078595D03*
X045183Y078595D03*
X045380Y078595D03*
X045577Y078595D03*
X046311Y114619D03*
X046508Y114619D03*
X046705Y114619D03*
X046902Y114619D03*
X047099Y114619D03*
X047296Y114619D03*
X047493Y114619D03*
X047689Y114619D03*
X047886Y114619D03*
X048083Y114619D03*
X048280Y114619D03*
X048477Y114619D03*
X048477Y117965D03*
X048280Y117965D03*
X048083Y117965D03*
X047886Y117965D03*
X047689Y117965D03*
X047493Y117965D03*
X047296Y117965D03*
X047099Y117965D03*
X046902Y117965D03*
X046705Y117965D03*
X046508Y117965D03*
X046311Y117965D03*
X115209Y088437D03*
X115406Y088437D03*
X115603Y088437D03*
X115800Y088437D03*
X115996Y088437D03*
X116193Y088437D03*
X116390Y088437D03*
X116587Y088437D03*
X116784Y088437D03*
X116981Y088437D03*
X117178Y088437D03*
X117374Y088437D03*
X117374Y085091D03*
X117178Y085091D03*
X116981Y085091D03*
X116784Y085091D03*
X116587Y085091D03*
X116390Y085091D03*
X116193Y085091D03*
X115996Y085091D03*
X115800Y085091D03*
X115603Y085091D03*
X115406Y085091D03*
X115209Y085091D03*
X029677Y039225D03*
X029480Y039225D03*
X029283Y039225D03*
X029086Y039225D03*
X028889Y039225D03*
X028693Y039225D03*
X028496Y039225D03*
X028299Y039225D03*
X028102Y039225D03*
X027905Y039225D03*
X027708Y039225D03*
X027511Y039225D03*
X027511Y035878D03*
X027708Y035878D03*
X027905Y035878D03*
X028102Y035878D03*
X028299Y035878D03*
X028496Y035878D03*
X028693Y035878D03*
X028889Y035878D03*
X029086Y035878D03*
X029283Y035878D03*
X029480Y035878D03*
X029677Y035878D03*
D14*
X030267Y036469D03*
X030267Y036666D03*
X030267Y036863D03*
X030267Y037059D03*
X030267Y037256D03*
X030267Y037453D03*
X030267Y037650D03*
X030267Y037847D03*
X030267Y038044D03*
X030267Y038241D03*
X030267Y038437D03*
X030267Y038634D03*
X026921Y038634D03*
X026921Y038437D03*
X026921Y038241D03*
X026921Y038044D03*
X026921Y037847D03*
X026921Y037650D03*
X026921Y037453D03*
X026921Y037256D03*
X026921Y037059D03*
X026921Y036863D03*
X026921Y036666D03*
X026921Y036469D03*
X042821Y075839D03*
X042821Y076036D03*
X042821Y076233D03*
X042821Y076430D03*
X042821Y076626D03*
X042821Y076823D03*
X042821Y077020D03*
X042821Y077217D03*
X042821Y077414D03*
X042821Y077611D03*
X042821Y077807D03*
X042821Y078004D03*
X046167Y078004D03*
X046167Y077807D03*
X046167Y077611D03*
X046167Y077414D03*
X046167Y077217D03*
X046167Y077020D03*
X046167Y076823D03*
X046167Y076626D03*
X046167Y076430D03*
X046167Y076233D03*
X046167Y076036D03*
X046167Y075839D03*
X045721Y115209D03*
X045721Y115406D03*
X045721Y115603D03*
X045721Y115800D03*
X045721Y115996D03*
X045721Y116193D03*
X045721Y116390D03*
X045721Y116587D03*
X045721Y116784D03*
X045721Y116981D03*
X045721Y117178D03*
X045721Y117374D03*
X049067Y117374D03*
X049067Y117178D03*
X049067Y116981D03*
X049067Y116784D03*
X049067Y116587D03*
X049067Y116390D03*
X049067Y116193D03*
X049067Y115996D03*
X049067Y115800D03*
X049067Y115603D03*
X049067Y115406D03*
X049067Y115209D03*
X114619Y087847D03*
X114619Y087650D03*
X114619Y087453D03*
X114619Y087256D03*
X114619Y087059D03*
X114619Y086863D03*
X114619Y086666D03*
X114619Y086469D03*
X114619Y086272D03*
X114619Y086075D03*
X114619Y085878D03*
X114619Y085681D03*
X117965Y085681D03*
X117965Y085878D03*
X117965Y086075D03*
X117965Y086272D03*
X117965Y086469D03*
X117965Y086666D03*
X117965Y086863D03*
X117965Y087059D03*
X117965Y087256D03*
X117965Y087453D03*
X117965Y087650D03*
X117965Y087847D03*
X088437Y018949D03*
X088437Y018752D03*
X088437Y018556D03*
X088437Y018359D03*
X088437Y018162D03*
X088437Y017965D03*
X088437Y017768D03*
X088437Y017571D03*
X088437Y017374D03*
X088437Y017178D03*
X088437Y016981D03*
X088437Y016784D03*
X085091Y016784D03*
X085091Y016981D03*
X085091Y017178D03*
X085091Y017374D03*
X085091Y017571D03*
X085091Y017768D03*
X085091Y017965D03*
X085091Y018162D03*
X085091Y018359D03*
X085091Y018556D03*
X085091Y018752D03*
X085091Y018949D03*
D15*
X084692Y020229D03*
X084112Y020229D03*
X083284Y020224D03*
X082704Y020224D03*
X080581Y021737D03*
X080001Y021737D03*
X080283Y021194D03*
X079703Y021194D03*
X082704Y017724D03*
X083284Y017724D03*
X083284Y016324D03*
X082704Y016324D03*
X082704Y015624D03*
X083284Y015624D03*
X085704Y013824D03*
X086284Y013824D03*
X086904Y013824D03*
X087484Y013824D03*
X087484Y014524D03*
X086904Y014524D03*
X086904Y015224D03*
X087484Y015224D03*
X091204Y016904D03*
X091784Y016904D03*
X091784Y017604D03*
X091204Y017604D03*
X092304Y018624D03*
X092884Y018624D03*
X091384Y019424D03*
X090804Y019424D03*
X090804Y020124D03*
X091384Y020124D03*
X089684Y019924D03*
X089104Y019924D03*
X089104Y019024D03*
X089684Y019024D03*
X086884Y022024D03*
X086304Y022024D03*
X099289Y020579D03*
X099869Y020579D03*
X099609Y019609D03*
X100189Y019609D03*
X104004Y019724D03*
X104584Y019724D03*
X104584Y020424D03*
X104004Y020424D03*
X118689Y030319D03*
X118689Y030859D03*
X119269Y030859D03*
X119269Y030319D03*
X120009Y030079D03*
X120009Y029539D03*
X120589Y029539D03*
X120589Y030079D03*
X120589Y030619D03*
X120589Y031159D03*
X120589Y031699D03*
X120589Y032239D03*
X120589Y032779D03*
X120589Y033319D03*
X120589Y033859D03*
X120589Y034399D03*
X120589Y034939D03*
X120009Y034939D03*
X120009Y034399D03*
X120009Y033859D03*
X120009Y033319D03*
X120009Y032779D03*
X120009Y032239D03*
X120009Y031699D03*
X120009Y031159D03*
X120009Y030619D03*
X069484Y016024D03*
X068904Y016024D03*
X068904Y015324D03*
X069484Y015324D03*
X042514Y039409D03*
X041934Y039409D03*
X041934Y040109D03*
X042514Y040109D03*
X037709Y040279D03*
X037129Y040279D03*
X034714Y038309D03*
X034134Y038309D03*
X033614Y037289D03*
X033034Y037289D03*
X033034Y036589D03*
X033614Y036589D03*
X033214Y039109D03*
X032634Y039109D03*
X032634Y039809D03*
X033214Y039809D03*
X031514Y039609D03*
X030934Y039609D03*
X030934Y038709D03*
X031514Y038709D03*
X028714Y041709D03*
X028134Y041709D03*
X026522Y039914D03*
X025942Y039914D03*
X025114Y039909D03*
X024534Y039909D03*
X024534Y037409D03*
X025114Y037409D03*
X025114Y036009D03*
X024534Y036009D03*
X024534Y035309D03*
X025114Y035309D03*
X023439Y035309D03*
X022859Y035309D03*
X027534Y033509D03*
X028114Y033509D03*
X028734Y033509D03*
X029314Y033509D03*
X029314Y034209D03*
X028734Y034209D03*
X028734Y034909D03*
X029314Y034909D03*
X022113Y040879D03*
X021533Y040879D03*
X021831Y041422D03*
X022411Y041422D03*
X016314Y035709D03*
X015734Y035709D03*
X015734Y035009D03*
X016314Y035009D03*
X030189Y044179D03*
X030769Y044179D03*
X038589Y035679D03*
X039169Y035679D03*
X043434Y072879D03*
X044014Y072879D03*
X044634Y072879D03*
X045214Y072879D03*
X045214Y073579D03*
X044634Y073579D03*
X044634Y074279D03*
X045214Y074279D03*
X046834Y078079D03*
X047414Y078079D03*
X047414Y078979D03*
X046834Y078979D03*
X048534Y079179D03*
X049114Y079179D03*
X049114Y078479D03*
X048534Y078479D03*
X050034Y077679D03*
X050614Y077679D03*
X049514Y076659D03*
X048934Y076659D03*
X048934Y075959D03*
X049514Y075959D03*
X044614Y081079D03*
X044034Y081079D03*
X044089Y083479D03*
X044669Y083479D03*
X042422Y079284D03*
X041842Y079284D03*
X040514Y079279D03*
X039934Y079279D03*
X038513Y080249D03*
X037933Y080249D03*
X038231Y080792D03*
X038811Y080792D03*
X040434Y076779D03*
X041014Y076779D03*
X041014Y075379D03*
X040434Y075379D03*
X040434Y074679D03*
X041014Y074679D03*
X030114Y074379D03*
X029534Y074379D03*
X029534Y075079D03*
X030114Y075079D03*
X035069Y094619D03*
X035069Y095159D03*
X035069Y095699D03*
X035069Y096239D03*
X035069Y096779D03*
X035069Y097319D03*
X035069Y097859D03*
X035069Y098399D03*
X035069Y098939D03*
X035069Y099479D03*
X035069Y100019D03*
X035649Y100019D03*
X035649Y099479D03*
X035649Y098939D03*
X035649Y098399D03*
X035649Y097859D03*
X035649Y097319D03*
X035649Y096779D03*
X035649Y096239D03*
X035649Y095699D03*
X035649Y095159D03*
X035649Y094619D03*
X036389Y098699D03*
X036389Y099239D03*
X036969Y099239D03*
X036969Y098699D03*
X046334Y112249D03*
X046914Y112249D03*
X047534Y112249D03*
X048114Y112249D03*
X048114Y112949D03*
X047534Y112949D03*
X047534Y113649D03*
X048114Y113649D03*
X051834Y115329D03*
X052414Y115329D03*
X052414Y116029D03*
X051834Y116029D03*
X052934Y117049D03*
X053514Y117049D03*
X052014Y117849D03*
X051434Y117849D03*
X051434Y118549D03*
X052014Y118549D03*
X050314Y118349D03*
X049734Y118349D03*
X049734Y117449D03*
X050314Y117449D03*
X047514Y120449D03*
X046934Y120449D03*
X045322Y118654D03*
X044742Y118654D03*
X043914Y118649D03*
X043334Y118649D03*
X043334Y116149D03*
X043914Y116149D03*
X043914Y114749D03*
X043334Y114749D03*
X043334Y114049D03*
X043914Y114049D03*
X040913Y119619D03*
X040333Y119619D03*
X040631Y120162D03*
X041211Y120162D03*
X048789Y122279D03*
X049369Y122279D03*
X040769Y130079D03*
X040189Y130079D03*
X030114Y114449D03*
X029534Y114449D03*
X029534Y113749D03*
X030114Y113749D03*
X060089Y118979D03*
X060669Y118979D03*
X060889Y117999D03*
X060309Y117999D03*
X064634Y118149D03*
X065214Y118149D03*
X065214Y118849D03*
X064634Y118849D03*
X072034Y087079D03*
X072614Y087079D03*
X072614Y086379D03*
X072034Y086379D03*
X070269Y083879D03*
X069689Y083879D03*
X065649Y084459D03*
X065069Y084459D03*
X098489Y097519D03*
X098489Y098059D03*
X099069Y098059D03*
X099069Y097519D03*
X099809Y097279D03*
X099809Y096739D03*
X100389Y096739D03*
X100389Y097279D03*
X100389Y097819D03*
X100389Y098359D03*
X100389Y098899D03*
X100389Y099439D03*
X100389Y099979D03*
X100389Y100519D03*
X100389Y101059D03*
X100389Y101599D03*
X100389Y102139D03*
X099809Y102139D03*
X099809Y101599D03*
X099809Y101059D03*
X099809Y100519D03*
X099809Y099979D03*
X099809Y099439D03*
X099809Y098899D03*
X099809Y098359D03*
X099809Y097819D03*
X102889Y084679D03*
X103469Y084679D03*
D16*
X053696Y117775D03*
X053696Y118149D03*
X053696Y118523D03*
X052752Y118523D03*
X052752Y117775D03*
X050796Y079153D03*
X050796Y078779D03*
X050796Y078405D03*
X049852Y078405D03*
X049852Y079153D03*
X034896Y039783D03*
X034896Y039409D03*
X034896Y039035D03*
X033952Y039035D03*
X033952Y039783D03*
X092122Y020098D03*
X092122Y019350D03*
X093067Y019350D03*
X093067Y019724D03*
X093067Y020098D03*
D17*
X106449Y017867D03*
X067079Y017867D03*
X044379Y037552D03*
X013909Y037552D03*
X027709Y076922D03*
X027709Y116292D03*
X067079Y116292D03*
X074479Y084522D03*
D18*
X074351Y085624D03*
X074095Y085624D03*
X073839Y085624D03*
X073583Y085624D03*
X073328Y085624D03*
X073072Y085624D03*
X072816Y085624D03*
X074607Y085624D03*
X074863Y085624D03*
X075119Y085624D03*
X075375Y085624D03*
X075631Y085624D03*
X075887Y085624D03*
X076143Y085624D03*
X076143Y083419D03*
X075887Y083419D03*
X075631Y083419D03*
X075375Y083419D03*
X075119Y083419D03*
X074863Y083419D03*
X074607Y083419D03*
X074351Y083419D03*
X074095Y083419D03*
X073839Y083419D03*
X073583Y083419D03*
X073328Y083419D03*
X073072Y083419D03*
X072816Y083419D03*
X068743Y115189D03*
X068487Y115189D03*
X068231Y115189D03*
X067975Y115189D03*
X067719Y115189D03*
X067463Y115189D03*
X067207Y115189D03*
X066951Y115189D03*
X066695Y115189D03*
X066439Y115189D03*
X066183Y115189D03*
X065928Y115189D03*
X065672Y115189D03*
X065416Y115189D03*
X065416Y117394D03*
X065672Y117394D03*
X065928Y117394D03*
X066183Y117394D03*
X066439Y117394D03*
X066695Y117394D03*
X066951Y117394D03*
X067207Y117394D03*
X067463Y117394D03*
X067719Y117394D03*
X067975Y117394D03*
X068231Y117394D03*
X068487Y117394D03*
X068743Y117394D03*
X029372Y117394D03*
X029117Y117394D03*
X028861Y117394D03*
X028605Y117394D03*
X028349Y117394D03*
X028093Y117394D03*
X027837Y117394D03*
X027581Y117394D03*
X027325Y117394D03*
X027069Y117394D03*
X026813Y117394D03*
X026557Y117394D03*
X026302Y117394D03*
X026046Y117394D03*
X026046Y115189D03*
X026302Y115189D03*
X026557Y115189D03*
X026813Y115189D03*
X027069Y115189D03*
X027325Y115189D03*
X027581Y115189D03*
X027837Y115189D03*
X028093Y115189D03*
X028349Y115189D03*
X028605Y115189D03*
X028861Y115189D03*
X029117Y115189D03*
X029372Y115189D03*
X029372Y078024D03*
X029117Y078024D03*
X028861Y078024D03*
X028605Y078024D03*
X028349Y078024D03*
X028093Y078024D03*
X027837Y078024D03*
X027581Y078024D03*
X027325Y078024D03*
X027069Y078024D03*
X026813Y078024D03*
X026557Y078024D03*
X026302Y078024D03*
X026046Y078024D03*
X026046Y075819D03*
X026302Y075819D03*
X026557Y075819D03*
X026813Y075819D03*
X027069Y075819D03*
X027325Y075819D03*
X027581Y075819D03*
X027837Y075819D03*
X028093Y075819D03*
X028349Y075819D03*
X028605Y075819D03*
X028861Y075819D03*
X029117Y075819D03*
X029372Y075819D03*
X042716Y038654D03*
X042972Y038654D03*
X043228Y038654D03*
X043483Y038654D03*
X043739Y038654D03*
X043995Y038654D03*
X044251Y038654D03*
X044507Y038654D03*
X044763Y038654D03*
X045019Y038654D03*
X045275Y038654D03*
X045531Y038654D03*
X045787Y038654D03*
X046043Y038654D03*
X046043Y036449D03*
X045787Y036449D03*
X045531Y036449D03*
X045275Y036449D03*
X045019Y036449D03*
X044763Y036449D03*
X044507Y036449D03*
X044251Y036449D03*
X043995Y036449D03*
X043739Y036449D03*
X043483Y036449D03*
X043228Y036449D03*
X042972Y036449D03*
X042716Y036449D03*
X065416Y018969D03*
X065672Y018969D03*
X065928Y018969D03*
X066183Y018969D03*
X066439Y018969D03*
X066695Y018969D03*
X066951Y018969D03*
X067207Y018969D03*
X067463Y018969D03*
X067719Y018969D03*
X067975Y018969D03*
X068231Y018969D03*
X068487Y018969D03*
X068743Y018969D03*
X068743Y016764D03*
X068487Y016764D03*
X068231Y016764D03*
X067975Y016764D03*
X067719Y016764D03*
X067463Y016764D03*
X067207Y016764D03*
X066951Y016764D03*
X066695Y016764D03*
X066439Y016764D03*
X066183Y016764D03*
X065928Y016764D03*
X065672Y016764D03*
X065416Y016764D03*
X104786Y016764D03*
X105042Y016764D03*
X105298Y016764D03*
X105554Y016764D03*
X105809Y016764D03*
X106065Y016764D03*
X106321Y016764D03*
X106577Y016764D03*
X106833Y016764D03*
X107089Y016764D03*
X107345Y016764D03*
X107601Y016764D03*
X107857Y016764D03*
X108113Y016764D03*
X108113Y018969D03*
X107857Y018969D03*
X107601Y018969D03*
X107345Y018969D03*
X107089Y018969D03*
X106833Y018969D03*
X106577Y018969D03*
X106321Y018969D03*
X106065Y018969D03*
X105809Y018969D03*
X105554Y018969D03*
X105298Y018969D03*
X105042Y018969D03*
X104786Y018969D03*
X015572Y036449D03*
X015317Y036449D03*
X015061Y036449D03*
X014805Y036449D03*
X014549Y036449D03*
X014293Y036449D03*
X014037Y036449D03*
X013781Y036449D03*
X013525Y036449D03*
X013269Y036449D03*
X013013Y036449D03*
X012757Y036449D03*
X012502Y036449D03*
X012246Y036449D03*
X012246Y038654D03*
X012502Y038654D03*
X012757Y038654D03*
X013013Y038654D03*
X013269Y038654D03*
X013525Y038654D03*
X013781Y038654D03*
X014037Y038654D03*
X014293Y038654D03*
X014549Y038654D03*
X014805Y038654D03*
X015061Y038654D03*
X015317Y038654D03*
X015572Y038654D03*
D19*
X008634Y047670D03*
X007414Y047670D03*
X007414Y027985D03*
X008634Y027985D03*
X027099Y027985D03*
X028319Y027985D03*
X046784Y027985D03*
X048004Y027985D03*
X066469Y027985D03*
X067689Y027985D03*
X086154Y027985D03*
X087374Y027985D03*
X105839Y027985D03*
X107059Y027985D03*
X125524Y027985D03*
X126744Y027985D03*
X126744Y047670D03*
X125524Y047670D03*
X107059Y047670D03*
X105839Y047670D03*
X087374Y047670D03*
X086154Y047670D03*
X067689Y047670D03*
X066469Y047670D03*
X048004Y047670D03*
X046784Y047670D03*
X028319Y047670D03*
X027099Y047670D03*
X027099Y067355D03*
X028319Y067355D03*
X046784Y067355D03*
X048004Y067355D03*
X066469Y067355D03*
X067689Y067355D03*
X086154Y067355D03*
X087374Y067355D03*
X105839Y067355D03*
X107059Y067355D03*
X125524Y067355D03*
X126744Y067355D03*
X126744Y087040D03*
X125524Y087040D03*
X107059Y087040D03*
X105839Y087040D03*
X087374Y087040D03*
X086154Y087040D03*
X067689Y087040D03*
X066469Y087040D03*
X048004Y087040D03*
X046784Y087040D03*
X028319Y087040D03*
X027099Y087040D03*
X008634Y087040D03*
X007414Y087040D03*
X007414Y106725D03*
X008634Y106725D03*
X027099Y106725D03*
X028319Y106725D03*
X046784Y106725D03*
X048004Y106725D03*
X066469Y106725D03*
X067689Y106725D03*
X086154Y106725D03*
X087374Y106725D03*
X105839Y106725D03*
X107059Y106725D03*
X125524Y106725D03*
X126744Y106725D03*
X126744Y126410D03*
X125524Y126410D03*
X107059Y126410D03*
X105839Y126410D03*
X087374Y126410D03*
X086154Y126410D03*
X067689Y126410D03*
X066469Y126410D03*
X048004Y126410D03*
X046784Y126410D03*
X028319Y126410D03*
X027099Y126410D03*
X008634Y126410D03*
X007414Y126410D03*
X007414Y067355D03*
X008634Y067355D03*
X008634Y008300D03*
X007414Y008300D03*
X027099Y008300D03*
X028319Y008300D03*
X046784Y008300D03*
X048004Y008300D03*
X066469Y008300D03*
X067689Y008300D03*
X086154Y008300D03*
X087374Y008300D03*
X105839Y008300D03*
X107059Y008300D03*
X125524Y008300D03*
X126744Y008300D03*
D20*
X126744Y007571D03*
X125524Y007571D03*
X107059Y007571D03*
X105839Y007571D03*
X087374Y007571D03*
X086154Y007571D03*
X067689Y007571D03*
X066469Y007571D03*
X048004Y007571D03*
X046784Y007571D03*
X028319Y007571D03*
X027099Y007571D03*
X008634Y007571D03*
X007414Y007571D03*
X007414Y027256D03*
X008634Y027256D03*
X027099Y027256D03*
X028319Y027256D03*
X046784Y027256D03*
X048004Y027256D03*
X066469Y027256D03*
X067689Y027256D03*
X086154Y027256D03*
X087374Y027256D03*
X105839Y027256D03*
X107059Y027256D03*
X125524Y027256D03*
X126744Y027256D03*
X126744Y046941D03*
X125524Y046941D03*
X107059Y046941D03*
X105839Y046941D03*
X087374Y046941D03*
X086154Y046941D03*
X067689Y046941D03*
X066469Y046941D03*
X048004Y046941D03*
X046784Y046941D03*
X028319Y046941D03*
X027099Y046941D03*
X008634Y046941D03*
X007414Y046941D03*
X007414Y066626D03*
X008634Y066626D03*
X027099Y066626D03*
X028319Y066626D03*
X046784Y066626D03*
X048004Y066626D03*
X066469Y066626D03*
X067689Y066626D03*
X086154Y066626D03*
X087374Y066626D03*
X105839Y066626D03*
X107059Y066626D03*
X125524Y066626D03*
X126744Y066626D03*
X126744Y086311D03*
X125524Y086311D03*
X107059Y086311D03*
X105839Y086311D03*
X087374Y086311D03*
X086154Y086311D03*
X067689Y086311D03*
X066469Y086311D03*
X048004Y086311D03*
X046784Y086311D03*
X028319Y086311D03*
X027099Y086311D03*
X008634Y086311D03*
X007414Y086311D03*
X007414Y105996D03*
X008634Y105996D03*
X027099Y105996D03*
X028319Y105996D03*
X046784Y105996D03*
X048004Y105996D03*
X066469Y105996D03*
X067689Y105996D03*
X086154Y105996D03*
X087374Y105996D03*
X105839Y105996D03*
X107059Y105996D03*
X125524Y105996D03*
X126744Y105996D03*
X126744Y125681D03*
X125524Y125681D03*
X107059Y125681D03*
X105839Y125681D03*
X087374Y125681D03*
X086154Y125681D03*
X067689Y125681D03*
X066469Y125681D03*
X048004Y125681D03*
X046784Y125681D03*
X028319Y125681D03*
X027099Y125681D03*
X008634Y125681D03*
X007414Y125681D03*
D21*
X008024Y126587D03*
X008024Y106902D03*
X008024Y087217D03*
X008024Y067532D03*
X027709Y067532D03*
X027709Y087217D03*
X027709Y106902D03*
X027709Y126587D03*
X047394Y126587D03*
X047394Y106902D03*
X047394Y087217D03*
X047394Y067532D03*
X067079Y067532D03*
X067079Y087217D03*
X067079Y106902D03*
X067079Y126587D03*
X086764Y126587D03*
X086764Y106902D03*
X086764Y087217D03*
X086764Y067532D03*
X086764Y047847D03*
X067079Y047847D03*
X047394Y047847D03*
X047394Y028162D03*
X047394Y008477D03*
X027709Y008477D03*
X027709Y028162D03*
X027709Y047847D03*
X008024Y047847D03*
X008024Y028162D03*
X008024Y008477D03*
X067079Y008477D03*
X067079Y028162D03*
X086764Y028162D03*
X086764Y008477D03*
X106449Y008477D03*
X106449Y028162D03*
X106449Y047847D03*
X106449Y067532D03*
X106449Y087217D03*
X106449Y106902D03*
X106449Y126587D03*
X126134Y126587D03*
X126134Y106902D03*
X126134Y087217D03*
X126134Y067532D03*
X126134Y047847D03*
X126134Y028162D03*
X126134Y008477D03*
D22*
X126134Y007752D03*
X126134Y027437D03*
X106449Y027437D03*
X106449Y007752D03*
X086764Y007752D03*
X067079Y007752D03*
X047394Y007752D03*
X047394Y027437D03*
X027709Y027437D03*
X027709Y007752D03*
X008024Y007752D03*
X008024Y027437D03*
X008024Y047122D03*
X008024Y066807D03*
X008024Y086493D03*
X008024Y106178D03*
X008024Y125863D03*
X027709Y125863D03*
X027709Y106178D03*
X047394Y106178D03*
X047394Y125863D03*
X067079Y125863D03*
X067079Y106178D03*
X086764Y106178D03*
X086764Y125863D03*
X106449Y125863D03*
X106449Y106178D03*
X126134Y106178D03*
X126134Y125863D03*
X126134Y086493D03*
X126134Y066807D03*
X126134Y047122D03*
X106449Y047122D03*
X106449Y066807D03*
X106449Y086493D03*
X086764Y086493D03*
X067079Y086493D03*
X047394Y086493D03*
X047394Y066807D03*
X047394Y047122D03*
X027709Y047122D03*
X027709Y066807D03*
X027709Y086493D03*
X067079Y066807D03*
X067079Y047122D03*
X067079Y027437D03*
X086764Y027437D03*
X086764Y047122D03*
X086764Y066807D03*
D23*
X006149Y008024D03*
X009899Y008024D03*
X025834Y008024D03*
X029584Y008024D03*
X045519Y008024D03*
X049269Y008024D03*
X065204Y008024D03*
X068954Y008024D03*
X084889Y008024D03*
X088639Y008024D03*
X104574Y008024D03*
X108324Y008024D03*
X124259Y008024D03*
X128009Y008024D03*
X128009Y027709D03*
X124259Y027709D03*
X108324Y027709D03*
X104574Y027709D03*
X088639Y027709D03*
X084889Y027709D03*
X068954Y027709D03*
X065204Y027709D03*
X049269Y027709D03*
X045519Y027709D03*
X029584Y027709D03*
X025834Y027709D03*
X009899Y027709D03*
X006149Y027709D03*
X006149Y047394D03*
X009899Y047394D03*
X025834Y047394D03*
X029584Y047394D03*
X045519Y047394D03*
X049269Y047394D03*
X065204Y047394D03*
X068954Y047394D03*
X084889Y047394D03*
X088639Y047394D03*
X104574Y047394D03*
X108324Y047394D03*
X124259Y047394D03*
X128009Y047394D03*
X128009Y067079D03*
X124259Y067079D03*
X108324Y067079D03*
X104574Y067079D03*
X088639Y067079D03*
X084889Y067079D03*
X068954Y067079D03*
X065204Y067079D03*
X049269Y067079D03*
X045519Y067079D03*
X029584Y067079D03*
X025834Y067079D03*
X009899Y067079D03*
X006149Y067079D03*
X006149Y086764D03*
X009899Y086764D03*
X025834Y086764D03*
X029584Y086764D03*
X045519Y086764D03*
X049269Y086764D03*
X065204Y086764D03*
X068954Y086764D03*
X084889Y086764D03*
X088639Y086764D03*
X104574Y086764D03*
X108324Y086764D03*
X124259Y086764D03*
X128009Y086764D03*
X128009Y106449D03*
X124259Y106449D03*
X108324Y106449D03*
X104574Y106449D03*
X088639Y106449D03*
X084889Y106449D03*
X068954Y106449D03*
X065204Y106449D03*
X049269Y106449D03*
X045519Y106449D03*
X029584Y106449D03*
X025834Y106449D03*
X009899Y106449D03*
X006149Y106449D03*
X006149Y126134D03*
X009899Y126134D03*
X025834Y126134D03*
X029584Y126134D03*
X045519Y126134D03*
X049269Y126134D03*
X065204Y126134D03*
X068954Y126134D03*
X084889Y126134D03*
X088639Y126134D03*
X104574Y126134D03*
X108324Y126134D03*
X124259Y126134D03*
X128009Y126134D03*
D24*
X126134Y124658D03*
X126134Y127611D03*
X126134Y107926D03*
X126134Y104973D03*
X126134Y088241D03*
X126134Y085288D03*
X126134Y068556D03*
X126134Y065603D03*
X126134Y048870D03*
X126134Y045918D03*
X126134Y029185D03*
X126134Y026233D03*
X126134Y009500D03*
X126134Y006548D03*
X106449Y006548D03*
X106449Y009500D03*
X106449Y026233D03*
X106449Y029185D03*
X106449Y045918D03*
X106449Y048870D03*
X106449Y065603D03*
X106449Y068556D03*
X106449Y085288D03*
X106449Y088241D03*
X106449Y104973D03*
X106449Y107926D03*
X106449Y124658D03*
X106449Y127611D03*
X086764Y127611D03*
X086764Y124658D03*
X086764Y107926D03*
X086764Y104973D03*
X086764Y088241D03*
X086764Y085288D03*
X086764Y068556D03*
X086764Y065603D03*
X086764Y048870D03*
X086764Y045918D03*
X086764Y029185D03*
X086764Y026233D03*
X086764Y009500D03*
X086764Y006548D03*
X067079Y006548D03*
X067079Y009500D03*
X067079Y026233D03*
X067079Y029185D03*
X067079Y045918D03*
X067079Y048870D03*
X067079Y065603D03*
X067079Y068556D03*
X067079Y085288D03*
X067079Y088241D03*
X067079Y104973D03*
X067079Y107926D03*
X067079Y124658D03*
X067079Y127611D03*
X047394Y127611D03*
X047394Y124658D03*
X047394Y107926D03*
X047394Y104973D03*
X047394Y088241D03*
X047394Y085288D03*
X047394Y068556D03*
X047394Y065603D03*
X047394Y048870D03*
X047394Y045918D03*
X047394Y029185D03*
X047394Y026233D03*
X047394Y009500D03*
X047394Y006548D03*
X027709Y006548D03*
X027709Y009500D03*
X027709Y026233D03*
X027709Y029185D03*
X027709Y045918D03*
X027709Y048870D03*
X027709Y065603D03*
X027709Y068556D03*
X027709Y085288D03*
X027709Y088241D03*
X027709Y104973D03*
X027709Y107926D03*
X027709Y124658D03*
X027709Y127611D03*
X008024Y127611D03*
X008024Y124658D03*
X008024Y107926D03*
X008024Y104973D03*
X008024Y088241D03*
X008024Y085288D03*
X008024Y068556D03*
X008024Y065603D03*
X008024Y048870D03*
X008024Y045918D03*
X008024Y029185D03*
X008024Y026233D03*
X008024Y009500D03*
X008024Y006548D03*
D25*
X009099Y011764D03*
X012052Y011764D03*
X006146Y011764D03*
X006146Y031449D03*
X009099Y031449D03*
X012052Y031449D03*
X025831Y031449D03*
X028784Y031449D03*
X031737Y031449D03*
X045516Y031449D03*
X048469Y031449D03*
X051422Y031449D03*
X065201Y031449D03*
X068154Y031449D03*
X071107Y031449D03*
X071107Y043654D03*
X068154Y043654D03*
X065201Y043654D03*
X049272Y051134D03*
X046319Y051134D03*
X043367Y051134D03*
X031737Y051134D03*
X028784Y051134D03*
X025831Y051134D03*
X012052Y051134D03*
X009099Y051134D03*
X006146Y051134D03*
X006146Y070819D03*
X009099Y070819D03*
X012052Y070819D03*
X025831Y070819D03*
X028784Y070819D03*
X031737Y070819D03*
X043367Y070819D03*
X046319Y070819D03*
X049272Y070819D03*
X065201Y070819D03*
X068154Y070819D03*
X071107Y070819D03*
X084886Y070819D03*
X087839Y070819D03*
X090792Y070819D03*
X102422Y070819D03*
X105374Y070819D03*
X108327Y070819D03*
X124256Y070819D03*
X127209Y070819D03*
X130162Y070819D03*
X130162Y051134D03*
X127209Y051134D03*
X124256Y051134D03*
X110477Y051134D03*
X107524Y051134D03*
X104571Y051134D03*
X090792Y051134D03*
X087839Y051134D03*
X084886Y051134D03*
X084886Y031449D03*
X087839Y031449D03*
X090792Y031449D03*
X104571Y031449D03*
X107524Y031449D03*
X110477Y031449D03*
X124256Y031449D03*
X127209Y031449D03*
X130162Y031449D03*
X130162Y011764D03*
X127209Y011764D03*
X124256Y011764D03*
X110477Y011764D03*
X107524Y011764D03*
X104571Y011764D03*
X090792Y011764D03*
X087839Y011764D03*
X084886Y011764D03*
X071107Y011764D03*
X068154Y011764D03*
X065201Y011764D03*
X051422Y011764D03*
X048469Y011764D03*
X045516Y011764D03*
X031737Y011764D03*
X028784Y011764D03*
X025831Y011764D03*
X025831Y090504D03*
X028784Y090504D03*
X031737Y090504D03*
X045516Y090504D03*
X048469Y090504D03*
X051422Y090504D03*
X065201Y090504D03*
X068154Y090504D03*
X071107Y090504D03*
X084886Y090504D03*
X087839Y090504D03*
X090792Y090504D03*
X102422Y090504D03*
X105374Y090504D03*
X108327Y090504D03*
X124256Y090504D03*
X127209Y090504D03*
X130162Y090504D03*
X130162Y110189D03*
X127209Y110189D03*
X124256Y110189D03*
X108327Y110189D03*
X105374Y110189D03*
X102422Y110189D03*
X090792Y110189D03*
X087839Y110189D03*
X084886Y110189D03*
X071107Y110189D03*
X068154Y110189D03*
X065201Y110189D03*
X051422Y110189D03*
X048469Y110189D03*
X045516Y110189D03*
X031737Y110189D03*
X028784Y110189D03*
X025831Y110189D03*
X012052Y110189D03*
X009099Y110189D03*
X006146Y110189D03*
X006146Y129874D03*
X009099Y129874D03*
X012052Y129874D03*
X025831Y129874D03*
X028784Y129874D03*
X031737Y129874D03*
X045516Y129874D03*
X048469Y129874D03*
X051422Y129874D03*
X065201Y129874D03*
X068154Y129874D03*
X071107Y129874D03*
X084886Y129874D03*
X087839Y129874D03*
X090792Y129874D03*
X104571Y129874D03*
X107524Y129874D03*
X110477Y129874D03*
X122107Y129874D03*
X125059Y129874D03*
X128012Y129874D03*
X012052Y090504D03*
X009099Y090504D03*
X006146Y090504D03*
D26*
X009723Y088379D03*
X010235Y088379D03*
X029423Y088379D03*
X029935Y088379D03*
X049123Y088379D03*
X049635Y088379D03*
X049635Y108079D03*
X049123Y108079D03*
X029935Y108079D03*
X029423Y108079D03*
X010235Y108079D03*
X009723Y108079D03*
X009686Y127785D03*
X010198Y127785D03*
X029371Y127785D03*
X029883Y127785D03*
X049056Y127785D03*
X049568Y127785D03*
X068723Y127779D03*
X069235Y127779D03*
X088423Y127779D03*
X088935Y127779D03*
X108123Y127779D03*
X108635Y127779D03*
X127823Y127779D03*
X128335Y127779D03*
X128335Y108079D03*
X127823Y108079D03*
X127823Y088379D03*
X128335Y088379D03*
X128335Y068679D03*
X127823Y068679D03*
X127823Y048979D03*
X128335Y048979D03*
X128335Y029379D03*
X127823Y029379D03*
X127823Y009679D03*
X128335Y009679D03*
X108635Y009679D03*
X108123Y009679D03*
X089035Y009679D03*
X088523Y009679D03*
X069335Y009679D03*
X068823Y009679D03*
X068823Y029379D03*
X069335Y029379D03*
X088423Y029379D03*
X088935Y029379D03*
X108123Y029379D03*
X108635Y029379D03*
X108635Y048979D03*
X108123Y048979D03*
X088935Y048979D03*
X088423Y048979D03*
X069335Y049079D03*
X068823Y049079D03*
X068723Y068679D03*
X069235Y068679D03*
X088423Y068679D03*
X088935Y068679D03*
X108123Y068679D03*
X108635Y068679D03*
X108635Y088379D03*
X108123Y088379D03*
X088935Y088379D03*
X088423Y088379D03*
X069335Y088379D03*
X068823Y088379D03*
X068723Y108079D03*
X069235Y108079D03*
X088423Y108079D03*
X088935Y108079D03*
X108123Y108079D03*
X108635Y108079D03*
X049535Y068679D03*
X049023Y068679D03*
X029935Y068679D03*
X029423Y068679D03*
X010235Y068679D03*
X009723Y068679D03*
X009723Y049079D03*
X010235Y049079D03*
X023105Y036773D03*
X023853Y036773D03*
X023479Y035985D03*
X029423Y029379D03*
X029935Y029379D03*
X049123Y029379D03*
X049635Y029379D03*
X049635Y009679D03*
X049123Y009679D03*
X029935Y009679D03*
X029423Y009679D03*
X010235Y009679D03*
X009723Y009679D03*
X009723Y029379D03*
X010235Y029379D03*
X029423Y049079D03*
X029935Y049079D03*
X049123Y049079D03*
X049635Y049079D03*
D27*
X033659Y036061D03*
X033659Y035747D03*
X033659Y035432D03*
X033659Y035117D03*
X033659Y034661D03*
X033659Y034347D03*
X033659Y034032D03*
X033659Y033717D03*
X032989Y033717D03*
X032989Y034032D03*
X032989Y034347D03*
X032989Y034661D03*
X032989Y035117D03*
X032989Y035432D03*
X032989Y035747D03*
X032989Y036061D03*
X048732Y073087D03*
X048732Y073402D03*
X048732Y073717D03*
X048732Y074032D03*
X048889Y074487D03*
X048889Y074802D03*
X048889Y075117D03*
X048889Y075432D03*
X049559Y075432D03*
X049559Y075117D03*
X049559Y074802D03*
X049559Y074487D03*
X049401Y074032D03*
X049401Y073717D03*
X049401Y073402D03*
X049401Y073087D03*
X051789Y112457D03*
X051789Y112772D03*
X051789Y113087D03*
X051789Y113402D03*
X051789Y113857D03*
X051789Y114172D03*
X051789Y114487D03*
X051789Y114802D03*
X052459Y114802D03*
X052459Y114487D03*
X052459Y114172D03*
X052459Y113857D03*
X052459Y113402D03*
X052459Y113087D03*
X052459Y112772D03*
X052459Y112457D03*
X091159Y016376D03*
X091159Y016061D03*
X091159Y015747D03*
X091159Y015432D03*
X091159Y014976D03*
X091159Y014661D03*
X091159Y014347D03*
X091159Y014032D03*
X091829Y014032D03*
X091829Y014347D03*
X091829Y014661D03*
X091829Y014976D03*
X091829Y015432D03*
X091829Y015747D03*
X091829Y016061D03*
X091829Y016376D03*
D28*
X111455Y019267D03*
X115958Y028844D03*
X115292Y059974D03*
X095758Y096044D03*
X077837Y087785D03*
X072985Y117292D03*
X039700Y100715D03*
X022804Y117292D03*
X021804Y077922D03*
X008004Y038552D03*
X050285Y038552D03*
X061174Y018867D03*
X113391Y110540D03*
D29*
X113391Y112540D03*
X079837Y087785D03*
X072985Y115292D03*
X022804Y115292D03*
X021804Y075922D03*
X008004Y036552D03*
X050285Y036552D03*
X061174Y016867D03*
X111455Y017267D03*
X117292Y059974D03*
D30*
X118134Y067704D03*
X118134Y068284D03*
X118834Y068284D03*
X118834Y067704D03*
X112964Y079703D03*
X112964Y080283D03*
X112422Y080001D03*
X112422Y080581D03*
X114979Y081009D03*
X114979Y081589D03*
X114979Y082089D03*
X114979Y082669D03*
X113934Y082704D03*
X113934Y083284D03*
X113930Y084112D03*
X113930Y084692D03*
X112134Y086304D03*
X112134Y086884D03*
X114234Y089104D03*
X114234Y089684D03*
X115134Y089684D03*
X115134Y089104D03*
X114734Y090804D03*
X114734Y091384D03*
X114034Y091384D03*
X114034Y090804D03*
X115534Y092304D03*
X115534Y092884D03*
X116554Y091784D03*
X116554Y091204D03*
X117254Y091204D03*
X117254Y091784D03*
X118934Y087484D03*
X118934Y086904D03*
X119634Y086904D03*
X119634Y087484D03*
X120334Y087484D03*
X120334Y086904D03*
X120334Y086284D03*
X120334Y085704D03*
X118534Y083284D03*
X118534Y082704D03*
X117834Y082704D03*
X117834Y083284D03*
X116434Y083284D03*
X116434Y082704D03*
X116979Y081769D03*
X117519Y081769D03*
X117519Y081189D03*
X116979Y081189D03*
X113579Y096789D03*
X113579Y097369D03*
X114559Y097649D03*
X114559Y097069D03*
X114434Y105303D03*
X114434Y105883D03*
X113734Y105883D03*
X113734Y105303D03*
X098519Y101989D03*
X098519Y101409D03*
X036939Y095349D03*
X036939Y094769D03*
X056529Y032269D03*
X056529Y031689D03*
X055279Y030969D03*
X055279Y030389D03*
X059079Y026869D03*
X059079Y026289D03*
X118719Y034209D03*
X118719Y034789D03*
D31*
X114808Y092122D03*
X114060Y092122D03*
X114060Y093067D03*
X114434Y093067D03*
X114808Y093067D03*
D32*
X116292Y107748D03*
X116292Y065879D03*
D33*
X117394Y065751D03*
X117394Y065495D03*
X117394Y065239D03*
X117394Y064983D03*
X117394Y064728D03*
X117394Y064472D03*
X117394Y064216D03*
X117394Y066007D03*
X117394Y066263D03*
X117394Y066519D03*
X117394Y066775D03*
X117394Y067031D03*
X117394Y067287D03*
X117394Y067543D03*
X115189Y067543D03*
X115189Y067287D03*
X115189Y067031D03*
X115189Y066775D03*
X115189Y066519D03*
X115189Y066263D03*
X115189Y066007D03*
X115189Y065751D03*
X115189Y065495D03*
X115189Y065239D03*
X115189Y064983D03*
X115189Y064728D03*
X115189Y064472D03*
X115189Y064216D03*
X115189Y106085D03*
X115189Y106341D03*
X115189Y106597D03*
X115189Y106853D03*
X115189Y107109D03*
X115189Y107365D03*
X115189Y107620D03*
X115189Y107876D03*
X115189Y108132D03*
X115189Y108388D03*
X115189Y108644D03*
X115189Y108900D03*
X115189Y109156D03*
X115189Y109412D03*
X117394Y109412D03*
X117394Y109156D03*
X117394Y108900D03*
X117394Y108644D03*
X117394Y108388D03*
X117394Y108132D03*
X117394Y107876D03*
X117394Y107620D03*
X117394Y107365D03*
X117394Y107109D03*
X117394Y106853D03*
X117394Y106597D03*
X117394Y106341D03*
X117394Y106085D03*
D34*
X117782Y091829D03*
X118097Y091829D03*
X118412Y091829D03*
X118727Y091829D03*
X119182Y091829D03*
X119497Y091829D03*
X119812Y091829D03*
X120127Y091829D03*
X120127Y091159D03*
X119812Y091159D03*
X119497Y091159D03*
X119182Y091159D03*
X118727Y091159D03*
X118412Y091159D03*
X118097Y091159D03*
X117782Y091159D03*
D35*
X096607Y076922D03*
X076922Y037552D03*
X116292Y017867D03*
X057237Y096607D03*
X017867Y116292D03*
X037552Y057237D03*
X017867Y017867D03*
X116292Y116292D03*
D36*
X081154Y081154D03*
X081154Y053004D03*
X053004Y053004D03*
X053004Y081154D03*
D37*
X038930Y085386D03*
X038930Y105071D03*
X013339Y105071D03*
X013339Y085386D03*
D38*
X089719Y059103D03*
X090719Y059103D03*
X091719Y059103D03*
X092979Y057199D03*
X093979Y057199D03*
X094979Y057199D03*
D39*
X088719Y059103D03*
D40*
X090719Y058253D03*
D41*
X092719Y058999D03*
X093439Y058999D03*
X039139Y131279D03*
X038419Y131279D03*
D42*
X094049Y058999D03*
X095230Y058999D03*
X058130Y027779D03*
X056949Y027779D03*
D43*
X091811Y023575D03*
D44*
X093371Y023575D03*
D45*
X096579Y029979D03*
D46*
X096579Y027009D03*
X096579Y032949D03*
D47*
X093879Y028689D03*
X093879Y025869D03*
D48*
X058854Y024479D03*
X055104Y024479D03*
D49*
X056379Y025679D03*
X057179Y025679D03*
X057979Y025679D03*
X057579Y026479D03*
X056779Y026479D03*
X055979Y026479D03*
D50*
X056029Y028856D03*
X056529Y028856D03*
X057029Y028856D03*
X057529Y028856D03*
X057529Y030903D03*
X057029Y030903D03*
X056529Y030903D03*
X056029Y030903D03*
D51*
X034549Y094599D03*
X034549Y095179D03*
X040729Y130904D03*
X040729Y131654D03*
X039829Y131279D03*
X100909Y102159D03*
X100909Y101579D03*
X121109Y034959D03*
X121109Y034379D03*
D52*
X081179Y092079D03*
X078179Y092079D03*
X075179Y092079D03*
X076679Y112079D03*
X078179Y112079D03*
X079679Y112079D03*
D53*
X081179Y112079D03*
X075179Y112079D03*
D54*
X094539Y101479D03*
X040919Y095279D03*
X114739Y034279D03*
D55*
X114739Y035679D03*
X094539Y102879D03*
X040919Y093879D03*
D56*
X041183Y098989D02*
X041287Y098885D01*
X040943Y098885D01*
X040700Y099128D01*
X040700Y099472D01*
X040943Y099715D01*
X041287Y099715D01*
X041530Y099472D01*
X041530Y099128D01*
X041287Y098885D01*
X041223Y099041D01*
X041007Y099041D01*
X040856Y099192D01*
X040856Y099408D01*
X041007Y099559D01*
X041223Y099559D01*
X041374Y099408D01*
X041374Y099192D01*
X041223Y099041D01*
X041158Y099197D01*
X041072Y099197D01*
X041012Y099257D01*
X041012Y099343D01*
X041072Y099403D01*
X041158Y099403D01*
X041218Y099343D01*
X041218Y099257D01*
X041158Y099197D01*
X094276Y097769D02*
X094172Y097873D01*
X094516Y097873D01*
X094759Y097630D01*
X094759Y097286D01*
X094516Y097043D01*
X094172Y097043D01*
X093929Y097286D01*
X093929Y097630D01*
X094172Y097873D01*
X094236Y097717D01*
X094452Y097717D01*
X094603Y097566D01*
X094603Y097350D01*
X094452Y097199D01*
X094236Y097199D01*
X094085Y097350D01*
X094085Y097566D01*
X094236Y097717D01*
X094301Y097561D01*
X094387Y097561D01*
X094447Y097501D01*
X094447Y097415D01*
X094387Y097355D01*
X094301Y097355D01*
X094241Y097415D01*
X094241Y097501D01*
X094301Y097561D01*
X114476Y030569D02*
X114372Y030673D01*
X114716Y030673D01*
X114959Y030430D01*
X114959Y030086D01*
X114716Y029843D01*
X114372Y029843D01*
X114129Y030086D01*
X114129Y030430D01*
X114372Y030673D01*
X114436Y030517D01*
X114652Y030517D01*
X114803Y030366D01*
X114803Y030150D01*
X114652Y029999D01*
X114436Y029999D01*
X114285Y030150D01*
X114285Y030366D01*
X114436Y030517D01*
X114501Y030361D01*
X114587Y030361D01*
X114647Y030301D01*
X114647Y030215D01*
X114587Y030155D01*
X114501Y030155D01*
X114441Y030215D01*
X114441Y030301D01*
X114501Y030361D01*
D57*
X118879Y036434D03*
X118879Y040804D03*
X098679Y103634D03*
X098679Y108004D03*
X036779Y093124D03*
X036779Y088754D03*
D58*
X037123Y096034D03*
X037379Y096034D03*
X037635Y096034D03*
X037891Y096034D03*
X038147Y096034D03*
X038403Y096034D03*
X038659Y096034D03*
X038915Y096034D03*
X038915Y097924D03*
X038659Y097924D03*
X038403Y097924D03*
X038147Y097924D03*
X037891Y097924D03*
X037635Y097924D03*
X037379Y097924D03*
X037123Y097924D03*
X096543Y098834D03*
X096799Y098834D03*
X097055Y098834D03*
X097311Y098834D03*
X097567Y098834D03*
X097823Y098834D03*
X098079Y098834D03*
X098335Y098834D03*
X098335Y100724D03*
X098079Y100724D03*
X097823Y100724D03*
X097567Y100724D03*
X097311Y100724D03*
X097055Y100724D03*
X096799Y100724D03*
X096543Y100724D03*
X116743Y033524D03*
X116999Y033524D03*
X117255Y033524D03*
X117511Y033524D03*
X117767Y033524D03*
X118023Y033524D03*
X118279Y033524D03*
X118535Y033524D03*
X118535Y031634D03*
X118279Y031634D03*
X118023Y031634D03*
X117767Y031634D03*
X117511Y031634D03*
X117255Y031634D03*
X116999Y031634D03*
X116743Y031634D03*
D59*
X116497Y031939D03*
X116497Y032195D03*
X116497Y032451D03*
X116497Y032707D03*
X116497Y032963D03*
X116497Y033219D03*
X118781Y033219D03*
X118781Y032963D03*
X118781Y032707D03*
X118781Y032451D03*
X118781Y032195D03*
X118781Y031939D03*
X098581Y099139D03*
X098581Y099395D03*
X098581Y099651D03*
X098581Y099907D03*
X098581Y100163D03*
X098581Y100419D03*
X096297Y100419D03*
X096297Y100163D03*
X096297Y099907D03*
X096297Y099651D03*
X096297Y099395D03*
X096297Y099139D03*
X039161Y097619D03*
X039161Y097363D03*
X039161Y097107D03*
X039161Y096851D03*
X039161Y096595D03*
X039161Y096339D03*
X036877Y096339D03*
X036877Y096595D03*
X036877Y096851D03*
X036877Y097107D03*
X036877Y097363D03*
X036877Y097619D03*
D60*
X038419Y097530D03*
X097040Y099228D03*
X117240Y032028D03*
D61*
X117240Y032776D03*
X097040Y099976D03*
X038419Y096782D03*
D62*
X037409Y096979D03*
X098049Y099779D03*
X118249Y032579D03*
D63*
X118360Y029419D03*
X119238Y029419D03*
X099038Y096619D03*
X098160Y096619D03*
X037298Y100139D03*
X036420Y100139D03*
D64*
X039899Y097690D03*
X040819Y097690D03*
X040819Y096509D03*
X039899Y096509D03*
X094639Y099069D03*
X095559Y099069D03*
X095559Y100250D03*
X094639Y100250D03*
X114839Y033050D03*
X115759Y033050D03*
X115759Y031869D03*
X114839Y031869D03*
D65*
X021979Y048879D03*
X021179Y048879D03*
X020479Y047379D03*
X020079Y045379D03*
X020879Y045379D03*
X016779Y045379D03*
X015979Y045379D03*
X016379Y047379D03*
X015979Y052579D03*
X016779Y052579D03*
X016379Y054579D03*
X020579Y054579D03*
X020179Y052579D03*
X020979Y052579D03*
X021579Y050879D03*
D66*
X032379Y096219D03*
X032379Y096939D03*
X102579Y077239D03*
X102579Y076519D03*
D67*
X105662Y068457D03*
X105856Y068063D03*
X105268Y068063D03*
X107043Y068063D03*
X107237Y068457D03*
X107630Y068063D03*
X111524Y068349D03*
X112424Y069249D03*
X111424Y070249D03*
X112424Y071249D03*
X111424Y072249D03*
X112424Y073249D03*
X111424Y074249D03*
X112424Y075249D03*
X111424Y076249D03*
X112927Y079052D03*
X115079Y079979D03*
X114479Y081579D03*
X114527Y083552D03*
X111527Y082552D03*
X111527Y084552D03*
X107627Y087752D03*
X107247Y088142D03*
X107047Y087752D03*
X105857Y087752D03*
X105657Y088142D03*
X105277Y087752D03*
X113727Y090152D03*
X114952Y095305D03*
X113579Y097879D03*
X115465Y104363D03*
X115465Y104914D03*
X115465Y105465D03*
X116016Y105465D03*
X116016Y104914D03*
X116567Y104914D03*
X116567Y105465D03*
X117119Y105465D03*
X117119Y104914D03*
X117119Y104363D03*
X116567Y104363D03*
X116016Y104363D03*
X113534Y104793D03*
X115465Y110032D03*
X115465Y110583D03*
X116016Y110583D03*
X116016Y110032D03*
X116567Y110032D03*
X116567Y110583D03*
X116567Y111134D03*
X116016Y111134D03*
X115465Y111134D03*
X117119Y111134D03*
X117119Y110583D03*
X117119Y110032D03*
X119664Y106563D03*
X119664Y104763D03*
X119664Y102763D03*
X119664Y100763D03*
X119664Y098763D03*
X119664Y096763D03*
X125347Y088142D03*
X125541Y087748D03*
X124953Y087748D03*
X126728Y087748D03*
X126922Y088142D03*
X127315Y087748D03*
X120424Y075049D03*
X120424Y073049D03*
X120424Y071049D03*
X120424Y069049D03*
X119424Y067749D03*
X117119Y068163D03*
X117119Y068714D03*
X117119Y069265D03*
X116567Y069265D03*
X116016Y069265D03*
X115465Y069265D03*
X115465Y068714D03*
X116016Y068714D03*
X116567Y068714D03*
X116567Y068163D03*
X116016Y068163D03*
X115465Y068163D03*
X112524Y067349D03*
X115465Y063596D03*
X116016Y063596D03*
X116567Y063596D03*
X117119Y063596D03*
X117119Y063044D03*
X117119Y062493D03*
X116567Y062493D03*
X116016Y062493D03*
X115465Y062493D03*
X115465Y063044D03*
X116016Y063044D03*
X116567Y063044D03*
X124953Y068063D03*
X125347Y068457D03*
X125541Y068063D03*
X126728Y068063D03*
X126922Y068457D03*
X127315Y068063D03*
X126922Y048772D03*
X126728Y048378D03*
X127315Y048378D03*
X125541Y048378D03*
X125347Y048772D03*
X124953Y048378D03*
X107630Y048378D03*
X107237Y048772D03*
X107043Y048378D03*
X105856Y048378D03*
X105662Y048772D03*
X105268Y048378D03*
X087945Y048378D03*
X087552Y048772D03*
X087358Y048378D03*
X086170Y048378D03*
X085977Y048772D03*
X085583Y048378D03*
X068260Y048378D03*
X067867Y048772D03*
X067673Y048378D03*
X066485Y048378D03*
X066292Y048772D03*
X065898Y048378D03*
X057979Y031979D03*
X055279Y029779D03*
X054079Y028579D03*
X056879Y027079D03*
X048575Y028693D03*
X048181Y029087D03*
X047988Y028693D03*
X046800Y028693D03*
X046607Y029087D03*
X046213Y028693D03*
X043794Y034579D03*
X041994Y034579D03*
X042096Y036725D03*
X042096Y037276D03*
X042096Y037827D03*
X042096Y038378D03*
X041544Y038378D03*
X040993Y038378D03*
X040993Y037827D03*
X040993Y037276D03*
X040993Y036725D03*
X041544Y036725D03*
X041544Y037276D03*
X041544Y037827D03*
X041394Y040279D03*
X038204Y040279D03*
X037994Y036679D03*
X037994Y035579D03*
X037994Y034579D03*
X039994Y034579D03*
X046663Y036725D03*
X047214Y036725D03*
X047765Y036725D03*
X047765Y037276D03*
X047765Y037827D03*
X047214Y037827D03*
X047214Y037276D03*
X046663Y037276D03*
X046663Y037827D03*
X046663Y038378D03*
X047214Y038378D03*
X047765Y038378D03*
X047988Y048378D03*
X048181Y048772D03*
X048575Y048378D03*
X046800Y048378D03*
X046607Y048772D03*
X046213Y048378D03*
X028890Y048378D03*
X028496Y048772D03*
X028303Y048378D03*
X027115Y048378D03*
X026922Y048772D03*
X026528Y048378D03*
X020324Y042309D03*
X019324Y041309D03*
X018324Y042309D03*
X017324Y041309D03*
X016324Y042309D03*
X015324Y041309D03*
X016193Y038378D03*
X016744Y038378D03*
X016744Y037827D03*
X017295Y037827D03*
X017295Y037276D03*
X017295Y036725D03*
X016744Y036725D03*
X016744Y037276D03*
X016193Y037276D03*
X016193Y037827D03*
X016193Y036725D03*
X017295Y038378D03*
X015824Y034409D03*
X011626Y036725D03*
X011626Y037276D03*
X011626Y037827D03*
X011626Y038378D03*
X011074Y038378D03*
X010523Y038378D03*
X010523Y037827D03*
X010523Y037276D03*
X010523Y036725D03*
X011074Y036725D03*
X011074Y037276D03*
X011074Y037827D03*
X008811Y029087D03*
X008618Y028693D03*
X009205Y028693D03*
X007430Y028693D03*
X007237Y029087D03*
X006843Y028693D03*
X020924Y040909D03*
X022424Y039219D03*
X026922Y029087D03*
X027115Y028693D03*
X026528Y028693D03*
X028303Y028693D03*
X028496Y029087D03*
X028890Y028693D03*
X028496Y009402D03*
X028303Y009008D03*
X028890Y009008D03*
X027115Y009008D03*
X026922Y009402D03*
X026528Y009008D03*
X009205Y009008D03*
X008811Y009402D03*
X008618Y009008D03*
X007430Y009008D03*
X007237Y009402D03*
X006843Y009008D03*
X046213Y009008D03*
X046607Y009402D03*
X046800Y009008D03*
X047988Y009008D03*
X048181Y009402D03*
X048575Y009008D03*
X063693Y017040D03*
X063693Y017591D03*
X063693Y018142D03*
X063693Y018693D03*
X064244Y018693D03*
X064244Y018142D03*
X064244Y017591D03*
X064244Y017040D03*
X064796Y017040D03*
X064796Y017591D03*
X064796Y018142D03*
X064796Y018693D03*
X069363Y018693D03*
X069914Y018693D03*
X069914Y018142D03*
X070465Y018142D03*
X070465Y017591D03*
X069914Y017591D03*
X069914Y017040D03*
X070465Y017040D03*
X069363Y017040D03*
X069363Y017591D03*
X069363Y018142D03*
X070465Y018693D03*
X070524Y021649D03*
X069524Y022649D03*
X068524Y021649D03*
X071524Y022649D03*
X072524Y021649D03*
X073524Y022649D03*
X074524Y021649D03*
X075524Y022649D03*
X076524Y021649D03*
X077524Y022649D03*
X079024Y021249D03*
X081479Y019279D03*
X082024Y020249D03*
X082524Y022649D03*
X084524Y022649D03*
X085583Y028693D03*
X085977Y029087D03*
X086170Y028693D03*
X087358Y028693D03*
X087552Y029087D03*
X087945Y028693D03*
X090224Y020349D03*
X095864Y014899D03*
X097864Y014899D03*
X099864Y014899D03*
X101864Y014899D03*
X103864Y014899D03*
X105864Y014899D03*
X104166Y017040D03*
X104166Y017591D03*
X104166Y018142D03*
X104166Y018693D03*
X103615Y018693D03*
X103615Y018142D03*
X103615Y017591D03*
X103615Y017040D03*
X103063Y017040D03*
X103063Y017591D03*
X103063Y018142D03*
X103063Y018693D03*
X103424Y020649D03*
X100379Y020579D03*
X105268Y028693D03*
X105662Y029087D03*
X105856Y028693D03*
X107043Y028693D03*
X107237Y029087D03*
X107630Y028693D03*
X108733Y018693D03*
X109284Y018693D03*
X109284Y018142D03*
X109835Y018142D03*
X109835Y017591D03*
X109284Y017591D03*
X109284Y017040D03*
X109835Y017040D03*
X108733Y017040D03*
X108733Y017591D03*
X108733Y018142D03*
X109835Y018693D03*
X107237Y009402D03*
X107043Y009008D03*
X107630Y009008D03*
X105856Y009008D03*
X105662Y009402D03*
X105268Y009008D03*
X087945Y009008D03*
X087552Y009402D03*
X087358Y009008D03*
X086170Y009008D03*
X085977Y009402D03*
X085583Y009008D03*
X068994Y014729D03*
X067867Y009402D03*
X067673Y009008D03*
X068260Y009008D03*
X066485Y009008D03*
X066292Y009402D03*
X065898Y009008D03*
X065898Y028693D03*
X066292Y029087D03*
X066485Y028693D03*
X067673Y028693D03*
X067867Y029087D03*
X068260Y028693D03*
X068260Y068063D03*
X067867Y068457D03*
X067673Y068063D03*
X066485Y068063D03*
X066292Y068457D03*
X065898Y068063D03*
X071093Y083695D03*
X071093Y084246D03*
X071093Y084797D03*
X071093Y085348D03*
X071644Y085348D03*
X071644Y084797D03*
X071644Y084246D03*
X071644Y083695D03*
X072196Y083695D03*
X072196Y084246D03*
X072196Y084797D03*
X072196Y085348D03*
X071530Y087278D03*
X070030Y084378D03*
X068260Y087748D03*
X067867Y088142D03*
X067673Y087748D03*
X066485Y087748D03*
X066292Y088142D03*
X065898Y087748D03*
X076763Y085348D03*
X076763Y084797D03*
X077314Y084797D03*
X077314Y084246D03*
X077865Y084246D03*
X077865Y083695D03*
X077314Y083695D03*
X076763Y083695D03*
X076763Y084246D03*
X077865Y084797D03*
X077865Y085348D03*
X077314Y085348D03*
X085583Y087748D03*
X085977Y088142D03*
X086170Y087748D03*
X087358Y087748D03*
X087552Y088142D03*
X087945Y087748D03*
X090329Y098029D03*
X087945Y107433D03*
X087552Y107827D03*
X087358Y107433D03*
X086170Y107433D03*
X085977Y107827D03*
X085583Y107433D03*
X070465Y115465D03*
X070465Y116016D03*
X069914Y116016D03*
X069914Y115465D03*
X069363Y115465D03*
X069363Y116016D03*
X069363Y116567D03*
X069914Y116567D03*
X070465Y116567D03*
X070465Y117119D03*
X069914Y117119D03*
X069363Y117119D03*
X064796Y117119D03*
X064244Y117119D03*
X063693Y117119D03*
X063693Y116567D03*
X063693Y116016D03*
X063693Y115465D03*
X064244Y115465D03*
X064244Y116016D03*
X064244Y116567D03*
X064796Y116567D03*
X064796Y116016D03*
X064796Y115465D03*
X064494Y113319D03*
X066494Y113319D03*
X062494Y113319D03*
X060494Y113319D03*
X058494Y113319D03*
X056494Y113319D03*
X061179Y118979D03*
X064124Y119049D03*
X065898Y127119D03*
X066292Y127512D03*
X066485Y127119D03*
X067673Y127119D03*
X067867Y127512D03*
X068260Y127119D03*
X085583Y127119D03*
X085977Y127512D03*
X086170Y127119D03*
X087358Y127119D03*
X087552Y127512D03*
X087945Y127119D03*
X105268Y127119D03*
X105662Y127512D03*
X105856Y127119D03*
X107043Y127119D03*
X107237Y127512D03*
X107630Y127119D03*
X124953Y127119D03*
X125347Y127512D03*
X125541Y127119D03*
X126728Y127119D03*
X126922Y127512D03*
X127315Y127119D03*
X126922Y107827D03*
X126728Y107433D03*
X127315Y107433D03*
X125541Y107433D03*
X125347Y107827D03*
X124953Y107433D03*
X107630Y107433D03*
X107237Y107827D03*
X107043Y107433D03*
X105856Y107433D03*
X105662Y107827D03*
X105268Y107433D03*
X068260Y107433D03*
X067867Y107827D03*
X067673Y107433D03*
X066485Y107433D03*
X066292Y107827D03*
X065898Y107433D03*
X050824Y118849D03*
X045124Y121049D03*
X043124Y121049D03*
X044224Y118049D03*
X039724Y119649D03*
X038124Y121049D03*
X037124Y120049D03*
X036124Y121049D03*
X035124Y120049D03*
X034124Y121049D03*
X033124Y120049D03*
X032124Y121049D03*
X031124Y120049D03*
X030124Y121049D03*
X029124Y120049D03*
X029993Y117119D03*
X030544Y117119D03*
X031095Y117119D03*
X031095Y116567D03*
X031095Y116016D03*
X031095Y115465D03*
X030544Y115465D03*
X030544Y116016D03*
X030544Y116567D03*
X029993Y116567D03*
X029993Y116016D03*
X029993Y115465D03*
X029624Y113149D03*
X025426Y115465D03*
X025426Y116016D03*
X025426Y116567D03*
X025426Y117119D03*
X024874Y117119D03*
X024323Y117119D03*
X024323Y116567D03*
X024323Y116016D03*
X024323Y115465D03*
X024874Y115465D03*
X024874Y116016D03*
X024874Y116567D03*
X026922Y107827D03*
X027115Y107433D03*
X026528Y107433D03*
X028303Y107433D03*
X028496Y107827D03*
X028890Y107433D03*
X046213Y107433D03*
X046607Y107827D03*
X046800Y107433D03*
X047988Y107433D03*
X048181Y107827D03*
X048575Y107433D03*
X048181Y088142D03*
X047988Y087748D03*
X048575Y087748D03*
X046800Y087748D03*
X046607Y088142D03*
X046213Y087748D03*
X045124Y081679D03*
X043124Y081679D03*
X041324Y078679D03*
X037324Y080279D03*
X036124Y081679D03*
X035124Y080679D03*
X034124Y081679D03*
X033124Y080679D03*
X032124Y081679D03*
X031124Y080679D03*
X030124Y081679D03*
X029124Y080679D03*
X029993Y077748D03*
X030544Y077748D03*
X030544Y077197D03*
X031095Y077197D03*
X031095Y076646D03*
X031095Y076095D03*
X030544Y076095D03*
X030544Y076646D03*
X029993Y076646D03*
X029993Y076095D03*
X029993Y077197D03*
X031095Y077748D03*
X029624Y073779D03*
X025426Y076095D03*
X025426Y076646D03*
X025426Y077197D03*
X025426Y077748D03*
X024874Y077748D03*
X024874Y077197D03*
X024323Y077197D03*
X024323Y076646D03*
X024323Y076095D03*
X024874Y076095D03*
X024874Y076646D03*
X024323Y077748D03*
X026922Y068457D03*
X027115Y068063D03*
X026528Y068063D03*
X028303Y068063D03*
X028496Y068457D03*
X028890Y068063D03*
X046213Y068063D03*
X046607Y068457D03*
X046800Y068063D03*
X047988Y068063D03*
X048181Y068457D03*
X048575Y068063D03*
X047724Y079979D03*
X028890Y087748D03*
X028496Y088142D03*
X028303Y087748D03*
X027115Y087748D03*
X026922Y088142D03*
X026528Y087748D03*
X009205Y087748D03*
X008811Y088142D03*
X008618Y087748D03*
X007430Y087748D03*
X007237Y088142D03*
X006843Y087748D03*
X007237Y068457D03*
X007430Y068063D03*
X006843Y068063D03*
X008618Y068063D03*
X008811Y068457D03*
X009205Y068063D03*
X008811Y048772D03*
X008618Y048378D03*
X009205Y048378D03*
X007430Y048378D03*
X007237Y048772D03*
X006843Y048378D03*
X006843Y107433D03*
X007237Y107827D03*
X007430Y107433D03*
X008618Y107433D03*
X008811Y107827D03*
X009205Y107433D03*
X009205Y127119D03*
X008811Y127512D03*
X008618Y127119D03*
X007430Y127119D03*
X007237Y127512D03*
X006843Y127119D03*
X026528Y127119D03*
X026922Y127512D03*
X027115Y127119D03*
X028303Y127119D03*
X028496Y127512D03*
X028890Y127119D03*
X046213Y127119D03*
X046607Y127512D03*
X046800Y127119D03*
X047988Y127119D03*
X048181Y127512D03*
X048575Y127119D03*
X085977Y068457D03*
X086170Y068063D03*
X085583Y068063D03*
X087358Y068063D03*
X087552Y068457D03*
X087945Y068063D03*
X125347Y029087D03*
X125541Y028693D03*
X124953Y028693D03*
X126728Y028693D03*
X126922Y029087D03*
X127315Y028693D03*
X126922Y009402D03*
X126728Y009008D03*
X127315Y009008D03*
X125541Y009008D03*
X125347Y009402D03*
X124953Y009008D03*
D68*
X124678Y008615D03*
X124953Y008221D03*
X127315Y008221D03*
X127591Y008615D03*
X127315Y027906D03*
X127591Y028300D03*
X124953Y027906D03*
X124678Y028300D03*
X121019Y030859D03*
X121079Y032779D03*
X121079Y033859D03*
X119699Y035599D03*
X119339Y035599D03*
X118979Y035599D03*
X118619Y035599D03*
X118259Y035599D03*
X117899Y035599D03*
X117599Y035759D03*
X117599Y036179D03*
X117599Y036619D03*
X117599Y037039D03*
X117899Y037279D03*
X118259Y037279D03*
X118619Y037279D03*
X118979Y037279D03*
X119339Y037279D03*
X119699Y037279D03*
X120099Y036999D03*
X120099Y036599D03*
X120099Y036199D03*
X120099Y035759D03*
X119219Y033499D03*
X119339Y031699D03*
X118559Y031339D03*
X117599Y030319D03*
X118079Y029419D03*
X115699Y033599D03*
X115339Y033599D03*
X115339Y033959D03*
X115339Y034319D03*
X115699Y034319D03*
X115699Y033959D03*
X115699Y034719D03*
X115339Y034719D03*
X113879Y035679D03*
X107906Y028300D03*
X107630Y027906D03*
X105268Y027906D03*
X104993Y028300D03*
X104822Y018267D03*
X104822Y017867D03*
X104822Y017467D03*
X105694Y015924D03*
X105694Y015324D03*
X108076Y017467D03*
X108076Y017867D03*
X108076Y018267D03*
X107906Y008615D03*
X107630Y008221D03*
X105268Y008221D03*
X104993Y008615D03*
X092279Y012079D03*
X092279Y013479D03*
X092244Y016904D03*
X091394Y018924D03*
X090324Y019424D03*
X090133Y018924D03*
X089664Y018524D03*
X088094Y020324D03*
X087794Y020624D03*
X087769Y021229D03*
X088094Y021524D03*
X086994Y021124D03*
X086694Y021224D03*
X086194Y020924D03*
X085894Y020624D03*
X085994Y020124D03*
X086479Y020379D03*
X086779Y020579D03*
X085694Y021924D03*
X086879Y023779D03*
X090379Y023779D03*
X087945Y027906D03*
X088221Y028300D03*
X085583Y027906D03*
X085307Y028300D03*
X085779Y018679D03*
X086479Y018379D03*
X086589Y017519D03*
X085894Y017524D03*
X086424Y014524D03*
X085194Y013824D03*
X082224Y015624D03*
X082224Y017724D03*
X085307Y008615D03*
X085583Y008221D03*
X087945Y008221D03*
X088221Y008615D03*
X068536Y008615D03*
X068260Y008221D03*
X065898Y008221D03*
X065622Y008615D03*
X065452Y017467D03*
X065452Y017867D03*
X065452Y018267D03*
X068706Y018267D03*
X068706Y017867D03*
X068706Y017467D03*
X068260Y027906D03*
X068536Y028300D03*
X065898Y027906D03*
X065622Y028300D03*
X048851Y028300D03*
X048575Y027906D03*
X046213Y027906D03*
X045937Y028300D03*
X043624Y035009D03*
X043624Y035609D03*
X042752Y037152D03*
X042752Y037552D03*
X042752Y037952D03*
X040859Y036119D03*
X038569Y036119D03*
X034074Y036589D03*
X033224Y038609D03*
X032154Y039109D03*
X031963Y038609D03*
X031494Y038209D03*
X029379Y038529D03*
X028969Y038229D03*
X028079Y037979D03*
X027479Y037679D03*
X028724Y037209D03*
X027924Y039709D03*
X027724Y040309D03*
X028024Y040609D03*
X028454Y040929D03*
X028629Y040289D03*
X029624Y040309D03*
X029924Y040009D03*
X029929Y040609D03*
X029924Y041209D03*
X027524Y041609D03*
X025059Y039459D03*
X024054Y037409D03*
X024054Y035309D03*
X026579Y034079D03*
X026924Y034409D03*
X028254Y034209D03*
X029166Y028300D03*
X028890Y027906D03*
X026528Y027906D03*
X026252Y028300D03*
X015536Y037152D03*
X015536Y037552D03*
X015536Y037952D03*
X012282Y037952D03*
X012282Y037552D03*
X012282Y037152D03*
X010679Y029379D03*
X009481Y028300D03*
X009205Y027906D03*
X006843Y027906D03*
X006567Y028300D03*
X015379Y046379D03*
X015579Y046879D03*
X017179Y046379D03*
X017279Y046879D03*
X019479Y046379D03*
X019779Y046879D03*
X021279Y046379D03*
X021379Y046879D03*
X020579Y049879D03*
X020879Y050379D03*
X022379Y049879D03*
X022479Y050379D03*
X021379Y053579D03*
X021479Y054079D03*
X019779Y054079D03*
X019579Y053579D03*
X017279Y054079D03*
X017179Y053579D03*
X015479Y054079D03*
X015379Y053579D03*
X014479Y051579D03*
X014479Y050579D03*
X014479Y049579D03*
X014479Y048579D03*
X009481Y047985D03*
X009205Y047591D03*
X006843Y047591D03*
X006567Y047985D03*
X001879Y050479D03*
X001879Y054279D03*
X002279Y054479D03*
X006843Y067276D03*
X006567Y067670D03*
X009205Y067276D03*
X009481Y067670D03*
X010679Y068679D03*
X026252Y067670D03*
X026528Y067276D03*
X028890Y067276D03*
X029166Y067670D03*
X029336Y076522D03*
X029336Y076922D03*
X029336Y077322D03*
X026082Y077322D03*
X026082Y076922D03*
X026082Y076522D03*
X026528Y086961D03*
X026252Y087355D03*
X028890Y086961D03*
X029166Y087355D03*
X035559Y092559D03*
X035559Y092959D03*
X035559Y093359D03*
X035559Y093859D03*
X035959Y093959D03*
X036319Y093959D03*
X036679Y093959D03*
X037039Y093959D03*
X037399Y093959D03*
X037759Y093959D03*
X038059Y093839D03*
X038059Y093339D03*
X038059Y092939D03*
X038059Y092519D03*
X037759Y092279D03*
X037399Y092279D03*
X037039Y092279D03*
X036679Y092279D03*
X036319Y092279D03*
X035959Y092279D03*
X034579Y095699D03*
X034579Y096779D03*
X034639Y098699D03*
X036319Y097859D03*
X037099Y098219D03*
X038059Y099239D03*
X037579Y100139D03*
X036439Y096059D03*
X039959Y095959D03*
X039959Y095599D03*
X039959Y095239D03*
X040319Y095239D03*
X040319Y095599D03*
X040319Y095959D03*
X040319Y094839D03*
X039959Y094839D03*
X041779Y093879D03*
X046479Y092079D03*
X046479Y090879D03*
X045937Y087355D03*
X046213Y086961D03*
X048575Y086961D03*
X048851Y087355D03*
X045179Y083479D03*
X043579Y083479D03*
X043424Y080979D03*
X043924Y079979D03*
X043624Y079679D03*
X043624Y079279D03*
X044259Y079329D03*
X044479Y079579D03*
X044724Y080179D03*
X044354Y080319D03*
X045524Y079679D03*
X045819Y079979D03*
X045824Y079379D03*
X045824Y080579D03*
X048054Y078479D03*
X047863Y077979D03*
X047394Y077579D03*
X049124Y077979D03*
X049974Y075959D03*
X045379Y077879D03*
X043979Y077879D03*
X043479Y077479D03*
X043624Y076579D03*
X044154Y073579D03*
X044009Y072409D03*
X043434Y072429D03*
X040879Y070679D03*
X040879Y068679D03*
X045937Y067670D03*
X046213Y067276D03*
X048575Y067276D03*
X048851Y067670D03*
X039954Y074679D03*
X039954Y076779D03*
X049179Y081979D03*
X065622Y087355D03*
X065898Y086961D03*
X068260Y086961D03*
X068536Y087355D03*
X069024Y082579D03*
X072852Y084122D03*
X072852Y084522D03*
X072852Y084922D03*
X073724Y082579D03*
X076106Y084122D03*
X076106Y084522D03*
X076106Y084922D03*
X085307Y087355D03*
X085583Y086961D03*
X087945Y086961D03*
X088221Y087355D03*
X097879Y096619D03*
X097399Y097519D03*
X098359Y098539D03*
X099139Y098899D03*
X099019Y100699D03*
X099139Y102799D03*
X098779Y102799D03*
X098419Y102799D03*
X098059Y102799D03*
X097699Y102799D03*
X097399Y102959D03*
X097399Y103519D03*
X097399Y103879D03*
X097399Y104239D03*
X097699Y104479D03*
X098059Y104479D03*
X098419Y104479D03*
X098779Y104479D03*
X099139Y104479D03*
X099499Y104479D03*
X099899Y104209D03*
X099899Y103859D03*
X099899Y103499D03*
X099899Y102899D03*
X099499Y102799D03*
X100879Y101059D03*
X100879Y099979D03*
X100819Y098059D03*
X095499Y100799D03*
X095139Y100799D03*
X095139Y101159D03*
X095139Y101519D03*
X095499Y101519D03*
X095499Y101159D03*
X095499Y101919D03*
X095139Y101919D03*
X093679Y102879D03*
X087945Y106646D03*
X088221Y107040D03*
X085583Y106646D03*
X085307Y107040D03*
X068536Y107040D03*
X068260Y106646D03*
X065898Y106646D03*
X065622Y107040D03*
X066324Y113749D03*
X066324Y114349D03*
X065452Y115892D03*
X065452Y116292D03*
X065452Y116692D03*
X068706Y116692D03*
X068706Y116292D03*
X068706Y115892D03*
X068260Y126331D03*
X068536Y126725D03*
X065898Y126331D03*
X065622Y126725D03*
X059979Y122279D03*
X052024Y117349D03*
X050954Y117849D03*
X050763Y117349D03*
X050294Y116949D03*
X048379Y117279D03*
X046979Y117279D03*
X046279Y117179D03*
X046524Y115949D03*
X045879Y113579D03*
X047054Y112949D03*
X046879Y111779D03*
X046324Y111769D03*
X044079Y109379D03*
X044079Y107979D03*
X045937Y107040D03*
X046213Y106646D03*
X048575Y106646D03*
X048851Y107040D03*
X040779Y107979D03*
X040779Y110079D03*
X042854Y114049D03*
X042854Y116149D03*
X043679Y117979D03*
X046524Y118649D03*
X046524Y119049D03*
X046824Y119349D03*
X047079Y118979D03*
X047419Y118939D03*
X047624Y119549D03*
X047284Y119689D03*
X046324Y120349D03*
X048724Y119949D03*
X048719Y119349D03*
X048424Y119049D03*
X048724Y118749D03*
X048179Y122279D03*
X049879Y122279D03*
X048575Y126331D03*
X048851Y126725D03*
X046213Y126331D03*
X045937Y126725D03*
X041254Y131649D03*
X039679Y130079D03*
X037779Y131279D03*
X029166Y126725D03*
X028890Y126331D03*
X026528Y126331D03*
X026252Y126725D03*
X026082Y116692D03*
X026082Y116292D03*
X026082Y115892D03*
X029336Y115892D03*
X029336Y116292D03*
X029336Y116692D03*
X029166Y107040D03*
X028890Y106646D03*
X026528Y106646D03*
X026252Y107040D03*
X010679Y108079D03*
X009481Y107040D03*
X009205Y106646D03*
X006843Y106646D03*
X006567Y107040D03*
X006843Y126331D03*
X006567Y126725D03*
X009205Y126331D03*
X009481Y126725D03*
X009481Y087355D03*
X009205Y086961D03*
X006843Y086961D03*
X006567Y087355D03*
X026252Y047985D03*
X026528Y047591D03*
X028890Y047591D03*
X029166Y047985D03*
X029679Y044179D03*
X032279Y044179D03*
X045937Y047985D03*
X046213Y047591D03*
X048575Y047591D03*
X048851Y047985D03*
X050179Y054579D03*
X050179Y057379D03*
X065622Y047985D03*
X065898Y047591D03*
X068260Y047591D03*
X068536Y047985D03*
X085307Y047985D03*
X085583Y047591D03*
X087945Y047591D03*
X088221Y047985D03*
X104993Y047985D03*
X105268Y047591D03*
X107630Y047591D03*
X107906Y047985D03*
X124678Y047985D03*
X124953Y047591D03*
X127315Y047591D03*
X127591Y047985D03*
X128779Y048979D03*
X116692Y064252D03*
X116292Y064252D03*
X115892Y064252D03*
X115892Y067506D03*
X116292Y067506D03*
X116692Y067506D03*
X124678Y067670D03*
X124953Y067276D03*
X127315Y067276D03*
X127591Y067670D03*
X118019Y081189D03*
X118534Y082224D03*
X116434Y082224D03*
X114879Y084879D03*
X115314Y085754D03*
X115259Y086359D03*
X116034Y086394D03*
X116634Y085894D03*
X115189Y087869D03*
X113834Y088094D03*
X113534Y087794D03*
X113229Y088099D03*
X112634Y088094D03*
X113034Y086994D03*
X112884Y086684D03*
X113234Y086194D03*
X113534Y085894D03*
X113934Y085894D03*
X113679Y086479D03*
X113579Y086779D03*
X112234Y085694D03*
X107908Y087355D03*
X107628Y086965D03*
X105268Y086965D03*
X104998Y087365D03*
X103979Y084679D03*
X102379Y084679D03*
X101279Y084679D03*
X100779Y082979D03*
X100779Y082579D03*
X100779Y082179D03*
X100779Y081779D03*
X102279Y081779D03*
X102279Y082179D03*
X102279Y082579D03*
X102279Y082979D03*
X109479Y089979D03*
X108579Y092779D03*
X114734Y090324D03*
X115234Y090133D03*
X115634Y089664D03*
X115234Y091394D03*
X117254Y092244D03*
X119634Y086424D03*
X119079Y085179D03*
X124678Y087355D03*
X124953Y086961D03*
X127315Y086961D03*
X127591Y087355D03*
X127315Y106646D03*
X127591Y107040D03*
X124953Y106646D03*
X124678Y107040D03*
X119234Y106993D03*
X118634Y106993D03*
X116692Y106122D03*
X116292Y106122D03*
X115892Y106122D03*
X115892Y109375D03*
X116292Y109375D03*
X116692Y109375D03*
X107906Y107040D03*
X107630Y106646D03*
X105268Y106646D03*
X104993Y107040D03*
X105268Y126331D03*
X104993Y126725D03*
X107630Y126331D03*
X107906Y126725D03*
X114679Y130079D03*
X124678Y126725D03*
X124953Y126331D03*
X127315Y126331D03*
X127591Y126725D03*
X088221Y126725D03*
X087945Y126331D03*
X085583Y126331D03*
X085307Y126725D03*
X052874Y115329D03*
X065622Y067670D03*
X065898Y067276D03*
X068260Y067276D03*
X068536Y067670D03*
X085307Y067670D03*
X085583Y067276D03*
X087945Y067276D03*
X088221Y067670D03*
X104993Y067670D03*
X105268Y067276D03*
X107630Y067276D03*
X107906Y067670D03*
X050079Y009679D03*
X048851Y008615D03*
X048575Y008221D03*
X046213Y008221D03*
X045937Y008615D03*
X029166Y008615D03*
X028890Y008221D03*
X026528Y008221D03*
X026252Y008615D03*
X009481Y008615D03*
X009205Y008221D03*
X006843Y008221D03*
X006567Y008615D03*
X046006Y037152D03*
X046006Y037552D03*
X046006Y037952D03*
D69*
X051124Y043649D03*
X053629Y043654D03*
X050079Y049079D03*
X034424Y037789D03*
X034584Y037469D03*
X032524Y037289D03*
X032524Y036589D03*
X032524Y036089D03*
X032274Y035789D03*
X032524Y035489D03*
X032504Y034829D03*
X032264Y034509D03*
X032504Y034029D03*
X032264Y033709D03*
X033624Y031469D03*
X034904Y031469D03*
X030379Y029379D03*
X027924Y034009D03*
X025563Y035669D03*
X026024Y036669D03*
X025144Y037949D03*
X024724Y038269D03*
X024444Y038589D03*
X025924Y038909D03*
X026224Y038569D03*
X023079Y034779D03*
X030379Y049079D03*
X030379Y068679D03*
X041463Y075039D03*
X043354Y076309D03*
X041924Y077939D03*
X041624Y078279D03*
X041044Y077959D03*
X040724Y077639D03*
X041044Y077319D03*
X043824Y073379D03*
X047364Y073079D03*
X047604Y073399D03*
X047364Y073879D03*
X048247Y074120D03*
X048164Y074599D03*
X048424Y074859D03*
X048174Y075159D03*
X048424Y075459D03*
X048424Y075959D03*
X048424Y076659D03*
X050324Y077159D03*
X050484Y076839D03*
X050484Y076359D03*
X050744Y071639D03*
X049424Y071639D03*
X049979Y068679D03*
X050724Y067649D03*
X050724Y067149D03*
X051024Y066749D03*
X069679Y068679D03*
X069779Y049079D03*
X069379Y030479D03*
X082994Y018584D03*
X083314Y018264D03*
X083314Y018904D03*
X083894Y019324D03*
X084194Y018984D03*
X084194Y016984D03*
X083733Y015984D03*
X084894Y013524D03*
X086094Y014324D03*
X090434Y014024D03*
X090674Y014344D03*
X090434Y014824D03*
X090674Y015144D03*
X090434Y015544D03*
X090694Y015804D03*
X090444Y016104D03*
X090694Y016404D03*
X090694Y016904D03*
X090694Y017604D03*
X092594Y018104D03*
X092754Y017784D03*
X092754Y017304D03*
X092274Y012584D03*
X090994Y012584D03*
X089479Y009679D03*
X069779Y009679D03*
X054779Y027679D03*
X050079Y029379D03*
X030379Y009679D03*
X010679Y009679D03*
X010679Y049079D03*
X010679Y088379D03*
X030379Y088379D03*
X030379Y108079D03*
X043624Y117009D03*
X043944Y116689D03*
X043944Y117329D03*
X044524Y117649D03*
X044924Y117309D03*
X044824Y115409D03*
X044363Y114409D03*
X045924Y112949D03*
X046724Y112749D03*
X051064Y112449D03*
X051304Y112769D03*
X051064Y113249D03*
X051304Y113569D03*
X051064Y113969D03*
X051324Y114229D03*
X051074Y114529D03*
X051324Y114829D03*
X051324Y115329D03*
X051324Y116029D03*
X053224Y116529D03*
X053384Y116209D03*
X053384Y115729D03*
X053004Y111009D03*
X051824Y111009D03*
X050079Y108079D03*
X069679Y108079D03*
X069324Y089579D03*
X050079Y088379D03*
X089379Y088379D03*
X089379Y108079D03*
X108634Y109164D03*
X116374Y092754D03*
X116054Y092594D03*
X116854Y092754D03*
X116554Y090694D03*
X117254Y090694D03*
X117754Y090694D03*
X118054Y090444D03*
X118354Y090694D03*
X118614Y090434D03*
X119014Y090674D03*
X119334Y090434D03*
X119814Y090674D03*
X120134Y090434D03*
X122374Y091794D03*
X122374Y093074D03*
X128779Y088379D03*
X119834Y086094D03*
X119084Y085644D03*
X117174Y084194D03*
X118174Y083733D03*
X115894Y083314D03*
X115574Y082994D03*
X115254Y083314D03*
X114934Y083894D03*
X115479Y080979D03*
X109079Y088379D03*
X128779Y108079D03*
X128779Y127779D03*
X109079Y127779D03*
X089379Y127779D03*
X069679Y127779D03*
X049979Y127779D03*
X030279Y127779D03*
X010579Y127779D03*
X089379Y068679D03*
X089379Y048979D03*
X089279Y029379D03*
X109079Y029379D03*
X109079Y048979D03*
X109079Y068679D03*
X128779Y068679D03*
X128779Y029379D03*
X128779Y009679D03*
X109079Y009679D03*
D70*
X116292Y071764D03*
X116292Y101764D03*
X017867Y062394D03*
X017867Y032394D03*
D71*
X037552Y017867D03*
X096607Y116292D03*
D72*
X091679Y033079D03*
X059079Y033079D03*
D73*
X044379Y076179D03*
X045479Y080279D03*
X047159Y115919D03*
X048409Y119649D03*
X112939Y087779D03*
X116649Y086579D03*
M02*
