G75*
%MOIN*%
%OFA0B0*%
%FSLAX24Y24*%
%IPPOS*%
%LPD*%
%AMOC8*
5,1,8,0,0,1.08239X$1,22.5*
%
%ADD10C,0.0100*%
%ADD11C,0.2040*%
%ADD12C,0.0978*%
%ADD13C,0.0960*%
%ADD14C,0.0965*%
%ADD15C,0.0985*%
%ADD16C,0.1040*%
%ADD17OC8,0.1040*%
%ADD18C,0.4000*%
%ADD19C,0.3790*%
%ADD20C,0.3140*%
%ADD21C,0.0640*%
%ADD22R,0.0640X0.0640*%
%ADD23C,0.0532*%
%ADD24R,0.1090X0.1090*%
%ADD25C,0.1090*%
%ADD26C,0.1080*%
%ADD27C,0.0805*%
%ADD28C,0.1400*%
%ADD29C,0.0590*%
%ADD30R,0.0631X0.0375*%
%ADD31C,0.0790*%
%ADD32C,0.1180*%
%ADD33OC8,0.0670*%
%ADD34C,0.0670*%
%ADD35C,0.0208*%
%ADD36C,0.0350*%
%ADD37C,0.0430*%
%ADD38C,0.0340*%
%ADD39C,0.0260*%
%ADD40C,0.0290*%
%ADD41C,0.3540*%
%ADD42C,0.4764*%
%ADD43C,0.0490*%
%ADD44C,0.0280*%
D10*
X012771Y037276D02*
X012773Y037288D01*
X012779Y037298D01*
X012787Y037306D01*
X012798Y037311D01*
X012810Y037312D01*
X012821Y037309D01*
X012831Y037302D01*
X012839Y037293D01*
X012843Y037282D01*
X012843Y037270D01*
X012839Y037259D01*
X012831Y037250D01*
X012821Y037243D01*
X012810Y037240D01*
X012798Y037241D01*
X012787Y037246D01*
X012779Y037254D01*
X012773Y037264D01*
X012771Y037276D01*
X013047Y037552D02*
X013049Y037564D01*
X013055Y037574D01*
X013063Y037582D01*
X013074Y037587D01*
X013086Y037588D01*
X013097Y037585D01*
X013107Y037578D01*
X013115Y037569D01*
X013119Y037558D01*
X013119Y037546D01*
X013115Y037535D01*
X013107Y037526D01*
X013097Y037519D01*
X013086Y037516D01*
X013074Y037517D01*
X013063Y037522D01*
X013055Y037530D01*
X013049Y037540D01*
X013047Y037552D01*
X012771Y037827D02*
X012773Y037839D01*
X012779Y037849D01*
X012787Y037857D01*
X012798Y037862D01*
X012810Y037863D01*
X012821Y037860D01*
X012831Y037853D01*
X012839Y037844D01*
X012843Y037833D01*
X012843Y037821D01*
X012839Y037810D01*
X012831Y037801D01*
X012821Y037794D01*
X012810Y037791D01*
X012798Y037792D01*
X012787Y037797D01*
X012779Y037805D01*
X012773Y037815D01*
X012771Y037827D01*
X013323Y037827D02*
X013325Y037839D01*
X013331Y037849D01*
X013339Y037857D01*
X013350Y037862D01*
X013362Y037863D01*
X013373Y037860D01*
X013383Y037853D01*
X013391Y037844D01*
X013395Y037833D01*
X013395Y037821D01*
X013391Y037810D01*
X013383Y037801D01*
X013373Y037794D01*
X013362Y037791D01*
X013350Y037792D01*
X013339Y037797D01*
X013331Y037805D01*
X013325Y037815D01*
X013323Y037827D01*
X013598Y037552D02*
X013600Y037564D01*
X013606Y037574D01*
X013614Y037582D01*
X013625Y037587D01*
X013637Y037588D01*
X013648Y037585D01*
X013658Y037578D01*
X013666Y037569D01*
X013670Y037558D01*
X013670Y037546D01*
X013666Y037535D01*
X013658Y037526D01*
X013648Y037519D01*
X013637Y037516D01*
X013625Y037517D01*
X013614Y037522D01*
X013606Y037530D01*
X013600Y037540D01*
X013598Y037552D01*
X013323Y037276D02*
X013325Y037288D01*
X013331Y037298D01*
X013339Y037306D01*
X013350Y037311D01*
X013362Y037312D01*
X013373Y037309D01*
X013383Y037302D01*
X013391Y037293D01*
X013395Y037282D01*
X013395Y037270D01*
X013391Y037259D01*
X013383Y037250D01*
X013373Y037243D01*
X013362Y037240D01*
X013350Y037241D01*
X013339Y037246D01*
X013331Y037254D01*
X013325Y037264D01*
X013323Y037276D01*
X013874Y037276D02*
X013876Y037288D01*
X013882Y037298D01*
X013890Y037306D01*
X013901Y037311D01*
X013913Y037312D01*
X013924Y037309D01*
X013934Y037302D01*
X013942Y037293D01*
X013946Y037282D01*
X013946Y037270D01*
X013942Y037259D01*
X013934Y037250D01*
X013924Y037243D01*
X013913Y037240D01*
X013901Y037241D01*
X013890Y037246D01*
X013882Y037254D01*
X013876Y037264D01*
X013874Y037276D01*
X014149Y037552D02*
X014151Y037564D01*
X014157Y037574D01*
X014165Y037582D01*
X014176Y037587D01*
X014188Y037588D01*
X014199Y037585D01*
X014209Y037578D01*
X014217Y037569D01*
X014221Y037558D01*
X014221Y037546D01*
X014217Y037535D01*
X014209Y037526D01*
X014199Y037519D01*
X014188Y037516D01*
X014176Y037517D01*
X014165Y037522D01*
X014157Y037530D01*
X014151Y037540D01*
X014149Y037552D01*
X013874Y037827D02*
X013876Y037839D01*
X013882Y037849D01*
X013890Y037857D01*
X013901Y037862D01*
X013913Y037863D01*
X013924Y037860D01*
X013934Y037853D01*
X013942Y037844D01*
X013946Y037833D01*
X013946Y037821D01*
X013942Y037810D01*
X013934Y037801D01*
X013924Y037794D01*
X013913Y037791D01*
X013901Y037792D01*
X013890Y037797D01*
X013882Y037805D01*
X013876Y037815D01*
X013874Y037827D01*
X014425Y037827D02*
X014427Y037839D01*
X014433Y037849D01*
X014441Y037857D01*
X014452Y037862D01*
X014464Y037863D01*
X014475Y037860D01*
X014485Y037853D01*
X014493Y037844D01*
X014497Y037833D01*
X014497Y037821D01*
X014493Y037810D01*
X014485Y037801D01*
X014475Y037794D01*
X014464Y037791D01*
X014452Y037792D01*
X014441Y037797D01*
X014433Y037805D01*
X014427Y037815D01*
X014425Y037827D01*
X014701Y037552D02*
X014703Y037564D01*
X014709Y037574D01*
X014717Y037582D01*
X014728Y037587D01*
X014740Y037588D01*
X014751Y037585D01*
X014761Y037578D01*
X014769Y037569D01*
X014773Y037558D01*
X014773Y037546D01*
X014769Y037535D01*
X014761Y037526D01*
X014751Y037519D01*
X014740Y037516D01*
X014728Y037517D01*
X014717Y037522D01*
X014709Y037530D01*
X014703Y037540D01*
X014701Y037552D01*
X014425Y037276D02*
X014427Y037288D01*
X014433Y037298D01*
X014441Y037306D01*
X014452Y037311D01*
X014464Y037312D01*
X014475Y037309D01*
X014485Y037302D01*
X014493Y037293D01*
X014497Y037282D01*
X014497Y037270D01*
X014493Y037259D01*
X014485Y037250D01*
X014475Y037243D01*
X014464Y037240D01*
X014452Y037241D01*
X014441Y037246D01*
X014433Y037254D01*
X014427Y037264D01*
X014425Y037276D01*
X014976Y037276D02*
X014978Y037288D01*
X014984Y037298D01*
X014992Y037306D01*
X015003Y037311D01*
X015015Y037312D01*
X015026Y037309D01*
X015036Y037302D01*
X015044Y037293D01*
X015048Y037282D01*
X015048Y037270D01*
X015044Y037259D01*
X015036Y037250D01*
X015026Y037243D01*
X015015Y037240D01*
X015003Y037241D01*
X014992Y037246D01*
X014984Y037254D01*
X014978Y037264D01*
X014976Y037276D01*
X014976Y037827D02*
X014978Y037839D01*
X014984Y037849D01*
X014992Y037857D01*
X015003Y037862D01*
X015015Y037863D01*
X015026Y037860D01*
X015036Y037853D01*
X015044Y037844D01*
X015048Y037833D01*
X015048Y037821D01*
X015044Y037810D01*
X015036Y037801D01*
X015026Y037794D01*
X015015Y037791D01*
X015003Y037792D01*
X014992Y037797D01*
X014984Y037805D01*
X014978Y037815D01*
X014976Y037827D01*
X043240Y037827D02*
X043242Y037839D01*
X043248Y037849D01*
X043256Y037857D01*
X043267Y037862D01*
X043279Y037863D01*
X043290Y037860D01*
X043300Y037853D01*
X043308Y037844D01*
X043312Y037833D01*
X043312Y037821D01*
X043308Y037810D01*
X043300Y037801D01*
X043290Y037794D01*
X043279Y037791D01*
X043267Y037792D01*
X043256Y037797D01*
X043248Y037805D01*
X043242Y037815D01*
X043240Y037827D01*
X043516Y037552D02*
X043518Y037564D01*
X043524Y037574D01*
X043532Y037582D01*
X043543Y037587D01*
X043555Y037588D01*
X043566Y037585D01*
X043576Y037578D01*
X043584Y037569D01*
X043588Y037558D01*
X043588Y037546D01*
X043584Y037535D01*
X043576Y037526D01*
X043566Y037519D01*
X043555Y037516D01*
X043543Y037517D01*
X043532Y037522D01*
X043524Y037530D01*
X043518Y037540D01*
X043516Y037552D01*
X043240Y037276D02*
X043242Y037288D01*
X043248Y037298D01*
X043256Y037306D01*
X043267Y037311D01*
X043279Y037312D01*
X043290Y037309D01*
X043300Y037302D01*
X043308Y037293D01*
X043312Y037282D01*
X043312Y037270D01*
X043308Y037259D01*
X043300Y037250D01*
X043290Y037243D01*
X043279Y037240D01*
X043267Y037241D01*
X043256Y037246D01*
X043248Y037254D01*
X043242Y037264D01*
X043240Y037276D01*
X043791Y037276D02*
X043793Y037288D01*
X043799Y037298D01*
X043807Y037306D01*
X043818Y037311D01*
X043830Y037312D01*
X043841Y037309D01*
X043851Y037302D01*
X043859Y037293D01*
X043863Y037282D01*
X043863Y037270D01*
X043859Y037259D01*
X043851Y037250D01*
X043841Y037243D01*
X043830Y037240D01*
X043818Y037241D01*
X043807Y037246D01*
X043799Y037254D01*
X043793Y037264D01*
X043791Y037276D01*
X044067Y037552D02*
X044069Y037564D01*
X044075Y037574D01*
X044083Y037582D01*
X044094Y037587D01*
X044106Y037588D01*
X044117Y037585D01*
X044127Y037578D01*
X044135Y037569D01*
X044139Y037558D01*
X044139Y037546D01*
X044135Y037535D01*
X044127Y037526D01*
X044117Y037519D01*
X044106Y037516D01*
X044094Y037517D01*
X044083Y037522D01*
X044075Y037530D01*
X044069Y037540D01*
X044067Y037552D01*
X043791Y037827D02*
X043793Y037839D01*
X043799Y037849D01*
X043807Y037857D01*
X043818Y037862D01*
X043830Y037863D01*
X043841Y037860D01*
X043851Y037853D01*
X043859Y037844D01*
X043863Y037833D01*
X043863Y037821D01*
X043859Y037810D01*
X043851Y037801D01*
X043841Y037794D01*
X043830Y037791D01*
X043818Y037792D01*
X043807Y037797D01*
X043799Y037805D01*
X043793Y037815D01*
X043791Y037827D01*
X044342Y037827D02*
X044344Y037839D01*
X044350Y037849D01*
X044358Y037857D01*
X044369Y037862D01*
X044381Y037863D01*
X044392Y037860D01*
X044402Y037853D01*
X044410Y037844D01*
X044414Y037833D01*
X044414Y037821D01*
X044410Y037810D01*
X044402Y037801D01*
X044392Y037794D01*
X044381Y037791D01*
X044369Y037792D01*
X044358Y037797D01*
X044350Y037805D01*
X044344Y037815D01*
X044342Y037827D01*
X044618Y037552D02*
X044620Y037564D01*
X044626Y037574D01*
X044634Y037582D01*
X044645Y037587D01*
X044657Y037588D01*
X044668Y037585D01*
X044678Y037578D01*
X044686Y037569D01*
X044690Y037558D01*
X044690Y037546D01*
X044686Y037535D01*
X044678Y037526D01*
X044668Y037519D01*
X044657Y037516D01*
X044645Y037517D01*
X044634Y037522D01*
X044626Y037530D01*
X044620Y037540D01*
X044618Y037552D01*
X044342Y037276D02*
X044344Y037288D01*
X044350Y037298D01*
X044358Y037306D01*
X044369Y037311D01*
X044381Y037312D01*
X044392Y037309D01*
X044402Y037302D01*
X044410Y037293D01*
X044414Y037282D01*
X044414Y037270D01*
X044410Y037259D01*
X044402Y037250D01*
X044392Y037243D01*
X044381Y037240D01*
X044369Y037241D01*
X044358Y037246D01*
X044350Y037254D01*
X044344Y037264D01*
X044342Y037276D01*
X044894Y037276D02*
X044896Y037288D01*
X044902Y037298D01*
X044910Y037306D01*
X044921Y037311D01*
X044933Y037312D01*
X044944Y037309D01*
X044954Y037302D01*
X044962Y037293D01*
X044966Y037282D01*
X044966Y037270D01*
X044962Y037259D01*
X044954Y037250D01*
X044944Y037243D01*
X044933Y037240D01*
X044921Y037241D01*
X044910Y037246D01*
X044902Y037254D01*
X044896Y037264D01*
X044894Y037276D01*
X045169Y037552D02*
X045171Y037564D01*
X045177Y037574D01*
X045185Y037582D01*
X045196Y037587D01*
X045208Y037588D01*
X045219Y037585D01*
X045229Y037578D01*
X045237Y037569D01*
X045241Y037558D01*
X045241Y037546D01*
X045237Y037535D01*
X045229Y037526D01*
X045219Y037519D01*
X045208Y037516D01*
X045196Y037517D01*
X045185Y037522D01*
X045177Y037530D01*
X045171Y037540D01*
X045169Y037552D01*
X044894Y037827D02*
X044896Y037839D01*
X044902Y037849D01*
X044910Y037857D01*
X044921Y037862D01*
X044933Y037863D01*
X044944Y037860D01*
X044954Y037853D01*
X044962Y037844D01*
X044966Y037833D01*
X044966Y037821D01*
X044962Y037810D01*
X044954Y037801D01*
X044944Y037794D01*
X044933Y037791D01*
X044921Y037792D01*
X044910Y037797D01*
X044902Y037805D01*
X044896Y037815D01*
X044894Y037827D01*
X045445Y037827D02*
X045447Y037839D01*
X045453Y037849D01*
X045461Y037857D01*
X045472Y037862D01*
X045484Y037863D01*
X045495Y037860D01*
X045505Y037853D01*
X045513Y037844D01*
X045517Y037833D01*
X045517Y037821D01*
X045513Y037810D01*
X045505Y037801D01*
X045495Y037794D01*
X045484Y037791D01*
X045472Y037792D01*
X045461Y037797D01*
X045453Y037805D01*
X045447Y037815D01*
X045445Y037827D01*
X045445Y037276D02*
X045447Y037288D01*
X045453Y037298D01*
X045461Y037306D01*
X045472Y037311D01*
X045484Y037312D01*
X045495Y037309D01*
X045505Y037302D01*
X045513Y037293D01*
X045517Y037282D01*
X045517Y037270D01*
X045513Y037259D01*
X045505Y037250D01*
X045495Y037243D01*
X045484Y037240D01*
X045472Y037241D01*
X045461Y037246D01*
X045453Y037254D01*
X045447Y037264D01*
X045445Y037276D01*
X065941Y018142D02*
X065943Y018154D01*
X065949Y018164D01*
X065957Y018172D01*
X065968Y018177D01*
X065980Y018178D01*
X065991Y018175D01*
X066001Y018168D01*
X066009Y018159D01*
X066013Y018148D01*
X066013Y018136D01*
X066009Y018125D01*
X066001Y018116D01*
X065991Y018109D01*
X065980Y018106D01*
X065968Y018107D01*
X065957Y018112D01*
X065949Y018120D01*
X065943Y018130D01*
X065941Y018142D01*
X066216Y017867D02*
X066218Y017879D01*
X066224Y017889D01*
X066232Y017897D01*
X066243Y017902D01*
X066255Y017903D01*
X066266Y017900D01*
X066276Y017893D01*
X066284Y017884D01*
X066288Y017873D01*
X066288Y017861D01*
X066284Y017850D01*
X066276Y017841D01*
X066266Y017834D01*
X066255Y017831D01*
X066243Y017832D01*
X066232Y017837D01*
X066224Y017845D01*
X066218Y017855D01*
X066216Y017867D01*
X065941Y017591D02*
X065943Y017603D01*
X065949Y017613D01*
X065957Y017621D01*
X065968Y017626D01*
X065980Y017627D01*
X065991Y017624D01*
X066001Y017617D01*
X066009Y017608D01*
X066013Y017597D01*
X066013Y017585D01*
X066009Y017574D01*
X066001Y017565D01*
X065991Y017558D01*
X065980Y017555D01*
X065968Y017556D01*
X065957Y017561D01*
X065949Y017569D01*
X065943Y017579D01*
X065941Y017591D01*
X066492Y017591D02*
X066494Y017603D01*
X066500Y017613D01*
X066508Y017621D01*
X066519Y017626D01*
X066531Y017627D01*
X066542Y017624D01*
X066552Y017617D01*
X066560Y017608D01*
X066564Y017597D01*
X066564Y017585D01*
X066560Y017574D01*
X066552Y017565D01*
X066542Y017558D01*
X066531Y017555D01*
X066519Y017556D01*
X066508Y017561D01*
X066500Y017569D01*
X066494Y017579D01*
X066492Y017591D01*
X066768Y017867D02*
X066770Y017879D01*
X066776Y017889D01*
X066784Y017897D01*
X066795Y017902D01*
X066807Y017903D01*
X066818Y017900D01*
X066828Y017893D01*
X066836Y017884D01*
X066840Y017873D01*
X066840Y017861D01*
X066836Y017850D01*
X066828Y017841D01*
X066818Y017834D01*
X066807Y017831D01*
X066795Y017832D01*
X066784Y017837D01*
X066776Y017845D01*
X066770Y017855D01*
X066768Y017867D01*
X066492Y018142D02*
X066494Y018154D01*
X066500Y018164D01*
X066508Y018172D01*
X066519Y018177D01*
X066531Y018178D01*
X066542Y018175D01*
X066552Y018168D01*
X066560Y018159D01*
X066564Y018148D01*
X066564Y018136D01*
X066560Y018125D01*
X066552Y018116D01*
X066542Y018109D01*
X066531Y018106D01*
X066519Y018107D01*
X066508Y018112D01*
X066500Y018120D01*
X066494Y018130D01*
X066492Y018142D01*
X067043Y018142D02*
X067045Y018154D01*
X067051Y018164D01*
X067059Y018172D01*
X067070Y018177D01*
X067082Y018178D01*
X067093Y018175D01*
X067103Y018168D01*
X067111Y018159D01*
X067115Y018148D01*
X067115Y018136D01*
X067111Y018125D01*
X067103Y018116D01*
X067093Y018109D01*
X067082Y018106D01*
X067070Y018107D01*
X067059Y018112D01*
X067051Y018120D01*
X067045Y018130D01*
X067043Y018142D01*
X067319Y017867D02*
X067321Y017879D01*
X067327Y017889D01*
X067335Y017897D01*
X067346Y017902D01*
X067358Y017903D01*
X067369Y017900D01*
X067379Y017893D01*
X067387Y017884D01*
X067391Y017873D01*
X067391Y017861D01*
X067387Y017850D01*
X067379Y017841D01*
X067369Y017834D01*
X067358Y017831D01*
X067346Y017832D01*
X067335Y017837D01*
X067327Y017845D01*
X067321Y017855D01*
X067319Y017867D01*
X067043Y017591D02*
X067045Y017603D01*
X067051Y017613D01*
X067059Y017621D01*
X067070Y017626D01*
X067082Y017627D01*
X067093Y017624D01*
X067103Y017617D01*
X067111Y017608D01*
X067115Y017597D01*
X067115Y017585D01*
X067111Y017574D01*
X067103Y017565D01*
X067093Y017558D01*
X067082Y017555D01*
X067070Y017556D01*
X067059Y017561D01*
X067051Y017569D01*
X067045Y017579D01*
X067043Y017591D01*
X067594Y017591D02*
X067596Y017603D01*
X067602Y017613D01*
X067610Y017621D01*
X067621Y017626D01*
X067633Y017627D01*
X067644Y017624D01*
X067654Y017617D01*
X067662Y017608D01*
X067666Y017597D01*
X067666Y017585D01*
X067662Y017574D01*
X067654Y017565D01*
X067644Y017558D01*
X067633Y017555D01*
X067621Y017556D01*
X067610Y017561D01*
X067602Y017569D01*
X067596Y017579D01*
X067594Y017591D01*
X067870Y017867D02*
X067872Y017879D01*
X067878Y017889D01*
X067886Y017897D01*
X067897Y017902D01*
X067909Y017903D01*
X067920Y017900D01*
X067930Y017893D01*
X067938Y017884D01*
X067942Y017873D01*
X067942Y017861D01*
X067938Y017850D01*
X067930Y017841D01*
X067920Y017834D01*
X067909Y017831D01*
X067897Y017832D01*
X067886Y017837D01*
X067878Y017845D01*
X067872Y017855D01*
X067870Y017867D01*
X067594Y018142D02*
X067596Y018154D01*
X067602Y018164D01*
X067610Y018172D01*
X067621Y018177D01*
X067633Y018178D01*
X067644Y018175D01*
X067654Y018168D01*
X067662Y018159D01*
X067666Y018148D01*
X067666Y018136D01*
X067662Y018125D01*
X067654Y018116D01*
X067644Y018109D01*
X067633Y018106D01*
X067621Y018107D01*
X067610Y018112D01*
X067602Y018120D01*
X067596Y018130D01*
X067594Y018142D01*
X068145Y018142D02*
X068147Y018154D01*
X068153Y018164D01*
X068161Y018172D01*
X068172Y018177D01*
X068184Y018178D01*
X068195Y018175D01*
X068205Y018168D01*
X068213Y018159D01*
X068217Y018148D01*
X068217Y018136D01*
X068213Y018125D01*
X068205Y018116D01*
X068195Y018109D01*
X068184Y018106D01*
X068172Y018107D01*
X068161Y018112D01*
X068153Y018120D01*
X068147Y018130D01*
X068145Y018142D01*
X068145Y017591D02*
X068147Y017603D01*
X068153Y017613D01*
X068161Y017621D01*
X068172Y017626D01*
X068184Y017627D01*
X068195Y017624D01*
X068205Y017617D01*
X068213Y017608D01*
X068217Y017597D01*
X068217Y017585D01*
X068213Y017574D01*
X068205Y017565D01*
X068195Y017558D01*
X068184Y017555D01*
X068172Y017556D01*
X068161Y017561D01*
X068153Y017569D01*
X068147Y017579D01*
X068145Y017591D01*
X105311Y017591D02*
X105313Y017603D01*
X105319Y017613D01*
X105327Y017621D01*
X105338Y017626D01*
X105350Y017627D01*
X105361Y017624D01*
X105371Y017617D01*
X105379Y017608D01*
X105383Y017597D01*
X105383Y017585D01*
X105379Y017574D01*
X105371Y017565D01*
X105361Y017558D01*
X105350Y017555D01*
X105338Y017556D01*
X105327Y017561D01*
X105319Y017569D01*
X105313Y017579D01*
X105311Y017591D01*
X105586Y017867D02*
X105588Y017879D01*
X105594Y017889D01*
X105602Y017897D01*
X105613Y017902D01*
X105625Y017903D01*
X105636Y017900D01*
X105646Y017893D01*
X105654Y017884D01*
X105658Y017873D01*
X105658Y017861D01*
X105654Y017850D01*
X105646Y017841D01*
X105636Y017834D01*
X105625Y017831D01*
X105613Y017832D01*
X105602Y017837D01*
X105594Y017845D01*
X105588Y017855D01*
X105586Y017867D01*
X105311Y018142D02*
X105313Y018154D01*
X105319Y018164D01*
X105327Y018172D01*
X105338Y018177D01*
X105350Y018178D01*
X105361Y018175D01*
X105371Y018168D01*
X105379Y018159D01*
X105383Y018148D01*
X105383Y018136D01*
X105379Y018125D01*
X105371Y018116D01*
X105361Y018109D01*
X105350Y018106D01*
X105338Y018107D01*
X105327Y018112D01*
X105319Y018120D01*
X105313Y018130D01*
X105311Y018142D01*
X105862Y018142D02*
X105864Y018154D01*
X105870Y018164D01*
X105878Y018172D01*
X105889Y018177D01*
X105901Y018178D01*
X105912Y018175D01*
X105922Y018168D01*
X105930Y018159D01*
X105934Y018148D01*
X105934Y018136D01*
X105930Y018125D01*
X105922Y018116D01*
X105912Y018109D01*
X105901Y018106D01*
X105889Y018107D01*
X105878Y018112D01*
X105870Y018120D01*
X105864Y018130D01*
X105862Y018142D01*
X106138Y017867D02*
X106140Y017879D01*
X106146Y017889D01*
X106154Y017897D01*
X106165Y017902D01*
X106177Y017903D01*
X106188Y017900D01*
X106198Y017893D01*
X106206Y017884D01*
X106210Y017873D01*
X106210Y017861D01*
X106206Y017850D01*
X106198Y017841D01*
X106188Y017834D01*
X106177Y017831D01*
X106165Y017832D01*
X106154Y017837D01*
X106146Y017845D01*
X106140Y017855D01*
X106138Y017867D01*
X105862Y017591D02*
X105864Y017603D01*
X105870Y017613D01*
X105878Y017621D01*
X105889Y017626D01*
X105901Y017627D01*
X105912Y017624D01*
X105922Y017617D01*
X105930Y017608D01*
X105934Y017597D01*
X105934Y017585D01*
X105930Y017574D01*
X105922Y017565D01*
X105912Y017558D01*
X105901Y017555D01*
X105889Y017556D01*
X105878Y017561D01*
X105870Y017569D01*
X105864Y017579D01*
X105862Y017591D01*
X106413Y017591D02*
X106415Y017603D01*
X106421Y017613D01*
X106429Y017621D01*
X106440Y017626D01*
X106452Y017627D01*
X106463Y017624D01*
X106473Y017617D01*
X106481Y017608D01*
X106485Y017597D01*
X106485Y017585D01*
X106481Y017574D01*
X106473Y017565D01*
X106463Y017558D01*
X106452Y017555D01*
X106440Y017556D01*
X106429Y017561D01*
X106421Y017569D01*
X106415Y017579D01*
X106413Y017591D01*
X106689Y017867D02*
X106691Y017879D01*
X106697Y017889D01*
X106705Y017897D01*
X106716Y017902D01*
X106728Y017903D01*
X106739Y017900D01*
X106749Y017893D01*
X106757Y017884D01*
X106761Y017873D01*
X106761Y017861D01*
X106757Y017850D01*
X106749Y017841D01*
X106739Y017834D01*
X106728Y017831D01*
X106716Y017832D01*
X106705Y017837D01*
X106697Y017845D01*
X106691Y017855D01*
X106689Y017867D01*
X106413Y018142D02*
X106415Y018154D01*
X106421Y018164D01*
X106429Y018172D01*
X106440Y018177D01*
X106452Y018178D01*
X106463Y018175D01*
X106473Y018168D01*
X106481Y018159D01*
X106485Y018148D01*
X106485Y018136D01*
X106481Y018125D01*
X106473Y018116D01*
X106463Y018109D01*
X106452Y018106D01*
X106440Y018107D01*
X106429Y018112D01*
X106421Y018120D01*
X106415Y018130D01*
X106413Y018142D01*
X106964Y018142D02*
X106966Y018154D01*
X106972Y018164D01*
X106980Y018172D01*
X106991Y018177D01*
X107003Y018178D01*
X107014Y018175D01*
X107024Y018168D01*
X107032Y018159D01*
X107036Y018148D01*
X107036Y018136D01*
X107032Y018125D01*
X107024Y018116D01*
X107014Y018109D01*
X107003Y018106D01*
X106991Y018107D01*
X106980Y018112D01*
X106972Y018120D01*
X106966Y018130D01*
X106964Y018142D01*
X107240Y017867D02*
X107242Y017879D01*
X107248Y017889D01*
X107256Y017897D01*
X107267Y017902D01*
X107279Y017903D01*
X107290Y017900D01*
X107300Y017893D01*
X107308Y017884D01*
X107312Y017873D01*
X107312Y017861D01*
X107308Y017850D01*
X107300Y017841D01*
X107290Y017834D01*
X107279Y017831D01*
X107267Y017832D01*
X107256Y017837D01*
X107248Y017845D01*
X107242Y017855D01*
X107240Y017867D01*
X106964Y017591D02*
X106966Y017603D01*
X106972Y017613D01*
X106980Y017621D01*
X106991Y017626D01*
X107003Y017627D01*
X107014Y017624D01*
X107024Y017617D01*
X107032Y017608D01*
X107036Y017597D01*
X107036Y017585D01*
X107032Y017574D01*
X107024Y017565D01*
X107014Y017558D01*
X107003Y017555D01*
X106991Y017556D01*
X106980Y017561D01*
X106972Y017569D01*
X106966Y017579D01*
X106964Y017591D01*
X107516Y017591D02*
X107518Y017603D01*
X107524Y017613D01*
X107532Y017621D01*
X107543Y017626D01*
X107555Y017627D01*
X107566Y017624D01*
X107576Y017617D01*
X107584Y017608D01*
X107588Y017597D01*
X107588Y017585D01*
X107584Y017574D01*
X107576Y017565D01*
X107566Y017558D01*
X107555Y017555D01*
X107543Y017556D01*
X107532Y017561D01*
X107524Y017569D01*
X107518Y017579D01*
X107516Y017591D01*
X107516Y018142D02*
X107518Y018154D01*
X107524Y018164D01*
X107532Y018172D01*
X107543Y018177D01*
X107555Y018178D01*
X107566Y018175D01*
X107576Y018168D01*
X107584Y018159D01*
X107588Y018148D01*
X107588Y018136D01*
X107584Y018125D01*
X107576Y018116D01*
X107566Y018109D01*
X107555Y018106D01*
X107543Y018107D01*
X107532Y018112D01*
X107524Y018120D01*
X107518Y018130D01*
X107516Y018142D01*
X115980Y064776D02*
X115982Y064788D01*
X115988Y064798D01*
X115996Y064806D01*
X116007Y064811D01*
X116019Y064812D01*
X116030Y064809D01*
X116040Y064802D01*
X116048Y064793D01*
X116052Y064782D01*
X116052Y064770D01*
X116048Y064759D01*
X116040Y064750D01*
X116030Y064743D01*
X116019Y064740D01*
X116007Y064741D01*
X115996Y064746D01*
X115988Y064754D01*
X115982Y064764D01*
X115980Y064776D01*
X116256Y065052D02*
X116258Y065064D01*
X116264Y065074D01*
X116272Y065082D01*
X116283Y065087D01*
X116295Y065088D01*
X116306Y065085D01*
X116316Y065078D01*
X116324Y065069D01*
X116328Y065058D01*
X116328Y065046D01*
X116324Y065035D01*
X116316Y065026D01*
X116306Y065019D01*
X116295Y065016D01*
X116283Y065017D01*
X116272Y065022D01*
X116264Y065030D01*
X116258Y065040D01*
X116256Y065052D01*
X115980Y065327D02*
X115982Y065339D01*
X115988Y065349D01*
X115996Y065357D01*
X116007Y065362D01*
X116019Y065363D01*
X116030Y065360D01*
X116040Y065353D01*
X116048Y065344D01*
X116052Y065333D01*
X116052Y065321D01*
X116048Y065310D01*
X116040Y065301D01*
X116030Y065294D01*
X116019Y065291D01*
X116007Y065292D01*
X115996Y065297D01*
X115988Y065305D01*
X115982Y065315D01*
X115980Y065327D01*
X116256Y065603D02*
X116258Y065615D01*
X116264Y065625D01*
X116272Y065633D01*
X116283Y065638D01*
X116295Y065639D01*
X116306Y065636D01*
X116316Y065629D01*
X116324Y065620D01*
X116328Y065609D01*
X116328Y065597D01*
X116324Y065586D01*
X116316Y065577D01*
X116306Y065570D01*
X116295Y065567D01*
X116283Y065568D01*
X116272Y065573D01*
X116264Y065581D01*
X116258Y065591D01*
X116256Y065603D01*
X115980Y065878D02*
X115982Y065890D01*
X115988Y065900D01*
X115996Y065908D01*
X116007Y065913D01*
X116019Y065914D01*
X116030Y065911D01*
X116040Y065904D01*
X116048Y065895D01*
X116052Y065884D01*
X116052Y065872D01*
X116048Y065861D01*
X116040Y065852D01*
X116030Y065845D01*
X116019Y065842D01*
X116007Y065843D01*
X115996Y065848D01*
X115988Y065856D01*
X115982Y065866D01*
X115980Y065878D01*
X116256Y066154D02*
X116258Y066166D01*
X116264Y066176D01*
X116272Y066184D01*
X116283Y066189D01*
X116295Y066190D01*
X116306Y066187D01*
X116316Y066180D01*
X116324Y066171D01*
X116328Y066160D01*
X116328Y066148D01*
X116324Y066137D01*
X116316Y066128D01*
X116306Y066121D01*
X116295Y066118D01*
X116283Y066119D01*
X116272Y066124D01*
X116264Y066132D01*
X116258Y066142D01*
X116256Y066154D01*
X115980Y066430D02*
X115982Y066442D01*
X115988Y066452D01*
X115996Y066460D01*
X116007Y066465D01*
X116019Y066466D01*
X116030Y066463D01*
X116040Y066456D01*
X116048Y066447D01*
X116052Y066436D01*
X116052Y066424D01*
X116048Y066413D01*
X116040Y066404D01*
X116030Y066397D01*
X116019Y066394D01*
X116007Y066395D01*
X115996Y066400D01*
X115988Y066408D01*
X115982Y066418D01*
X115980Y066430D01*
X116256Y066705D02*
X116258Y066717D01*
X116264Y066727D01*
X116272Y066735D01*
X116283Y066740D01*
X116295Y066741D01*
X116306Y066738D01*
X116316Y066731D01*
X116324Y066722D01*
X116328Y066711D01*
X116328Y066699D01*
X116324Y066688D01*
X116316Y066679D01*
X116306Y066672D01*
X116295Y066669D01*
X116283Y066670D01*
X116272Y066675D01*
X116264Y066683D01*
X116258Y066693D01*
X116256Y066705D01*
X115980Y066981D02*
X115982Y066993D01*
X115988Y067003D01*
X115996Y067011D01*
X116007Y067016D01*
X116019Y067017D01*
X116030Y067014D01*
X116040Y067007D01*
X116048Y066998D01*
X116052Y066987D01*
X116052Y066975D01*
X116048Y066964D01*
X116040Y066955D01*
X116030Y066948D01*
X116019Y066945D01*
X116007Y066946D01*
X115996Y066951D01*
X115988Y066959D01*
X115982Y066969D01*
X115980Y066981D01*
X116531Y066981D02*
X116533Y066993D01*
X116539Y067003D01*
X116547Y067011D01*
X116558Y067016D01*
X116570Y067017D01*
X116581Y067014D01*
X116591Y067007D01*
X116599Y066998D01*
X116603Y066987D01*
X116603Y066975D01*
X116599Y066964D01*
X116591Y066955D01*
X116581Y066948D01*
X116570Y066945D01*
X116558Y066946D01*
X116547Y066951D01*
X116539Y066959D01*
X116533Y066969D01*
X116531Y066981D01*
X116531Y066430D02*
X116533Y066442D01*
X116539Y066452D01*
X116547Y066460D01*
X116558Y066465D01*
X116570Y066466D01*
X116581Y066463D01*
X116591Y066456D01*
X116599Y066447D01*
X116603Y066436D01*
X116603Y066424D01*
X116599Y066413D01*
X116591Y066404D01*
X116581Y066397D01*
X116570Y066394D01*
X116558Y066395D01*
X116547Y066400D01*
X116539Y066408D01*
X116533Y066418D01*
X116531Y066430D01*
X116531Y065878D02*
X116533Y065890D01*
X116539Y065900D01*
X116547Y065908D01*
X116558Y065913D01*
X116570Y065914D01*
X116581Y065911D01*
X116591Y065904D01*
X116599Y065895D01*
X116603Y065884D01*
X116603Y065872D01*
X116599Y065861D01*
X116591Y065852D01*
X116581Y065845D01*
X116570Y065842D01*
X116558Y065843D01*
X116547Y065848D01*
X116539Y065856D01*
X116533Y065866D01*
X116531Y065878D01*
X116531Y065327D02*
X116533Y065339D01*
X116539Y065349D01*
X116547Y065357D01*
X116558Y065362D01*
X116570Y065363D01*
X116581Y065360D01*
X116591Y065353D01*
X116599Y065344D01*
X116603Y065333D01*
X116603Y065321D01*
X116599Y065310D01*
X116591Y065301D01*
X116581Y065294D01*
X116570Y065291D01*
X116558Y065292D01*
X116547Y065297D01*
X116539Y065305D01*
X116533Y065315D01*
X116531Y065327D01*
X116531Y064776D02*
X116533Y064788D01*
X116539Y064798D01*
X116547Y064806D01*
X116558Y064811D01*
X116570Y064812D01*
X116581Y064809D01*
X116591Y064802D01*
X116599Y064793D01*
X116603Y064782D01*
X116603Y064770D01*
X116599Y064759D01*
X116591Y064750D01*
X116581Y064743D01*
X116570Y064740D01*
X116558Y064741D01*
X116547Y064746D01*
X116539Y064754D01*
X116533Y064764D01*
X116531Y064776D01*
X116531Y106646D02*
X116533Y106658D01*
X116539Y106668D01*
X116547Y106676D01*
X116558Y106681D01*
X116570Y106682D01*
X116581Y106679D01*
X116591Y106672D01*
X116599Y106663D01*
X116603Y106652D01*
X116603Y106640D01*
X116599Y106629D01*
X116591Y106620D01*
X116581Y106613D01*
X116570Y106610D01*
X116558Y106611D01*
X116547Y106616D01*
X116539Y106624D01*
X116533Y106634D01*
X116531Y106646D01*
X116256Y106922D02*
X116258Y106934D01*
X116264Y106944D01*
X116272Y106952D01*
X116283Y106957D01*
X116295Y106958D01*
X116306Y106955D01*
X116316Y106948D01*
X116324Y106939D01*
X116328Y106928D01*
X116328Y106916D01*
X116324Y106905D01*
X116316Y106896D01*
X116306Y106889D01*
X116295Y106886D01*
X116283Y106887D01*
X116272Y106892D01*
X116264Y106900D01*
X116258Y106910D01*
X116256Y106922D01*
X115980Y107197D02*
X115982Y107209D01*
X115988Y107219D01*
X115996Y107227D01*
X116007Y107232D01*
X116019Y107233D01*
X116030Y107230D01*
X116040Y107223D01*
X116048Y107214D01*
X116052Y107203D01*
X116052Y107191D01*
X116048Y107180D01*
X116040Y107171D01*
X116030Y107164D01*
X116019Y107161D01*
X116007Y107162D01*
X115996Y107167D01*
X115988Y107175D01*
X115982Y107185D01*
X115980Y107197D01*
X116256Y107473D02*
X116258Y107485D01*
X116264Y107495D01*
X116272Y107503D01*
X116283Y107508D01*
X116295Y107509D01*
X116306Y107506D01*
X116316Y107499D01*
X116324Y107490D01*
X116328Y107479D01*
X116328Y107467D01*
X116324Y107456D01*
X116316Y107447D01*
X116306Y107440D01*
X116295Y107437D01*
X116283Y107438D01*
X116272Y107443D01*
X116264Y107451D01*
X116258Y107461D01*
X116256Y107473D01*
X115980Y107748D02*
X115982Y107760D01*
X115988Y107770D01*
X115996Y107778D01*
X116007Y107783D01*
X116019Y107784D01*
X116030Y107781D01*
X116040Y107774D01*
X116048Y107765D01*
X116052Y107754D01*
X116052Y107742D01*
X116048Y107731D01*
X116040Y107722D01*
X116030Y107715D01*
X116019Y107712D01*
X116007Y107713D01*
X115996Y107718D01*
X115988Y107726D01*
X115982Y107736D01*
X115980Y107748D01*
X116256Y108024D02*
X116258Y108036D01*
X116264Y108046D01*
X116272Y108054D01*
X116283Y108059D01*
X116295Y108060D01*
X116306Y108057D01*
X116316Y108050D01*
X116324Y108041D01*
X116328Y108030D01*
X116328Y108018D01*
X116324Y108007D01*
X116316Y107998D01*
X116306Y107991D01*
X116295Y107988D01*
X116283Y107989D01*
X116272Y107994D01*
X116264Y108002D01*
X116258Y108012D01*
X116256Y108024D01*
X115980Y108300D02*
X115982Y108312D01*
X115988Y108322D01*
X115996Y108330D01*
X116007Y108335D01*
X116019Y108336D01*
X116030Y108333D01*
X116040Y108326D01*
X116048Y108317D01*
X116052Y108306D01*
X116052Y108294D01*
X116048Y108283D01*
X116040Y108274D01*
X116030Y108267D01*
X116019Y108264D01*
X116007Y108265D01*
X115996Y108270D01*
X115988Y108278D01*
X115982Y108288D01*
X115980Y108300D01*
X116256Y108575D02*
X116258Y108587D01*
X116264Y108597D01*
X116272Y108605D01*
X116283Y108610D01*
X116295Y108611D01*
X116306Y108608D01*
X116316Y108601D01*
X116324Y108592D01*
X116328Y108581D01*
X116328Y108569D01*
X116324Y108558D01*
X116316Y108549D01*
X116306Y108542D01*
X116295Y108539D01*
X116283Y108540D01*
X116272Y108545D01*
X116264Y108553D01*
X116258Y108563D01*
X116256Y108575D01*
X115980Y108851D02*
X115982Y108863D01*
X115988Y108873D01*
X115996Y108881D01*
X116007Y108886D01*
X116019Y108887D01*
X116030Y108884D01*
X116040Y108877D01*
X116048Y108868D01*
X116052Y108857D01*
X116052Y108845D01*
X116048Y108834D01*
X116040Y108825D01*
X116030Y108818D01*
X116019Y108815D01*
X116007Y108816D01*
X115996Y108821D01*
X115988Y108829D01*
X115982Y108839D01*
X115980Y108851D01*
X116531Y108851D02*
X116533Y108863D01*
X116539Y108873D01*
X116547Y108881D01*
X116558Y108886D01*
X116570Y108887D01*
X116581Y108884D01*
X116591Y108877D01*
X116599Y108868D01*
X116603Y108857D01*
X116603Y108845D01*
X116599Y108834D01*
X116591Y108825D01*
X116581Y108818D01*
X116570Y108815D01*
X116558Y108816D01*
X116547Y108821D01*
X116539Y108829D01*
X116533Y108839D01*
X116531Y108851D01*
X116531Y108300D02*
X116533Y108312D01*
X116539Y108322D01*
X116547Y108330D01*
X116558Y108335D01*
X116570Y108336D01*
X116581Y108333D01*
X116591Y108326D01*
X116599Y108317D01*
X116603Y108306D01*
X116603Y108294D01*
X116599Y108283D01*
X116591Y108274D01*
X116581Y108267D01*
X116570Y108264D01*
X116558Y108265D01*
X116547Y108270D01*
X116539Y108278D01*
X116533Y108288D01*
X116531Y108300D01*
X116531Y107748D02*
X116533Y107760D01*
X116539Y107770D01*
X116547Y107778D01*
X116558Y107783D01*
X116570Y107784D01*
X116581Y107781D01*
X116591Y107774D01*
X116599Y107765D01*
X116603Y107754D01*
X116603Y107742D01*
X116599Y107731D01*
X116591Y107722D01*
X116581Y107715D01*
X116570Y107712D01*
X116558Y107713D01*
X116547Y107718D01*
X116539Y107726D01*
X116533Y107736D01*
X116531Y107748D01*
X116531Y107197D02*
X116533Y107209D01*
X116539Y107219D01*
X116547Y107227D01*
X116558Y107232D01*
X116570Y107233D01*
X116581Y107230D01*
X116591Y107223D01*
X116599Y107214D01*
X116603Y107203D01*
X116603Y107191D01*
X116599Y107180D01*
X116591Y107171D01*
X116581Y107164D01*
X116570Y107161D01*
X116558Y107162D01*
X116547Y107167D01*
X116539Y107175D01*
X116533Y107185D01*
X116531Y107197D01*
X115980Y106646D02*
X115982Y106658D01*
X115988Y106668D01*
X115996Y106676D01*
X116007Y106681D01*
X116019Y106682D01*
X116030Y106679D01*
X116040Y106672D01*
X116048Y106663D01*
X116052Y106652D01*
X116052Y106640D01*
X116048Y106629D01*
X116040Y106620D01*
X116030Y106613D01*
X116019Y106610D01*
X116007Y106611D01*
X115996Y106616D01*
X115988Y106624D01*
X115982Y106634D01*
X115980Y106646D01*
X075547Y084796D02*
X075549Y084808D01*
X075555Y084818D01*
X075563Y084826D01*
X075574Y084831D01*
X075586Y084832D01*
X075597Y084829D01*
X075607Y084822D01*
X075615Y084813D01*
X075619Y084802D01*
X075619Y084790D01*
X075615Y084779D01*
X075607Y084770D01*
X075597Y084763D01*
X075586Y084760D01*
X075574Y084761D01*
X075563Y084766D01*
X075555Y084774D01*
X075549Y084784D01*
X075547Y084796D01*
X075271Y084520D02*
X075273Y084532D01*
X075279Y084542D01*
X075287Y084550D01*
X075298Y084555D01*
X075310Y084556D01*
X075321Y084553D01*
X075331Y084546D01*
X075339Y084537D01*
X075343Y084526D01*
X075343Y084514D01*
X075339Y084503D01*
X075331Y084494D01*
X075321Y084487D01*
X075310Y084484D01*
X075298Y084485D01*
X075287Y084490D01*
X075279Y084498D01*
X075273Y084508D01*
X075271Y084520D01*
X074996Y084244D02*
X074998Y084256D01*
X075004Y084266D01*
X075012Y084274D01*
X075023Y084279D01*
X075035Y084280D01*
X075046Y084277D01*
X075056Y084270D01*
X075064Y084261D01*
X075068Y084250D01*
X075068Y084238D01*
X075064Y084227D01*
X075056Y084218D01*
X075046Y084211D01*
X075035Y084208D01*
X075023Y084209D01*
X075012Y084214D01*
X075004Y084222D01*
X074998Y084232D01*
X074996Y084244D01*
X074720Y084520D02*
X074722Y084532D01*
X074728Y084542D01*
X074736Y084550D01*
X074747Y084555D01*
X074759Y084556D01*
X074770Y084553D01*
X074780Y084546D01*
X074788Y084537D01*
X074792Y084526D01*
X074792Y084514D01*
X074788Y084503D01*
X074780Y084494D01*
X074770Y084487D01*
X074759Y084484D01*
X074747Y084485D01*
X074736Y084490D01*
X074728Y084498D01*
X074722Y084508D01*
X074720Y084520D01*
X074445Y084244D02*
X074447Y084256D01*
X074453Y084266D01*
X074461Y084274D01*
X074472Y084279D01*
X074484Y084280D01*
X074495Y084277D01*
X074505Y084270D01*
X074513Y084261D01*
X074517Y084250D01*
X074517Y084238D01*
X074513Y084227D01*
X074505Y084218D01*
X074495Y084211D01*
X074484Y084208D01*
X074472Y084209D01*
X074461Y084214D01*
X074453Y084222D01*
X074447Y084232D01*
X074445Y084244D01*
X074169Y084520D02*
X074171Y084532D01*
X074177Y084542D01*
X074185Y084550D01*
X074196Y084555D01*
X074208Y084556D01*
X074219Y084553D01*
X074229Y084546D01*
X074237Y084537D01*
X074241Y084526D01*
X074241Y084514D01*
X074237Y084503D01*
X074229Y084494D01*
X074219Y084487D01*
X074208Y084484D01*
X074196Y084485D01*
X074185Y084490D01*
X074177Y084498D01*
X074171Y084508D01*
X074169Y084520D01*
X073894Y084244D02*
X073896Y084256D01*
X073902Y084266D01*
X073910Y084274D01*
X073921Y084279D01*
X073933Y084280D01*
X073944Y084277D01*
X073954Y084270D01*
X073962Y084261D01*
X073966Y084250D01*
X073966Y084238D01*
X073962Y084227D01*
X073954Y084218D01*
X073944Y084211D01*
X073933Y084208D01*
X073921Y084209D01*
X073910Y084214D01*
X073902Y084222D01*
X073896Y084232D01*
X073894Y084244D01*
X073618Y084520D02*
X073620Y084532D01*
X073626Y084542D01*
X073634Y084550D01*
X073645Y084555D01*
X073657Y084556D01*
X073668Y084553D01*
X073678Y084546D01*
X073686Y084537D01*
X073690Y084526D01*
X073690Y084514D01*
X073686Y084503D01*
X073678Y084494D01*
X073668Y084487D01*
X073657Y084484D01*
X073645Y084485D01*
X073634Y084490D01*
X073626Y084498D01*
X073620Y084508D01*
X073618Y084520D01*
X073342Y084244D02*
X073344Y084256D01*
X073350Y084266D01*
X073358Y084274D01*
X073369Y084279D01*
X073381Y084280D01*
X073392Y084277D01*
X073402Y084270D01*
X073410Y084261D01*
X073414Y084250D01*
X073414Y084238D01*
X073410Y084227D01*
X073402Y084218D01*
X073392Y084211D01*
X073381Y084208D01*
X073369Y084209D01*
X073358Y084214D01*
X073350Y084222D01*
X073344Y084232D01*
X073342Y084244D01*
X073342Y084796D02*
X073344Y084808D01*
X073350Y084818D01*
X073358Y084826D01*
X073369Y084831D01*
X073381Y084832D01*
X073392Y084829D01*
X073402Y084822D01*
X073410Y084813D01*
X073414Y084802D01*
X073414Y084790D01*
X073410Y084779D01*
X073402Y084770D01*
X073392Y084763D01*
X073381Y084760D01*
X073369Y084761D01*
X073358Y084766D01*
X073350Y084774D01*
X073344Y084784D01*
X073342Y084796D01*
X073894Y084796D02*
X073896Y084808D01*
X073902Y084818D01*
X073910Y084826D01*
X073921Y084831D01*
X073933Y084832D01*
X073944Y084829D01*
X073954Y084822D01*
X073962Y084813D01*
X073966Y084802D01*
X073966Y084790D01*
X073962Y084779D01*
X073954Y084770D01*
X073944Y084763D01*
X073933Y084760D01*
X073921Y084761D01*
X073910Y084766D01*
X073902Y084774D01*
X073896Y084784D01*
X073894Y084796D01*
X074445Y084796D02*
X074447Y084808D01*
X074453Y084818D01*
X074461Y084826D01*
X074472Y084831D01*
X074484Y084832D01*
X074495Y084829D01*
X074505Y084822D01*
X074513Y084813D01*
X074517Y084802D01*
X074517Y084790D01*
X074513Y084779D01*
X074505Y084770D01*
X074495Y084763D01*
X074484Y084760D01*
X074472Y084761D01*
X074461Y084766D01*
X074453Y084774D01*
X074447Y084784D01*
X074445Y084796D01*
X074996Y084796D02*
X074998Y084808D01*
X075004Y084818D01*
X075012Y084826D01*
X075023Y084831D01*
X075035Y084832D01*
X075046Y084829D01*
X075056Y084822D01*
X075064Y084813D01*
X075068Y084802D01*
X075068Y084790D01*
X075064Y084779D01*
X075056Y084770D01*
X075046Y084763D01*
X075035Y084760D01*
X075023Y084761D01*
X075012Y084766D01*
X075004Y084774D01*
X074998Y084784D01*
X074996Y084796D01*
X075547Y084244D02*
X075549Y084256D01*
X075555Y084266D01*
X075563Y084274D01*
X075574Y084279D01*
X075586Y084280D01*
X075597Y084277D01*
X075607Y084270D01*
X075615Y084261D01*
X075619Y084250D01*
X075619Y084238D01*
X075615Y084227D01*
X075607Y084218D01*
X075597Y084211D01*
X075586Y084208D01*
X075574Y084209D01*
X075563Y084214D01*
X075555Y084222D01*
X075549Y084232D01*
X075547Y084244D01*
X068145Y116016D02*
X068147Y116028D01*
X068153Y116038D01*
X068161Y116046D01*
X068172Y116051D01*
X068184Y116052D01*
X068195Y116049D01*
X068205Y116042D01*
X068213Y116033D01*
X068217Y116022D01*
X068217Y116010D01*
X068213Y115999D01*
X068205Y115990D01*
X068195Y115983D01*
X068184Y115980D01*
X068172Y115981D01*
X068161Y115986D01*
X068153Y115994D01*
X068147Y116004D01*
X068145Y116016D01*
X067870Y116292D02*
X067872Y116304D01*
X067878Y116314D01*
X067886Y116322D01*
X067897Y116327D01*
X067909Y116328D01*
X067920Y116325D01*
X067930Y116318D01*
X067938Y116309D01*
X067942Y116298D01*
X067942Y116286D01*
X067938Y116275D01*
X067930Y116266D01*
X067920Y116259D01*
X067909Y116256D01*
X067897Y116257D01*
X067886Y116262D01*
X067878Y116270D01*
X067872Y116280D01*
X067870Y116292D01*
X067594Y116567D02*
X067596Y116579D01*
X067602Y116589D01*
X067610Y116597D01*
X067621Y116602D01*
X067633Y116603D01*
X067644Y116600D01*
X067654Y116593D01*
X067662Y116584D01*
X067666Y116573D01*
X067666Y116561D01*
X067662Y116550D01*
X067654Y116541D01*
X067644Y116534D01*
X067633Y116531D01*
X067621Y116532D01*
X067610Y116537D01*
X067602Y116545D01*
X067596Y116555D01*
X067594Y116567D01*
X067319Y116292D02*
X067321Y116304D01*
X067327Y116314D01*
X067335Y116322D01*
X067346Y116327D01*
X067358Y116328D01*
X067369Y116325D01*
X067379Y116318D01*
X067387Y116309D01*
X067391Y116298D01*
X067391Y116286D01*
X067387Y116275D01*
X067379Y116266D01*
X067369Y116259D01*
X067358Y116256D01*
X067346Y116257D01*
X067335Y116262D01*
X067327Y116270D01*
X067321Y116280D01*
X067319Y116292D01*
X067043Y116567D02*
X067045Y116579D01*
X067051Y116589D01*
X067059Y116597D01*
X067070Y116602D01*
X067082Y116603D01*
X067093Y116600D01*
X067103Y116593D01*
X067111Y116584D01*
X067115Y116573D01*
X067115Y116561D01*
X067111Y116550D01*
X067103Y116541D01*
X067093Y116534D01*
X067082Y116531D01*
X067070Y116532D01*
X067059Y116537D01*
X067051Y116545D01*
X067045Y116555D01*
X067043Y116567D01*
X066768Y116292D02*
X066770Y116304D01*
X066776Y116314D01*
X066784Y116322D01*
X066795Y116327D01*
X066807Y116328D01*
X066818Y116325D01*
X066828Y116318D01*
X066836Y116309D01*
X066840Y116298D01*
X066840Y116286D01*
X066836Y116275D01*
X066828Y116266D01*
X066818Y116259D01*
X066807Y116256D01*
X066795Y116257D01*
X066784Y116262D01*
X066776Y116270D01*
X066770Y116280D01*
X066768Y116292D01*
X066492Y116567D02*
X066494Y116579D01*
X066500Y116589D01*
X066508Y116597D01*
X066519Y116602D01*
X066531Y116603D01*
X066542Y116600D01*
X066552Y116593D01*
X066560Y116584D01*
X066564Y116573D01*
X066564Y116561D01*
X066560Y116550D01*
X066552Y116541D01*
X066542Y116534D01*
X066531Y116531D01*
X066519Y116532D01*
X066508Y116537D01*
X066500Y116545D01*
X066494Y116555D01*
X066492Y116567D01*
X066216Y116292D02*
X066218Y116304D01*
X066224Y116314D01*
X066232Y116322D01*
X066243Y116327D01*
X066255Y116328D01*
X066266Y116325D01*
X066276Y116318D01*
X066284Y116309D01*
X066288Y116298D01*
X066288Y116286D01*
X066284Y116275D01*
X066276Y116266D01*
X066266Y116259D01*
X066255Y116256D01*
X066243Y116257D01*
X066232Y116262D01*
X066224Y116270D01*
X066218Y116280D01*
X066216Y116292D01*
X065941Y116567D02*
X065943Y116579D01*
X065949Y116589D01*
X065957Y116597D01*
X065968Y116602D01*
X065980Y116603D01*
X065991Y116600D01*
X066001Y116593D01*
X066009Y116584D01*
X066013Y116573D01*
X066013Y116561D01*
X066009Y116550D01*
X066001Y116541D01*
X065991Y116534D01*
X065980Y116531D01*
X065968Y116532D01*
X065957Y116537D01*
X065949Y116545D01*
X065943Y116555D01*
X065941Y116567D01*
X065941Y116016D02*
X065943Y116028D01*
X065949Y116038D01*
X065957Y116046D01*
X065968Y116051D01*
X065980Y116052D01*
X065991Y116049D01*
X066001Y116042D01*
X066009Y116033D01*
X066013Y116022D01*
X066013Y116010D01*
X066009Y115999D01*
X066001Y115990D01*
X065991Y115983D01*
X065980Y115980D01*
X065968Y115981D01*
X065957Y115986D01*
X065949Y115994D01*
X065943Y116004D01*
X065941Y116016D01*
X066492Y116016D02*
X066494Y116028D01*
X066500Y116038D01*
X066508Y116046D01*
X066519Y116051D01*
X066531Y116052D01*
X066542Y116049D01*
X066552Y116042D01*
X066560Y116033D01*
X066564Y116022D01*
X066564Y116010D01*
X066560Y115999D01*
X066552Y115990D01*
X066542Y115983D01*
X066531Y115980D01*
X066519Y115981D01*
X066508Y115986D01*
X066500Y115994D01*
X066494Y116004D01*
X066492Y116016D01*
X067043Y116016D02*
X067045Y116028D01*
X067051Y116038D01*
X067059Y116046D01*
X067070Y116051D01*
X067082Y116052D01*
X067093Y116049D01*
X067103Y116042D01*
X067111Y116033D01*
X067115Y116022D01*
X067115Y116010D01*
X067111Y115999D01*
X067103Y115990D01*
X067093Y115983D01*
X067082Y115980D01*
X067070Y115981D01*
X067059Y115986D01*
X067051Y115994D01*
X067045Y116004D01*
X067043Y116016D01*
X067594Y116016D02*
X067596Y116028D01*
X067602Y116038D01*
X067610Y116046D01*
X067621Y116051D01*
X067633Y116052D01*
X067644Y116049D01*
X067654Y116042D01*
X067662Y116033D01*
X067666Y116022D01*
X067666Y116010D01*
X067662Y115999D01*
X067654Y115990D01*
X067644Y115983D01*
X067633Y115980D01*
X067621Y115981D01*
X067610Y115986D01*
X067602Y115994D01*
X067596Y116004D01*
X067594Y116016D01*
X068145Y116567D02*
X068147Y116579D01*
X068153Y116589D01*
X068161Y116597D01*
X068172Y116602D01*
X068184Y116603D01*
X068195Y116600D01*
X068205Y116593D01*
X068213Y116584D01*
X068217Y116573D01*
X068217Y116561D01*
X068213Y116550D01*
X068205Y116541D01*
X068195Y116534D01*
X068184Y116531D01*
X068172Y116532D01*
X068161Y116537D01*
X068153Y116545D01*
X068147Y116555D01*
X068145Y116567D01*
X028775Y116567D02*
X028777Y116579D01*
X028783Y116589D01*
X028791Y116597D01*
X028802Y116602D01*
X028814Y116603D01*
X028825Y116600D01*
X028835Y116593D01*
X028843Y116584D01*
X028847Y116573D01*
X028847Y116561D01*
X028843Y116550D01*
X028835Y116541D01*
X028825Y116534D01*
X028814Y116531D01*
X028802Y116532D01*
X028791Y116537D01*
X028783Y116545D01*
X028777Y116555D01*
X028775Y116567D01*
X028500Y116292D02*
X028502Y116304D01*
X028508Y116314D01*
X028516Y116322D01*
X028527Y116327D01*
X028539Y116328D01*
X028550Y116325D01*
X028560Y116318D01*
X028568Y116309D01*
X028572Y116298D01*
X028572Y116286D01*
X028568Y116275D01*
X028560Y116266D01*
X028550Y116259D01*
X028539Y116256D01*
X028527Y116257D01*
X028516Y116262D01*
X028508Y116270D01*
X028502Y116280D01*
X028500Y116292D01*
X028224Y116567D02*
X028226Y116579D01*
X028232Y116589D01*
X028240Y116597D01*
X028251Y116602D01*
X028263Y116603D01*
X028274Y116600D01*
X028284Y116593D01*
X028292Y116584D01*
X028296Y116573D01*
X028296Y116561D01*
X028292Y116550D01*
X028284Y116541D01*
X028274Y116534D01*
X028263Y116531D01*
X028251Y116532D01*
X028240Y116537D01*
X028232Y116545D01*
X028226Y116555D01*
X028224Y116567D01*
X027949Y116292D02*
X027951Y116304D01*
X027957Y116314D01*
X027965Y116322D01*
X027976Y116327D01*
X027988Y116328D01*
X027999Y116325D01*
X028009Y116318D01*
X028017Y116309D01*
X028021Y116298D01*
X028021Y116286D01*
X028017Y116275D01*
X028009Y116266D01*
X027999Y116259D01*
X027988Y116256D01*
X027976Y116257D01*
X027965Y116262D01*
X027957Y116270D01*
X027951Y116280D01*
X027949Y116292D01*
X027673Y116567D02*
X027675Y116579D01*
X027681Y116589D01*
X027689Y116597D01*
X027700Y116602D01*
X027712Y116603D01*
X027723Y116600D01*
X027733Y116593D01*
X027741Y116584D01*
X027745Y116573D01*
X027745Y116561D01*
X027741Y116550D01*
X027733Y116541D01*
X027723Y116534D01*
X027712Y116531D01*
X027700Y116532D01*
X027689Y116537D01*
X027681Y116545D01*
X027675Y116555D01*
X027673Y116567D01*
X027397Y116292D02*
X027399Y116304D01*
X027405Y116314D01*
X027413Y116322D01*
X027424Y116327D01*
X027436Y116328D01*
X027447Y116325D01*
X027457Y116318D01*
X027465Y116309D01*
X027469Y116298D01*
X027469Y116286D01*
X027465Y116275D01*
X027457Y116266D01*
X027447Y116259D01*
X027436Y116256D01*
X027424Y116257D01*
X027413Y116262D01*
X027405Y116270D01*
X027399Y116280D01*
X027397Y116292D01*
X027122Y116567D02*
X027124Y116579D01*
X027130Y116589D01*
X027138Y116597D01*
X027149Y116602D01*
X027161Y116603D01*
X027172Y116600D01*
X027182Y116593D01*
X027190Y116584D01*
X027194Y116573D01*
X027194Y116561D01*
X027190Y116550D01*
X027182Y116541D01*
X027172Y116534D01*
X027161Y116531D01*
X027149Y116532D01*
X027138Y116537D01*
X027130Y116545D01*
X027124Y116555D01*
X027122Y116567D01*
X026846Y116292D02*
X026848Y116304D01*
X026854Y116314D01*
X026862Y116322D01*
X026873Y116327D01*
X026885Y116328D01*
X026896Y116325D01*
X026906Y116318D01*
X026914Y116309D01*
X026918Y116298D01*
X026918Y116286D01*
X026914Y116275D01*
X026906Y116266D01*
X026896Y116259D01*
X026885Y116256D01*
X026873Y116257D01*
X026862Y116262D01*
X026854Y116270D01*
X026848Y116280D01*
X026846Y116292D01*
X026571Y116567D02*
X026573Y116579D01*
X026579Y116589D01*
X026587Y116597D01*
X026598Y116602D01*
X026610Y116603D01*
X026621Y116600D01*
X026631Y116593D01*
X026639Y116584D01*
X026643Y116573D01*
X026643Y116561D01*
X026639Y116550D01*
X026631Y116541D01*
X026621Y116534D01*
X026610Y116531D01*
X026598Y116532D01*
X026587Y116537D01*
X026579Y116545D01*
X026573Y116555D01*
X026571Y116567D01*
X026571Y116016D02*
X026573Y116028D01*
X026579Y116038D01*
X026587Y116046D01*
X026598Y116051D01*
X026610Y116052D01*
X026621Y116049D01*
X026631Y116042D01*
X026639Y116033D01*
X026643Y116022D01*
X026643Y116010D01*
X026639Y115999D01*
X026631Y115990D01*
X026621Y115983D01*
X026610Y115980D01*
X026598Y115981D01*
X026587Y115986D01*
X026579Y115994D01*
X026573Y116004D01*
X026571Y116016D01*
X027122Y116016D02*
X027124Y116028D01*
X027130Y116038D01*
X027138Y116046D01*
X027149Y116051D01*
X027161Y116052D01*
X027172Y116049D01*
X027182Y116042D01*
X027190Y116033D01*
X027194Y116022D01*
X027194Y116010D01*
X027190Y115999D01*
X027182Y115990D01*
X027172Y115983D01*
X027161Y115980D01*
X027149Y115981D01*
X027138Y115986D01*
X027130Y115994D01*
X027124Y116004D01*
X027122Y116016D01*
X027673Y116016D02*
X027675Y116028D01*
X027681Y116038D01*
X027689Y116046D01*
X027700Y116051D01*
X027712Y116052D01*
X027723Y116049D01*
X027733Y116042D01*
X027741Y116033D01*
X027745Y116022D01*
X027745Y116010D01*
X027741Y115999D01*
X027733Y115990D01*
X027723Y115983D01*
X027712Y115980D01*
X027700Y115981D01*
X027689Y115986D01*
X027681Y115994D01*
X027675Y116004D01*
X027673Y116016D01*
X028224Y116016D02*
X028226Y116028D01*
X028232Y116038D01*
X028240Y116046D01*
X028251Y116051D01*
X028263Y116052D01*
X028274Y116049D01*
X028284Y116042D01*
X028292Y116033D01*
X028296Y116022D01*
X028296Y116010D01*
X028292Y115999D01*
X028284Y115990D01*
X028274Y115983D01*
X028263Y115980D01*
X028251Y115981D01*
X028240Y115986D01*
X028232Y115994D01*
X028226Y116004D01*
X028224Y116016D01*
X028775Y116016D02*
X028777Y116028D01*
X028783Y116038D01*
X028791Y116046D01*
X028802Y116051D01*
X028814Y116052D01*
X028825Y116049D01*
X028835Y116042D01*
X028843Y116033D01*
X028847Y116022D01*
X028847Y116010D01*
X028843Y115999D01*
X028835Y115990D01*
X028825Y115983D01*
X028814Y115980D01*
X028802Y115981D01*
X028791Y115986D01*
X028783Y115994D01*
X028777Y116004D01*
X028775Y116016D01*
X028775Y077197D02*
X028777Y077209D01*
X028783Y077219D01*
X028791Y077227D01*
X028802Y077232D01*
X028814Y077233D01*
X028825Y077230D01*
X028835Y077223D01*
X028843Y077214D01*
X028847Y077203D01*
X028847Y077191D01*
X028843Y077180D01*
X028835Y077171D01*
X028825Y077164D01*
X028814Y077161D01*
X028802Y077162D01*
X028791Y077167D01*
X028783Y077175D01*
X028777Y077185D01*
X028775Y077197D01*
X028500Y076922D02*
X028502Y076934D01*
X028508Y076944D01*
X028516Y076952D01*
X028527Y076957D01*
X028539Y076958D01*
X028550Y076955D01*
X028560Y076948D01*
X028568Y076939D01*
X028572Y076928D01*
X028572Y076916D01*
X028568Y076905D01*
X028560Y076896D01*
X028550Y076889D01*
X028539Y076886D01*
X028527Y076887D01*
X028516Y076892D01*
X028508Y076900D01*
X028502Y076910D01*
X028500Y076922D01*
X028224Y077197D02*
X028226Y077209D01*
X028232Y077219D01*
X028240Y077227D01*
X028251Y077232D01*
X028263Y077233D01*
X028274Y077230D01*
X028284Y077223D01*
X028292Y077214D01*
X028296Y077203D01*
X028296Y077191D01*
X028292Y077180D01*
X028284Y077171D01*
X028274Y077164D01*
X028263Y077161D01*
X028251Y077162D01*
X028240Y077167D01*
X028232Y077175D01*
X028226Y077185D01*
X028224Y077197D01*
X027949Y076922D02*
X027951Y076934D01*
X027957Y076944D01*
X027965Y076952D01*
X027976Y076957D01*
X027988Y076958D01*
X027999Y076955D01*
X028009Y076948D01*
X028017Y076939D01*
X028021Y076928D01*
X028021Y076916D01*
X028017Y076905D01*
X028009Y076896D01*
X027999Y076889D01*
X027988Y076886D01*
X027976Y076887D01*
X027965Y076892D01*
X027957Y076900D01*
X027951Y076910D01*
X027949Y076922D01*
X027673Y077197D02*
X027675Y077209D01*
X027681Y077219D01*
X027689Y077227D01*
X027700Y077232D01*
X027712Y077233D01*
X027723Y077230D01*
X027733Y077223D01*
X027741Y077214D01*
X027745Y077203D01*
X027745Y077191D01*
X027741Y077180D01*
X027733Y077171D01*
X027723Y077164D01*
X027712Y077161D01*
X027700Y077162D01*
X027689Y077167D01*
X027681Y077175D01*
X027675Y077185D01*
X027673Y077197D01*
X027397Y076922D02*
X027399Y076934D01*
X027405Y076944D01*
X027413Y076952D01*
X027424Y076957D01*
X027436Y076958D01*
X027447Y076955D01*
X027457Y076948D01*
X027465Y076939D01*
X027469Y076928D01*
X027469Y076916D01*
X027465Y076905D01*
X027457Y076896D01*
X027447Y076889D01*
X027436Y076886D01*
X027424Y076887D01*
X027413Y076892D01*
X027405Y076900D01*
X027399Y076910D01*
X027397Y076922D01*
X027122Y077197D02*
X027124Y077209D01*
X027130Y077219D01*
X027138Y077227D01*
X027149Y077232D01*
X027161Y077233D01*
X027172Y077230D01*
X027182Y077223D01*
X027190Y077214D01*
X027194Y077203D01*
X027194Y077191D01*
X027190Y077180D01*
X027182Y077171D01*
X027172Y077164D01*
X027161Y077161D01*
X027149Y077162D01*
X027138Y077167D01*
X027130Y077175D01*
X027124Y077185D01*
X027122Y077197D01*
X026846Y076922D02*
X026848Y076934D01*
X026854Y076944D01*
X026862Y076952D01*
X026873Y076957D01*
X026885Y076958D01*
X026896Y076955D01*
X026906Y076948D01*
X026914Y076939D01*
X026918Y076928D01*
X026918Y076916D01*
X026914Y076905D01*
X026906Y076896D01*
X026896Y076889D01*
X026885Y076886D01*
X026873Y076887D01*
X026862Y076892D01*
X026854Y076900D01*
X026848Y076910D01*
X026846Y076922D01*
X026571Y077197D02*
X026573Y077209D01*
X026579Y077219D01*
X026587Y077227D01*
X026598Y077232D01*
X026610Y077233D01*
X026621Y077230D01*
X026631Y077223D01*
X026639Y077214D01*
X026643Y077203D01*
X026643Y077191D01*
X026639Y077180D01*
X026631Y077171D01*
X026621Y077164D01*
X026610Y077161D01*
X026598Y077162D01*
X026587Y077167D01*
X026579Y077175D01*
X026573Y077185D01*
X026571Y077197D01*
X026571Y076646D02*
X026573Y076658D01*
X026579Y076668D01*
X026587Y076676D01*
X026598Y076681D01*
X026610Y076682D01*
X026621Y076679D01*
X026631Y076672D01*
X026639Y076663D01*
X026643Y076652D01*
X026643Y076640D01*
X026639Y076629D01*
X026631Y076620D01*
X026621Y076613D01*
X026610Y076610D01*
X026598Y076611D01*
X026587Y076616D01*
X026579Y076624D01*
X026573Y076634D01*
X026571Y076646D01*
X027122Y076646D02*
X027124Y076658D01*
X027130Y076668D01*
X027138Y076676D01*
X027149Y076681D01*
X027161Y076682D01*
X027172Y076679D01*
X027182Y076672D01*
X027190Y076663D01*
X027194Y076652D01*
X027194Y076640D01*
X027190Y076629D01*
X027182Y076620D01*
X027172Y076613D01*
X027161Y076610D01*
X027149Y076611D01*
X027138Y076616D01*
X027130Y076624D01*
X027124Y076634D01*
X027122Y076646D01*
X027673Y076646D02*
X027675Y076658D01*
X027681Y076668D01*
X027689Y076676D01*
X027700Y076681D01*
X027712Y076682D01*
X027723Y076679D01*
X027733Y076672D01*
X027741Y076663D01*
X027745Y076652D01*
X027745Y076640D01*
X027741Y076629D01*
X027733Y076620D01*
X027723Y076613D01*
X027712Y076610D01*
X027700Y076611D01*
X027689Y076616D01*
X027681Y076624D01*
X027675Y076634D01*
X027673Y076646D01*
X028224Y076646D02*
X028226Y076658D01*
X028232Y076668D01*
X028240Y076676D01*
X028251Y076681D01*
X028263Y076682D01*
X028274Y076679D01*
X028284Y076672D01*
X028292Y076663D01*
X028296Y076652D01*
X028296Y076640D01*
X028292Y076629D01*
X028284Y076620D01*
X028274Y076613D01*
X028263Y076610D01*
X028251Y076611D01*
X028240Y076616D01*
X028232Y076624D01*
X028226Y076634D01*
X028224Y076646D01*
X028775Y076646D02*
X028777Y076658D01*
X028783Y076668D01*
X028791Y076676D01*
X028802Y076681D01*
X028814Y076682D01*
X028825Y076679D01*
X028835Y076672D01*
X028843Y076663D01*
X028847Y076652D01*
X028847Y076640D01*
X028843Y076629D01*
X028835Y076620D01*
X028825Y076613D01*
X028814Y076610D01*
X028802Y076611D01*
X028791Y076616D01*
X028783Y076624D01*
X028777Y076634D01*
X028775Y076646D01*
D11*
X004087Y076922D03*
X004087Y057237D03*
X004087Y037552D03*
X004087Y017867D03*
X017867Y004087D03*
X037552Y004087D03*
X057237Y004087D03*
X076922Y004087D03*
X096607Y004087D03*
X116292Y004087D03*
X130071Y017867D03*
X130071Y037552D03*
X130071Y057237D03*
X130071Y076922D03*
X130071Y096607D03*
X130071Y116292D03*
X004087Y116292D03*
X004087Y096607D03*
D12*
X018379Y049879D03*
D13*
X006149Y008024D03*
X009899Y008024D03*
X025834Y008024D03*
X029584Y008024D03*
X045519Y008024D03*
X049269Y008024D03*
X065204Y008024D03*
X068954Y008024D03*
X084889Y008024D03*
X088639Y008024D03*
X104574Y008024D03*
X108324Y008024D03*
X124259Y008024D03*
X128009Y008024D03*
X128009Y027709D03*
X124259Y027709D03*
X108324Y027709D03*
X104574Y027709D03*
X088639Y027709D03*
X084889Y027709D03*
X068954Y027709D03*
X065204Y027709D03*
X049269Y027709D03*
X045519Y027709D03*
X029584Y027709D03*
X025834Y027709D03*
X009899Y027709D03*
X006149Y027709D03*
X006149Y047394D03*
X009899Y047394D03*
X025834Y047394D03*
X029584Y047394D03*
X045519Y047394D03*
X049269Y047394D03*
X065204Y047394D03*
X068954Y047394D03*
X084889Y047394D03*
X088639Y047394D03*
X104574Y047394D03*
X108324Y047394D03*
X124259Y047394D03*
X128009Y047394D03*
X128009Y067079D03*
X124259Y067079D03*
X108324Y067079D03*
X104574Y067079D03*
X088639Y067079D03*
X084889Y067079D03*
X068954Y067079D03*
X065204Y067079D03*
X049269Y067079D03*
X045519Y067079D03*
X029584Y067079D03*
X025834Y067079D03*
X009899Y067079D03*
X006149Y067079D03*
X006149Y086764D03*
X009899Y086764D03*
X025834Y086764D03*
X029584Y086764D03*
X045519Y086764D03*
X049269Y086764D03*
X065204Y086764D03*
X068954Y086764D03*
X084889Y086764D03*
X088639Y086764D03*
X104574Y086764D03*
X108324Y086764D03*
X124259Y086764D03*
X128009Y086764D03*
X128009Y106449D03*
X124259Y106449D03*
X108324Y106449D03*
X104574Y106449D03*
X088639Y106449D03*
X084889Y106449D03*
X068954Y106449D03*
X065204Y106449D03*
X049269Y106449D03*
X045519Y106449D03*
X029584Y106449D03*
X025834Y106449D03*
X009899Y106449D03*
X006149Y106449D03*
X006149Y126134D03*
X009899Y126134D03*
X025834Y126134D03*
X029584Y126134D03*
X045519Y126134D03*
X049269Y126134D03*
X065204Y126134D03*
X068954Y126134D03*
X084889Y126134D03*
X088639Y126134D03*
X104574Y126134D03*
X108324Y126134D03*
X124259Y126134D03*
X128009Y126134D03*
D14*
X126134Y124658D03*
X126134Y127611D03*
X126134Y107926D03*
X126134Y104973D03*
X126134Y088241D03*
X126134Y085288D03*
X126134Y068556D03*
X126134Y065603D03*
X126134Y048870D03*
X126134Y045918D03*
X126134Y029185D03*
X126134Y026233D03*
X126134Y009500D03*
X126134Y006548D03*
X106449Y006548D03*
X106449Y009500D03*
X106449Y026233D03*
X106449Y029185D03*
X106449Y045918D03*
X106449Y048870D03*
X106449Y065603D03*
X106449Y068556D03*
X106449Y085288D03*
X106449Y088241D03*
X106449Y104973D03*
X106449Y107926D03*
X106449Y124658D03*
X106449Y127611D03*
X086764Y127611D03*
X086764Y124658D03*
X086764Y107926D03*
X086764Y104973D03*
X086764Y088241D03*
X086764Y085288D03*
X086764Y068556D03*
X086764Y065603D03*
X086764Y048870D03*
X086764Y045918D03*
X086764Y029185D03*
X086764Y026233D03*
X086764Y009500D03*
X086764Y006548D03*
X067079Y006548D03*
X067079Y009500D03*
X067079Y026233D03*
X067079Y029185D03*
X067079Y045918D03*
X067079Y048870D03*
X067079Y065603D03*
X067079Y068556D03*
X067079Y085288D03*
X067079Y088241D03*
X067079Y104973D03*
X067079Y107926D03*
X067079Y124658D03*
X067079Y127611D03*
X047394Y127611D03*
X047394Y124658D03*
X047394Y107926D03*
X047394Y104973D03*
X047394Y088241D03*
X047394Y085288D03*
X047394Y068556D03*
X047394Y065603D03*
X047394Y048870D03*
X047394Y045918D03*
X047394Y029185D03*
X047394Y026233D03*
X047394Y009500D03*
X047394Y006548D03*
X027709Y006548D03*
X027709Y009500D03*
X027709Y026233D03*
X027709Y029185D03*
X027709Y045918D03*
X027709Y048870D03*
X027709Y065603D03*
X027709Y068556D03*
X027709Y085288D03*
X027709Y088241D03*
X027709Y104973D03*
X027709Y107926D03*
X027709Y124658D03*
X027709Y127611D03*
X008024Y127611D03*
X008024Y124658D03*
X008024Y107926D03*
X008024Y104973D03*
X008024Y088241D03*
X008024Y085288D03*
X008024Y068556D03*
X008024Y065603D03*
X008024Y048870D03*
X008024Y045918D03*
X008024Y029185D03*
X008024Y026233D03*
X008024Y009500D03*
X008024Y006548D03*
D15*
X009099Y011764D03*
X012052Y011764D03*
X006146Y011764D03*
X006146Y031449D03*
X009099Y031449D03*
X012052Y031449D03*
X025831Y031449D03*
X028784Y031449D03*
X031737Y031449D03*
X045516Y031449D03*
X048469Y031449D03*
X051422Y031449D03*
X065201Y031449D03*
X068154Y031449D03*
X071107Y031449D03*
X071107Y043654D03*
X068154Y043654D03*
X065201Y043654D03*
X049272Y051134D03*
X046319Y051134D03*
X043367Y051134D03*
X031737Y051134D03*
X028784Y051134D03*
X025831Y051134D03*
X012052Y051134D03*
X009099Y051134D03*
X006146Y051134D03*
X006146Y070819D03*
X009099Y070819D03*
X012052Y070819D03*
X025831Y070819D03*
X028784Y070819D03*
X031737Y070819D03*
X043367Y070819D03*
X046319Y070819D03*
X049272Y070819D03*
X065201Y070819D03*
X068154Y070819D03*
X071107Y070819D03*
X084886Y070819D03*
X087839Y070819D03*
X090792Y070819D03*
X102422Y070819D03*
X105374Y070819D03*
X108327Y070819D03*
X124256Y070819D03*
X127209Y070819D03*
X130162Y070819D03*
X130162Y051134D03*
X127209Y051134D03*
X124256Y051134D03*
X110477Y051134D03*
X107524Y051134D03*
X104571Y051134D03*
X090792Y051134D03*
X087839Y051134D03*
X084886Y051134D03*
X084886Y031449D03*
X087839Y031449D03*
X090792Y031449D03*
X104571Y031449D03*
X107524Y031449D03*
X110477Y031449D03*
X124256Y031449D03*
X127209Y031449D03*
X130162Y031449D03*
X130162Y011764D03*
X127209Y011764D03*
X124256Y011764D03*
X110477Y011764D03*
X107524Y011764D03*
X104571Y011764D03*
X090792Y011764D03*
X087839Y011764D03*
X084886Y011764D03*
X071107Y011764D03*
X068154Y011764D03*
X065201Y011764D03*
X051422Y011764D03*
X048469Y011764D03*
X045516Y011764D03*
X031737Y011764D03*
X028784Y011764D03*
X025831Y011764D03*
X025831Y090504D03*
X028784Y090504D03*
X031737Y090504D03*
X045516Y090504D03*
X048469Y090504D03*
X051422Y090504D03*
X065201Y090504D03*
X068154Y090504D03*
X071107Y090504D03*
X084886Y090504D03*
X087839Y090504D03*
X090792Y090504D03*
X102422Y090504D03*
X105374Y090504D03*
X108327Y090504D03*
X124256Y090504D03*
X127209Y090504D03*
X130162Y090504D03*
X130162Y110189D03*
X127209Y110189D03*
X124256Y110189D03*
X108327Y110189D03*
X105374Y110189D03*
X102422Y110189D03*
X090792Y110189D03*
X087839Y110189D03*
X084886Y110189D03*
X071107Y110189D03*
X068154Y110189D03*
X065201Y110189D03*
X051422Y110189D03*
X048469Y110189D03*
X045516Y110189D03*
X031737Y110189D03*
X028784Y110189D03*
X025831Y110189D03*
X012052Y110189D03*
X009099Y110189D03*
X006146Y110189D03*
X006146Y129874D03*
X009099Y129874D03*
X012052Y129874D03*
X025831Y129874D03*
X028784Y129874D03*
X031737Y129874D03*
X045516Y129874D03*
X048469Y129874D03*
X051422Y129874D03*
X065201Y129874D03*
X068154Y129874D03*
X071107Y129874D03*
X084886Y129874D03*
X087839Y129874D03*
X090792Y129874D03*
X104571Y129874D03*
X107524Y129874D03*
X110477Y129874D03*
X122107Y129874D03*
X125059Y129874D03*
X128012Y129874D03*
X012052Y090504D03*
X009099Y090504D03*
X006146Y090504D03*
D16*
X021804Y077922D03*
X039700Y100715D03*
X022804Y117292D03*
X072985Y117292D03*
X095758Y096044D03*
X077837Y087785D03*
X113391Y110540D03*
X115292Y059974D03*
X115958Y028844D03*
X111455Y019267D03*
X061174Y018867D03*
X050285Y038552D03*
X008004Y038552D03*
D17*
X008004Y036552D03*
X021804Y075922D03*
X022804Y115292D03*
X072985Y115292D03*
X079837Y087785D03*
X113391Y112540D03*
X117292Y059974D03*
X111455Y017267D03*
X061174Y016867D03*
X050285Y036552D03*
D18*
X037552Y057237D03*
X017867Y017867D03*
X076922Y037552D03*
X096607Y076922D03*
X116292Y116292D03*
X057237Y096607D03*
X017867Y116292D03*
X116292Y017867D03*
D19*
X081154Y053004D03*
X053004Y053004D03*
X053004Y081154D03*
X081154Y081154D03*
D20*
X038930Y085386D03*
X038930Y105071D03*
X013339Y105071D03*
X013339Y085386D03*
D21*
X089719Y059103D03*
X090719Y059103D03*
X091719Y059103D03*
X092979Y057199D03*
X093979Y057199D03*
X094979Y057199D03*
D22*
X088719Y059103D03*
D23*
X090719Y058253D03*
D24*
X091811Y023575D03*
D25*
X093371Y023575D03*
D26*
X096579Y029979D03*
D27*
X096579Y027009D03*
X096579Y032949D03*
D28*
X058854Y024479D03*
X055104Y024479D03*
D29*
X056379Y025679D03*
X057179Y025679D03*
X057979Y025679D03*
X057579Y026479D03*
X056779Y026479D03*
X055979Y026479D03*
D30*
X056528Y130071D03*
X057945Y130071D03*
X076213Y130071D03*
X077630Y130071D03*
X095898Y130071D03*
X097315Y130071D03*
X115583Y130071D03*
X117000Y130071D03*
X038260Y130071D03*
X036843Y130071D03*
X018575Y130071D03*
X017158Y130071D03*
D31*
X075179Y092079D03*
X078179Y092079D03*
X081179Y092079D03*
X079679Y112079D03*
X078179Y112079D03*
X076679Y112079D03*
D32*
X075179Y112079D03*
X081179Y112079D03*
D33*
X094539Y101479D03*
X040919Y095279D03*
X114739Y034279D03*
D34*
X114739Y035679D03*
X094539Y102879D03*
X040919Y093879D03*
D35*
X041183Y098989D02*
X041287Y098885D01*
X040943Y098885D01*
X040700Y099128D01*
X040700Y099472D01*
X040943Y099715D01*
X041287Y099715D01*
X041530Y099472D01*
X041530Y099128D01*
X041287Y098885D01*
X041223Y099041D01*
X041007Y099041D01*
X040856Y099192D01*
X040856Y099408D01*
X041007Y099559D01*
X041223Y099559D01*
X041374Y099408D01*
X041374Y099192D01*
X041223Y099041D01*
X041158Y099197D01*
X041072Y099197D01*
X041012Y099257D01*
X041012Y099343D01*
X041072Y099403D01*
X041158Y099403D01*
X041218Y099343D01*
X041218Y099257D01*
X041158Y099197D01*
X094276Y097769D02*
X094172Y097873D01*
X094516Y097873D01*
X094759Y097630D01*
X094759Y097286D01*
X094516Y097043D01*
X094172Y097043D01*
X093929Y097286D01*
X093929Y097630D01*
X094172Y097873D01*
X094236Y097717D01*
X094452Y097717D01*
X094603Y097566D01*
X094603Y097350D01*
X094452Y097199D01*
X094236Y097199D01*
X094085Y097350D01*
X094085Y097566D01*
X094236Y097717D01*
X094301Y097561D01*
X094387Y097561D01*
X094447Y097501D01*
X094447Y097415D01*
X094387Y097355D01*
X094301Y097355D01*
X094241Y097415D01*
X094241Y097501D01*
X094301Y097561D01*
X114476Y030569D02*
X114372Y030673D01*
X114716Y030673D01*
X114959Y030430D01*
X114959Y030086D01*
X114716Y029843D01*
X114372Y029843D01*
X114129Y030086D01*
X114129Y030430D01*
X114372Y030673D01*
X114436Y030517D01*
X114652Y030517D01*
X114803Y030366D01*
X114803Y030150D01*
X114652Y029999D01*
X114436Y029999D01*
X114285Y030150D01*
X114285Y030366D01*
X114436Y030517D01*
X114501Y030361D01*
X114587Y030361D01*
X114647Y030301D01*
X114647Y030215D01*
X114587Y030155D01*
X114501Y030155D01*
X114441Y030215D01*
X114441Y030301D01*
X114501Y030361D01*
D36*
X021829Y049379D03*
X021329Y049379D03*
X021329Y049879D03*
X021329Y050379D03*
X021829Y050379D03*
X021829Y049879D03*
X020729Y046879D03*
X020229Y046879D03*
X020229Y046379D03*
X020229Y045879D03*
X020729Y045879D03*
X020729Y046379D03*
X016629Y046379D03*
X016629Y045879D03*
X016129Y045879D03*
X016129Y046379D03*
X016129Y046879D03*
X016629Y046879D03*
X016629Y053079D03*
X016129Y053079D03*
X016129Y053579D03*
X016629Y053579D03*
X016629Y054079D03*
X016129Y054079D03*
X020329Y054079D03*
X020329Y053579D03*
X020329Y053079D03*
X020829Y053079D03*
X020829Y053579D03*
X020829Y054079D03*
D37*
X020579Y054579D03*
X020179Y052579D03*
X020979Y052579D03*
X021579Y050879D03*
X021179Y048879D03*
X021979Y048879D03*
X020479Y047379D03*
X020079Y045379D03*
X020879Y045379D03*
X016779Y045379D03*
X015979Y045379D03*
X016379Y047379D03*
X015979Y052579D03*
X016779Y052579D03*
X016379Y054579D03*
D38*
X015079Y051579D03*
X015079Y050579D03*
X015079Y049579D03*
X015079Y048579D03*
X015079Y047579D03*
X016324Y042309D03*
X015324Y041309D03*
X017324Y041309D03*
X018324Y042309D03*
X019324Y041309D03*
X020324Y042309D03*
X020924Y040909D03*
X022424Y039219D03*
X017295Y038378D03*
X017295Y037827D03*
X017295Y037276D03*
X017295Y036725D03*
X016744Y036725D03*
X016744Y037276D03*
X016744Y037827D03*
X016744Y038378D03*
X016193Y038378D03*
X016193Y037827D03*
X016193Y037276D03*
X016193Y036725D03*
X015824Y034409D03*
X011626Y036725D03*
X011626Y037276D03*
X011626Y037827D03*
X011626Y038378D03*
X011074Y038378D03*
X010523Y038378D03*
X010523Y037827D03*
X010523Y037276D03*
X010523Y036725D03*
X011074Y036725D03*
X011074Y037276D03*
X011074Y037827D03*
X008811Y029087D03*
X008618Y028693D03*
X009205Y028693D03*
X007430Y028693D03*
X007237Y029087D03*
X006843Y028693D03*
X007237Y009402D03*
X007430Y009008D03*
X006843Y009008D03*
X008618Y009008D03*
X008811Y009402D03*
X009205Y009008D03*
X026528Y009008D03*
X026922Y009402D03*
X027115Y009008D03*
X028303Y009008D03*
X028496Y009402D03*
X028890Y009008D03*
X046213Y009008D03*
X046607Y009402D03*
X046800Y009008D03*
X047988Y009008D03*
X048181Y009402D03*
X048575Y009008D03*
X063693Y017040D03*
X063693Y017591D03*
X063693Y018142D03*
X063693Y018693D03*
X064244Y018693D03*
X064244Y018142D03*
X064244Y017591D03*
X064244Y017040D03*
X064796Y017040D03*
X064796Y017591D03*
X064796Y018142D03*
X064796Y018693D03*
X069363Y018693D03*
X069914Y018693D03*
X069914Y018142D03*
X070465Y018142D03*
X070465Y017591D03*
X069914Y017591D03*
X069914Y017040D03*
X070465Y017040D03*
X069363Y017040D03*
X069363Y017591D03*
X069363Y018142D03*
X070465Y018693D03*
X070524Y021649D03*
X069524Y022649D03*
X068524Y021649D03*
X071524Y022649D03*
X072524Y021649D03*
X073524Y022649D03*
X074524Y021649D03*
X075524Y022649D03*
X076524Y021649D03*
X077524Y022649D03*
X079024Y021249D03*
X081479Y019279D03*
X082024Y020249D03*
X082524Y022649D03*
X084524Y022649D03*
X085583Y028693D03*
X085977Y029087D03*
X086170Y028693D03*
X087358Y028693D03*
X087552Y029087D03*
X087945Y028693D03*
X090224Y020349D03*
X095864Y014899D03*
X097864Y014899D03*
X099864Y014899D03*
X101864Y014899D03*
X103864Y014899D03*
X105864Y014899D03*
X104166Y017040D03*
X104166Y017591D03*
X104166Y018142D03*
X104166Y018693D03*
X103615Y018693D03*
X103615Y018142D03*
X103615Y017591D03*
X103615Y017040D03*
X103063Y017040D03*
X103063Y017591D03*
X103063Y018142D03*
X103063Y018693D03*
X103424Y020649D03*
X100379Y020579D03*
X105268Y028693D03*
X105662Y029087D03*
X105856Y028693D03*
X107043Y028693D03*
X107237Y029087D03*
X107630Y028693D03*
X108733Y018693D03*
X109284Y018693D03*
X109284Y018142D03*
X109835Y018142D03*
X109835Y017591D03*
X109284Y017591D03*
X109284Y017040D03*
X109835Y017040D03*
X108733Y017040D03*
X108733Y017591D03*
X108733Y018142D03*
X109835Y018693D03*
X107237Y009402D03*
X107043Y009008D03*
X107630Y009008D03*
X105856Y009008D03*
X105662Y009402D03*
X105268Y009008D03*
X087945Y009008D03*
X087552Y009402D03*
X087358Y009008D03*
X086170Y009008D03*
X085977Y009402D03*
X085583Y009008D03*
X068994Y014729D03*
X067867Y009402D03*
X067673Y009008D03*
X068260Y009008D03*
X066485Y009008D03*
X066292Y009402D03*
X065898Y009008D03*
X056879Y027079D03*
X055279Y029779D03*
X054079Y028579D03*
X057979Y031979D03*
X065898Y028693D03*
X066292Y029087D03*
X066485Y028693D03*
X067673Y028693D03*
X067867Y029087D03*
X068260Y028693D03*
X048575Y028693D03*
X048181Y029087D03*
X047988Y028693D03*
X046800Y028693D03*
X046607Y029087D03*
X046213Y028693D03*
X043794Y034579D03*
X041994Y034579D03*
X042096Y036725D03*
X042096Y037276D03*
X042096Y037827D03*
X042096Y038378D03*
X041544Y038378D03*
X040993Y038378D03*
X040993Y037827D03*
X040993Y037276D03*
X040993Y036725D03*
X041544Y036725D03*
X041544Y037276D03*
X041544Y037827D03*
X041394Y040279D03*
X038204Y040279D03*
X037994Y036679D03*
X037994Y035579D03*
X037994Y034579D03*
X039994Y034579D03*
X046663Y036725D03*
X047214Y036725D03*
X047765Y036725D03*
X047765Y037276D03*
X047765Y037827D03*
X047214Y037827D03*
X047214Y037276D03*
X046663Y037276D03*
X046663Y037827D03*
X046663Y038378D03*
X047214Y038378D03*
X047765Y038378D03*
X047988Y048378D03*
X048181Y048772D03*
X048575Y048378D03*
X046800Y048378D03*
X046607Y048772D03*
X046213Y048378D03*
X028890Y048378D03*
X028496Y048772D03*
X028303Y048378D03*
X027115Y048378D03*
X026922Y048772D03*
X026528Y048378D03*
X009205Y048378D03*
X008811Y048772D03*
X008618Y048378D03*
X007430Y048378D03*
X007237Y048772D03*
X006843Y048378D03*
X006843Y068063D03*
X007237Y068457D03*
X007430Y068063D03*
X008618Y068063D03*
X008811Y068457D03*
X009205Y068063D03*
X024323Y076095D03*
X024323Y076646D03*
X024323Y077197D03*
X024874Y077197D03*
X024874Y076646D03*
X024874Y076095D03*
X025426Y076095D03*
X025426Y076646D03*
X025426Y077197D03*
X025426Y077748D03*
X024874Y077748D03*
X024323Y077748D03*
X029124Y080679D03*
X030124Y081679D03*
X031124Y080679D03*
X032124Y081679D03*
X033124Y080679D03*
X034124Y081679D03*
X035124Y080679D03*
X036124Y081679D03*
X037324Y080279D03*
X041324Y078679D03*
X043124Y081679D03*
X045124Y081679D03*
X047724Y079979D03*
X047988Y087748D03*
X048181Y088142D03*
X048575Y087748D03*
X046800Y087748D03*
X046607Y088142D03*
X046213Y087748D03*
X031095Y077748D03*
X031095Y077197D03*
X031095Y076646D03*
X031095Y076095D03*
X030544Y076095D03*
X030544Y076646D03*
X030544Y077197D03*
X030544Y077748D03*
X029993Y077748D03*
X029993Y077197D03*
X029993Y076646D03*
X029993Y076095D03*
X029624Y073779D03*
X028496Y068457D03*
X028303Y068063D03*
X028890Y068063D03*
X027115Y068063D03*
X026922Y068457D03*
X026528Y068063D03*
X026528Y087748D03*
X026922Y088142D03*
X027115Y087748D03*
X028303Y087748D03*
X028496Y088142D03*
X028890Y087748D03*
X046607Y068457D03*
X046800Y068063D03*
X046213Y068063D03*
X047988Y068063D03*
X048181Y068457D03*
X048575Y068063D03*
X065898Y068063D03*
X066292Y068457D03*
X066485Y068063D03*
X067673Y068063D03*
X067867Y068457D03*
X068260Y068063D03*
X071093Y083695D03*
X071093Y084246D03*
X071093Y084797D03*
X071093Y085348D03*
X071644Y085348D03*
X071644Y084797D03*
X071644Y084246D03*
X071644Y083695D03*
X072196Y083695D03*
X072196Y084246D03*
X072196Y084797D03*
X072196Y085348D03*
X071530Y087278D03*
X070030Y084378D03*
X068260Y087748D03*
X067867Y088142D03*
X067673Y087748D03*
X066485Y087748D03*
X066292Y088142D03*
X065898Y087748D03*
X076763Y085348D03*
X076763Y084797D03*
X077314Y084797D03*
X077314Y084246D03*
X077865Y084246D03*
X077865Y083695D03*
X077314Y083695D03*
X076763Y083695D03*
X076763Y084246D03*
X077865Y084797D03*
X077865Y085348D03*
X077314Y085348D03*
X085583Y087748D03*
X085977Y088142D03*
X086170Y087748D03*
X087358Y087748D03*
X087552Y088142D03*
X087945Y087748D03*
X090329Y098029D03*
X087945Y107433D03*
X087552Y107827D03*
X087358Y107433D03*
X086170Y107433D03*
X085977Y107827D03*
X085583Y107433D03*
X070465Y115465D03*
X070465Y116016D03*
X069914Y116016D03*
X069914Y115465D03*
X069363Y115465D03*
X069363Y116016D03*
X069363Y116567D03*
X069914Y116567D03*
X070465Y116567D03*
X070465Y117119D03*
X069914Y117119D03*
X069363Y117119D03*
X064796Y117119D03*
X064244Y117119D03*
X063693Y117119D03*
X063693Y116567D03*
X063693Y116016D03*
X063693Y115465D03*
X064244Y115465D03*
X064244Y116016D03*
X064244Y116567D03*
X064796Y116567D03*
X064796Y116016D03*
X064796Y115465D03*
X064494Y113319D03*
X066494Y113319D03*
X062494Y113319D03*
X060494Y113319D03*
X058494Y113319D03*
X056494Y113319D03*
X061179Y118979D03*
X064124Y119049D03*
X065898Y127119D03*
X066292Y127512D03*
X066485Y127119D03*
X067673Y127119D03*
X067867Y127512D03*
X068260Y127119D03*
X085583Y127119D03*
X085977Y127512D03*
X086170Y127119D03*
X087358Y127119D03*
X087552Y127512D03*
X087945Y127119D03*
X105268Y127119D03*
X105662Y127512D03*
X105856Y127119D03*
X107043Y127119D03*
X107237Y127512D03*
X107630Y127119D03*
X115465Y111134D03*
X115465Y110583D03*
X115465Y110032D03*
X116016Y110032D03*
X116016Y110583D03*
X116016Y111134D03*
X116567Y111134D03*
X116567Y110583D03*
X116567Y110032D03*
X117119Y110032D03*
X117119Y110583D03*
X117119Y111134D03*
X119664Y106563D03*
X119664Y104763D03*
X119664Y102763D03*
X119664Y100763D03*
X119664Y098763D03*
X119664Y096763D03*
X114952Y095305D03*
X113579Y097879D03*
X115465Y104363D03*
X115465Y104914D03*
X115465Y105465D03*
X116016Y105465D03*
X116016Y104914D03*
X116567Y104914D03*
X116567Y105465D03*
X117119Y105465D03*
X117119Y104914D03*
X117119Y104363D03*
X116567Y104363D03*
X116016Y104363D03*
X113534Y104793D03*
X107630Y107433D03*
X107237Y107827D03*
X107043Y107433D03*
X105856Y107433D03*
X105662Y107827D03*
X105268Y107433D03*
X113727Y090152D03*
X111527Y084552D03*
X111527Y082552D03*
X114479Y081579D03*
X115079Y079979D03*
X112927Y079052D03*
X111424Y076249D03*
X112424Y075249D03*
X111424Y074249D03*
X112424Y073249D03*
X111424Y072249D03*
X112424Y071249D03*
X111424Y070249D03*
X112424Y069249D03*
X111524Y068349D03*
X112524Y067349D03*
X115465Y068163D03*
X115465Y068714D03*
X115465Y069265D03*
X116016Y069265D03*
X116016Y068714D03*
X116567Y068714D03*
X116567Y069265D03*
X117119Y069265D03*
X117119Y068714D03*
X117119Y068163D03*
X116567Y068163D03*
X116016Y068163D03*
X119424Y067749D03*
X120424Y069049D03*
X120424Y071049D03*
X120424Y073049D03*
X120424Y075049D03*
X125347Y068457D03*
X125541Y068063D03*
X124953Y068063D03*
X126728Y068063D03*
X126922Y068457D03*
X127315Y068063D03*
X117119Y063596D03*
X117119Y063044D03*
X117119Y062493D03*
X116567Y062493D03*
X116016Y062493D03*
X115465Y062493D03*
X115465Y063044D03*
X116016Y063044D03*
X116567Y063044D03*
X116567Y063596D03*
X116016Y063596D03*
X115465Y063596D03*
X107630Y068063D03*
X107237Y068457D03*
X107043Y068063D03*
X105856Y068063D03*
X105662Y068457D03*
X105268Y068063D03*
X114527Y083552D03*
X107627Y087752D03*
X107247Y088142D03*
X107047Y087752D03*
X105857Y087752D03*
X105657Y088142D03*
X105277Y087752D03*
X087552Y068457D03*
X087358Y068063D03*
X087945Y068063D03*
X086170Y068063D03*
X085977Y068457D03*
X085583Y068063D03*
X085977Y048772D03*
X086170Y048378D03*
X085583Y048378D03*
X087358Y048378D03*
X087552Y048772D03*
X087945Y048378D03*
X105268Y048378D03*
X105662Y048772D03*
X105856Y048378D03*
X107043Y048378D03*
X107237Y048772D03*
X107630Y048378D03*
X124953Y048378D03*
X125347Y048772D03*
X125541Y048378D03*
X126728Y048378D03*
X126922Y048772D03*
X127315Y048378D03*
X126922Y029087D03*
X126728Y028693D03*
X127315Y028693D03*
X125541Y028693D03*
X125347Y029087D03*
X124953Y028693D03*
X125347Y009402D03*
X125541Y009008D03*
X124953Y009008D03*
X126728Y009008D03*
X126922Y009402D03*
X127315Y009008D03*
X068260Y048378D03*
X067867Y048772D03*
X067673Y048378D03*
X066485Y048378D03*
X066292Y048772D03*
X065898Y048378D03*
X028890Y028693D03*
X028496Y029087D03*
X028303Y028693D03*
X027115Y028693D03*
X026922Y029087D03*
X026528Y028693D03*
X009205Y087748D03*
X008811Y088142D03*
X008618Y087748D03*
X007430Y087748D03*
X007237Y088142D03*
X006843Y087748D03*
X006843Y107433D03*
X007237Y107827D03*
X007430Y107433D03*
X008618Y107433D03*
X008811Y107827D03*
X009205Y107433D03*
X024323Y115465D03*
X024323Y116016D03*
X024323Y116567D03*
X024874Y116567D03*
X024874Y116016D03*
X024874Y115465D03*
X025426Y115465D03*
X025426Y116016D03*
X025426Y116567D03*
X025426Y117119D03*
X024874Y117119D03*
X024323Y117119D03*
X029124Y120049D03*
X030124Y121049D03*
X031124Y120049D03*
X032124Y121049D03*
X033124Y120049D03*
X034124Y121049D03*
X035124Y120049D03*
X036124Y121049D03*
X037124Y120049D03*
X038124Y121049D03*
X039724Y119649D03*
X043124Y121049D03*
X045124Y121049D03*
X044224Y118049D03*
X050824Y118849D03*
X048575Y127119D03*
X048181Y127512D03*
X047988Y127119D03*
X046800Y127119D03*
X046607Y127512D03*
X046213Y127119D03*
X031095Y117119D03*
X030544Y117119D03*
X029993Y117119D03*
X029993Y116567D03*
X030544Y116567D03*
X030544Y116016D03*
X031095Y116016D03*
X031095Y115465D03*
X030544Y115465D03*
X029993Y115465D03*
X029993Y116016D03*
X031095Y116567D03*
X029624Y113149D03*
X028496Y107827D03*
X028303Y107433D03*
X028890Y107433D03*
X027115Y107433D03*
X026922Y107827D03*
X026528Y107433D03*
X026528Y127119D03*
X026922Y127512D03*
X027115Y127119D03*
X028303Y127119D03*
X028496Y127512D03*
X028890Y127119D03*
X046607Y107827D03*
X046800Y107433D03*
X046213Y107433D03*
X047988Y107433D03*
X048181Y107827D03*
X048575Y107433D03*
X065898Y107433D03*
X066292Y107827D03*
X066485Y107433D03*
X067673Y107433D03*
X067867Y107827D03*
X068260Y107433D03*
X124953Y107433D03*
X125347Y107827D03*
X125541Y107433D03*
X126728Y107433D03*
X126922Y107827D03*
X127315Y107433D03*
X126922Y088142D03*
X126728Y087748D03*
X127315Y087748D03*
X125541Y087748D03*
X125347Y088142D03*
X124953Y087748D03*
X124953Y127119D03*
X125347Y127512D03*
X125541Y127119D03*
X126728Y127119D03*
X126922Y127512D03*
X127315Y127119D03*
X009205Y127119D03*
X008811Y127512D03*
X008618Y127119D03*
X007430Y127119D03*
X007237Y127512D03*
X006843Y127119D03*
D39*
X006567Y126725D03*
X006843Y126331D03*
X009205Y126331D03*
X009481Y126725D03*
X026252Y126725D03*
X026528Y126331D03*
X028890Y126331D03*
X029166Y126725D03*
X037779Y131279D03*
X039679Y130079D03*
X041254Y131649D03*
X045937Y126725D03*
X046213Y126331D03*
X048575Y126331D03*
X048851Y126725D03*
X048179Y122279D03*
X049879Y122279D03*
X048724Y119949D03*
X048719Y119349D03*
X048424Y119049D03*
X048724Y118749D03*
X047419Y118939D03*
X047079Y118979D03*
X046824Y119349D03*
X046524Y119049D03*
X046524Y118649D03*
X047284Y119689D03*
X047624Y119549D03*
X046324Y120349D03*
X046979Y117279D03*
X046279Y117179D03*
X046524Y115949D03*
X048379Y117279D03*
X050294Y116949D03*
X050763Y117349D03*
X050954Y117849D03*
X052024Y117349D03*
X052874Y115329D03*
X047054Y112949D03*
X046879Y111779D03*
X046324Y111769D03*
X045879Y113579D03*
X042854Y114049D03*
X042854Y116149D03*
X043679Y117979D03*
X040779Y110079D03*
X040779Y107979D03*
X044079Y107979D03*
X044079Y109379D03*
X045937Y107040D03*
X046213Y106646D03*
X048575Y106646D03*
X048851Y107040D03*
X037579Y100139D03*
X038059Y099239D03*
X037099Y098219D03*
X036319Y097859D03*
X036439Y096059D03*
X036319Y093959D03*
X035959Y093959D03*
X035559Y093859D03*
X035559Y093359D03*
X035559Y092959D03*
X035559Y092559D03*
X035959Y092279D03*
X036319Y092279D03*
X036679Y092279D03*
X037039Y092279D03*
X037399Y092279D03*
X037759Y092279D03*
X038059Y092519D03*
X038059Y092939D03*
X038059Y093339D03*
X038059Y093839D03*
X037759Y093959D03*
X037399Y093959D03*
X037039Y093959D03*
X036679Y093959D03*
X034579Y095699D03*
X034579Y096779D03*
X034639Y098699D03*
X039959Y095959D03*
X039959Y095599D03*
X039959Y095239D03*
X040319Y095239D03*
X040319Y095599D03*
X040319Y095959D03*
X040319Y094839D03*
X039959Y094839D03*
X041779Y093879D03*
X046479Y092079D03*
X046479Y090879D03*
X045937Y087355D03*
X046213Y086961D03*
X048575Y086961D03*
X048851Y087355D03*
X045179Y083479D03*
X043579Y083479D03*
X043424Y080979D03*
X043924Y079979D03*
X043624Y079679D03*
X043624Y079279D03*
X044259Y079329D03*
X044479Y079579D03*
X044724Y080179D03*
X044354Y080319D03*
X045524Y079679D03*
X045819Y079979D03*
X045824Y079379D03*
X045824Y080579D03*
X048054Y078479D03*
X047863Y077979D03*
X047394Y077579D03*
X049124Y077979D03*
X049974Y075959D03*
X045379Y077879D03*
X043979Y077879D03*
X043479Y077479D03*
X043624Y076579D03*
X044154Y073579D03*
X044009Y072409D03*
X043434Y072429D03*
X040879Y070679D03*
X040879Y068679D03*
X045937Y067670D03*
X046213Y067276D03*
X048575Y067276D03*
X048851Y067670D03*
X039954Y074679D03*
X039954Y076779D03*
X049179Y081979D03*
X065622Y087355D03*
X065898Y086961D03*
X068260Y086961D03*
X068536Y087355D03*
X069024Y082579D03*
X072852Y084122D03*
X072852Y084522D03*
X072852Y084922D03*
X073724Y082579D03*
X076106Y084122D03*
X076106Y084522D03*
X076106Y084922D03*
X085307Y087355D03*
X085583Y086961D03*
X087945Y086961D03*
X088221Y087355D03*
X097879Y096619D03*
X097399Y097519D03*
X098359Y098539D03*
X099139Y098899D03*
X099019Y100699D03*
X099139Y102799D03*
X098779Y102799D03*
X098419Y102799D03*
X098059Y102799D03*
X097699Y102799D03*
X097399Y102959D03*
X097399Y103519D03*
X097399Y103879D03*
X097399Y104239D03*
X097699Y104479D03*
X098059Y104479D03*
X098419Y104479D03*
X098779Y104479D03*
X099139Y104479D03*
X099499Y104479D03*
X099899Y104209D03*
X099899Y103859D03*
X099899Y103499D03*
X099899Y102899D03*
X099499Y102799D03*
X100879Y101059D03*
X100879Y099979D03*
X100819Y098059D03*
X095499Y100799D03*
X095139Y100799D03*
X095139Y101159D03*
X095139Y101519D03*
X095499Y101519D03*
X095499Y101159D03*
X095499Y101919D03*
X095139Y101919D03*
X093679Y102879D03*
X087945Y106646D03*
X088221Y107040D03*
X085583Y106646D03*
X085307Y107040D03*
X068536Y107040D03*
X068260Y106646D03*
X065898Y106646D03*
X065622Y107040D03*
X066324Y113749D03*
X066324Y114349D03*
X065452Y115892D03*
X065452Y116292D03*
X065452Y116692D03*
X068706Y116692D03*
X068706Y116292D03*
X068706Y115892D03*
X068260Y126331D03*
X068536Y126725D03*
X065898Y126331D03*
X065622Y126725D03*
X059979Y122279D03*
X085307Y126725D03*
X085583Y126331D03*
X087945Y126331D03*
X088221Y126725D03*
X104993Y126725D03*
X105268Y126331D03*
X107630Y126331D03*
X107906Y126725D03*
X114679Y130079D03*
X124678Y126725D03*
X124953Y126331D03*
X127315Y126331D03*
X127591Y126725D03*
X116692Y109375D03*
X116292Y109375D03*
X115892Y109375D03*
X115892Y106122D03*
X116292Y106122D03*
X116692Y106122D03*
X118634Y106993D03*
X119234Y106993D03*
X124678Y107040D03*
X124953Y106646D03*
X127315Y106646D03*
X127591Y107040D03*
X117254Y092244D03*
X115234Y091394D03*
X114734Y090324D03*
X115234Y090133D03*
X115634Y089664D03*
X115189Y087869D03*
X113834Y088094D03*
X113534Y087794D03*
X113229Y088099D03*
X112634Y088094D03*
X113034Y086994D03*
X112884Y086684D03*
X113234Y086194D03*
X113534Y085894D03*
X113934Y085894D03*
X113679Y086479D03*
X113579Y086779D03*
X112234Y085694D03*
X114879Y084879D03*
X115314Y085754D03*
X115259Y086359D03*
X116034Y086394D03*
X116634Y085894D03*
X119079Y085179D03*
X119634Y086424D03*
X118534Y082224D03*
X118019Y081189D03*
X116434Y082224D03*
X124678Y087355D03*
X124953Y086961D03*
X127315Y086961D03*
X127591Y087355D03*
X109479Y089979D03*
X108579Y092779D03*
X107908Y087355D03*
X107628Y086965D03*
X105268Y086965D03*
X104998Y087365D03*
X103979Y084679D03*
X102379Y084679D03*
X101279Y084679D03*
X100779Y082979D03*
X100779Y082579D03*
X100779Y082179D03*
X100779Y081779D03*
X102279Y081779D03*
X102279Y082179D03*
X102279Y082579D03*
X102279Y082979D03*
X104993Y067670D03*
X105268Y067276D03*
X107630Y067276D03*
X107906Y067670D03*
X115892Y067506D03*
X116292Y067506D03*
X116692Y067506D03*
X116692Y064252D03*
X116292Y064252D03*
X115892Y064252D03*
X124678Y067670D03*
X124953Y067276D03*
X127315Y067276D03*
X127591Y067670D03*
X128779Y048979D03*
X127591Y047985D03*
X127315Y047591D03*
X124953Y047591D03*
X124678Y047985D03*
X119699Y037279D03*
X119339Y037279D03*
X118979Y037279D03*
X118619Y037279D03*
X118259Y037279D03*
X117899Y037279D03*
X117599Y037039D03*
X117599Y036619D03*
X117599Y036179D03*
X117599Y035759D03*
X117899Y035599D03*
X118259Y035599D03*
X118619Y035599D03*
X118979Y035599D03*
X119339Y035599D03*
X119699Y035599D03*
X120099Y035759D03*
X120099Y036199D03*
X120099Y036599D03*
X120099Y036999D03*
X121079Y033859D03*
X121079Y032779D03*
X121019Y030859D03*
X119339Y031699D03*
X118559Y031339D03*
X117599Y030319D03*
X118079Y029419D03*
X119219Y033499D03*
X115699Y033599D03*
X115339Y033599D03*
X115339Y033959D03*
X115339Y034319D03*
X115699Y034319D03*
X115699Y033959D03*
X115699Y034719D03*
X115339Y034719D03*
X113879Y035679D03*
X107906Y028300D03*
X107630Y027906D03*
X105268Y027906D03*
X104993Y028300D03*
X104822Y018267D03*
X104822Y017867D03*
X104822Y017467D03*
X105694Y015924D03*
X105694Y015324D03*
X108076Y017467D03*
X108076Y017867D03*
X108076Y018267D03*
X107906Y008615D03*
X107630Y008221D03*
X105268Y008221D03*
X104993Y008615D03*
X092279Y012079D03*
X092279Y013479D03*
X092244Y016904D03*
X091394Y018924D03*
X090324Y019424D03*
X090133Y018924D03*
X089664Y018524D03*
X088094Y020324D03*
X087794Y020624D03*
X087769Y021229D03*
X088094Y021524D03*
X086994Y021124D03*
X086694Y021224D03*
X086194Y020924D03*
X085894Y020624D03*
X085994Y020124D03*
X086479Y020379D03*
X086779Y020579D03*
X085694Y021924D03*
X086879Y023779D03*
X090379Y023779D03*
X087945Y027906D03*
X088221Y028300D03*
X085583Y027906D03*
X085307Y028300D03*
X085779Y018679D03*
X086479Y018379D03*
X086589Y017519D03*
X085894Y017524D03*
X086424Y014524D03*
X085194Y013824D03*
X082224Y015624D03*
X082224Y017724D03*
X085307Y008615D03*
X085583Y008221D03*
X087945Y008221D03*
X088221Y008615D03*
X068536Y008615D03*
X068260Y008221D03*
X065898Y008221D03*
X065622Y008615D03*
X065452Y017467D03*
X065452Y017867D03*
X065452Y018267D03*
X068706Y018267D03*
X068706Y017867D03*
X068706Y017467D03*
X068260Y027906D03*
X068536Y028300D03*
X065898Y027906D03*
X065622Y028300D03*
X048851Y028300D03*
X048575Y027906D03*
X046213Y027906D03*
X045937Y028300D03*
X043624Y035009D03*
X043624Y035609D03*
X042752Y037152D03*
X042752Y037552D03*
X042752Y037952D03*
X040859Y036119D03*
X038569Y036119D03*
X034074Y036589D03*
X033224Y038609D03*
X032154Y039109D03*
X031963Y038609D03*
X031494Y038209D03*
X029379Y038529D03*
X028969Y038229D03*
X028079Y037979D03*
X027479Y037679D03*
X028724Y037209D03*
X027924Y039709D03*
X027724Y040309D03*
X028024Y040609D03*
X028454Y040929D03*
X028629Y040289D03*
X029624Y040309D03*
X029924Y040009D03*
X029929Y040609D03*
X029924Y041209D03*
X027524Y041609D03*
X025059Y039459D03*
X024054Y037409D03*
X024054Y035309D03*
X026579Y034079D03*
X026924Y034409D03*
X028254Y034209D03*
X029166Y028300D03*
X028890Y027906D03*
X026528Y027906D03*
X026252Y028300D03*
X015536Y037152D03*
X015536Y037552D03*
X015536Y037952D03*
X012282Y037952D03*
X012282Y037552D03*
X012282Y037152D03*
X010679Y029379D03*
X009481Y028300D03*
X009205Y027906D03*
X006843Y027906D03*
X006567Y028300D03*
X015379Y046379D03*
X015579Y046879D03*
X017179Y046379D03*
X017279Y046879D03*
X019479Y046379D03*
X019779Y046879D03*
X021279Y046379D03*
X021379Y046879D03*
X020579Y049879D03*
X020879Y050379D03*
X022379Y049879D03*
X022479Y050379D03*
X021379Y053579D03*
X021479Y054079D03*
X019779Y054079D03*
X019579Y053579D03*
X017279Y054079D03*
X017179Y053579D03*
X015479Y054079D03*
X015379Y053579D03*
X014479Y051579D03*
X014479Y050579D03*
X014479Y049579D03*
X014479Y048579D03*
X009481Y047985D03*
X009205Y047591D03*
X006843Y047591D03*
X006567Y047985D03*
X001879Y050479D03*
X001879Y054279D03*
X002279Y054479D03*
X006843Y067276D03*
X006567Y067670D03*
X009205Y067276D03*
X009481Y067670D03*
X010679Y068679D03*
X026252Y067670D03*
X026528Y067276D03*
X028890Y067276D03*
X029166Y067670D03*
X029336Y076522D03*
X029336Y076922D03*
X029336Y077322D03*
X026082Y077322D03*
X026082Y076922D03*
X026082Y076522D03*
X026528Y086961D03*
X026252Y087355D03*
X028890Y086961D03*
X029166Y087355D03*
X028890Y106646D03*
X029166Y107040D03*
X026528Y106646D03*
X026252Y107040D03*
X026082Y115892D03*
X026082Y116292D03*
X026082Y116692D03*
X029336Y116692D03*
X029336Y116292D03*
X029336Y115892D03*
X010679Y108079D03*
X009481Y107040D03*
X009205Y106646D03*
X006843Y106646D03*
X006567Y107040D03*
X006567Y087355D03*
X006843Y086961D03*
X009205Y086961D03*
X009481Y087355D03*
X026252Y047985D03*
X026528Y047591D03*
X028890Y047591D03*
X029166Y047985D03*
X029679Y044179D03*
X032279Y044179D03*
X045937Y047985D03*
X046213Y047591D03*
X048575Y047591D03*
X048851Y047985D03*
X050179Y054579D03*
X050179Y057379D03*
X065622Y047985D03*
X065898Y047591D03*
X068260Y047591D03*
X068536Y047985D03*
X085307Y047985D03*
X085583Y047591D03*
X087945Y047591D03*
X088221Y047985D03*
X104993Y047985D03*
X105268Y047591D03*
X107630Y047591D03*
X107906Y047985D03*
X124678Y028300D03*
X124953Y027906D03*
X127315Y027906D03*
X127591Y028300D03*
X127591Y008615D03*
X127315Y008221D03*
X124953Y008221D03*
X124678Y008615D03*
X087945Y067276D03*
X088221Y067670D03*
X085583Y067276D03*
X085307Y067670D03*
X068536Y067670D03*
X068260Y067276D03*
X065898Y067276D03*
X065622Y067670D03*
X046006Y037952D03*
X046006Y037552D03*
X046006Y037152D03*
X050079Y009679D03*
X048851Y008615D03*
X048575Y008221D03*
X046213Y008221D03*
X045937Y008615D03*
X029166Y008615D03*
X028890Y008221D03*
X026528Y008221D03*
X026252Y008615D03*
X009481Y008615D03*
X009205Y008221D03*
X006843Y008221D03*
X006567Y008615D03*
X105268Y106646D03*
X104993Y107040D03*
X107630Y106646D03*
X107906Y107040D03*
D40*
X108634Y109164D03*
X116374Y092754D03*
X116054Y092594D03*
X116854Y092754D03*
X116554Y090694D03*
X117254Y090694D03*
X117754Y090694D03*
X118054Y090444D03*
X118354Y090694D03*
X118614Y090434D03*
X119014Y090674D03*
X119334Y090434D03*
X119814Y090674D03*
X120134Y090434D03*
X122374Y091794D03*
X122374Y093074D03*
X128779Y088379D03*
X119834Y086094D03*
X119084Y085644D03*
X117174Y084194D03*
X118174Y083733D03*
X115894Y083314D03*
X115574Y082994D03*
X115254Y083314D03*
X114934Y083894D03*
X115479Y080979D03*
X109079Y088379D03*
X128779Y108079D03*
X128779Y127779D03*
X109079Y127779D03*
X089379Y127779D03*
X089379Y108079D03*
X089379Y088379D03*
X089379Y068679D03*
X089379Y048979D03*
X089279Y029379D03*
X083894Y019324D03*
X084194Y018984D03*
X083314Y018904D03*
X082994Y018584D03*
X083314Y018264D03*
X084194Y016984D03*
X083733Y015984D03*
X084894Y013524D03*
X086094Y014324D03*
X090434Y014024D03*
X090674Y014344D03*
X090434Y014824D03*
X090674Y015144D03*
X090434Y015544D03*
X090694Y015804D03*
X090444Y016104D03*
X090694Y016404D03*
X090694Y016904D03*
X090694Y017604D03*
X092594Y018104D03*
X092754Y017784D03*
X092754Y017304D03*
X092274Y012584D03*
X090994Y012584D03*
X089479Y009679D03*
X069779Y009679D03*
X054779Y027679D03*
X050079Y029379D03*
X051124Y043649D03*
X053629Y043654D03*
X050079Y049079D03*
X034424Y037789D03*
X034584Y037469D03*
X032524Y037289D03*
X032524Y036589D03*
X032524Y036089D03*
X032274Y035789D03*
X032524Y035489D03*
X032504Y034829D03*
X032264Y034509D03*
X032504Y034029D03*
X032264Y033709D03*
X033624Y031469D03*
X034904Y031469D03*
X030379Y029379D03*
X027924Y034009D03*
X025563Y035669D03*
X026024Y036669D03*
X025144Y037949D03*
X024724Y038269D03*
X024444Y038589D03*
X025924Y038909D03*
X026224Y038569D03*
X023079Y034779D03*
X030379Y049079D03*
X030379Y068679D03*
X041463Y075039D03*
X043354Y076309D03*
X041924Y077939D03*
X041624Y078279D03*
X041044Y077959D03*
X040724Y077639D03*
X041044Y077319D03*
X043824Y073379D03*
X047364Y073079D03*
X047604Y073399D03*
X047364Y073879D03*
X048247Y074120D03*
X048164Y074599D03*
X048424Y074859D03*
X048174Y075159D03*
X048424Y075459D03*
X048424Y075959D03*
X048424Y076659D03*
X050324Y077159D03*
X050484Y076839D03*
X050484Y076359D03*
X050744Y071639D03*
X049424Y071639D03*
X049979Y068679D03*
X050724Y067649D03*
X050724Y067149D03*
X051024Y066749D03*
X069679Y068679D03*
X069779Y049079D03*
X069379Y030479D03*
X030379Y009679D03*
X010679Y009679D03*
X010679Y049079D03*
X010679Y088379D03*
X030379Y088379D03*
X030379Y108079D03*
X043624Y117009D03*
X043944Y116689D03*
X043944Y117329D03*
X044524Y117649D03*
X044924Y117309D03*
X044824Y115409D03*
X044363Y114409D03*
X045924Y112949D03*
X046724Y112749D03*
X051064Y112449D03*
X051304Y112769D03*
X051064Y113249D03*
X051304Y113569D03*
X051064Y113969D03*
X051324Y114229D03*
X051074Y114529D03*
X051324Y114829D03*
X051324Y115329D03*
X051324Y116029D03*
X053224Y116529D03*
X053384Y116209D03*
X053384Y115729D03*
X053004Y111009D03*
X051824Y111009D03*
X050079Y108079D03*
X069679Y108079D03*
X069324Y089579D03*
X050079Y088379D03*
X049979Y127779D03*
X069679Y127779D03*
X030279Y127779D03*
X010579Y127779D03*
X109079Y068679D03*
X109079Y048979D03*
X109079Y029379D03*
X109079Y009679D03*
X128779Y009679D03*
X128779Y029379D03*
X128779Y068679D03*
D41*
X116292Y071764D03*
X116292Y101764D03*
X017867Y062394D03*
X017867Y032394D03*
D42*
X037552Y017867D03*
X096607Y116292D03*
D43*
X091679Y033079D03*
X059079Y033079D03*
D44*
X044379Y076179D03*
X045479Y080279D03*
X047159Y115919D03*
X048409Y119649D03*
X112939Y087779D03*
X116649Y086579D03*
M02*
