<?xml version="1.0" encoding="utf-8"?>
<!-- Generator: Adobe Illustrator 19.0.0, SVG Export Plug-In . SVG Version: 6.00 Build 0)  -->
<svg version="1.1" id="Layer_1" xmlns="http://www.w3.org/2000/svg" xmlns:xlink="http://www.w3.org/1999/xlink" x="0px" y="0px"
	 viewBox="-185.5 265.2 256.8 263.4" style="enable-background:new -185.5 265.2 256.8 263.4;" xml:space="preserve">
<style type="text/css">
	.st0{fill:#2c7fff;}
</style>
<path class="st0" shape-rendering="crispEdges" d="M-51.1,528.1c-37.3,0-71.7-14.5-96.9-40.7c-23.5-24.6-37-57.6-37-90.7c0-33.1,13.9-66.2,38.1-90.9
	c25.2-25.7,58.5-39.9,93.9-39.9c57.8,0,89.5,34.5,90.8,35.9l2.5,2.8l-29.7,30.8l-2.9-3.1c-0.2-0.2-22.5-23.7-59.4-23.7
	c-49,0-87.4,39-87.4,88.7c0,24.4,9.3,46.9,26.2,63.4c16.4,16,38.1,24.7,61.1,24.7c51.3,0,73.8-32,78-61.2H-56v-42.6H67.7l0.8,3
	c0.1,0.4,2.2,9,2.2,24c0,34.2-12.3,64.9-34.6,86.5C14.1,516.4-16.9,528.1-51.1,528.1z"/>
<path id="path2998" shape-rendering="crispEdges" class="st0" d="M64.6,385.6H-52v34.6h82.7c-4.1,48.5-44.4,69.2-82.5,69.2
	c-48.7,0-91.3-38.3-91.3-92.1c0-52.4,40.5-92.7,91.4-92.7c39.2,0,62.3,25,62.3,25l24.2-25.1c0,0-31.1-34.6-87.8-34.6
	c-72.1,0-128,60.9-128,126.8c0,64.5,52.5,127.4,129.9,127.4c68,0,117.8-46.6,117.8-115.5C66.7,394,64.6,385.6,64.6,385.6L64.6,385.6
	z"/>
</svg>
