<?xml version="1.0" encoding="utf-8"?>
<!-- Generator: Adobe Illustrator 19.0.0, SVG Export Plug-In . SVG Version: 6.00 Build 0)  -->
<svg version="1.1" id="Layer_1" xmlns="http://www.w3.org/2000/svg" xmlns:xlink="http://www.w3.org/1999/xlink" x="0px" y="0px"
	 viewBox="-234.9 310.2 159.5 174.1" style="enable-background:new -234.9 310.2 159.5 174.1;" xml:space="preserve">
<style type="text/css">
	.st0{fill:#ff0000;}
</style>
<path class="st0" shape-rendering="crispEdges" d="M-149.8,483.1c-22.1,0-42.8-8.1-58.4-22.8c-16.9-16-25.8-37.8-25.8-63.2c0-24.1,8.4-46,23.7-61.8
	c14.9-15.3,34.9-23.8,56.5-23.8c16.2,0,31.7,5.2,44.6,15c11.9,8.9,21.2,21.2,27,35.5l7.3,16.9l-109,45.2
	c5.9,9.5,15.4,18.9,34.4,18.9c15.5,0,27.9-7,36.6-20.7l2.2-3.4l35.1,23.4l-2.5,3.4C-96.7,470.5-120.8,483.1-149.8,483.1z
	 M-152.4,350.9c-10.3,0-21.2,5.4-29,14.4c-6.2,7.1-9.8,15.5-10.1,23.7l63.6-26.6C-132.3,356.3-140.4,350.9-152.4,350.9z"/>
<path id="path3011" shape-rendering="crispEdges" class="st0" d="M-153.8,315.5c-41.4,0-76.2,33-76.2,81.6c0,51.4,38.8,82,80.2,82
	c34.6,0,55.8-18.9,68.4-35.8l-28.2-18.8c-7.3,11.4-19.6,22.5-40,22.5c-23,0-33.5-12.6-40.1-24.8l109.5-45.4l-5.7-13.3
	C-96.5,337.3-121.1,315.5-153.8,315.5L-153.8,315.5z M-152.4,346.9c14.9,0,25.7,7.9,30.2,17.4l-73.1,30.6
	C-198.5,371.3-176,346.9-152.4,346.9L-152.4,346.9z"/>
</svg>
