<?xml version="1.0" encoding="utf-8"?>
<!-- Generator: Adobe Illustrator 19.0.0, SVG Export Plug-In . SVG Version: 6.00 Build 0)  -->
<svg version="1.1" id="Layer_1" xmlns="http://www.w3.org/2000/svg" xmlns:xlink="http://www.w3.org/1999/xlink" x="0px" y="0px"
	 viewBox="-227.6 311 173.3 172.6" style="enable-background:new -227.6 311 173.3 172.6;" xml:space="preserve">
<style type="text/css">
	.st0{fill:#ffbf00;}
</style>
<path class="st0" shape-rendering="crispEdges" d="M-140.3,482.9c-24.5,0-46.8-9.1-62.8-25.8c-15.4-16-23.9-37.5-23.9-60.5c0-47.7,37.8-85,86.1-85
	c41.7,0,86,30.1,86,85.9c0,23.6-8.9,45.4-25.1,61.3C-95.9,474.3-117.3,482.9-140.3,482.9z M-140.4,351.7c-11.3,0-21.9,4.3-29.7,12.1
	c-8.4,8.5-13,20.3-13,33.3c0,26.1,18.3,45.8,42.6,45.8c20.6,0,41.9-17.1,41.9-45.6C-98.6,367.7-120.1,351.7-140.4,351.7z"/>
<path id="path3005" shape-rendering="crispEdges" class="st0" d="M-140.9,315.6c-47.8,0-82.1,37.4-82.1,81
	c0,44.3,33.2,82.3,82.7,82.3c44.7,0,81.4-34.2,81.4-81.4C-58.9,343.5-101.6,315.6-140.9,315.6L-140.9,315.6z M-140.4,347.7
	c23.5,0,45.8,19,45.8,49.7c0,30-22.2,49.6-45.9,49.6c-26.1,0-46.6-20.9-46.6-49.8C-187.2,368.8-166.8,347.7-140.4,347.7
	L-140.4,347.7z"/>
</svg>
