<?xml version="1.0" encoding="utf-8"?>
<!-- Generator: Adobe Illustrator 19.0.0, SVG Export Plug-In . SVG Version: 6.00 Build 0)  -->
<svg version="1.1" id="Layer_1" xmlns="http://www.w3.org/2000/svg" xmlns:xlink="http://www.w3.org/1999/xlink" x="0px" y="0px"
	 viewBox="-231.4 271.5 165.6 250.2" style="enable-background:new -231.4 271.5 165.6 250.2;" xml:space="preserve">
<style type="text/css">
	.st0{fill:#4285F4;}
</style>
<path class="st0" shape-rendering="crispEdges" d="M-147.2,519c-46.4,0-68.2-31.6-77.1-50.4l-1.8-3.8l39.1-16.1l1.5,3.7c1.8,4.4,12.2,26.6,38.1,26.6
	c24,0,38.9-15.7,38.9-41.1v-6.3c-8.5,7.5-20.8,14-40.8,14c-20,0-40.4-8.6-55.8-23.6c-16.7-16.2-25.9-38.3-25.9-62.2
	c0-21.8,8.7-43.6,23.8-59.7c15.7-16.7,36.5-25.9,58.6-25.9c15.4,0,28.9,4.5,40.1,13.5v-8.6h42.2v150.7c0,28.3-8,51.5-23.2,67
	C-103.7,511.3-123.6,519-147.2,519z M-145.4,314.2c-20.2,0-41.7,16.2-41.7,46.1c0,29.4,21.2,45.2,41.2,45.2
	c19.9,0,40.1-15.6,40.1-45.5C-105.8,337.5-120.6,314.2-145.4,314.2z"/>
<path id="path3007" shape-rendering="crispEdges" class="st0" d="M-148.6,278.2c-43.9,0-78.4,38.5-78.4,81.6
	c0,49.2,40,81.8,77.7,81.8c23.3,0,35.7-9.2,44.8-19.8v16.1c0,28.2-17.1,45.1-42.9,45.1c-24.9,0-37.5-18.6-41.8-29.1l-31.5,13
	c11.1,23.5,33.6,48.1,73.5,48.1c43.7,0,76.9-27.5,76.9-85.2V283.1h-34.2v13.8C-115.1,285.6-129.5,278.2-148.6,278.2L-148.6,278.2z
	 M-145.4,310.2c21.5,0,43.6,18.4,43.6,49.8c0,31.9-22.1,49.5-44.1,49.5c-23.4,0-45.2-19-45.2-49.2
	C-191.1,328.9-168.5,310.2-145.4,310.2L-145.4,310.2z"/>
</svg>
