<?xml version="1.0" encoding="utf-8"?>
<!-- Generator: Adobe Illustrator 19.0.0, SVG Export Plug-In . SVG Version: 6.00 Build 0)  -->
<svg version="1.1" id="Layer_1" xmlns="http://www.w3.org/2000/svg" xmlns:xlink="http://www.w3.org/1999/xlink" x="0px" y="0px"
	 viewBox="-177 352.7 255.5 89.4" style="enable-background:new -177 352.7 255.5 89.4;" xml:space="preserve">
<style type="text/css">
	.st0{fill:#010101;}
</style>
<path id="XMLID_40_" class="st0" d="M-105.8,404.3c-0.3,2.4-0.6,4.8-0.8,7.2c-0.1,0-0.2,0-0.3,0c-2.4,0.2-4.8,0.3-7.2,0.3
	c0.2-2.5,0.4-4.9,0.7-7.4c0.2-1.7-2.5-1.7-2.6,0c-0.2,2.7-0.5,5.4-0.7,8.2c-0.1,0.2-0.1,0.4-0.1,0.6c-0.3,3.4-0.6,6.8-0.9,10.1
	c-0.2,1.7,2.5,1.7,2.6,0c0.3-3,0.5-6,0.8-8.9c2.5,0,5,0,7.5-0.3h0.1c-0.2,2.2-0.8,6-0.9,8.2c-0.1,1.7,2.5,1.7,2.6,0
	c0.4-5.5,1.3-12.5,2-18C-102.9,402.6-105.5,402.7-105.8,404.3z"/>
<path class="st0" d="M-88.7,417.6c0.9-0.5,0.8-2.1-0.2-2.4c-0.3-3.7-0.5-7.5-0.5-11.2c0-0.9-0.7-1.3-1.4-1.3
	c-0.6-0.5-1.9-0.5-2.3,0.5c-2.2,5.4-4.4,10.9-6.5,16.3c-0.6,1.6,1.9,2.2,2.5,0.7c0.3-0.9,0.7-1.8,1.1-2.7c0.2,0.1,0.4,0.2,0.7,0.2
	h4.1c0.1,1.3,0.3,2.7,0.4,4c0.2,1.6,2.8,1.7,2.6,0C-88.4,420.4-88.5,419-88.7,417.6z M-95.1,415.2c1-2.6,2.1-5.2,3.2-7.9
	c0.1,2.6,0.2,5.2,0.5,7.9H-95.1z"/>
<path class="st0" d="M-70.7,413.7c2.1-1,3.7-2.5,3.6-5.2c-0.1-4.7-5.3-5.5-9-5.3c-0.3-1.6-2.8-0.9-2.5,0.7c0.3,1.6-0.2,3.4-0.4,5
	c-0.2,1.6-0.4,3.1-0.6,4.7c-0.4,3.1-0.8,6.3-1.2,9.4c-0.2,1.4,1.8,1.6,2.4,0.7l0.3-0.5c0.3-0.5,0.3-0.9,0-1.3
	c0.3-2.1,0.5-4.2,0.8-6.4c1.1-0.3,2.5-0.6,3.8-1c0,0.1,0,0.1,0,0.2c0.1,0.4,0.3,0.7,0.6,0.8c0.9,2.6,1.7,5.2,2.5,7.9
	c0.5,1.6,3,0.9,2.5-0.7C-68.7,419.7-69.7,416.7-70.7,413.7z M-76,405.7c2.5-0.1,7.2,0.1,6,3.6c-0.8,2.6-4.4,3-7,3.5
	C-76.6,410.6-76,408.1-76,405.7z"/>
<path class="st0" d="M-58,403.7c-0.1-1.4-2.3-1.4-2.6,0c-0.7,0.4-0.8,1.6-0.2,2.1c-0.2,2.6-0.3,5.2-0.5,7.8
	c-0.1,1.6-0.2,3.1-0.3,4.7c-0.1,1.3-0.5,3-0.1,4.2c0.3,0.8,1.1,1.2,1.9,0.8c0,0,0.1,0,0.1-0.1c0.1,0,0.1-0.1,0.2-0.1
	c0.2,0,0.5,0,0.7-0.1c2.4-1.2,5.2-2.2,7.1-4.1c1.8-1.8,2.7-4.4,2.7-7C-49.1,407.1-53.6,404.4-58,403.7z M-51.8,413.5
	c-0.7,4-4.3,5.4-7.6,7c0.1-1,0.3-2.1,0.4-2.8c0.1-1.6,0.2-3.1,0.3-4.7c0.2-2.2,0.3-4.4,0.4-6.6c1.5,0.2,2.9,0.7,4.2,1.6
	C-52,409.3-51.4,411.2-51.8,413.5z"/>
<path id="XMLID_33_" class="st0" d="M-29.5,403.7c-1.3,3.7-2.5,7.5-3.5,11.3c-0.5-3.7-0.7-7.4-0.8-11.2c0-1.5-2.1-1.7-2.6-0.3
	c-1.5,4.5-2.9,9.1-4.2,13.7c-0.5-4.6-0.7-9.3-1.8-13.8c-0.4-1.6-2.9-0.9-2.5,0.7c1.6,6.4,1.3,13.1,2.7,19.6c0.3,1.3,2.2,1.2,2.5,0
	c1.2-4.2,2.4-8.4,3.7-12.6c0.3,3.6,0.8,7.2,1.5,10.8c0.2,1.3,2.2,1.2,2.5,0c1.3-5.9,3-11.8,5.1-17.5
	C-26.4,402.8-28.9,402.1-29.5,403.7z"/>
<path class="st0" d="M-13.3,421.4c-0.6-5.7-1.3-11.4-1.9-17.2c-0.1-0.9-0.8-1.3-1.5-1.2c-0.5-0.7-1.6-0.9-2,0.1
	c-2.6,6.1-5.1,12.2-7.6,18.3c-0.4,0.9,0.7,1.9,1.6,1.6c0.2-0.1,0.4-0.1,0.6-0.2c0.8-0.3,1-1.2,0.8-1.8c0.4-1.1,0.9-2.1,1.3-3.2
	c1.9,0,3.8-0.1,5.7-0.3c0.1,1.3,0.3,2.6,0.4,3.9C-15.7,423.1-13.1,423.1-13.3,421.4z M-21,415.2c1.1-2.8,2.3-5.6,3.5-8.3
	c0.3,2.7,0.6,5.4,0.9,8C-18.1,415.1-19.5,415.2-21,415.2z"/>
<path class="st0" d="M5.7,409.6c0.6-5-4.7-6.9-8.8-7.3c-0.2,0-0.4,0-0.5,0c-0.7-0.2-1.7,0.2-1.7,1.2c-0.3,5.7-0.9,11.3-1.8,16.9
	c-0.2,1.6,2.3,2.4,2.5,0.7c0.3-2.2,0.6-4.3,0.9-6.5c1.4,0.1,2.8,0,4.2-0.2c0.5,1.9,1.1,3.9,1.6,5.8c0.3,1.1,0.4,3.3,1.9,3.6
	c1.6,0.3,2.3-2.2,0.7-2.5c0.9,0.2,0.2-1,0.1-1.4l-0.7-2.5c-0.3-1.3-0.7-2.5-1-3.8C4.3,413,5.4,411.7,5.7,409.6z M3,409.8
	c-0.6,2.5-4.1,2.4-6.4,2.3c0.2-2.4,0.4-4.8,0.6-7.2C-0.2,405.3,3.8,406.5,3,409.8z"/>
<path id="XMLID_28_" class="st0" d="M23.7,403c-4.3-0.1-8.5-0.2-12.8-0.2c-1.7,0-1.7,2.6,0,2.6c0.5,0,1.1,0,1.6,0
	c-0.3,2.2-0.6,4.5-0.8,6.7c-0.2,0.3-0.2,0.7-0.1,1c-0.4,3-0.8,6.1-1.2,9.1c-0.1,0.7,0.7,1.3,1.3,1.3c2,0.1,4,0.1,6.1,0.2
	c1.5,0,2.8,0.3,4-0.7c1.3-1.1-0.6-2.9-1.8-1.8c-0.2,0.2-1.6,0-1.8,0c-0.7,0-1.4,0-2.1-0.1l-2.8-0.1c0.3-2.3,0.6-4.5,0.9-6.8
	c2.3,0.1,4.6,0,6.8-0.2c1.7-0.1,1.7-2.7,0-2.6c-2.2,0.2-4.3,0.2-6.5,0.2c0.3-2,0.5-4.1,0.8-6.1c2.9,0,5.7,0.1,8.6,0.2
	C25.4,405.7,25.4,403.1,23.7,403z"/>
<path id="XMLID_27_" class="st0" d="M15.7,438.4c-31.9-2-63.8-3-95.8-2.9c-9,0-18.1,0.1-27.1,0.3c-1.8,0-1.8,2.6,0,2.6
	c32-0.7,63.9-0.3,95.8,1.1c9,0.4,18,0.9,27.1,1.5C17.5,441.1,17.5,438.5,15.7,438.4z"/>
</svg>
