<?xml version="1.0" encoding="utf-8"?>
<!-- Generator: Adobe Illustrator 19.0.0, SVG Export Plug-In . SVG Version: 6.00 Build 0)  -->
<svg version="1.1" id="Layer_1" xmlns="http://www.w3.org/2000/svg" xmlns:xlink="http://www.w3.org/1999/xlink" x="0px" y="0px"
	 viewBox="-123 265.7 364.5 263.3" style="enable-background:new -123 265.7 364.5 263.3;" xml:space="preserve">
<style type="text/css">
	.st0{fill:#231F20;}
</style>
<path class="st0" d="M-10.1,454.1c-0.8,0-1.4-0.2-2.1-0.6c-1.8-1-2.2-3.4-2.3-4.4c-0.2-1.9-0.1-3.8,0-5.7c0-0.8,0.1-1.5,0.1-2.3
	l0.6-26.2c0.2-6.4,0.3-12.8,0.4-19.2c0.3-16.9,0.7-34.3,1.5-51.5c0-0.7,0.6-1.1,1.2-1.1c0.2,0,0.9,0.1,0.9,0.9
	c0.2,15.6-0.1,31.5-0.4,46.9c-0.1,5.6-0.2,11.1-0.3,16.7l-0.5,31.8c0,0.8,0,1.7,0,2.5c0,1.8-0.1,3.5-0.1,5.3v0.1
	c0,0.8,0,1.6,0.3,2.4c0.2,0.5,0.5,0.7,0.8,0.7c0.2,0,0.4-0.1,0.7-0.2l0.8-0.3c4.3-1.7,8.6-3.5,13-5.1c16.4-6.1,33.3-11.7,49.6-17
	c23.5-7.7,47.8-15.6,71-25.5l1.1-0.5l-1.1-0.5c-2.1-1-4.3-2.1-6.4-3.1c-41-19.5-83.3-37.4-125.5-53.2c-0.4-0.2-1.8-0.8-1.5-2.3
	c0.2-0.7,1-1.5,1.8-1.5c0.1,0,0.3,0,0.4,0.1c4.2,1.6,8.5,3.2,12.7,4.8c42.2,16.2,84.3,34.4,125,54.1c0.8,0.4,0.9,1,0.9,1.4
	c0,0.8-0.6,1.6-1.3,2c-24.5,10.9-50.4,19.3-75.5,27.5c-15,4.9-30.6,10-45.7,15.5c-4.6,1.7-9.6,3.6-15.6,6l-0.6,0.2
	C-7.5,453.6-8.8,454.1-10.1,454.1L-10.1,454.1z"/>
<path class="st0" d="M-18.3,509.7c0.4,1.2,2.3,0.7,1.9-0.5c-1.6-5.4-10.8-4.1-10.9,1.6c0,3.1,2.8,4.2,5.2,5.1c1,0.4,2.5,0.9,2.8,2
	c0.4,1.1-0.3,2.1-1.3,2.6c-1.8,0.9-3.9,0.3-5.3-1c-0.9-0.9-2.3,0.5-1.4,1.4c1.9,1.8,4.6,2.5,7,1.6c2.2-0.8,3.9-3.2,2.8-5.5
	c-0.6-1.2-1.6-2-2.8-2.5c-1.5-0.7-3.5-0.9-4.6-2.3C-27.5,508.6-19.5,505.5-18.3,509.7z"/>
<path class="st0" d="M-1,522.5c-0.2-1.4-0.4-2.7-0.6-4.1c0.4-0.4,0.3-1.2-0.3-1.5c-0.7-3.8-1.5-7.6-2.4-11.3c-0.2-0.8-1.4-1-1.8-0.2
	c-2.2,3.7-3.3,7.8-4.9,11.8c-0.1,0.2-0.2,0.4-0.2,0.6c-0.5,1.2-1,2.3-1.7,3.4c-0.6,1.1,1.1,2.1,1.7,1c0.6-1.1,1.1-2.2,1.6-3.3
	c2,0,4,0,6,0c0.2,1.1,0.3,2.1,0.5,3.2c-0.1,0.2-0.1,0.4,0,0.7c0.1,0.1,0.1,0.3,0.2,0.4C-2.4,524.2-0.9,523.8-1,522.5z M-8.9,516.8
	c1-2.7,1.9-5.5,3.2-8.2c0.6,2.7,1.2,5.4,1.7,8.2C-5.6,516.8-7.2,516.8-8.9,516.8z"/>
<path class="st0" d="M14.5,507.9c-1,3.2-2.2,6.3-3.6,9.4c-0.9-3.4-1.7-6.7-2.2-10.2c-0.1-1-1.7-0.9-1.9,0c-1,5.6-2,11.1-3,16.7
	c-0.2,1.2,1.7,1.8,1.9,0.5c0.7-3.8,1.4-7.6,2-11.5c0.6,2.5,1.2,5,1.9,7.5c0.2,0.8,1.4,1,1.8,0.2c1-2.1,2-4.3,2.9-6.5
	c-0.1,2.9-0.2,5.7-0.4,8.6c-0.1,1.3,1.9,1.3,2,0c0.3-4.9,0.5-9.7,0.5-14.6C16.5,507,14.8,506.8,14.5,507.9z"/>
<path class="st0" d="M32.1,511.2c-0.2-4.8-7-6.1-10.6-4.5c-1.1,0.5-0.2,2.1,0.9,1.7c-0.2,2.1-0.4,4.3-0.6,6.4c-0.1,0-0.3,0-0.4,0
	c-1.3,0.1-1.3,2.1,0,2c0.1,0,0.2,0,0.2,0c-0.2,1.8-0.3,3.6-0.5,5.5c-0.1,1.1,1.8,1.4,1.9,0.3c0-0.2,0.1-0.4,0.1-0.6
	c0-0.1,0-0.2,0-0.3c0.1-1.6,0.3-3.2,0.4-4.8c1.9,0.1,3.8,0.2,5.5-0.6C31.1,515.3,32.2,513.3,32.1,511.2z M30.1,512.3
	c-0.7,2.8-3.7,2.7-6.2,2.6c0.2-2.3,0.4-4.6,0.6-6.9C27.3,507.8,30.9,509.3,30.1,512.3z"/>
<path class="st0" d="M46.2,521.7c-2.4-0.2-4.8-0.4-7.2-0.7c0.4-4.8,0.9-9.5,1.4-14.2c0.1-1.3-1.8-1.3-2,0c-0.5,5-1,10.1-1.4,15.1
	c0,0.6,0.5,0.9,1,1c2.8,0.2,5.5,0.5,8.3,0.7C47.5,523.8,47.5,521.9,46.2,521.7z"/>
<path class="st0" d="M64.9,505.9c-2.9,0.3-5.9,0.1-8.8,0c-0.3-0.1-0.6-0.2-0.9,0c-0.7,0-1.3-0.1-2-0.1c-1.3,0-1.3,1.9,0,2
	c0.4,0,0.8,0,1.3,0c-0.1,1.7-0.2,3.3-0.3,5c-0.2,0-0.4,0-0.6,0c-1.3,0-1.3,2,0,2c0.2,0,0.3,0,0.5,0c-0.1,2.2-0.3,4.5-0.3,6.7
	c-0.1,1.9,0.8,2.1,2.5,2.1c2.3,0.1,4.6-0.1,6.8-0.6c1.2-0.2,0.7-2.1-0.5-1.9c-1.3,0.2-2.6,0.4-3.9,0.5c-0.9,0-2.1,0.2-3,0
	c-0.1-1.1,0.2-2.4,0.3-3.4l0.2-3.5c2.5,0,5-0.1,7.5-0.2c1.3-0.1,1.3-2,0-2c-2.5,0.1-4.9,0.2-7.4,0.2c0.1-1.6,0.2-3.3,0.3-4.9
	c2.8,0.1,5.7,0.3,8.4,0C66.2,507.8,66.2,505.8,64.9,505.9z"/>
<path class="st0" d="M96.3,518.4c-0.1-0.1-0.2-0.1-0.2-0.2c0,0,0,0,0,0c-0.3,0-0.6,0-0.9,0c-0.1,0-0.1,0.1-0.2,0.1
	c-0.6,1.1-1.5,2-2.6,2.6c-1.3,0.8-2.8,1.2-3.7-0.3c-0.7-1.1-0.8-2.6-0.8-3.9c0-2.2,0.4-4.7,1.6-6.6c1.4-2.1,4.8-3.8,6.7-1.3
	c0.8,1.1,2.7,0,1.8-1.1c-2-2.7-5.8-2.9-8.4-0.9c-3,2.3-4,6.8-3.8,10.5c0.2,3.1,1.7,7.4,5.7,6.3c2.2-0.6,4.1-2.2,5.3-4.1
	c-0.1-0.3-0.1-0.7-0.3-1C96.4,518.5,96.4,518.4,96.3,518.4z"/>
<path class="st0" d="M110.9,507.8c0.3-0.5,0.2-1.3-0.5-1.6c-4.3-1.5-7.1,2.9-8.1,6.4c-1,3.5-1.5,9,3.1,9.9
	C112.4,523.9,115.4,512,110.9,507.8z M106.1,520.7c-3.4-0.3-2.6-4.9-2-7.2c0.5-1.8,1.5-4.2,3.2-5.1c0.1,0,0.2,0.1,0.3,0.1
	C113.2,509.4,111.5,521.1,106.1,520.7z"/>
<path class="st0" d="M127.8,508c-2-1.8-5.4-2.3-8-2.4c-1.1-0.1-1.2,1.4-0.5,1.8c-0.8,4.5-1.3,9.1-1.6,13.7c-0.5,0-1.1,0-1.6,0
	c-1.3-0.1-1.3,1.9,0,2c5.7,0.4,11-3.1,12.7-8.6C129.6,512.3,129.7,509.7,127.8,508z M126.5,515.2c-1.3,2.9-3.8,4.9-6.8,5.6
	c0.3-4.4,0.8-8.8,1.5-13.1c1.7,0.2,3.4,0.6,4.8,1.5C128.1,510.5,127.4,513.3,126.5,515.2z"/>
<path class="st0" d="M144.7,505c-1.9,0-3.9,0-5.8,0c-0.8,0-1.6-0.1-2.5,0c-0.4-0.2-1-0.2-1.3,0.2c-0.3,0.1-0.6,0.2-1,0.3
	c-1,0.5-0.4,1.7,0.5,1.8c-0.2,2-0.5,4-0.7,6c-0.3,0.3-0.3,0.8-0.1,1.2c-0.3,2.8-0.5,5.6-0.7,8.4c0,0.5,0.5,1.1,1,1
	c2.6-0.3,5.2-0.7,7.7-1c1.2-0.2,1.3-2.1,0-2c-2.2,0.3-4.5,0.6-6.7,0.9c0.1-2.2,0.3-4.4,0.5-6.7c2.5,0.1,5,0,7.5-0.4
	c1.2-0.2,1.3-2.1,0-2c-2.4,0.3-4.8,0.4-7.3,0.4c0.2-2.1,0.4-4.1,0.7-6.2c1.2-0.1,2.5,0.1,3.5,0.1c1.5,0,3.1,0,4.6,0
	C145.9,507,145.9,505,144.7,505z"/>
</svg>
