<?xml version="1.0" encoding="utf-8"?>
<!-- Generator: Adobe Illustrator 19.0.0, SVG Export Plug-In . SVG Version: 6.00 Build 0)  -->
<svg version="1.1" id="Layer_1" xmlns="http://www.w3.org/2000/svg" xmlns:xlink="http://www.w3.org/1999/xlink" x="0px" y="0px"
	 viewBox="0 0 364.5 263.3" style="enable-background:new 0 0 364.5 263.3;" xml:space="preserve">
<style type="text/css">
	.st0{fill:#231F20;}
</style>
<path class="st0" d="M126.7,156c-0.6,0-1.2,0-1.8,0c-0.8,0-1.7,0-2.5,0c-5.1,0.1-10.4,0.2-15.5,0.2c-7.6,0-15.3-0.1-22.9-0.4
	c-11.3-0.4-17.9-0.9-19.7-1.6c-5-1.8-9.2-6.7-11.8-13.8c-0.1-0.2-0.6-1.1-1-1.9c-0.8-1.4-1.8-3.2-2.1-4.1c-1.5-3.8-2.9-7.6-3.6-11.3
	c-1.7-9.5-2.1-16.3-1.4-24.9c0.7-8.3,3.8-15.9,7.5-24.3c0.9-2.1,2.3-4.3,3.6-6.4c0.9-1.5,1.8-2.9,2.5-4.2c1.2-2.3,3.6-4.3,5.9-6.2
	c1.1-0.9,2.2-1.8,3.1-2.7l0.1-0.1c2.2-1.4,6.1-3.2,8.9-3.9c2.1-0.5,4.3-0.6,6.2-0.6c0.7,0,1.3,0,2,0c0.6,0,1.3,0,2,0
	c15.1,0,28.6-0.6,40.8-1.1c0.7-0.3,1.4-0.5,2.1-0.8c-8-0.5-15.6-0.5-22.4-0.5h-1.5c-4.2,0-7.9,0-11.9-0.1c-1.5,0-3.2,0.3-4.8,0.3
	c-2-0.1-4.1-0.2-6.1-0.2c-2.7,0-4.8,0.2-6.8,0.5c-0.6,0.1-1.2,0.2-1.7,0.3c1.2-0.2-3.5,0.5-4.9,1.8l-0.3,0.1
	c-0.3,0.2-1.9,1.1-2.3,1.5c-0.4,0.4-0.7,0.6-0.8,0.7c-4.1,2.9-9.4,8-11.9,13.5l-0.2,0.5l-0.6-0.1c-0.4,0-0.9-0.1-1.5-0.1
	c-0.7,0-1.3,0-1.9,0c-0.3,0-0.6,0-0.7,0c-0.1,0-0.2,0-0.2,0l-2.6,0c-4.8,0-8.8,0-13.7,0.2c-0.3,0-0.5,0-0.8,0c-0.8,0-1.5,0-2.2,0
	c-0.6,0-0.6,0-1.2,0c-2.9,0-4.4,0.8-6.2,3.6C19.6,74,17.5,82.9,17,89c-3.8-0.1-8.2-0.3-11.9,0.7c-2.9,0.8-2.5,4-2.7,6.5
	c-0.4,7.1-0.4,14.2-0.3,21.4c0,1.9,0,3.8,0.1,5.7c0.1,1.4,2.2,1.4,2.2,0c-0.1-7-0.3-14.1-0.1-21.1c0-1.6,0.1-3.2,0.2-4.9
	c0.1-0.9,0.1-1.8,0.2-2.7c0.1-1.5,0.5-2.3,2-2.9c1.4-0.6,3.8-0.3,5.3-0.4c1.6-0.1,3.2-0.1,4.8-0.1l0,0.3l-0.1,0c0,0.2,0,0.5,0,0.7
	c-0.1,0.8-0.1,1.6-0.2,2.4c0,0.1,0,0.3-0.1,0.4l0.1,0l0,0.2c0,0-0.3,3.7-0.4,5.3c-0.8,11.1-0.3,23.5,1.3,35.8c0.6,4.5,1.6,4.6,3,4.8
	c0.3,0,1,0.2,1.8,0.4c0.8,0.2,1.7,0.4,2,0.5l0.7,0.1l0,0.7c0,1.2,0,2.7,0.1,3.9c0.1,0.9,0.1,1.8,0.2,2.6c0,0.9,0,1.9,0,2.9
	c0,2.2,0,4.6,0.4,6.7c0.1,0.4,0.5,0.5,0.7,0.5c0.3,0,0.7-0.2,0.8-0.5c0.5-2.1,0.4-4.4,0.4-6.6l0-0.1c0-0.7,0-1.3,0-2
	c0-1.5,0-3,0-4.4l0-0.2c0-0.3,0-0.7,0-1c0-0.4,0-0.7,0-1.1l0-1.1l0.2,0c0,0,5,0.3,5.7,0.3c0.6,0,1.1,0,1.7,0c0.6,0,1.1,0,1.8,0
	l0.8,0l0,0.8c0,1.7,0.1,3.5,0.3,5.3l0,0.1c0.1,1.3,0.2,2.6,0.2,3.9c0.1,1.8,0,3.6,0,5.4c0,1.8-0.1,3.6,0,5.4c0,0.7,0.7,0.8,0.9,0.8
	c0.5,0,1-0.3,1.1-0.8c0.2-1.9,0.3-6.2,0.4-9.5c0-1.6,0.1-2.9,0.1-3.4c0.1-1.2,0.1-2.5,0.1-3.6l0-0.3c0-0.3,0-0.6,0-1
	c0-0.8,0-1.7-0.1-2.4l-0.2-0.9l0.9-0.1c0.8,0,1.5-0.1,2.1-0.1c0.5,0,1,0,1.4,0c0.5,0,1.1,0,1.7,0c0.5,0,1,0,1.5,0l1.6,0.1l0.3,0.4
	c7.1,11.9,10.6,14.1,16.2,14.6c9,0.9,20.5,1.9,29.6,2c3.6,0.1,7.3,0.1,11,0.1c5.6,0,11.3-0.1,17-0.2c0.1,0,0.2,0,0.3,0l-0.1-0.4
	l1-0.1c0.3,0,0.6,0,0.8,0c0.2,0,0.4,0,0.5-0.1l0.1,0l0.1,0c0.9-0.1,1.2-0.8,1.2-1.4C127.9,156.9,127.8,156,126.7,156z M47.8,140
	c-0.2,0-0.8,0-1.5,0c-1.7,0-4.6,0-7.5,0c-2.8,0-4.9,0-6.3-0.1c-3.6-0.1-6.3-0.3-8-0.5c-1.1-0.1-2.3-0.4-3.4-0.7l-0.4-0.1
	c-0.3-0.1-1.2-0.3-1.7-4.7l-0.1-0.9c-0.4-2.8-1.1-8.7-1.1-18.9c0-4.8-0.2-10.2,0.3-14.7c0.2-2.2,0.3-4.4,0.4-5.6l0.8-5.3
	c0.3-4.8,1.9-14.6,5.8-19.2c1.1-1.3,5.7-0.7,6.3-0.7h0.5c1.6,0,3.7,0,5.4-0.1l4.6-0.1c1.2,0,2.3,0,3.3,0c1,0,6.9,0.3,6.9,0.3l-0.4,1
	c-0.3,0.6-0.9,1.6-1.2,2.2l-0.1,0.2c-4.7,7.9-7.4,15.9-8.4,24.7c-1,9-0.5,17.4,1.3,26.7c0.7,3.5,2,7.1,3.3,10.5l0.3,0.9
	c0.1,0.3,0.4,0.9,0.7,1.4c0.4,0.8,0.9,1.7,1.1,2.5l0.2,1H47.8z"/>
<path class="st0" d="M154.6,168.5c-6.6,0-8.7-0.5-11.7-1.8c-5.2-2.3-7.2-4.5-11.3-8.8c-1-1.1-1.6-2.3-2.5-3.7
	c-2.8-4.2-5-9.1-6.4-13.2c-9.1-26.4-9.2-41.2,0.4-71.5c2.2-6.9,6.9-19.8,18.1-26.2c6.7-3.9,14.9-5.8,25.1-5.8c0.9,0,1.7,0,2.6,0
	l0.1,0c1.7-0.4,3.4-0.6,5.1-0.6c11.6,0,22.4,8.5,27.9,16.9c7.7,11.7,11.9,27.3,12.4,46.5c0.4,13.7-0.8,25.4-3.8,35.6
	c-3.9,13.6-9.6,22.9-17,27.6c-3.2,2-6.8,3.2-10.8,3.6l-0.6,0C182.1,167.2,161.7,168.5,154.6,168.5z M162.2,40.2
	c-6.7,0.6-10.7,1.5-16.2,4c-7.7,3.6-14.4,10.3-17.6,19.7c-10,28.8-12.2,39.7-5.4,68.9c2,8.5,8.2,24.7,20.4,30.6
	c4.7,2.3,8,2.4,10.8,2.5c2.9,0.1,9.8,0,9.8,0l10-0.2c-3-1-6.4-2.1-8.5-3.5c-7.6-5.1-14.1-13.2-18.9-24.1
	c-7.5-17.4-8.9-37.5-3.8-56.5c2.6-9.7,6.5-18.5,11.7-26.1c3-4.5,6-8.1,9-11.1c0.7-0.7,1.5-1.5,2.4-2.3l0.6-0.5l2.4-1.5
	c-1.2,0-2.8,0-3.9,0L162.2,40.2z M174,40.2c-0.9,0-1.9-0.1-2.8,0l0,0l-0.1,0c-3,1.5-5.9,4.5-8,6.9l-0.5,0.6
	c-2.9,3.3-5.5,6.8-7.7,10.4c-4.5,7.2-7.8,15-10,23c-5.2,19.6-3.7,40.4,4.2,57.2c5.8,12.3,12.7,20,21.1,23.6c3.4,1.4,7,2.2,10.4,2.2
	c2,0,4-0.3,5.8-0.8c5-1.5,9.5-5,12.9-10.2c5.9-8.8,9.6-20,11-33.2c1.5-13.7,1-26.4-1.3-37.9c-1.8-9-5.2-22.1-13.7-31.2
	C189.2,44.1,182.1,40.2,174,40.2z"/>
<path class="st0" d="M183.6,148.4c-2.3,0-4.6-0.4-6.4-1.8c-0.2-0.1-0.9-0.5-0.9-0.5c-5-3-11.1-13.5-12.5-16.8
	c-4.1-10.1-6.4-19.6-6.7-28.2c-0.3-8.9,1.6-18,5.6-28c1.9-4.7,4-9.1,6.2-13c1.6-3,4-6.6,8.1-8.1c1.5-0.5,3.1-0.8,4.8-0.8
	c2.7,0,5.5,0.7,8,2c4.1,2.2,7.3,5.7,9.5,10.6c2.2,5,3.1,10.4,3.9,15.5c0.8,5.8,1.7,12.7,1.8,19.6c0.1,6.5-0.4,13-1.6,19.2
	c-1.2,6.1-2.4,12-4.5,17.4c-2.4,6-5.2,9.6-9,11.3C187.7,147.9,185.6,148.4,183.6,148.4L183.6,148.4z M178.6,144.6
	c2,0.9,3.5,0.9,5.1,0.9c3.8,0,7.6-2.6,9.8-6.3c3.3-5.4,4.6-11.8,5.9-18l0.2-0.9c2.7-13,2.7-27.3-0.1-43.7
	c-1.7-10.1-6.1-22.2-17.4-22.2c-0.2,0-0.3,0-0.5,0c-6.3,0.2-8.8,5.3-11.1,9.7c-2.3,4.6-5.2,10.6-7.2,17.1c-2.1,6.7-3,12.7-2.9,18.3
	c0.1,6.1,1.1,12.4,3,18.9c1.5,5,3.3,10.7,6.1,15.7c1.2,2.2,2.7,4.6,4.5,6.5c1,1.1,2.1,2,3.3,3.1
	C177.4,143.7,178.2,144.4,178.6,144.6z"/>
<path class="st0" d="M177.9,130.5c-0.2,0-0.4-0.1-0.6-0.2c-0.8-0.6-1.3-1.7-1.8-2.9c-0.1-0.2-0.2-0.4-0.3-0.7
	c-0.7-1.5-1.2-2.7-1.6-3.9c-1.1-3-1.9-5.9-2.5-8.6c-1.3-6.2-1.8-12.1-1.4-17.7c0.4-6.3,1.5-12.1,3.3-17.5c1-3,2.1-5.7,3.4-8.2
	c0.2-0.3,0.3-0.7,0.5-1.1c0.7-1.4,1.7-3.7,3-4.5c0,0.5-0.3,1-0.6,1.7c-0.1,0.3-0.2,0.5-0.3,0.7c-0.2,0.4-0.6,1.3-0.6,1.3
	c-0.4,0.9-0.9,1.9-1.3,2.8c-1.2,3-2.2,5.6-2.9,8.2c-1.7,5.8-2.6,11.5-2.7,17.1c-0.2,6.1,0.4,11.9,1.6,17.2c0.7,3.1,1.5,5.8,2.5,8.3
	c0.6,1.6,1.1,2.9,1.7,4c0.1,0.2,0.2,0.5,0.3,0.7c0.5,1,0.9,1.8,0.9,2.7C178.5,130.4,178.1,130.5,177.9,130.5z"/>
<path class="st0" d="M116.7,60.9c0.1-0.1-0.1-0.3-0.2-0.2c-8.9,8.1-11.5,20.5-12.7,31.9c-1.4,13.5-0.1,27.9,4.6,40.6
	c0.4,1.1,2,0.6,1.7-0.5c-3.7-12.5-5.8-25.1-4.9-38.1C106,83.2,108.2,69.5,116.7,60.9z"/>
<path class="st0" d="M96.2,129.3c0.1-0.3,0.2-0.6,0.3-0.9c-1.2-2.7-2.2-5.4-3-8.3c-1.6-6.2-2.4-12.7-2.2-19.1
	c0.4-12.9,4.8-24.5,11.3-35.6c0-0.1-0.1-0.2-0.1-0.1C94.8,75,90.7,87.8,90,100c-0.4,6.4,0.1,12.8,1.6,19.1c0.7,3.2,1.7,6.7,2.9,10
	c0.1,0.1,0.1,0.1,0.2,0.2c0.2,0.1,0.4,0.2,0.6,0.3C95.6,129.4,95.9,129.3,96.2,129.3z"/>
<path class="st0" d="M79.5,124.2c0.4,0.2,0.9,0.4,1.2,0.7c0.1-0.2,0.3-0.4,0.4-0.6c0,0,0-0.1,0.1-0.1c-0.7-1.9-1.3-3.9-1.7-6
	c-1.2-5.6-1.8-11.5-1.6-17.3c0.3-11.7,3.6-22.2,8.5-32.2c0-0.1-0.1-0.2-0.1-0.1c-5.8,8.8-8.8,20.3-9.4,31.4
	c-0.3,5.8,0.1,11.6,1.2,17.3C78.4,119.6,78.9,121.9,79.5,124.2z"/>
<path class="st0" d="M326.5,127.2c-3.2,0-6.4-0.3-9.6-0.9c-4.5-0.8-10.3-2.2-14.8-5.5c-4.3-3.1-6.6-8.1-6.2-13.2
	c0.1-1.3,1.1-1.8,2.1-1.8c0.5,0,1,0.2,1.3,0.5c0.3,0.3,0.4,0.7,0.3,1.2c-0.3,3.5,0.7,6.6,2.8,8.8c0.1,0.1,0.2,0.2,0.3,0.3l1.1,1.1
	l-0.1-1.4c-0.6-9.2-0.7-18.9-0.4-28.8c0.1-4.2,0.3-8.5,4.2-10.7c4-2.3,8.8-3.5,12.5-4.3c5.1-1.1,9.9-1.7,14.5-1.7
	c2.4,0,3.4,0.7,3.8,2.7c0.3,1.6-0.2,3.5-1.4,4.9c-1,1.1-2.2,2.1-3.4,3c-0.5,0.3-0.9,0.7-1.4,1c-1.9,1.5-3.8,3.1-5.5,4.8
	c-1.6,1.5-3.2,3.2-4.7,4.8c-1.5,1.6-3.1,3.3-4.8,4.9c-0.3,0.3-0.6,0.4-1,0.4c-0.6,0-1.2-0.3-1.5-0.8c-0.2-0.3-0.3-0.8,0.1-1.3
	c2.7-4.5,6.7-8.3,10.3-11.4c2-1.8,4-3.4,5.9-4.9c0.2-0.1,0.4-0.3,0.6-0.4c1.1-0.8,2.7-1.8,3.1-3.1l0.2-0.7l-0.8,0
	c-5.3,0.1-10.4,0.8-15.2,2c-0.5,0.1-1,0.2-1.5,0.4c-4.3,1-10.2,2.5-11,7.6c-0.8,5.1-1,10.4-1.2,15.5l-0.1,1.7
	c-0.3,6.3-0.4,11.5-0.4,16.5l0,0.3l0.2,0.2c3.8,2.5,8.5,3.6,12.2,4.3c3.1,0.6,6.2,0.8,9.2,0.8c2.8,0,5.4-0.2,8-0.7
	c1.2-0.2,2.3-0.5,3.4-0.8l0.4-0.1l0-0.4c0.5-9.8,0.3-19.6-0.6-29.1l-0.1-1l-0.8,0.7c-3.6,3-6.2,5.5-8.4,8.1l-0.8,0.9l1.2,0
	c2-0.1,4.1-0.1,6.1-0.1l0.6,0c0.5,0,0.8,0.5,0.9,0.9c0,0.2,0,0.7-0.5,0.8c-0.5,0.1-0.9,0.2-1.4,0.2l-0.1,0l-0.2,0
	c-1.8,0.2-3.6,0.4-5.4,0.7c-1.3,0.1-2.6,0.3-4,0.5c0,0-0.1,0-0.1,0c-0.6,0-0.9-0.5-1-0.7c-0.3-0.5-0.3-1-0.1-1.4
	c3.4-5.6,8.4-9.8,14-14.4c0.4-0.3,0.8-0.4,1.2-0.4c0.8,0,1.4,0.6,1.5,1.5c1.3,10.5,1.7,21.1,1.4,31.4l0,0.8l1.3-0.5l0.6-0.2
	c2.1-0.9,4.7-1.9,5.4-4.5c1.6-6.7,2.6-13.6,3.2-18.8c1.6-12.8,1.9-25.9,1.1-38.7c-0.5-7-1.1-13.3-2.1-19.3l0-0.1
	c-1-6-2-12.3-4.6-17.8c-2.6-5.6-6-9.6-10-11.9C333.1,7,329,6,323.8,6c-1.3,0-2.6,0.1-4.2,0.2c-5.2,0.3-11.1,1.3-14.7,5.4
	c-3.4,3.9-4.3,9.2-5,14.3c-3.6,26.8-4.6,53.7-5.2,78.8c0,0.6-0.5,0.6-0.6,0.6c-0.1,0-0.6,0-0.6-0.6c-1-15.3-1-31.3,0.1-48.9
	c0.4-6.8,1-13.4,1.6-19.7c0.1-1.1,0.2-2.2,0.3-3.3c0.4-4.6,0.9-9.4,2-13.9c1.4-5.7,3.9-9.7,7.4-12.2c3.6-2.5,8.2-3.8,14.6-4.2
	c1.7-0.1,3-0.1,4.3-0.1c5.1,0,9,0.7,12.3,2.2c4.3,2,8.1,5.3,10.9,9.8c6.4,9.9,7.7,22.8,8.9,34.2l0,0.3c1.4,13,1.6,25.9,0.6,38.4
	c-0.5,6.6-1.3,13-2.3,18.9l-0.1,0.8c-0.5,2.9-1,5.9-1.7,8.8c-0.6,2.6-1.8,4.4-3.6,5.6C342.9,125.2,335.1,127.2,326.5,127.2
	L326.5,127.2z"/>
<path class="st0" d="M344,205.9c-0.3,0-0.9-0.1-1.1-0.9c-0.7-2.5-0.8-5.1-1-7.7l-0.1-1.5c-0.2-3.2-0.5-6.3-0.7-9.5
	c-0.2-2.6-0.4-4.7-0.5-6.7c-0.2-2.7-0.5-5.3-0.7-9.1c-0.3-6.3-0.6-12.7-0.9-19.1c-0.1-1.5-0.1-2-0.2-2.5c-0.1-0.5-0.1-0.9-0.1-2.6
	c0-0.5,0-1.1,0-1.6c-0.1-1.8-0.1-3.6,0.1-5.4l0.1-0.7l-0.7,0.1c-3.8,0.4-7.5,0.6-11,0.6c-1.6,0-3.2,0-4.8-0.1
	c-6.4-0.4-12.1-1.5-16.8-3.3l-0.9-0.3c0,0,0.2,1.4,0.2,1.5l0.1,1c0.1,1,0.2,2,0.2,3l0.1,1.9c0.1,2,0.2,4,0.3,6
	c0.1,2.8,0.3,4.5,0.4,6.1c0.1,1.6,0.3,3.3,0.4,6.1c0.1,2.7,0.3,4.6,0.4,6.5c0.1,2,0.3,4,0.4,6.8c0.1,1.4,0.1,2.7,0.2,4.1
	c0.2,4.1,0.5,8.4,0.4,12.6c0,1-0.7,1.4-1.4,1.4c-0.7,0-1.4-0.4-1.5-1.4c-0.5-4.1-0.6-8.4-0.7-12.5c0-1.4-0.1-2.7-0.1-4.1
	c-0.1-2.7-0.2-4.6-0.3-6.5c-0.1-2-0.2-4-0.3-6.9c-0.1-2.8-0.2-4.5-0.3-6.1c-0.1-1.7-0.2-3.3-0.3-6.1l-0.1-1.8
	c-0.1-2.3-0.2-4.7-0.2-7c0-0.4,0-0.9,0-1.3c0-0.9,0-1.8,0-2.7c0-0.2,0-0.4,0-0.6c0-0.2,0-0.4,0-0.5l0-0.4l-0.3-0.2
	c-4-2-7.3-4.6-9.8-7.7c-3.4-4.2-5.2-9-5.1-13.4c0.1-2.5,0.8-4.4,2.3-5.8c0.6-0.6,1.4-1,2.2-1c0.5,0,1,0.2,1.5,0.5
	c0.2,0.2,0.2,0.4,0.2,0.5c0,0.1-0.1,0.2-0.4,0.2c-0.2,0-0.3,0-0.4,0c-0.6,0-1.1,0.2-1.5,0.7c-1.4,1.6-0.9,5.3-0.9,5.5
	c0.3,2.3,0.9,4.3,1.8,6c2.1,3.9,4.9,7.2,8.2,9.3c6.4,4.2,14.7,6.2,25.8,6.2c0.6,0,1.1,0,1.7,0c6-0.1,11.2-0.6,15.9-1.5
	c3.9-0.8,8.3-1.9,12-4.4c3.6-2.4,5.8-5.7,6.4-9.3c0.3-1.9,0.2-3.7-0.3-5.2c-0.5-1.4-1.3-2.6-2.1-3.7c-0.2-0.2-0.4-0.5-0.5-0.7
	c-0.4-0.6-0.3-1-0.1-1.4c0.3-0.6,1-1,1.6-1c0.2,0,0.5,0.1,0.7,0.2c1.1,0.6,1.9,1.3,2.5,2.3c2.1,3.3,2.7,7.1,1.6,11
	c-1.3,4.9-4.9,9.4-9.5,11.8c-5.2,2.8-10.9,3.8-15.2,4.4l-1,0.1l0.1,0.6c0.3,1.8,0.4,3.6,0.5,5.4c0,0.6,0.1,1.3,0.1,1.9
	c0.1,1.6,0.2,2.1,0.3,2.6c0.1,0.5,0.2,0.9,0.3,2.5c0.3,6.2,0.8,12.7,1.2,19.1c0.3,3.7,0.5,6.2,0.8,8.9c0.2,2,0.4,4.1,0.7,6.8
	c0.3,3.2,0.6,6.4,0.9,9.5c0.1,0.6,0.1,1.1,0.2,1.7c0.2,2.3,0.5,4.6,0.3,6.9C345.4,205.4,344.7,205.9,344,205.9L344,205.9z"/>
<path id="XMLID_43_" class="st0" d="M134,254.7c-1,2-3,3.8-5.3,3.6c-2.6-0.3-3.4-3.2-3.4-5.4c0-2.2,0.7-4.5,1.7-6.4
	c0.6-1,1.2-2.1,2.3-2.7c1.3-0.8,2.9-0.2,3.1,1.4c0.2,1.2,2.1,1.3,2,0c-0.4-3.1-3.6-4.7-6.3-2.9c-3,2-4.4,6.2-4.7,9.6
	c-0.3,3.1,0.6,7,3.9,8.2c3.4,1.2,7-1.3,8.4-4.3C136.2,254.6,134.5,253.6,134,254.7z"/>
<path id="XMLID_40_" class="st0" d="M150.3,245.3c-0.4-0.8-1-1.4-1.7-1.9c0-0.2,0-0.4-0.1-0.6c-0.9-1.8-3.2-1.2-4.5-0.3
	c-1.9,1.2-3.2,3.3-4.1,5.3c-1.6,3.6-2.6,9.4,2.2,10.9c4.5,1.4,7.9-3,8.6-7C151.1,249.7,151.3,247.2,150.3,245.3z M148.7,252.3
	c-0.7,2.5-2.8,5.3-5.7,4.6c-3.3-0.9-2.4-5-1.5-7.3c0.4-1.2,1.1-2.4,1.8-3.5c0.2-0.2,0.9-1.1,1.6-1.7c0.2,0.4,0.6,0.6,1.1,0.5
	C149.7,243.8,149.2,250.4,148.7,252.3z"/>
<path id="XMLID_39_" class="st0" d="M165.9,242.7c-1.3,3.3-2.8,6.5-4.5,9.5c-0.6-3.2-1.2-6.4-1.6-9.6c-0.1-1-1.7-1.5-1.9-0.3
	c-1,5.4-2.1,10.7-3.1,16.1c-0.2,1.2,1.7,1.8,1.9,0.5c0.7-3.5,1.3-7,2-10.5c0.4,2.3,0.8,4.5,1.3,6.7c0.2,0.9,1.4,0.9,1.8,0.2
	c1.4-2.4,2.6-4.8,3.8-7.3c-0.2,3.3-0.4,6.6-0.6,9.9c-0.1,1.3,1.9,1.3,2,0c0.4-5,0.7-10.1,0.9-15.1
	C167.9,241.8,166.3,241.8,165.9,242.7z"/>
<path id="XMLID_36_" class="st0" d="M182.3,242.2c-1.7-1.1-3.7-1-5.7-0.7c-0.5-0.5-1.5-0.5-1.7,0.3c-1,5.3-1.9,10.7-2.9,16
	c-0.2,1.3,1.5,1.7,1.9,0.5l0.2-0.4c0.1-0.2,0.1-0.4,0-0.6c0.2-1.4,0.5-2.8,0.7-4.1c3.9-0.4,8.8-1.6,9.5-6.2
	C184.6,245.2,183.9,243.2,182.3,242.2z M182.1,247.9c-1.2,2.5-4.2,3.1-6.8,3.4c0.5-2.6,0.9-5.2,1.4-7.8c1.5-0.3,3.3-0.5,4.6,0.4
	C182.6,244.8,182.8,246.6,182.1,247.9z"/>
<path id="XMLID_33_" class="st0" d="M197.7,244.8c-0.3-0.4-0.6-0.7-1-1c0.1-0.2,0.1-0.5-0.1-0.8c-1-1.6-3-0.9-4.2,0
	c-1.8,1.4-3,3.6-3.8,5.7c-1.1,3-2,8.9,2,10.2c4.8,1.6,7.3-4.6,7.9-8.1C199,248.8,199,246.5,197.7,244.8z M196.5,251.4
	c-0.3,1.2-0.6,2.5-1.3,3.5c-0.8,1.3-2.5,3.1-4.2,2c-2-1.2-1.3-4.9-0.8-6.7c0.4-1.3,0.9-2.6,1.7-3.8c0.1-0.2,0.7-0.9,1.4-1.6
	c0.1,0,0.1,0,0.2,0C197.2,243.8,197,249.2,196.5,251.4z"/>
<path id="XMLID_32_" class="st0" d="M216.9,241.7c-0.2-0.4-0.7-0.5-1.1-0.5c-0.1,0-0.1,0-0.2,0c-0.4,0.1-0.7,0.6-0.7,1
	c0,0,0,0.1,0,0.1c0,0.3,0.1,0.5,0.2,0.7c-0.1,0.5-0.4,1.3-0.5,1.5c-0.1,0.6-0.3,1.3-0.4,1.9c-0.3,1.4-0.6,2.8-0.9,4.2
	c-0.4,1.8-0.8,3.6-1.2,5.5c-1.7-4.1-2.9-8.5-3.3-12.9c-0.1-1-1.7-1.5-1.9-0.3c-0.9,5.1-1.9,10.2-3.3,15.2c-0.3,1.2,1.6,1.7,1.9,0.5
	c0.9-3.3,1.6-6.5,2.3-9.8c0.9,3.8,2.1,7.5,3.9,11c0.4,0.7,1.6,0.6,1.8-0.2c0.7-3.3,1.4-6.6,2.1-9.9l1-4.8
	C216.8,243.7,217.3,242.7,216.9,241.7z"/>
<path id="XMLID_31_" class="st0" d="M231.9,241.6c-3.1,0-6.1-0.1-9.2-0.2c-1.1-0.1-1.2,1.5-0.4,1.9c-0.6,5.4-1.1,10.8-1.6,16.2
	c0,0.5,0.5,1,1,1c2.7-0.1,5.5-0.5,8.2-1c1.2-0.3,0.7-2.2-0.5-1.9c-2.2,0.4-4.4,0.7-6.6,0.9c0.2-2.4,0.4-4.7,0.7-7.1
	c2.3,0.1,4.6,0,7-0.2c1.3-0.1,1.3-2.1,0-2c-2.3,0.2-4.5,0.3-6.8,0.2c0.2-2,0.4-3.9,0.6-5.9c2.5,0.1,5.1,0.2,7.6,0.2
	C233.1,243.6,233.1,241.6,231.9,241.6z"/>
<path id="XMLID_30_" class="st0" d="M247.3,243.9c-0.5,4-1.1,7.9-1.9,11.8c-1.7-4.9-3.5-9.7-5.2-14.6c-0.4-1.1-1.8-0.8-1.9,0.3
	c-0.6,5.6-1.6,11.2-2.8,16.7c-0.3,1.2,1.6,1.8,1.9,0.5c1-4.3,1.8-8.7,2.4-13c1.7,4.7,3.4,9.4,5,14.1c0.3,0.8,1.7,1,1.9,0
	c1.1-5.2,2-10.5,2.6-15.8C249.4,242.7,247.5,242.7,247.3,243.9z"/>
<path id="XMLID_29_" class="st0" d="M266,241.7c-4.1,0-8.2,0-12.2,0c-1.3,0-1.3,2,0,2c1.5,0,3,0,4.5,0c-0.7,4.9-1.2,9.7-1.7,14.6
	c-0.1,1.3,1.9,1.3,2,0c0.5-4.9,1-9.8,1.7-14.6c1.9,0,3.9,0,5.8,0C267.3,243.7,267.3,241.7,266,241.7z"/>
<path id="XMLID_28_" class="st0" d="M277.4,254.2c0.9,2.1-0.9,4.3-3,4.3c-2.2,0-3.7-1.7-4-3.8c-0.2-1.2-2.2-1-2,0.3
	c0.5,3,2.7,5.4,5.9,5.5c2.9,0.1,5.4-2.2,5.4-5.1c0-3.4-3.2-4.9-5.5-6.6c-1.5-1.1-3.5-3.4-1.5-5.1c0.8-0.6,2.1-1.3,3.2-1
	c1.2,0.3,1.7,1.5,2.1,2.5c0.5,1.2,2.4,0.4,1.8-0.8c-1.3-2.7-3.3-4.6-6.4-3.4c-2.8,1.1-4.4,3.7-2.9,6.6
	C271.9,250.6,276.1,251.2,277.4,254.2z"/>
</svg>
