<?xml version="1.0" encoding="utf-8"?>
<!-- Generator: Adobe Illustrator 19.0.0, SVG Export Plug-In . SVG Version: 6.00 Build 0)  -->
<svg version="1.1" id="Layer_1" xmlns="http://www.w3.org/2000/svg" xmlns:xlink="http://www.w3.org/1999/xlink" x="0px" y="0px"
	 viewBox="-20 166.9 455.6 434.2" style="enable-background:new -20 166.9 455.6 434.2;" xml:space="preserve">
<style type="text/css">
	.st0{fill:#EDF0F4;}
</style>
<g id="Layer_1_1_">
	<path class="st0" d="M46.4,265.5c-1.9-7.2-12.9-7-14.5,0.2c-1.9,8.3-1.6,16.9-2.4,25.4c-0.4,4-0.9,8-1.6,11.9
		c-0.1,0.7-0.2,1.6-0.4,2.4c0-0.2-0.5,0-1.4,0.1c-3.9,0.4-7.9,0.3-11.8,0.1c-1.4-0.1-2.2-0.2-3.5-0.5c-0.6-0.1-0.1,0.8-0.8-1.3
		c-1-3.3-0.9-7-1.3-10.4c-0.5-4.9-0.9-9.8-1.4-14.8c-1.6-17.8-2.8-35.7-3.8-53.6c-0.5-8.6-0.7-17.3-1.2-25.9c0-0.5-0.2-1.5-0.2-2.4
		c0,0,0,0,0.1,0c0.9-0.4,1.7-0.7,2.6-1.1c4-1.9,7.7-3.1,10.4-6.7c1.5-2,0.3-5.3-1.8-6.4c-4.4-2.2-9.7-1.2-14.4-0.8
		c-5.4,0.5-9,2.1-12.2,6.6c-2.7,4-1.8,10.5-1.7,14.9c0.2,6.2,0.5,12.3,0.8,18.5c1.1,22.8,2.7,45.6,4.8,68.4c0.9,9.6,0.4,21,7.9,28.2
		c7.1,6.8,21.3,5.9,30.2,4.6c5.3-0.7,9.8-2.6,13-7.1c3.2-4.4,3.5-10.3,4.2-15.5C47.6,288.9,49.3,276.7,46.4,265.5z"/>
	<path class="st0" d="M293.1,462.8c-1.6-11.3-17.1-11.4-17.9,0.3c-0.5,7.3-0.5,14.6-0.9,21.8c-1.5,0.2-3.1,0.4-4.6,0.5
		c-4.5,0.5-9,0.6-13.5,0.6c-3.2,0-6.6,0-9.8-0.4c-0.2-0.9-0.2-1.4-0.3-2.4c-0.5-8.4-0.3-16.9-0.4-25.2c-0.2-16.6-0.2-33.2-0.1-49.9
		c0-9-2.5-24.9,6.3-30.9c6.2-4.3,2.1-13.6-5.3-11.9c-17.8,4.1-18.5,26.7-19.1,41.2c-0.9,21.9-0.9,43.9-0.6,65.8
		c0.1,8.9-1,19.5,5.4,26.6c7,7.8,20.4,6.5,29.9,6.2c9.6-0.3,24.2,0.1,29.1-9.9c2.2-4.4,2-9.7,2.2-14.5
		C294,474.6,293.9,468.8,293.1,462.8z"/>
	<path class="st0" d="M68.7,495.6c1.9-2.5,2.4-6.2,0.9-9c-2.7-5.2-6.2-9.8-10.4-14c-2.5-2.5-5.9-5.6-9.5-7.4
		c-4.7-7.1-10.3-13.8-16.4-19.9c1.5-24.3,2.1-48.6,2-73c0-8.5-10.9-9.2-14.1-3c-0.4-0.4-0.8-0.7-1.3-1c-3.6-2.5-9-2.6-13.2-2.9
		c-4.9-0.3-9.8-0.1-14.7,0.5c-3.4,0.4-6.2,2.1-7.1,5.6c-0.2,0.8-0.2,1.6-0.2,2.4c-0.2,0.5-0.3,1-0.3,1.6c-1.3,24.5-2.2,48.9-3,73.4
		c-0.4,12.2-0.8,24.5-1.2,36.7c-0.2,5.6,2,11.1,8.2,12c6.1,0.9,12.5,0.9,18.7,0.8c0.6,0,1.2,0,1.8,0c2.6,5.6,5.6,11,10.2,15.4
		c6.4,6.1,15.8,8.8,24.3,6.4c4.9-1.4,8.7-4.9,11.4-9.1c1.8-0.2,3.6-0.8,5.3-1.6c2.9-1.5,4.3-4.2,4.7-7.2c0.5-0.6,1-1.1,1.5-1.8
		C67.6,499.1,68.3,497.3,68.7,495.6z M-5.1,483.8c0-1.5-0.1-2.9,0-4.4c0.3,0.4,0.7,0.8,1,1.2c0.4,1.1,0.8,2.1,1.2,3.1
		C-3.6,483.8-4.4,483.8-5.1,483.8z"/>
	<path class="st0" d="M189.9,500.3c1.9-2.5,2.4-6.3,1-9.1c-2.7-5.3-6.3-10-10.5-14.2c-2.6-2.6-6-5.7-9.7-7.5
		c-4.8-7.3-10.5-14.1-16.7-20.3c1.5-24.8,2.2-49.6,2.1-74.4c0-8.7-11.1-9.4-14.4-3c-0.4-0.4-0.9-0.7-1.3-1
		c-3.7-2.6-9.2-2.6-13.4-2.9c-5-0.3-10-0.1-14.9,0.6c-3.4,0.4-6.4,2.2-7.3,5.7c-0.2,0.8-0.3,1.6-0.2,2.4c-0.2,0.5-0.3,1-0.3,1.6
		c-1.3,24.9-2.3,49.8-3.1,74.8c-0.4,12.5-0.8,24.9-1.3,37.4c-0.2,5.7,2,11.3,8.3,12.2c6.2,0.9,12.7,0.9,19,0.9c0.6,0,1.2,0,1.9,0
		c2.6,5.7,5.7,11.2,10.4,15.7c6.5,6.3,16.1,9,24.7,6.5c5-1.5,8.9-5,11.7-9.3c1.8-0.2,3.7-0.8,5.4-1.7c2.9-1.5,4.3-4.3,4.8-7.3
		c0.5-0.6,1.1-1.2,1.5-1.8C188.8,503.8,189.5,502.1,189.9,500.3z M114.7,488.3c0-1.5-0.1-3,0-4.5c0.3,0.4,0.7,0.9,1,1.3
		c0.4,1.1,0.8,2.1,1.3,3.2C116.2,488.3,115.4,488.3,114.7,488.3z"/>
	<path class="st0" d="M430,499.8c1.8-2.4,2.4-6.1,0.9-8.8c-2.6-5.1-6.1-9.7-10.2-13.7c-2.5-2.5-5.7-5.5-9.3-7.2
		c-4.7-7-10.1-13.6-16.1-19.5c1.5-23.8,2.1-47.7,2-71.6c0-8.4-10.7-9.1-13.9-2.9c-0.4-0.3-0.8-0.7-1.3-1c-3.5-2.5-8.9-2.5-12.9-2.8
		c-4.8-0.3-9.6-0.1-14.4,0.5c-3.3,0.4-6.1,2.1-7,5.5c-0.2,0.8-0.2,1.5-0.2,2.3c-0.2,0.5-0.3,1-0.3,1.6c-1.3,24-2.2,48-3,72.1
		c-0.4,12-0.8,24-1.2,36c-0.2,5.5,1.9,10.9,8,11.8c6,0.9,12.3,0.8,18.3,0.8c0.6,0,1.2,0,1.8,0c2.5,5.5,5.5,10.8,10,15.1
		c6.2,6,15.5,8.7,23.8,6.2c4.8-1.4,8.6-4.8,11.2-8.9c1.8-0.2,3.5-0.7,5.2-1.6c2.8-1.5,4.2-4.1,4.6-7c0.5-0.6,1-1.1,1.5-1.7
		C428.9,503.2,429.6,501.5,430,499.8z M357.6,488.2c0-1.4-0.1-2.9,0-4.3c0.3,0.4,0.6,0.8,1,1.2c0.4,1,0.8,2.1,1.2,3.1
		C359,488.2,358.3,488.2,357.6,488.2z"/>
	<path class="st0" d="M427.5,316.6c1.9-2.5,2.4-6.2,1-9c-2.7-5.2-6.3-9.9-10.4-14.1c-2.6-2.5-5.9-5.6-9.6-7.4
		c-4.8-7.2-10.4-13.9-16.5-20c1.5-24.5,2.2-49.1,2.1-73.6c0-8.6-11-9.3-14.2-3c-0.4-0.4-0.9-0.7-1.3-1c-3.6-2.5-9.1-2.6-13.3-2.9
		c-4.9-0.3-9.9-0.1-14.8,0.5c-3.4,0.4-6.3,2.2-7.2,5.7c-0.2,0.8-0.3,1.6-0.2,2.4c-0.2,0.5-0.3,1-0.3,1.6c-1.3,24.7-2.2,49.3-3.1,74
		c-0.4,12.3-0.8,24.7-1.2,37c-0.2,5.7,2,11.2,8.3,12.1c6.2,0.9,12.6,0.9,18.8,0.8c0.6,0,1.2,0,1.9,0c2.6,5.7,5.6,11.1,10.3,15.5
		c6.4,6.2,15.9,8.9,24.5,6.4c4.9-1.4,8.8-4.9,11.5-9.2c1.8-0.2,3.6-0.8,5.4-1.6c2.9-1.5,4.3-4.2,4.8-7.2c0.5-0.6,1-1.2,1.5-1.8
		C426.4,320.1,427.2,318.4,427.5,316.6z M353.1,304.7c0-1.5-0.1-3,0-4.4c0.3,0.4,0.7,0.8,1,1.2c0.4,1.1,0.8,2.1,1.3,3.2
		C354.6,304.7,353.9,304.7,353.1,304.7z"/>
	<path class="st0" d="M310.2,313.6c1.9-2.5,2.5-6.3,1-9.2c-2.8-5.3-6.4-10.1-10.6-14.3c-2.6-2.6-6-5.7-9.7-7.5
		c-4.9-7.3-10.6-14.2-16.8-20.4c1.5-24.9,2.2-49.9,2.1-74.9c0-8.7-11.2-9.5-14.5-3.1c-0.4-0.4-0.9-0.7-1.3-1.1
		c-3.7-2.6-9.3-2.6-13.5-2.9c-5-0.3-10.1-0.1-15.1,0.6c-3.5,0.4-6.4,2.2-7.3,5.8c-0.2,0.8-0.3,1.6-0.2,2.4c-0.2,0.5-0.3,1-0.3,1.6
		c-1.3,25.1-2.3,50.2-3.1,75.4c-0.4,12.6-0.8,25.1-1.3,37.7c-0.2,5.8,2,11.4,8.4,12.3c6.3,0.9,12.8,0.9,19.2,0.9c0.6,0,1.3,0,1.9,0
		c2.6,5.8,5.7,11.3,10.4,15.8c6.5,6.3,16.2,9.1,24.9,6.5c5-1.5,9-5,11.7-9.4c1.9-0.2,3.7-0.8,5.4-1.7c3-1.5,4.4-4.3,4.9-7.4
		c0.5-0.6,1.1-1.2,1.5-1.8C309.1,317.1,309.9,315.4,310.2,313.6z M234.5,301.5c0-1.5-0.1-3,0-4.5c0.3,0.4,0.7,0.9,1,1.3
		c0.4,1.1,0.8,2.2,1.3,3.2C236,301.5,235.2,301.5,234.5,301.5z"/>
	<path class="st0" d="M191.5,313.2c1.9-2.6,2.5-6.4,1-9.3c-2.8-5.4-6.5-10.2-10.8-14.5c-2.6-2.6-6.1-5.8-9.9-7.6
		c-4.9-7.4-10.7-14.4-17-20.7c1.6-25.3,2.2-50.6,2.1-75.9c0-8.9-11.4-9.6-14.7-3.1c-0.4-0.4-0.9-0.7-1.4-1.1
		c-3.7-2.6-9.4-2.7-13.7-3c-5.1-0.4-10.2-0.1-15.3,0.6c-3.5,0.4-6.5,2.2-7.4,5.9c-0.2,0.8-0.3,1.6-0.2,2.5c-0.2,0.5-0.3,1.1-0.3,1.7
		c-1.4,25.4-2.3,50.9-3.2,76.3c-0.4,12.7-0.9,25.4-1.3,38.2c-0.2,5.9,2,11.6,8.5,12.5c6.4,0.9,13,0.9,19.4,0.9c0.6,0,1.3,0,1.9,0
		c2.7,5.9,5.8,11.4,10.6,16c6.6,6.4,16.4,9.2,25.2,6.6c5.1-1.5,9.1-5.1,11.9-9.5c1.9-0.2,3.7-0.8,5.5-1.7c3-1.5,4.4-4.4,4.9-7.5
		c0.5-0.6,1.1-1.2,1.5-1.8C190.4,316.8,191.2,315,191.5,313.2z M114.8,300.9c0-1.5-0.1-3.1,0-4.6c0.3,0.4,0.7,0.9,1,1.3
		c0.4,1.1,0.8,2.2,1.3,3.3C116.4,300.9,115.6,300.9,114.8,300.9z"/>
</g>
<g id="Layer_2">
	<g>
		<path d="M225.7,506.5c-0.7,0-1.3-0.6-1.3-1.3c-0.4-32.8-0.3-59.4,0.4-86.3c0.2-8.2,0.4-15.6,0.7-22.7c0.1-2.9,0.2-7.7,0.2-12.7
			c0.1-5.5,0.2-11.2,0.3-14.9c0.1-2.8,2.2-4.5,5.7-4.5c0.6,0,1.3,0.1,2,0.2c6.1,0.2,10.4,0.2,14.6,0.2c2.9,0,5.7,0,9-0.1
			c0,0,0.3,0,0.7,0c1.4,0,3.8-0.3,4.7-2c2-3.4,5.9-9.3,10.6-9.7c0.2,0,0.5,0,0.7,0c0.7,0,1.4,0.1,2.1,0.3c2.5-0.1,5-0.1,7.5-0.1
			c5.8,0,12.2,0.3,19.7,2.6c4.4,1.3,6.5,4.1,10.4,10.2c8.2,13-1.6,28-9.8,38.2c-2.8,3.5-4.2,5.1-5.7,6.9c-1.2,1.4-2.5,2.9-4.8,5.7
			c-2.3,2.7-4.9,6-7.4,9.4l-0.1,0.1v0.1c0.2,10.9,0.4,23.6,0.6,36.2c0.2,14.4,0.5,28.7,0.6,40.5c0,0.6-0.3,1.2-0.9,1.3
			c-12.6,1.8-24.8,1.8-37.7,1.8C241.2,506.1,233.6,506.1,225.7,506.5L225.7,506.5z M233.4,367c-0.7,0.2-1.4,0.2-2,0.2
			c-1.3,0-2.4,0.1-2.6,1.7c-0.5,4.3-0.6,12.6-0.7,19.3c0,3.2-0.1,5.9-0.1,7.9c-0.5,13.3-0.8,25.7-1,37.8c-0.4,21.3-0.4,41.5,0,69.6
			v0.3h0.3c7.9-0.4,15.5-0.4,22.8-0.5c11.6-0.1,22.5-0.1,34-1.4h0.3v-0.3c-0.2-13.9-0.5-31.6-0.7-48.5l-0.4-23.5l-0.5,0.7
			c-2.1,2.9-3.9,5.7-4.5,8.8c-1.2,6.1-0.6,12.1-0.1,17.8c0.4,4.6,0.8,8.9,0.4,13.2c-0.1,0.2-0.1,0.5-0.2,0.7c0,0.3,0,0.5,0,0.8v0.1
			c-0.1,0.5-0.1,1.1-0.2,1.6v0.2c0,0.1,0,0.2,0,0.2c0,0.2,0,0.4,0.1,0.6c-0.2,0.9-0.3,1.9-0.4,2.9c-0.8,5.8-1.6,11.8-7.6,13.1
			c-3.3,0.7-6.8,1.1-10.2,1.5c-0.8,0.1-1.6,0.2-2.5,0.3c-0.4,0-0.8,0.1-1.2,0.2c-1,0.1-2,0.3-2.9,0.3c-0.5,0-1,0-1.4-0.1
			c-1.5,0.1-2.8,0.2-4,0.2c-1.3,0-2.4-0.1-3.5-0.2c-3.7-0.5-6-1-6.8-4.7c-0.5-2-0.4-4.2-0.4-6.4c0-1,0-1.9,0-2.8
			c-0.1-3.8-0.2-7.5-0.3-11.3c-0.2-7.5-0.3-14.3-0.3-20.7c0-16.8,0.2-30.5,0.8-43.3c0-0.3,0-0.8,0-1.4c0.1-4.8,0.3-19.5,5-19.5
			c0.5,0,1.1,0.2,1.8,0.6l0.2,0.1l0.2-0.2c2.9-4,6.1-7.1,9-10c1.8-1.8,3.6-3.5,5.1-5.3l0.4-0.5h-0.7c-2.4,0-4.3-0.1-6.1-0.2
			c-1.9-0.1-3.6-0.2-5.8-0.2c-1.7,0-3.4,0.1-5.4,0.2c-0.1,0-2.8,0-4.9,0C233.9,367,233.6,367,233.4,367L233.4,367L233.4,367z
			 M242.9,384.2c-2.9,0.1-3.2,7.4-3.2,12.8c0,0.4,0,0.6,0,0.8c-0.1,2.5-0.2,5-0.2,7.5c-0.1,4.8-0.3,9.8-0.3,15.1
			c-0.2,10.8-0.2,20.6-0.1,30.1c0.1,11,0.3,20.8,0.7,30.1c0,0.3,0,0.7,0,1.1c0,2.7-0.1,7.2,2.3,7.7c2.2,0.4,4.6,0.7,7.4,0.9h0.1h0.1
			c0.1,0,0.1-0.1,0.2-0.1c0.4,0,0.8,0,1.2,0c4.1,0,8.4-0.9,12.7-1.7c1.6-0.3,3.1-0.6,4.6-0.9c5.2-0.9,5.9-5.6,6.4-9.5v-0.2l0,0
			c0.5-1.7,0.7-3,0.6-4.3c1.6-6.1,1.1-12,0.4-18.4c-0.5-4.8-0.9-9.8-0.4-15c0.6-5.6,4.4-10.6,7.7-15l0.8-1.1c4-5.3,8.3-10.5,12-14.8
			c1.2-1.4,2.1-2.5,2.9-3.4c2.5-2.9,3.4-4,6.9-8.8c2.8-3.9,9.1-13.7,7.9-21.6c-1.5-9.2-6-13.9-9.5-16.2c-3.5-2.3-7.3-2.5-11.3-2.7
			c-0.7,0-1.5-0.1-2.2-0.1c-1.7-0.1-5.3-0.3-8.1-0.3c-1.4,0-2.4,0-3,0.1l-0.4,0.1l0.2,0.4c0.3,0.5,0.9,1.9,1.2,2.8l0.2,0.4
			c4.9,11.2,2,18.3-5,27.3l0,0l-0.2,0.2c-1.9,2.8-2.7,3.9-3.5,5c-0.9,1.2-1.7,2.2-3.6,5.1c-0.9,1.4-1.8,2.8-2.7,4.2
			c-2.6,4-5.2,8.2-8.3,11.7l-0.2,0.2l0.1,0.1c0,0.1-0.1,0.1-0.1,0.2c-0.1,0.2-0.3,0.4-0.4,0.7c-1.6,1.9-2.9,3.6-3.8,5.3
			c-2.7,3.7-5.5,8.4-5.1,15.1l0.1,2.4c0.9,15.3,1.9,32.6-3.5,47.2c-0.1,0.3-0.4,0.4-0.7,0.4c-0.2,0-0.4-0.1-0.5-0.2
			s-0.1-0.2-0.1-0.4c1.6-9.9,2.9-18.8,2.9-28.3c0-3.4-0.3-6.8-0.5-10.2c-0.4-5.7-0.9-11.7-0.1-17.2c0.6-4.7,3.9-9,6.9-12.6l0,0
			c0,0,0.1-0.1,0.1-0.2c1.1-1.5,2.2-3.1,3.3-4.6c1.6-2.2,3.2-4.5,4.9-6.7c1.3-2.1,2.4-3.9,3.5-5.5c3.9-6.2,6.2-10,12.2-17.2
			c0.1-0.1,0.3-0.2,0.4-0.3h0.1l0.1-0.1c2.6-3.8,3.4-6.2,3.4-11.4c0-2.4-0.3-6-1.3-9.2c-1.1-3.6-2.8-5.5-4.8-5.5
			c-1.5,0-3.2,1.1-5.1,3.3c-1.7,2.1-1.7,2.1-1.6,2.3v0.1c-0.2,0.3-0.6,0.7-1.2,1.5c-4.4,5.4-8,8.7-11.7,12.1
			c-3.1,2.9-6.4,5.9-10.3,10.3c-0.1,0.1-0.2,0.2-0.3,0.2c-0.2,0-0.4-0.1-0.6-0.4c-0.1-0.1-0.2-0.3-0.1-0.5l0.2-0.4L242.9,384.2z"/>
		<path d="M309.4,377.2c-0.1,0-0.2,0-0.3-0.1c-4.2-1.6-7.5-2-10.9-2.5c-1.7-0.2-3.4-0.5-5.4-0.8c-0.7-0.1-0.7-0.8-0.7-1
			c0.1-0.6,0.5-1.2,1.1-1.2c0.1,0,0.2,0,0.3,0c1.9,0.5,3.9,0.7,5.9,0.9c4.2,0.4,8.2,0.8,10.8,4c0.1,0.1,0.1,0.1,0,0.2
			C310.2,377,309.8,377.2,309.4,377.2L309.4,377.2z"/>
		<path d="M273.6,434.7c-3-0.2-6-0.5-8.9-0.8c-4-0.4-8.2-0.9-12.5-0.9h-0.4c-0.7,0-1-0.5-1-1c0-0.6,0.4-1.2,1.1-1.2
			c1.2-0.1,2.4-0.1,3.6-0.1c7.5,0,13.6,1.1,18.3,3.4c0.1,0.1,0.1,0.2,0.1,0.3C273.9,434.5,273.8,434.7,273.6,434.7L273.6,434.7z"/>
		<path d="M262.1,471.1c-3.5,0-6.7-0.4-9.5-1.1c-0.3-0.1-0.5-0.4-0.4-0.7c0-0.2,0.1-0.4,0.4-0.4c1.9-0.1,3.7-0.1,5.5-0.1
			c4.2-0.1,8.5-0.2,12.9-0.7c0.1,0,0.1,0,0.2,0c0.6,0,1,0.5,1,1c0,0.6-0.2,1.2-1,1.3C268,470.9,264.9,471.1,262.1,471.1L262.1,471.1
			z"/>
		<path d="M-14.7,322.7c-0.7,0-1.3-0.6-1.3-1.3c-0.4-33.3-0.3-60.3,0.4-87.5c0.2-8.4,0.4-15.9,0.7-23l0.2-5c0.2-5.8,0.4-12.3,0.6-17
			c0.3-5.8,3-5.9,6.8-6c1,0,2,0,3.1-0.2c0.6,0,1.2,0,1.8,0c3.6,0,6.7,0.3,9.6,0.7c2.9,0.3,5.7,0.6,8.9,0.6c0.4,0,0.8,0,1.2,0h0.1
			l0.1-0.1c1.4-1.8,1.7-2.3,2-2.8c0.4-0.7,0.8-1.3,3.2-4.3c0.5-0.6,1-1.4,1.6-2.1c2.4-3.3,5.4-7.4,9.2-7.7c0.2,0,0.5,0,0.7,0
			c0.7,0,1.4,0.1,2.1,0.3c2.5-0.1,5.1-0.1,7.6-0.1c5.9,0,12.3,0.3,19.9,2.6c4.5,1.4,6.6,4.2,10.5,10.3c8.3,13.1-1.7,28.4-9.9,38.8
			c-2.9,3.6-4.2,5.2-5.8,7c-1.2,1.4-2.6,3-4.9,5.7c-2.3,2.8-5,6.1-7.5,9.5l-0.1,0.1v0.1c0.2,11,0.4,23.8,0.6,36.6
			c0.2,14.6,0.5,29.2,0.6,41.2c0,0.6-0.4,1.3-0.9,1.3c-12.8,1.8-25.2,1.8-38.2,1.9C1,322.3-6.7,322.3-14.7,322.7L-14.7,322.7z
			 M-6.9,185.4c-0.3,0.1-0.6,0.1-0.8,0.2c-2,0.4-3.5,0.8-3.8,2.8c-0.5,4.4-0.6,10.5-0.7,15.9c0,2.4-0.1,4.6-0.1,6.5
			c-0.5,13.5-0.8,26-1,38.3c-0.4,21.7-0.4,42.1,0,70.6v0.3h0.3c8-0.4,15.7-0.4,23.1-0.5c11.7-0.1,22.8-0.1,34.5-1.4h0.3v-0.3
			c-0.2-14-0.5-31.9-0.7-48.9c-0.1-8.1-0.4-24.1-0.4-24.1l-0.5,0.7c-2.1,2.9-4,5.8-4.6,8.9c-1.2,6.2-0.6,12.2-0.1,18.1
			c0.4,4.6,0.8,9,0.4,13.5c-0.1,0.2-0.1,0.4-0.1,0.7c0,0.3,0,0.5,0,0.8v0.1c-0.1,0.5-0.1,1.1-0.2,1.6v0.4c0,0.2,0,0.4,0.1,0.6
			c-0.2,0.9-0.3,1.9-0.4,2.9c-0.8,5.9-1.6,12-7.7,13.3c-3.4,0.7-6.9,1.1-10.4,1.5c-0.8,0.1-1.7,0.2-2.5,0.3
			c-0.4,0.1-0.8,0.1-1.2,0.2c-1,0.1-2,0.3-3,0.3c-0.5,0-1,0-1.4-0.1c-1.6,0.1-2.9,0.2-4.1,0.2c-1.3,0-2.5-0.1-3.6-0.2
			c-3.7-0.5-6.1-1-6.9-4.7c-0.5-2-0.4-4.3-0.4-6.5c0-1,0-1.9,0-2.8c-0.1-3.8-0.2-7.6-0.3-11.4c-0.2-7.6-0.3-14.4-0.3-21
			c0-17,0.2-31,0.8-43.9c0-0.3,0-0.7,0-1.2c-0.4-4.2-0.2-16.2,4.3-16.2c0.6,0,1.3,0.2,2.1,0.7l0.2,0.1l0.2-0.2
			c4.8-6.4,7.7-10.3,11.2-14.9l0.4-0.5h-4.1c-3.4,0-4.8-0.1-11.1-0.5c0,0-0.8,0-1.9-0.1C-3.3,185.5-6.6,185.4-6.9,185.4L-6.9,185.4
			L-6.9,185.4z M2.7,202.7c-3.2,0.1-3.2,6.3-3.3,9c0,0.3,0,0.5,0,0.7c-0.1,2.5-0.2,5.1-0.2,7.6c-0.1,4.9-0.3,10-0.3,15.3
			c-0.2,10.9-0.2,20.9-0.1,30.6c0.1,11.1,0.4,21.1,0.7,30.5c0,0.3,0,0.7,0,1.1c0,2.7-0.1,7.3,2.3,7.8c2.2,0.4,4.7,0.7,7.6,0.9h0.1
			h0.1c0.1,0,0.1-0.1,0.2-0.1c0.4,0,0.8,0,1.3,0c4.1,0,8.5-0.9,12.8-1.7c1.6-0.3,3.2-0.6,4.7-0.9c5.3-0.9,5.9-5.7,6.5-9.6v-0.2l0,0
			c0.5-1.7,0.7-3.1,0.6-4.4c1.6-6.2,1.1-12.2,0.5-18.6c-0.5-4.9-1-10-0.4-15.2c0.6-5.7,4.5-10.7,7.8-15.2l0.9-1.1
			c4.1-5.4,8.4-10.6,12.1-15c1.2-1.4,2.1-2.5,2.9-3.4c2.5-2.9,3.4-4,7-8.9c2.8-3.9,9.3-13.9,8-21.9c-1.7-9.4-6.2-14.1-9.8-16.5
			c-3.5-2.3-7.4-2.5-11.4-2.8c-0.7,0-1.5-0.1-2.2-0.1c-1.7-0.1-5.3-0.3-8.2-0.3c-1.4,0-2.4,0-3,0.1l-0.4,0.1l0.1,0.4
			c0.3,0.5,0.9,2,1.2,2.8l0.2,0.4c4.9,11.4,2,18.6-5.1,27.7l0,0l-0.2,0.2c-1.9,2.8-2.7,4-3.6,5.1c-0.9,1.2-1.7,2.3-3.7,5.2
			c-0.9,1.4-1.8,2.8-2.7,4.3c-2.6,4.1-5.3,8.3-8.5,11.9l-0.2,0.2l0.1,0.1c0,0.1-0.1,0.1-0.1,0.2c-0.1,0.2-0.3,0.4-0.4,0.6l-0.1,0.1
			c-1.6,1.8-2.9,3.6-3.8,5.3c-2.8,3.7-5.6,8.5-5.2,15.3l0.1,2.4c0.9,15.5,2,33.1-3.6,47.9c-0.1,0.3-0.4,0.4-0.7,0.4
			c-0.2,0-0.4-0.1-0.5-0.2c-0.1-0.1-0.1-0.2-0.1-0.4c1.6-10,2.9-19.1,2.9-28.7c0-3.4-0.3-6.9-0.5-10.4c-0.4-5.8-0.9-11.8-0.1-17.5
			c0.7-4.7,3.9-9.1,7-12.7l0,0V231c1.2-1.6,2.3-3.2,3.4-4.8c1.6-2.2,3.2-4.5,4.9-6.7c1.3-2.1,2.5-4,3.5-5.6
			c3.9-6.3,6.3-10.1,12.3-17.4c0.1-0.1,0.3-0.2,0.4-0.3h0.1l0.1-0.1c2.7-3.8,3.4-6.3,3.4-11.5c0-2.4-0.4-6.1-1.3-9.3
			c-1.1-3.6-2.8-5.5-4.8-5.5c-1.6,0-3.3,1.1-5.1,3.4c-1.8,2.1-1.7,2.1-1.6,2.4v0.1c-0.2,0.3-0.6,0.8-1.2,1.5
			c-2.1,2.6-4.1,5.2-6.1,7.6c-5.2,6.4-9.7,12-16,19.1c-0.1,0.1-0.2,0.2-0.4,0.2c-0.2,0-0.5-0.1-0.6-0.4c-0.1-0.1-0.2-0.3-0.1-0.5
			l0.2-0.4L2.7,202.7z"/>
		<path d="M70.2,191.6c-0.1,0-0.2,0-0.3-0.1c-4.3-1.6-7.6-2.1-11-2.5c-1.7-0.2-3.5-0.5-5.5-0.8c-0.8-0.1-0.8-0.8-0.7-1
			c0.1-0.6,0.5-1.2,1.1-1.2c0.1,0,0.2,0,0.3,0c1.9,0.5,4,0.7,5.9,0.9c4.3,0.4,8.4,0.8,11,4.1c0.1,0.1,0.1,0.1,0,0.2
			C71,191.4,70.6,191.6,70.2,191.6L70.2,191.6z"/>
		<path d="M33.9,249.8c-3-0.2-6.1-0.5-9.1-0.8c-4.1-0.4-8.4-0.9-12.6-0.9h-0.4c-0.7,0-1-0.5-1-1c0-0.6,0.4-1.2,1.1-1.3
			c1.2-0.1,2.5-0.1,3.6-0.1c7.6,0,13.8,1.2,18.6,3.4c0.1,0.1,0.1,0.2,0.1,0.3C34.2,249.7,34.1,249.8,33.9,249.8L33.9,249.8z"/>
		<path d="M22.2,286.8c-3.6,0-6.8-0.4-9.6-1.1c-0.3-0.1-0.5-0.4-0.4-0.7c0-0.2,0.1-0.4,0.5-0.4c1.9-0.1,3.8-0.1,5.6-0.1
			c4.3-0.1,8.6-0.2,13-0.7c0.1,0,0.1,0,0.2,0c0.6,0,1,0.5,1,1c0,0.6-0.3,1.2-1,1.3C28.2,286.5,25.1,286.8,22.2,286.8L22.2,286.8z"/>
		<path d="M151.3,338.4c-0.6,0-1.2-0.1-2-0.2c-0.8-0.2-1.4-0.3-1.9-0.3c-1.7-0.3-2.5-0.4-4.5-2.1c-4.3-3.6-6-6-9-10.4l-0.4-0.6
			c-0.9-1.3-2.3-2.8-3.6-4.3c-1.4-1.5-2.8-3.1-3.7-4.4l-0.2-0.2l-2.4-0.1c-6.8-0.4-12.2-0.7-18.5-0.7c-1.4,0-2.9,0-4.4,0.1l0,0
			c-0.4,0-0.8-0.2-1-0.4c-0.2-0.2-0.3-0.4-0.3-0.8c0.2-38.5,0.7-84.8,2.8-135.6v-0.3l-1.4-0.1c-0.4,0-0.4-0.5-0.4-0.6
			c0-0.3,0.2-0.6,0.6-0.6h1.3l0.1-0.2c0.1-0.3,0.4-0.3,0.6-0.3c0.1,0,0.4,0,0.5,0.3l0.1,0.2h2.2c16.2,0,35.2,0.3,53.6,2.6
			c0.6,0.1,0.9,0.7,1,1.2c0.9,9,0.9,17.2,0.9,26c0,2.6,0,5.2,0,7.9c0,2.6,0.1,6.1,0.2,10c0.3,12.2,0.7,28.8-0.3,37.4v0.1l18.1,21.6
			c8.4,9.9,19.8,23.5,15.8,37.3c-1.7,5.8-6.5,9.8-13.9,11.5c-3.7,0.8-6.4,1.1-8.8,1.4c-3.1,0.3-5.7,0.6-9.8,1.9
			c-1.6,0.9-6.4,2.1-7.3,2.3v-0.1l-0.9,0.2C153,338.2,152.2,338.4,151.3,338.4z M129,315.6c2.3,3.3,4.3,5.8,6.5,8.5
			c1.8,2.2,3.7,4.5,5.7,7.3c2.5,3.5,5.6,4.2,9.4,4.2c0.6,0,1.3,0,2-0.1h0.1l0.1-0.1c0,0,0.2-0.1,0.7-0.1h0.5c0.2,0,0.3,0,0.4,0
			c3.4-0.5,5.9-6.8,6.5-9c0.1-0.5,0.3-1,0.4-1.4c0.5-1.8,0.9-3,0.4-5.3c-0.5-2-1.4-3.7-2.3-5.3c-0.7-1.3-1.4-2.6-1.9-4
			c-1.6-2.6-2.2-3.4-3.5-4.9c-0.4-0.5-1-1.1-1.6-1.9c-2.1-2.5-4.2-5-6.5-7.6c-10.4-12.1-21.2-24.6-24.5-39.9
			c-1.5-6.7-1.6-13.9-1.8-20.8c-0.2-10.8-0.5-21.9-5.7-31.8l-0.6,0.2c1.4,26.6,1.3,55.4-0.1,90.8v0.3h0.3c1.9,0.4,3.4,1.4,4.8,3.1
			c1.7,2.2,2.6,3.9,3.6,5.8c0.8,1.4,1.5,2.9,2.8,4.7c0.4,0.6,0.9,1.5,1.3,2.4c0.4,0.9,0.9,1.9,1.4,2.5l0.1,0.1h0.1
			c0.1,0.2,0.2,0.4,0.3,0.5c0.2,0.4,0.4,0.7,0.6,1.1C128.5,315.1,128.7,315.3,129,315.6L129,315.6z M114.6,200.2
			c0.4,0,0.7,0.2,0.9,0.6c6,10.3,6.2,21.9,6.5,33c0.2,8,0.4,16.2,2.6,24c3.7,12.9,11.5,21.7,19.8,31c5.5,6.1,11.1,12.4,15.4,20
			l0.5,0.8c4,6.9,6.2,10.8,3.5,18.7c-0.5,1.5-1.2,2.9-2.1,4.2l-0.6,0.9l1-0.4c3.4-1.5,7.7-2.2,11.8-2.8c10.1-1.6,20.6-3.3,18.9-16.5
			c-0.9-7.4-4.2-14.8-9.2-20.9c-3.4-4.1-6.8-8.1-10.2-12.2l-4.5-5.4c-1.6-1.9-3.2-3.7-4.8-5.6c-3.4-3.8-6.9-7.8-9.8-12
			c-3.8-5.3-3.9-10.8-4.1-17.1v-0.3c-0.1-2.3,0-4.9,0-7.6c0.2-13.2,0.4-29.7-9.8-37.2c-0.1-0.1-0.2-0.2-0.2-0.3
			c0-0.2,0.1-0.3,0.3-0.5l0.7-0.5H140c-2.3,0-4.5,0-6.8,0.1c-2.3,0-4.6,0.1-6.9,0.1c-5.3,0-9.2-0.2-12.9-0.6H113v0.4
			c0.1,0.8,0.1,2.2,0.2,3.5c0,1.2,0.1,2.3,0.1,3v0.6l0.5-0.4C114,200.4,114.3,200.2,114.6,200.2z M103.4,178.5
			c-0.2,16.6-0.4,32.8-0.6,48.8c-0.3,27.5-0.7,55.9-0.8,84.8v0.3h0.3c4.5,0.4,8.6,0.5,12.6,0.6c2.8,0.1,5.8,0.1,8.8,0.3h0.6
			l-0.3-0.5c-0.4-0.6-0.9-1.5-1.3-2.4s-0.9-1.8-1.3-2.4c-0.6-0.8-1.1-2-1.7-3.2c-1.8-3.5-4-7.9-7.7-7.9h-0.1c-0.4,0-0.8-0.2-1.1-0.5
			c-0.1-0.1-0.3-0.4-0.3-0.7c1.4-32.7,1.3-67,1.1-100.2v-2.3l-0.1-0.1c-0.2-0.2-0.2-0.7,0-1l0.1-0.1v-0.4c0-0.2,0-0.3,0.1-0.4
			c0.1-0.1,0.3-0.2,0.4-0.2c0.2,0,0.5,0.1,0.5,0.5v0.3l0.3,0.1c3.7-0.2,7.5-0.3,11.5-0.3c6.9,0,14.3,0.3,22,0.9
			c0.7,0.1,0.9,0.7,0.9,0.9v0.5l-0.3,0.4c-0.1,0.2-0.4,0.5-0.8,0.5l0,0c-0.9,0-1.7-0.2-2.5-0.5c-0.9-0.2-1.7-0.5-2.6-0.5l0,0
			l-0.1,0.6c2.4,1.2,4.4,2.8,6,4.9l0.5-0.2V199c0-0.4,0-0.8,0.1-1.1c0-0.8,0.1-1.3,0.2-2.4c0-0.4,0-0.7,0-1v-0.7l0.2-0.2
			c0.1-0.1,0.3-0.2,0.6-0.2c0.4,0,0.9,0.3,1,0.8v0.3c0.2,1,0.2,1.3,0.1,2.4c0.1,2,0,3.6-0.1,5c0,0.2-0.1,0.4-0.3,0.5l-0.3,0.1
			l0.1,0.3c3.4,7.1,3.4,18.3,3.4,27.3c0,2.3,0,4.4,0,6.2c0,1.2,0,2.4,0,3.7c-0.1,3.7-0.1,7.6,1,10.8c1,2.9,2.8,5.3,4.6,7.5l0.5,0.6
			v-0.8c0.2-12,0.1-34.7-0.2-45.6c-0.1-3.2-0.1-6.4-0.1-9.4c0-7.1,0-13.9-0.7-21.3v-0.2h-0.2c-9.5-1.2-19.1-1.5-28.4-1.9
			c-8.3-0.3-16.9-0.7-25.3-1.5h-0.3L103.4,178.5z"/>
		<path d="M166.1,307.9c-0.6,0-0.8-0.4-0.9-0.8c-0.1-0.5,0.1-1.1,0.8-1.3c0.9-0.3,2-0.4,3.4-0.4c0.9,0,1.9,0.1,2.8,0.1
			c0.9,0,1.9,0.1,2.8,0.1c1.3,0,2.3-0.1,3.1-0.3c1.6-0.4,3.2-0.6,4.8-0.6c1,0,2,0.1,3,0.2c0.1,0,0.1,0.1,0.1,0.1v0.1
			c-1.3,1.1-2.9,1.3-4.7,1.5c-1,0.1-2,0.2-3,0.5c-1.4,0.4-3,0.5-4.4,0.5c-0.6,0-1.2,0-1.8,0s-1.2,0-1.8,0c-1.2,0-2.7,0-4.1,0.4
			C166.3,307.9,166.2,307.9,166.1,307.9z"/>
		<path d="M133.5,251.7c-1.2,0-2.5,0-3.6-0.1c-0.7,0-1.1-0.6-1.1-1c0-0.4,0.2-1,1-1.1c2.9-0.4,6.1-0.6,9.5-0.6
			c2.3,0,4.5,0.1,6.6,0.3c0.4,0,0.5,0.3,0.6,0.5c0,0.4-0.3,0.9-0.7,1C141.9,251.4,137.5,251.7,133.5,251.7z"/>
		<path d="M270.5,340.4c-0.6,0-1.2-0.1-2-0.2c-0.8-0.2-1.4-0.3-1.9-0.3c-1.7-0.3-2.5-0.4-4.5-2.1c-4.3-3.6-6-6-9-10.4l-0.4-0.6
			c-0.9-1.3-2.3-2.8-3.6-4.3c-1.4-1.5-2.8-3.1-3.7-4.4l-0.1-0.1l-2.4-0.1c-6.8-0.4-12.2-0.7-18.5-0.7c-1.4,0-2.9,0-4.4,0.1l0,0
			c-0.4,0-0.8-0.2-1-0.4s-0.3-0.4-0.3-0.8c0.2-38.5,0.7-84.8,2.8-135.6v-0.3l-1.4-0.1c-0.4,0-0.4-0.5-0.4-0.6c0-0.3,0.2-0.6,0.6-0.6
			h1.3l0.1-0.2c0.1-0.3,0.4-0.3,0.6-0.3c0.1,0,0.4,0,0.5,0.3l0.1,0.2h2.2c16.2,0,35.2,0.3,53.6,2.6c0.6,0.1,0.9,0.7,1,1.2
			c0.8,9,0.9,17.2,0.9,26c0,2.6,0,5.2,0,7.9c0,2.6,0.1,6.1,0.2,10c0.3,12.2,0.7,28.8-0.3,37.4v0.1l18.1,21.6
			c8.4,9.9,19.8,23.5,15.8,37.3c-1.7,5.8-6.5,9.8-13.9,11.5c-3.7,0.8-6.4,1.1-8.8,1.4c-3.1,0.3-5.7,0.6-9.8,1.9
			c-1.6,0.9-6.4,2.1-7.3,2.3V340l-0.9,0.2C272.2,340.2,271.4,340.4,270.5,340.4z M248.1,317.6c2.3,3.3,4.3,5.8,6.5,8.5
			c1.8,2.2,3.7,4.5,5.7,7.3c2.5,3.5,5.6,4.2,9.4,4.2c0.6,0,1.3,0,2-0.1h0.1l0.1-0.1c0,0,0.2-0.1,0.7-0.1h0.5c0.2,0,0.3,0,0.4,0
			c3.4-0.5,5.9-6.8,6.5-9c0.1-0.5,0.3-1,0.4-1.4c0.5-1.8,0.9-3,0.4-5.3c-0.5-2-1.4-3.7-2.3-5.3c-0.7-1.3-1.4-2.6-1.9-4
			c-1.6-2.6-2.2-3.4-3.5-4.9c-0.4-0.5-1-1.1-1.6-1.9c-2.1-2.5-4.2-5-6.5-7.6c-10.4-12.1-21.2-24.6-24.5-39.9
			c-1.5-6.7-1.6-13.9-1.8-20.8c-0.2-10.8-0.5-21.9-5.7-31.8l-0.6,0.2c1.4,26.6,1.3,55.4-0.1,90.8v0.3h0.3c1.9,0.4,3.4,1.4,4.8,3.1
			c1.7,2.2,2.6,3.9,3.6,5.8c0.8,1.4,1.5,2.9,2.8,4.7c0.4,0.6,0.9,1.5,1.3,2.4c0.4,0.9,0.9,1.9,1.4,2.5l0.1,0.1h0.1
			c0.1,0.2,0.2,0.4,0.3,0.5c0.2,0.4,0.4,0.7,0.6,1.1C247.7,317.1,247.9,317.3,248.1,317.6L248.1,317.6z M233.8,202.2
			c0.4,0,0.7,0.2,0.9,0.6c6,10.3,6.2,21.9,6.5,33c0.2,8,0.4,16.2,2.6,24c3.7,12.9,11.5,21.7,19.8,31c5.5,6.1,11.1,12.4,15.4,20
			l0.5,0.8c4,6.9,6.2,10.8,3.5,18.7c-0.5,1.5-1.2,2.9-2.1,4.2l-0.6,0.9l1-0.4c3.4-1.5,7.7-2.2,11.8-2.8c10.1-1.6,20.6-3.3,18.9-16.5
			c-0.9-7.4-4.2-14.8-9.2-20.9c-3.4-4.1-6.8-8.1-10.2-12.2l-4.5-5.4c-1.6-1.9-3.2-3.7-4.8-5.6c-3.4-3.8-6.9-7.8-9.8-12
			c-3.8-5.3-3.9-10.8-4.1-17.1v-0.3c-0.1-2.3,0-4.9,0-7.6c0.2-13.2,0.4-29.7-9.8-37.2c-0.1-0.1-0.2-0.2-0.2-0.3
			c0-0.2,0.1-0.3,0.3-0.5l0.7-0.5h-1.2c-2.3,0-4.5,0-6.8,0.1c-2.3,0-4.6,0.1-6.9,0.1c-5.3,0-9.2-0.2-12.9-0.6h-0.4v0.4
			c0.1,0.8,0.1,2.2,0.2,3.5c0,1.2,0.1,2.3,0.1,3v0.6l0.5-0.4C233.1,202.4,233.5,202.2,233.8,202.2z M222.6,180.5
			c-0.2,16.6-0.4,32.8-0.6,48.8c-0.3,27.5-0.7,55.9-0.8,84.8v0.3h0.3c4.5,0.4,8.6,0.5,12.6,0.6c2.8,0.1,5.8,0.1,8.8,0.3h0.6
			l-0.3-0.5c-0.4-0.6-0.9-1.5-1.3-2.4s-0.9-1.8-1.3-2.4c-0.6-0.8-1.1-2-1.7-3.2c-1.8-3.5-4-7.9-7.7-7.9h-0.1c-0.4,0-0.8-0.2-1.1-0.5
			c-0.1-0.1-0.3-0.4-0.3-0.7c1.4-32.7,1.3-67,1.1-100.1v-2.4l-0.1-0.1c-0.2-0.2-0.2-0.7,0-1l0.1-0.1v-0.4c0-0.2,0-0.3,0.1-0.4
			s0.3-0.2,0.4-0.2c0.2,0,0.5,0.1,0.5,0.5v0.3l0.3,0.1c3.7-0.2,7.5-0.3,11.5-0.3c6.9,0,14.3,0.3,22,0.9c0.7,0.1,0.9,0.7,0.9,0.9v0.5
			l-0.3,0.4c-0.1,0.2-0.4,0.5-0.8,0.5l0,0c-0.9,0-1.7-0.2-2.5-0.5c-0.9-0.2-1.7-0.5-2.6-0.5l0,0l-0.1,0.6c2.4,1.2,4.4,2.8,6,4.9
			l0.5-0.2V201c0-0.4,0-0.8,0.1-1.1c0-0.8,0.1-1.3,0.2-2.4c0-0.4,0-0.7,0-1v-0.7l0.2-0.2c0.1-0.1,0.3-0.2,0.6-0.2
			c0.4,0,0.9,0.3,1,0.8l0.1,0.3c0.2,1,0.2,1.3,0.1,2.4c0.1,2,0,3.6-0.1,5c0,0.2-0.1,0.4-0.3,0.5l-0.3,0.1l0.1,0.3
			c3.4,7.1,3.4,18.3,3.4,27.3c0,2.3,0,4.4,0,6.2c0,1.2,0,2.4,0,3.7c-0.1,3.7-0.1,7.6,1,10.8c1,2.9,2.8,5.3,4.6,7.5l0.5,0.6v-0.8
			c0.2-12.1,0.1-34.7-0.1-45.6c-0.1-3.2-0.1-6.4-0.1-9.4c0-7.2,0-13.9-0.7-21.3v-0.2h-0.2c-9.5-1.2-19.1-1.5-28.4-1.9
			c-8.3-0.3-16.9-0.7-25.3-1.5h-0.3L222.6,180.5z"/>
		<path d="M285.3,309.9c-0.6,0-0.8-0.4-0.9-0.8c-0.1-0.5,0.1-1.1,0.8-1.3c0.9-0.3,2-0.4,3.4-0.4c0.9,0,1.9,0.1,2.8,0.1
			s1.9,0.1,2.8,0.1c1.3,0,2.3-0.1,3.1-0.3c1.6-0.4,3.2-0.6,4.8-0.6c1,0,2,0.1,3,0.2c0.1,0,0.1,0.1,0.1,0.1v0.1
			c-1.3,1.1-2.9,1.3-4.7,1.5c-1,0.1-2,0.2-3,0.5c-1.4,0.4-3,0.5-4.4,0.5c-0.6,0-1.2,0-1.8,0c-0.6,0-1.2,0-1.8,0
			c-1.2,0-2.7,0-4.1,0.4C285.5,309.9,285.4,309.9,285.3,309.9z"/>
		<path d="M252.7,253.7c-1.2,0-2.5,0-3.6-0.1c-0.7,0-1.1-0.6-1.1-1c0-0.4,0.2-1,1-1.1c2.9-0.4,6.1-0.6,9.5-0.6
			c2.3,0,4.5,0.1,6.6,0.3c0.4,0,0.5,0.3,0.6,0.5c0,0.4-0.3,0.9-0.7,1C261.1,253.4,256.7,253.7,252.7,253.7z"/>
		<path d="M388.6,339.8c-0.6,0-1.2-0.1-2-0.2c-0.7-0.2-1.3-0.3-1.9-0.3c-1.7-0.3-2.4-0.4-4.4-2c-4.2-3.5-5.9-5.9-8.9-10.2l-0.4-0.6
			c-0.9-1.3-2.1-2.7-3.4-4c-1.3-1.4-2.6-2.8-3.4-4.1l-0.1-0.1H364c-2.8-0.2-5.4-0.4-7.9-0.6c-4.9-0.4-9.5-0.7-14.6-0.7
			c-0.8,0-1.7,0-2.6,0l0,0c-0.4,0-0.8-0.2-1-0.4c-0.1-0.1-0.3-0.4-0.3-0.8c0.2-37.9,0.7-83.4,2.7-133.3v-0.3l-1.3-0.3
			c-0.4,0-0.4-0.5-0.4-0.6c0-0.3,0.2-0.6,0.5-0.6h1.3l0.1-0.2c0.1-0.2,0.4-0.3,0.6-0.3c0.1,0,0.4,0,0.4,0.3l0.1,0.2h2.2
			c16.8,0,34.8,0.3,52.6,2.6c0.5,0.1,0.9,0.6,1,1.2c0.8,8.8,0.8,17,0.9,25.6c0,2.6,0,5.1,0,7.8c0,2.6,0.1,6,0.2,9.9
			c0.3,12,0.7,28.4-0.3,36.8v0.1l17.8,21.2c8.2,9.7,19.5,23.1,15.5,36.7c-1.7,5.7-6.4,9.6-13.6,11.3c-3.7,0.8-6.3,1.1-8.6,1.4
			c-3,0.3-5.7,0.6-9.6,1.9c-1.5,0.8-6.3,2.1-7.1,2.2v-0.1l-0.8,0.2C390.3,339.6,389.5,339.8,388.6,339.8z M366.6,317.3
			c2.2,3.3,4.3,5.7,6.4,8.3c1.8,2.2,3.7,4.4,5.6,7.2c2.4,3.4,5.5,4.1,9.3,4.1c0.6,0,1.3,0,1.9-0.1h0.1l0.1-0.1c0,0,0.2-0.1,0.7-0.1
			h0.5c0.2,0,0.3,0,0.4,0c3.4-0.5,5.8-6.7,6.4-8.9c0.1-0.5,0.3-1,0.4-1.4c0.5-1.7,0.9-3,0.4-5.2c-0.5-2-1.4-3.6-2.2-5.2
			c-0.7-1.2-1.4-2.5-1.9-4c-1.5-2.6-2.2-3.4-3.5-4.9c-0.4-0.5-0.9-1.1-1.6-1.9c-2-2.5-4.1-4.9-6.4-7.5
			c-10.3-11.9-20.9-24.2-24.1-39.2c-1.5-6.6-1.6-13.7-1.7-20.4c-0.2-10.6-0.4-21.5-5.6-31.3l-0.6,0.2c1.4,26.1,1.3,54.5-0.1,89.3
			v0.3h0.3c1.8,0.3,3.4,1.4,4.7,3.1c1.7,2.2,2.6,3.9,3.5,5.7c0.7,1.4,1.5,2.8,2.7,4.6c0.4,0.6,0.9,1.5,1.3,2.4s0.9,1.8,1.3,2.5
			l0.1,0.1h0.1c0.1,0.2,0.2,0.4,0.3,0.5c0.2,0.4,0.4,0.7,0.6,1.1C366.2,316.8,366.4,317.1,366.6,317.3L366.6,317.3z M352.5,203.8
			c0.4,0,0.7,0.2,0.9,0.6c5.9,10.1,6.1,21.5,6.4,32.5c0.2,7.8,0.3,15.9,2.5,23.7c3.6,12.7,11.3,21.4,19.5,30.5
			c5.4,6,10.9,12.2,15.2,19.6l0.5,0.8c3.9,6.8,6.1,10.6,3.5,18.4c-0.5,1.4-1.2,2.8-2.1,4.1l-0.6,0.9l1-0.4c3.3-1.5,7.5-2.1,11.6-2.8
			c9.9-1.6,20.2-3.2,18.6-16.3c-0.9-7.3-4.2-14.6-9.1-20.6c-3.3-4-6.7-8-10-12l-4.4-5.3c-1.5-1.8-3.2-3.7-4.7-5.5
			c-3.3-3.8-6.7-7.7-9.7-11.8c-3.7-5.2-3.9-10.6-4-16.8v-0.3c-0.1-2.3,0-4.8,0-7.4c0.2-13,0.4-29.2-9.6-36.6
			c-0.1-0.1-0.2-0.2-0.2-0.3c0-0.2,0.1-0.3,0.2-0.4l0.7-0.5h-1.2c-2.2,0-4.5,0-6.7,0.1c-2.3,0-4.5,0.1-6.8,0.1
			c-5.2,0-9.1-0.2-12.7-0.6h-0.4v0.4c0.1,0.8,0.1,2.2,0.2,3.5c0,1.1,0.1,2.3,0.1,3v0.6l0.5-0.4C351.9,204,352.2,203.8,352.5,203.8z
			 M341.5,182.5c-0.2,16.4-0.4,32.3-0.6,48.1c-0.3,27.9-0.7,54.3-0.8,82.7v0.3h0.3c4.3,0.2,8.2,0.5,12,0.9c2.9,0.2,5.9,0.5,9.1,0.7
			h0.6l-0.3-0.5c-0.4-0.6-0.8-1.5-1.3-2.4c-0.4-0.9-0.8-1.7-1.3-2.4c-0.6-0.8-1.1-1.9-1.7-3.1c-1.7-3.5-3.9-7.8-7.6-7.8h-0.1
			c-0.4,0-0.8-0.2-1-0.4c-0.1-0.1-0.3-0.4-0.3-0.7c1.4-32.2,1.2-65.9,1.1-98.5v-2.3l-0.1-0.1c-0.2-0.2-0.2-0.7,0-1l0.1-0.1v-0.4
			c0-0.2,0-0.3,0.1-0.4c0.1-0.1,0.3-0.2,0.4-0.2c0.2,0,0.5,0.1,0.5,0.5v0.3h0.3c3.6-0.2,7.4-0.3,11.3-0.3c6.8,0,14.1,0.3,21.6,0.9
			c0.7,0.1,0.8,0.7,0.9,0.9v0.5l-0.3,0.4c-0.1,0.2-0.4,0.5-0.8,0.5l0,0c-0.9,0-1.6-0.2-2.5-0.5c-0.8-0.2-1.7-0.5-2.6-0.5l0,0
			l-0.1,0.6c2.3,1.1,4.3,2.7,5.9,4.8l0.5-0.2v-0.1c0-0.4,0-0.8,0.1-1.1c0-0.8,0.1-1.3,0.2-2.3c0-0.3,0-0.7,0-1v-0.7l0.2-0.2
			c0.1-0.1,0.3-0.2,0.6-0.2c0.4,0,0.9,0.2,1,0.8v0.3c0.2,1,0.2,1.3,0.1,2.4c0.1,2,0,3.5-0.1,4.9c0,0.2-0.1,0.4-0.3,0.5l-0.3,0.1
			l0.1,0.3c3.4,7,3.3,18,3.3,26.8c0,2.2,0,4.3,0,6.1c0,1.2,0,2.4,0,3.6c-0.1,3.7-0.1,7.5,1,10.7c1,2.9,2.8,5.3,4.5,7.4l0.5,0.6v-0.8
			c0.2-11.8,0.1-34.1-0.1-44.9c-0.1-3.2-0.1-6.3-0.1-9.3c0-7,0-13.7-0.7-21v-0.2h-0.2c-9.3-1.2-18.8-1.5-28-1.9
			c-8.2-0.3-16.6-0.6-24.9-1.5h-0.3L341.5,182.5z"/>
		<path d="M403.2,309.7c-0.5,0-0.8-0.4-0.9-0.8c-0.1-0.5,0.1-1.1,0.8-1.3c0.9-0.3,1.9-0.4,3.3-0.4c0.9,0,1.8,0,2.8,0.1
			c0.9,0,1.9,0.1,2.8,0.1c1.3,0,2.3-0.1,3.1-0.3c1.6-0.4,3.2-0.6,4.8-0.6c1,0,2,0.1,2.9,0.2c0.1,0,0.1,0.1,0.1,0.1
			c-1.3,1.2-2.9,1.4-4.6,1.6c-1,0.1-2,0.2-2.9,0.5c-1.3,0.4-2.9,0.5-4.3,0.5l0,0c-0.6,0-1.2,0-1.8,0c-0.6,0-1.2,0-1.8,0
			c-1.2,0-2.7,0-4,0.4C403.4,309.7,403.3,309.7,403.2,309.7z"/>
		<path d="M371.1,254.5c-1.2,0-2.4,0-3.5-0.1c-0.7,0-1.1-0.5-1.1-1c0-0.4,0.2-0.9,1-1c2.8-0.4,6-0.6,9.3-0.6c2.2,0,4.4,0.1,6.5,0.3
			c0.4,0,0.5,0.3,0.5,0.5c0,0.4-0.3,0.9-0.7,1C379.3,254.1,375.1,254.5,371.1,254.5z"/>
		<path d="M390.8,523.7c-0.6,0-1.2-0.1-1.9-0.2c-0.7-0.2-1.3-0.2-1.8-0.3c-2.5-0.4-2.9-0.5-8.6-5.9c-1.6-1.5-3-3.4-4.3-5.8
			c-0.7-1.4-2.4-3.2-4-5c-1.3-1.5-2.7-3-3.5-4.2l-0.1-0.1h-0.1c-1.3-0.1-2.5-0.1-3.9-0.1c-3.8,0-7.1,0.3-10.6,0.6
			c-3,0.3-6.1,0.6-9.5,0.6l0,0c-0.4,0-0.7-0.1-1-0.4c-0.1-0.1-0.3-0.4-0.3-0.7c0.2-35.8,0.7-83.1,2.7-131.8v-0.2l-0.6-0.4l-0.2,0.1
			c-0.2,0.1-0.3,0.1-0.5,0.1c-0.5,0-0.5-0.4-0.5-0.5c0-0.3,0.1-0.6,0.5-0.6h1.2l0.1-0.2c0.1-0.2,0.4-0.3,0.5-0.3s0.3,0,0.4,0.3
			l0.1,0.2h0.2c5.2,0,10.6-0.2,15.7-0.3c5.3-0.1,10.8-0.3,16.2-0.3c8.3,0,15,0.4,21.3,1.2c0.5,0.1,0.9,0.6,0.9,1.1
			c0.8,8.6,0.8,16.1,0.8,24c0,2.4,0,4.9,0,7.5c0,2.4,0.1,5.8,0.2,9.6c0.3,12.8,0.7,30.4-0.3,38.7v0.1l17.3,20.7
			c8,9.5,18.9,22.5,15.1,35.7c-1.6,5.6-6.2,9.4-13.3,11c-3.6,0.8-6.1,1.1-8.4,1.3c-3,0.3-5.5,0.6-9.4,1.8c-1.5,0.8-6.1,2-6.9,2.2
			v-0.1l-0.8,0.2C392.5,523.5,391.7,523.7,390.8,523.7z M369.4,501.9c2.2,3.2,4.1,5.6,6.2,8.1c1.8,2.1,3.6,4.3,5.5,7
			c2.4,3.3,5.3,4,9,4c0.6,0,1.2,0,1.9-0.1h0.1l0.1-0.1c0,0,0.1-0.1,0.7-0.1h0.4c0.2,0,0.3,0,0.4,0c3.3-0.5,5.7-6.5,6.2-8.6
			c0.1-0.5,0.3-1,0.4-1.4c0.5-1.7,0.9-2.9,0.4-5.1c-0.5-1.9-1.3-3.5-2.2-5.1c-0.6-1.2-1.3-2.5-1.8-3.9c-1.5-2.5-2.1-3.3-3.4-4.7
			c-0.4-0.5-0.9-1.1-1.5-1.8c-2-2.4-4-4.8-6.2-7.3c-10-11.6-20.3-23.6-23.5-38.2c-1.4-6.5-1.6-13.3-1.7-19.9
			c-0.2-10.3-0.4-21-5.5-30.4l-0.6,0.2c1.3,25.4,1.3,53.1-0.1,87v0.3h0.3c1.8,0.3,3.3,1.3,4.6,3c1.6,2.1,2.5,3.8,3.4,5.5
			c0.7,1.4,1.5,2.8,2.6,4.5c0.4,0.6,0.8,1.5,1.2,2.3c0.4,0.9,0.9,1.8,1.3,2.4l0.1,0.1h0.1c0.1,0.2,0.2,0.3,0.3,0.5
			c0.2,0.3,0.4,0.7,0.6,1C369.1,501.4,369.2,501.6,369.4,501.9L369.4,501.9z M355.7,391.4c0.4,0,0.7,0.2,0.9,0.6
			c5.7,9.9,6,20.9,6.2,31.6c0.2,7.6,0.3,15.5,2.5,23c3.5,12.4,11,20.8,19,29.7c5.2,5.8,10.6,11.8,14.8,19.1l0.5,0.8
			c3.8,6.6,5.9,10.3,3.4,17.9c-0.5,1.4-1.2,2.7-2,4l-0.6,0.9l1-0.4c3.2-1.4,7.3-2.1,11.3-2.7c9.7-1.5,19.7-3.1,18.1-15.9
			c-0.9-7.1-4.1-14.2-8.9-20c-3.3-4-6.6-7.9-10-11.9l-4.2-4.9c-1.5-1.8-3.1-3.6-4.6-5.3c-3.2-3.7-6.6-7.5-9.4-11.5
			c-3.6-5.1-3.8-10.3-3.9-16.4v-0.3c-0.1-2.2,0-4.7,0-7.3c0.2-13.1,0.4-29.4-9.4-36.6c-0.1-0.1-0.2-0.2-0.2-0.3
			c0-0.1,0.1-0.3,0.2-0.4l0.7-0.5H380c-3.8,0-7.3,0.1-11,0.2c-3.9,0.1-7.9,0.3-12.6,0.3c-0.6,0-2.2,0-2.2,0v0.3
			c0,0.8,0.1,2.1,0.1,3.4c0,1.1,0.1,2.2,0.1,2.9v0.6l0.5-0.4C355.1,391.5,355.4,391.4,355.7,391.4z M345,370.6
			c-0.2,15.7-0.3,31.2-0.5,46.7c-0.3,26.8-0.7,54.4-0.8,82.3v0.3h0.3c3.3-0.1,5.9-0.1,8.1-0.1c3.9,0,7,0,12.1-0.6l0.5-0.1l-0.3-0.4
			c-0.4-0.6-0.7-1.3-1-2s-0.6-1.4-1-2c-0.5-0.8-1.1-1.9-1.7-3c-1.7-3.4-3.8-7.6-7.4-7.6h-0.1c-0.4,0-0.8-0.2-1-0.4
			c-0.1-0.1-0.3-0.4-0.3-0.7c1.3-31.3,1.2-64.1,1.1-95.8v-2.3l-0.1-0.1c-0.2-0.2-0.2-0.7,0-0.9l0.1-0.1v-0.1c0-0.1,0-0.4,0.1-0.8
			c0-0.4,0.1-0.9,0.1-0.9c0-0.2,0-0.3,0.1-0.4c0.1-0.1,0.2-0.2,0.4-0.2c0.2,0,0.5,0.1,0.5,0.5v0.3h0.3c3.7-0.2,7.7-0.3,12-0.3
			c4.7,0,9.6,0.1,14.6,0.2c1.7,0,3.5,0.1,5.3,0.1c0.7,0,0.8,0.7,0.8,0.9v0.5l-0.2,0.3c-0.1,0.2-0.4,0.4-0.8,0.5
			c-1.6,0-3.3,0.1-5,0.1l-0.1,0.6c0.4,0.2,0.8,0.4,1.2,0.6c1.9,0.9,3.3,1.6,4.5,3.1l0.5-0.2v-0.1c0-0.4,0-0.8,0.1-1.1
			c0-0.8,0.1-1.3,0.2-2.3c0-0.3,0-0.6,0-0.9v-0.6l0.2-0.2c0.1-0.1,0.3-0.2,0.5-0.2c0.4,0,0.9,0.2,1,0.8v0.3c0.2,0.9,0.2,1.2,0.1,2.3
			c0.1,2,0,3.4-0.1,4.8c0,0.2-0.1,0.4-0.3,0.4l-0.3,0.1l0.1,0.3c3.3,6.8,3.2,19,3.2,27.9c0,2.3,0,4.4,0,6.2c0,1.1,0,2.3,0,3.5
			c-0.1,3.6-0.1,7.3,1,10.4c1,2.8,2.7,5.1,4.4,7.2l0.5,0.6v-0.8c0.2-11.7,0.1-35.9-0.1-46.6c-0.1-3.1-0.1-6-0.1-8.8
			c0-6.5,0-12.6-0.7-19.7v-0.2h-0.2c-5-0.6-10.2-0.9-17.1-0.9c-3.2,0-6.4,0.1-9.6,0.1c-3.1,0.1-6.4,0.1-9.5,0.1
			c-6,0-10.9-0.2-15.3-0.7L345,370.6L345,370.6z"/>
		<path d="M405.1,494.5c-0.5,0-0.8-0.4-0.8-0.8c-0.1-0.5,0.1-1.1,0.8-1.3c0.8-0.3,1.9-0.4,3.3-0.4c0.9,0,1.8,0,2.7,0.1
			c0.9,0,1.8,0.1,2.7,0.1c1.2,0,2.2-0.1,3-0.3c1.5-0.4,3.1-0.6,4.6-0.6c0.9,0,1.9,0.1,2.9,0.2c0.1,0,0.1,0.1,0.1,0.1
			c-1.3,1.1-2.8,1.3-4.5,1.5c-0.9,0.1-1.9,0.2-2.8,0.5c-1.3,0.4-2.9,0.5-4.2,0.5l0,0c-0.6,0-1.2,0-1.7,0c-0.6,0-1.2,0-1.7,0
			c-1.1,0-2.6,0-3.9,0.4C405.2,494.5,405.1,494.5,405.1,494.5z"/>
		<path d="M373.9,440.7c-1.2,0-2.4,0-3.5-0.1c-0.7,0-1-0.5-1-1c0-0.4,0.2-0.9,0.9-1c2.7-0.4,5.9-0.6,9.1-0.6c2.2,0,4.3,0.1,6.4,0.3
			c0.4,0,0.5,0.3,0.5,0.5c0,0.4-0.3,0.9-0.7,0.9C381.8,440.3,377.7,440.7,373.9,440.7L373.9,440.7z"/>
		<path d="M31,521.7c-0.6,0-1.2-0.1-2-0.2c-0.7-0.2-1.3-0.3-1.9-0.3c-2.6-0.4-3-0.5-8.8-6c-1.6-1.5-3-3.5-4.4-6
			c-0.8-1.4-2.5-3.3-4.1-5.1c-1.4-1.5-2.7-3.1-3.6-4.3l-0.1-0.1H6c-1.3-0.1-2.6-0.1-4-0.1c-3.9,0-7.3,0.3-10.9,0.6
			c-3.1,0.3-6.3,0.6-9.8,0.7l0,0c-0.4,0-0.8-0.2-1-0.4c-0.1-0.3-0.3-0.6-0.3-0.9c0.2-36.8,0.7-85.3,2.7-135.3v-0.2l-0.6-0.4H-18
			c-0.2,0.1-0.4,0.1-0.5,0.1c-0.5,0-0.5-0.4-0.5-0.5c0-0.3,0.1-0.7,0.5-0.7h1.3l0.1-0.2c0.1-0.2,0.4-0.3,0.6-0.3
			c0.1,0,0.4,0,0.4,0.3l0.1,0.2h0.2c5.4,0,10.8-0.2,16.1-0.3c5.5-0.2,11.1-0.3,16.6-0.3c8.5,0,15.4,0.4,21.9,1.2
			c0.5,0.1,0.9,0.6,1,1.2c0.8,8.8,0.8,16.5,0.9,24.7c0,2.5,0,5,0,7.6c0,2.5,0.1,5.9,0.2,9.8c0.3,13.2,0.7,31.3-0.3,39.8v0.1
			l17.8,21.2c8.2,9.7,19.5,23.1,15.5,36.7c-1.7,5.7-6.4,9.6-13.6,11.3c-3.7,0.8-6.3,1.1-8.6,1.4c-3,0.3-5.7,0.6-9.6,1.9
			c-1.5,0.8-6.3,2.1-7.1,2.2V521l-0.8,0.2C32.7,521.5,31.9,521.7,31,521.7z M9,499.3c2.2,3.3,4.3,5.7,6.4,8.3
			c1.8,2.2,3.7,4.4,5.6,7.2c2.4,3.4,5.5,4.1,9.3,4.1c0.6,0,1.3,0,1.9-0.1h0.1l0.1-0.1c0,0,0.2-0.1,0.7-0.1h0.5c0.2,0,0.3,0,0.4,0
			c3.4-0.5,5.8-6.7,6.4-8.9c0.1-0.5,0.3-1,0.4-1.4c0.5-1.7,0.9-3,0.4-5.2c-0.5-2-1.4-3.6-2.2-5.2c-0.7-1.2-1.4-2.5-1.9-4
			c-1.5-2.6-2.2-3.4-3.5-4.9c-0.4-0.5-0.9-1.1-1.6-1.9c-2-2.5-4.1-4.9-6.4-7.5c-10.3-11.9-20.9-24.2-24.1-39.2
			C0,433.8-0.1,426.7-0.2,420c-0.2-10.6-0.4-21.5-5.6-31.3l-0.6,0.2c1.4,26.1,1.3,54.5-0.1,89.3v0.3h0.3c1.8,0.3,3.4,1.4,4.7,3.1
			c1.7,2.2,2.6,3.9,3.5,5.7c0.7,1.4,1.5,2.8,2.7,4.6c0.4,0.6,0.9,1.5,1.3,2.4s0.9,1.8,1.3,2.5l0.1,0.1h0.1c0.1,0.2,0.2,0.4,0.3,0.5
			c0.2,0.4,0.4,0.7,0.6,1.1C8.6,498.8,8.8,499,9,499.3L9,499.3z M-5.1,385.8c0.4,0,0.7,0.2,0.9,0.6c5.9,10.1,6.1,21.5,6.4,32.5
			c0.2,7.8,0.3,15.9,2.5,23.7C8.3,455.3,16,464,24.2,473.1c5.4,6,10.9,12.2,15.2,19.6l0.5,0.8c3.9,6.8,6.1,10.6,3.5,18.4
			c-0.5,1.4-1.2,2.8-2.1,4.1l-0.6,0.9l1-0.4c3.3-1.5,7.5-2.1,11.6-2.8c9.9-1.6,20.2-3.2,18.6-16.3c-0.9-7.3-4.2-14.6-9.1-20.6
			c-3.3-4-6.7-8-10.1-12l-4.4-5.3c-1.5-1.8-3.2-3.7-4.7-5.5c-3.3-3.8-6.7-7.7-9.7-11.8c-3.7-5.2-3.9-10.6-4-16.8v-0.3
			c-0.1-2.2,0-4.8,0-7.5c0.2-13.4,0.4-30.2-9.6-37.6c-0.1-0.1-0.2-0.2-0.2-0.3c0-0.2,0.1-0.3,0.2-0.4l0.7-0.5h-1.1
			c-3.9,0-7.5,0.1-11.3,0.2c-4,0.1-8.2,0.3-13,0.3c-0.6,0-2.3,0-2.3,0v0.3c0.1,0.8,0.1,2.2,0.2,3.5c0,1.1,0.1,2.2,0.1,2.9v0.6
			l0.5-0.4C-5.8,385.9-5.4,385.8-5.1,385.8z M-16.1,364.4c-0.2,16.1-0.4,32-0.5,47.8c-0.3,27.5-0.7,56-0.8,84.7v0.3h0.3
			c3.4-0.1,6-0.1,8.3-0.1c4,0,7.1,0,12.4-0.6l0.5-0.1L3.8,496c-0.4-0.6-0.7-1.3-1.1-2c-0.3-0.7-0.6-1.4-1.1-2.1
			c-0.6-0.8-1.1-1.9-1.7-3.1c-1.7-3.5-3.9-7.8-7.6-7.8h-0.1c-0.4,0-0.8-0.2-1-0.4c-0.1-0.1-0.3-0.4-0.3-0.7
			c1.4-32.2,1.2-65.9,1.1-98.5v-2.3l-0.1-0.1c-0.2-0.2-0.2-0.7,0-1l0.1-0.1v-0.1c0-0.1,0-0.5,0.1-0.9c0-0.4,0.1-0.8,0.1-0.9
			c0-0.2,0-0.3,0.1-0.4s0.3-0.2,0.4-0.2c0.2,0,0.5,0.1,0.5,0.5v0.3h0.3c3.8-0.2,7.9-0.3,12.4-0.3c4.9,0,9.8,0.1,15,0.2
			c1.8,0,3.6,0.1,5.5,0.1c0.6,0,0.8,0.5,0.8,0.9v0.5l-0.3,0.4c-0.1,0.2-0.4,0.5-0.8,0.5c-1.7,0-3.4,0.1-5.1,0.1l-0.1,0.6
			c0.4,0.2,0.8,0.4,1.2,0.6c1.9,0.9,3.4,1.6,4.7,3.2l0.5-0.2v-0.1c0-0.4,0-0.8,0.1-1.1c0-0.8,0.1-1.3,0.2-2.3c0-0.3,0-0.7,0-1v-0.7
			l0.2-0.2c0.1-0.1,0.3-0.2,0.6-0.2c0.4,0,0.9,0.2,1,0.8v0.3c0.2,1,0.2,1.3,0.1,2.4c0.1,2,0,3.5-0.1,4.9c0,0.2-0.1,0.4-0.3,0.5
			l-0.3,0.1l0.1,0.3c3.4,7,3.3,19.5,3.3,28.6c0,2.3,0,4.5,0,6.3c0,1.2,0,2.4,0,3.6c-0.1,3.7-0.1,7.5,1,10.7c1,2.9,2.8,5.3,4.5,7.4
			l0.5,0.6v-0.8c0.2-12,0.1-36.9-0.1-47.9c-0.1-3.1-0.1-6.1-0.1-9c0-6.6,0-12.9-0.7-20.2v-0.2h-0.2c-5.1-0.6-10.5-0.9-17.5-0.9
			c-3.3,0-6.6,0.1-9.8,0.1c-3.2,0.1-6.5,0.1-9.8,0.1c-6.2,0-11.2-0.2-15.7-0.7H-16L-16.1,364.4z"/>
		<path d="M45.6,491.7c-0.5,0-0.8-0.4-0.9-0.8c-0.1-0.5,0.1-1.1,0.8-1.3c0.9-0.3,1.9-0.4,3.3-0.4c0.9,0,1.8,0,2.8,0.1
			c0.9,0,1.9,0.1,2.8,0.1c1.3,0,2.3-0.1,3.1-0.3c1.6-0.4,3.2-0.6,4.8-0.6c1,0,2,0.1,2.9,0.2c0.1,0,0.1,0.1,0.1,0.1
			c-1.3,1.2-2.9,1.4-4.6,1.6c-1,0.1-2,0.2-2.9,0.5c-1.3,0.4-2.9,0.5-4.3,0.5l0,0c-0.6,0-1.2,0-1.8,0c-0.6,0-1.2,0-1.8,0
			c-1.2,0-2.7,0-4,0.4C45.8,491.7,45.7,491.7,45.6,491.7z"/>
		<path d="M13.5,436.4c-1.2,0-2.4,0-3.5-0.1c-0.7,0-1.1-0.5-1.1-1c0-0.4,0.2-0.9,1-1c2.8-0.4,6-0.6,9.3-0.6c2.2,0,4.4,0.1,6.5,0.3
			c0.4,0,0.5,0.3,0.5,0.5c0,0.4-0.3,0.9-0.7,1C21.7,436.1,17.5,436.4,13.5,436.4z"/>
		<path d="M152.5,524.7c-0.6,0-1.2-0.1-2-0.2c-0.7-0.2-1.3-0.3-1.9-0.3c-2.6-0.4-3-0.5-8.8-6c-1.6-1.5-3-3.5-4.4-6
			c-0.8-1.4-2.5-3.3-4.1-5.1c-1.4-1.5-2.7-3.1-3.6-4.3l-0.1-0.1h-0.1c-1.3-0.1-2.6-0.1-4-0.1c-3.9,0-7.3,0.3-10.9,0.6
			c-3.1,0.3-6.3,0.6-9.8,0.7l0,0c-0.4,0-0.8-0.2-1-0.4c-0.1-0.1-0.3-0.4-0.3-0.8c0.2-36.8,0.7-85.3,2.7-135.3v-0.2l-0.6-0.4
			l-0.2,0.1c-0.2,0.1-0.4,0.1-0.5,0.1c-0.5,0-0.5-0.4-0.5-0.5c0-0.3,0.1-0.7,0.5-0.7h1.3l0.1-0.2c0.1-0.2,0.4-0.3,0.6-0.3
			c0.1,0,0.4,0,0.4,0.3l0.1,0.2h0.2c5.4,0,10.8-0.2,16.1-0.3c5.5-0.2,11.1-0.3,16.6-0.3c8.5,0,15.4,0.4,21.9,1.2
			c0.5,0.1,0.9,0.6,1,1.2c0.8,8.8,0.8,16.5,0.9,24.7c0,2.5,0,5,0,7.6c0,2.5,0.1,5.9,0.2,9.8c0.3,13.2,0.7,31.3-0.3,39.8v0.1
			l17.8,21.2c8.2,9.7,19.5,23.1,15.5,36.7c-1.7,5.7-6.4,9.6-13.6,11.3c-3.7,0.8-6.3,1.1-8.6,1.4c-3,0.3-5.7,0.6-9.6,1.9
			c-1.5,0.8-6.3,2.1-7.1,2.2v-0.1l-0.8,0.2C154.3,524.5,153.5,524.7,152.5,524.7z M130.6,502.3c2.2,3.3,4.3,5.7,6.4,8.3
			c1.8,2.2,3.7,4.4,5.6,7.2c2.4,3.4,5.5,4.1,9.3,4.1c0.6,0,1.3,0,1.9-0.1h0.1l0.1-0.1c0,0,0.2-0.1,0.7-0.1h0.5c0.2,0,0.3,0,0.4,0
			c3.4-0.5,5.8-6.7,6.4-8.9c0.1-0.5,0.3-1,0.4-1.4c0.5-1.7,0.9-3,0.4-5.2c-0.5-2-1.4-3.6-2.2-5.2c-0.7-1.2-1.4-2.5-1.9-4
			c-1.5-2.6-2.2-3.4-3.5-4.9c-0.4-0.5-0.9-1.1-1.6-1.9c-2-2.5-4.1-4.9-6.4-7.5c-10.3-11.9-20.9-24.2-24.1-39.2
			c-1.5-6.6-1.6-13.7-1.7-20.4c-0.2-10.6-0.4-21.5-5.6-31.3l-0.6,0.2c1.4,26.1,1.3,54.5-0.1,89.3v0.3h0.3c1.8,0.3,3.4,1.4,4.7,3.1
			c1.7,2.2,2.6,3.9,3.5,5.7c0.7,1.4,1.5,2.8,2.7,4.6c0.4,0.6,0.9,1.5,1.3,2.4c0.4,0.9,0.9,1.8,1.3,2.5l0.1,0.1h0.1
			c0.1,0.2,0.2,0.4,0.3,0.5c0.2,0.4,0.4,0.7,0.6,1.1C130.2,501.8,130.4,502,130.6,502.3L130.6,502.3z M116.5,388.8
			c0.4,0,0.7,0.2,0.9,0.6c5.9,10.1,6.1,21.5,6.4,32.5c0.2,7.8,0.3,15.9,2.5,23.7c3.6,12.7,11.3,21.4,19.5,30.5
			c5.4,6,10.9,12.2,15.2,19.6l0.5,0.8c3.9,6.8,6.1,10.6,3.5,18.4c-0.5,1.4-1.2,2.8-2.1,4.1l-0.6,0.9l1-0.4c3.3-1.5,7.5-2.1,11.6-2.8
			c9.9-1.6,20.2-3.2,18.6-16.3c-0.9-7.3-4.2-14.6-9.1-20.6c-3.3-4-6.7-8-10.1-12l-4.4-5.3c-1.5-1.8-3.2-3.7-4.7-5.5
			c-3.3-3.8-6.7-7.7-9.7-11.8c-3.7-5.2-3.9-10.6-4-16.8v-0.3c-0.1-2.2,0-4.8,0-7.5c0.2-13.4,0.4-30.2-9.6-37.6
			c-0.1-0.1-0.2-0.2-0.2-0.3c0-0.2,0.1-0.3,0.2-0.4l0.7-0.5h-1.1c-3.9,0-7.5,0.1-11.3,0.2c-4,0.1-8.2,0.3-13,0.3c-0.6,0-2.3,0-2.3,0
			v0.3c0.1,0.8,0.1,2.2,0.2,3.5c0,1.1,0.1,2.3,0.1,3v0.6l0.5-0.4C115.8,388.9,116.2,388.8,116.5,388.8z M105.5,367.4
			c-0.2,16.1-0.4,32-0.5,47.8c-0.3,27.5-0.7,56-0.8,84.7v0.3h0.3c3.4-0.1,6-0.1,8.3-0.1c4,0,7.1,0,12.4-0.6l0.5-0.1l-0.3-0.4
			c-0.4-0.6-0.7-1.3-1.1-2c-0.3-0.7-0.6-1.4-1.1-2.1c-0.6-0.8-1.1-1.9-1.7-3.1c-1.7-3.5-3.9-7.8-7.6-7.8h-0.1c-0.4,0-0.8-0.2-1-0.4
			c-0.1-0.1-0.3-0.4-0.3-0.7c1.4-32.2,1.2-65.9,1.1-98.5v-2.3l-0.1-0.1c-0.2-0.2-0.2-0.7,0-1l0.1-0.1v-0.1c0-0.1,0-0.5,0.1-0.9
			c0-0.4,0.1-0.8,0.1-0.9c0-0.2,0-0.3,0.1-0.4c0.1-0.1,0.3-0.2,0.4-0.2c0.2,0,0.5,0.1,0.5,0.5v0.3h0.3c3.8-0.2,7.9-0.3,12.4-0.3
			c4.9,0,9.8,0.1,15,0.2c1.8,0,3.6,0.1,5.5,0.1c0.6,0,0.8,0.5,0.8,0.9v0.5l-0.3,0.4c-0.1,0.2-0.4,0.5-0.8,0.5
			c-1.7,0-3.4,0.1-5.1,0.1l-0.1,0.6c0.4,0.2,0.8,0.4,1.2,0.6c1.9,0.9,3.4,1.6,4.7,3.2l0.5-0.2v-0.1c0-0.4,0-0.8,0.1-1.1
			c0-0.8,0.1-1.3,0.2-2.3c0-0.3,0-0.7,0-1v-0.7l0.2-0.2c0.1-0.1,0.3-0.2,0.6-0.2c0.4,0,0.9,0.2,1,0.8v0.3c0.2,1,0.2,1.3,0.1,2.4
			c0.1,2,0,3.5-0.1,4.9c0,0.2-0.1,0.4-0.3,0.5l-0.3,0.1l0.1,0.3c3.4,7,3.3,19.5,3.3,28.6c0,2.3,0,4.5,0,6.3c0,1.2,0,2.4,0,3.6
			c-0.1,3.7-0.1,7.5,1,10.7c1,2.9,2.8,5.3,4.5,7.4l0.5,0.6v-0.8c0.2-12,0.1-36.9-0.1-47.9c-0.1-3.2-0.1-6.2-0.1-9.1
			c0-6.6,0-12.9-0.7-20.2v-0.2h-0.2c-5.1-0.6-10.5-0.9-17.5-0.9c-3.3,0-6.6,0.1-9.8,0.1c-3.2,0.1-6.5,0.1-9.8,0.1
			c-6.2,0-11.2-0.2-15.7-0.7h-0.3L105.5,367.4z"/>
		<path d="M167.1,494.7c-0.5,0-0.8-0.4-0.9-0.8c-0.1-0.5,0.1-1.1,0.8-1.3c0.9-0.3,1.9-0.4,3.3-0.4c0.9,0,1.8,0,2.8,0.1
			c0.9,0,1.9,0.1,2.8,0.1c1.3,0,2.3-0.1,3.1-0.3c1.6-0.4,3.2-0.6,4.8-0.6c1,0,2,0.1,2.9,0.2c0.1,0,0.1,0.1,0.1,0.1
			c-1.3,1.2-2.9,1.4-4.6,1.6c-1,0.1-2,0.2-2.9,0.5c-1.3,0.4-2.9,0.5-4.3,0.5l0,0c-0.6,0-1.2,0-1.8,0s-1.2,0-1.8,0
			c-1.2,0-2.7,0-4,0.4C167.3,494.7,167.2,494.7,167.1,494.7z"/>
		<path d="M135.1,439.4c-1.2,0-2.4,0-3.5-0.1c-0.7,0-1.1-0.5-1.1-1c0-0.4,0.2-0.9,1-1c2.8-0.4,6-0.6,9.3-0.6c2.2,0,4.4,0.1,6.5,0.3
			c0.4,0,0.5,0.3,0.5,0.5c0,0.4-0.3,0.9-0.7,1C143.3,439.1,139,439.4,135.1,439.4z"/>
	</g>
	<path d="M-3.3,597.2c-0.1-0.2-0.2-0.4-0.3-0.6c0-0.1-0.1-0.2-0.1-0.4c-0.1-0.4-0.2-0.8-0.2-1.1c-0.1-0.6-0.2-1.2-0.3-1.8
		c0.2-0.1,0.3-0.1,0.4-0.2c1.3-0.6,0.4-2.2-0.9-2.1c-0.2-1-0.4-2.2-0.6-3.2l-1.8-10c-0.2-1.3-1.8-1-2.2,0c-0.3,0.1-0.7,0.3-0.9,0.7
		c-1.8,4.4-3.5,8.9-5.2,13.4c-0.2,0.2-0.4,0.6-0.4,1c-0.6,1.4-1,2.9-1.6,4.3c-0.5,1.4,1.8,2,2.2,0.6c0.5-1.3,1-2.6,1.4-3.9
		c2.3,0,4.9,0.2,7.2-0.2c0.1,0.5,0.2,1,0.3,1.5c0.2,1.1,0.2,2.7,1.2,3.4c0.4,0.3,1,0.2,1.4-0.2C-3.3,598.2-3.2,597.8-3.3,597.2z
		 M-10,591.6c-1,0-1.9,0.1-3,0.1c1.3-3.4,2.7-6.8,4-10.2c0.6,2.9,1,5.7,1.6,8.6c0.1,0.5,0.2,1,0.3,1.5C-8,591.6-9.1,591.5-10,591.6z
		"/>
	<path d="M34,578c-0.3-1.4-2.6-0.9-2.2,0.6c0.3,1.4-1,3.9-1.3,5.2c-0.5,1.6-0.9,3.2-1.4,4.7c-0.5,1.8-1,3.5-1.4,5.2
		c-1-4.9-1.7-9.7-2.2-14.7c-0.2-1.2-2-1.7-2.3-0.3c-0.7,3.1-1.4,6.1-2.1,9.2c-0.3,1.4-0.6,3-1,4.4c-0.1,0.3-0.2,0.6-0.2,1
		c-0.7-4.7-1.3-9.6-1.6-14.4c-0.1-1.5-2.5-1.5-2.3,0c0.4,6.4,1.3,12.8,2.4,19.3c0.2,0.8,1.4,1.2,2,0.5c1.8-2.3,2.1-5.9,2.7-8.6
		c0.3-1.4,0.6-3,1-4.4c0.6,4.5,1.4,9,2.4,13.5c0.2,1.2,2,1,2.2,0c1-3.8,2.2-7.6,3.2-11.4c0.5-1.8,1-3.7,1.5-5.5
		C33.6,580.8,34.3,579.5,34,578z"/>
	<path d="M47,593.1c0.7-0.6,0.6-1.7-0.1-2c-0.1-1.4-0.2-2.9-0.2-4.3c-0.2-2.8,0-7-2.5-8.8c-0.6-0.5-1.4,0.1-1.8,0.7
		c-2.6,6.6-5.2,13.2-7.8,19.8c-0.6,1.4,1.7,2,2.2,0.6c0.6-1.6,1.3-3.2,1.9-4.8c1.9,0.2,3.9,0.1,5.8-0.4c0.1,1.8,0.1,3.7,0.1,5.5
		c0,1.5,2.3,1.5,2.3,0v-1.2c0-0.1,0-0.2,0-0.3C47.1,596.3,47,594.7,47,593.1z M39.7,592c1.4-3.5,2.7-6.9,4.1-10.4
		c0.2,1.1,0.2,2.6,0.3,3.2c0.2,1.6,0.3,3.2,0.4,4.8c0,0.6,0.1,1.2,0.1,1.8C43,591.8,41.3,592,39.7,592z"/>
	<path d="M65.9,596.9c-3.3,0.2-6.6,0.3-9.9,0.5c0.6-5.9,1.4-11.7,2.4-17.5c0.2-1.4-2-2.1-2.2-0.6c-1.1,6.4-2,12.8-2.6,19.4
		c-0.1,0.6,0.6,1.2,1.2,1.2c3.7-0.2,7.5-0.3,11.2-0.5C67.4,599.2,67.4,596.8,65.9,596.9z"/>
	<path d="M83.4,596.5l-7.5,0.2c-0.5,0-1,0-1.5,0.1c-0.5-0.2-0.8-0.2-0.8,0.2c-0.1,0.4-0.1,0.3,0-0.2c-0.1-1.1,0.2-2.6,0.4-3.7
		c0.6-5,1.4-10,2.6-14.9c0.3-1.4-1.9-2.1-2.2-0.6c-1.3,5.9-2.2,12-2.9,18.1c-0.2,2.2-0.1,3.4,2.3,3.4c3.3,0,6.6-0.2,9.9-0.2
		C85,598.8,85,596.5,83.4,596.5z"/>
	<path d="M115.8,578.8c0-0.5-0.2-1-0.8-1.1c-5.1-1.9-9.2,3.5-10.4,7.8c-1,4.1-1.3,11,3.9,12.4c5,1.4,8.8-4.2,9.7-8.3
		C118.9,586.4,118.6,581.1,115.8,578.8z M115.8,589.6c-0.7,2.7-3.9,8-7.4,5.7c-3-1.9-2.2-7-1.4-9.8c0.7-2.5,2.7-5.5,5.4-5.9
		c0.2,0.2,0.5,0.4,0.8,0.5c1.9,0.2,2.6,3.1,2.8,4.5C116.4,586.4,116.2,588.1,115.8,589.6z"/>
	<path d="M136.8,577.9c-3.3-0.2-6.7-0.2-10,0.1c-0.5-0.7-1.7-0.8-2,0.2c-1,0.2-1.2,1.8-0.4,2.2c-0.5,2.8-1,5.6-1.3,8.4
		c-0.7,0.4-0.8,1.4-0.2,1.9c-0.3,2.8-0.6,5.7-0.8,8.5c-0.1,1.5,2.2,1.5,2.3,0c0.2-2.8,0.5-5.6,0.8-8.4c3.3-0.2,6.5-0.3,9.8-0.2
		c1.5,0.1,1.5-2.3,0-2.3c-3.2-0.2-6.3-0.1-9.6,0.2c0.4-2.7,0.8-5.4,1.3-8.1c3.4-0.2,6.7-0.2,10-0.1
		C138.4,580.4,138.4,578,136.8,577.9z"/>
	<path d="M172.7,597.1c-2.5,0.3-5,0.6-7.5,0.9c-0.7,0.1-1.5,0.2-2.2,0.2c-0.2,0-0.6-0.1-0.6,0.1c-0.2-0.7,0.4-3.6,0.5-4.2
		c0.6-5.3,1-10.6,1.6-15.9c0.2-1.5-2.2-1.5-2.3,0c-0.6,6.5-1.4,12.9-2,19.4c-0.2,2.2,0.6,3.1,2.9,2.9c3.3-0.3,6.5-0.8,9.8-1.2
		C174.3,599.3,174.3,597,172.7,597.1z"/>
	<path d="M193.5,577.2c-4.1,0.3-8.3,0.6-12.4,0.9c-1.5,0.1-1.5,2.5,0,2.3c1.4-0.1,2.9-0.2,4.3-0.3c-0.8,5.6-1.5,11.2-2.3,16.9
		c-1.2,0-2.4,0.1-3.6,0.2c-1.5,0.1-1.5,2.5,0,2.3c4-0.3,8-0.2,12,0.3c1.5,0.2,1.5-2.2,0-2.3c-2-0.2-3.9-0.4-5.9-0.5
		c0.1-0.2,0-0.5,0-0.6c0.7-5.4,1.5-10.8,2.2-16.1c0-0.1,0-0.2,0-0.2c1.9-0.2,3.8-0.2,5.7-0.4C195.1,579.5,195.1,577.1,193.5,577.2z"
		/>
	<path d="M212,588.9c-0.9,0-1.7,0-2.5,0c-1.1-0.4-2.4-0.4-3.5-0.3c-1.2,0.1-1.8,2.1-0.3,2.3c0.1,0,0.2,0,0.3,0l0,0l0,0
		c1,0.2,1.8,0.2,2.8,0.3c1,0.8,0.4,1.9-0.1,2.8c-0.6,1.2-1.5,2.3-2.7,3.2c-3.9,3.2-5.3-1.8-5.3-5c0-2.9,0.7-5.8,2.1-8.4
		c0.6-1.1,1.4-2.2,2.3-3c0.6-0.5,1.1-0.9,1.8-1c0.6-0.2,2.9-0.5,2.7,0.8c-0.2,1.4,2,2.1,2.2,0.6c0.3-2.1-1.2-3.7-3.3-3.9
		c-2.3-0.2-4.4,1-5.9,2.7c-3.7,3.9-5.1,10.2-4.2,15.4c0.4,2.2,1.6,4.5,3.9,5.1c2.4,0.6,4.7-1.1,6.3-2.7c1.4-1.6,3.3-4.3,2.7-6.5
		c0.1,0,0.2,0,0.3,0C213.5,591.2,213.5,588.9,212,588.9z"/>
	<path d="M230,578.8c-0.5,3.1-1,6.3-1.4,9.4c-0.2-0.4-0.5-0.6-1-0.6c-2.6,0.3-5.1,0.4-7.6,0.3c0.5-2.9,1.1-5.9,1.8-8.8
		c0.4-1.4-1.9-2.1-2.2-0.6c-1.7,6.8-2.8,13.7-3.3,20.7c-0.1,1.5,2.2,1.5,2.3,0c0.2-3.1,0.6-6,1-9c2.7,0.1,5.4,0,8-0.3
		c0.4-0.1,0.6-0.2,0.8-0.5c-0.2,1.8-0.6,3.6-0.8,5.4c-0.2,1.3-0.5,2.3,0.1,3.5c0.6,1.4,2.7,0.2,2-1.2c-0.2-0.5,0.2-1.9,0.2-2.4
		c0.1-0.8,0.2-1.5,0.3-2.3c0.2-1.4,0.4-2.8,0.6-4.3l1.3-8.8C232.5,577.9,230.2,577.3,230,578.8z"/>
	<path d="M252.3,578.4c-2.3,0-4.7-0.1-7.1-0.2c-0.1,0-0.2,0-0.3,0c-2.7-0.2-5.4-0.4-8.1-0.6c-1.5-0.1-1.5,2.2,0,2.3
		c2.2,0.2,4.5,0.3,6.7,0.5c-0.6,5.3-1.1,12.5-1.6,17.7c-0.2,1.5,2.2,1.5,2.3,0c0.6-5.2,1-12.4,1.6-17.7c2.2,0.2,4.3,0.2,6.4,0.2
		C253.8,580.8,253.8,578.4,252.3,578.4z"/>
	<path d="M279.9,580c2-1.2,5.1,0.8,5.5,2.8c0.2,1.5,2.5,0.9,2.2-0.6c-0.5-3.1-3.9-4.9-6.7-4.8c-3,0.1-4.7,2.9-4.3,5.7
		c0.6,3.8,4.2,5.5,6.5,8.1c1.8,2.1,2.2,6-1.5,6c-1.9,0-5.9-1.4-5.9-3.8c0-1.5-2.4-1.5-2.3,0c0.1,6.7,13.7,9,13.7,1
		c0-4.1-3.8-6.1-6.3-8.7C279.5,584.5,277.7,581.4,279.9,580z"/>
	<path d="M306.6,579.4c-1,3.9-1.9,7.9-2.9,11.7c-0.5-4-0.9-8-1-12c0-1.3-2-1.6-2.3-0.3c-1.2,5.1-2.7,10-4.3,15
		c-0.1-1.5-0.1-3-0.2-4.4c-0.2-3.1-0.5-6.2-0.7-9.2c-0.1-1.5-2.5-1.5-2.3,0c0.2,3.4,0.5,6.7,0.8,10c0.2,2.8,0.1,5.9,1,8.6
		c0.4,1.1,1.8,1.1,2.2,0c1.5-4,2.8-8.1,4-12.2c0.3,3.8,0.9,7.5,1.4,11.2c0.2,1.2,2,1,2.2,0c1.4-5.9,2.9-11.8,4.3-17.7
		C309.3,578.6,307,577.9,306.6,579.4z"/>
	<path d="M325.9,579.1c-1.6-0.1-3.2-0.1-4.8-0.1c-0.4-0.3-1-0.3-1.4,0c-1.4,0-2.9,0-4.4,0c-1.5,0-1.5,2.4,0,2.3c1.3,0,2.6,0,3.9,0
		c-0.7,5.1-1.4,10.2-1.9,15.3c-1.8-0.1-3.5-0.2-5.4-0.2c-1.5-0.1-1.5,2.2,0,2.3c3.9,0.2,8,0.4,11.9,0.6c1.5,0.1,1.5-2.2,0-2.3
		c-1.4-0.1-2.8-0.2-4.2-0.2l0,0c0.6-5.1,1.2-10.3,1.9-15.4c1.4,0,3,0.1,4.4,0.1C327.4,581.6,327.4,579.2,325.9,579.1z"/>
	<path d="M345.2,578.8c-2.5-0.1-5-0.2-7.5-0.3c-2-0.1-4.3-0.4-6.2,0.2c-1.4,0.5-0.8,2.7,0.6,2.2c1.3-0.4,2.8-0.4,4.3-0.2
		c-0.2,6.1-0.6,12.1-1,18.2c-0.2,1.5,2.2,1.5,2.3,0c0.5-6,0.9-12,1-18.1c2.1,0.1,4.2,0.2,6.3,0.2
		C346.8,581.2,346.8,578.8,345.2,578.8z"/>
	<path d="M359.9,590.7c-0.7,2.3-1.9,4.9-4.1,6.3c-1.3,0.8-3.1,1.4-4-0.1c-0.7-1-0.6-2.7-0.6-3.9c0.1-2.8,0.6-5.9,1.7-8.5
		c0.6-1.4,1.4-2.7,2.8-3.3c1.5-0.6,3.6-0.2,3.6,1.8c0.1,1.5,2.4,1.5,2.3,0c-0.2-4.2-4.9-5.5-8-3.3c-3.7,2.6-4.5,8.5-4.8,12.7
		c-0.2,3.5,0.6,8.5,5.3,7.9c4.3-0.6,6.8-5,8-8.8C362.6,589.8,360.3,589.3,359.9,590.7z"/>
	<path d="M382.3,578.5c0.2-1.5-2.2-1.5-2.3,0c-0.3,3-0.6,6-0.9,9c-3,0.6-5.9,0.8-9,0.6c0.3-2.9,0.6-5.9,1-8.8c0.2-1.5-2.2-1.5-2.3,0
		c-0.3,3-0.6,6-1,9c-0.2,0.3-0.3,0.9-0.2,1.3l-1.1,10.3c-0.2,1.5,2.2,1.5,2.3,0c0.3-3.1,0.7-6.3,1-9.4c3.1,0.2,6,0,9-0.6
		c-0.3,3-0.6,5.9-0.9,9c-0.2,1.5,2.2,1.5,2.3,0c0.3-3.2,0.6-6.3,1-9.6c0.6-0.4,0.6-1.3,0.2-1.8C381.8,584.6,382,581.6,382.3,578.5z"
		/>
	<path d="M400.8,578.3c-3.5,0-7.1,0-10.6,0c-0.3-0.2-0.9-0.2-1.3,0c-0.4,0-0.8,0-1.2,0c-1.5,0-1.5,2.3,0,2.3c0.2,0,0.2,0,0.4,0
		c-0.3,2.3-0.6,4.6-0.9,6.9c-0.2,0-0.5,0.1-0.7,0.1c-1.4,0.2-0.9,2.3,0.4,2.3c-0.4,2.9-0.9,5.8-0.9,8.7c0,0.6,0.6,1.2,1.2,1.2
		c3.4,0,6.7-0.2,10-0.6c1.5-0.2,1.5-2.6,0-2.3c-2.9,0.3-5.9,0.6-8.8,0.6c0.1-2.6,0.6-5.2,0.9-7.8c2.7-0.2,5.4,0.2,8-0.1
		c1.5-0.1,1.5-2.5,0-2.3c-2.6,0.2-5.1,0-7.8,0.1c0.3-2.2,0.6-4.5,0.9-6.7c3.5,0,6.9,0,10.4,0C402.3,580.6,402.3,578.3,400.8,578.3z"
		/>
	<path d="M419.8,583.6c-1-3.1-3.5-6-6.9-6.3c-3.1-0.2-6,1.8-6.4,5.1c-0.4,3.9,2.5,6.8,5.1,9.3c1.4,1.4,4.7,4.5,1.3,5.8
		c-2.2,0.8-4.5-1-6.2-2.2c-1.2-0.9-2.4,1.1-1.2,2c2.5,1.8,5.6,3.7,8.7,2.1c2.9-1.4,3.1-4.6,1.3-7c-2.2-3-6.9-5.2-6.7-9.5
		c0.1-2.3,2.2-3.6,4.4-3.2c2.2,0.4,3.6,2.4,4.3,4.5C418.1,585.7,420.3,585,419.8,583.6z"/>
	<path d="M434.3,578.4c-3.9-2.9-9,1.4-10.4,4.9c-0.6,1.4,1.8,2,2.2,0.6c0.7-1.8,2.2-3.3,4.1-3.8c1.4-0.4,3.3-0.1,2.9,1.9
		c-0.2,1-0.8,2.1-1.3,3.1c-1.4,3-4.1,6.7-2.5,10.1c0.6,1.4,2.7,0.2,2-1.2c-0.8-1.7,0.7-3.9,1.4-5.4c0.7-1.5,1.4-3,2.1-4.5
		C435.7,582.2,436.1,579.8,434.3,578.4z"/>
	<path d="M431.8,598.7c-0.1-0.4-0.2-0.6-0.6-0.9c-0.8-0.6-2-0.1-2.2,0.9c-0.2,1.1,0.7,2.1,1.8,1.8c0.6-0.2,0.9-0.7,0.9-1.3
		C431.8,599.2,431.8,599,431.8,598.7z"/>
</g>
</svg>
