<?xml version="1.0" encoding="utf-8"?>
<!-- Generator: Adobe Illustrator 19.0.0, SVG Export Plug-In . SVG Version: 6.00 Build 0)  -->
<svg version="1.1" id="Layer_1" xmlns="http://www.w3.org/2000/svg" xmlns:xlink="http://www.w3.org/1999/xlink" x="0px" y="0px"
	 viewBox="-20 166.9 455.6 434.2" style="enable-background:new -20 166.9 455.6 434.2;" xml:space="preserve">
<style type="text/css">
	.st0{fill:#EDF0F4;}
</style>
<path d="M28.7,599.6c-0.5-2.4-0.9-4.8-1.2-7.2c0.4-0.6,0.4-1.5-0.2-1.8c-0.5-3.7-0.7-7.4-0.8-11.1c0-0.9-0.9-1.3-1.5-1.1
	c-0.5-0.5-1.5-0.7-1.9,0.2c-3.4,6.5-6.2,13.3-8.6,20.2c-0.5,1.5,1.8,2.1,2.3,0.6c0.7-2,1.5-4.1,2.3-6.1c2.1-0.1,4.2-0.3,6.2-0.4
	c0.3,2.4,0.8,4.9,1.3,7.3C26.7,601.7,29,601.1,28.7,599.6z M19.9,590.8c1.3-3.1,2.7-6.2,4.2-9.2c0.1,3,0.4,5.9,0.7,8.9
	C23.2,590.6,21.6,590.7,19.9,590.8z"/>
<path d="M65.5,579c-0.4,3.1-1.5,6.2-2.2,9.3c-0.3,1.3-0.7,2.6-1,4c-0.5-3.7-0.5-7.4-0.4-11.2c0-1.1-1.7-1.7-2.2-0.6
	c-1.3,3.1-2.7,6.1-4,9.2c-0.6,1.4-1.2,2.8-1.9,4.3c-0.3,0.7-0.6,1.5-0.9,2.3c-0.7-5.4-1.1-10.9-1.1-16.4c0-1.5-2.4-1.6-2.4,0
	c0.1,6.6,0.6,13.1,1.6,19.6c0.1,0.8,1.2,1.1,1.8,0.7c2.4-1.6,3.3-5.3,4.4-7.9c0.8-1.9,1.6-3.7,2.4-5.6c0.1,3.8,0.5,7.6,1.5,11.3
	c0.3,1.1,2,1.2,2.3,0c0.8-3.3,1.6-6.6,2.5-10c0.7-3,1.8-6.1,2.1-9.1C68,577.5,65.6,577.5,65.5,579z"/>
<path d="M83.2,597.6c-0.9-6.6-1.9-13.2-3.1-19.8c-0.2-1.4-2.2-1-2.3,0.3c0,0,0,0,0,0.1c-2.8,5.9-5.4,11.9-7.7,18.1
	c-0.5,1.4,1.8,2.1,2.3,0.6c0.4-1,0.8-2,1.1-2.9c2.3,0,4.5,0,6.8-0.2c0.2,1.5,0.4,3,0.6,4.4C81.1,599.7,83.4,599.1,83.2,597.6z
	 M74.5,591.5c1.3-3.1,2.6-6.2,4-9.2c0.5,3,1,6.1,1.4,9.1C78.1,591.5,76.3,591.5,74.5,591.5z"/>
<path d="M99.2,596.3c-2.4,0.1-4.8,0.3-7.1,0.4c0.9-5.7,1.5-11.4,1.9-17.2c0.1-1.5-2.3-1.5-2.4,0c-0.4,6.1-1.1,12.1-2.1,18.1
	c-0.1,0.7,0.3,1.6,1.2,1.5l8.6-0.5C100.7,598.6,100.7,596.2,99.2,596.3z"/>
<path d="M115.1,596.5c-2.6,0-5.3-0.1-7.9-0.3c0.3-5.7,1-11.4,2-17.1c0.3-1.5-2-2.2-2.3-0.6c-1.1,6.2-1.8,12.5-2.2,18.8
	c0,0.7,0.6,1.1,1.2,1.2c3,0.3,6.1,0.4,9.2,0.4C116.6,598.9,116.6,596.4,115.1,596.5z"/>
<path d="M149.4,588c-0.2-4-1.7-12.3-7.6-10.6c-0.4,0.1-0.6,0.4-0.8,0.7c-3.7,2-5.5,6.5-5.8,10.7c-0.3,4.4,1.3,11.3,7.1,10.7
	C147.6,598.9,149.6,592.4,149.4,588z M147,589.5c-0.2,2.9-2.2,8.7-6.1,7.4c-3.8-1.2-3.6-6.9-3-9.9c0.6-3.2,2.3-6.5,5.6-7.4
	c0,0,0,0,0,0C146.7,580.2,147.2,587.5,147,589.5z"/>
<path d="M170.4,578.6c-0.5-1.8-3.8-1.3-5.1-1.4c-3-0.2-6-0.2-9-0.1c-1.5,0.1-1.6,2.5,0,2.4c0.2,0,0.3,0,0.5,0
	c-0.2,2.5-0.5,5-0.7,7.5c-0.9,0.2-1,1.6-0.2,2.1c-0.3,2.8-0.6,5.5-1,8.2c-0.2,1.5,2.2,1.5,2.4,0c0.3-2.6,0.6-5.2,0.9-7.9
	c3.1,0.3,6.1,0.5,9.2,0.8c1.5,0.1,1.5-2.3,0-2.4c-3-0.3-6-0.5-9-0.8c0.3-2.5,0.5-5.1,0.8-7.6c1.2,0,2.3,0,3.5,0
	c1.7,0.1,4-0.2,5.7,0.3C169.1,580.5,170.7,579.9,170.4,578.6z"/>
<path d="M202.2,596.7c-2.3,0.3-4.6,0.5-7,0.6c-0.4,0-1,0.1-1.1-0.1c-0.1-0.2,0.1-1.1,0.1-1.4c0.1-1.2,0.2-2.4,0.3-3.6
	c0.3-4.5,0.7-9,1-13.5c0.1-1.5-2.3-1.5-2.4,0c-0.4,6-1.3,12.2-1.3,18.2c0,1.6,0.7,2.6,2.3,2.7c2.9,0.2,5.9-0.3,8.7-0.7
	C204.3,598.8,203.7,596.5,202.2,596.7z"/>
<path d="M221.8,578c-3.4,0-6.9-0.1-10.3-0.4c-1.5-0.1-1.5,2.3,0,2.4c0.9,0.1,1.8,0.1,2.7,0.2l-1.5,15.9c-1.4,0-2.8,0-4.2,0
	c-1.5,0-1.6,2.4,0,2.4c3.4-0.1,6.8,0.1,10.2,0.4c1.5,0.1,1.5-2.3,0-2.4c-1.2-0.1-2.4-0.2-3.6-0.2l1.5-15.9c1.7,0.1,3.4,0.1,5.2,0.1
	C223.4,580.4,223.4,578,221.8,578z"/>
<path d="M242.3,588.6c-1.3-0.3-2.6-0.5-3.9-0.6c-0.8-0.3-1.7-0.2-2.5,0.2c-1,0.5-0.6,2.3,0.6,2.2c0.5,0,1-0.1,1.4,0
	c0.4,0.6,0.1,2.3,0,2.6c-0.2,0.7-0.4,1.4-0.7,2.1c-0.7,1.4-1.7,2.8-3.3,3.1c-3.7,0.7-4-4.5-3.9-6.9c0.1-2.8,0.8-6,2.5-8.3
	c1.4-2,5.7-4,6.9-0.6c0.5,1.4,2.8,0.8,2.3-0.6c-1.6-4.6-7.4-4.4-10.3-1.2c-3.6,3.9-4.9,11.1-3.1,16.1c1.8,5.2,7.9,5,10.6,0.6
	c1.1-1.7,2.1-4.5,1.7-6.6c0.4,0.1,0.8,0.2,1.2,0.3C243.2,591.3,243.8,588.9,242.3,588.6z"/>
<path d="M259.6,578.6c-0.4,2.8-0.7,5.5-1,8.3c-0.1,0-0.3,0-0.5,0c-2.7,0.4-5.5,0.6-8.2,0.6c0.2-3.1,0.5-6.2,0.7-9.3
	c0.1-1.5-2.3-1.5-2.4,0c-0.3,3.1-0.5,6.2-0.8,9.4c-0.8,0.4-0.8,1.6-0.2,2.1c-0.1,1.5-0.2,3-0.4,4.4c-0.1,1.4-0.5,3.2-0.2,4.5
	c0.1,0.5,0.6,0.9,1.2,0.9c0,0,0.1,0,0.1,0c0.5,0,1-0.4,1.2-0.9c0,0,0-0.1,0-0.1c0.1-0.5,0-0.8-0.2-1.1c-0.1-1.3,0.4-3,0.4-4.2
	c0.1-1.1,0.2-2.3,0.3-3.4c2.9,0,5.8-0.2,8.6-0.6c-0.3,2.9-0.5,5.8-0.7,8.8c-0.1,1.5,2.3,1.5,2.4,0c0.4-6.3,1-12.5,1.9-18.8
	C262.1,577.7,259.8,577.1,259.6,578.6z"/>
<path d="M281.4,578.3c-4.3,0-8.6,0-12.8,0c-1.5,0-1.6,2.4,0,2.4c1.6,0,3.1,0,4.7,0c-0.4,5.6-0.8,11.1-1,16.7c-0.1,1.5,2.3,1.5,2.4,0
	c0.2-5.6,0.6-11.1,1-16.7c1.9,0,3.8,0,5.7,0C283,580.7,283,578.3,281.4,578.3z"/>
<path d="M296,587.2c2.2-0.7,3.9-1.9,3.8-4.5c-0.1-5-7.1-5.3-10.7-5.4c-0.4,0-0.6,0.1-0.8,0.3c-0.5,0.1-0.9,0.5-0.9,1.1
	c-0.3,5.6-0.8,11.2-1.7,16.8c0,0.3,0,0.5,0.1,0.7c-0.1-0.1-0.1-0.1-0.2-0.2c-1-1.2-2.7,0.5-1.7,1.7c1.7,2,4.4,1.8,6.7,1.3
	c2.7-0.6,5.9-1.8,7.5-4.2c1.4-2,1.1-4.8-0.6-6.5C297.2,587.8,296.6,587.4,296,587.2z M297.2,583.6c-1.2,2.4-5.6,1.9-7.9,2.5
	c0.2-2.1,0.4-4.3,0.5-6.4C292.3,579.8,298.8,580.2,297.2,583.6z M295.7,594.2c-1.5,1.4-5.6,3.3-8.3,2.7c0.4-0.1,0.6-0.3,0.7-0.8
	c0.4-2.6,0.7-5.2,1-7.7c0.1,0.1,0.3,0.1,0.4,0.1c1.7,0.2,3.6,0.1,5.2,0.8C297,590.1,297.4,592.6,295.7,594.2z"/>
<path d="M316.8,581c-0.4-0.5-0.9-0.9-1.4-1.2c0.6-0.4,0.8-1.2,0.1-1.7c-4.6-3.9-8.7,3.1-10,6.7c-1.5,4-2.5,11.9,3.1,13.3
	c5.3,1.3,8.6-5.7,9.3-9.8C318.3,585.9,318.4,583,316.8,581z M315.2,589.5c-0.6,2.3-3.4,7.8-6.6,6c-2.9-1.7-1.7-6.9-0.9-9.4
	c0.3-1,1.5-3.9,2.9-5.5c0,0.8,0.9,1.6,1.8,1.2c2.4-1.1,3.3,2.2,3.3,3.8C315.8,586.8,315.6,588.2,315.2,589.5z"/>
<path d="M335.3,578.4c-1.9,3.1-3.7,6.1-5.5,9.2c-1.1-2.9-2.1-5.8-3-8.8c-0.5-1.5-2.8-0.8-2.3,0.6c1.2,3.7,2.4,7.3,3.8,10.8
	c-1.4,2.4-2.8,4.8-4.1,7.2c-0.8,1.3,1.3,2.6,2.1,1.2c1.1-1.9,2.1-3.7,3.2-5.6c0.9,2.2,1.8,4.3,2.8,6.5c0.6,1.4,2.7,0.2,2.1-1.2
	c-1.2-2.6-2.3-5.2-3.3-7.9c2.1-3.6,4.3-7.3,6.5-10.9C338.2,578.3,336.2,577.1,335.3,578.4z"/>
<path d="M353.9,581.3c1.5,0.1,1.5-2.3,0-2.4c-2.5-0.1-5.1-0.2-7.6-0.3c-0.4-0.2-0.9-0.2-1.3,0c-0.6,0-1.2,0-1.8,0
	c-1.5,0-1.5,2.4,0,2.4c0.3,0,0.7,0,1,0c-0.5,5.6-1,11.2-1.4,16.8c-0.1,0.6,0.6,1.2,1.2,1.2c3.2,0,6.4-0.1,9.5-0.1
	c1.5,0,1.6-2.4,0-2.4c-2.7,0-5.5,0.1-8.2,0.1c0.2-2,0.3-4.1,0.5-6.1c2.2,0.4,4.4,0.3,6.7,0c1.5-0.3,0.9-2.6-0.6-2.3
	c-2,0.3-3.9,0.3-5.9,0c0.2-2.4,0.4-4.7,0.6-7.1C349,581.1,351.4,581.2,353.9,581.3z"/>
<path d="M368.5,580.2c2-0.6,4.2,0.4,5.2,2.1c0.8,1.3,2.9,0.1,2.1-1.2c-1.6-2.6-4.9-4.1-7.9-3.2c-3.2,0.9-4.4,4.1-2.4,6.9
	c1.2,1.6,3,2.6,4.3,4.1c1.5,1.7,2.9,4,3,6.4c0.1,3.2-4.1,2.6-6.1,1.9c-2.1-0.8-3.6-2.3-4.6-4.3c-0.7-1.4-2.8-0.2-2.1,1.2
	c1.6,3.2,4.7,5.5,8.3,5.9c3.2,0.4,6.8-0.6,6.9-4.4c0.1-3.7-2.4-7.3-5-9.7C368.7,584.5,364.6,581.4,368.5,580.2z"/>
<path d="M388.2,596.7h-0.1c-0.6,0-1.2,0.6-1.2,1.2c0,0.7,0.5,1.2,1.2,1.2h0.1c0.6,0,1.2-0.6,1.2-1.2
	C389.4,597.3,388.9,596.7,388.2,596.7z"/>
<path d="M392.6,578.3c-3.6-3-9,0.1-10.1,4.1c-0.4,1.5,1.9,2.1,2.3,0.6c0.5-2.1,2.7-3.9,4.9-3.4c3.7,0.8,1,4.5-0.2,6.3
	c-1.6,2.3-5,6.1-1.6,8.5c1.3,0.9,2.5-1.2,1.2-2.1c-1.3-0.9,3.7-6.9,4.3-8.1C394.4,582.1,394.4,579.8,392.6,578.3z"/>
<path class="st0" d="M195.4,274.4c-0.2-9.8-0.6-19.5-1-29.2c-0.3-7.8-1.1-15.7-0.6-23.5c0.4-5.7,1-11.4,1.2-17.1
	c0.3-5.4,0.8-11.4-0.7-16.4c0-0.2-0.5-1.2-0.5-1.3c-0.1-0.1-0.2-0.2-0.2-0.3c-0.4-0.1-0.9-0.3-0.9-0.3c-2.7-0.6-5.5-0.7-8.3-0.9
	c-4.1-0.3-8-1.2-12-1.7c-5.1-0.7-10.2-1.2-15.3-1.4c-21.3-1.1-42.9-0.1-64.2,1c-10.4,0.5-20.4,2.4-30.7,3.7
	c-5.5,0.7-11.1,1.2-16.6,1.2c-0.3,0.5-0.6,1-0.9,1.5c-1.6,3-3,6.1-4.2,9.4c-1.9,1.1-3.4,2.9-4,5.5c-0.9,4.1-1.5,8.2-1.7,12.4
	c-0.1,3.2,1.3,5.6,3.4,7.1c-2.4,31.8-4,63.8-5,95.6c1.1,0.7,2.3,1.3,3.4,1.9c2,1,4,2,6,3.1c0.4,0.2,0.8,0.5,1.1,0.8
	c3.9,1.5,7.9,3.1,11.7,4.8c6.4,1,12.8,1.6,19.3,1.9c4-0.9,8-1.1,12.4-1.3c11.3-0.4,22.6-0.9,33.9-1.6c23.1-1.5,46.1-3.9,69-7.1
	c0,0,0,0,0,0c1.3-0.7,2.5-1.5,3.6-2.5C195.4,304.6,195.7,289.5,195.4,274.4z M182.7,220.7c-0.1,10.3-0.3,20.5-0.5,30.7
	c-0.4,17.7-1,35.5-1.9,53.2c-21.6,2.8-43.3,4.9-65.1,6.2c-12,0.7-24.2,0.6-36.2,1.7c-5.1,0.5-9.8,1.7-14.7,2.9l0.1-17.7
	c0-0.4,0-0.9-0.1-1.3c-0.2-14.7-0.4-29.5-0.1-44.2c0.5-8.8,1-17.7,1.4-26.5c1.3-6,2.7-12,4-17.9c0.8-3.7-0.5-7.4-3.4-9.7
	c0-0.3,0-0.6,0-0.9c-0.1-0.8-0.2-1.5-0.4-2.2c0.8-0.3,1.7-0.6,1.8-0.7c12.4-3.9,25.8-4.1,39-3.6c14,0.5,28,2.2,41.9,3.7
	c7,0.8,14,1.5,20.9,2.3l10.5,1.1l2.7,0.3c0,2.4,0,4.7,0,7.1C182.8,210.5,182.8,215.6,182.7,220.7z"/>
<path class="st0" d="M388.6,273.5c-0.2-9.3-0.6-18.5-1-27.7c-0.3-7.4-1.1-14.9-0.6-22.2c0.4-5.4,0.9-10.8,1.2-16.2
	c0.2-5.1,0.7-10.8-0.7-15.6c0-0.2-0.5-1.2-0.4-1.2c-0.1-0.1-0.1-0.2-0.2-0.3c-0.3-0.1-0.8-0.3-0.8-0.3c-2.6-0.6-5.3-0.7-7.9-0.9
	c-3.8-0.3-7.6-1.1-11.4-1.6c-4.8-0.7-9.7-1.1-14.5-1.3c-20.2-1.1-40.7-0.1-60.9,0.9c-9.9,0.5-19.4,2.3-29.1,3.5
	c-5.2,0.7-10.5,1.2-15.7,1.1c-0.3,0.5-0.6,0.9-0.9,1.4c-1.5,2.8-2.9,5.8-4,8.9c-1.8,1-3.2,2.8-3.8,5.2c-0.9,3.8-1.4,7.8-1.6,11.7
	c-0.1,3,1.2,5.3,3.3,6.7c-2.2,30.2-3.8,60.5-4.7,90.7c1.1,0.6,2.1,1.2,3.2,1.8c1.9,0.9,3.8,1.9,5.6,2.9c0.4,0.2,0.8,0.5,1.1,0.8
	c3.7,1.4,7.5,2.9,11.1,4.5c6,1,12.2,1.5,18.3,1.8c3.8-0.8,7.6-1.1,11.7-1.2c10.7-0.4,21.4-0.8,32.1-1.5c21.9-1.4,43.7-3.7,65.5-6.7
	c0,0,0,0,0,0c1.3-0.6,2.4-1.4,3.4-2.4C388.7,302.2,388.9,287.8,388.6,273.5z M376.6,222.6c-0.1,9.7-0.2,19.4-0.5,29.2
	c-0.4,16.8-1,33.7-1.8,50.5c-20.5,2.7-41.1,4.6-61.7,5.9c-11.4,0.7-22.9,0.6-34.3,1.6c-4.8,0.4-9.3,1.6-13.9,2.7l0.1-16.8
	c0-0.4,0-0.8-0.1-1.2c-0.2-14-0.3-28-0.1-41.9c0.5-8.4,0.9-16.8,1.3-25.1c1.3-5.7,2.5-11.3,3.8-17c0.8-3.5-0.5-7.1-3.2-9.2
	c0-0.3,0-0.5,0-0.8c0-0.7-0.2-1.4-0.4-2.1c0.7-0.3,1.6-0.6,1.8-0.6c11.8-3.7,24.5-3.8,37-3.4c13.3,0.4,26.6,2.1,39.8,3.5
	c6.6,0.7,13.2,1.4,19.9,2.1l9.9,1.1l2.6,0.3c0,2.2,0,4.5,0,6.7C376.7,212.9,376.7,217.7,376.6,222.6z"/>
<path class="st0" d="M392.6,448.5c-0.4-9.1-1-18.2-1.5-27.3c-0.5-7.3-1.4-14.7-1-21.9c0.2-5.3,0.7-10.7,0.8-16
	c0.1-5,0.5-10.6-1-15.3c0-0.2-0.5-1.1-0.5-1.2c-0.1-0.1-0.1-0.2-0.2-0.3c-0.3-0.1-0.8-0.3-0.8-0.3c-2.6-0.5-5.2-0.6-7.8-0.7
	c-3.8-0.2-7.5-0.9-11.3-1.4c-4.8-0.6-9.5-0.9-14.3-1c-19.9-0.6-40.2,0.7-60.1,2.2c-9.7,0.7-19.1,2.6-28.7,4.1
	c-5.2,0.8-10.3,1.4-15.5,1.4c-0.3,0.5-0.6,0.9-0.8,1.4c-1.5,2.8-2.7,5.8-3.7,8.8c-1.8,1.1-3.1,2.8-3.7,5.2
	c-0.8,3.8-1.2,7.7-1.3,11.6c-0.1,3,1.3,5.2,3.4,6.6c-1.6,29.8-2.5,59.7-2.8,89.6c1.1,0.6,2.1,1.2,3.2,1.7c1.9,0.9,3.8,1.8,5.6,2.8
	c0.4,0.2,0.8,0.5,1.1,0.7c3.7,1.3,7.4,2.7,11,4.2c6,0.8,12,1.3,18.1,1.4c3.7-0.9,7.5-1.2,11.5-1.4c10.6-0.6,21.1-1.3,31.6-2.2
	c21.6-1.8,43.1-4.5,64.4-8c0,0,0,0,0,0c1.2-0.7,2.3-1.5,3.3-2.4C393.3,476.8,393.2,462.6,392.6,448.5z M270.8,480.6
	c1.6,0.8,3.4,1.2,5.3,1.1c4.9-0.2,8.6-2.6,10.7-6.2c0.8,0,1.5-0.1,2.3-0.2c0.4,0.3,0.7,0.7,1.1,1c-2,1-3.9,2-5.9,3
	c-3.2,1.7-5.3,4.8-5.9,8.3c-2.5,0.6-5,1.2-7.5,1.9L270.8,480.6z"/>
<path class="st0" d="M195.5,448c-0.8-9.4-1.9-18.8-2.9-28.1c-0.8-7.5-2.1-15-2.1-22.6c0-5.5,0.2-11,0.1-16.6c-0.1-5.2,0-11-1.8-15.8
	c-0.1-0.2-0.6-1.2-0.5-1.2c-0.1-0.1-0.2-0.2-0.2-0.3c-0.3-0.1-0.9-0.2-0.9-0.2c-2.7-0.4-5.4-0.3-8.1-0.3c-3.9,0-7.8-0.6-11.7-0.9
	c-4.9-0.3-9.9-0.4-14.8-0.4c-20.6,0.3-41.4,2.7-61.8,5.1c-10,1.2-19.5,3.6-29.4,5.6c-5.3,1-10.6,1.9-15.9,2.2
	c-0.3,0.5-0.5,1-0.8,1.5c-1.4,3-2.5,6.1-3.4,9.3c-1.8,1.2-3.1,3-3.5,5.6c-0.7,4-0.9,8-0.8,12c0.1,3.1,1.6,5.3,3.8,6.6
	c-0.2,30.8,0.3,61.7,1.4,92.5c1.1,0.6,2.3,1.1,3.4,1.6c2,0.8,4,1.7,5.9,2.6c0.4,0.2,0.8,0.4,1.1,0.7c3.9,1.2,7.8,2.4,11.6,3.8
	c6.2,0.6,12.5,0.7,18.7,0.6c3.8-1.1,7.7-1.6,11.8-2c10.9-1.2,21.7-2.3,32.5-3.7c22.2-2.9,44.2-6.7,66-11.3c0,0,0,0,0,0
	c1.2-0.7,2.3-1.6,3.3-2.7C197.5,477.1,196.8,462.5,195.5,448z M179.8,397.1c0.6,9.9,1.1,19.8,1.5,29.7c0.8,17.1,1.3,34.3,1.7,51.4
	c-20.6,4.1-41.4,7.5-62.3,10.2c-11.5,1.5-23.2,2.2-34.7,4c-4.9,0.8-9.4,2.2-13.9,3.7L71,479.1c0-0.4-0.1-0.8-0.2-1.2
	c-1.1-14.2-2.3-28.4-3-42.6c-0.1-8.5-0.2-17.1-0.4-25.6c0.9-5.8,1.8-11.7,2.7-17.5c0.6-3.6-1-7.1-3.9-9.1c0-0.3-0.1-0.6-0.1-0.8
	c-0.1-0.7-0.3-1.4-0.5-2.1c0.7-0.3,1.6-0.7,1.7-0.8c11.7-4.6,24.6-5.6,37.4-6c13.6-0.5,27.1,0.3,40.7,0.8c6.8,0.3,13.5,0.5,20.3,0.8
	l10.2,0.4l2.6,0.1c0.2,2.3,0.3,4.5,0.5,6.8C179.2,387.2,179.5,392.2,179.8,397.1z"/>
<path d="M70.1,318c-0.7,0-1.3-0.8-1.3-1.4c-0.1-9.7-0.3-19.5-0.4-29.1l0-0.4c-0.3-20.5-0.7-41.8-0.7-62.6l0-0.8l-0.8,0
	c-0.4,0-0.8-0.1-1-0.4c-0.2-0.2-0.3-0.5-0.3-0.9c0.1-7.8,0.2-15.6,0.4-23.1c0,0,0.1-6,0.2-8.3c0-0.8,0.6-1.5,1.4-1.5
	c2.9,0,5.7,0,8.6,0c34.6,0,69.6,1.1,104,3.4c0.7,0,1.5,0.5,1.5,1.4c0.1,7.2,0.2,13.6,0.2,19.7c0.2,17.6,0.2,35,0.2,51.8
	c0,4.1,0,18.4-0.1,29c0,0.6,0,1.4,0.1,2.4c0.2,3.4,0.5,8.5-1.5,9.8c-2.2,1.4-6.4,1.8-9.8,2.2c-0.9,0.1-1.7,0.2-2.4,0.3
	c-10.3,1.4-18.2,2-25.9,2.5c-6.9,0.5-13.5,1-21.3,2c-9.9,1.3-19.9,1.9-29.7,2.5C84.5,316.9,77.3,317.3,70.1,318
	C70.2,318,70.2,318,70.1,318z M76.4,192.4c-2.2,0-4.4,0-6.6,0l-0.8,0l-0.1,5.6c-0.1,3.9-0.1,7.8-0.2,11.7l0,0.2l0.1,0.2
	c0,0.1,0.1,0.2,0.1,0.3c1.2,25.5,1.7,51.5,2.2,76.6l0,0.5c0.2,8.3,0.3,17.7,0.5,26.7l0,0.8l1.7-0.2c1.4-0.2,2.8-0.3,4.2-0.5
	c7.3-0.8,14.7-1.2,21.9-1.7c9.5-0.6,19.3-1.2,29-2.6c3.8-0.5,7.7-0.9,11.4-1.2c4.6-0.4,9.4-0.8,14-1.6c1.9-0.3,3.8-0.3,5.7-0.3
	c2.2,0,4.6,0,6.9-0.5c1.5-0.3,3.2-0.4,4.8-0.4c2.4-0.1,4.9-0.1,7-1c1.8-0.8,1.6-4.5,1.2-9.4c-0.1-0.8-0.1-1.5-0.1-1.8
	c0-2.1,0-4.1,0-6.2c0-3.7,0-9.8,0.1-14l0-1.5c0-8.9,0-17.6,0-25.9c0-16.4-0.2-33.1-0.4-49.8l0-0.7l-0.7,0
	C144.4,193.5,110.2,192.4,76.4,192.4z"/>
<path d="M60.5,330.1c-0.9,0-1.6-1-1.6-1.7l0-0.6l-0.4-0.1c-0.1,0-0.2,0-0.3-0.1c-7-2.6-12.9-5.4-19.2-8.4c-4.5-2.2-9.2-4.4-14.4-6.6
	c-0.5-0.2-0.9-1-0.9-1.5c0.2-8.8,0.1-17.8,0.1-26.5c-0.1-10.9-0.2-22.2,0.3-33.3c0.2-4.8,0.2-9.6,0.1-14.3c0-5.1-0.1-10.4,0.2-15.5
	c0.1-2.5,0.2-5,0.3-7.5c0.3-7.3,0.6-14.9,1.4-22.3c0.1-0.5,0.3-1.4,1.2-1.6c3.6-0.9,7.2-2,10.6-3c1.8-0.5,3.5-1.1,5.2-1.6
	c1.2-0.3,2.4-0.7,3.6-1.1c3.6-1.1,7.2-2.3,10.8-2.6l0.2,0l0.1-0.2c0.2-0.3,0.6-0.8,1.4-0.8c19.5-2,37.1-2.9,53.9-2.9
	c4.4,0,8.8,0.1,13.1,0.2c9.6,0.3,19.6,1.2,32.4,3c2.8,0.4,5.3,0.8,7.8,1.2c7,1.1,12.9,2,22.3,2.5c1,0,1.8,0.9,1.8,1.7
	c-0.2,10.5,0,20.8,0.3,30.7c0.3,9.9,0.6,20.2,0.3,30.7l-0.7,58.9l0,0.9c0,2.2-0.2,9-0.7,9.6c-1.4,0.7-6.2,1.2-9.9,1.6l-1.9,0.2
	c-7.5,0.8-14.7,1.6-22.3,2.6c-15.6,2-31.5,3.1-47,4.2c-15.9,1.1-32.3,2.2-48.3,4.3C60.6,330.1,60.6,330.1,60.5,330.1z M59,188.5
	c0.1,0,0.6,0,0.6,0.6c1.4,37.6,1.9,75.8,2.5,112.8l0,1.6c0.1,7.5,0.2,14.9,0.3,22.4l0,0.5l0.5-0.1c11.3-1.5,22.9-2.6,34.1-3.7
	c3.6-0.3,7.2-0.7,10.8-1c7.5-0.7,14.1-1.1,21.1-1.5c8-0.5,16.3-0.9,26.9-2c2.6-0.3,5-0.4,7.3-0.6c5.1-0.4,9.9-0.7,16.1-1.9
	c0.9-0.2,2.2-0.3,3.3-0.5c1.7-0.2,3.2-0.4,3.7-0.6c0.8-0.3,1-2.1,1-5.6c0-0.4,0-0.8,0-1.1c0-2.1,0-5.2-0.1-8.3
	c-0.1-3-0.2-6.2-0.1-8.3c0.4-16.9,0.5-34.5,0.6-51.5c0.1-17,0.2-34.7,0.6-51.5l0-0.4l-0.4,0c-11.6-1-19.2-1.9-28.9-3.2
	c-9.1-1.3-21-2.7-33.3-3c-3.8-0.1-7.6-0.1-11.4-0.1c-17.3,0-35.7,1-54.7,2.9c-0.1,0-0.1,0-0.2,0c-1,0-1.3-0.7-1.4-1l-0.2-0.5
	l-0.5,0.3c-2.9,1.6-6.3,2.7-9.5,3.7c-1.2,0.4-2.5,0.8-3.7,1.2c-1.7,0.6-3.3,1.1-5,1.7l-0.1,0c-3,1-6,2-9,3.1l-0.3,0.1l0,0.3
	c-0.1,6.1-0.5,12.3-0.9,18.3l0,0.2c-0.2,3.3-0.4,6.6-0.6,9.9c-0.3,5.2-0.2,10.5-0.2,15.6c0,4.7,0.1,9.5-0.1,14.3
	c-0.4,10.8-0.3,21.7-0.2,32.3c0.1,8.6,0.2,17.4,0,26l0,0.3l0.3,0.1c8,3.3,14.7,6.5,21.9,9.9c2.8,1.3,5.6,2.7,8.7,4.1l0.6,0.3l0-0.7
	c-0.1-7.2-0.1-14.4-0.2-21.6c-0.4-37-0.8-75.3-0.3-112.9C58.3,188.6,58.7,188.5,59,188.5z"/>
<path d="M273.4,314c-0.6,0-1.1-0.7-1.1-1.2c-0.1-8.9-0.3-18-0.4-26.8l0-0.6c-0.3-19-0.6-38.6-0.6-57.8l0-0.8l-0.8,0
	c-0.4,0-0.7-0.1-0.9-0.3c-0.2-0.2-0.3-0.5-0.3-0.8c0.1-7.1,0.2-14.6,0.3-21.2c0,0,0.1-5.3,0.1-7.8c0-0.7,0.6-1.3,1.3-1.3
	c2.7,0,5.3,0,8,0c32,0,64.3,1.1,96.3,3.1c0.6,0,1.4,0.5,1.4,1.3c0.1,6.1,0.2,12.1,0.2,18.2c0.2,16.2,0.2,32.4,0.2,47.9
	c0,3.8,0,17-0.1,26.9c0,0.6,0,1.3,0.1,2.2c0.2,3.1,0.5,7.9-1.4,9c-2,1.2-5.9,1.7-9.1,2c-0.8,0.1-1.6,0.2-2.2,0.3
	c-9.5,1.3-16.9,1.8-24,2.4c-6.4,0.5-12.5,0.9-19.7,1.9c-9.1,1.2-18.4,1.8-27.4,2.3C286.7,313,280,313.4,273.4,314
	C273.4,314,273.4,314,273.4,314z M279.1,197.8c-2,0-4.1,0-6.1,0l-0.8,0l-0.1,5.3c-0.1,3.6-0.1,7.2-0.2,10.8l0,0.2l0.1,0.2
	c0,0.1,0.1,0.1,0.1,0.2c1.1,23.7,1.6,47.7,2,71c0.2,8.4,0.3,16.7,0.5,25.1l0,0.8l0.5-0.1c0,0,3.7-0.4,5-0.5
	c6.8-0.7,13.6-1.1,20.3-1.6c8.8-0.5,17.9-1.1,26.9-2.4c3.5-0.5,7.1-0.8,10.5-1.1c4.3-0.4,8.7-0.8,13-1.5c1.7-0.3,3.5-0.3,5.2-0.3
	c2.1,0,4.2,0,6.4-0.5c1.3-0.3,2.9-0.3,4.4-0.4c2.2-0.1,4.5-0.1,6.5-1c1.7-0.7,1.5-4.2,1.1-8.7c-0.1-0.7-0.1-1.4-0.1-1.7
	c0-1.9,0-3.8,0-5.8c0-3.3,0-8.9,0-12.8l0-1.6c0-8.3,0-16.3,0-24c0-15.2-0.2-30.7-0.4-46.1l0-0.7l-0.7,0
	C342.1,198.8,310.4,197.8,279.1,197.8z"/>
<path d="M264.5,325.2c-0.8,0-1.4-0.9-1.4-1.6l0-0.6l-0.4-0.1c-0.1,0-0.2,0-0.3-0.1c-6.5-2.4-12-5-17.8-7.8c-4.2-2-8.5-4.1-13.3-6.1
	c-0.4-0.2-0.8-0.9-0.8-1.3c0.2-8.2,0.1-16.5,0.1-24.5c-0.1-10.1-0.2-20.5,0.3-30.8c0.2-4.4,0.1-8.9,0.1-13.2c0-4.8-0.1-9.6,0.2-14.4
	c0.1-2.2,0.2-4.5,0.3-6.7l0-0.2c0.3-6.8,0.6-13.8,1.3-20.6c0-0.5,0.2-1.3,1-1.5c3.3-0.8,6.7-1.8,9.9-2.8l0.2-0.1
	c1.5-0.5,3.1-0.9,4.6-1.4c1.1-0.3,2.2-0.7,3.3-1c3.3-1.1,6.7-2.1,10-2.4l0.2,0l0.1-0.2c0.2-0.3,0.6-0.7,1.2-0.8
	c18-1.8,34.4-2.7,49.9-2.7c4.1,0,8.2,0.1,12.1,0.2c8.9,0.3,18.1,1.1,30,2.8c2.6,0.4,5,0.7,7.2,1.1c6.4,1,11.9,1.9,20.6,2.3
	c0.9,0,1.7,0.8,1.7,1.6c-0.2,9.7,0,19.2,0.3,28.4c0.3,9.2,0.5,18.7,0.3,28.4l-0.6,54.5l0,0.8c0,2.3-0.2,8.3-0.6,8.9
	c-1.3,0.6-5.7,1.1-9.2,1.5l-1.8,0.2c-7,0.8-13.5,1.5-20.6,2.4c-14.4,1.9-29.2,2.9-43.5,3.9c-14.7,1-29.9,2.1-44.7,4
	C264.6,325.2,264.5,325.2,264.5,325.2z M263.1,194.3c0.1,0,0.5,0,0.6,0.5c1.3,34.8,1.8,70.2,2.3,104.4l0,1.7
	c0.1,6.8,0.2,13.6,0.3,20.4l0,0.5l0.5-0.1c10.5-1.4,21.2-2.4,31.5-3.4l0.4,0c3.2-0.3,6.4-0.6,9.5-0.9c6.9-0.7,13-1,19.5-1.4
	c7.5-0.4,15.2-0.9,24.9-1.9c2.3-0.2,4.5-0.4,6.7-0.6c4.7-0.4,9.2-0.7,15-1.7c0.8-0.1,1.9-0.3,3-0.4c1.6-0.2,3-0.4,3.5-0.6
	c0.8-0.3,0.9-1.9,0.9-5.2c0-0.4,0-0.7,0-1c0-1.9,0-4.8-0.1-7.6c-0.1-2.9-0.2-5.8-0.1-7.7c0.4-15.6,0.5-31.9,0.6-47.6
	c0.1-15.8,0.2-32,0.6-47.6l0-0.4l-0.4,0c-10.8-1-17.8-1.7-26.8-3c-8.4-1.2-19.5-2.5-30.8-2.8c-3.5-0.1-7-0.1-10.6-0.1
	c-16,0-33,0.9-50.6,2.7c-0.1,0-0.1,0-0.2,0c-0.9,0-1.2-0.7-1.2-0.9l-0.2-0.5l-0.5,0.3c-2.7,1.5-5.8,2.5-8.8,3.4
	c-1.1,0.4-2.3,0.7-3.4,1.1c-1.5,0.5-3.1,1.1-4.7,1.6l-0.1,0c-2.8,0.9-5.6,1.9-8.4,2.9l-0.3,0.1l0,0.3c-0.1,5.6-0.5,11.4-0.8,16.9
	l0,0.1c-0.2,3-0.4,6.1-0.5,9.2c-0.2,4.8-0.2,9.7-0.2,14.4c0,4.3,0.1,8.8-0.1,13.2c-0.4,10-0.3,20.1-0.2,29.8
	c0.1,7.9,0.1,16.1,0,24.1l0,0.3l0.3,0.1c7.4,3.1,13.6,6,20.3,9.1c2.6,1.2,5.2,2.5,8,3.8l0.6,0.3l0-0.7c-0.1-6.7-0.1-13.3-0.2-20
	c-0.4-34.2-0.7-69.6-0.3-104.4C262.5,194.3,263,194.3,263.1,194.3z"/>
<path d="M73.2,503.5c-0.7,0-1.2-0.7-1.2-1.3c-0.1-9.5-0.3-19-0.4-28.2l0-0.5c-0.1-7.2-0.2-14.4-0.3-21.7l0-0.2l-0.1-0.2
	c-0.1-0.2-0.2-0.4-0.2-0.6l0-4.1c0-7.9,0-16.1,0.2-24.1c0.1-2.8,0-5.7-0.1-8.5c-0.1-3.5-0.2-7.1,0-10.7l0.1-1l-0.4,0.1
	c0.2-4.7,0.4-8.5,0.5-13.7c0-0.8,0.6-1.4,1.4-1.5c16.2-1.3,32.9-2.4,49.1-3.4c19.7-1.3,40-2.6,59.2-4.3c0,0,0.1,0,0.1,0
	c0.6,0,1.2,0.7,1.2,1.3c0,1.9,0,3.6-0.1,5.3l-0.1,1.3l0.1,0c0,1,0.1,3.5,0.1,3.5c0,2.3,0.1,4.4,0.1,7c0.2,16.4,0.2,37.3,0.2,54.6
	c0,8.7-0.1,17.2-0.1,25.3c0,0.5,0,1,0,1.6c0.1,2.7,0.2,5.9-1.9,7.2c-2.3,1.4-5.2,2.1-8,2.7c-0.6,0.1-1.2,0.3-1.8,0.4
	c-13.7,3.3-27.9,5.2-41.7,7c-2,0.3-4.1,0.5-6.1,0.8C104.5,500.1,88.3,502.1,73.2,503.5C73.3,503.5,73.3,503.5,73.2,503.5z
	 M73.6,447.3c0.2,9.1,0.4,18.3,0.5,26.5l0,0.5c0.2,8.5,0.3,17,0.5,25.5l0,0.8c0,0,4.6-0.5,5.7-0.6c16.9-1.8,33.6-3.9,49.7-6.2
	c8.9-1.3,16.9-2.4,24.8-3.7c3.6-0.6,7.9-1.4,12.2-2.3c0.7-0.2,1.4-0.3,2.1-0.5l0.1,0c3-0.6,6.1-1.3,8.8-2.5c2-0.8,1.7-4.4,1.6-6.7
	c0-0.5-0.1-0.9-0.1-1.2c0-2,0-4,0-6.1c0-4,0-8.1,0.1-12.1c0-8.7,0-17.2,0-25.3c0-11.8-0.1-20.1-0.2-33.8l0-2.5l-0.3-0.2
	c-0.3-0.2-0.4-0.5-0.4-0.9c0-1.3-0.1-2.9-0.1-4.5c-0.1-2.7-0.2-5.4-0.1-7.4l0-0.9l-0.9,0.1c-15.3,1.2-31.3,2.1-46.8,3l-0.1,0
	c-18.5,1.1-37.5,2.2-56,3.7l-0.7,0.1l0,0.7c-0.1,4.3-0.2,7.3-0.4,11.2l0,0.7l-0.5-0.1l0,0.9c0,2.8,0.2,5.7,0.3,8.5
	c0.2,3.9,0.4,7.8,0.3,11.6c0,2.7-0.1,5.4-0.1,8.2l0,0.1c0,4.9-0.1,9.9-0.2,14.8L73.6,447.3L73.6,447.3z"/>
<path d="M63.9,515.3c-0.8,0-1.5-0.9-1.5-1.7l0-0.6l-0.4-0.1c-0.1,0-0.2,0-0.3-0.1c-8.2-3-16.4-6.6-24.3-10c-1.3-0.6-2.7-1.2-4-1.7
	c0.1-1.2,0.2-2.4,0.2-3.7c1.8,0.7,3.7,1.5,5.5,2.2c7.5,3,15.3,6.2,22.7,9.6l0.6,0.3l0-0.7c-0.1-6.2-0.1-12.4-0.2-18.6l0-1.8
	c-0.4-34.9-0.8-71-0.4-106.4l0-0.9l-0.7,0.5c-0.3,0.2-0.7,0.4-1.1,0.4c-0.2,0-0.5-0.1-0.7-0.2c-2-0.9-3.9-1.8-5.8-2.6
	c-7.3-3.3-14.2-6.5-22.1-7.7l-0.5-0.1l0,0.5c0.2,10.7,0.1,22.1,0,33.1c-0.1,10.7-0.2,21.7-0.1,32c0.2,11.3,0.3,22.5,0.4,33.3
	c0,3.9,0,7.8,0.1,11.6l0,4.6c0,1.1,0,2.3,0.1,3.5l0,0.1c0.2,4,0.3,8.1-0.9,11.6c-0.1,0.3-0.4,0.3-0.4,0.3c-0.2,0-0.3-0.1-0.4-0.3
	c-1.3-3.7-1.3-8-1.2-12.2c0-1.4,0-2.7,0-4l-0.1-4.1c-0.1-4-0.2-8-0.3-12.1c-0.2-10.3-0.4-20.8-0.6-32.3c-0.2-11.1-0.1-22.9,0-34.2
	l0-0.1c0.1-11,0.2-22.5,0-33.3c0-0.8,0.4-1.2,0.8-1.4l0.1-0.1l0-0.2c0.1-0.2,0.2-0.6,0.7-0.6c0.2,0,0.4,0.1,0.6,0.2c0,0,0,0,0.1,0.1
	l0.1,0.3l0.3,0c0.4,0.1,0.8,0.1,1.2,0.2l0.1,0c0.6-0.1,1.1-0.1,1.1-0.1l1-0.1c1-0.1,2-0.2,3-0.3l1.4-0.1c2.2-0.2,4.4-0.4,6.5-0.6
	c2.6-0.3,5.1-0.4,7.4-0.5c2.4-0.1,4.8-0.3,7.4-0.5c4.8-0.5,9.8-0.6,14.5-0.7c5.3-0.1,10.7-0.3,16.1-0.9c7.6-0.8,15.2-1.4,22.7-2
	c9.7-0.7,19.8-1.5,29.6-2.8c2.4-0.1,4.7-0.3,6.5-0.4c0.3,0.1,0.7,0.1,1,0.1c0.2,0,0.5,0,0.7,0c1.1-0.1,2.2-0.3,3.2-0.4l0.6,0
	l0.1,0.1l0.3,0c0.7-0.1,1.5-0.1,2.4-0.1c0.6,0,1.2,0,1.7,0c0.4,0,0.8,0,1.1,0c1,0,2.1,0.1,3.4,0.1c1.6,0.6,3.3,0.9,4.9,1.3l0.1,0
	c0.9,0.2,1.9,0.4,2.8,0.6c2.5,0.7,4.9,1.7,7.3,2.6c1.7,0.7,3.5,1.4,5.3,2c1.4,0.5,2.6,1.1,3.9,1.8c1,0.5,2,1,3.1,1.5
	c0.1,0.1,0.2,0.2,0.3,0.3c0.1,0.2,0.2,0.3,0.3,0.5c0.2,1.1,0.4,2,0.5,2.9c0.3,1.6,0.6,2.9,0.7,5.1c0.1,3.2,0.2,7.8,0.3,11.9l0.1,3.7
	l0,1.2c-0.3,7.5-0.6,15.3-0.4,23c0,0.2,0,0.4,0.1,0.6c-0.1,3.8-0.2,7-0.2,10.3l0,0.7c0,2-0.1,4-0.1,6.2l-1.2,50.3c0,0.6,0,1.2,0,1.9
	c0.1,2.9,0.1,6-2,7.7c-1.8,1.4-4.5,2.2-6.8,2.8c-0.7,0.2-1.4,0.4-2,0.6c-7.3,2.2-14.9,4.1-22.6,5.6c-19.2,3.8-39.1,5.7-58.2,7.6
	c-11.4,1.1-23.2,2.2-34.7,3.8C63.9,515.3,63.9,515.3,63.9,515.3z M186.7,372.5c-10.4,1.3-20.9,1.7-31.2,2.1
	c-10.1,0.4-20.6,0.8-30.9,2.1c-13.4,1.6-27,2.2-40.3,2.8c-6.9,0.3-13.9,0.6-20.9,1l-0.4,0l0,0.4c1.3,35.7,1.8,72,2.3,107.1
	c0.1,7.7,0.2,15.5,0.3,23.2l0,0.5l0.5-0.1c11-1.5,22.3-2.5,33.2-3.6c3.5-0.3,7-0.7,10.5-1c15-1.5,31-3.2,46.9-6.5
	c8.5-1.7,15.9-3.6,22.7-5.8c0.5-0.2,1-0.3,1.5-0.5c1.5-0.4,3-0.9,4.5-1.5c1.6-0.7,1.5-3.3,1.4-5.1c0-0.4,0-0.8,0-1.1l0.3-12.1
	c0.4-17.8,0.8-37.7,1.3-58.7l0.1-2.4l-0.1-0.1c-0.2-0.2-0.3-0.5-0.3-0.9c-0.5-7.4-0.8-14.3-1-21.1c-0.1-4.1-0.2-7.7-0.2-11.1
	c0-0.4,0-0.8,0-1.2c0-2,0-3.8,0.3-5.9l0.1-0.6L186.7,372.5z M153.2,362.1L153.2,362.1c-9.9,0.8-18.8,1.5-27.3,2.2
	c-15.1,1.2-29.4,2.3-45.1,3.8c-7,0.7-13.2,0.9-19.7,1.2c-4.8,0.2-9.6,0.4-14.9,0.7c-1.3,0.1-4.1,0.3-4.1,0.3L42,371l0.1,0
	c4.8,1.1,8.6,3,12.7,5c1.9,1,4,2,6.2,2.9l0.1,0.1l0.6,0.3l0-1.6c0-0.5,0.3-0.6,0.6-0.6c0.1,0,0.6,0,0.6,0.6l0,1.2l0.5-0.1
	c11.5-2.1,23.3-2.8,34.7-3.4c8.7-0.5,17.7-0.9,26.5-2.1c10.8-1.4,21.1-1.8,32.1-2.3c8.8-0.4,17.9-0.7,27.3-1.7l0.1,0l0-0.9l-0.1,0
	c-2.4-0.2-4.9-1.1-7.4-2.1c-2-0.8-4-1.6-6-1.9c-1.6-0.3-3.2-0.7-4.7-1.1c-2.3-0.6-4.8-1.2-7.2-1.4c-0.4,0-0.8,0-1.3,0
	c-0.4,0-0.8,0-1.2,0c-0.4,0-0.9,0-1.3,0C154.3,362.1,153.7,362.1,153.2,362.1L153.2,362.1L153.2,362.1z"/>
<path d="M275.6,495.7c-0.6,0-1.1-0.7-1.1-1.2c-0.1-9.3-0.3-19.2-0.4-27.2l0-0.9c-0.1-6.5-0.2-13.1-0.3-19.6l0-0.2l-0.1-0.2
	c-0.1-0.2-0.1-0.3-0.1-0.6l0-3.9c0-7.5,0-15.3,0.2-22.9c0.1-2.7,0-5.4,0-8.1c-0.1-3.4-0.2-6.8,0-10.1l0.1-1l-0.4,0.1
	c0.2-4.4,0.3-8,0.4-12.9c0-0.7,0.5-1.3,1.3-1.3c15.3-1.2,31.1-2.3,46.4-3.2l0.2,0c18.6-1.2,37.9-2.4,56.1-4.1l0.1,0
	c0.6,0,1.1,0.7,1.1,1.2c0,1.8,0,3.4-0.1,5l-0.1,1.5l0.1-0.1l0,3c0,2.1,0.1,4.2,0.1,6.7c0.2,15.5,0.2,35.3,0.2,51.8
	c0,8.4-0.1,16.2-0.1,24c0,0.5,0,1,0,1.5c0.1,2.5,0.2,5.6-1.8,6.8c-2.1,1.3-4.9,1.9-7.5,2.5c-0.6,0.1-1.1,0.3-1.7,0.4
	c-13,3.1-26.5,4.9-39.6,6.7l-0.5,0.1c-1.7,0.2-3.5,0.5-5.2,0.7C305.2,492.5,289.8,494.3,275.6,495.7
	C275.6,495.7,275.6,495.7,275.6,495.7z M275.8,442.5c0.2,8.2,0.4,16.6,0.5,24.7l0,0.4c0.2,8.2,0.3,16.4,0.5,24.6l0,0.8l1.7-0.2
	c1.3-0.1,2.5-0.3,3.8-0.4c16-1.7,31.8-3.7,47.1-5.8c6.9-1,15.4-2.2,23.5-3.6c3.4-0.6,7.5-1.3,11.6-2.2c0.6-0.1,1.3-0.3,1.9-0.4
	l0.1,0c2.8-0.6,5.7-1.2,8.4-2.3c1.9-0.8,1.7-4.2,1.5-6.4c0-0.4-0.1-0.9-0.1-1.1l0-5.8c0-3.8,0-7.7,0.1-11.5c0-8.5,0-16.4,0-24
	c0-11.1-0.1-19.3-0.2-31.7l0-2.8l-0.3-0.2c-0.3-0.2-0.4-0.5-0.4-0.8c0-1.2-0.1-2.7-0.1-4.3c-0.1-2.5-0.2-5.1-0.1-7l0-0.9l-0.9,0.1
	c-14.5,1.1-29.7,2-44.4,2.9l-0.1,0c-17.5,1-35.6,2.1-53.1,3.5l-0.7,0.1l0,0.7c-0.1,4-0.2,6.9-0.4,10.5l0,0.6l-0.5-0.1l0,0.9
	c0,2.7,0.2,5.4,0.3,8c0.2,3.6,0.4,7.4,0.3,11c0,2.6-0.1,5.2-0.1,7.8l0,0.1c0,4.6-0.1,9.3-0.2,14L275.8,442.5L275.8,442.5z"/>
<path d="M266.7,506.9c-0.8,0-1.4-0.9-1.4-1.6l0-0.6l-0.4-0.1c-0.1,0-0.2,0-0.3-0.1c-7.8-2.9-15.6-6.2-23.1-9.5l-3.8-1.6
	c0.1-1.1,0.2-2.2,0.2-3.5c1.7,0.7,3.4,1.4,5.2,2.1c7.1,2.9,14.5,5.9,21.5,9.1l0.6,0.3l0-0.7c-0.1-5.8-0.1-11.6-0.2-17.4l0-2
	c-0.4-33.1-0.7-67.3-0.4-100.9l0-0.9l-0.7,0.5c-0.3,0.2-0.7,0.4-1,0.4c-0.2,0-0.5-0.1-0.7-0.1c-1.8-0.8-3.7-1.6-5.5-2.5l-0.1,0
	c-6.9-3.2-13.5-6.2-21-7.3l-0.5-0.1l0,0.5c0.2,10.1,0.1,20.9,0,31.3c-0.1,10.2-0.2,20.6-0.1,30.4c0.1,10.6,0.3,21.2,0.4,31.6
	c0,3.7,0,7.4,0.1,11.1l0,4.2c0,1.1,0,2.2,0.1,3.4c0.1,3.8,0.3,7.7-0.8,11c-0.1,0.3-0.3,0.3-0.4,0.3c-0.2,0-0.3-0.1-0.4-0.3
	c-1.3-3.5-1.2-7.6-1.2-11.6c0-1.3,0-2.5,0-3.8l-0.1-4c-0.1-3.8-0.2-7.5-0.3-11.3c-0.2-9.6-0.4-19.6-0.6-30.6
	c-0.2-10.5-0.1-21.7,0-32.5l0-0.1c0.1-10.5,0.2-21.3,0-31.5c0-0.7,0.4-1.1,0.7-1.3l0.2-0.1l0-0.2c0.1-0.2,0.2-0.5,0.6-0.5
	c0.2,0,0.4,0,0.6,0.1c0,0,0,0,0,0.1l0.1,0.3l0.3,0c0.4,0.1,0.8,0.1,1.2,0.2l0.1,0c0.6-0.1,1-0.1,1-0.1l0.9-0.1
	c0.9-0.1,1.9-0.2,2.8-0.3l1.1-0.1c2.1-0.2,4.3-0.4,6.4-0.6c2.5-0.2,4.8-0.4,7-0.5c2.2-0.1,4.5-0.2,7.1-0.5c4.6-0.4,9.3-0.6,13.8-0.7
	c5-0.1,10.2-0.3,15.3-0.8c7.2-0.8,14.4-1.3,21.5-1.9c9.2-0.7,18.8-1.4,28.1-2.7c2.2-0.1,4.3-0.2,6.2-0.4c0.3,0.1,0.6,0.1,1,0.1
	c0.2,0,0.4,0,0.7,0c1-0.1,2-0.3,3.1-0.4l0.5,0l0.1,0.1l0.3,0c0.7-0.1,1.4-0.1,2.3-0.1c0.6,0,1.1,0,1.6,0c0,0,0.7,0,1,0
	c1,0,2,0,3.2,0.1c1.5,0.5,3.1,0.9,4.6,1.2c0.9,0.2,1.8,0.4,2.7,0.6c2.3,0.6,4.7,1.6,6.9,2.5c1.6,0.7,3.3,1.3,5,1.9
	c1.3,0.4,2.5,1,3.7,1.7c0.9,0.5,1.9,1,2.9,1.4c0.1,0.1,0.2,0.2,0.2,0.3c0.1,0.1,0.2,0.3,0.3,0.4c0.2,1,0.3,1.9,0.5,2.7
	c0.3,1.5,0.6,2.7,0.6,4.9c0.1,3.1,0.2,7.5,0.3,11.3c0,1.2,0,2.4,0.1,3.4l0,1.2c-0.3,7.2-0.5,14.5-0.4,21.8c0,0.2,0,0.4,0.1,0.6
	c-0.1,3.6-0.2,6.6-0.2,9.7l0,0.7c0,1.9-0.1,3.8-0.1,5.9l-1.1,47.7c0,0.6,0,1.2,0,1.8c0.1,2.7,0.1,5.7-1.9,7.3
	c-1.7,1.4-4.2,2-6.5,2.6c-0.7,0.2-1.3,0.4-1.9,0.5c-6.9,2.1-14.1,3.9-21.5,5.4c-18.2,3.6-37,5.4-55.2,7.2c-10.8,1-22,2.1-32.9,3.6
	C266.7,506.9,266.7,506.9,266.7,506.9z M383.1,371.5c-9.8,1.2-19.9,1.6-29.6,2c-9.6,0.4-19.5,0.8-29.3,1.9
	c-12.7,1.5-25.6,2.1-38.2,2.6c-6.5,0.3-13.2,0.6-19.8,1l-0.4,0l0,0.4c1.2,33.8,1.7,68.2,2.2,101.5c0.1,7.4,0.2,14.7,0.3,22l0,0.5
	l0.5-0.1c10.5-1.4,21.1-2.4,31.5-3.4c3.4-0.3,6.7-0.6,10-1c14.2-1.4,29.4-3.1,44.5-6.1c8-1.6,15.1-3.4,21.5-5.5
	c0.5-0.1,0.9-0.3,1.4-0.4l0.1,0c1.4-0.4,2.9-0.9,4.3-1.5c1.6-0.7,1.5-3.1,1.4-4.9c0-0.4,0-0.8,0-1.1l0.3-11.5
	c0.4-16.4,0.8-34.6,1.2-53.9l0.1-4.1l-0.1-0.1c-0.2-0.2-0.3-0.5-0.3-0.8c-0.4-7-0.8-13.6-1-20c-0.1-3.9-0.2-7.3-0.2-10.5l0-1.1
	c0-1.9,0-3.6,0.2-5.6l0.1-0.6L383.1,371.5z M351.4,361.6L351.4,361.6c-9.5,0.8-17.8,1.4-25.9,2.1l-0.1,0
	c-14.3,1.1-27.9,2.2-42.7,3.6c-6.6,0.6-12.5,0.9-18.7,1.1c-4.5,0.2-9.1,0.4-14.1,0.7c-1.3,0.1-3.9,0.3-3.9,0.3l-0.1,0.9l0.1,0
	c4.5,1.1,8.2,2.9,12,4.8c1.8,0.9,3.7,1.9,5.9,2.8l0.1,0.1l0.7,0.4l0-1.6c0-0.5,0.5-0.5,0.6-0.5c0.1,0,0.5,0,0.6,0.5l0,1.1l0.5-0.1
	c10.9-2,22-2.6,32.9-3.2c8.3-0.4,16.8-0.9,25.2-2c10.2-1.3,20-1.7,30.4-2.2c8.4-0.3,17-0.7,25.9-1.6l0.1,0l0-0.9l-0.1,0
	c-2.3-0.1-4.7-1.1-7-2c-1.9-0.7-3.9-1.5-5.8-1.8c-1.5-0.2-3-0.6-4.4-1c-2.2-0.6-4.5-1.2-6.8-1.3c-0.4,0-0.8,0-1.2,0
	c-0.4,0-0.8,0-1.2,0l-0.1,0c-0.4,0-0.8,0-1.1,0C352.4,361.6,351.9,361.6,351.4,361.6L351.4,361.6L351.4,361.6z"/>
</svg>
