<?xml version="1.0" encoding="utf-8"?>
<!-- Generator: Adobe Illustrator 19.0.0, SVG Export Plug-In . SVG Version: 6.00 Build 0)  -->
<svg version="1.1" id="Layer_1" xmlns="http://www.w3.org/2000/svg" xmlns:xlink="http://www.w3.org/1999/xlink" x="0px" y="0px"
	 viewBox="-123 265.7 364.5 263.3" style="enable-background:new -123 265.7 364.5 263.3;" xml:space="preserve">
<style type="text/css">
	.st0{fill:#231F20;}
</style>
<path class="st0" d="M34.2,338.1c-1.2,0-2.4,0-3.6-0.1l-1.2,0c-0.3,0-0.6,0-0.9,0l-1,0c-1.2,0-2.6,0-3.6-0.5
	c-0.2-0.1-0.3-0.2-0.3-0.4c0-0.1,0.1-0.2,0.3-0.3c1.1-0.4,2.4-0.5,3.7-0.5l0.9,0c0.3,0,0.6,0,0.9,0l0.7,0l1.5-0.1
	c0.9,0,1.8-0.1,2.6-0.1c0.4,0,0.9,0,1.3,0c0.7,0,0.9,0.6,0.9,1c0,0.1,0,0.9-0.9,0.9C35.1,338.1,34.6,338.1,34.2,338.1L34.2,338.1z
	 M29.8,335.4c-0.1-0.1-0.2-0.2-0.2-0.4c-0.3-1.3-0.2-2.5-0.2-3.9c0-0.4,0-0.8,0-1.3c0-2.2,0-3.9-0.1-5.6c-0.1-2.2-0.2-4.5-0.4-7.3
	l-0.1-1.7l-0.9,1.4c-0.9,1.4-1.6,3-2.2,4.8c-0.1,0.2-0.2,0.3-0.4,0.3c-0.1,0-0.3-0.1-0.3-0.2c-0.1-0.1-0.1-0.2-0.1-0.4
	c0.4-3,1.7-5.9,4.1-8.8c0.2-0.2,0.3-0.3,0.5-0.3c0.5,0,1,0.5,1.1,1c0.5,3.5,0.8,7.2,1,11c0,0.7,0.1,1.5,0.1,2.2
	c0.2,2.9,0.4,5.9-0.3,8.4c0,0.2-0.1,0.3-0.3,0.4l-0.7,0.7L29.8,335.4z"/>
<path class="st0" d="M86.2,339.4c-1,0-1.9-0.1-2.8-0.2c-0.3-0.1-0.4-0.4-0.4-0.6c0-0.1,0-0.5,0.4-0.5c1.1-0.2,2.2-0.3,3.2-0.4
	c0.7-0.1,1.3-0.1,2-0.2l0.8-0.1l-0.3-0.7c-0.1-0.1-0.1-0.3-0.1-0.5c-0.1-2.3,0.3-4.6,0.7-6.9c0.2-1.2,0.4-2.5,0.6-3.8
	c0.1-0.5,0.1-1.1,0.2-1.6c0.3-2.2,0.7-4.7,0.1-6.8l-0.2-0.7l-0.6,0.4c-1.7,1.1-3.2,2.4-4.9,4.2c-0.1,0.1-0.2,0.2-0.4,0.2
	c-0.2,0-0.5-0.1-0.6-0.4c-0.1-0.2-0.1-0.4,0-0.5c1.4-2.4,3.6-4.6,6.4-6.3c0.2-0.1,0.3-0.2,0.5-0.2c0.4,0,0.7,0.2,1,0.6
	c1.8,2.6,1.4,6.1,1,9.2c0,0.4-0.1,0.8-0.1,1.1c-0.1,0.8-0.2,1.7-0.2,2.5c-0.3,3-0.5,6.2-1.4,9l-0.3,0.9l0.9-0.2
	c0.7-0.2,1.5-0.3,2.3-0.3c0.1,0,0.3,0,0.4,0c0.5,0,0.8,0.4,0.9,0.8c0.1,0.2,0,0.6-0.4,0.8c-1.5,0.9-3.6,1.1-5.4,1.2l-0.4,0
	C88.1,339.3,87.1,339.4,86.2,339.4L86.2,339.4z"/>
<path class="st0" d="M-8.7,385.6c-0.6,0-1.1-0.1-1.5-0.2c-0.2-0.1-0.3-0.2-0.3-0.3c0-0.1,0-0.3,0.2-0.4c0.8-0.6,1.9-0.8,2.9-1
	l0.5-0.1v-0.5c0.2-3.4,0.6-6.8,1.1-10.1c0.1-0.9,0.3-1.9,0.4-2.8c0.4-3.5,0.6-6.8,0.6-10.2l0-1.2l-0.9,0.8c-0.9,0.8-1.9,1.6-2.9,2.3
	C-8.8,362-8.9,362-9,362c-0.1,0-0.2-0.1-0.3-0.2c-0.1-0.2-0.1-0.4,0-0.6c0.8-1,1.7-2,2.6-2.9c0.6-0.6,1.3-1.3,1.9-2
	c0.1-0.2,0.4-0.2,0.6-0.2c0.4,0,0.8,0.2,0.9,0.6c0.8,4.3,0.4,8.9-0.1,13.2l-0.1,1.1c-0.4,3.9-0.9,7.9-1.6,11.8l-0.1,0.8l0.8-0.1
	c1.9-0.3,3.4-0.4,4.9-0.4c0.7,0,0.8,0.5,0.8,0.7c0,0.4-0.2,1-0.9,1c-1.4,0.2-2.9,0.3-4.3,0.4c-0.6,0-1.2,0.1-1.8,0.1
	c-0.4,0-0.8,0.1-1.2,0.1C-7.4,385.5-8,385.6-8.7,385.6L-8.7,385.6z"/>
<path class="st0" d="M54.3,384.3c-1.7,0-3.5-0.2-5.1-0.6c-0.5-0.1-0.5-0.5-0.5-0.7c0-0.2,0.2-0.7,0.7-0.7c0.7,0,1.4,0,2.1,0
	c1.2,0,2.4,0,3.6-0.1l0.5,0l0-0.5c0-2.3,0.2-4.6,0.3-6.8c0.1-1.8,0.3-3.8,0.3-5.6c0.1-2.5,0.1-4.5,0-6.3c0-0.4,0-0.7,0-1.2
	c0-0.7,0.1-1.5,0-2.3l-0.1-1.2l-0.8,0.9c-0.6,0.6-1.1,1.2-1.6,1.9c-0.6,0.7-1.2,1.4-1.8,2c-0.1,0.1-0.3,0.2-0.4,0.2
	c-0.2,0-0.5-0.1-0.6-0.3c-0.1-0.1-0.1-0.3,0-0.4c0.9-2.4,2.9-4.6,4.9-6.5c0.2-0.2,0.5-0.3,0.8-0.3c0.2,0,0.5,0,0.7,0.3
	c1.2,1.3,1.2,2.9,1.3,4.7l0,0.2c0.1,2.7,0.1,4.9,0.1,6.9l0,1.2c0,4-0.1,8.2-0.7,12.1l-0.1,0.8l0.8-0.1c0.7-0.1,1.5-0.2,2.3-0.3h0
	c0.4,0,0.7,0.4,0.8,0.8c0.1,0.2,0,0.6-0.3,0.7C59.5,383.8,57,384.3,54.3,384.3L54.3,384.3z"/>
<path class="st0" d="M83.8,383.9c-2,0-3.5-0.7-4.5-2c-2.6-3.5-1.2-10.8-0.1-14.5c1-3.1,2.5-7,5.2-9.3c1.2-1,2.8-1.6,4.2-1.6
	c1.1,0,2.1,0.4,2.8,1l0.1,0.1l0.2,0c1.3,0.1,2.5,0.6,3.6,1.4c2.5,1.9,3.1,4.9,1.8,9.3c-1.1,3.7-2.8,7-5,9.9
	c-2.1,2.6-4.9,5.6-8.3,5.7L83.8,383.9z M94,364.8c-0.4,0.4-0.7,0.8-1.1,1.2l-1,1.1c-1.1,1.2-2.1,2.4-3.1,3.5c-0.9,1-1.8,2-2.6,3
	c-1.7,2-3.5,4-5.3,6l-0.3,0.3l0.2,0.4c0.5,0.9,1.4,1.4,2.4,1.4c0.4,0,0.8-0.1,1.3-0.2c2.6-0.8,4.5-3,6-5c1.7-2.2,3-4.6,3.8-7
	l0.2-0.5c0.4-1.3,1-2.8,1-4.3l0.1-1.5L94,364.8z M84.6,360.6c-1.8,2.2-2.8,5.5-3.4,7.8c-0.4,1.6-1.1,5.1-1,8l0,1.5l1-1.2
	c2.3-2.9,4.8-5.6,7-7.9c1.5-1.6,2.9-3.1,4.3-4.5c0.2-0.2,0.5-0.5,0.7-0.7c0.5-0.5,0.9-1,1.4-1.4l0.4-0.4l-0.4-0.4
	c-1-0.9-2.3-1.4-3.8-1.4c-1.3,0-2.7,0.3-4.3,1c-0.1,0-0.2,0.1-0.3,0.1c-0.3,0-0.5-0.2-0.6-0.4L85,360L84.6,360.6z"/>
<path class="st0" d="M26.2,382.2c-0.9,0-1.8-0.2-2.7-0.7c-2-1.1-3.4-2.7-4-4.9c-1.3-4.3,0.5-9.7,2.3-13c1.7-3.1,3.8-5.2,6.3-6.3
	c0.8-0.4,1.6-0.7,2.4-0.7c0.4,0,0.7,0.1,1,0.2c0.5,0.2,0.5,0.6,0.4,1l-0.1,0.5l0.5,0.2c0.6,0.2,1.2,0.5,1.8,0.9l0.2,0.2l0.3-0.1
	c0,0,0.1,0,0.1,0c0.1,0,0.3,0.1,0.3,0.2c0,0.1,0.1,0.1,0,0.2l-0.1,0.3l0.2,0.2c0.3,0.3,0.5,0.6,0.8,0.9c1.8,2.5,2.2,6.1,1.1,9.3
	C35.6,374.9,31.3,382.2,26.2,382.2L26.2,382.2z M33.5,363.1c-1.3,2.2-3,4.2-4.5,6c-2.2,2.5-4.5,4.8-7.1,6.9l-0.3,0.3l0.2,0.4
	c0.8,1.8,2,2.8,3.5,3.1c0.2,0,0.5,0.1,0.7,0.1c2.3,0,4-2,5.1-3.4c1.4-1.9,3-4.2,3.7-6.6c0.5-1.9,0.9-4.6-0.4-6.7l-0.5-0.8
	L33.5,363.1z M26.7,359.9c-0.5,0.4-0.8,0.8-1.2,1.2c-1.4,1.7-2.5,3.8-3.3,5.9c-0.7,2-1.3,4.1-1.3,6.1l0,1.2l0.9-0.8
	c2.2-2,4.1-3.8,5.8-5.8c1.1-1.3,2.2-2.7,3.2-4.1c0.5-0.6,1-1.3,1.4-1.9l0.4-0.5l-0.6-0.3c-0.8-0.4-1.6-0.6-2.4-0.6
	c-0.4,0-0.7,0-1.1,0.1c-0.1,0-0.2,0-0.3,0c-0.5,0-0.8-0.3-0.9-0.5l-0.4-0.6L26.7,359.9z"/>
<path class="st0" d="M-4.2,340.9c-2.4,0-4.3-0.9-5.6-2.5l-0.4-0.5c0,0-1,0.9-1.2,1.1c-0.2,0.2-0.4,0.2-0.6,0.2
	c-0.3,0-0.7-0.2-0.8-0.5c-0.1-0.3-0.1-0.6,0.2-0.9c0.5-0.5,0.9-1,1.4-1.5l0.2-0.2l-0.1-0.3c-0.8-3-0.2-6.1,0.5-8.2
	c2.2-6.4,7.1-12.8,13.2-12.8c0.5,0,1.1,0,1.6,0.1c0.1,0,0.2,0.1,0.3,0.2c0.1,0.2,0.1,0.4,0,0.6l-0.3,0.6l0.6,0.2
	c1.1,0.4,2.1,1,3,1.8l0.1,0.1l0.2,0c0.2,0,0.4,0.2,0.4,0.4l0,0.2l0.1,0.1c1.9,2.1,2.8,4.8,2.5,7.3c-0.7,7.1-6.7,13.3-13.9,14.4
	C-3.2,340.8-3.7,340.9-4.2,340.9L-4.2,340.9z M6.6,321.2c-0.6,0.6-1.2,1.2-1.8,1.8c-0.4,0.4-0.8,0.8-1.1,1.1
	c-1.2,1.2-2.4,2.4-3.6,3.7l-1.3,1.3c-0.7,0.7-1.5,1.5-2.2,2.2c-1.5,1.5-3,3.1-4.6,4.6l-0.4,0.3l0.3,0.4c0.9,1.2,2.3,1.9,3.9,1.9
	c0.6,0,1.2-0.1,1.8-0.2c4.9-1.3,10.3-5.2,11.2-11.2c0.3-2.2-0.1-4.3-1.2-5.9l-0.4-0.6L6.6,321.2z M-2,318.1
	c-2.8,2.1-5.1,5.6-6.3,9.4c-0.6,1.8-1.1,3.7-1,5.7l0.1,1.2l0.9-0.9c1.2-1.2,2.5-2.4,3.8-3.6c0.8-0.8,1.7-1.6,2.5-2.4l1.1-1
	c1.3-1.3,2.7-2.6,4-3.8c0.3-0.3,0.7-0.7,1-1c0.5-0.5,1-0.9,1.4-1.4l0.6-0.5l-0.6-0.4c-1.1-0.7-2.3-1-3.5-1c-0.7,0-1.4,0.1-2.1,0.4
	c-0.1,0-0.2,0.1-0.3,0.1c-0.5,0-0.7-0.4-0.8-0.5l-0.3-0.6L-2,318.1z"/>
<path class="st0" d="M59.1,341.9c-1.9,0-3.4-0.7-4.6-2.1c-0.5-0.7-0.9-1.4-1.2-2.3l-0.1-0.3l-0.3-0.1c-0.3-0.1-0.6-0.3-0.7-0.7
	c-0.1-0.2-0.1-0.6,0.2-1l0.6-0.8l0-0.2c0-1.5,0.4-3.1,0.7-4.4c1.4-5.9,3.3-10.2,6-13.1l0.2-0.2l0-0.2c0-0.4,0.2-0.9,0.7-1
	c0.3-0.1,0.5-0.1,0.8-0.2l0.1,0l0.1-0.1c0.9-0.7,1.9-1.3,3-1.7c0.1,0,0.2-0.1,0.3-0.1c0.1,0,0.2,0.1,0.3,0.2
	c0.2,0.2,0.3,0.4,0.2,0.7l0,0.5l0.5,0.1c1.5,0.1,2.7,0.7,3.7,1.6c2.2,2.1,3,5.2,2.3,9.3c-1.4,8.2-4.3,13.3-8.7,15.2
	C61.8,341.6,60.4,341.9,59.1,341.9L59.1,341.9z M68.3,320.2c-1.2,1.7-2.7,3.2-4.1,4.8c-0.8,0.8-1.5,1.7-2.2,2.5l-1.6,1.9
	c-1.6,1.9-3.3,3.9-5.1,5.8l-0.2,0.2l0,0.3c0.1,0.4,0.1,0.8,0.3,1.1c0.6,1.9,2,2.9,3.9,2.9c1.1,0,2.3-0.4,3.4-1.1
	c4.3-2.8,5.7-8,6.5-11.7c0.4-1.9,0.9-4.5,0.1-6.6l-0.4-1L68.3,320.2z M64.2,317.2c-0.8,0-1.5,0.1-2,0.1l-0.2,0l-0.1,0.1
	c-2.6,2.7-4.3,6.1-5.5,10.6c-0.1,0.4-0.2,0.7-0.3,1.1l-0.1,0.5l0.9,0.5c0.7-0.8,1.4-1.6,2.1-2.3l1.7-1.9c0.7-0.8,1.4-1.6,2.2-2.5
	c1.4-1.7,2.9-3.4,4.5-4.8l0.6-0.5l-0.7-0.4C66.4,317.5,65.4,317.2,64.2,317.2z"/>
<path class="st0" d="M-2.8,418.9c-2-0.1-4.4-1.2-4.7-3.8c-0.4-2.9,0.9-6.1,1.7-7.7c1.1-2.3,2.6-4.2,4.5-5.9l0.4-0.3l-0.3-0.4
	c-0.2-0.3-0.3-0.7-0.2-1c0.1-0.2,0.3-0.3,0.5-0.4c0.8-0.2,1.6-0.2,2.4-0.2c0.2,0,0.6,0,0.6,0l0.1,0c0.4-0.2,0.8-0.2,1.2-0.2
	c0.5,0,0.9,0.1,1.4,0.4c0.2,0.1,0.3,0.2,0.3,0.4l0.1,0.2l0.2,0.1c0.5,0.3,1,0.6,1.4,0.9c2.1,1.9,2.8,4.6,2,7.2
	c-0.9,2.8-2.4,5.2-4.2,7c-2.7,2.5-5,3.8-7,3.8C-2.5,418.9-2.7,418.9-2.8,418.9z M5.6,404.7c-0.9,1.1-1.9,2.1-2.9,3.1
	c-0.5,0.5-1,1-1.4,1.5l-1.1,1.1c-1.5,1.6-3,3.3-4.7,4.8l-0.5,0.4l0.5,0.4c0.4,0.3,1,0.5,1.6,0.5c0.5,0,1-0.1,1.6-0.3
	c3.4-1.4,6.4-4.6,7.5-8.1c0.4-1.3,0.5-2.3,0.3-3.2l-0.2-1.1L5.6,404.7z M1.4,401.5c-1,0.7-1.9,1.7-2.3,2.3c-1.2,1.4-2.2,2.8-2.8,4.2
	c-0.7,1.5-1.1,2.8-1.4,4l-0.4,1.9l1.3-1.4c1.1-1.2,2.3-2.4,3.5-3.5l1.3-1.3c0.4-0.4,0.8-0.9,1.3-1.3c1-1,2-2,3-3l0.5-0.5l-0.6-0.4
	c-0.9-0.5-1.8-0.9-3-1.1l-0.2,0L1.4,401.5z"/>
<path class="st0" d="M55,419.1c-1.6,0-2.8-0.6-3.8-1.9c-1.7-2.1-1.9-4.9-0.6-8.4c1-2.8,2.8-6.7,5.6-9.2l0.7-0.6l-0.9-0.3
	c-0.6-0.2-0.8-0.7-0.7-1.2c0-0.2,0.2-0.7,1-0.8c0.4,0,0.8,0,1.2,0c1.2,0,2.5,0.1,3.7,0.4l0.1,0l0.1,0c0.3,0,0.6-0.1,1-0.1
	c0.1,0,0.2,0,0.3,0c0.3,0,0.6,0.2,0.6,0.5l0.1,0.3l0.2,0.1c0.8,0.4,1.6,0.9,2.2,1.4l0.3,0.3l0.4-0.3c0.2-0.2,0.5-0.4,0.7-0.6
	c0.1-0.1,0.2-0.1,0.3-0.1c0.1,0,0.2,0.1,0.3,0.3c0.1,0.2,0.1,0.5,0,0.7c-0.2,0.3-0.4,0.5-0.6,0.8l-0.2,0.3l0.2,0.3
	c0.5,0.9,0.8,2,0.8,3.2c0,5.4-4.2,11.5-9.5,14C57.1,418.8,56,419.1,55,419.1L55,419.1z M52.4,415.2L52.4,415.2
	c0.7,1.1,1.6,1.6,2.7,1.6c1.4,0,2.8-0.9,3.9-1.7c2.6-1.9,7.4-6.8,6.3-11.4l-0.2-1l-0.7,0.7c-0.7,0.7-1.4,1.4-2.1,2.1
	c-0.6,0.6-1.1,1.1-1.7,1.7c-2.8,2.8-4.9,4.9-6.9,6.8c-0.2,0.2-0.4,0.3-0.6,0.3l-1.1-0.1L52.4,415.2z M59.7,399.4
	c-3.3,1.8-5.2,5.4-6.5,8.4c-0.5,1.1-1.1,2.6-1.3,4.1l-0.2,1.7l1.2-1.2c2.4-2.5,4.9-4.8,6.9-6.8c0.5-0.5,1-0.9,1.4-1.4
	c0.8-0.8,1.6-1.6,2.5-2.4l0.5-0.4l-0.5-0.4c-0.9-0.7-2-1.3-3.6-1.6l-0.2,0L59.7,399.4z"/>
<path class="st0" d="M25.3,461.2c-0.5,0-1,0-1.5-0.1c-1.8-0.3-3.4-1.2-4.4-2.5l-0.4-0.5l-0.9,1c-0.2,0.2-0.3,0.3-0.6,0.3
	c-0.4,0-0.8-0.2-0.9-0.6c-0.1-0.2-0.1-0.5,0-0.7c0.4-0.6,0.8-1.2,1.4-2l0.1-0.2l0-0.2c0-0.2,0-0.3,0-0.4c-0.2-2.8,0.6-6.1,2.5-10.1
	c1.5-3.3,3.5-6.2,5.8-8.6c0.4-0.4,0.7-0.8,1.1-1.2l0.2-0.2l0-0.2c0-0.6,0.4-1.2,1-1.2c0.1,0,0.2,0,0.3,0l0.3,0.1l0.2-0.2
	c1-0.6,1.8-1,2.7-1c0.5,0,1.1,0.1,1.6,0.4c0.2,0.1,0.3,0.3,0.3,0.5c-0.1,0.3-0.3,0.5-0.6,0.5c-0.2,0-0.3,0-0.5,0l-0.3,1.1
	c2.2,1,3.7,2.2,4.7,3.7c1.7,2.7,2,6.3,0.6,9.9C36.3,453.4,31.7,461.2,25.3,461.2L25.3,461.2z M33.7,443.6c-2.3,1.9-4.6,3.8-6.8,5.9
	c-2,2-4,4.1-5.8,6.2l-0.5,0.5l0.2,0.3c0.8,1.4,2.4,2.3,4.2,2.3c0.2,0,0.4,0,0.6,0c5.6-0.6,9.3-7.5,10.3-11.8
	c0.4-1.7,0.5-3.2,0.3-4.5l-0.2-0.9L33.7,443.6z M28.7,436.4c-0.9,1-1.7,2.1-2.3,2.9l-0.2,0.3c-1.6,2.1-2.9,4.4-3.9,6.7
	c-0.7,1.7-1.4,3.6-1.8,5.4l-0.4,1.9l1.3-1.4c1.3-1.4,2.8-2.8,4.5-4.4c2.4-2.2,5.5-4.9,9-7l0.5-0.3l-0.4-0.5
	c-0.2-0.2-0.4-0.4-0.6-0.6c-1.5-1.4-3.4-2.2-5-3l-0.4-0.2L28.7,436.4z"/>
<path class="st0" d="M81.3,458.2c-1.2,0-2.9-0.3-4.2-1.6c-2.5-2.6-2.4-6.3-1.8-9c1-4.3,2.5-7.8,4.6-10.4c1.3-1.6,2.8-2.9,4.4-3.8
	l0.4-0.2l-0.1-0.4c-0.1-0.3,0-0.7,0.2-1c0.3-0.3,0.6-0.5,1-0.5c0.2,0,0.3,0,0.5,0.1c0.4,0.2,0.7,0.3,1.1,0.5l0.2,0.1l0.2-0.1
	c0.2-0.1,0.4-0.1,0.7-0.2c0.5-0.1,1.2-0.2,1.8-0.2c0.8,0,1.4,0.2,1.8,0.6c0.2,0.2,0.4,0.5,0.4,0.9c0,0.3-0.2,0.6-0.4,0.8l-0.5,0.4
	l0.5,0.4c0.5,0.5,1,0.9,1.3,1.5l0.3,0.4l0.4-0.2c0.3-0.1,0.5-0.2,0.8-0.3c0.1,0,0.1,0,0.2,0c0.1,0,0.2,0.1,0.3,0.2
	c0.1,0.2,0.1,0.4,0,0.6c-0.2,0.3-0.4,0.5-0.7,0.7l-0.3,0.3l0.1,0.3c1.2,3,0.8,6.7-1.1,10.1c-2.5,4.5-4.9,7.4-7.5,8.8
	C84.4,457.7,82.8,458.2,81.3,458.2C81.3,458.2,81.3,458.2,81.3,458.2z M86.6,434.3c-1.1,0.5-2.1,1.2-2.9,1.9c-2,1.8-3.5,4-4.6,6.5
	c-0.4,0.8-3.4,8.2-1.2,11.6c0.7,1,1.7,1.6,3.2,1.6h0c2.4,0,4.6-1.2,6.6-3.7c1.8-2.1,3.5-4.5,4.3-7.1c0.4-1.2,0.8-3.1,0.5-4.8l-0.2-1
	l-1.1,0.9c-1.2,1.1-2.5,2.1-3.7,3.3c-2.3,2.1-4.5,4.5-7.2,7.4c-0.2,0.2-0.4,0.3-0.6,0.3c-0.4,0-0.7-0.3-0.9-0.6
	c-0.1-0.2-0.2-0.6,0.2-1c2.3-2.7,4.9-5.2,7.7-7.6c0.4-0.4,0.8-0.7,1.3-1.1c1-0.9,2-1.8,3.1-2.6l0.5-0.4l-0.4-0.4
	c-1.3-1.4-2.9-2.3-4.1-3l-0.2-0.1L86.6,434.3z"/>
<path class="st0" d="M23.2,422.9c-0.6,0-1.1-0.6-1.1-1.1c0-0.3,0.1-0.7,0.6-0.8c1.3-0.2,2.7-0.5,4-0.8l0.6-0.1l-0.2-0.6
	c-0.5-1.5-0.2-3.2,0.2-5l0.2-1c0.3-1.6,0.7-3.3,0.9-4.9c0.4-2.9,0.7-6,0.8-9.8l0-1l-0.9,0.5c-1.9,1.2-3.7,2.6-5,3.6
	c-0.1,0.1-0.2,0.1-0.3,0.1c-0.2,0-0.5-0.1-0.5-0.3c0,0,0-0.1,0.1-0.3c1.7-2.3,4-4.4,7.1-6.3c0.2-0.1,0.3-0.2,0.5-0.2
	c0.5,0,1,0.5,1.1,1.1c0.2,3.9,0,8-0.6,12.6c-0.3,2-0.7,3.9-1.1,5.9c-0.2,1.2-0.3,2.3-0.4,3.5c0,0.3-0.2,1.8-0.2,1.8l0.7-0.1
	c1.4-0.3,3.1-0.6,4.8-0.9c0,0,0,0,0,0c0.3,0,0.6,0.2,0.6,0.5c0,0.1,0,0.2-0.2,0.3c-3.2,1.5-7.1,2.6-11.7,3.4
	C23.3,422.9,23.2,422.9,23.2,422.9z"/>
<path class="st0" d="M81.4,416.7c-0.5,0-0.7-0.4-0.7-0.6c-0.1-0.4,0.1-0.9,0.6-1c0.8-0.3,1.8-0.5,2.8-0.7l0.4-0.1l0-0.4
	c0.2-2,0.6-3.9,0.9-5.8c0.2-0.8,0.3-1.6,0.5-2.4c0.2-1.1,0.4-2.2,0.6-3.3l0.6-3.7l-1.1,0.7c-0.9,0.6-2.1,1.3-3.3,1.7
	c-0.1,0-0.1,0-0.2,0c-0.3,0-0.4-0.2-0.4-0.3c-0.1-0.2-0.1-0.5,0.1-0.8c1.1-1.3,2.6-2.3,4-3.3c0.7-0.5,1.3-0.9,2-1.4
	c0.2-0.1,0.3-0.2,0.5-0.2c0.3,0,0.5,0.2,0.6,0.3c0.3,0.3,0.4,0.8,0.4,1.2c-0.3,2.7-0.8,5.5-1.3,8.1l-0.3,1.6c-0.1,0.7-0.2,1.3-0.3,2
	c-0.3,1.7-0.6,3.5-1,5.2l-0.2,0.7l0.7,0c1.7,0,3.4,0.3,4.7,0.7c0.3,0.1,0.3,0.3,0.3,0.4c0,0.2-0.1,0.4-0.4,0.4
	c-0.9,0.1-1.9,0.1-2.8,0.2c-0.8,0-1.7,0-2.5,0.1l-0.5,0.1l-0.2,0.1c-0.2,0.2-0.5,0.3-0.7,0.3l0,0c-0.2,0-0.3,0-0.4-0.1l-0.2-0.1
	l-0.3,0C83.4,416.5,82.4,416.6,81.4,416.7L81.4,416.7z"/>
<path class="st0" d="M-7.1,463.1c-0.5,0-0.7-0.5-0.8-0.9c0-0.4,0.1-0.9,0.6-1c1.5-0.3,3-0.6,4.5-0.9l0.5-0.1l0-0.5
	c-0.1-2.6,0.1-5.2,0.4-7.8c0.1-1.4,0.2-2.8,0.3-4.2c0.1-2.1,0.2-4.3,0.3-6.4c0-0.9,0.1-4,0.1-4l-1,1c-1,1-2,2-3,3
	c-0.1,0.1-0.2,0.1-0.4,0.1c-0.2,0-0.5-0.1-0.6-0.3c0-0.1-0.1-0.2,0.1-0.4c1.1-1.5,2.2-3.1,3.4-4.6l1.2-1.5c0.2-0.2,0.5-0.3,0.7-0.3
	c0.1,0,0.2,0,0.3,0c0.4,0.1,1.8,0.3,1.7,3.3c-0.1,2.5-0.1,5.1-0.3,7.8c0,1.2-0.1,2.4-0.1,3.6c-0.1,3.4-0.2,6.9-0.7,10.1l-0.1,0.7
	l0.7-0.1c1.1-0.1,2.1-0.2,3-0.2l0.5,0c0.5,0,0.6,0.4,0.6,0.5c0,0.2-0.1,0.6-0.4,0.7c-3.5,1.2-7.8,1.7-11.2,2.1L-7.1,463.1z"/>
<path class="st0" d="M51.6,457.2c-0.5,0-0.9-0.4-0.9-0.8c0-0.2,0-0.6,0.6-0.9c1.3-0.4,2.8-0.7,4.3-0.9l0.5,0l0-0.5
	c0-2,0.2-4.1,0.5-6.2c0.1-1,0.2-1.9,0.3-2.9c0.1-1.2,0.2-2.5,0.3-3.7c0.1-1.3,0.2-2.7,0.4-4l0.1-1.1l-1,0.6
	c-1.1,0.7-2.2,1.5-3.2,2.5c-0.2,0.1-0.3,0.2-0.5,0.2c-0.2,0-0.4-0.1-0.6-0.4c-0.1-0.1-0.2-0.4,0.1-0.8c1.5-2,3.4-3.6,5.7-4.8
	c0.2-0.1,0.4-0.1,0.6-0.1c0.3,0,0.7,0.1,0.9,0.4c0.2,0.2,0.2,0.4,0.2,0.7c-0.2,3.3-0.5,6.7-0.7,10l-0.1,1.3
	c-0.1,0.8-0.1,1.6-0.2,2.5c-0.1,1.9-0.2,4-0.6,5.9l-0.1,0.6l1.2,0c1.4,0,3.6,0,4.2,1.1c0.1,0.2,0.1,0.4-0.1,0.6
	c-0.2,0.2-0.3,0.2-0.5,0.2l0,0c-0.1,0-0.2,0-0.3-0.1l-0.1-0.1l-0.1,0c-0.1,0-0.2,0-0.3-0.1l-0.1,0l-0.7,0c-0.4,0-0.8,0-1.3,0h-0.1
	c-0.8,0-1.6,0-2.5,0.1l-0.1,0l-0.1,0c-0.1,0.1-0.2,0.1-0.4,0.1c-0.1,0-0.1,0-0.2,0l-0.1,0l-0.1,0c-1.2,0.1-2.3,0.3-3.4,0.5
	c-0.5,0.1-1,0.2-1.5,0.3C51.7,457.2,51.7,457.2,51.6,457.2z"/>
<path class="st0" d="M118.6,340.7c-3,0-5.5-1.8-6.5-4.6c-1-2.9-0.5-6.4,1.3-10.5c1.6-3.5,3.9-6.6,6.5-8.7c0.4-0.3,0.8-0.6,1.2-0.9
	l0.1-0.1l0.1-0.1c0.1-0.1,0.2-0.2,0.3-0.3c0.2-0.1,0.4-0.2,0.6-0.3c1.2-0.7,2.2-1.1,3.1-1.1c0.7,0,1.4,0.2,2.1,0.7
	c0.2,0.1,0.3,0.3,0.3,0.5l0,0.3l0.2,0.1c0.5,0.3,1,0.7,1.4,1.2l0.1,0.1l0.2,0c0.2,0,0.3,0.1,0.4,0.3c0.2,0.2,0.2,0.5,0.2,0.7l0,0.1
	l0.1,0.1c1.4,2.4,1.9,5.3,1.4,8.5c-1.1,6.4-6.1,13.4-12.5,13.9C119,340.7,118.8,340.7,118.6,340.7z M128,320.4c-0.8,1-1.7,2-2.5,2.9
	c-1.1,1.2-2.2,2.5-3.2,3.8c-1.1,1.3-2.2,2.7-3.2,4.1c-1.3,1.6-2.6,3.3-3.9,4.9l-0.3,0.4l0.3,0.4c0.9,1.1,2,1.6,3.4,1.6
	c0.5,0,1-0.1,1.5-0.2c4.4-1.3,8.2-5.9,9.3-11.1c0.5-2.6,0.4-4.8-0.3-6.6l-0.4-0.8L128,320.4z M123.8,316.9c-0.5,0-1,0.1-1.4,0.2
	l-0.3,0l-0.1,0.1c-0.9,0.8-1.8,1.7-2.3,2.3c-1.9,2.1-3.3,4.3-4.3,6.5c-0.9,2.1-1.9,4.8-1.7,7.2l0.1,1.5l0.9-1.2
	c2-2.8,4.3-5.5,6.3-7.8l0.3-0.3c1.9-2.2,3.8-4.4,5.9-6.5l0.4-0.4l-0.5-0.4C126.2,317.4,125,316.9,123.8,316.9z"/>
<path class="st0" d="M114.2,415.4c-1.1,0-2.1-0.2-3-0.7l-0.4-0.2l-0.6,0.6c-0.1,0.1-0.3,0.2-0.5,0.2c-0.3,0-0.7-0.2-0.9-0.5
	c-0.1-0.2-0.1-0.4,0.1-0.6l0.6-0.8l-0.2-0.3c-1.5-2-1.3-5.1-0.6-7.3c0.7-2.4,2.3-5.8,4.7-8.4l0.2-0.2l-0.1-0.3
	c-0.1-0.3-0.1-0.6,0-0.9c0.1-0.2,0.3-0.3,0.5-0.4c0.7-0.2,1.4-0.3,2.1-0.5l0.1,0l0.1,0c0.9-0.5,1.8-0.7,2.8-0.7c0.4,0,0.8,0,1.2,0.1
	c0.3,0.1,0.4,0.3,0.5,0.4l0.1,0.2l0.2,0.1c0.8,0.2,1.5,0.5,2.1,0.9c2.1,1.4,3.4,3.5,3.8,6.1c0.8,6-4.2,11-9.3,12.7
	C116.4,415.2,115.2,415.4,114.2,415.4z M122.9,400.5c-1,1.4-2.3,2.8-3.5,4.1c-0.7,0.8-1.4,1.5-2.1,2.3c-0.8,0.9-1.6,1.9-2.3,2.8
	c-0.7,0.8-1.4,1.7-2.1,2.5l-0.6,0.7l1,0.2c0.3,0.1,0.6,0.1,0.9,0.1c1.7,0,3.3-0.7,4.4-1.3c3.5-1.9,6.9-5.5,5.8-9.8
	c-0.1-0.5-0.3-1-0.5-1.4l-0.4-0.8L122.9,400.5z M116.5,397.3l-0.1,0.1c-1,0.8-1.8,1.9-2.4,2.7c-1.2,1.8-2.6,3.9-3.2,6.2
	c-0.4,1.8-0.5,3.2-0.2,4.3l0.3,1l0.7-0.8c1.3-1.6,2.7-3.1,4.1-4.6l0.5-0.6c0.5-0.5,1-1.1,1.5-1.7c1.4-1.6,2.9-3.3,4.5-4.6l0.6-0.5
	l-0.6-0.4c-1.2-0.8-2.7-1.2-5-1.2L116.5,397.3z"/>
<path class="st0" d="M111.9,456.5c-2,0-3.7-0.1-5.2-0.4c-0.1,0-0.2-0.1-0.2-0.2c0-0.2,0.1-0.4,0.4-0.4c1-0.1,1.9-0.1,2.9-0.2
	c1.2-0.1,2.3-0.1,3.5-0.2l0.9-0.1l-0.4-0.8c-0.1-0.1-0.1-0.3-0.1-0.5c0.1-2,0.4-4,0.7-6c0.3-1.8,0.5-3.7,0.7-5.5
	c0.2-2.6,0.3-5.2,0.3-7.7l0-1.6l-0.9,0.7c-1.6,1.2-3.2,2.6-4.9,4.6c-0.1,0.1-0.2,0.1-0.2,0.1c-0.1,0-0.3-0.1-0.3-0.2
	c-0.1-0.2,0-0.3,0-0.3c1.4-2.7,3.6-5,6.9-7.5c0.1-0.1,0.3-0.2,0.4-0.2c0.5,0,1,0.5,1,1.1c0.4,4.1,0.1,8.3-0.2,11.6l-0.1,0.8
	c-0.3,3.5-0.6,7.1-1.6,10.4l-0.3,0.9l0.9-0.1c0.3-0.1,0.7-0.1,1-0.2c1.4-0.3,2.8-0.6,4.2-0.6c0.1,0,0.3,0,0.4,0
	c0.4,0,0.7,0.4,0.8,0.7c0.1,0.4-0.2,0.5-0.3,0.6c-2.1,1-4.9,1.2-7.3,1.2l-0.5,0C113.5,456.5,112.7,456.5,111.9,456.5L111.9,456.5z"
	/>
<path class="st0" d="M121.8,379.9c-0.5,0-1.1,0-1.6,0c-0.5,0-0.9,0-1.4,0l-0.8,0c-1.6,0-3.3,0-4.9-0.3c-0.3,0-0.3-0.4-0.3-0.5
	c0,0,0-0.4,0.3-0.5c1.4-0.3,2.8-0.4,4.1-0.5l0.5,0l0-0.5c0.1-1.9,0.3-3.8,0.5-5.7c0.2-1.7,0.4-3.4,0.5-5c0.2-2.4,0.2-4.9,0.2-7.3
	l0.1-3.2L118,357c-1.4,1-2.6,2.5-3.9,4.6c-0.1,0.2-0.2,0.2-0.4,0.2c-0.2,0-0.3-0.1-0.4-0.2c0,0-0.1-0.1,0-0.3c0.9-2.7,3-5.2,6-7.1
	c0.1-0.1,0.3-0.1,0.4-0.1c0.4,0,0.9,0.4,0.9,0.9c0.4,3.9,0.3,7.8,0,12.4l0,0.5c-0.2,3.1-0.4,6.4-1,9.4l-0.2,0.7l0.9-0.1
	c0.8-0.1,1.7-0.1,2.5-0.1c0.8,0,1.5,0.1,2.2,0.2c0.4,0.1,0.6,0.5,0.6,0.8c0,0.3-0.1,0.7-0.5,0.8C124,379.8,122.8,379.9,121.8,379.9z
	"/>
<path d="M-38.3,513.6h-7.6c0.3-1.6,0.6-3.3,0.9-4.9c0-0.1,0-0.1,0-0.2v-1.1c0-0.3-0.1-0.6-0.2-0.9c-0.2,0.1-0.4,0.2-0.5,0.3
	c-0.4-0.1-0.9,0.1-1,0.7c-0.9,5-1.9,10.1-2.8,15.1c-0.2,1.2,1.7,1.8,1.9,0.5c0.5-2.5,0.9-5,1.4-7.5h8C-37,515.5-37,513.6-38.3,513.6
	z"/>
<path d="M-22,506.2c-3,0.1-6,0.1-9,0.2c-1.3,0-1.3,2,0,2c1.4,0,2.8-0.1,4.1-0.1c0,0.1,0,0.1,0,0.2c0,0.2,0,0.4,0.1,0.6l-1.2,12.3
	c-1.2,0.1-2.4,0.2-3.7,0.3c-1.2,0.2-1.3,2.1,0,2c1.2-0.1,2.4-0.2,3.6-0.3c0.3,0.7,1.5,0.7,1.8-0.1c1.1,0,2.2,0,3.3,0.1
	c1.3,0.1,1.3-1.9,0-2c-1-0.1-2-0.1-3.1-0.1l1.3-13c0.9,0,1.8,0,2.7,0C-20.8,508.1-20.8,506.2-22,506.2z"/>
<path d="M-7.1,518.1c-0.2-0.6-0.4-1.5-0.7-2.1c1.6-0.7,2.8-1.9,2.8-3.8c0-1.7-0.8-3.6-2.2-4.6c-1.6-1.2-3.6-1.2-5.5-1.1
	c-0.4-0.3-1-0.2-1.3,0.3c-0.4,0.3-0.5,0.9-0.3,1.3c-0.9,4.6-1.6,9.3-2,14c-0.1,1.3,1.9,1.3,2,0c0.1-1.6,0.3-3.2,0.5-4.8
	c1.2-0.1,2.6-0.3,4-0.6c0,0,0.1,0,0.1,0.1c0.3,0.1,0.4,1.1,0.5,1.4c0.2,0.6,0.4,1.2,0.6,1.8c0.4,1.1,0.8,2.2,1.1,3.3
	c0.4,1.2,2.3,0.7,1.9-0.5L-7.1,518.1z M-12.4,508.5c2.6-0.1,5.6,0.4,5.4,3.7c-0.1,2.3-4.2,2.8-6.6,3.1
	C-13.2,513-12.8,510.7-12.4,508.5z"/>
<path d="M10.4,507.7c-1.2,2.3-2.4,4.5-3.7,6.7c-0.4-2.2-0.8-4.4-1.2-6.6c-0.2-0.9-1.7-0.9-1.9,0c-1,5.3-2,10.6-3.1,15.9
	c-0.2,1.2,1.7,1.8,1.9,0.5c0.7-3.6,1.4-7.2,2.1-10.8c0.2,1.4,0.5,2.7,0.7,4.1c0.2,0.9,1.4,0.9,1.8,0.2c1.1-1.8,2.1-3.5,3.1-5.3
	c-0.2,3.8-0.4,7.6-0.7,11.5c-0.1,1.3,1.9,1.3,2,0c0.5-5.2,0.7-10.4,0.9-15.6C12.3,507.2,10.9,506.8,10.4,507.7z"/>
<path d="M32.9,507.3c-1.3,4.2-2.8,8.3-4.6,12.4c-0.3-3.6-0.2-7.2-0.1-10.8c0-1.1-1.7-1.4-1.9-0.3c-0.9,3.9-2,7.8-3.3,11.6
	c-0.6-4.1-1.2-8.2-1.6-12.4c-0.1-1.2-2.1-1.3-2,0c0.6,5.5,1.3,11,2.3,16.5c0.2,1.1,1.6,0.8,1.9,0c1-2.5,1.9-5.1,2.7-7.7
	c0.1,2.3,0.2,4.6,0.6,6.9c0.1,0.8,1.4,1,1.8,0.2c2.5-5.1,4.6-10.5,6.3-15.9C35.2,506.6,33.3,506.1,32.9,507.3z"/>
<path d="M46.6,523.3c-0.8-5.1-1.4-10.3-1.9-15.5c0,0,0,0,0,0c0.2-0.5,0-1-0.3-1.3c-0.5-0.7-1.8-0.5-1.8,0.6c0,0.1,0,0.3,0,0.4
	c-2.2,4.6-4.1,9.4-5.8,14.3c-0.1,0.1-0.1,0.2-0.2,0.3l-0.3,0.9c-0.3,1.2,1.5,1.7,1.9,0.5c0.4-1.2,0.8-2.4,1.2-3.6
	c1.5-0.1,3-0.1,4.5,0c0.1,0.8,0.2,1.6,0.3,2.4c-0.2,0.3-0.2,0.6-0.1,1l0.4,0.7C45.4,525.1,46.8,524.3,46.6,523.3z M40.4,517.9
	c0.8-2.2,1.7-4.4,2.7-6.6c0.2,2.2,0.5,4.4,0.8,6.6C42.7,517.8,41.6,517.8,40.4,517.9z"/>
<path d="M64.7,509.1c-0.6-1.4-2.2-1.9-3.6-2.3c-1.5-0.4-3.4-0.8-5-0.6c-0.5-0.5-1.4-0.5-1.6,0.4c-0.1,0.4-0.2,0.8-0.3,1.2
	c-0.2,0.5-0.3,1-0.4,1.6c0,0.1-0.1,0.3-0.1,0.4c-1,4.5-1.8,9.1-2.5,13.7c-0.2,1.2,1.7,1.8,1.9,0.5c0.4-2.1,0.8-4.3,1.2-6.4
	c0,0,0.1,0,0.1,0c1.1-0.2,2.3-0.3,3.5-0.5c0.4,2.5,0.8,5,1.4,7.4c0.2,0.7,1.2,1,1.6,0.4c0.1-0.1,0.2-0.2,0.3-0.3
	c0.5-0.5,0.2-1.2-0.2-1.5c-0.5-2.1-0.8-4.3-1.2-6.4c0.3-0.1,0.6-0.2,1-0.4c1.3-0.6,2.2-1.8,2.9-3.1C64.5,512,65.4,510.5,64.7,509.1z
	 M61.7,512.9c-1.5,2.3-4.5,2.4-7,2.7c0-0.2,0.1-0.4,0.1-0.6c0.3-1.5,0.6-3,0.8-4.5c0,0,0,0,0-0.1c0.1-0.6,0.3-1.3,0.4-1.9
	c0.5-0.6,1.1-0.4,1.8-0.4c1.3,0.1,2.6,0.3,3.8,0.8C63.7,509.8,62.5,511.6,61.7,512.9z"/>
<path d="M82.5,505H72.3c-1,0-1.2,1.3-0.6,1.8c-0.1,0.3,0,0.6,0.1,0.9c-0.3,2.2-0.5,4.4-0.8,6.6c-0.4,0.4-0.5,1-0.2,1.4
	c-0.3,2.4-0.6,4.8-0.9,7.3c-0.1,0.5,0.5,1,1,1c2.2-0.1,4.3-0.3,6.5-0.7c0.6-0.1,0.9-0.9,0.6-1.4c-0.1-0.2-0.2-0.3-0.3-0.5
	c-0.5-0.8-1.5-0.5-1.8,0.2c-1.3,0.2-2.6,0.3-3.9,0.4c0.2-2,0.5-4,0.7-6c1.7-0.1,3.5-0.3,5.2-0.4c1.3-0.1,1.3-2.1,0-2
	c-1.7,0.1-3.3,0.3-5,0.4c0.3-2.3,0.6-4.6,0.9-6.9h8.6C83.8,507,83.8,505,82.5,505z"/>
<path d="M115,518.1c-1.5,1.9-3.4,3.8-5.7,4.6c-3.7,1.2-3.4-4.1-3-6.3c0.4-2.4,1.2-4.9,2.7-6.9c0.7-1,1.8-1.9,3.1-1.9
	c1.8,0.1,2.8,1.6,2.8,3.2c0,1.3,2,1.3,2,0c0.1-3.4-3.1-6.1-6.4-4.9c-3.6,1.2-5.2,6.1-5.9,9.3c-0.6,3-1.1,7.9,2.6,9.3
	c3.4,1.3,7.5-2.6,9.4-5.1C117.1,518.5,115.7,517.1,115,518.1z"/>
<path d="M131.6,506.2c-1.5-0.8-3.5-0.4-4.5,0.9c-0.2,0.2-0.2,0.5-0.2,0.7c-2.5,2-3.8,5.9-4.2,8.8c-0.3,2.2-0.1,4.8,1.4,6.7
	c1.3,1.7,3.4,1.7,5.1,0.6c3.8-2.6,4.4-8.3,4.4-12.5C133.6,509.6,133.5,507.3,131.6,506.2z M131.6,513.5c-0.2,2.8-0.8,6.2-2.8,8.2
	c-0.7,0.7-1.6,1.4-2.6,0.9c-0.8-0.4-1.1-1.5-1.3-2.3c-0.4-1.7-0.2-3.4,0.2-5.1c0.7-2.9,2.3-7,6-6.6c0.1,0,0.2,0,0.3,0
	c0.1,0.2,0.2,0.4,0.3,0.7C131.9,510.7,131.7,512.2,131.6,513.5z"/>
<path d="M141.5,506.1c-0.5,0.1-0.7,0.5-0.7,1c-0.2,1.9-0.5,3.7-0.7,5.6c-0.6,3-1,6.1-1.2,9.1c0,0,0,0,0,0c-1.3-0.1-1.2,1.8,0,2
	c3.1,0.3,6.9,0.5,9.7-1.3c2.3-1.6,3.6-4.4,3.6-7.1C152.3,509.5,147.2,504.9,141.5,506.1z M150.2,515.8c-0.2,2.4-1.6,4.8-4,5.6
	c-1.7,0.6-3.5,0.6-5.3,0.5c0.4-3,0.8-5.9,1.1-8.9c0.3-1.7,0.7-3.5,1-5.2C147.3,507.6,150.6,511.5,150.2,515.8z"/>
<path d="M167.8,506.6c0,0,0-0.1,0-0.1c-0.1-0.3-0.4-0.6-0.7-0.7c-1.2-0.4-2.9-0.3-4.2-0.4c-0.9,0-1.9-0.1-2.8-0.1
	c-0.3-0.1-0.6-0.1-0.8,0c-0.5,0-0.9,0-1.4,0c-1.3,0-1.3,2,0,2c0.2,0,0.4,0,0.6,0c-0.6,2.6-1.1,5.3-1.6,7.9c-0.6,2.8-1.3,5.7-1.1,8.5
	c0,0.5,0.4,1,1,1c2.3,0,4.6,0,6.8-0.1c1.2,0,2.7-0.2,2.5-1.8c-0.2-1.1-1.8-1.2-2-0.3c-0.1,0-0.3,0-0.5,0.1c-0.2,0-0.4,0-0.6,0
	c-0.7,0-1.4,0-2.2,0c-1,0-2,0-3.1,0c0-2.1,0.4-4.1,0.9-6.1c2-0.2,4-0.2,6-0.2c1.3,0,1.3-1.9,0-2c-1.9,0-3.7,0-5.6,0.1
	c0.5-2.4,1-4.9,1.5-7.3c0.6,0,1.2,0,1.8,0.1c1.2,0.1,2.6-0.1,3.8,0.2c0.3,0.4,0.7,0.6,1.2,0.2c0,0,0,0,0.1-0.1
	C167.8,507.4,167.9,507.1,167.8,506.6z"/>
<path class="st0" d="M-35.8,506.2c-3.3-0.1-6.6,0-9.9,0.1c-1.3,0-1.3,2,0,2c3.3-0.1,6.6-0.1,9.9-0.1
	C-34.5,508.2-34.5,506.3-35.8,506.2z"/>
</svg>
