<?xml version="1.0" encoding="utf-8"?>
<!-- Generator: Adobe Illustrator 19.0.0, SVG Export Plug-In . SVG Version: 6.00 Build 0)  -->
<svg version="1.1" id="Layer_1" xmlns="http://www.w3.org/2000/svg" xmlns:xlink="http://www.w3.org/1999/xlink" x="0px" y="0px"
	 viewBox="0 0 364.5 263.3" style="enable-background:new 0 0 364.5 263.3;" xml:space="preserve">
<style type="text/css">
	.st0{fill:#231F20;}
</style>
<path id="XMLID_48_" class="st0" d="M64.4,246.8c-0.6-3.6-5.2-5.5-8.6-5.4c-0.5-0.3-1.2-0.3-1.5,0.3c-0.5,0.4-0.6,1.1-0.2,1.6
	c-0.7,5.4-1.4,10.9-1.9,16.3c-0.1,1.3,2,1.3,2.1,0c0.2-2.5,0.5-5,0.8-7.5C58.3,251.7,65.1,250.9,64.4,246.8z M59,249.1
	c-1.2,0.3-2.4,0.5-3.7,0.6c0.3-2.1,0.5-4.3,0.8-6.4c2.2,0.1,4.6,0.9,5.7,2.8C63.1,248.3,60.5,248.8,59,249.1z"/>
<path id="XMLID_47_" class="st0" d="M77.7,256.1c-1.9,1.6-4.2,2.4-6.4,0.7c-1.7-1.4-2.2-3.6-2-5.7c0.2-2,0.8-4.2,1.9-5.8
	c1.3-1.8,5.5-3.3,5.9,0.1c0.1,1.2,2.1,1.3,2,0c-0.4-3.1-3.3-4.7-6.2-3.8c-3.3,1.1-4.9,4.8-5.4,8c-0.5,3.2,0.1,6.8,2.9,8.8
	c3,2.2,6,1.1,8.7-1C80.1,256.7,78.7,255.3,77.7,256.1z"/>
<path id="XMLID_43_" class="st0" d="M92.1,250.6c1.7-0.7,3.1-1.9,3.5-3.8c0.8-3.7-4.6-5.2-7.8-5.6c-0.3-0.2-0.6-0.2-1-0.1
	c0,0,0,0,0,0c-0.9,0-1.2,1.1-0.7,1.6c-0.6,5.1-1,10.2-1.3,15.3c-0.4,0-0.9,0-1.3,0.1c-1.3,0-1.3,2,0,2c2.7-0.1,5.4-0.4,8-1.1
	c1.9-0.6,3.7-1.5,4.1-3.6C96,252.6,94.3,251.3,92.1,250.6z M93.1,247.5c-1.3,1.7-3.7,2.1-5.8,2.4c0.2-2.2,0.4-4.4,0.7-6.6
	C90.5,243.7,95,245,93.1,247.5z M93.3,255.7c-0.8,1.3-3.1,1.6-4.5,1.9c-0.7,0.1-1.4,0.3-2.1,0.3c0.1-2,0.2-4,0.4-6
	c1.4,0,2.9,0.1,4.2,0.4C92.8,252.7,94.3,254,93.3,255.7z"/>
<path id="XMLID_42_" class="st0" d="M118.3,249c-1.8-1.2-3.3-4-0.8-5.5c1.8-1,5.3-1.4,5.8,1.2c0.3,1.2,2.2,0.7,1.9-0.5
	c-1.3-6.5-13.6-2.9-10.5,3.7c1.5,3.2,5.4,3.4,7.6,5.8c0.6,0.7,1.1,1.8,0.8,2.7c-0.4,1.2-1.9,1.2-2.9,1c-2-0.4-3.6-1.6-4.8-3.2
	c-0.7-1-2.4-0.1-1.7,1c1.7,2.4,4.4,4.2,7.4,4.3c2.9,0.1,4.6-2.4,3.8-5.1C124.1,251.4,120.7,250.6,118.3,249z"/>
<path id="XMLID_39_" class="st0" d="M140.4,243.1c0.2-0.3,0.3-0.6,0-1c-0.9-1.4-2.6-2.1-4.3-1.7c-2.1,0.5-3.5,2.4-4.4,4.3
	c-1.8,3.5-3.3,10.2-0.1,13.4c3.6,3.5,7.9-1.1,9.3-4.4C142,251.2,143.2,245,140.4,243.1z M139.3,252.5c-0.9,2.1-4.4,7.1-6.7,3.6
	c-1.5-2.3-0.8-6.2,0.1-8.7c0.5-1.3,1.1-2.7,2.1-3.8c0.8-1,2.6-2,3.6-1c-0.8,0.4-1,1.7,0.1,1.8C141.2,244.9,140,250.8,139.3,252.5z"
	/>
<path id="XMLID_38_" class="st0" d="M158.1,242c-0.1-1.3-2-1.3-2,0c0.1,2.7,0,5.5-0.4,8.2c-0.3,2.2-0.6,6.1-3.3,6.6
	c-1.6,0.3-2.6-0.2-2.9-1.8c-0.3-1.5-0.3-3-0.3-4.5c0-2.9,0.2-5.8,0-8.6c-0.1-1.3-2.1-1.3-2,0c0.3,4-0.2,8.1,0.2,12.1
	c0.1,1.3,0.3,2.9,1.3,3.9c0.9,0.9,2.4,1.1,3.7,1c3.1-0.3,4.3-2.7,4.9-5.4C158,249.6,158.3,245.8,158.1,242z"/>
<path id="XMLID_35_" class="st0" d="M171.2,250.2c1.9-0.8,3.3-2.1,3.3-4.2c-0.1-5.1-6.5-5.6-10.2-5.1c-0.8,0.1-0.9,0.9-0.5,1.4
	c0,0,0,0.1,0,0.2l-0.6,6.9c-0.6,0.3-0.7,1.3-0.1,1.7c-0.2,2-0.3,4-0.5,6c-0.1,1.3,1.9,1.3,2,0c0.2-1.9,0.3-3.9,0.5-5.8
	c1.3,0,2.9-0.1,4.4-0.5c0.7,2.4,1.4,4.7,2.4,7c0.5,1.2,2.4,0.7,1.9-0.5C172.6,254.9,171.9,252.5,171.2,250.2z M165.7,242.7
	c2.7-0.1,7.8,0.4,6.7,3.8c-0.7,2.3-4.6,2.7-7.3,2.7C165.3,247,165.5,244.9,165.7,242.7z"/>
<path id="XMLID_34_" class="st0" d="M190,254c-0.8,2.2-2.8,4.1-5.3,3.8c-2.8-0.3-3.9-2.5-4.1-5.1c-0.1-2.4,0.4-4.8,1.6-6.8
	c0.5-0.9,1.2-1.9,2.2-2.4c1.4-0.7,3.1-0.3,3.3,1.4c0.2,1.3,2.1,0.7,1.9-0.5c-0.5-3.5-4.7-3.8-7.1-2c-2.9,2.3-4.1,6.7-3.9,10.3
	c0.2,3.5,1.9,6.5,5.6,7c3.5,0.4,6.4-2.1,7.6-5.2C192.3,253.3,190.4,252.8,190,254z"/>
<path id="XMLID_33_" class="st0" d="M206.8,241.1c-3.8-0.1-7.6,0-11.3,0.2c-1.3,0.1-1.3,2,0,2c0.3,0,0.5,0,0.8,0
	c-0.2,1.6-0.3,3.1-0.5,4.7c-0.1,0-0.2,0-0.3,0c-1.3,0-1.3,1.9,0,2c0.1,0,0.1,0,0.2,0c-0.2,2.2-0.3,4.4-0.4,6.6
	c-0.1,1.3-0.1,2.3,1.4,2.6c2.1,0.4,4.6,0,6.7-0.2c1.2-0.1,1.3-2.1,0-2c-1.8,0.2-3.6,0.3-5.4,0.3c-0.2,0-0.5,0-0.7,0
	c0-0.2,0-0.4,0-0.6c0-1,0.1-1.9,0.2-2.9c0.1-1.2,0.2-2.4,0.3-3.6c2.5,0.1,5,0.1,7.5,0.2c1.3,0,1.3-1.9,0-2c-2.4-0.1-4.9-0.1-7.3-0.2
	c0.1-1.6,0.3-3.3,0.5-4.9c2.9-0.1,5.7-0.1,8.6-0.1C208.1,243.1,208.1,241.1,206.8,241.1z"/>
<path id="XMLID_32_" class="st0" d="M236.8,241.2c-3.6-0.4-7.3-0.6-10.9-0.7c-1.1,0-1.3,1.5-0.4,1.9c-0.5,5.8-0.9,11.5-1.2,17.3
	c-0.1,1.3,1.9,1.3,2,0c0.2-3,0.3-6,0.5-8.9c2.6,0.2,5.2,0.3,7.8,0.3c1.3,0,1.3-2,0-2c-2.6,0-5.1-0.1-7.7-0.3
	c0.1-2.1,0.3-4.2,0.5-6.3c3.1,0.1,6.2,0.3,9.3,0.6C238.1,243.3,238.1,241.3,236.8,241.2z"/>
<path id="XMLID_31_" class="st0" d="M251.6,256.8c-1.5-0.3-3.1-0.4-4.6-0.4c0.2-4.3,0.4-8.6,0.8-12.9c1.2,0,2.4,0,3.5,0.1
	c1.3,0.1,1.3-1.9,0-2c-2.9-0.1-5.8-0.1-8.8,0c-1.3,0.1-1.3,2,0,2c1.1,0,2.2-0.1,3.3-0.1c-0.4,4.3-0.6,8.7-0.8,13
	c-1.2,0.1-2.4,0.2-3.5,0.5c-1.2,0.3-0.7,2.2,0.5,1.9c3-0.6,6-0.7,9.1-0.1C252.3,258.9,252.8,257,251.6,256.8z"/>
<path id="XMLID_30_" class="st0" d="M267.5,257.1c-1.5,0.8-2.5,0.5-4.2,0.6c-1.2,0.1-2.4,0.2-3.5,0.5c0-2.4,0-4.8,0.1-7.2
	c0.1-1.4,0.1-2.8,0.2-4.1c0-0.6,0.1-1.3,0.2-1.9c0-0.5,0-1.3,0.1-1.9c0.2-0.2,0.4-0.4,0.3-0.8c0,0,0-0.1,0-0.1c0-0.4-0.3-0.8-0.7-1
	c0,0-0.1,0-0.1,0c-0.4-0.1-0.9,0.1-1.1,0.5c-0.5,1.1-0.4,2.6-0.5,3.9c-0.1,1.5-0.2,3-0.3,4.4c-0.2,3.2-0.2,6.4-0.2,9.5
	c0,0.6,0.6,1.2,1.2,1c2-0.8,2.6-0.8,4.7-0.9c1.6,0,3.3,0,4.8-0.8C269.7,258.2,268.7,256.5,267.5,257.1z"/>
<path id="XMLID_29_" class="st0" d="M281.7,251.2c1.3-0.1,1.3-2,0-2c-2.2,0.1-4.5,0-6.6-0.5c0.2-1.9,0.3-3.8,0.5-5.6
	c2.1,0,4.3,0.1,6.4,0.2c1.3,0.1,1.3-1.9,0-2c-2.6-0.1-5.3-0.2-7.9-0.2c-1.1,0-1.2,1.5-0.5,1.9c-0.4,4.7-0.8,9.4-1.2,14.1
	c0,0.6,0.5,0.9,1,1c2.8,0.2,5.5,0.2,8.3,0c1.3-0.1,1.3-2.1,0-2c-2.4,0.2-4.8,0.2-7.2,0c0.1-1.8,0.3-3.6,0.5-5.5
	C277.2,251.2,279.4,251.3,281.7,251.2z"/>
<path id="XMLID_28_" class="st0" d="M299.1,244.4c-0.5-2.8-3.9-4.7-6.7-3.9c-2.7,0.7-3.8,3.9-2.7,6.4c0.6,1.5,1.9,2.3,3.1,3.2
	c1.6,1.1,2.7,2.4,3.1,4.3c0.4,2.4-0.8,4.6-3.5,4.5c-2.3-0.1-4-1.7-4.5-3.8c-0.3-1.2-2.2-0.7-1.9,0.5c0.8,3,3.3,5.2,6.4,5.3
	c3.3,0.1,5.4-2.1,5.5-5.3c0.1-3.1-1.7-5.5-4.1-7.1c-1.7-1.1-3.8-3.2-1.9-5.3c1.6-1.8,4.9-0.3,5.3,1.9
	C297.4,246.2,299.3,245.6,299.1,244.4z"/>
<path class="st0" d="M241.6,191.8c-0.4,0-0.8,0-1.2-0.1c-0.3,0-0.6-0.1-0.8-0.1l-3.9-0.2c-2.2-0.1-6.1-0.6-10.6-1.2
	c-6.5-0.8-14.5-1.9-20.2-2.1c-12.8-0.4-21.4-1.9-30.5-3.4c-6.5-1.1-13.3-2.2-22.2-3.1c-29.3-3-59-9.4-87.7-15.5
	c-13.6-2.9-27.6-5.9-41.3-8.5c-0.3-0.1-0.7-0.4-0.7-0.7c-1.4-6.5-2-12.8-1.9-18.8c0-0.3,0.2-0.4,0.3-0.4H21l0.2-0.2
	c10.9-12.8,21.7-22.8,33.1-33.5c2.4-2.2,4.8-4.4,7.2-6.8c3.2-3.1,6.5-6.1,9.7-9.2c25.2-23.7,51.2-48.2,78.7-70.1l0.1-0.1l0-0.2
	c0.1-0.4,0.3-0.6,0.7-0.6l0.2,0l1-0.8c0.1-0.1,0.2-0.1,0.3-0.1c0.3,0,0.7,0.4,0.7,0.7l0.1,0.4l0.4,0c21.3,2.3,42.4,4.9,62.8,7.5
	c42.4,5.4,85.4,11.7,127.7,18.6l0.1,0c0.8,0.4,1.6,0.8,2.1,1.2c0.6,0.5,0.6,0.7,0.4,2c0,0.1,0,0.1,0,0.2l-0.1,0.2l0.2,0.4
	c0.1,0.1,0.2,0.2,0.2,0.3c0.5,1.8,0.4,3.9,0.3,5.9c0,0.6,0,1.1,0,1.6c0,2.3-0.1,4.8-0.2,7.2c-0.2,2.9-0.4,5.5-0.7,7.8l-0.1,0.6
	c-0.2,1.7-0.4,3.5-1.1,4.9l-0.1,0.2c0,0,0.2,0.7,0.2,0.8c-2.1,3-4.7,6.1-8,9.7c-3.3,3.5-9.1,10.1-15.2,17
	c-7.8,8.8-15.8,17.9-19.9,22.2l-29.8,32.9c-3.8,4-8,8.8-12,13.4c-4,4.6-8.2,9.4-12,13.4l-3.2,3.4c-0.2,0.3-0.5,0.6-0.8,0.9
	c-0.6,0.7-1.1,1.3-1.8,1.7C242.4,191.7,242.1,191.8,241.6,191.8z M21.6,140.8c0.8,5.3,1.6,10,2.6,14.4l0.1,0.4l0.4,0.1
	c10.8,2,21.9,4.4,32.6,6.8c17.4,3.8,35.3,7.7,52.8,10c10.5,1.4,21.1,2.8,31.8,4.2c32.4,4.3,65.9,8.7,98.5,12.4l0.3,0l0.2-0.2
	c6.9-7.2,14.4-15.5,21.6-23.6c7.2-8.1,14.7-16.4,21.6-23.6c7.7-8,14.6-15.9,21.4-23.6c6.7-7.6,13.7-15.6,21.3-23.5
	c1.1-1.2,2.3-2.4,3.5-3.6c5-5.1,10.2-10.4,14.1-16.4l0.1-0.2l0-0.2c-0.1-1.1,0-2.2,0.1-3.3c0-0.5,0.1-1.1,0.1-1.6
	c0-0.8,0.1-1.7,0.1-2.5c0.1-1.6,0.1-3.1,0.2-4.7l0-1.3c0.1-2,0.1-3.9,0.1-5.9c0-0.7,0-1.3,0-2c0-0.4,0-0.9,0-1.3l0-1.8l-2.1,3.1
	c-20.5,29.9-45.3,57.4-69.3,83.9c-3.5,3.9-7.1,7.8-10.6,11.8l-16.8,18.7c-0.4,0.5-0.8,0.9-1.2,1.4c-1.1,1.3-2.3,2.7-3.6,3.8
	c-1.4,1.2-3.2,1.8-5.6,1.8c-1.9,0-3.8-0.3-5.7-0.7c-0.7-0.1-1.4-0.3-2.1-0.4c-4.9-0.7-10.2-1.6-15.9-2.7c-4.6-0.9-9.3-1.8-13.8-2.7
	c-5.9-1.2-12-2.4-18-3.5c-10.1-1.8-20.9-3.4-32-4.7c-51.5-5.8-90.3-11.7-125.9-19.4l-0.8-0.2L21.6,140.8z M150.4,19.5
	c-11.9,9.8-22.7,19.8-34.2,30.3c-2.7,2.5-5.5,5.1-8.3,7.6c-27.2,24.9-52.3,48.2-83.7,80l-0.7,0.7l1,0.2c43.3,9,88.6,14.8,127.1,19.4
	c11.3,1.3,21.7,2.9,31.7,4.8c5,0.9,10,2,14.9,2.9c5.5,1.1,11.3,2.3,16.9,3.3c6.2,1.2,11.3,2,16,2.6c0.4,0.1,0.9,0.1,1.3,0.2
	c1.1,0.2,2.3,0.4,3.5,0.4c1.5,0,2.6-0.3,3.5-1c1.4-1.1,2.6-2.5,3.8-3.9c0.4-0.5,0.9-1,1.3-1.5l22.1-24.6c2.6-2.8,5.1-5.7,7.7-8.5
	c24.3-27,49.5-55,69.9-85.8l0.5-0.7l-0.8-0.1c-20.7-3.4-41.4-6.6-61.5-9.6c-43.5-6.4-87.6-12-131.1-16.8c-0.1,0-0.2,0-0.4-0.1
	l-0.3-0.1L150.4,19.5z"/>
<path class="st0" d="M132.5,70.2c-1.9,0-3.7-0.3-5.9-0.8c-2.7-0.6-5.8-1.4-8.8-2.6c-0.4-0.2-0.8-0.6-0.9-1c-0.1-0.3,0-0.5,0.3-0.7
	c2.5-2.2,5-4.5,7.5-6.8c1.4-1.3,2.8-2.6,4.2-3.9c0.6-0.6,1.3-1.2,1.9-1.8c1.3-1.2,2.6-2.4,3.9-3.5l0.9-0.8c0.9-0.8,1.8-1.6,2.7-2.3
	l0.3-0.3l-0.2-0.4c-0.1-0.2-0.1-0.5,0.1-0.7c0.1-0.1,0.3-0.4,0.7-0.5c0.5-0.1,0.9-0.1,1.5-0.1c2.5,0,5.2,0.7,7.6,1.3l0.4,0.1
	c1.8,0.5,3.4,0.9,4.7,1.4c0.2,0.1,0.5,0.2,0.7,0.2c0.9,0.3,1.8,0.6,2.4,1.1c0.6,0.5,0.9,1,0.9,1.6c0,1-0.7,2.2-1.9,3.4l-7.2,6.6
	c-0.7,0.6-1.4,1.3-2.1,1.9c-1.6,1.4-3.2,2.9-4.8,4.3c-1.9,1.6-4,3.3-6.4,3.8C134.4,70.1,133.5,70.2,132.5,70.2z M139.4,46.1
	c-1.9,2.4-4.2,4.6-6.5,6.7c-1,0.9-1.9,1.8-2.8,2.6c-1.3,1.3-2.6,2.6-4,3.9c-1.8,1.8-3.6,3.5-5.4,5.3l-0.7,0.7l0.9,0.3
	c1.8,0.5,3.4,1,5.1,1.4c0.4,0.1,0.7,0.2,1.1,0.3c1.6,0.4,3.4,0.9,5.2,0.9c0.6,0,1.2-0.1,1.7-0.2c3.8-0.8,6.8-3.7,9.6-6.4
	c0.6-0.6,1.3-1.2,1.9-1.8l8.7-7.9c0.1-0.1,0.2-0.1,0.3-0.2c0.4-0.3,0.9-0.8,1.1-1.3l-1-0.4l0.4-0.3c-0.1,0-0.3-0.1-1-0.4
	c-0.1,0-0.2-0.1-0.2-0.1c-2.6-0.9-5-1.6-7.3-2.1c-1-0.2-2-0.3-2.9-0.5c-1.2-0.2-2.4-0.3-3.6-0.6l-0.4-0.1L139.4,46.1z"/>
<path class="st0" d="M107.6,124.6c-2.1,0-4.2-0.2-6.2-0.4c-0.8-0.1-1.6-0.2-2.3-0.2c-3.7-0.3-7.2-0.7-10.5-1
	c-2.7-0.3-6.4-0.7-10.1-1.2c-0.7-0.1-1.4-0.2-2.1-0.3c-2-0.3-4-0.5-6-0.9l-0.4-0.1l-0.2,0.4c-0.8,1.9-1.8,2.8-3.2,2.9
	c-0.6,0.1-1.2,0.1-1.9,0.1c-1.9,0-3.8-0.2-5.7-0.5c-0.7-0.1-1.3-0.2-2-0.2c-0.3,0-0.5-0.2-0.6-0.3c-0.1-0.1-0.1-0.3,0-0.5
	c0.1-0.2,0.2-0.4,0.3-0.6c0.6-1.1,1-2,2.1-2.7c0.1-0.1,0.3-0.2,0.5-0.3l0.3-0.2l-0.1-0.4c0-0.2,0-0.4,0.2-0.6
	c0.1-0.1,0.3-0.3,0.5-0.3c0.4-0.1,0.9-0.1,1.4-0.1c2.4,0,5.1,0.6,7.4,1.2l0.6,0.2c0.3,0.1,0.6,0.4,0.6,0.7l0,0.5l0.5,0
	c1.8,0.1,3.6,0.3,5.4,0.5c1,0.1,2.1,0.3,3.1,0.4l1.4,0.1c3,0.3,6,0.6,9,0.9c3.1,0.3,6.7,0.6,10.5,0.9c0.8,0.1,1.7,0.1,2.6,0.2
	c2.3,0.1,4.6,0.3,6.8,0.7c0.1,0,0.4,0.1,0.3,0.4c0,0.2-0.2,0.5-0.5,0.6C108.9,124.6,108.2,124.6,107.6,124.6
	C107.6,124.6,107.6,124.6,107.6,124.6z M60.2,118.8c-1.2,0.6-2.2,1.5-2.5,2.6l-0.2,0.7l0.8,0c1.7,0,3.4,0.1,5,0.1l0.6,0
	c0.2,0,0.4,0,0.6,0c0.3,0,0.7,0.1,1.1,0.1c0.7,0,1.6-0.1,2.2-0.8c0.2-0.2,0.4-0.5,0.5-0.9l0.3-0.7l-0.7-0.1
	c-0.9-0.2-1.8-0.3-2.7-0.4c-1.5-0.2-3-0.4-4.5-0.7l-0.2,0L60.2,118.8z"/>
<path class="st0" d="M159.8,142.2c-1,0-2.1-0.1-3.1-0.2c-0.5-0.1-0.9-0.1-1.4-0.1l-25.4-2.2c-8.7-0.7-17.7-1.5-26.2-4
	c-0.4-0.1-0.7-0.4-0.8-0.7c-0.1-0.4,0-0.8,0.3-1.2c4.8-5.9,10.7-11.7,18.5-18.4l1.1-0.9l-1.4-0.1c-5-0.2-10-0.8-15-1.4
	c-1.3-0.2-2.6-0.3-3.8-0.5c-3.2-0.4-6.7-0.8-10.7-1.4c-0.8-0.1-1.7-0.2-2.6-0.3c-2.6-0.3-5.2-0.6-7.7-1.3l-0.3-0.1l-0.2,0.2
	c-1.9,1.8-4.5,2.8-7.1,2.8c-2,0-3.8-0.6-5.3-1.7c-0.2-0.1-0.3-0.4-0.3-0.6c0-0.1,0-0.2,0.1-0.2l3.6-3c0.6-0.5,1.1-1,1.8-1.2
	c-0.4,0.8-0.9,1.3-1.6,1.9c-0.2,0.1-0.3,0.3-0.5,0.4l-2.2,2.1l0.8,0.3c1.2,0.5,2.5,0.7,3.7,0.7c2.3,0,4.5-0.8,6.1-2.2l1-0.9
	l-1.3-0.1c-1-0.1-2.1-0.1-3-0.1c-0.6,0-1.3,0-1.9,0c-0.3,0-0.4-0.3-0.4-0.5c0-0.3,0.2-0.3,0.2-0.3c0.8-0.2,1.7-0.2,2.6-0.2
	c1.7,0,3.3,0.3,4.8,0.5c0.1,0,0.2,0.1,0.3,0.3c0.1,0.1,0.1,0.3,0,0.4c-0.1,0.1-0.2,0.3-0.3,0.4l-0.7,0.9l1.1,0
	c2.1,0.1,4.4,0.4,6.5,0.7c1.2,0.2,2.4,0.3,3.5,0.5c3.5,0.4,7.1,0.8,11.1,1.1c2.6,0.2,5.2,0.4,7.7,0.6c4.1,0.3,8.2,0.6,12.3,1.1
	l0.2,0l0.2-0.2c3.2-2.7,6.5-5.3,9.7-7.9l0.8-0.7l-1.1-0.3c-7.4-2-14-3.5-20.2-4.6c-6.3-1.1-12.7-1.6-18.9-2.2L93,97.4l-0.2,0.4
	c-0.6,1.4-1.9,2.6-3.6,3.2c-1,0.3-2,0.5-3.3,0.5c-0.9,0-1.9-0.1-2.8-0.2c-0.9-0.1-1.9-0.2-2.9-0.2c-0.7,0-1.4,0-2,0.1c0,0,0,0,0,0
	c-0.2,0-0.3-0.2-0.3-0.2c-0.1-0.2-0.1-0.4,0-0.5c0.5-0.5,1-0.9,1.4-1.4c1.3-1.3,2.7-2.7,4.2-3.6L83.4,96c-0.8,1.2-1.8,2.3-2.8,3.2
	l-0.9,0.9l1.3,0c0.7,0,1.5,0.1,2.2,0.1c0.9,0.1,1.7,0.1,2.6,0.1c0.4,0,0.7,0,1.1,0c1.6-0.1,3.6-0.8,4.6-2.3l0.5-0.8L91,97.2
	c-0.1,0-0.1,0-0.1-0.1l1.1-0.9l-1.4-0.2c-1-0.1-2-0.1-2.9-0.1c-1.1,0-2.2,0-3.3-0.1c-0.1,0-0.1,0-0.2-0.1l-0.4-0.3l0.2-0.1l0.1-0.2
	c0,0,0-0.1,0.2-0.1c0.9-0.3,2-0.4,3.1-0.4c1.9,0,3.8,0.3,5.6,0.6c0.2,0,0.3,0.3,0.3,0.5c0,0.2,0,0.3,0,0.5l0,0.6l1.5,0
	c5.6,0,11.7,0.5,19.2,1.7c7.6,1.2,14.8,2.9,21.5,5.1l0.3,0.1l0.2-0.2c3.1-2.5,6.5-5.2,9.8-8.1l0.8-0.7l-1-0.3
	c-14.4-3.9-28.5-6.3-43-7.4l-0.4,0l-0.9,2.3c-0.1,0.4-0.3,0.4-0.4,0.4l-2,0c-1.4,0-2.8,0-4.2,0c-1.2,0-2.4,0-3.7,0
	c-0.2,0-0.3-0.1-0.3-0.2c-0.1-0.1-0.1-0.3,0.1-0.4l0.1-0.1c1.6-1.9,3.2-3.9,5.6-4.5c-2.1,0.8-3.4,2.4-4.2,3.6l-0.6,0.9l1.1,0
	c2.2,0,4.3-0.1,6.5-0.1l1.4,0l0.7-1.7l-0.4-0.2c-0.1-0.1-0.2-0.3-0.1-0.4c0-0.1,0.1-0.1,0.2-0.1l0.6,0l0.8-1.9l-0.8,0
	c-0.5,0-1.1,0-1.6,0c-0.8,0-1.5,0-2.2-0.1c-0.1,0-0.2,0-0.2-0.1l-0.2-0.1l0-0.3c0-0.1,0.1-0.3,0.4-0.3c0.6,0,1.3-0.1,2.1-0.1
	c0.6,0,1.1,0,1.7,0c0.5,0,1,0,1.4,0c0.1,0,0.3,0.1,0.4,0.2c0.1,0.1,0,0.2,0,0.2l-0.9,2.4l0.8,0c14.8,0.4,30,3,43.8,7.6l0.3,0.1
	l0.2-0.2c2.1-1.9,4-3.6,5.8-5.2c0.1-0.1,0.3-0.2,0.4-0.2c0.3,0,0.5,0.2,0.6,0.4c0.1,0.2,0,0.4-0.1,0.6c-0.4,0.5-0.9,0.9-1.3,1.4
	l-0.9,0.9l-0.7,0.7c-5.9,5.9-12.5,11.3-18.9,16.5c-9,7.4-18.2,15-25.9,24.1l-0.6,0.7l0.9,0.2c7.9,2,16.1,2.7,24.1,3.4l24.8,2.2
	c0.9,0.1,1.8,0.2,2.7,0.2l0.5,0c0.4,0,0.9,0.1,1.3,0.1c0.7,0,1.3-0.1,1.8-0.4c1.5-0.9,2.8-2.3,4-3.7c0.4-0.5,0.8-0.9,1.3-1.4
	l5.2-5.4l0.1-0.3c0-0.1,0-0.2,0-0.3c0-0.1,0.1-0.2,0.2-0.2c0.1,0,0.1,0,0.2,0h0.2l0.2-0.2l27.9-28.5l-1-0.2
	c-15.4-3.4-31.2-5.2-47-5.2c-0.3,0-0.6-0.1-0.8-0.3c-0.2-0.2-0.3-0.6-0.3-0.9l0.1-1h0.9c17.1,0,34.1,2.1,50.6,6
	c0.4,0.1,0.7,0.4,0.8,0.8c0.1,0.4,0,0.8-0.3,1.1l-17.6,18l1.2,0.1c4.1,0.2,8.1,0.5,12,0.7c0.7,0,1.3,0.1,2,0.2
	c1.9,0.2,3.9,0.3,5.8,0.3c2.5,0,4.6-0.3,6.5-0.8c3-0.9,5.8-2.2,8.6-3.5c1.3-0.6,2.7-1.3,4-1.8c3.7-1.6,7.8-3.2,12.8-4.9
	c1.9-0.7,3.8-1.3,5.6-1.9c2.7-0.9,5.3-1.8,8-2.7c0.5-0.2,1.1-0.4,1.7-0.6c1.6-0.5,3.3-1.1,4.9-1.9c2-1,3.5-2.5,5-4.1l18.3-19.3
	l-1.1-0.1c-1.9-0.2-3.9-0.6-5.8-1c-0.9-0.2-1.7-0.4-2.5-0.5c-0.7-0.1-1.4-0.3-2.1-0.4c-1.2-0.2-2.3-0.5-3.5-0.7
	c-0.6-0.1-1.2-0.2-1.8-0.3c-0.7-0.1-1.3-0.2-2-0.3l-0.3-0.1l-0.2,0.3c-1.8,2.2-3.5,4.4-5.1,6.5c-0.7,1-1.1,1.5-1.5,1.9
	c-0.4,0.5-0.8,1-1.6,2.2c-0.3,0.5-0.6,1-1,1.4c-0.8,1.3-1.7,2.7-2.8,3.6c-0.7,0.6-1.6,0.9-2.8,0.9c-0.8,0-1.5-0.1-2.3-0.2
	c-0.3,0-0.6-0.1-0.9-0.1c-2.8-0.3-5.1-0.6-7.3-0.9c-4.1-0.6-11.9-1.7-17.4-3c-3.6-0.8-7.1-1.3-10.6-1.8c-6.5-1-12.7-1.9-18.9-4.4
	c-0.4-0.2-0.8-0.6-0.9-1c-0.1-0.3,0-0.6,0.3-0.8c5.9-5.7,11.9-11.6,17.7-17.3c6.9-6.8,14-13.9,21.2-20.7c0.1-0.1,0.2-0.2,0.4-0.2
	c0.2,0,0.4,0.2,0.5,0.4c0.1,0.2,0,0.3-0.1,0.5c-6.8,7.1-13.9,14.3-20.7,21.2c-5.1,5.1-10.4,10.5-15.5,15.8l-0.6,0.6l0.8,0.3
	c5.3,1.9,10.4,2.6,15.7,3.3c3.3,0.5,6.7,0.9,10.1,1.7c6,1.3,14.4,2.6,16.8,3c2.9,0.4,5.4,0.7,7.6,1c0.3,0,0.7,0.1,1,0.1
	c0.9,0.1,1.8,0.2,2.6,0.2l0.2,0c1.4,0,1.9-0.7,2.6-1.7c3.9-5.5,6.8-9.6,10.3-13.8l0.1-0.2l0-0.2c0-0.3,0.1-0.6,0.2-0.8
	c0.2-0.2,0.4-0.3,0.7-0.3l0.2,0l0.2-0.2c1.3-1.5,2.6-3,4-4.5l1.5-1.6c4.9-5.3,10-10.8,13-17.5l0.3-0.6l-0.7-0.1
	c-16.6-3-33.2-5.5-49.5-7.3c-0.8-0.1-1.2-0.8-1.2-1.5c0-0.3,0.1-0.9,0.8-0.9c0,0,0.1,0,0.2,0c17.6,2,35.2,4.6,52.3,7.8
	c0.3,0,0.5,0.3,0.7,0.6c0.1,0.3,0.2,0.6,0.1,0.8c-0.2,0.6-0.5,1.2-0.7,1.9c-2.6,5.9-6.7,10.9-10.8,15.4l-0.6,0.7l0.9,0.2
	c10.2,2.2,20.6,3.8,30.7,4.8c0.6,0.1,1,0.4,1.1,0.8c0.1,0.5-0.1,1-0.5,1.3l-5.5,4.3h0.7c-7.9,7.3-15.5,14.8-22.5,22.4
	c-3.6,3.9-7.1,7.8-10.3,11.5c-0.4,0.5-0.8,1-1.2,1.5c-1.1,1.4-2.3,2.8-3.6,3.9c-1.4,1.1-3,1.9-5.1,2.7c-2.4,0.9-5,1.6-7.4,2.3
	c-2.2,0.7-4.5,1.3-6.7,2.1c-5.2,1.8-10.2,3.7-14.8,5.6c-1.7,0.7-3.4,1.5-5.1,2.3c-3,1.4-6.1,2.9-9.2,3.8c-1.9,0.6-3.4,0.8-4.9,0.8
	c-0.8,0-1.5-0.1-2.2-0.2c-2.2-0.5-4.5-1-6.9-1.2c-2.4-0.2-4.9-0.3-7.2-0.4c-2.3-0.1-4.7-0.2-7-0.4c-2.4-0.2-4.7-0.5-6.9-1.1
	c-1.1-0.3-2-0.6-2.9-1l-0.9-0.4l-8.3,8.5c-0.2,0.2-0.4,0.4-0.6,0.6c-1.1,1.1-2.2,2.3-3.6,2.7C161.6,142.1,160.8,142.2,159.8,142.2z
	 M175.7,129.3l0.9,0.2c0.6,0.2,1.2,0.3,1.9,0.4c2.5,0.5,4.7,0.8,6.9,0.9c2.1,0.1,4.3,0.2,6.4,0.2c2.4,0,4.8,0.1,7.2,0.3
	c2.1,0.2,4.6,0.4,7.1,1c0.9,0.2,1.8,0.3,2.8,0.3c1.6,0,3.1-0.3,4.9-0.9c2.9-1,5.8-2.4,8.6-3.7c1.9-0.9,3.8-1.8,5.8-2.6
	c5-2.1,10-3.9,14.8-5.5c1.9-0.6,3.8-1.2,5.7-1.7c2.8-0.8,5.7-1.6,8.4-2.7c2.4-0.9,4.2-2.2,5.7-4c1.6-1.9,3.2-3.8,4.8-5.6
	c3.5-4,7-7.9,10.3-11.4c5.6-5.9,11.4-11.8,17.5-17.4l0.2-0.2l0-0.3c0-0.2,0-0.4,0.1-0.6c1.2-1.7,2.5-2.8,4.1-3.4
	c0.1,0,0.2-0.1,0.2-0.1l0.1,0l1.2-0.9l-1.3-0.2c-9.6-1.1-19.2-2.7-28.5-4.7c-0.1,0-0.2-0.1-0.3-0.1l-0.4-0.2c0,0-2,2.2-2.7,2.9
	c-0.6,0.6-1.1,1.3-1.7,1.9l-0.6,0.7l1.7,0.3c0.4,0.1,0.9,0.2,1.3,0.3c1.6,0.3,3.4,0.7,5.1,1.1l2.1,0.3c4.1,0.6,8.8,1.2,9.8,1.5
	c0.4,0.1,0.7,0.4,0.7,0.8c0.1,0.3,0,0.6-0.2,0.9c-2.3,2.5-4.7,4.9-7,7.4c-4.6,4.9-9.4,10-14.2,15c-1.7,1.7-3.2,2.8-4.9,3.6
	c-2,0.8-4,1.6-6,2.3l-0.3,0.1c-2.5,0.9-5,1.7-7.4,2.6c-2.1,0.7-4.1,1.4-6.1,2.1c-4.4,1.5-9.4,3.3-14.2,5.5c-1,0.4-1.9,0.9-2.9,1.4
	c-3,1.4-6.1,2.9-9.3,3.6c-1.6,0.3-3.3,0.5-5.2,0.5c-2.4,0-4.8-0.3-7.2-0.5c-0.6-0.1-1.3-0.1-1.9-0.2c-4.1-0.4-8.5-0.9-13.3-1.5
	l-0.3,0L175.7,129.3z"/>
</svg>
