<?xml version="1.0" encoding="utf-8"?>
<!-- Generator: Adobe Illustrator 19.0.0, SVG Export Plug-In . SVG Version: 6.00 Build 0)  -->
<svg version="1.1" id="Layer_1" xmlns="http://www.w3.org/2000/svg" xmlns:xlink="http://www.w3.org/1999/xlink" x="0px" y="0px"
	 viewBox="-20 166.9 455.6 434.2" style="enable-background:new -20 166.9 455.6 434.2;" xml:space="preserve">
<style type="text/css">
	.st0{fill:#EDF0F4;}
	.st1{fill:#FFFFFF;}
</style>
<path d="M51.1,596.4c-0.7-6.3-1.6-12.6-2.7-18.9c-0.1-0.5-0.4-0.8-0.8-0.8c0.1-1.3-1.9-1.7-2.4-0.4c-1.2,3.9-2.6,7.7-4.1,11.4
	c-0.9,0.1-1.3,1.2-0.8,1.9c-0.7,1.7-1.5,3.5-2.2,5.2c-0.6,1.4,1.4,2.6,2.1,1.2c0.8-1.8,1.6-3.7,2.4-5.5c1.8,0.4,3.6,0.5,5.4,0.4
	c0.2,1.8,0.5,3.7,0.7,5.5C48.9,597.9,51.3,597.9,51.1,596.4z M43.5,588.3c1-2.6,2-5.3,2.9-7.9c0.4,2.7,0.9,5.4,1.2,8.2
	C46.3,588.6,44.9,588.6,43.5,588.3z"/>
<path d="M88.2,576.6c-1.2,4.7-2.4,9.5-3.5,14.2c-1.3-4.3-2.3-8.6-2.9-13c-0.2-1.3-2-1-2.3,0c-0.9,3-1.9,6-2.9,9
	c-0.6,2-1.1,4.5-2.2,6.4c-0.2-0.9-0.2-1.9-0.3-2.8l-0.4-4.6c-0.3-3.1-0.5-6.1-0.8-9.2c-0.1-1.5-2.5-1.5-2.4,0
	c0.3,3.6,0.6,7.2,1,10.7c0.2,2.8-0.1,6.6,1.6,8.9c0.4,0.6,1.3,0.8,1.9,0.2c2-2,2.7-5,3.5-7.6c0.6-1.9,1.2-3.9,1.8-5.8
	c0.8,4.2,2,8.3,3.4,12.3c0.4,1.1,2,1.2,2.3,0l4.5-18.2C90.9,575.8,88.6,575.1,88.2,576.6z"/>
<path d="M104.3,595.9L103,584c-0.2-1.9-0.3-3.9-0.6-5.8c-0.2-0.7-0.4-1.4-1-1.8c-0.1-1.1-1.9-1.5-2.4-0.2c-2,6-4,11.9-6,17.9
	c-0.5,1.5,1.8,2.1,2.3,0.6c0.4-1.3,0.9-2.6,1.3-3.9c1.5,0.6,3.2,1,4.8,0.9l0.5,4C102.1,597.4,104.5,597.4,104.3,595.9z M97.4,588.7
	c1-2.9,1.9-5.7,2.9-8.6c0.2,2.3,0.6,6.5,0.7,7l0.3,2.4C99.9,589.5,98.6,589.2,97.4,588.7z"/>
<path d="M120.6,593.2c-2.2,0.4-4.4,0.4-6.6,0.7c-0.5-0.2-0.8-0.1-1.1,0.3c0.1-0.5,0.1-1.1,0.2-1.6c0.1-1.1,0.2-2.1,0.3-3.2
	c0.4-4.2,0.9-8.4,1.3-12.6c0.2-1.5-2.2-1.5-2.4,0c-0.6,5.6-1.4,11.3-1.8,16.9c-0.1,1.9,0.8,2.5,2.6,2.6c2.7,0,5.4-0.3,8.1-0.8
	C122.8,595.2,122.2,592.9,120.6,593.2z"/>
<path d="M137,591.8c-2.5,0.5-5,1-7.5,1.4c0.3-5.5,0.5-11,0.8-16.4c0.1-1.5-2.3-1.5-2.4,0c-0.3,6-0.6,11.9-0.9,17.9
	c0,0.8,0.8,1.3,1.5,1.2c3-0.5,6.1-1.1,9.1-1.7C139.1,593.8,138.5,591.5,137,591.8z"/>
<path d="M163.7,575.4c-0.7,0.1-1.1,0.6-1.1,1.1c0,0-0.1,0.1-0.1,0.1c-2.2,1.4-3.9,4.1-5,6.4c-1.6,3.5-3.6,10.7,0.7,13.2
	c4.8,2.8,9.5-3.4,10.6-7.3C169.9,585.1,169.8,575,163.7,575.4z M166.5,588.3c-0.4,1.4-1.1,2.8-2,3.9c-1.1,1.3-3.3,3-5.1,2
	c-2.5-1.4-1.2-6.3-0.5-8.3c0.4-1.2,5-9.8,6.5-6.9c0.2,0.3,0.5,0.5,0.7,0.6C167.3,582,166.9,586.7,166.5,588.3z"/>
<path d="M188.8,576.2c-3.4,0.8-6.5,0.3-9.9,0.3c-0.4-0.2-0.9-0.3-1.3-0.1c-0.2,0-0.3,0-0.5,0c-1.5-0.1-1.5,2.1-0.2,2.4
	c-0.3,5.6-0.7,11.2-1.3,16.8c-0.2,1.5,2.2,1.5,2.4,0c0.3-2.8,0.5-5.6,0.8-8.4c2.9,0.3,5.8,0.1,8.6-0.5c1.5-0.3,0.9-2.6-0.6-2.3
	c-2.6,0.5-5.2,0.7-7.8,0.4c0.1-2,0.2-3.9,0.3-5.9c3.6,0,6.7,0.5,10.2-0.3C190.9,578.2,190.3,575.9,188.8,576.2z"/>
<path d="M217.5,586c2.5-1.2,4.7-3,4.1-5.8c-0.9-3.9-6.5-5-9.8-4c-0.1,0-0.3,0.1-0.4,0.2c-0.6,0-1.2,0.4-1.3,1.2
	c-0.4,5.5-1.1,11-2,16.4c-0.9,0.4-1.1,2,0.1,2.3c4.2,1,9.3-0.3,11.8-4C222.2,589.1,220.2,587.1,217.5,586z M218.9,581.9
	c-0.9,2.1-4.5,2.8-6.5,3.3c-0.3,0.1-0.5,0.2-0.6,0.4c0.3-2.4,0.5-4.7,0.7-7.1C214.4,577.9,220.4,578.5,218.9,581.9z M216.6,592.4
	c-1.8,1.4-3.9,1.9-6.1,1.8c0.4-2.5,0.8-4.9,1.1-7.4c0.2,0.4,0.5,0.8,1.1,0.7c1.5-0.1,3.1,0.1,4.4,0.8
	C219.4,589.5,218.2,591.2,216.6,592.4z"/>
<path d="M238.5,598.9c-0.7-7.1-1.5-14.2-2.2-21.4c-0.1-0.5-0.4-0.9-0.8-1c-0.3-0.9-1.9-1.1-2.3,0.1c-2.2,6.1-4.4,12.3-6.6,18.4
	c-0.5,1.5,1.8,2.1,2.3,0.6c0.6-1.6,1.1-3.1,1.7-4.7c1.6,0.2,3.1,0.3,4.7,0.2c0.3,2.6,0.5,5.2,0.8,7.7
	C236.2,600.5,238.6,600.5,238.5,598.9z M231.4,588.6c0.9-2.6,1.9-5.2,2.8-7.9c0.3,2.7,0.6,5.4,0.8,8
	C233.8,588.8,232.6,588.7,231.4,588.6z"/>
<path d="M254.7,593.9c-1.2,0.2-2.4,0.3-3.6,0.3c-1,0.1-2.2-0.1-3.2,0.1c-0.2-0.1-0.4-0.1-0.5-0.1c0-0.4,0-0.8,0.1-1.2
	c0.1-0.9,0.1-1.9,0.2-2.8c0.2-4.1,0.5-8.2,0.7-12.3c0.1-1.5-2.3-1.5-2.4,0l-0.5,8.3c-0.2,2.7-0.6,5.6-0.5,8.3c0.1,1.4,0.8,2,2.1,2.1
	c2.7,0.3,5.6-0.1,8.2-0.5C256.8,596,256.2,593.7,254.7,593.9z"/>
<path d="M269.7,593.9c-2.4-0.3-4.7-0.3-7,0.2c0.5-5.5,1.3-11,2.4-16.5c0.3-1.5-2-2.2-2.3-0.6c-1.2,6.2-2.1,12.4-2.6,18.7
	c-0.1,0.8,0.8,1.4,1.5,1.2c2.4-0.7,4.9-0.9,7.4-0.6C270.6,596.5,271.2,594.1,269.7,593.9z"/>
<path d="M281.6,575.4c-0.1,0-0.2,0.1-0.2,0.1c-8.1,2.8-9.8,20.9-1,20c4.9-0.5,7.2-6.7,7.6-10.9C288.3,581,287.1,573.3,281.6,575.4z
	 M285.4,585.6c-0.4,2.6-2.3,7.8-5.7,7.6c-3.6-0.2-2.9-6.7-2.4-8.8c0.8-3.1,2.7-6.7,6.2-6.8C286,578.1,285.7,583.8,285.4,585.6z"/>
<path d="M305.8,578.9c-0.3-2-1-4.1-3-4.8c-1.9-0.7-3.8,0.2-4.9,1.8c0,0,0,0.1-0.1,0.1c-4,1.8-5.2,8.5-4.8,12.2
	c0.2,2.1,0.7,4.5,2.4,6c1.7,1.5,4.2,1.2,5.9-0.1C305.6,591.1,306.5,583.7,305.8,578.9z M303.6,583.1c-0.2,2.9-1.2,7.4-3.7,9.2
	c-3.9,2.7-4.6-4-4.5-6.3c0.2-2.7,1.3-7.6,4.4-8c0.8-0.1,1-0.9,0.8-1.5c1.2-0.8,2.5,0.8,2.8,2.2C303.7,580.1,303.7,581.6,303.6,583.1
	z"/>
<path d="M324.3,575.8c-0.1,5.4-0.5,10.8-1.2,16.2c-2.4-5.5-4.5-11.1-6.4-16.8c-0.4-1.1-1.8-1-2.2-0.3c-0.4,0.2-0.7,0.5-0.8,1
	c-0.9,6.4-1.7,12.8-2.6,19.2c-0.2,1.5,2.2,1.5,2.4,0c0.7-5.3,1.4-10.5,2.1-15.8c1.9,5.3,4,10.6,6.2,15.7c0.6,1.3,2.3,0.4,2.2-0.8
	c0.6,0.1,1.2-0.1,1.3-0.8c0.9-5.9,1.4-11.8,1.4-17.7C326.7,574.3,324.3,574.3,324.3,575.8z"/>
<path d="M340.4,573.2c-3.6-0.2-6.2,3.3-6.2,6.7c0,4.3,3.2,6.2,5.7,9.3c0.8,0.9,1.7,2,1.8,3.3c0.1,2-1.7,2.4-3.3,2
	c-2.3-0.5-4.2-2.3-5.9-4c-1.1-1.1-2.8,0.6-1.7,1.7c2.4,2.3,5.4,5,9,4.8c3.2-0.1,4.9-3,4-5.9c-1.1-3.6-4.9-4.6-6.5-8
	c-1.1-2.2-1.3-5.3,0.9-6.9c2-1.5,4.8,0.1,4.4,2.7c-0.3,1.5,2,2.2,2.3,0.6C345.5,576.6,343.6,573.4,340.4,573.2z"/>
<path d="M364.7,576.2c-1.4-1.5-4.2-1.8-6-1.8c-2.1-0.1-4.5,0.1-5.9,1.9c-0.9,1.2,0.9,2.8,1.8,1.5c1.3-1.7,6-1.4,7.6-0.3
	c1,0.6,0.1,1.2-0.5,2c-0.7,0.9-1.3,1.8-1.9,2.7c-1.3,2.1-4.1,6.5-1.1,8.3c1.3,0.8,2.3-1.4,1-2.2c-1.1-0.7,3.6-7,4-7.6
	C364.8,579.3,366.1,577.8,364.7,576.2z"/>
<path d="M359.9,594.6c-0.1-0.3-0.3-0.5-0.5-0.7c-0.1-0.1-0.3-0.2-0.5-0.3c-0.6-0.1-1.4,0.2-1.5,0.8c-0.1,0.5,0,0.9,0.3,1.3
	c0.3,0.3,0.9,0.5,1.3,0.3c0.3-0.1,0.5-0.3,0.7-0.6C360,595.3,360,594.9,359.9,594.6z"/>
<path class="st0" d="M215.1,174.7c-18.1-1.2-36.2,5.4-49.5,17.8c-6.6,6.1-11.7,13.9-15,22.2c-3.3,8.3-5.5,17.8-4,26.7
	c0.3,1.7,3.2,1.6,3.4-0.1c1-6.3,1.8-12.3,3.6-18.3c-1,5.6-0.8,11.3,0.9,16.9c1.2,3.8,7,2.1,5.9-1.7c-1-3.1-1.4-6.4-1.3-9.5
	c0.3-0.3,0.5-0.8,0.7-1.3c1-4.2,2.4-8.3,4.1-12.3c0.4-0.6,0.7-1.2,1.1-1.8c1.1,0.5,2.4,0.5,3.5-0.6c7.7-7.6,15.5-15.3,23.2-22.9
	c0.5-0.5,0.7-1,0.8-1.6c6.9-3.9,14.6-6.5,22.6-7.3C219.1,180.3,219,174.9,215.1,174.7z M172.8,194.3
	C172.8,194.3,172.8,194.2,172.8,194.3c1.9-1.7,3.9-3.1,6-4.5C176.7,191.2,174.7,192.7,172.8,194.3z M159.1,210.9
	c-0.1,0-0.2,0.1-0.3,0.1c0.4-0.7,0.8-1.3,1.1-1.9C159.6,209.7,159.4,210.3,159.1,210.9z"/>
<path class="st0" d="M266.2,190.7c-8.4-8.9-21-14.7-34.9-15.9c-15.1-1.3-31.3,4.9-42.4,13.8c-0.3,0.1-0.6,0.2-0.9,0.3
	c-11.1,4.2-20.6,12.7-24.7,22.2c-18.1,17.3-21.6,41.4-15.5,62.1c3.8,12.8,11.2,24.2,23.3,32.5c5.1,3.6,11.1,6.2,17.5,8.1
	c7.9,2.3,16.3,2.5,24.8,1.8c8.2-0.7,16.6-2.4,24.2-5.4c7.7-3.1,13.9-8.5,19.2-14c8.8-9.3,14.7-20.5,18.2-31.6
	C282.8,239.8,285.1,210.8,266.2,190.7z M256,229c0,0.2,0,1.2,0,1.6c0,0.8,0,1.5,0,2.3c0,0.2,0,0.3,0,0.5c-0.1-0.1-0.1-0.1-0.2-0.2
	c-0.1-0.9-0.2-1.8-0.3-2.7c0.1-1.1,0.1-2.1,0.1-3.2c0-0.7,0-1.3,0-2C255.8,226.5,255.9,227.8,256,229z"/>
<path class="st0" d="M42.8,195.5c-1.2-2.9-3.8-3.3-6.2-2.3c-2.6,1.1-5.1,2.1-7.4,3.8c-2.6,1.9-5.1,4-7.4,6.3
	c-4.4,4.4-8.3,9.5-11.5,15.1c-3.7,6.5-6,13.7-7.3,21.2C2.3,242.8,2,246,2,249.3c0,4.8,0.8,8.8,2.1,13.3c1,3.4,5,5.1,7.9,4.3
	c3.9-1,6.4-5.5,5.7-9.9c-0.2-1.3-0.4-2.6-0.5-3.9c0-0.2,0-0.4,0-0.7c0.1,1.8,0.1,1.4-0.1-1.3c-0.1-0.6-0.1-1.1-0.2-1.7
	c0-0.3-0.1-0.9-0.1-1.1c0-0.9,0-1.7,0-2.6c0.1-1.5,0.2-3,0.4-4.6c0.1-0.6,0.2-1.3,0.3-1.9c0.1-0.3,0.1-0.7,0.2-1
	c0.3-1.5,0.7-3,1.2-4.4c0.4-1.5,1-2.9,1.5-4.3c0.1-0.2,0.4-0.9,0.5-1.2c0.3-0.5,0.5-1.1,0.8-1.6c1.2-2.5,2.7-5,4.2-7.3
	c0.3-0.5,0.7-1,1-1.5c0.1-0.2,0.8-1,1-1.3c0.8-1,1.5-1.9,2.4-2.8c1.8-2.1,3.7-4,5.7-5.9c1.9-1.9,3.7-4,5.5-6
	C43.2,200.3,43.7,197.7,42.8,195.5z"/>
<path class="st0" d="M416,197.6c-8.2-9.6-20.2-16.1-33.4-17.7c-14.4-1.7-29.5,4.5-39.9,13.8c-0.3,0.1-0.6,0.2-0.9,0.3
	c-10.4,4.2-19.3,13-22.9,23.1c-16.8,17.9-19.6,43.5-13.4,65.6c3.8,13.7,11.1,25.9,22.7,35c4.9,3.9,10.7,6.9,16.8,9
	c7.5,2.6,15.5,3,23.5,2.4c7.8-0.5,15.7-2.2,22.8-5.3c7.3-3.2,13-8.7,17.9-14.5c8.2-9.6,13.5-21.4,16.6-33.2
	C432.8,250.1,434.4,219.3,416,197.6z M407.1,238.1c0,0.2,0.1,1.3,0.1,1.7c0,0.8,0,1.6,0,2.4c0,0.2,0,0.3,0,0.5
	c0-0.1-0.1-0.1-0.1-0.2c-0.1-0.9-0.2-1.9-0.3-2.8c0-1.1,0-2.2,0-3.4c0-0.7,0-1.4,0-2.1C406.9,235.4,407,236.7,407.1,238.1z"/>
<path class="st1" d="M359.2,197.8c-1.2-2.9-3.8-3.3-6.2-2.3c-2.6,1.1-5.1,2.1-7.4,3.8c-2.6,1.9-5.1,4-7.4,6.3
	c-4.4,4.4-8.3,9.5-11.5,15.1c-3.7,6.5-6,13.7-7.3,21.2c-0.6,3.2-0.9,6.5-0.8,9.8c0,4.8,0.8,8.8,2.1,13.3c1,3.4,5,5.1,7.9,4.3
	c3.9-1,6.4-5.5,5.7-9.9c-0.2-1.3-0.4-2.6-0.5-3.9c0-0.2,0-0.4,0-0.7c0.1,1.8,0.1,1.4-0.1-1.3c-0.1-0.6-0.1-1.1-0.2-1.7
	c0-0.3-0.1-0.9-0.1-1.1c0-0.9,0-1.7,0-2.6c0.1-1.5,0.2-3,0.4-4.6c0.1-0.6,0.2-1.3,0.3-1.9c0.1-0.3,0.1-0.7,0.2-1
	c0.3-1.5,0.7-3,1.2-4.4c0.4-1.5,1-2.9,1.5-4.3c0.1-0.2,0.4-0.9,0.5-1.2c0.3-0.5,0.5-1.1,0.8-1.6c1.2-2.5,2.7-5,4.2-7.3
	c0.3-0.5,0.7-1,1-1.5c0.1-0.2,0.8-1,1-1.3c0.8-1,1.5-1.9,2.4-2.8c1.8-2.1,3.7-4,5.7-5.9c1.9-1.9,3.7-4,5.5-6
	C359.6,202.6,360.1,200,359.2,197.8z"/>
<path class="st0" d="M364.2,178.7c-7.6,0.8-14.5,3.6-21.2,6.9c-6.3,3.2-12.8,6.5-18.3,11c-5.5,4.5-8.4,10.9-10.6,17.5
	c-2.1,6.6-5.2,14.7-3.6,21.7c0.3,1.5,2.4,1.2,2.8,0c0.9-3.1,1.4-6.4,2.3-9.6c0.3-1.2,0.7-2.3,1-3.5c0.9,0.1,1.8-0.1,2.5-0.7
	c3.9-3.1,7.1-6.8,10-10.8c1.5-2.1,2.7-4.4,3.8-6.8c0.8-1.7,1.6-4.2,3.6-4.9c1.5-0.5,2.1-1.7,1.9-2.9c8-5.6,17.5-9.5,26.6-12.3
	C368,183.4,367.5,178.4,364.2,178.7z"/>
<path class="st1" d="M205.5,187.7c-7.9,2-15.7,5.6-22.4,9.3c-7.2,4.1-13.3,9.2-17.1,15.4c-3.7,6-5.1,12.7-5.4,19.3
	c-0.2,3.3,0.2,6.7,0.6,10c0.4,3.5,0.9,7.3,2.7,10.6c1.1,2,5.7,2.7,6.3-0.1c1.3-5.9,0-12.1,0.3-18.1c0.3-5.7,1.5-11.5,4.6-16.8
	c3-5.2,8-9.4,14-12.7c6.6-3.6,14.2-5.7,20.9-9.1C215.1,192.9,211.7,186.1,205.5,187.7z"/>
<path class="st0" d="M371.4,368.9c-0.1-3.4-3.2-7.2-6.9-6.7c-14.5,2-28,9.3-37.1,20.9c-4.8,6.2-8.3,13.2-10.2,20.9
	c-0.9,3.7-1.4,7.4-1.5,11.2c0,1.9,0,3.7,0.2,5.6c0.2,2.4,1.1,4.1,2,6.3c1.5,3.3,7,2.2,7.7-1.1c1.2-6.2,1.2-12,2.9-18.3
	c0.9-3.2,1.8-5.3,3.3-8.3c1.4-2.7,3.2-5.6,4.7-7.4c4-4.9,7.6-7.8,12.8-10.8c1.2-0.7,2.5-1.4,3.8-2c-0.4,0.2,1.1-0.5,1.2-0.5
	c0.8-0.3,1.7-0.6,2.5-0.9c1.5-0.5,3-0.9,4.5-1.3c0.6-0.2,1.3-0.3,1.9-0.4c0.2-0.1,2.8-0.5,1.5-0.3
	C368.3,375.3,371.4,373,371.4,368.9z"/>
<path class="st0" d="M112.5,374.2c-6.5-11.6-17.5-20.6-30.4-24.7c-14.1-4.5-30.5-0.8-42.6,7c-0.3,0-0.6,0.1-0.9,0.2
	c-11.2,2.4-21.7,10.1-27.1,19.9c-20.1,15.7-27.5,42-25.2,66.2c1.4,15.1,6.6,29.2,16.6,41c4.3,5,9.5,9.2,15.2,12.5
	c7.1,4.1,15.1,6,23.2,6.9c7.9,0.9,16.1,0.6,23.8-1.3c7.9-2,14.6-6.7,20.6-11.9c9.9-8.6,17.4-20,22.6-31.7
	C120,432.4,127.1,400.4,112.5,374.2z M96.4,415c0,0.2-0.2,1.4-0.2,1.8c-0.1,0.8-0.3,1.7-0.4,2.5c0,0.2-0.1,0.3-0.1,0.5
	c0-0.1-0.1-0.2-0.1-0.2c0.1-1,0.1-2,0.2-3c0.2-1.2,0.4-2.3,0.6-3.5c0.1-0.7,0.2-1.5,0.3-2.2C96.6,412.2,96.5,413.6,96.4,415z"/>
<path class="st0" d="M51.4,349.8c-8-1.3-15.7,2-22.5,6.5c-2,1.1-3.9,2.4-5.8,3.7C15,364.4,7.6,370,2.1,377.2
	c-10,13-14.5,30.1-13,46.2c0.3,2.6,4.2,2.6,4.3-0.1c0.3-7,1.1-13.9,2.8-20.6c1.7,1,4.4,0.2,4.4-2.2c-0.1-2.4,0.5-4.6,1.3-6.8
	c1.4,1.2,4.4,1.2,4.6-1.2c0.6-9.5,5.4-17.5,15.3-23.7c0.5-0.3,0.9-0.8,1.4-1.2c0.8-2.8,3.3-4,6.4-4.5c7-3.4,14.5-6,22-8.1
	C54.1,354.3,54.3,350.3,51.4,349.8z"/>
<path class="st0" d="M263.6,356.9c-8.2-9.6-20.2-16.1-33.4-17.7c-14.4-1.7-29.5,4.5-39.9,13.8c-0.3,0.1-0.6,0.2-0.9,0.3
	c-10.4,4.2-19.3,13-22.9,23.1C149.7,394.4,146.8,420,153,442c3.8,13.7,11.1,25.9,22.7,35c4.9,3.9,10.7,6.9,16.8,9
	c7.5,2.6,15.5,3,23.5,2.4c7.8-0.5,15.7-2.2,22.8-5.3c7.3-3.2,13-8.7,17.9-14.5c8.2-9.6,13.5-21.4,16.6-33.2
	C280.4,409.5,281.9,378.7,263.6,356.9z M254.7,397.4c0,0.2,0.1,1.3,0.1,1.7c0,0.8,0,1.6,0,2.4c0,0.2,0,0.3,0,0.5
	c0-0.1-0.1-0.1-0.1-0.2c-0.1-0.9-0.2-1.9-0.3-2.8c0-1.1,0-2.2,0-3.4c0-0.7,0-1.4,0-2.1C254.5,394.8,254.6,396.1,254.7,397.4z"/>
<path class="st1" d="M206.8,357.2c-1.2-2.9-3.8-3.3-6.2-2.3c-2.6,1.1-5.1,2.1-7.4,3.8c-2.6,1.9-5.1,4-7.4,6.3
	c-4.4,4.4-8.3,9.5-11.5,15.1c-3.7,6.5-6,13.7-7.3,21.2c-0.6,3.2-0.9,6.5-0.8,9.8c0,4.8,0.8,8.8,2.1,13.3c1,3.4,5,5.1,7.9,4.3
	c3.9-1,6.4-5.5,5.7-9.9c-0.2-1.3-0.4-2.6-0.5-3.9c0-0.2,0-0.4,0-0.7c0.1,1.8,0.1,1.4-0.1-1.3c-0.1-0.6-0.1-1.1-0.2-1.7
	c0-0.3-0.1-0.9-0.1-1.1c0-0.9,0-1.7,0-2.6c0.1-1.5,0.2-3,0.4-4.6c0.1-0.6,0.2-1.3,0.3-1.9c0.1-0.3,0.1-0.7,0.2-1
	c0.3-1.5,0.7-3,1.2-4.4c0.4-1.5,1-2.9,1.5-4.3c0.1-0.2,0.4-0.9,0.5-1.2c0.3-0.5,0.5-1.1,0.8-1.6c1.2-2.5,2.7-5,4.2-7.3
	c0.3-0.5,0.7-1,1-1.5c0.1-0.2,0.8-1,1-1.3c0.8-1,1.5-1.9,2.4-2.8c1.8-2.1,3.7-4,5.7-5.9c1.9-1.9,3.7-4,5.5-6
	C207.2,362,207.7,359.3,206.8,357.2z"/>
<path class="st0" d="M211.7,338.1c-7.6,0.8-14.5,3.6-21.2,6.9c-6.3,3.2-12.8,6.5-18.3,11c-5.5,4.5-8.4,10.9-10.6,17.5
	c-2.1,6.6-5.2,14.7-3.6,21.7c0.3,1.5,2.4,1.2,2.8,0c0.9-3.1,1.4-6.4,2.3-9.6c0.3-1.2,0.7-2.3,1-3.5c0.9,0.1,1.8-0.1,2.5-0.7
	c3.9-3.1,7.1-6.8,10-10.8c1.5-2.1,2.7-4.4,3.8-6.8c0.8-1.7,1.6-4.2,3.6-4.9c1.5-0.5,2.1-1.7,1.9-2.9c8-5.6,17.5-9.5,26.6-12.3
	C215.6,342.8,215,337.7,211.7,338.1z"/>
<path class="st1" d="M62.1,367.8c-0.1-3.6-3.6-7.7-7.7-7.1c-16,2.1-30.9,9.9-40.9,22.3c-5.3,6.6-9.1,14.1-11.3,22.2
	c-1,3.9-1.5,7.9-1.6,11.9c-0.1,2,0.1,4,0.2,5.9c0.2,2.6,1.2,4.4,2.2,6.7c1.7,3.6,7.8,2.4,8.5-1.2c1.3-6.6,1.4-12.8,3.2-19.4
	c1-3.4,1.9-5.7,3.6-8.8c1.5-2.9,3.6-5.9,5.2-7.9C28,387,32,384,37.8,380.8c1.4-0.8,2.8-1.4,4.2-2.1c-0.4,0.2,1.2-0.5,1.3-0.5
	c0.9-0.3,1.8-0.7,2.7-1c1.6-0.5,3.3-0.9,4.9-1.3c0.7-0.2,1.4-0.3,2.1-0.5c0.3-0.1,3.1-0.5,1.6-0.3C58.8,374.6,62.2,372.1,62.1,367.8
	z"/>
<path d="M209.3,320c-13.5,0-26.2-4.2-35.9-11.9c-5-4-9.7-9.1-15-16c-5.4-7.2-8.9-13.1-11.2-19c-4.8-12-5.7-26.7-2.6-43.7
	c0.7-3.9,1.6-7.6,2.7-11l0-0.1l0-0.1c0.5-11.9,9-22.2,14-27.3c8.6-8.7,19.4-15,31.3-18.1c7.1-1.9,14.5-2.8,22.1-2.8
	c6.2,0,12.3,0.6,18.3,1.9c7.4,1.6,13.2,3.9,17.5,7.1c4.5,3.3,8.6,7.6,13,13.4c5.3,7.2,8.6,13.4,10.4,19.6c1.9,6.7,2.8,14.1,2.6,22.6
	c-0.3,13.6-1.4,29.5-7.4,43.5c-10.9,25.3-34.2,41.8-59.3,42L209.3,320z M214.8,174.5c-0.5,0-1,0-1.5,0c-15.8,0.3-30.1,4.8-41.3,13.2
	c-3.1,2.3-5.9,4.8-8.5,7.6l-0.1,0.1l-0.1,0.2c0,0.1-0.1,0.2-0.2,0.3c-4.7,5.4-8.4,12-11,19.7l0,0l0,0c-0.6,2.7-0.8,5.4-0.6,8
	c0.1,1.2-1,1.7-1.6,1.8l-0.5,0.1l-0.1,0.5c-1.2,5.7-1.9,11.9-2,18.2c-0.3,11.9,1.2,21,4.8,28.6c3.7,7.9,8.9,15.8,15.6,23.3
	c10.1,11.3,22.5,17.9,35.8,19c1.7,0.1,3.5,0.2,5.2,0.2c11.9,0,23.2-3.4,32.6-9.9c10.4-7.1,19-17.8,24.1-29.9
	c2.6-6.1,4.4-13.1,5.3-20.7c1.1-8.9,1.6-16.7,1.4-24.1c-0.2-9.3-1.6-16.6-4.4-22.9c-2.8-6.4-7.2-13-12.7-18.9
	c-5.5-5.9-11.6-9.8-18.8-11.7C229.3,175.5,222.2,174.5,214.8,174.5z"/>
<path d="M49.8,328.5c-4.9,0-9.9-0.6-14.6-1.7c-11.6-2.8-21.9-8.4-29.8-16.2c-5-5-9.3-11-12.6-17.8l0-0.1l-0.1-0.1
	c-3.7-5.1-6.6-11.2-8.4-17.5c-3.5-12.5-3.5-26.6,0.1-40.6c1.7-6.7,4.2-13.6,7.3-20.4c0.3-0.8,0.7-1.5,1.1-2.3l0-0.1
	c1.7-5,3.9-9.5,6.5-13.4c10-15.2,28.5-24.3,49.6-24.3c6.8,0,13.4,1,19.6,2.9c22.9,7,40.1,26.7,46.1,52.7
	c6.3,27.1,0.2,55.8-15.7,74.9c-8.3,10-18.6,17.2-29.9,21C62.9,327.5,56.5,328.5,49.8,328.5C49.8,328.5,49.8,328.5,49.8,328.5z
	 M-1.4,215c-1.5,0-2.8,0.8-3.6,2.2c0,0.1-0.1,0.2-0.1,0.3l-0.1,0.2l0,0c-0.4,0.9-0.8,1.8-1.1,2.7c-2.9,7.1-5,13.9-6.2,20.4
	c-2.8,14.6-1.6,28.4,3.4,40c2.8,6.4,6.9,11.7,11,16.5l0.7,0.8c2.6,3.1,5.6,6.5,6.9,10.4l0.1,0.2l0.1,0.1c2.2,2,4.5,3.9,6.9,5.4
	c10.1,6.6,21.5,10.1,33,10.1h0.2c24.6,0,47.6-16.7,57.3-41.5c9.9-25.3,7.5-54.4-6.2-75.9c-7.1-11.2-16.8-19.5-28-24.1
	c-7.4-3-15.6-4.6-23.8-4.6h-0.2l-0.4,0.1l-1.8,0.3c-2,0.3-4,0.7-6,1.1c-3.8,0.8-7.6,1.9-11.2,3.3c-8.7,4.1-18.5,9.2-25.2,17.8
	l-0.6,0.8l0.9,0.4c0.4,0.2,0.7,0.5,0.7,0.8c0.1,0.2,0,0.5-0.1,0.7c-0.6,1-1.2,1.9-1.7,2.7C1.6,209.1,0,212-1.4,215
	C-1.4,215-1.4,215-1.4,215z"/>
<path d="M366.3,330.9c-4.9,0-9.9-0.6-14.6-1.7c-11.6-2.8-21.9-8.4-29.8-16.2c-5-5-9.3-11-12.6-17.8l0-0.1l0-0.1
	c-3.7-5.2-6.6-11.2-8.4-17.6c-3.5-12.5-3.5-26.6,0.1-40.6c1.7-6.7,4.2-13.6,7.3-20.4c0.3-0.8,0.7-1.5,1.1-2.3l0-0.1
	c1.7-5,3.9-9.5,6.5-13.4c10-15.2,28.5-24.3,49.6-24.3c6.8,0,13.4,1,19.6,2.9c22.9,7,40.1,26.7,46.1,52.7
	c6.3,27.1,0.2,55.8-15.7,74.9c-8.3,10-18.6,17.2-29.9,21C379.4,329.8,372.9,330.9,366.3,330.9L366.3,330.9z M315,217.3
	c-1.5,0-2.8,0.8-3.6,2.2c0,0.1-0.3,0.5-0.3,0.5l0,0c-0.4,0.9-0.8,1.8-1.1,2.7c-2.9,7.1-5,13.9-6.2,20.4c-2.8,14.6-1.6,28.4,3.4,40
	c2.8,6.4,6.9,11.7,11,16.5l0.7,0.8c2.6,3.1,5.6,6.5,6.9,10.4l0.1,0.2l0.1,0.1c2.2,2,4.5,3.9,6.9,5.4c10.1,6.6,21.5,10.1,33,10.1h0.2
	c24.6,0,47.6-16.7,57.3-41.5c9.9-25.3,7.5-54.4-6.2-75.9c-7.1-11.2-16.8-19.5-28-24.1c-7.4-3-15.6-4.6-23.8-4.6h-0.2l-0.4,0.1
	l-1.8,0.3c-2,0.3-4,0.7-6,1.1c-3.8,0.8-7.6,1.9-11.2,3.3c-8.7,4.1-18.5,9.2-25.2,17.8l-0.6,0.8l0.9,0.4c0.4,0.2,0.7,0.5,0.7,0.8
	c0.1,0.2,0,0.5-0.1,0.7c-0.6,0.9-1.1,1.8-1.7,2.7C318,211.4,316.5,214.3,315,217.3C315,217.3,315,217.3,315,217.3z"/>
<path d="M362.5,495.9c-3.7,0-7.4-0.4-11-1.3c-20.6-4.9-37.7-21.3-44.6-42.9c-3.5-11-4.7-23.3-3.4-35.4c0.5-4.3,1-8.1,1.8-11.5
	l0.1-0.6l-0.5-0.3c-0.4-0.2-1.2-0.8-1-2c2-12.9,8.7-25.5,18.5-34.5c11.5-10.5,26.6-16.3,42.6-16.3c7.1,0,14.1,1.2,20.8,3.5
	c10.9,3.8,20.3,10,27.1,18c7.5,8.8,11.9,19.4,13.3,31.6c2.8,25.3-3.8,50.7-17.6,68C396.7,487.1,379.5,495.9,362.5,495.9
	C362.5,495.9,362.5,495.9,362.5,495.9z M364.4,354.7c-5.6,0-11.1,0.8-16.4,2.3c-13.6,3.9-25.3,12.7-32.9,24.8l-0.5,0.9l1,0.3
	c0.2,0.1,0.5,0.3,0.6,0.5c0.1,0.2,0.1,0.3,0,0.5c-1.7,2.8-3.1,5.8-4.3,9c-4.2,11-6,23.6-5.4,36.3c0.7,13.3,3.9,25,9.8,34.7
	c10.4,17.3,28.7,28.5,46.6,28.5c2.6,0,5.2-0.2,7.8-0.7c21.6-3.9,39.8-21.1,47.5-44.9c3.8-11.7,5.5-24.3,5-36.4
	c-0.6-14-4.6-25.4-11.7-34.1C400.1,362.8,382.6,354.7,364.4,354.7z"/>
<path d="M52.4,502.8c-4.1,0-8.2-0.5-12.2-1.4c-22.8-5.2-41.7-22.7-49.4-45.6c-3.9-11.7-5.2-24.7-3.8-37.6c0.5-4.6,1.2-8.6,2-12.2
	l0.1-0.6l-0.5-0.3c-0.4-0.2-1.4-0.9-1.1-2.1c2.2-13.7,9.6-27.1,20.5-36.6c12.7-11.2,29.4-17.4,47.1-17.4c7.9,0,15.6,1.2,23,3.7
	c12.1,4,22.5,10.6,29.9,19.1c8.2,9.3,13.2,20.7,14.7,33.6c3.1,26.9-4.2,53.9-19.5,72.3C90.1,493.4,71.2,502.8,52.4,502.8L52.4,502.8
	z M54.5,352.8c-6.2,0-12.2,0.8-18.1,2.4c-15,4.2-27.9,13.5-36.3,26.3l-0.6,0.9l1,0.3c0.3,0.1,0.6,0.3,0.7,0.6
	c0.1,0.2,0.1,0.4-0.1,0.5c-1.8,3-3.4,6.2-4.7,9.5c-4.6,11.7-6.7,25.1-6,38.6c0.7,14.1,4.4,26.5,10.8,36.8
	C12.7,487.1,32.9,499,52.6,499c2.9,0,5.7-0.2,8.6-0.7c23.8-4.1,43.9-22.4,52.4-47.7c4.2-12.4,6.1-25.8,5.5-38.7
	c-0.7-14.9-5-27-12.9-36.2C93.8,361.3,74.5,352.8,54.5,352.8z"/>
<path d="M213.8,490.2c-4.9,0-9.9-0.6-14.6-1.7c-11.6-2.8-21.9-8.4-29.8-16.2c-5-5-9.3-11-12.6-17.8l0-0.1l0-0.1
	c-3.7-5.2-6.6-11.2-8.4-17.5c-3.5-12.5-3.5-26.6,0.1-40.6c1.7-6.7,4.2-13.6,7.3-20.4c0.3-0.8,0.7-1.5,1.1-2.3l0-0.1
	c1.7-5,3.9-9.5,6.5-13.4c10-15.2,28.5-24.3,49.6-24.3c6.8,0,13.4,1,19.6,2.9c22.9,7,40.1,26.7,46.1,52.7
	c6.3,27.1,0.2,55.8-15.7,74.9c-8.3,10-18.6,17.2-29.9,21C226.9,489.2,220.5,490.2,213.8,490.2L213.8,490.2z M160.7,377.1
	c-0.7,0.4-1.3,1-1.8,1.7c0,0.1-0.3,0.5-0.3,0.5l0,0c-0.4,0.9-0.8,1.8-1.1,2.7c-2.9,7.1-5,13.9-6.2,20.4c-2.8,14.6-1.6,28.4,3.4,40
	c2.8,6.4,6.9,11.7,11,16.5l0.7,0.8c2.6,3.1,5.6,6.5,6.9,10.4l0.1,0.2l0.1,0.1c2.2,2,4.5,3.9,6.9,5.4c10.1,6.6,21.5,10.1,33,10.1h0.2
	c24.6,0,47.6-16.7,57.3-41.5c9.9-25.3,7.5-54.4-6.2-75.9c-7.1-11.2-16.8-19.5-28-24.1c-7.4-3-15.6-4.6-23.8-4.6h-0.2l-0.4,0.1
	l-1.8,0.3c-2,0.3-4,0.7-6,1.1c-3.8,0.8-7.6,1.9-11.2,3.3c-8.7,4.1-18.5,9.2-25.2,17.8l-0.6,0.8l0.3,0.1c-0.9,0.8-1.5,1.8-1.8,2.9
	c-1.6,1.9-2.8,3.9-3.7,6.1c-0.3,0.4-0.5,0.8-0.7,1.2C160.9,374.7,160.7,375.9,160.7,377.1z"/>
</svg>
