<?xml version="1.0" encoding="utf-8"?>
<!-- Generator: Adobe Illustrator 19.0.0, SVG Export Plug-In . SVG Version: 6.00 Build 0)  -->
<svg version="1.1" id="Layer_1" xmlns="http://www.w3.org/2000/svg" xmlns:xlink="http://www.w3.org/1999/xlink" x="0px" y="0px"
	 viewBox="-177 352.7 255.5 89.4" style="enable-background:new -177 352.7 255.5 89.4;" xml:space="preserve">
<style type="text/css">
	.st0{fill:#221F1F;}
</style>
<path id="XMLID_38_" class="st0" d="M-115.1,398.9c-3.1,0.5-6.3,4.1-5.4,7.4c1.2,4.5,7.5,1.4,8.8,5.4c0.7,2-0.2,4.4-2.1,5.4
	c-2,1.1-4.4-0.1-4.8-2.3c-0.3-1.6-2.7-0.9-2.4,0.7c0.6,3.1,3.9,5.2,7,4.4c3.2-0.8,5.2-4.3,4.9-7.5c-0.2-1.5-0.8-3.1-2-4.1
	c-1.6-1.4-3.5-1.1-5.4-1.5c-3-0.6-1.3-4,0.5-5c1.9-1.1,5.2-0.3,5.1,2.4c-0.1,1.6,2.4,1.6,2.5,0
	C-108.2,400.6-111.9,398.3-115.1,398.9z"/>
<path id="XMLID_51_" class="st0" d="M-93.5,401.2c0.7-0.5,1-1.6,0-2.1c-5.4-2.6-9,4.6-10.1,8.8c-1,3.9-1.4,12.8,4.9,12.3
	c5.2-0.4,7.3-8.3,7.3-12.5C-91.5,405.5-91.8,402.8-93.5,401.2z M-94,409.4c-0.3,2.4-1.9,8.5-5.2,8.3c-3.7-0.2-2.6-7.2-2-9.4
	c0.3-1.1,1.1-3.4,2.3-5.1c0.4,0.3,1,0.4,1.5-0.2c1.3-1.6,2.8,0.5,3.1,1.7C-93.9,406.2-93.8,407.9-94,409.4z"/>
<path id="XMLID_35_" class="st0" d="M-73.8,401.4c1.6,0,1.6-2.5,0-2.5c-2.9,0.1-5.8,0.2-8.7,0.5c-0.7-0.5-2-0.2-2.1,1
	c-0.2,2.5-0.5,5-0.7,7.6c-1.1,0.4-1.2,2.1-0.2,2.4c-0.2,2.6-0.5,5.3-0.8,7.9c-0.2,1.6,2.3,1.6,2.5,0c0.3-2.7,0.5-5.4,0.8-8.1
	c2.9-0.3,5.8-0.4,8.8-0.4c1.6,0,1.6-2.4,0-2.5c-2.9-0.1-5.7,0.1-8.5,0.3c0.2-1.9,0.4-3.8,0.5-5.7C-79.5,401.6-76.7,401.4-73.8,401.4
	z"/>
<path id="XMLID_34_" class="st0" d="M-55.1,400.3c-4.6-0.5-9.3-0.7-13.9-0.6c-1.6,0-1.6,2.5,0,2.5c2.3,0,4.5,0,6.8,0.1
	c-0.6,5.4-1.2,10.9-1.8,16.3c-0.2,1.6,2.3,1.6,2.5,0c0.6-5.4,1.2-10.8,1.7-16.2c1.6,0.1,3.1,0.2,4.7,0.4
	C-53.5,403-53.5,400.5-55.1,400.3z"/>
<path id="XMLID_33_" class="st0" d="M-37.3,398.9c-1.6,4.3-3.1,8.6-4.7,13c-0.2-3.6-0.2-7.3,0-10.9c0.1-1.4-2.1-1.7-2.4-0.3
	c-0.8,3-1.7,6-2.7,8.9c-0.5,1.5-1,3-1.5,4.4c-0.1,0.2-0.2,0.5-0.2,0.7c-0.4-4.9-0.7-9.8-0.9-14.8c-0.1-1.6-2.5-1.6-2.5,0
	c0.2,6.4,0.7,12.8,1.3,19.2c0.1,1,1.3,1.7,2.1,0.9c1-1,1.4-2.2,1.9-3.5c0.6-1.7,1.2-3.3,1.8-5c0.2-0.6,0.4-1.2,0.6-1.7
	c0.1,2.6,0.3,5.1,0.6,7.7c0.2,1.4,1.9,1.7,2.4,0.3c2.2-6.1,4.4-12.1,6.6-18.2C-34.3,398.1-36.7,397.4-37.3,398.9z"/>
<path id="XMLID_45_" class="st0" d="M-22.8,412.4c1.5-0.1,1.4-2.5-0.1-2.5c-0.1,0-0.2,0-0.4,0c-0.7-3.5-1.3-6.9-1.9-10.4
	c-0.2-1.3-2-1-2.3,0.1c-0.2,0.1-0.3,0.3-0.4,0.5c-2.4,5-5,10.8-6.8,16c-0.2,0.1-0.3,0.4-0.4,0.7c0,0.2-0.1,0.4-0.1,0.6
	c-0.2,1.6,1.9,2.2,2.4,0.7s1.4-3.8,2-5.3c1.8-0.1,3.6-0.2,5.5-0.3c0.3,1.7,1.1,4.1,1.4,5.8c0.4,1.6,2.7,0.9,2.4-0.7
	C-21.8,416.1-22.5,413.9-22.8,412.4z M-29.8,410.2c0.9-2.2,1.8-4.3,2.8-6.4c0.4,2.1,0.7,4.2,1.1,6.2
	C-27.1,410.1-28.5,410.1-29.8,410.2z"/>
<path id="XMLID_42_" class="st0" d="M-3,403.3c-0.5-4.4-6.4-4.6-10.2-4.3c-0.4-0.2-1-0.1-1.4,0.2c-0.1,0-0.2,0-0.2,0
	c-1.1,0.2-1.1,1.5-0.4,2.1c-0.5,5.3-1,10.7-1.3,16c-0.1,1.6,2.4,1.6,2.5,0c0.2-2.4,0.3-4.8,0.5-7.2c0.1,0,0.1,0,0.2,0
	c1,0.1,2.2,0,3.5-0.2c1,3,1.9,6.1,2.7,9.2c0.4,1.6,2.8,0.9,2.4-0.7c-0.7-3.1-1.6-6.2-2.7-9.2C-4.9,408.4-2.7,406.4-3,403.3z
	 M-13.4,407.7L-13.4,407.7c0.2-2.1,0.4-4.2,0.6-6.2c2.7-0.2,7.2-0.2,7.4,2.4C-5.2,407.3-11.1,407.9-13.4,407.7z"/>
<path id="XMLID_28_" class="st0" d="M14.4,402c1.6,0,1.6-2.5,0-2.5c-3.2,0-6.4,0-9.6,0c-0.4-0.3-1-0.3-1.4,0c-0.1,0-0.1,0-0.2,0
	c-1.4,0-1.6,2-0.4,2.4c-0.1,1.7-0.2,3.4-0.3,5.2c-0.9,0.3-0.9,1.6-0.1,2.2c-0.2,3.2-0.4,6.4-0.5,9.6c-0.1,1.4,2,1.6,2.4,0.3
	c0.1-0.3,2.6-0.3,3-0.4c1.2-0.1,2.4-0.2,3.6-0.2c1.3,0,3,0.1,3.6-1.4c0.6-1.4-1.5-2.7-2.1-1.3c-0.2,0.4-2.6,0.2-3.1,0.2
	c-1.2,0.1-2.4,0.1-3.6,0.3c-0.4,0-0.8,0.1-1.2,0.1c0.1-2.3,0.3-4.7,0.4-7c2.5,0.2,5,0.3,7.5,0.2c1.6,0,1.6-2.5,0-2.5
	c-2.5,0.1-4.9,0-7.4-0.2c0.1-1.7,0.2-3.5,0.3-5.2C8.2,402,11.3,402,14.4,402z"/>
<path id="XMLID_27_" class="st0" d="M-4.6,429.6c-6,3.7-12.5,6.1-19.5,6.8c-6.4,0.6-12.9-0.2-19.2-1.4c-12.5-2.4-24.8-6.5-37.6-6.6
	c-6.8-0.1-13.7,1.1-19.7,4.5c-1,0.6-0.3,2.4,0.8,1.9c0.5-0.2,0.9-0.4,1.4-0.6c0.2-0.1,0.3-0.2,0.4-0.4c10.8-5.4,24.1-3.6,35.4-1.1
	c12.5,2.7,25.2,6.8,38.2,5.7c7.5-0.6,14.5-3.1,20.9-7.1C-2.4,430.8-3.4,428.9-4.6,429.6z"/>
</svg>
