<?xml version="1.0" encoding="utf-8"?>
<!-- Generator: Adobe Illustrator 19.0.0, SVG Export Plug-In . SVG Version: 6.00 Build 0)  -->
<svg version="1.1" id="Layer_1" xmlns="http://www.w3.org/2000/svg" xmlns:xlink="http://www.w3.org/1999/xlink" x="0px" y="0px"
	 viewBox="-123 265.7 364.5 263.3" style="enable-background:new -123 265.7 364.5 263.3;" xml:space="preserve">
<style type="text/css">
	.st0{fill:#231F20;}
</style>
<path class="st0" d="M32.9,464.3c-21.2,0-42.3-0.6-62.8-1.8c-0.6,0-1.3-0.5-1.3-1.2c-0.2-37.9,2.3-74,7.4-107.4l0-0.1l0-0.1
	c-0.1-0.9-0.1-1.8-0.2-2.7l0-0.5l-0.5,0c-0.9,0-1-0.8-1-1c0-0.6,0.3-1.3,1.1-1.5l0.4-0.1l0-0.5c0.1-3.1,0.6-5.7,1.5-8
	c1-2.6,2.7-4.8,4.8-6.2c2.7-1.8,5.7-2.5,9.5-2.8c16-1.6,33-3,51.8-4.3c23.5-1.7,47.2-2.9,70.3-3.8c1.6-0.1,3.2-0.1,4.8-0.2
	c3.3-0.2,6.7-0.3,10.1-0.3c0.7,0,1.5,0,2.2,0c5.8,0.1,9.8,1.6,12.7,4.4c5.1,5.2,6.9,13.2,5.4,23.8c1.7,36,1.3,72.2,1,107.1
	c0,0.7-0.5,1.2-1.3,1.3c-13,1.3-25.9,2.3-38.5,3.1C84.2,463.5,58.1,464.3,32.9,464.3C32.9,464.3,32.9,464.3,32.9,464.3z
	 M112.4,344.9c-44.5,0-89.6,1.8-134.1,5.5l-0.4,0l-0.1,0.6l0.1,0.3c0.1,0.2,0.1,0.3,0.1,0.6c-5,38.4-7.2,73.7-6.8,107.7l0,0.5l0.5,0
	c14.3,0.7,26,1.1,36.8,1.3c8.2,0.2,16.5,0.3,24.7,0.3c37.8,0,76.1-1.8,113.8-5.4l0.5,0l0-0.5c0.3-31.2,0.7-66.5-0.8-101.1l0-0.2
	l-0.2-0.2c-0.2-0.2-0.3-0.4-0.3-0.7c0.1-1,0.2-2,0.3-3l0-0.6c-0.1-1.4-0.1-2.8-0.2-4.2l0-0.5l-0.5,0c-10.2-0.2-20.3-0.3-29.9-0.3
	L112.4,344.9z M129.6,324.5c-4.8,0-9.8,0.2-14.5,0.4c-1.8,0.1-3.6,0.2-5.4,0.2c-7.2,0.3-14.3,0.6-21.1,0.9
	c-23.6,1.2-47.2,2.7-70.2,4.6c-5.8,0.5-11.7,1-17.5,1.5l-2.4,0.2c-2.2,0.2-4.4,0.4-6.7,0.6c-2.3,0.2-5.2,0.5-7.5,2
	c-3.5,2.2-5.8,6.3-6.8,12.2l-0.1,0.7l0.7-0.1c10-0.8,19.8-1.5,29.1-2.1c34.8-2.2,70.1-3.4,104.9-3.4c11.4,0,23,0.1,34.5,0.4l0.6,0
	l0-0.6c0-3.2-0.5-5.9-1.5-8.4c-0.9-2.2-2.6-5.3-5.4-7c-2.4-1.5-5.3-2.3-9.1-2.3C130.6,324.5,130.1,324.5,129.6,324.5z"/>
<path class="st0" d="M-11.3,342.9c-0.7,0-1.3-0.4-1.8-0.9c-0.2-0.3-0.5-0.8-0.3-1.5l0-0.2l0-0.2c-0.1-0.3,0.1-0.5,0.2-0.7
	c0.4-0.5,1-0.8,1.7-0.8c0.3,0,0.6,0,0.8,0.1c0.2,0.1,0.4,0.1,0.5,0.2c0,0,0.1,0.1,0.1,0.1l0,0.1l0.1,0.1c0.2,0.2,0.4,0.5,0.5,0.7
	c0.2,0.6,0.1,1.4-0.3,2c-0.4,0.6-0.9,0.9-1.5,1C-11.2,342.9-11.2,342.9-11.3,342.9z"/>
<path class="st0" d="M-3.5,342.6c-0.3,0-0.7-0.2-1-0.3l-0.3-0.1c-0.1,0-0.2-0.3-0.2-0.4c0-0.5,0.1-1.1,0.2-1.6l0.1-0.2l0-0.2
	c0-0.1,0-0.2,0-0.3c0.1-0.8,0.8-0.9,1.2-0.9c0.7,0,1.6,0.4,1.8,1.2c0.2,0.7,0,1.6-0.6,2.2C-2.7,342.1-3.2,342.5-3.5,342.6
	L-3.5,342.6z"/>
<path class="st0" d="M4.1,341.7c-0.8,0-1.4-0.3-1.9-0.8c-0.5-0.6-0.7-1.2-0.6-1.9c0.1-0.6,0.4-1.1,1-1.5c0.5-0.4,1.1-0.5,1.8-0.5
	h0.1l0.1,0c0.4-0.2,0.9-0.2,1.4-0.2c0.3,0,0.5,0,0.8,0.1c0.3,0,0.5,0.4,0.5,0.8c0.1,1.3-0.4,3-1.7,3.7
	C5.2,341.6,4.7,341.7,4.1,341.7L4.1,341.7z"/>
<path class="st0" d="M-4.8,440.6c-0.4,0-0.8-0.4-0.9-0.8c-0.1-0.2-0.2-0.8,0.4-1.1c6.5-4.3,11.9-7.7,17.1-11
	c18.4-11.5,36.8-22.5,54.9-32.8l0.9-0.5l-1-0.5c-6.7-3.1-13.7-6.3-21-9.4c-8.7-3.7-18.1-7.6-29.7-12.2c-3.4-1.4-6.9-2.7-10.4-4
	c-6.3-2.4-12.7-4.8-19-7.6c-0.4-0.2-0.3-0.5-0.3-0.7c0.1-0.3,0.3-0.7,0.7-0.7c0.1,0,0.1,0,0.2,0c5.4,1.8,10.9,3.9,16.1,5.9
	c1.4,0.5,2.7,1.1,4.1,1.6c7.5,2.9,14.1,5.5,20.1,7.9c15.6,6.3,29.3,12.2,42,18.2l0.3,0.1l0.3-0.1c10-5.7,20-11.2,29.7-16.4
	c2-1.1,4-2.2,6-3.2c7.8-4.3,15.9-8.7,24.1-12.4c0.1-0.1,0.2-0.1,0.4-0.1c0.4,0,0.7,0.3,0.8,0.6c0.1,0.3,0,0.5-0.3,0.7
	c-4,2.4-8.3,4.6-12.4,6.7c-1.8,1-3.7,1.9-5.5,2.9c-12.8,6.8-26.1,14.2-39.6,21.9l-0.9,0.5l1,0.5c25.3,12.2,47,24.8,66.2,38.7
	c0.7,0.5,0.5,1.3,0.5,1.5c-0.2,0.5-0.6,0.9-1,0.9l0,0c-0.2,0-0.4-0.1-0.6-0.2c-10.7-7.9-22.3-15.5-35.6-23.1
	c-10.1-5.8-20.7-11.3-32.4-16.9l-0.3-0.1l-0.3,0.1c-23.2,13.4-47.4,28-74,44.8C-4.5,440.6-4.7,440.6-4.8,440.6z"/>
<path class="st0" d="M-35.1,508c-3.1,0.1-6.2-0.1-9.2,0.2c-0.3-0.8-1.6-0.7-1.9,0.2c-0.6,0.1-1.1,0.2-1.7,0.3
	c-1.2,0.3-0.7,2.2,0.5,1.9c0.3-0.1,0.6-0.1,0.8-0.2c-0.2,1.7-0.5,3.5-0.8,5.2c-0.1,0-0.1,0-0.2,0c-1.2,0-1.3,1.8-0.1,2
	c-0.4,2.4-0.8,4.7-1.2,7.1c-0.2,1.2,1.7,1.8,1.9,0.5c0.4-2.5,0.9-5,1.2-7.5c2.9,0.1,5.8,0.2,8.7,0.3c1.3,0,1.3-1.9,0-2
	c-2.8-0.1-5.6-0.2-8.4-0.3c0.3-1.9,0.6-3.7,0.8-5.6c3.1-0.3,6.3,0,9.4-0.2C-33.8,509.9-33.8,507.9-35.1,508z"/>
<path class="st0" d="M-27.8,508.6c-0.4-0.7-1.8-0.5-1.9,0.5l-0.6,7.1c-0.6,0.3-0.8,1.3-0.1,1.7c-0.2,2.3-0.4,4.5-0.6,6.8
	c-0.1,1.3,1.9,1.3,2,0c0.2-2.1,0.4-4.3,0.6-6.4c1.2,0.1,2.4,0.1,3.6-0.1c1,2.2,1.9,4.4,2.8,6.6c0.5,1.2,2.4,0.7,1.9-0.5
	c-0.9-2.2-1.8-4.4-2.8-6.5c1.8-0.5,4-1.5,4.3-3.6C-18,510-24.5,508.5-27.8,508.6z M-20.9,513.9c-0.5,2.4-4.8,2.6-7.4,2.4l0.5-5.7
	c1.2-0.1,2.3,0,3.4,0.4c0.8,0.2,1.5,0.6,2.2,1C-21.2,512.5-20.7,512.8-20.9,513.9z"/>
<path class="st0" d="M-6.7,509.2c0.2-0.5,0-1.1-0.6-1.2c-0.5-0.1-0.9-0.1-1.3,0c-0.7-0.2-1.6,0-2.5,0.4c-0.5,0.2-0.6,0.7-0.4,1.1
	c-2,1.8-3.3,4.8-3.9,6.9c-0.8,2.8-1.3,10.1,3.4,9.7c1.9-0.1,3.5-2.1,4.6-3.5c1.4-1.9,2.4-4.1,2.7-6.4C-4.6,514.1-5.2,511-6.7,509.2z
	 M-7.2,517.5c-0.5,1.8-3.5,7.8-5.9,6.2c-2-1.3-1-5.8-0.4-7.6c0.5-1.6,2.3-5.5,4.5-6.2c1.1,0.4,1.8,2.2,2,3.3
	C-6.6,514.6-6.8,516.1-7.2,517.5z"/>
<path class="st0" d="M10.9,508.9c-0.4,4.5-1.2,9-2.2,13.5c-1-1.8-1.6-3.9-2.3-5.7c-1-2.5-2-5-3-7.5c-0.4-1.1-1.8-0.9-1.9,0.3
	c-0.7,5.2-1.6,10.4-2.8,15.6c-0.3,1.2,1.6,1.8,1.9,0.5c0.9-4.1,1.7-8.2,2.3-12.3c0.7,1.7,1.4,3.5,2.1,5.2c1,2.4,1.7,5.1,3.5,7
	c0.5,0.6,1.5,0.3,1.6-0.4c1.3-5.3,2.2-10.7,2.8-16.1C13,507.6,11,507.7,10.9,508.9z"/>
<path class="st0" d="M31.5,508c-2.4,0-4.9,0.1-7.3,0.2c-0.4-0.2-0.9-0.2-1.2,0.1c-1.7,0.1-3.4-0.1-5.2,0.1c-1.3,0.1-1.3,2.1,0,2
	c1.6-0.2,3.1,0,4.7-0.1c-0.3,4.9-0.6,9.7-0.9,14.6c-0.1,1.3,1.9,1.3,2,0c0-0.2,0-0.4,0-0.6c0-0.1,0-0.2,0-0.2
	c0.2-4.6,0.5-9.2,0.9-13.8c2.3-0.1,4.7-0.2,7.1-0.2C32.8,510,32.8,508,31.5,508z"/>
<path class="st0" d="M60.2,509.9c1.3,0.1,1.3-1.9,0-2c-2.8-0.2-5.5-0.1-8.2,0.1c-0.3-0.1-0.7-0.1-0.9,0.1c-0.2,0-0.4,0-0.6,0.1
	c-1.2,0.2-1.3,2.1,0,2c0,0,0,0,0.1,0c-0.3,1.8-0.6,3.5-0.9,5.3c-1,0-1.1,1.5-0.3,1.9c-0.4,2.6-0.8,5.2-1.2,7.8
	c-0.1,0.8,0.6,1.6,1.4,1.1c1.5-0.8,3.5-0.2,5.1-0.2c1.7,0,3.4-0.2,5-0.6c1.2-0.3,0.7-2.3-0.5-1.9c-2.1,0.6-4.2,0.6-6.3,0.5
	c-1,0-1.5-0.1-2.6,0c0.3-2.2,0.7-4.3,1-6.5c2.6,0.1,5.2,0.3,7.9,0.6c1.3,0.1,1.3-1.9,0-2c-2.5-0.2-5-0.4-7.5-0.6
	c0.3-1.9,0.6-3.7,1-5.6C55.1,509.8,57.6,509.8,60.2,509.9z"/>
<path class="st0" d="M75,508.4c-1,4.2-2,8.3-2.9,12.5c-0.5-1.4-0.9-2.8-1.3-4.2c-0.7-2.4-1.3-4.8-1.9-7.2c-0.2-0.9-1.7-1-1.9,0
	c-1.1,5.1-2.3,10.2-3.4,15.4c-0.3,1.2,1.6,1.8,1.9,0.5c0.8-3.7,1.6-7.5,2.5-11.2c0.8,3.5,1.8,7.2,3.5,10.2c0.4,0.7,1.6,0.6,1.8-0.2
	c1.2-5.1,2.4-10.2,3.6-15.3C77.2,507.7,75.3,507.2,75,508.4z"/>
<path class="st0" d="M88.5,509.7c-2.4-1.9-5.2-1.9-8-1.2c-1.2,0.3-0.7,2.3,0.5,2c0.3-0.1,0.3-0.1,0.6-0.2c-0.6,4.4-1.3,8.7-2.1,13
	c-0.2,0-0.5,0-0.7,0c-1.9-0.2-1.9,1.9,0,2.1c0.2,0,0.5,0,0.7,0c0.4,0.5,1.3,0.6,1.6-0.1c4.6-0.6,9.5-4,10.1-9
	C91.6,513.6,90.5,511.2,88.5,509.7z M89.1,517.1c-0.9,3.2-4.3,5.4-7.5,6c0.8-4.2,1.4-8.5,2-12.7c0-0.1,0-0.2,0-0.2
	c1.2,0,2.4,0.3,3.5,1.1C89,512.5,89.8,514.7,89.1,517.1z"/>
<path class="st0" d="M113.2,508.1c-3,1.4-4.9,4.9-5.6,8c-0.7,2.8-0.9,7,1.8,8.9c2.9,2,6.3,0.2,8.5-1.9c0.9-0.9-0.5-2.3-1.4-1.4
	c-1.5,1.4-4.1,3.3-6.1,1.5c-1.6-1.3-1.3-4.3-1-6.1c0.4-2,1.2-3.8,2.5-5.4c0.5-0.7,1.2-1.3,1.9-1.7c1.5-0.8,3.7-0.4,3.5,1.7
	c-0.1,1.3,1.8,1.2,2,0C119.6,508.3,115.9,506.9,113.2,508.1z"/>
<path class="st0" d="M148.5,509.2c-1.8-1.4-4.1-1.9-6.4-1.8c-0.4-0.7-1.6-0.9-1.8,0.1c0,0,0,0,0,0.1c-0.3,0-0.6,0.1-0.9,0.2
	c-1.2,0.3-0.7,2.2,0.5,1.9c0,0,0.1,0,0.1,0c-0.6,4.5-1.3,9-1.9,13.5c-0.8,0.1-0.7,0.2-1.5,0.2c-1.3,0.1-1.3,2.1,0,2
	c0.8-0.1,0.6-0.1,1.4-0.2c0.3,0.8,1.7,1,1.8,0c0-0.1,0-0.2,0-0.3c4.9-0.9,9.9-3.1,11-8.4C151.4,513.7,150.6,510.9,148.5,509.2z
	 M148.5,517.3c-1.5,3.3-4.9,4.8-8.3,5.5c0.6-4.5,1.2-9,1.9-13.5c2-0.1,4.1,0.3,5.5,1.6C149.2,512.6,149.4,515.3,148.5,517.3z"/>
<path class="st0" d="M165.9,508.6c-3.7-0.1-7.3-0.1-11,0c-1.3,0-1.3,2,0,2c0.5,0,1.1,0,1.6,0c-0.2,1.7-0.5,3.3-0.7,5
	c-0.1,0-0.2,0-0.3,0c-1.3,0-1.3,1.9,0,2c0,0,0,0,0,0c-0.3,2.4-0.7,4.9-1,7.3c-0.1,0.5,0.5,1,1,1c2.8,0,5.5,0,8.3,0c1.3,0,1.3-2,0-2
	c-2.4,0-4.8,0-7.2,0c0.3-2.1,0.5-4.2,0.8-6.2c2.4,0.1,4.7,0.2,7.1,0.2c1.3,0,1.3-1.9,0-2c-2.3-0.1-4.5-0.1-6.8-0.2
	c0.2-1.7,0.5-3.4,0.7-5c0,0,0,0,0,0c2.5,0,4.9,0,7.4,0.1C167.2,510.6,167.2,508.6,165.9,508.6z"/>
<path class="st0" d="M131.1,508c-0.1-0.1-0.3-0.2-0.6-0.2c-0.3-0.1-0.6-0.1-0.9-0.1c-0.5,0-0.7,0.2-0.9,0.5c-3.2,1.2-5,4.8-5.6,8.1
	c-0.5,2.7-0.8,8.7,3.2,9.2c4.2,0.5,6.5-5.1,7.1-8.4C133.9,514.3,134.2,509.3,131.1,508z M131.2,517.9c-0.3,1.2-0.8,2.3-1.4,3.4
	c-0.7,1-2.3,2.9-3.7,2.2c-2.1-1.1-1.3-6-0.8-7.7c0.7-2.5,2.3-5.6,5.1-5.9C132.7,510.8,131.6,516.1,131.2,517.9z"/>
</svg>
