<?xml version="1.0" encoding="utf-8"?>
<!-- Generator: Adobe Illustrator 19.0.0, SVG Export Plug-In . SVG Version: 6.00 Build 0)  -->
<svg version="1.1" id="Layer_1" xmlns="http://www.w3.org/2000/svg" xmlns:xlink="http://www.w3.org/1999/xlink" x="0px" y="0px"
	 viewBox="120 261 852 272" style="enable-background:new 120 261 852 272;" xml:space="preserve">
<style type="text/css">
	.st0{fill:#FFFFFF;}
</style>
<path class="st0" d="M227.5,386.9v-28.7h96c1,5,1.5,11.1,1.5,17.6c0,21.5-5.9,48.1-24.8,67.1c-18.4,19.2-42,29.4-73.2,29.4
	c-57.9,0-106.5-47.1-106.5-105s48.6-105,106.5-105c32,0,54.8,12.5,71.9,28.9l-20.2,20.2c-12.3-11.5-28.9-20.5-51.7-20.5
	c-42.2,0-75.3,34.1-75.3,76.3s33,76.3,75.3,76.3c27.4,0,43-11,53-21c8.1-8.1,13.5-19.8,15.6-35.8L227.5,386.9L227.5,386.9z
	 M471.3,404.7c0,38.9-30.5,67.6-67.8,67.6s-67.8-28.7-67.8-67.6c0-39.2,30.5-67.6,67.8-67.6S471.3,365.5,471.3,404.7z M441.6,404.7
	c0-24.3-17.7-41-38.1-41s-38.1,16.6-38.1,41c0,24.1,17.7,41,38.1,41C424,445.7,441.7,428.8,441.6,404.7L441.6,404.7z M619.3,404.7
	c0,38.9-30.5,67.6-67.8,67.6s-67.8-28.7-67.8-67.6c0-39.2,30.5-67.6,67.8-67.6S619.3,365.5,619.3,404.7z M589.6,404.7
	c0-24.3-17.7-41-38.1-41s-38.1,16.6-38.1,41c0,24.1,17.7,41,38.1,41C572,445.7,589.7,428.8,589.6,404.7L589.6,404.7z M761.2,341.2
	v121.4c0,49.9-29.4,70.4-64.3,70.4c-32.8,0-52.5-22-59.9-39.9l25.9-10.8c4.6,11,15.9,24.1,34,24.1c22.3,0,36.1-13.8,36.1-39.7V457
	h-1c-6.7,8.2-19.5,15.4-35.6,15.4c-33.8,0-64.8-29.4-64.8-67.3c0-38.2,31-67.8,64.8-67.8c16.1,0,28.9,7.2,35.6,15.1h1v-11h28.2
	V341.2z M735.1,405c0-23.8-15.9-41.2-36.1-41.2c-20.5-0.1-37.6,17.4-37.6,41.2c0,23.5,17.2,40.7,37.6,40.7
	C719.2,445.7,735.1,428.5,735.1,405z M811.5,270.2v198h-29.7v-198H811.5z M926.2,427l23,15.4c-7.4,11-25.3,29.9-56.3,29.9
	c-38.4,0-67.1-29.7-67.1-67.6c0-40.2,28.9-67.6,63.8-67.6c35.1,0,52.2,27.9,57.9,43l3.1,7.7l-90.5,37.4
	c6.9,13.6,17.7,20.5,32.8,20.5C908,445.7,918.5,438.2,926.2,427z M855.3,402.7l60.4-25.1c-3.3-8.5-13.3-14.3-25.1-14.3
	C875.5,363.2,854.5,376.5,855.3,402.7L855.3,402.7z M957.5,338.2v1.5h-3.2v10.5h-1.6v-10.5h-3.2v-1.5H957.5z M971.5,338.2v12h-1.6
	v-7.3c0-1,0.1-2.3,0.1-2.3h-0.1l-3.8,9.6h-1.3l-3.7-9.6H961c0,0,0.1,1.4,0.1,2.3v7.3h-1.6v-12h2.2l3.7,9.8h0.1l3.7-9.8H971.5z"/>
</svg>
