<?xml version="1.0" encoding="utf-8"?>
<!-- Generator: Adobe Illustrator 19.0.0, SVG Export Plug-In . SVG Version: 6.00 Build 0)  -->
<svg version="1.1" id="Layer_1" xmlns="http://www.w3.org/2000/svg" xmlns:xlink="http://www.w3.org/1999/xlink" x="0px" y="0px"
	 viewBox="653.3 -144.7 64.4 10.4" style="enable-background:new 653.3 -144.7 64.4 10.4;" xml:space="preserve">
<style type="text/css">
	.st0{fill:#231F20;}
</style>
<g>
	
		<rect x="652.1" y="-140.5" transform="matrix(0.7071 0.7071 -0.7071 0.7071 94.2288 -506.4884)" class="st0" width="12.7" height="2"/>
	
		<rect x="657.5" y="-145.9" transform="matrix(0.7071 0.7071 -0.7071 0.7071 94.2288 -506.4884)" class="st0" width="2" height="12.7"/>
</g>
<g>
	
		<rect x="670.1" y="-140.5" transform="matrix(0.7071 0.7071 -0.7071 0.7071 99.5009 -519.2164)" class="st0" width="12.7" height="2"/>
	
		<rect x="675.5" y="-145.9" transform="matrix(0.7071 0.7071 -0.7071 0.7071 99.5009 -519.2164)" class="st0" width="2" height="12.7"/>
</g>
<g>
	
		<rect x="688.1" y="-140.5" transform="matrix(0.7071 0.7071 -0.7071 0.7071 104.7729 -531.9443)" class="st0" width="12.7" height="2"/>
	
		<rect x="693.5" y="-145.9" transform="matrix(0.7071 0.7071 -0.7071 0.7071 104.7729 -531.9443)" class="st0" width="2" height="12.7"/>
</g>
<g>
	
		<rect x="706.1" y="-140.5" transform="matrix(0.7071 0.7071 -0.7071 0.7071 110.045 -544.6722)" class="st0" width="12.7" height="2"/>
	
		<rect x="711.5" y="-145.9" transform="matrix(0.7071 0.7071 -0.7071 0.7071 110.045 -544.6722)" class="st0" width="2" height="12.7"/>
</g>
</svg>
